<?xml version="1.0" encoding="UTF-8" standalone="no"?>
<!DOCTYPE svg PUBLIC "-//W3C//DTD SVG 1.1//EN"
 "http://www.w3.org/Graphics/SVG/1.1/DTD/svg11.dtd">
<!-- Generated by graphviz version 2.40.1 (20161225.0304)
 -->
<!-- Title: src/ast/ast_printer.cpp Pages: 1 -->
<svg width="701pt" height="302pt"
 viewBox="0.00 0.00 700.75 302.00" xmlns="http://www.w3.org/2000/svg" xmlns:xlink="http://www.w3.org/1999/xlink">
<g id="graph0" class="graph" transform="scale(1 1) rotate(0) translate(4 298)">
<title>src/ast/ast_printer.cpp</title>
<polygon fill="#ffffff" stroke="transparent" points="-4,4 -4,-298 696.7461,-298 696.7461,4 -4,4"/>
<!-- Node0 -->
<g id="node1" class="node">
<title>Node0</title>
<polygon fill="#bfbfbf" stroke="#000000" points="424.313,-275.5 424.313,-293.5 538.1401,-293.5 538.1401,-275.5 424.313,-275.5"/>
<text text-anchor="middle" x="481.2266" y="-281.5" font-family="Helvetica,sans-Serif" font-size="10.00" fill="#000000">src/ast/ast_printer.cpp</text>
</g>
<!-- Node1 -->
<g id="node2" class="node">
<title>Node1</title>
<polygon fill="#ffffff" stroke="#bfbfbf" points="579.0542,-165.5 579.0542,-183.5 633.3989,-183.5 633.3989,-165.5 579.0542,-165.5"/>
<text text-anchor="middle" x="606.2266" y="-171.5" font-family="Helvetica,sans-Serif" font-size="10.00" fill="#000000">iostream</text>
</g>
<!-- Node0&#45;&gt;Node1 -->
<g id="edge1" class="edge">
<title>Node0&#45;&gt;Node1</title>
<path fill="none" stroke="#191970" d="M491.4558,-275.4982C512.6066,-256.8856 561.3961,-213.9508 588.0449,-190.4999"/>
<polygon fill="#191970" stroke="#191970" points="590.661,-192.86 595.8559,-183.6261 586.0366,-187.6049 590.661,-192.86"/>
</g>
<!-- Node2 -->
<g id="node3" class="node">
<title>Node2</title>
<polygon fill="#ffffff" stroke="#bfbfbf" points="0,-.5 0,-18.5 40.4531,-18.5 40.4531,-.5 0,-.5"/>
<text text-anchor="middle" x="20.2266" y="-6.5" font-family="Helvetica,sans-Serif" font-size="10.00" fill="#000000">string</text>
</g>
<!-- Node0&#45;&gt;Node2 -->
<g id="edge2" class="edge">
<title>Node0&#45;&gt;Node2</title>
<path fill="none" stroke="#191970" d="M424.2272,-282.0208C306.0442,-275.3227 45.2266,-251.7857 45.2266,-174.5 45.2266,-174.5 45.2266,-174.5 45.2266,-119.5 45.2266,-86.8303 34.6111,-50.0296 27.2149,-28.3538"/>
<polygon fill="#191970" stroke="#191970" points="30.4515,-27.0089 23.8085,-18.7554 23.8547,-29.3501 30.4515,-27.0089"/>
</g>
<!-- Node3 -->
<g id="node4" class="node">
<title>Node3</title>
<polygon fill="#ffffff" stroke="#bfbfbf" points="359.0322,-220.5 359.0322,-238.5 503.4209,-238.5 503.4209,-220.5 359.0322,-220.5"/>
<text text-anchor="middle" x="431.2266" y="-226.5" font-family="Helvetica,sans-Serif" font-size="10.00" fill="#000000">llvm/Support/ErrorHandling.h</text>
</g>
<!-- Node0&#45;&gt;Node3 -->
<g id="edge3" class="edge">
<title>Node0&#45;&gt;Node3</title>
<path fill="none" stroke="#191970" d="M472.9701,-275.4179C465.7758,-267.5041 455.1578,-255.8243 446.4312,-246.2251"/>
<polygon fill="#191970" stroke="#191970" points="448.979,-243.8245 439.6624,-238.7795 443.7994,-248.5332 448.979,-243.8245"/>
</g>
<!-- Node4 -->
<g id="node5" class="node">
<title>Node4</title>
<g id="a_node5"><a xlink:href="ast__printer_8h.html" target="_top" xlink:title="ast_printer.h">
<polygon fill="#ffffff" stroke="#000000" points="621.707,-220.5 621.707,-238.5 692.7461,-238.5 692.7461,-220.5 621.707,-220.5"/>
<text text-anchor="middle" x="657.2266" y="-226.5" font-family="Helvetica,sans-Serif" font-size="10.00" fill="#000000">ast_printer.h</text>
</a>
</g>
</g>
<!-- Node0&#45;&gt;Node4 -->
<g id="edge4" class="edge">
<title>Node0&#45;&gt;Node4</title>
<path fill="none" stroke="#191970" d="M510.2894,-275.4179C539.9307,-266.155 586.0827,-251.7325 618.7434,-241.526"/>
<polygon fill="#191970" stroke="#191970" points="619.9123,-244.8277 628.4131,-238.5042 617.8243,-238.1463 619.9123,-244.8277"/>
</g>
<!-- Node7 -->
<g id="node8" class="node">
<title>Node7</title>
<g id="a_node8"><a xlink:href="decl_8h.html" target="_top" xlink:title="../ast/decl.h">
<polygon fill="#ffffff" stroke="#000000" points="273.6577,-220.5 273.6577,-238.5 340.7954,-238.5 340.7954,-220.5 273.6577,-220.5"/>
<text text-anchor="middle" x="307.2266" y="-226.5" font-family="Helvetica,sans-Serif" font-size="10.00" fill="#000000">../ast/decl.h</text>
</a>
</g>
</g>
<!-- Node0&#45;&gt;Node7 -->
<g id="edge8" class="edge">
<title>Node0&#45;&gt;Node7</title>
<path fill="none" stroke="#191970" d="M452.494,-275.4179C423.1896,-266.155 377.562,-251.7325 345.2724,-241.526"/>
<polygon fill="#191970" stroke="#191970" points="346.3025,-238.181 335.7126,-238.5042 344.1927,-244.8555 346.3025,-238.181"/>
</g>
<!-- Node18 -->
<g id="node19" class="node">
<title>Node18</title>
<g id="a_node19"><a xlink:href="stmt_8h.html" target="_top" xlink:title="stmt.h">
<polygon fill="#ffffff" stroke="#000000" points="479.6133,-165.5 479.6133,-183.5 522.8398,-183.5 522.8398,-165.5 479.6133,-165.5"/>
<text text-anchor="middle" x="501.2266" y="-171.5" font-family="Helvetica,sans-Serif" font-size="10.00" fill="#000000">stmt.h</text>
</a>
</g>
</g>
<!-- Node0&#45;&gt;Node18 -->
<g id="edge33" class="edge">
<title>Node0&#45;&gt;Node18</title>
<path fill="none" stroke="#191970" d="M490.0035,-275.2857C497.5527,-266.6749 507.89,-253.0668 512.2266,-239 516.8281,-224.0737 513.3132,-206.5742 509.0733,-193.5716"/>
<polygon fill="#191970" stroke="#191970" points="512.2394,-192.0402 505.5034,-183.8624 505.6694,-194.4559 512.2394,-192.0402"/>
</g>
<!-- Node4&#45;&gt;Node1 -->
<g id="edge5" class="edge">
<title>Node4&#45;&gt;Node1</title>
<path fill="none" stroke="#191970" d="M648.8049,-220.4179C641.4667,-212.5041 630.6364,-200.8243 621.7353,-191.2251"/>
<polygon fill="#191970" stroke="#191970" points="624.197,-188.7324 614.8311,-183.7795 619.0641,-193.492 624.197,-188.7324"/>
</g>
<!-- Node5 -->
<g id="node6" class="node">
<title>Node5</title>
<polygon fill="#ffffff" stroke="#bfbfbf" points="577.6108,-.5 577.6108,-18.5 620.8423,-18.5 620.8423,-.5 577.6108,-.5"/>
<text text-anchor="middle" x="599.2266" y="-6.5" font-family="Helvetica,sans-Serif" font-size="10.00" fill="#000000">vector</text>
</g>
<!-- Node4&#45;&gt;Node5 -->
<g id="edge6" class="edge">
<title>Node4&#45;&gt;Node5</title>
<path fill="none" stroke="#191970" d="M658.7138,-220.266C660.4969,-207.7012 662.9279,-184.5438 660.2266,-165 653.2722,-114.6851 650.3455,-101.1946 629.2266,-55 624.7676,-45.2466 618.3762,-35.2106 612.6376,-27.0542"/>
<polygon fill="#191970" stroke="#191970" points="615.3009,-24.7666 606.5738,-18.7592 609.6498,-28.8977 615.3009,-24.7666"/>
</g>
<!-- Node6 -->
<g id="node7" class="node">
<title>Node6</title>
<polygon fill="#ffffff" stroke="#bfbfbf" points="497.1699,-55.5 497.1699,-73.5 549.2832,-73.5 549.2832,-55.5 497.1699,-55.5"/>
<text text-anchor="middle" x="523.2266" y="-61.5" font-family="Helvetica,sans-Serif" font-size="10.00" fill="#000000">memory</text>
</g>
<!-- Node4&#45;&gt;Node6 -->
<g id="edge7" class="edge">
<title>Node4&#45;&gt;Node6</title>
<path fill="none" stroke="#191970" d="M656.9007,-220.4888C656.0541,-207.3694 653.0253,-182.6532 642.2266,-165 618.7725,-126.6585 575.6107,-95.7395 548.219,-78.7672"/>
<polygon fill="#191970" stroke="#191970" points="549.9554,-75.7271 539.5855,-73.5555 546.3378,-81.7199 549.9554,-75.7271"/>
</g>
<!-- Node7&#45;&gt;Node2 -->
<g id="edge9" class="edge">
<title>Node7&#45;&gt;Node2</title>
<path fill="none" stroke="#191970" d="M295.2599,-220.327C250.9517,-186.3625 95.9174,-67.5208 40.287,-24.8773"/>
<polygon fill="#191970" stroke="#191970" points="42.3101,-22.0182 32.2443,-18.7122 38.0515,-27.5738 42.3101,-22.0182"/>
</g>
<!-- Node7&#45;&gt;Node5 -->
<g id="edge11" class="edge">
<title>Node7&#45;&gt;Node5</title>
<path fill="none" stroke="#191970" d="M341.0124,-221.9616C344.1257,-221.2893 347.2333,-220.6266 350.2266,-220 430.9332,-203.1049 467.9717,-235.6752 532.2266,-184 581.0584,-144.7283 594.3434,-65.4163 597.9238,-28.8136"/>
<polygon fill="#191970" stroke="#191970" points="601.4377,-28.7908 598.778,-18.5352 594.4617,-28.211 601.4377,-28.7908"/>
</g>
<!-- Node7&#45;&gt;Node6 -->
<g id="edge10" class="edge">
<title>Node7&#45;&gt;Node6</title>
<path fill="none" stroke="#191970" d="M313.2704,-220.3578C322.3557,-207.0752 340.5744,-182.1576 360.2266,-165 402.8504,-127.7865 460.8463,-95.6328 494.9339,-78.2598"/>
<polygon fill="#191970" stroke="#191970" points="496.9287,-81.1745 504.2919,-73.5564 493.7852,-74.92 496.9287,-81.1745"/>
</g>
<!-- Node8 -->
<g id="node9" class="node">
<title>Node8</title>
<polygon fill="#ffffff" stroke="#bfbfbf" points="368.8672,-165.5 368.8672,-183.5 461.5859,-183.5 461.5859,-165.5 368.8672,-165.5"/>
<text text-anchor="middle" x="415.2266" y="-171.5" font-family="Helvetica,sans-Serif" font-size="10.00" fill="#000000">boost/variant.hpp</text>
</g>
<!-- Node7&#45;&gt;Node8 -->
<g id="edge12" class="edge">
<title>Node7&#45;&gt;Node8</title>
<path fill="none" stroke="#191970" d="M325.0606,-220.4179C342.2572,-211.6603 368.5102,-198.2907 388.2608,-188.2326"/>
<polygon fill="#191970" stroke="#191970" points="390.0434,-191.2526 397.3661,-183.5956 386.8667,-185.0148 390.0434,-191.2526"/>
</g>
<!-- Node9 -->
<g id="node10" class="node">
<title>Node9</title>
<g id="a_node10"><a xlink:href="expr_8h.html" target="_top" xlink:title="expr.h">
<polygon fill="#ffffff" stroke="#000000" points="293.6035,-110.5 293.6035,-128.5 336.8496,-128.5 336.8496,-110.5 293.6035,-110.5"/>
<text text-anchor="middle" x="315.2266" y="-116.5" font-family="Helvetica,sans-Serif" font-size="10.00" fill="#000000">expr.h</text>
</a>
</g>
</g>
<!-- Node7&#45;&gt;Node9 -->
<g id="edge13" class="edge">
<title>Node7&#45;&gt;Node9</title>
<path fill="none" stroke="#191970" d="M307.8812,-220.4982C309.1763,-202.6913 312.0904,-162.6225 313.8337,-138.6515"/>
<polygon fill="#191970" stroke="#191970" points="317.3282,-138.8537 314.5628,-128.6261 310.3466,-138.3459 317.3282,-138.8537"/>
</g>
<!-- Node10 -->
<g id="node11" class="node">
<title>Node10</title>
<g id="a_node11"><a xlink:href="type_8h.html" target="_top" xlink:title="type.h">
<polygon fill="#ffffff" stroke="#000000" points="205.606,-55.5 205.606,-73.5 248.8472,-73.5 248.8472,-55.5 205.606,-55.5"/>
<text text-anchor="middle" x="227.2266" y="-61.5" font-family="Helvetica,sans-Serif" font-size="10.00" fill="#000000">type.h</text>
</a>
</g>
</g>
<!-- Node7&#45;&gt;Node10 -->
<g id="edge31" class="edge">
<title>Node7&#45;&gt;Node10</title>
<path fill="none" stroke="#191970" d="M302.5831,-220.4661C297.8934,-211.307 290.4699,-196.7114 284.2266,-184 266.6606,-148.2357 246.7483,-106.1134 235.7216,-82.6421"/>
<polygon fill="#191970" stroke="#191970" points="238.8621,-81.0955 231.4465,-73.5285 232.5247,-84.0683 238.8621,-81.0955"/>
</g>
<!-- Node15 -->
<g id="node16" class="node">
<title>Node15</title>
<g id="a_node16"><a xlink:href="srcloc_8h.html" target="_top" xlink:title="srcloc.h">
<polygon fill="#ffffff" stroke="#000000" points="267,-55.5 267,-73.5 317.4531,-73.5 317.4531,-55.5 267,-55.5"/>
<text text-anchor="middle" x="292.2266" y="-61.5" font-family="Helvetica,sans-Serif" font-size="10.00" fill="#000000">srcloc.h</text>
</a>
</g>
</g>
<!-- Node7&#45;&gt;Node15 -->
<g id="edge32" class="edge">
<title>Node7&#45;&gt;Node15</title>
<path fill="none" stroke="#191970" d="M303.6598,-220.2949C296.3378,-200.369 280.5908,-151.6738 284.2266,-110 284.9934,-101.2109 286.5782,-91.5742 288.1366,-83.441"/>
<polygon fill="#191970" stroke="#191970" points="291.5943,-84.0012 290.1658,-73.5031 284.7359,-82.6007 291.5943,-84.0012"/>
</g>
<!-- Node7&#45;&gt;Node18 -->
<g id="edge27" class="edge">
<title>Node7&#45;&gt;Node18</title>
<path fill="none" stroke="#191970" d="M340.6996,-220.4209C371.7019,-211.9534 419.3265,-198.7986 469.7805,-184.0783"/>
<polygon fill="#191970" stroke="#191970" points="470.9532,-187.3819 479.5672,-181.2135 468.9866,-180.6638 470.9532,-187.3819"/>
</g>
<!-- Node9&#45;&gt;Node2 -->
<g id="edge14" class="edge">
<title>Node9&#45;&gt;Node2</title>
<path fill="none" stroke="#191970" d="M293.5345,-111.4114C241.5861,-92.0408 109.9475,-42.9553 50.3559,-20.7347"/>
<polygon fill="#191970" stroke="#191970" points="51.359,-17.3733 40.7663,-17.1589 48.9133,-23.9322 51.359,-17.3733"/>
</g>
<!-- Node9&#45;&gt;Node5 -->
<g id="edge16" class="edge">
<title>Node9&#45;&gt;Node5</title>
<path fill="none" stroke="#191970" d="M337.0783,-113.157C364.0624,-105.0923 411.1797,-90.2499 450.2266,-74 467.6595,-66.745 471.0344,-62.8085 488.2266,-55 514.8211,-42.921 545.5905,-30.421 567.9789,-21.5864"/>
<polygon fill="#191970" stroke="#191970" points="569.2963,-24.8294 577.3268,-17.9184 566.7394,-18.313 569.2963,-24.8294"/>
</g>
<!-- Node9&#45;&gt;Node6 -->
<g id="edge15" class="edge">
<title>Node9&#45;&gt;Node6</title>
<path fill="none" stroke="#191970" d="M337.0931,-113.718C372.821,-104.2707 444.0549,-85.4348 487.2948,-74.0012"/>
<polygon fill="#191970" stroke="#191970" points="488.3488,-77.3429 497.1218,-71.4027 486.5593,-70.5755 488.3488,-77.3429"/>
</g>
<!-- Node9&#45;&gt;Node10 -->
<g id="edge17" class="edge">
<title>Node9&#45;&gt;Node10</title>
<path fill="none" stroke="#191970" d="M300.6952,-110.4179C287.0652,-101.8992 266.4531,-89.0166 250.5269,-79.0627"/>
<polygon fill="#191970" stroke="#191970" points="252.1146,-75.9277 241.7796,-73.5956 248.4045,-81.8637 252.1146,-75.9277"/>
</g>
<!-- Node9&#45;&gt;Node15 -->
<g id="edge24" class="edge">
<title>Node9&#45;&gt;Node15</title>
<path fill="none" stroke="#191970" d="M311.4286,-110.4179C308.3509,-103.0581 303.911,-92.441 300.0756,-83.2695"/>
<polygon fill="#191970" stroke="#191970" points="303.1942,-81.6549 296.1071,-73.7795 296.7362,-84.3556 303.1942,-81.6549"/>
</g>
<!-- Node17 -->
<g id="node18" class="node">
<title>Node17</title>
<g id="a_node18"><a xlink:href="operators_8h.html" target="_top" xlink:title="../parser/operators.h">
<polygon fill="#ffffff" stroke="#000000" points="335.2046,-55.5 335.2046,-73.5 441.2485,-73.5 441.2485,-55.5 335.2046,-55.5"/>
<text text-anchor="middle" x="388.2266" y="-61.5" font-family="Helvetica,sans-Serif" font-size="10.00" fill="#000000">../parser/operators.h</text>
</a>
</g>
</g>
<!-- Node9&#45;&gt;Node17 -->
<g id="edge26" class="edge">
<title>Node9&#45;&gt;Node17</title>
<path fill="none" stroke="#191970" d="M327.281,-110.4179C338.3099,-102.1084 354.8497,-89.6469 367.9172,-79.8015"/>
<polygon fill="#191970" stroke="#191970" points="370.0295,-82.5924 375.9102,-73.7795 365.8172,-77.0016 370.0295,-82.5924"/>
</g>
<!-- Node10&#45;&gt;Node2 -->
<g id="edge19" class="edge">
<title>Node10&#45;&gt;Node2</title>
<path fill="none" stroke="#191970" d="M205.4544,-59.4272C173.4908,-51.8748 111.8009,-36.9012 50.3164,-19.1826"/>
<polygon fill="#191970" stroke="#191970" points="51.0343,-15.7465 40.4548,-16.316 49.0804,-22.4682 51.0343,-15.7465"/>
</g>
<!-- Node10&#45;&gt;Node5 -->
<g id="edge18" class="edge">
<title>Node10&#45;&gt;Node5</title>
<path fill="none" stroke="#191970" d="M249.1134,-57.2538C252.1522,-56.4062 255.2515,-55.6232 258.2266,-55 390.802,-27.2289 430.6119,-46.4861 567.3262,-18.8205"/>
<polygon fill="#191970" stroke="#191970" points="568.2576,-22.2019 577.3397,-16.7462 566.8376,-15.3475 568.2576,-22.2019"/>
</g>
<!-- Node11 -->
<g id="node12" class="node">
<title>Node11</title>
<polygon fill="#ffffff" stroke="#bfbfbf" points="320.165,-.5 320.165,-18.5 372.2881,-18.5 372.2881,-.5 320.165,-.5"/>
<text text-anchor="middle" x="346.2266" y="-6.5" font-family="Helvetica,sans-Serif" font-size="10.00" fill="#000000">ostream</text>
</g>
<!-- Node10&#45;&gt;Node11 -->
<g id="edge20" class="edge">
<title>Node10&#45;&gt;Node11</title>
<path fill="none" stroke="#191970" d="M246.877,-55.4179C266.0836,-46.5409 295.5428,-32.9253 317.4005,-22.823"/>
<polygon fill="#191970" stroke="#191970" points="318.938,-25.9682 326.5469,-18.5956 316.0012,-19.614 318.938,-25.9682"/>
</g>
<!-- Node12 -->
<g id="node13" class="node">
<title>Node12</title>
<polygon fill="#ffffff" stroke="#bfbfbf" points="390.665,-.5 390.665,-18.5 497.7881,-18.5 497.7881,-.5 390.665,-.5"/>
<text text-anchor="middle" x="444.2266" y="-6.5" font-family="Helvetica,sans-Serif" font-size="10.00" fill="#000000">llvm/ADT/ArrayRef.h</text>
</g>
<!-- Node10&#45;&gt;Node12 -->
<g id="edge21" class="edge">
<title>Node10&#45;&gt;Node12</title>
<path fill="none" stroke="#191970" d="M248.8605,-57.6969C251.9945,-56.7619 255.1874,-55.8367 258.2266,-55 304.0764,-42.3779 356.7634,-29.6547 394.33,-20.8847"/>
<polygon fill="#191970" stroke="#191970" points="395.5585,-24.1925 404.5065,-18.5193 393.9737,-17.3743 395.5585,-24.1925"/>
</g>
<!-- Node13 -->
<g id="node14" class="node">
<title>Node13</title>
<polygon fill="#ffffff" stroke="#bfbfbf" points="58.5493,-.5 58.5493,-18.5 167.9038,-18.5 167.9038,-.5 58.5493,-.5"/>
<text text-anchor="middle" x="113.2266" y="-6.5" font-family="Helvetica,sans-Serif" font-size="10.00" fill="#000000">llvm/ADT/StringRef.h</text>
</g>
<!-- Node10&#45;&gt;Node13 -->
<g id="edge22" class="edge">
<title>Node10&#45;&gt;Node13</title>
<path fill="none" stroke="#191970" d="M208.4018,-55.4179C190.0847,-46.5807 162.0336,-33.0473 141.1235,-22.9591"/>
<polygon fill="#191970" stroke="#191970" points="142.6068,-19.7887 132.0793,-18.5956 139.565,-26.0933 142.6068,-19.7887"/>
</g>
<!-- Node14 -->
<g id="node15" class="node">
<title>Node14</title>
<polygon fill="#ffffff" stroke="#bfbfbf" points="185.9263,-.5 185.9263,-18.5 302.5269,-18.5 302.5269,-.5 185.9263,-.5"/>
<text text-anchor="middle" x="244.2266" y="-6.5" font-family="Helvetica,sans-Serif" font-size="10.00" fill="#000000">llvm/Support/Casting.h</text>
</g>
<!-- Node10&#45;&gt;Node14 -->
<g id="edge23" class="edge">
<title>Node10&#45;&gt;Node14</title>
<path fill="none" stroke="#191970" d="M230.0338,-55.4179C232.2841,-48.1372 235.5198,-37.669 238.3335,-28.5659"/>
<polygon fill="#191970" stroke="#191970" points="241.7491,-29.3671 241.3584,-18.7795 235.0613,-27.2999 241.7491,-29.3671"/>
</g>
<!-- Node16 -->
<g id="node17" class="node">
<title>Node16</title>
<polygon fill="#ffffff" stroke="#bfbfbf" points="515.3398,-.5 515.3398,-18.5 559.1133,-18.5 559.1133,-.5 515.3398,-.5"/>
<text text-anchor="middle" x="537.2266" y="-6.5" font-family="Helvetica,sans-Serif" font-size="10.00" fill="#000000">climits</text>
</g>
<!-- Node15&#45;&gt;Node16 -->
<g id="edge25" class="edge">
<title>Node15&#45;&gt;Node16</title>
<path fill="none" stroke="#191970" d="M317.792,-57.1318C320.6299,-56.381 323.4844,-55.6548 326.2266,-55 402.8875,-36.6943 425.9965,-39.1756 505.0942,-19.3607"/>
<polygon fill="#191970" stroke="#191970" points="506.1987,-22.6912 515.0252,-16.8308 504.4707,-15.9078 506.1987,-22.6912"/>
</g>
<!-- Node18&#45;&gt;Node5 -->
<g id="edge28" class="edge">
<title>Node18&#45;&gt;Node5</title>
<path fill="none" stroke="#191970" d="M506.7763,-165.1561C522.543,-138.6101 567.8012,-62.41 588.5732,-27.4369"/>
<polygon fill="#191970" stroke="#191970" points="591.6403,-29.1266 593.7377,-18.7414 585.6218,-25.5519 591.6403,-29.1266"/>
</g>
<!-- Node18&#45;&gt;Node6 -->
<g id="edge29" class="edge">
<title>Node18&#45;&gt;Node6</title>
<path fill="none" stroke="#191970" d="M503.0269,-165.4982C506.5883,-147.6913 514.6021,-107.6225 519.3963,-83.6515"/>
<polygon fill="#191970" stroke="#191970" points="522.8721,-84.1184 521.4013,-73.6261 516.0081,-82.7455 522.8721,-84.1184"/>
</g>
<!-- Node18&#45;&gt;Node9 -->
<g id="edge30" class="edge">
<title>Node18&#45;&gt;Node9</title>
<path fill="none" stroke="#191970" d="M479.5563,-167.8234C476.4276,-166.8698 473.2459,-165.9058 470.2266,-165 427.6296,-152.2214 378.3317,-137.8156 346.9787,-128.7016"/>
<polygon fill="#191970" stroke="#191970" points="347.6488,-125.2517 337.0695,-125.8236 345.6964,-131.9739 347.6488,-125.2517"/>
</g>
</g>
</svg>
