<?xml version="1.0" encoding="UTF-8" standalone="no"?>
<!DOCTYPE svg PUBLIC "-//W3C//DTD SVG 1.1//EN"
 "http://www.w3.org/Graphics/SVG/1.1/DTD/svg11.dtd">
<!-- Generated by graphviz version 2.40.1 (20161225.0304)
 -->
<!-- Title: src/ast/ast_printer.h Pages: 1 -->
<svg width="240pt" height="82pt"
 viewBox="0.00 0.00 240.15 82.00" xmlns="http://www.w3.org/2000/svg" xmlns:xlink="http://www.w3.org/1999/xlink">
<g id="graph0" class="graph" transform="scale(1 1) rotate(0) translate(4 78)">
<title>src/ast/ast_printer.h</title>
<polygon fill="#ffffff" stroke="transparent" points="-4,4 -4,-78 236.1475,-78 236.1475,4 -4,4"/>
<!-- Node4 -->
<g id="node1" class="node">
<title>Node4</title>
<polygon fill="#bfbfbf" stroke="#000000" points="67.2808,-55.5 67.2808,-73.5 170.5464,-73.5 170.5464,-55.5 67.2808,-55.5"/>
<text text-anchor="middle" x="118.9136" y="-61.5" font-family="Helvetica,sans-Serif" font-size="10.00" fill="#000000">src/ast/ast_printer.h</text>
</g>
<!-- Node5 -->
<g id="node2" class="node">
<title>Node5</title>
<g id="a_node2"><a xlink:href="ast__printer_8cpp.html" target="_top" xlink:title="src/ast/ast_printer.cpp">
<polygon fill="#ffffff" stroke="#000000" points="0,-.5 0,-18.5 113.8271,-18.5 113.8271,-.5 0,-.5"/>
<text text-anchor="middle" x="56.9136" y="-6.5" font-family="Helvetica,sans-Serif" font-size="10.00" fill="#000000">src/ast/ast_printer.cpp</text>
</a>
</g>
</g>
<!-- Node4&#45;&gt;Node5 -->
<g id="edge1" class="edge">
<title>Node4&#45;&gt;Node5</title>
<path fill="none" stroke="#191970" d="M100.9721,-48.5841C90.0754,-38.9177 76.5447,-26.9147 67.3741,-18.7795"/>
<polygon fill="#191970" stroke="#191970" points="98.8721,-51.4 108.6755,-55.4179 103.5174,-46.1634 98.8721,-51.4"/>
</g>
<!-- Node6 -->
<g id="node3" class="node">
<title>Node6</title>
<g id="a_node3"><a xlink:href="main_8cpp.html" target="_top" xlink:title="src/driver/main.cpp">
<polygon fill="#ffffff" stroke="#000000" points="131.6797,-.5 131.6797,-18.5 232.1475,-18.5 232.1475,-.5 131.6797,-.5"/>
<text text-anchor="middle" x="181.9136" y="-6.5" font-family="Helvetica,sans-Serif" font-size="10.00" fill="#000000">src/driver/main.cpp</text>
</a>
</g>
</g>
<!-- Node4&#45;&gt;Node6 -->
<g id="edge2" class="edge">
<title>Node4&#45;&gt;Node6</title>
<path fill="none" stroke="#191970" d="M137.1445,-48.5841C148.2169,-38.9177 161.9659,-26.9147 171.2844,-18.7795"/>
<polygon fill="#191970" stroke="#191970" points="134.5481,-46.2046 129.3167,-55.4179 139.1517,-51.4779 134.5481,-46.2046"/>
</g>
</g>
</svg>
