<?xml version="1.0" encoding="UTF-8" standalone="no"?>
<!DOCTYPE svg PUBLIC "-//W3C//DTD SVG 1.1//EN"
 "http://www.w3.org/Graphics/SVG/1.1/DTD/svg11.dtd">
<!-- Generated by graphviz version 2.40.1 (20161225.0304)
 -->
<!-- Title: src/ast/ast_printer.h Pages: 1 -->
<svg width="194pt" height="82pt"
 viewBox="0.00 0.00 194.23 82.00" xmlns="http://www.w3.org/2000/svg" xmlns:xlink="http://www.w3.org/1999/xlink">
<g id="graph0" class="graph" transform="scale(1 1) rotate(0) translate(4 78)">
<title>src/ast/ast_printer.h</title>
<polygon fill="#ffffff" stroke="transparent" points="-4,4 -4,-78 190.229,-78 190.229,4 -4,4"/>
<!-- Node0 -->
<g id="node1" class="node">
<title>Node0</title>
<polygon fill="#bfbfbf" stroke="#000000" points="42.5396,-55.5 42.5396,-73.5 145.8052,-73.5 145.8052,-55.5 42.5396,-55.5"/>
<text text-anchor="middle" x="94.1724" y="-61.5" font-family="Helvetica,sans-Serif" font-size="10.00" fill="#000000">src/ast/ast_printer.h</text>
</g>
<!-- Node1 -->
<g id="node2" class="node">
<title>Node1</title>
<polygon fill="#ffffff" stroke="#bfbfbf" points="0,-.5 0,-18.5 54.3447,-18.5 54.3447,-.5 0,-.5"/>
<text text-anchor="middle" x="27.1724" y="-6.5" font-family="Helvetica,sans-Serif" font-size="10.00" fill="#000000">iostream</text>
</g>
<!-- Node0&#45;&gt;Node1 -->
<g id="edge1" class="edge">
<title>Node0&#45;&gt;Node1</title>
<path fill="none" stroke="#191970" d="M83.1087,-55.4179C73.1791,-47.2667 58.3823,-35.1201 46.5012,-25.3669"/>
<polygon fill="#191970" stroke="#191970" points="48.4265,-22.4192 38.4764,-18.7795 43.985,-27.8297 48.4265,-22.4192"/>
</g>
<!-- Node2 -->
<g id="node3" class="node">
<title>Node2</title>
<polygon fill="#ffffff" stroke="#bfbfbf" points="72.5566,-.5 72.5566,-18.5 115.7881,-18.5 115.7881,-.5 72.5566,-.5"/>
<text text-anchor="middle" x="94.1724" y="-6.5" font-family="Helvetica,sans-Serif" font-size="10.00" fill="#000000">vector</text>
</g>
<!-- Node0&#45;&gt;Node2 -->
<g id="edge2" class="edge">
<title>Node0&#45;&gt;Node2</title>
<path fill="none" stroke="#191970" d="M94.1724,-55.4179C94.1724,-48.2164 94.1724,-37.8962 94.1724,-28.8632"/>
<polygon fill="#191970" stroke="#191970" points="97.6725,-28.7794 94.1724,-18.7795 90.6725,-28.7795 97.6725,-28.7794"/>
</g>
<!-- Node3 -->
<g id="node4" class="node">
<title>Node3</title>
<polygon fill="#ffffff" stroke="#bfbfbf" points="134.1157,-.5 134.1157,-18.5 186.229,-18.5 186.229,-.5 134.1157,-.5"/>
<text text-anchor="middle" x="160.1724" y="-6.5" font-family="Helvetica,sans-Serif" font-size="10.00" fill="#000000">memory</text>
</g>
<!-- Node0&#45;&gt;Node3 -->
<g id="edge3" class="edge">
<title>Node0&#45;&gt;Node3</title>
<path fill="none" stroke="#191970" d="M105.0709,-55.4179C114.8523,-47.2667 129.4282,-35.1201 141.132,-25.3669"/>
<polygon fill="#191970" stroke="#191970" points="143.5954,-27.8701 149.037,-18.7795 139.1141,-22.4926 143.5954,-27.8701"/>
</g>
</g>
</svg>
