<?xml version="1.0" encoding="UTF-8" standalone="no"?>
<!DOCTYPE svg PUBLIC "-//W3C//DTD SVG 1.1//EN"
 "http://www.w3.org/Graphics/SVG/1.1/DTD/svg11.dtd">
<!-- Generated by graphviz version 2.40.1 (20161225.0304)
 -->
<!-- Title: src/sema/c&#45;import.cpp Pages: 1 -->
<svg width="2339pt" height="302pt"
 viewBox="0.00 0.00 2338.93 302.00" xmlns="http://www.w3.org/2000/svg" xmlns:xlink="http://www.w3.org/1999/xlink">
<g id="graph0" class="graph" transform="scale(1 1) rotate(0) translate(4 298)">
<title>src/sema/c&#45;import.cpp</title>
<polygon fill="#ffffff" stroke="transparent" points="-4,4 -4,-298 2334.9282,-298 2334.9282,4 -4,4"/>
<!-- Node0 -->
<g id="node1" class="node">
<title>Node0</title>
<polygon fill="#bfbfbf" stroke="#000000" points="1080.0688,-275.5 1080.0688,-293.5 1194.4233,-293.5 1194.4233,-275.5 1080.0688,-275.5"/>
<text text-anchor="middle" x="1137.2461" y="-281.5" font-family="Helvetica,sans-Serif" font-size="10.00" fill="#000000">src/sema/c&#45;import.cpp</text>
</g>
<!-- Node1 -->
<g id="node2" class="node">
<title>Node1</title>
<polygon fill="#ffffff" stroke="#bfbfbf" points="0,-220.5 0,-238.5 80.4922,-238.5 80.4922,-220.5 0,-220.5"/>
<text text-anchor="middle" x="40.2461" y="-226.5" font-family="Helvetica,sans-Serif" font-size="10.00" fill="#000000">unordered_set</text>
</g>
<!-- Node0&#45;&gt;Node1 -->
<g id="edge1" class="edge">
<title>Node0&#45;&gt;Node1</title>
<path fill="none" stroke="#191970" d="M1079.843,-283.1296C893.0699,-278.4975 302.9946,-262.4551 90.6729,-238.9645"/>
<polygon fill="#191970" stroke="#191970" points="90.8821,-235.4656 80.5486,-237.8044 90.0851,-242.4201 90.8821,-235.4656"/>
</g>
<!-- Node2 -->
<g id="node3" class="node">
<title>Node2</title>
<polygon fill="#ffffff" stroke="#bfbfbf" points="98.6133,-220.5 98.6133,-238.5 201.8789,-238.5 201.8789,-220.5 98.6133,-220.5"/>
<text text-anchor="middle" x="150.2461" y="-226.5" font-family="Helvetica,sans-Serif" font-size="10.00" fill="#000000">llvm/Support/Path.h</text>
</g>
<!-- Node0&#45;&gt;Node2 -->
<g id="edge2" class="edge">
<title>Node0&#45;&gt;Node2</title>
<path fill="none" stroke="#191970" d="M1079.9215,-283.782C935.876,-281.5273 546.9853,-272.6544 212.4905,-239.0118"/>
<polygon fill="#191970" stroke="#191970" points="212.4145,-235.4862 202.1121,-237.9582 211.7075,-242.4504 212.4145,-235.4862"/>
</g>
<!-- Node3 -->
<g id="node4" class="node">
<title>Node3</title>
<polygon fill="#ffffff" stroke="#bfbfbf" points="220.0518,-220.5 220.0518,-238.5 364.4404,-238.5 364.4404,-220.5 220.0518,-220.5"/>
<text text-anchor="middle" x="292.2461" y="-226.5" font-family="Helvetica,sans-Serif" font-size="10.00" fill="#000000">llvm/Support/ErrorHandling.h</text>
</g>
<!-- Node0&#45;&gt;Node3 -->
<g id="edge3" class="edge">
<title>Node0&#45;&gt;Node3</title>
<path fill="none" stroke="#191970" d="M1079.7366,-282.1677C953.999,-276.8307 644.9769,-262.4216 374.6641,-238.9844"/>
<polygon fill="#191970" stroke="#191970" points="374.9273,-235.4941 364.6608,-238.1113 374.3186,-242.4676 374.9273,-235.4941"/>
</g>
<!-- Node4 -->
<g id="node5" class="node">
<title>Node4</title>
<polygon fill="#ffffff" stroke="#bfbfbf" points="382.8818,-220.5 382.8818,-238.5 505.6104,-238.5 505.6104,-220.5 382.8818,-220.5"/>
<text text-anchor="middle" x="444.2461" y="-226.5" font-family="Helvetica,sans-Serif" font-size="10.00" fill="#000000">clang/Basic/TargetInfo.h</text>
</g>
<!-- Node0&#45;&gt;Node4 -->
<g id="edge4" class="edge">
<title>Node0&#45;&gt;Node4</title>
<path fill="none" stroke="#191970" d="M1080.0217,-281.5101C971.8781,-275.6003 729.8686,-261.1401 515.8499,-239.1114"/>
<polygon fill="#191970" stroke="#191970" points="515.988,-235.6071 505.6803,-238.0567 515.2659,-242.5697 515.988,-235.6071"/>
</g>
<!-- Node5 -->
<g id="node6" class="node">
<title>Node5</title>
<polygon fill="#ffffff" stroke="#bfbfbf" points="523.4263,-220.5 523.4263,-238.5 695.0659,-238.5 695.0659,-220.5 523.4263,-220.5"/>
<text text-anchor="middle" x="609.2461" y="-226.5" font-family="Helvetica,sans-Serif" font-size="10.00" fill="#000000">clang/Frontend/CompilerInstance.h</text>
</g>
<!-- Node0&#45;&gt;Node5 -->
<g id="edge5" class="edge">
<title>Node0&#45;&gt;Node5</title>
<path fill="none" stroke="#191970" d="M1079.9877,-278.5356C990.0246,-269.1644 814.5666,-250.8876 705.1233,-239.4872"/>
<polygon fill="#191970" stroke="#191970" points="705.3798,-235.9951 695.071,-238.4401 704.6545,-242.9574 705.3798,-235.9951"/>
</g>
<!-- Node6 -->
<g id="node7" class="node">
<title>Node6</title>
<polygon fill="#ffffff" stroke="#bfbfbf" points="712.8228,-220.5 712.8228,-238.5 841.6694,-238.5 841.6694,-220.5 712.8228,-220.5"/>
<text text-anchor="middle" x="777.2461" y="-226.5" font-family="Helvetica,sans-Serif" font-size="10.00" fill="#000000">clang/Lex/Preprocessor.h</text>
</g>
<!-- Node0&#45;&gt;Node6 -->
<g id="edge6" class="edge">
<title>Node0&#45;&gt;Node6</title>
<path fill="none" stroke="#191970" d="M1079.805,-275.7243C1016.362,-266.0316 914.2349,-250.4288 846.437,-240.0708"/>
<polygon fill="#191970" stroke="#191970" points="846.691,-236.5691 836.2771,-238.5186 845.6338,-243.4888 846.691,-236.5691"/>
</g>
<!-- Node7 -->
<g id="node8" class="node">
<title>Node7</title>
<polygon fill="#ffffff" stroke="#bfbfbf" points="860.042,-220.5 860.042,-238.5 994.4502,-238.5 994.4502,-220.5 860.042,-220.5"/>
<text text-anchor="middle" x="927.2461" y="-226.5" font-family="Helvetica,sans-Serif" font-size="10.00" fill="#000000">clang/Lex/HeaderSearch.h</text>
</g>
<!-- Node0&#45;&gt;Node7 -->
<g id="edge7" class="edge">
<title>Node0&#45;&gt;Node7</title>
<path fill="none" stroke="#191970" d="M1102.5689,-275.4179C1066.7441,-266.0352 1010.7062,-251.3586 971.6599,-241.1322"/>
<polygon fill="#191970" stroke="#191970" points="972.1863,-237.6521 961.6258,-238.5042 970.4127,-244.4237 972.1863,-237.6521"/>
</g>
<!-- Node8 -->
<g id="node9" class="node">
<title>Node8</title>
<polygon fill="#ffffff" stroke="#bfbfbf" points="1012.0518,-220.5 1012.0518,-238.5 1136.4404,-238.5 1136.4404,-220.5 1012.0518,-220.5"/>
<text text-anchor="middle" x="1074.2461" y="-226.5" font-family="Helvetica,sans-Serif" font-size="10.00" fill="#000000">clang/Parse/ParseAST.h</text>
</g>
<!-- Node0&#45;&gt;Node8 -->
<g id="edge8" class="edge">
<title>Node0&#45;&gt;Node8</title>
<path fill="none" stroke="#191970" d="M1126.8429,-275.4179C1117.5061,-267.2667 1103.5928,-255.1201 1092.421,-245.3669"/>
<polygon fill="#191970" stroke="#191970" points="1094.7103,-242.7194 1084.8753,-238.7795 1090.1067,-247.9927 1094.7103,-242.7194"/>
</g>
<!-- Node9 -->
<g id="node10" class="node">
<title>Node9</title>
<polygon fill="#ffffff" stroke="#bfbfbf" points="1154.6182,-220.5 1154.6182,-238.5 1247.874,-238.5 1247.874,-220.5 1154.6182,-220.5"/>
<text text-anchor="middle" x="1201.2461" y="-226.5" font-family="Helvetica,sans-Serif" font-size="10.00" fill="#000000">clang/AST/Decl.h</text>
</g>
<!-- Node0&#45;&gt;Node9 -->
<g id="edge9" class="edge">
<title>Node0&#45;&gt;Node9</title>
<path fill="none" stroke="#191970" d="M1147.8144,-275.4179C1157.2994,-267.2667 1171.4336,-255.1201 1182.7827,-245.3669"/>
<polygon fill="#191970" stroke="#191970" points="1185.1452,-247.9516 1190.4482,-238.7795 1180.5828,-242.6427 1185.1452,-247.9516"/>
</g>
<!-- Node10 -->
<g id="node11" class="node">
<title>Node10</title>
<polygon fill="#ffffff" stroke="#bfbfbf" points="1265.7217,-220.5 1265.7217,-238.5 1386.7705,-238.5 1386.7705,-220.5 1265.7217,-220.5"/>
<text text-anchor="middle" x="1326.2461" y="-226.5" font-family="Helvetica,sans-Serif" font-size="10.00" fill="#000000">clang/AST/DeclGroup.h</text>
</g>
<!-- Node0&#45;&gt;Node10 -->
<g id="edge10" class="edge">
<title>Node0&#45;&gt;Node10</title>
<path fill="none" stroke="#191970" d="M1168.4556,-275.4179C1200.4235,-266.115 1250.2749,-251.608 1285.3731,-241.3943"/>
<polygon fill="#191970" stroke="#191970" points="1286.6806,-244.659 1295.3044,-238.5042 1284.7247,-237.9378 1286.6806,-244.659"/>
</g>
<!-- Node11 -->
<g id="node12" class="node">
<title>Node11</title>
<polygon fill="#ffffff" stroke="#bfbfbf" points="1404.7783,-220.5 1404.7783,-238.5 1499.7139,-238.5 1499.7139,-220.5 1404.7783,-220.5"/>
<text text-anchor="middle" x="1452.2461" y="-226.5" font-family="Helvetica,sans-Serif" font-size="10.00" fill="#000000">clang/AST/Type.h</text>
</g>
<!-- Node0&#45;&gt;Node11 -->
<g id="edge11" class="edge">
<title>Node0&#45;&gt;Node11</title>
<path fill="none" stroke="#191970" d="M1188.9092,-275.4795C1245.5025,-265.5981 1336.0278,-249.7921 1394.811,-239.5283"/>
<polygon fill="#191970" stroke="#191970" points="1395.4327,-242.9728 1404.6816,-237.8049 1394.2286,-236.0772 1395.4327,-242.9728"/>
</g>
<!-- Node12 -->
<g id="node13" class="node">
<title>Node12</title>
<polygon fill="#ffffff" stroke="#bfbfbf" points="1518.1084,-220.5 1518.1084,-238.5 1646.3838,-238.5 1646.3838,-220.5 1518.1084,-220.5"/>
<text text-anchor="middle" x="1582.2461" y="-226.5" font-family="Helvetica,sans-Serif" font-size="10.00" fill="#000000">clang/AST/PrettyPrinter.h</text>
</g>
<!-- Node0&#45;&gt;Node12 -->
<g id="edge12" class="edge">
<title>Node0&#45;&gt;Node12</title>
<path fill="none" stroke="#191970" d="M1194.4592,-277.585C1265.3484,-268.9942 1390.1204,-253.7995 1508.1377,-239.0073"/>
<polygon fill="#191970" stroke="#191970" points="1508.5871,-242.4785 1518.0736,-237.7609 1507.7157,-235.5329 1508.5871,-242.4785"/>
</g>
<!-- Node13 -->
<g id="node14" class="node">
<title>Node13</title>
<g id="a_node14"><a xlink:href="c-import_8h.html" target="_top" xlink:title="c&#45;import.h">
<polygon fill="#ffffff" stroke="#000000" points="1664.0195,-220.5 1664.0195,-238.5 1724.4727,-238.5 1724.4727,-220.5 1664.0195,-220.5"/>
<text text-anchor="middle" x="1694.2461" y="-226.5" font-family="Helvetica,sans-Serif" font-size="10.00" fill="#000000">c&#45;import.h</text>
</a>
</g>
</g>
<!-- Node0&#45;&gt;Node13 -->
<g id="edge13" class="edge">
<title>Node0&#45;&gt;Node13</title>
<path fill="none" stroke="#191970" d="M1194.7052,-282.2943C1288.8298,-278.0594 1481.8119,-266.7722 1653.6939,-239.0425"/>
<polygon fill="#191970" stroke="#191970" points="1654.3756,-242.4776 1663.6793,-237.4089 1653.2453,-235.5695 1654.3756,-242.4776"/>
</g>
<!-- Node14 -->
<g id="node15" class="node">
<title>Node14</title>
<g id="a_node15"><a xlink:href="typecheck_8h.html" target="_top" xlink:title="typecheck.h">
<polygon fill="#ffffff" stroke="#000000" points="2261.564,-110.5 2261.564,-128.5 2330.9282,-128.5 2330.9282,-110.5 2261.564,-110.5"/>
<text text-anchor="middle" x="2296.2461" y="-116.5" font-family="Helvetica,sans-Serif" font-size="10.00" fill="#000000">typecheck.h</text>
</a>
</g>
</g>
<!-- Node0&#45;&gt;Node14 -->
<g id="edge14" class="edge">
<title>Node0&#45;&gt;Node14</title>
<path fill="none" stroke="#191970" d="M1194.6054,-282.8982C1369.4311,-277.8239 1893.9699,-261.1242 2063.2461,-239 2179.0696,-223.862 2246.7991,-274.8283 2320.2461,-184 2331.4447,-170.1513 2321.4649,-150.5617 2311.1732,-136.6122"/>
<polygon fill="#191970" stroke="#191970" points="2313.8817,-134.3949 2304.9114,-128.7572 2308.4081,-138.7584 2313.8817,-134.3949"/>
</g>
<!-- Node16 -->
<g id="node17" class="node">
<title>Node16</title>
<g id="a_node17"><a xlink:href="type_8h.html" target="_top" xlink:title="../ast/type.h">
<polygon fill="#ffffff" stroke="#000000" points="1702.3989,-55.5 1702.3989,-73.5 1770.0933,-73.5 1770.0933,-55.5 1702.3989,-55.5"/>
<text text-anchor="middle" x="1736.2461" y="-61.5" font-family="Helvetica,sans-Serif" font-size="10.00" fill="#000000">../ast/type.h</text>
</a>
</g>
</g>
<!-- Node0&#45;&gt;Node16 -->
<g id="edge16" class="edge">
<title>Node0&#45;&gt;Node16</title>
<path fill="none" stroke="#191970" d="M1194.4741,-282.1962C1340.1631,-276.0576 1714.9166,-258.4442 1733.2461,-239 1773.3652,-196.441 1754.6881,-118.8499 1743.0727,-83.2544"/>
<polygon fill="#191970" stroke="#191970" points="1746.3288,-81.9597 1739.7676,-73.641 1739.7091,-84.2357 1746.3288,-81.9597"/>
</g>
<!-- Node22 -->
<g id="node23" class="node">
<title>Node22</title>
<g id="a_node23"><a xlink:href="decl_8h.html" target="_top" xlink:title="../ast/decl.h">
<polygon fill="#ffffff" stroke="#000000" points="1986.6772,-220.5 1986.6772,-238.5 2053.8149,-238.5 2053.8149,-220.5 1986.6772,-220.5"/>
<text text-anchor="middle" x="2020.2461" y="-226.5" font-family="Helvetica,sans-Serif" font-size="10.00" fill="#000000">../ast/decl.h</text>
</a>
</g>
</g>
<!-- Node0&#45;&gt;Node22 -->
<g id="edge23" class="edge">
<title>Node0&#45;&gt;Node22</title>
<path fill="none" stroke="#191970" d="M1194.5018,-280.9337C1358.7353,-270.704 1829.0105,-241.4116 1975.8741,-232.2638"/>
<polygon fill="#191970" stroke="#191970" points="1976.5194,-235.7305 1986.2824,-231.6155 1976.0842,-228.744 1976.5194,-235.7305"/>
</g>
<!-- Node15 -->
<g id="node16" class="node">
<title>Node15</title>
<polygon fill="#ffffff" stroke="#bfbfbf" points="2152.6304,-.5 2152.6304,-18.5 2195.8618,-18.5 2195.8618,-.5 2152.6304,-.5"/>
<text text-anchor="middle" x="2174.2461" y="-6.5" font-family="Helvetica,sans-Serif" font-size="10.00" fill="#000000">vector</text>
</g>
<!-- Node14&#45;&gt;Node15 -->
<g id="edge15" class="edge">
<title>Node14&#45;&gt;Node15</title>
<path fill="none" stroke="#191970" d="M2286.3507,-110.2332C2272.8573,-97.6313 2247.8864,-74.4319 2226.2461,-55 2215.2286,-45.1069 2202.7462,-34.1757 2192.773,-25.5077"/>
<polygon fill="#191970" stroke="#191970" points="2194.9212,-22.7379 2185.0729,-18.8312 2190.3355,-28.0267 2194.9212,-22.7379"/>
</g>
<!-- Node16&#45;&gt;Node15 -->
<g id="edge17" class="edge">
<title>Node16&#45;&gt;Node15</title>
<path fill="none" stroke="#191970" d="M1770.4517,-56.6105C1773.4188,-56.0272 1776.3808,-55.4802 1779.2461,-55 1913.3389,-32.5255 2074.9157,-17.7002 2142.3079,-12.0576"/>
<polygon fill="#191970" stroke="#191970" points="2142.6194,-15.5439 2152.2967,-11.2311 2142.0421,-8.5677 2142.6194,-15.5439"/>
</g>
<!-- Node17 -->
<g id="node18" class="node">
<title>Node17</title>
<polygon fill="#ffffff" stroke="#bfbfbf" points="1940.0195,-.5 1940.0195,-18.5 1980.4727,-18.5 1980.4727,-.5 1940.0195,-.5"/>
<text text-anchor="middle" x="1960.2461" y="-6.5" font-family="Helvetica,sans-Serif" font-size="10.00" fill="#000000">string</text>
</g>
<!-- Node16&#45;&gt;Node17 -->
<g id="edge18" class="edge">
<title>Node16&#45;&gt;Node17</title>
<path fill="none" stroke="#191970" d="M1770.4263,-56.9032C1814.1775,-47.119 1888.4724,-30.289 1929.9259,-19.1669"/>
<polygon fill="#191970" stroke="#191970" points="1931.007,-22.4995 1939.7188,-16.4699 1929.1484,-15.7508 1931.007,-22.4995"/>
</g>
<!-- Node18 -->
<g id="node19" class="node">
<title>Node18</title>
<polygon fill="#ffffff" stroke="#bfbfbf" points="1421.1846,-.5 1421.1846,-18.5 1473.3076,-18.5 1473.3076,-.5 1421.1846,-.5"/>
<text text-anchor="middle" x="1447.2461" y="-6.5" font-family="Helvetica,sans-Serif" font-size="10.00" fill="#000000">ostream</text>
</g>
<!-- Node16&#45;&gt;Node18 -->
<g id="edge19" class="edge">
<title>Node16&#45;&gt;Node18</title>
<path fill="none" stroke="#191970" d="M1702.3662,-59.4012C1655.3546,-52.1151 1567.5043,-37.7393 1483.5133,-19.1369"/>
<polygon fill="#191970" stroke="#191970" points="1484.0808,-15.6773 1473.5576,-16.9075 1482.5511,-22.5082 1484.0808,-15.6773"/>
</g>
<!-- Node19 -->
<g id="node20" class="node">
<title>Node19</title>
<polygon fill="#ffffff" stroke="#bfbfbf" points="1491.6846,-.5 1491.6846,-18.5 1598.8076,-18.5 1598.8076,-.5 1491.6846,-.5"/>
<text text-anchor="middle" x="1545.2461" y="-6.5" font-family="Helvetica,sans-Serif" font-size="10.00" fill="#000000">llvm/ADT/ArrayRef.h</text>
</g>
<!-- Node16&#45;&gt;Node19 -->
<g id="edge20" class="edge">
<title>Node16&#45;&gt;Node19</title>
<path fill="none" stroke="#191970" d="M1704.7063,-55.4179C1672.4002,-46.115 1622.0213,-31.608 1586.5516,-21.3943"/>
<polygon fill="#191970" stroke="#191970" points="1587.0933,-17.9081 1576.5153,-18.5042 1585.1563,-24.6348 1587.0933,-17.9081"/>
</g>
<!-- Node20 -->
<g id="node21" class="node">
<title>Node20</title>
<polygon fill="#ffffff" stroke="#bfbfbf" points="1616.5688,-.5 1616.5688,-18.5 1725.9233,-18.5 1725.9233,-.5 1616.5688,-.5"/>
<text text-anchor="middle" x="1671.2461" y="-6.5" font-family="Helvetica,sans-Serif" font-size="10.00" fill="#000000">llvm/ADT/StringRef.h</text>
</g>
<!-- Node16&#45;&gt;Node20 -->
<g id="edge21" class="edge">
<title>Node16&#45;&gt;Node20</title>
<path fill="none" stroke="#191970" d="M1725.5127,-55.4179C1715.8795,-47.2667 1701.5244,-35.1201 1689.9979,-25.3669"/>
<polygon fill="#191970" stroke="#191970" points="1692.1074,-22.5671 1682.2127,-18.7795 1687.5858,-27.9108 1692.1074,-22.5671"/>
</g>
<!-- Node21 -->
<g id="node22" class="node">
<title>Node21</title>
<polygon fill="#ffffff" stroke="#bfbfbf" points="1743.9458,-.5 1743.9458,-18.5 1860.5464,-18.5 1860.5464,-.5 1743.9458,-.5"/>
<text text-anchor="middle" x="1802.2461" y="-6.5" font-family="Helvetica,sans-Serif" font-size="10.00" fill="#000000">llvm/Support/Casting.h</text>
</g>
<!-- Node16&#45;&gt;Node21 -->
<g id="edge22" class="edge">
<title>Node16&#45;&gt;Node21</title>
<path fill="none" stroke="#191970" d="M1747.1447,-55.4179C1756.926,-47.2667 1771.5019,-35.1201 1783.2058,-25.3669"/>
<polygon fill="#191970" stroke="#191970" points="1785.6692,-27.8701 1791.1107,-18.7795 1781.1879,-22.4926 1785.6692,-27.8701"/>
</g>
<!-- Node22&#45;&gt;Node15 -->
<g id="edge26" class="edge">
<title>Node22&#45;&gt;Node15</title>
<path fill="none" stroke="#191970" d="M2051.4473,-220.4634C2088.0214,-209.5961 2144.5318,-191.8404 2151.2461,-184 2189.2682,-139.6007 2183.3089,-64.1178 2177.8677,-28.798"/>
<polygon fill="#191970" stroke="#191970" points="2181.3002,-28.1051 2176.1756,-18.8321 2174.399,-29.2769 2181.3002,-28.1051"/>
</g>
<!-- Node22&#45;&gt;Node16 -->
<g id="edge40" class="edge">
<title>Node22&#45;&gt;Node16</title>
<path fill="none" stroke="#191970" d="M1986.5252,-227.6473C1947.2311,-224.1145 1881.6486,-213.8459 1834.2461,-184 1812.7437,-170.4615 1769.4135,-111.5415 1748.3254,-81.8037"/>
<polygon fill="#191970" stroke="#191970" points="1751.1633,-79.7548 1742.5437,-73.5942 1745.4402,-83.7854 1751.1633,-79.7548"/>
</g>
<!-- Node22&#45;&gt;Node17 -->
<g id="edge24" class="edge">
<title>Node22&#45;&gt;Node17</title>
<path fill="none" stroke="#191970" d="M2007.7115,-220.373C1979.2737,-198.7863 1910.3903,-141.3167 1885.2461,-74 1882.2913,-66.0894 1881.1035,-62.3585 1885.2461,-55 1890.519,-45.6338 1912.7784,-32.7634 1931.6893,-23.1007"/>
<polygon fill="#191970" stroke="#191970" points="1933.5042,-26.1067 1940.8895,-18.5101 1930.3788,-19.8431 1933.5042,-26.1067"/>
</g>
<!-- Node23 -->
<g id="node24" class="node">
<title>Node23</title>
<polygon fill="#ffffff" stroke="#bfbfbf" points="2094.1895,-55.5 2094.1895,-73.5 2146.3027,-73.5 2146.3027,-55.5 2094.1895,-55.5"/>
<text text-anchor="middle" x="2120.2461" y="-61.5" font-family="Helvetica,sans-Serif" font-size="10.00" fill="#000000">memory</text>
</g>
<!-- Node22&#45;&gt;Node23 -->
<g id="edge25" class="edge">
<title>Node22&#45;&gt;Node23</title>
<path fill="none" stroke="#191970" d="M2025.909,-220.1561C2041.9975,-193.6101 2088.1794,-117.41 2109.3753,-82.4369"/>
<polygon fill="#191970" stroke="#191970" points="2112.4554,-84.1075 2114.6452,-73.7414 2106.469,-80.4793 2112.4554,-84.1075"/>
</g>
<!-- Node24 -->
<g id="node25" class="node">
<title>Node24</title>
<polygon fill="#ffffff" stroke="#bfbfbf" points="2218.8867,-165.5 2218.8867,-183.5 2311.6055,-183.5 2311.6055,-165.5 2218.8867,-165.5"/>
<text text-anchor="middle" x="2265.2461" y="-171.5" font-family="Helvetica,sans-Serif" font-size="10.00" fill="#000000">boost/variant.hpp</text>
</g>
<!-- Node22&#45;&gt;Node24 -->
<g id="edge27" class="edge">
<title>Node22&#45;&gt;Node24</title>
<path fill="none" stroke="#191970" d="M2054.0551,-221.9102C2095.7228,-212.5562 2166.8981,-196.5781 2214.9784,-185.7846"/>
<polygon fill="#191970" stroke="#191970" points="2215.8782,-189.1698 2224.8687,-183.5643 2214.3449,-182.3398 2215.8782,-189.1698"/>
</g>
<!-- Node25 -->
<g id="node26" class="node">
<title>Node25</title>
<g id="a_node26"><a xlink:href="expr_8h.html" target="_top" xlink:title="expr.h">
<polygon fill="#ffffff" stroke="#000000" points="1998.623,-110.5 1998.623,-128.5 2041.8691,-128.5 2041.8691,-110.5 1998.623,-110.5"/>
<text text-anchor="middle" x="2020.2461" y="-116.5" font-family="Helvetica,sans-Serif" font-size="10.00" fill="#000000">expr.h</text>
</a>
</g>
</g>
<!-- Node22&#45;&gt;Node25 -->
<g id="edge28" class="edge">
<title>Node22&#45;&gt;Node25</title>
<path fill="none" stroke="#191970" d="M2020.2461,-220.4982C2020.2461,-202.6913 2020.2461,-162.6225 2020.2461,-138.6515"/>
<polygon fill="#191970" stroke="#191970" points="2023.7462,-138.6261 2020.2461,-128.6261 2016.7462,-138.6262 2023.7462,-138.6261"/>
</g>
<!-- Node26 -->
<g id="node27" class="node">
<title>Node26</title>
<g id="a_node27"><a xlink:href="srcloc_8h.html" target="_top" xlink:title="srcloc.h">
<polygon fill="#ffffff" stroke="#000000" points="1788.0195,-55.5 1788.0195,-73.5 1838.4727,-73.5 1838.4727,-55.5 1788.0195,-55.5"/>
<text text-anchor="middle" x="1813.2461" y="-61.5" font-family="Helvetica,sans-Serif" font-size="10.00" fill="#000000">srcloc.h</text>
</a>
</g>
</g>
<!-- Node22&#45;&gt;Node26 -->
<g id="edge41" class="edge">
<title>Node22&#45;&gt;Node26</title>
<path fill="none" stroke="#191970" d="M1986.5594,-224.2506C1943.2902,-216.8712 1871.4673,-202.2656 1852.2461,-184 1824.2717,-157.4164 1816.3357,-110.5403 1814.1025,-84.0898"/>
<polygon fill="#191970" stroke="#191970" points="1817.5767,-83.5747 1813.4394,-73.8211 1810.5912,-84.0259 1817.5767,-83.5747"/>
</g>
<!-- Node29 -->
<g id="node30" class="node">
<title>Node29</title>
<g id="a_node30"><a xlink:href="stmt_8h.html" target="_top" xlink:title="stmt.h">
<polygon fill="#ffffff" stroke="#000000" points="2098.6328,-165.5 2098.6328,-183.5 2141.8594,-183.5 2141.8594,-165.5 2098.6328,-165.5"/>
<text text-anchor="middle" x="2120.2461" y="-171.5" font-family="Helvetica,sans-Serif" font-size="10.00" fill="#000000">stmt.h</text>
</a>
</g>
</g>
<!-- Node22&#45;&gt;Node29 -->
<g id="edge36" class="edge">
<title>Node22&#45;&gt;Node29</title>
<path fill="none" stroke="#191970" d="M2036.7591,-220.4179C2052.5371,-211.7399 2076.5489,-198.5334 2094.7776,-188.5077"/>
<polygon fill="#191970" stroke="#191970" points="2096.6332,-191.4816 2103.7086,-183.5956 2093.2597,-185.3481 2096.6332,-191.4816"/>
</g>
<!-- Node25&#45;&gt;Node15 -->
<g id="edge31" class="edge">
<title>Node25&#45;&gt;Node15</title>
<path fill="none" stroke="#191970" d="M2027.9042,-110.2608C2039.3528,-96.8575 2062.0743,-71.791 2085.2461,-55 2103.1493,-42.0268 2125.2764,-30.6969 2142.9887,-22.5879"/>
<polygon fill="#191970" stroke="#191970" points="2144.6139,-25.6954 2152.3198,-18.4243 2141.7615,-19.3029 2144.6139,-25.6954"/>
</g>
<!-- Node25&#45;&gt;Node16 -->
<g id="edge32" class="edge">
<title>Node25&#45;&gt;Node16</title>
<path fill="none" stroke="#191970" d="M1998.599,-115.6443C1957.9149,-108.3485 1867.0408,-91.8194 1780.4791,-74.2068"/>
<polygon fill="#191970" stroke="#191970" points="1780.9916,-70.7392 1770.4933,-72.166 1779.59,-77.5975 1780.9916,-70.7392"/>
</g>
<!-- Node25&#45;&gt;Node17 -->
<g id="edge29" class="edge">
<title>Node25&#45;&gt;Node17</title>
<path fill="none" stroke="#191970" d="M2020.4832,-110.139C2020.4245,-97.0219 2018.8632,-72.7866 2009.2461,-55 2002.8404,-43.1527 1992.1771,-32.6988 1982.4308,-24.8085"/>
<polygon fill="#191970" stroke="#191970" points="1984.3081,-21.8387 1974.232,-18.564 1980.0667,-27.4075 1984.3081,-21.8387"/>
</g>
<!-- Node25&#45;&gt;Node23 -->
<g id="edge30" class="edge">
<title>Node25&#45;&gt;Node23</title>
<path fill="none" stroke="#191970" d="M2036.7591,-110.4179C2052.5371,-101.7399 2076.5489,-88.5334 2094.7776,-78.5077"/>
<polygon fill="#191970" stroke="#191970" points="2096.6332,-81.4816 2103.7086,-73.5956 2093.2597,-75.3481 2096.6332,-81.4816"/>
</g>
<!-- Node25&#45;&gt;Node26 -->
<g id="edge33" class="edge">
<title>Node25&#45;&gt;Node26</title>
<path fill="none" stroke="#191970" d="M1998.4847,-113.718C1962.7364,-104.2196 1891.2697,-85.2309 1848.3098,-73.8164"/>
<polygon fill="#191970" stroke="#191970" points="1849.1238,-70.4114 1838.5604,-71.226 1847.3263,-77.1766 1849.1238,-70.4114"/>
</g>
<!-- Node28 -->
<g id="node29" class="node">
<title>Node28</title>
<g id="a_node29"><a xlink:href="operators_8h.html" target="_top" xlink:title="../parser/operators.h">
<polygon fill="#ffffff" stroke="#000000" points="1894.2241,-55.5 1894.2241,-73.5 2000.2681,-73.5 2000.2681,-55.5 1894.2241,-55.5"/>
<text text-anchor="middle" x="1947.2461" y="-61.5" font-family="Helvetica,sans-Serif" font-size="10.00" fill="#000000">../parser/operators.h</text>
</a>
</g>
</g>
<!-- Node25&#45;&gt;Node28 -->
<g id="edge35" class="edge">
<title>Node25&#45;&gt;Node28</title>
<path fill="none" stroke="#191970" d="M2008.1916,-110.4179C1997.1627,-102.1084 1980.6229,-89.6469 1967.5554,-79.8015"/>
<polygon fill="#191970" stroke="#191970" points="1969.6555,-77.0016 1959.5625,-73.7795 1965.4432,-82.5924 1969.6555,-77.0016"/>
</g>
<!-- Node27 -->
<g id="node28" class="node">
<title>Node27</title>
<polygon fill="#ffffff" stroke="#bfbfbf" points="1878.3594,-.5 1878.3594,-18.5 1922.1328,-18.5 1922.1328,-.5 1878.3594,-.5"/>
<text text-anchor="middle" x="1900.2461" y="-6.5" font-family="Helvetica,sans-Serif" font-size="10.00" fill="#000000">climits</text>
</g>
<!-- Node26&#45;&gt;Node27 -->
<g id="edge34" class="edge">
<title>Node26&#45;&gt;Node27</title>
<path fill="none" stroke="#191970" d="M1827.6124,-55.4179C1841.0874,-46.8992 1861.4654,-34.0166 1877.2105,-24.0627"/>
<polygon fill="#191970" stroke="#191970" points="1879.2761,-26.8977 1885.8585,-18.5956 1875.5356,-20.9808 1879.2761,-26.8977"/>
</g>
<!-- Node29&#45;&gt;Node15 -->
<g id="edge37" class="edge">
<title>Node29&#45;&gt;Node15</title>
<path fill="none" stroke="#191970" d="M2123.5806,-165.4044C2129.9857,-147.8313 2144.3412,-107.9498 2155.2461,-74 2160.1058,-58.8706 2165.1695,-41.5938 2168.8461,-28.7312"/>
<polygon fill="#191970" stroke="#191970" points="2172.3215,-29.3043 2171.6801,-18.7289 2165.5866,-27.396 2172.3215,-29.3043"/>
</g>
<!-- Node29&#45;&gt;Node23 -->
<g id="edge38" class="edge">
<title>Node29&#45;&gt;Node23</title>
<path fill="none" stroke="#191970" d="M2120.2461,-165.4982C2120.2461,-147.6913 2120.2461,-107.6225 2120.2461,-83.6515"/>
<polygon fill="#191970" stroke="#191970" points="2123.7462,-83.6261 2120.2461,-73.6261 2116.7462,-83.6262 2123.7462,-83.6261"/>
</g>
<!-- Node29&#45;&gt;Node25 -->
<g id="edge39" class="edge">
<title>Node29&#45;&gt;Node25</title>
<path fill="none" stroke="#191970" d="M2103.7331,-165.4179C2087.955,-156.7399 2063.9433,-143.5334 2045.7146,-133.5077"/>
<polygon fill="#191970" stroke="#191970" points="2047.2325,-130.3481 2036.7836,-128.5956 2043.859,-136.4816 2047.2325,-130.3481"/>
</g>
</g>
</svg>
