<?xml version="1.0" encoding="UTF-8" standalone="no"?>
<!DOCTYPE svg PUBLIC "-//W3C//DTD SVG 1.1//EN"
 "http://www.w3.org/Graphics/SVG/1.1/DTD/svg11.dtd">
<!-- Generated by graphviz version 2.40.1 (20161225.0304)
 -->
<!-- Title: src/sema/c&#45;import.h Pages: 1 -->
<svg width="264pt" height="82pt"
 viewBox="0.00 0.00 263.81 82.00" xmlns="http://www.w3.org/2000/svg" xmlns:xlink="http://www.w3.org/1999/xlink">
<g id="graph0" class="graph" transform="scale(1 1) rotate(0) translate(4 78)">
<title>src/sema/c&#45;import.h</title>
<polygon fill="#ffffff" stroke="transparent" points="-4,4 -4,-78 259.8101,-78 259.8101,4 -4,4"/>
<!-- Node1 -->
<g id="node1" class="node">
<title>Node1</title>
<polygon fill="#bfbfbf" stroke="#000000" points="73.2808,-55.5 73.2808,-73.5 177.0737,-73.5 177.0737,-55.5 73.2808,-55.5"/>
<text text-anchor="middle" x="125.1772" y="-61.5" font-family="Helvetica,sans-Serif" font-size="10.00" fill="#000000">src/sema/c&#45;import.h</text>
</g>
<!-- Node2 -->
<g id="node2" class="node">
<title>Node2</title>
<g id="a_node2"><a xlink:href="c-import_8cpp.html" target="_top" xlink:title="src/sema/c&#45;import.cpp">
<polygon fill="#ffffff" stroke="#000000" points="0,-.5 0,-18.5 114.3545,-18.5 114.3545,-.5 0,-.5"/>
<text text-anchor="middle" x="57.1772" y="-6.5" font-family="Helvetica,sans-Serif" font-size="10.00" fill="#000000">src/sema/c&#45;import.cpp</text>
</a>
</g>
</g>
<!-- Node1&#45;&gt;Node2 -->
<g id="edge1" class="edge">
<title>Node1&#45;&gt;Node2</title>
<path fill="none" stroke="#191970" d="M105.8501,-48.8678C93.8397,-39.1535 78.8067,-26.9944 68.65,-18.7795"/>
<polygon fill="#191970" stroke="#191970" points="103.9722,-51.8504 113.9484,-55.4179 108.3744,-46.4078 103.9722,-51.8504"/>
</g>
<!-- Node3 -->
<g id="node3" class="node">
<title>Node3</title>
<g id="a_node3"><a xlink:href="typecheck_8cpp.html" target="_top" xlink:title="src/sema/typecheck.cpp">
<polygon fill="#ffffff" stroke="#000000" points="132.5444,-.5 132.5444,-18.5 255.8101,-18.5 255.8101,-.5 132.5444,-.5"/>
<text text-anchor="middle" x="194.1772" y="-6.5" font-family="Helvetica,sans-Serif" font-size="10.00" fill="#000000">src/sema/typecheck.cpp</text>
</a>
</g>
</g>
<!-- Node1&#45;&gt;Node3 -->
<g id="edge2" class="edge">
<title>Node1&#45;&gt;Node3</title>
<path fill="none" stroke="#191970" d="M144.4345,-49.15C156.679,-39.3899 172.1296,-27.0742 182.5357,-18.7795"/>
<polygon fill="#191970" stroke="#191970" points="142.2093,-46.4478 136.5712,-55.4179 146.5726,-51.9216 142.2093,-46.4478"/>
</g>
</g>
</svg>
