<?xml version="1.0" encoding="UTF-8" standalone="no"?>
<!DOCTYPE svg PUBLIC "-//W3C//DTD SVG 1.1//EN"
 "http://www.w3.org/Graphics/SVG/1.1/DTD/svg11.dtd">
<!-- Generated by graphviz version 2.40.1 (20161225.0304)
 -->
<!-- Title: delta::Arg Pages: 1 -->
<svg width="264pt" height="242pt"
 viewBox="0.00 0.00 264.23 242.00" xmlns="http://www.w3.org/2000/svg" xmlns:xlink="http://www.w3.org/1999/xlink">
<g id="graph0" class="graph" transform="scale(1 1) rotate(0) translate(4 238)">
<title>delta::Arg</title>
<polygon fill="#ffffff" stroke="transparent" points="-4,4 -4,-238 260.23,-238 260.23,4 -4,4"/>
<!-- Node1 -->
<g id="node1" class="node">
<title>Node1</title>
<polygon fill="#bfbfbf" stroke="#000000" points="75.7808,-.5 75.7808,-18.5 134.5835,-18.5 134.5835,-.5 75.7808,-.5"/>
<text text-anchor="middle" x="105.1821" y="-6.5" font-family="Helvetica,sans-Serif" font-size="10.00" fill="#000000">delta::Arg</text>
</g>
<!-- Node2 -->
<g id="node2" class="node">
<title>Node2</title>
<g id="a_node2"><a xlink:href="structdelta_1_1_src_loc.html" target="_top" xlink:title="delta::SrcLoc">
<polygon fill="#ffffff" stroke="#000000" points="0,-215.5 0,-233.5 74.3643,-233.5 74.3643,-215.5 0,-215.5"/>
<text text-anchor="middle" x="37.1821" y="-221.5" font-family="Helvetica,sans-Serif" font-size="10.00" fill="#000000">delta::SrcLoc</text>
</a>
</g>
</g>
<!-- Node2&#45;&gt;Node1 -->
<g id="edge1" class="edge">
<title>Node2&#45;&gt;Node1</title>
<path fill="none" stroke="#9a32cd" stroke-dasharray="5,2" d="M32.7201,-205.3156C26.4951,-174.1616 18.2618,-111.3882 40.1821,-65 50.1355,-43.9366 72.3278,-27.8344 88.0037,-18.5305"/>
<polygon fill="#9a32cd" stroke="#9a32cd" points="29.3376,-206.234 34.8632,-215.2739 36.1809,-204.7613 29.3376,-206.234"/>
<text text-anchor="middle" x="44.2979" y="-114" font-family="Helvetica,sans-Serif" font-size="10.00" fill="#000000"> srcLoc</text>
</g>
<!-- Node6 -->
<g id="node6" class="node">
<title>Node6</title>
<g id="a_node6"><a xlink:href="classdelta_1_1_expr.html" target="_top" xlink:title="delta::Expr">
<polygon fill="#ffffff" stroke="#000000" points="55.2808,-145.5 55.2808,-163.5 119.0835,-163.5 119.0835,-145.5 55.2808,-145.5"/>
<text text-anchor="middle" x="87.1821" y="-151.5" font-family="Helvetica,sans-Serif" font-size="10.00" fill="#000000">delta::Expr</text>
</a>
</g>
</g>
<!-- Node2&#45;&gt;Node6 -->
<g id="edge6" class="edge">
<title>Node2&#45;&gt;Node6</title>
<path fill="none" stroke="#9a32cd" stroke-dasharray="5,2" d="M49.5458,-207.1909C59.3209,-193.5057 72.5931,-174.9247 80.4843,-163.8769"/>
<polygon fill="#9a32cd" stroke="#9a32cd" points="46.6831,-205.177 43.7188,-215.3487 52.3793,-209.2457 46.6831,-205.177"/>
<text text-anchor="middle" x="80.2979" y="-189" font-family="Helvetica,sans-Serif" font-size="10.00" fill="#000000"> srcLoc</text>
</g>
<!-- Node3 -->
<g id="node3" class="node">
<title>Node3</title>
<g id="a_node3"><a xlink:title="STL class. ">
<polygon fill="#ffffff" stroke="#bfbfbf" points="179.5073,-70.5 179.5073,-88.5 238.8569,-88.5 238.8569,-70.5 179.5073,-70.5"/>
<text text-anchor="middle" x="209.1821" y="-76.5" font-family="Helvetica,sans-Serif" font-size="10.00" fill="#000000">std::string</text>
</a>
</g>
</g>
<!-- Node3&#45;&gt;Node1 -->
<g id="edge2" class="edge">
<title>Node3&#45;&gt;Node1</title>
<path fill="none" stroke="#9a32cd" stroke-dasharray="5,2" d="M187.1031,-64.6391C166.4136,-50.7135 136.1455,-30.3407 118.7816,-18.6535"/>
<polygon fill="#9a32cd" stroke="#9a32cd" points="185.3357,-67.6685 195.5859,-70.3487 189.2444,-61.8614 185.3357,-67.6685"/>
<text text-anchor="middle" x="173.1353" y="-39" font-family="Helvetica,sans-Serif" font-size="10.00" fill="#000000"> label</text>
</g>
<!-- Node4 -->
<g id="node4" class="node">
<title>Node4</title>
<g id="a_node4"><a xlink:title="STL class. ">
<polygon fill="#ffffff" stroke="#bfbfbf" points="162.1343,-140.5 162.1343,-168.5 256.23,-168.5 256.23,-140.5 162.1343,-140.5"/>
<text text-anchor="start" x="170.1343" y="-156.5" font-family="Helvetica,sans-Serif" font-size="10.00" fill="#000000">std::basic_string&lt;</text>
<text text-anchor="middle" x="209.1821" y="-146.5" font-family="Helvetica,sans-Serif" font-size="10.00" fill="#000000"> char &gt;</text>
</a>
</g>
</g>
<!-- Node4&#45;&gt;Node3 -->
<g id="edge3" class="edge">
<title>Node4&#45;&gt;Node3</title>
<path fill="none" stroke="#191970" d="M209.1821,-130.3035C209.1821,-116.1617 209.1821,-99.1197 209.1821,-88.807"/>
<polygon fill="#191970" stroke="#191970" points="205.6822,-130.393 209.1821,-140.3931 212.6822,-130.3931 205.6822,-130.393"/>
</g>
<!-- Node5 -->
<g id="node5" class="node">
<title>Node5</title>
<polygon fill="#ffffff" stroke="#bfbfbf" points="48.9521,-65.5 48.9521,-93.5 161.4121,-93.5 161.4121,-65.5 48.9521,-65.5"/>
<text text-anchor="start" x="56.9521" y="-81.5" font-family="Helvetica,sans-Serif" font-size="10.00" fill="#000000">std::unique_ptr&lt; delta</text>
<text text-anchor="middle" x="105.1821" y="-71.5" font-family="Helvetica,sans-Serif" font-size="10.00" fill="#000000">::Expr &gt;</text>
</g>
<!-- Node5&#45;&gt;Node1 -->
<g id="edge4" class="edge">
<title>Node5&#45;&gt;Node1</title>
<path fill="none" stroke="#9a32cd" stroke-dasharray="5,2" d="M105.1821,-55.007C105.1821,-42.4648 105.1821,-27.9386 105.1821,-18.7368"/>
<polygon fill="#9a32cd" stroke="#9a32cd" points="101.6822,-55.3344 105.1821,-65.3345 108.6822,-55.3345 101.6822,-55.3344"/>
<text text-anchor="middle" x="118.5244" y="-39" font-family="Helvetica,sans-Serif" font-size="10.00" fill="#000000"> value</text>
</g>
<!-- Node6&#45;&gt;Node5 -->
<g id="edge5" class="edge">
<title>Node6&#45;&gt;Node5</title>
<path fill="none" stroke="#9a32cd" stroke-dasharray="5,2" d="M91.7427,-135.4975C94.8687,-122.4728 98.9478,-105.4763 101.7885,-93.64"/>
<polygon fill="#9a32cd" stroke="#9a32cd" points="88.3197,-134.7628 89.3893,-145.3035 95.1264,-136.3965 88.3197,-134.7628"/>
<text text-anchor="middle" x="105.4063" y="-114" font-family="Helvetica,sans-Serif" font-size="10.00" fill="#000000"> ptr</text>
</g>
</g>
</svg>
