<?xml version="1.0" encoding="UTF-8" standalone="no"?>
<!DOCTYPE svg PUBLIC "-//W3C//DTD SVG 1.1//EN"
 "http://www.w3.org/Graphics/SVG/1.1/DTD/svg11.dtd">
<!-- Generated by graphviz version 2.40.1 (20161225.0304)
 -->
<!-- Title: delta::SwitchCase Pages: 1 -->
<svg width="258pt" height="242pt"
 viewBox="0.00 0.00 258.07 242.00" xmlns="http://www.w3.org/2000/svg" xmlns:xlink="http://www.w3.org/1999/xlink">
<g id="graph0" class="graph" transform="scale(1 1) rotate(0) translate(4 238)">
<title>delta::SwitchCase</title>
<polygon fill="#ffffff" stroke="transparent" points="-4,4 -4,-238 254.0659,-238 254.0659,4 -4,4"/>
<!-- Node1 -->
<g id="node1" class="node">
<title>Node1</title>
<polygon fill="#bfbfbf" stroke="#000000" points="75.2104,-.5 75.2104,-18.5 171.2495,-18.5 171.2495,-.5 75.2104,-.5"/>
<text text-anchor="middle" x="123.23" y="-6.5" font-family="Helvetica,sans-Serif" font-size="10.00" fill="#000000">delta::SwitchCase</text>
</g>
<!-- Node2 -->
<g id="node2" class="node">
<title>Node2</title>
<polygon fill="#ffffff" stroke="#bfbfbf" points="0,-65.5 0,-93.5 112.46,-93.5 112.46,-65.5 0,-65.5"/>
<text text-anchor="start" x="8" y="-81.5" font-family="Helvetica,sans-Serif" font-size="10.00" fill="#000000">std::unique_ptr&lt; delta</text>
<text text-anchor="middle" x="56.23" y="-71.5" font-family="Helvetica,sans-Serif" font-size="10.00" fill="#000000">::Expr &gt;</text>
</g>
<!-- Node2&#45;&gt;Node1 -->
<g id="edge1" class="edge">
<title>Node2&#45;&gt;Node1</title>
<path fill="none" stroke="#9a32cd" stroke-dasharray="5,2" d="M76.804,-58.0048C89.3976,-44.8472 104.8699,-28.6822 114.3891,-18.7368"/>
<polygon fill="#9a32cd" stroke="#9a32cd" points="74.1746,-55.6901 69.7884,-65.3345 79.2315,-60.5304 74.1746,-55.6901"/>
<text text-anchor="middle" x="109.5723" y="-39" font-family="Helvetica,sans-Serif" font-size="10.00" fill="#000000"> value</text>
</g>
<!-- Node3 -->
<g id="node3" class="node">
<title>Node3</title>
<g id="a_node3"><a xlink:href="classdelta_1_1_expr.html" target="_top" xlink:title="delta::Expr">
<polygon fill="#ffffff" stroke="#000000" points="24.3286,-145.5 24.3286,-163.5 88.1313,-163.5 88.1313,-145.5 24.3286,-145.5"/>
<text text-anchor="middle" x="56.23" y="-151.5" font-family="Helvetica,sans-Serif" font-size="10.00" fill="#000000">delta::Expr</text>
</a>
</g>
</g>
<!-- Node3&#45;&gt;Node2 -->
<g id="edge2" class="edge">
<title>Node3&#45;&gt;Node2</title>
<path fill="none" stroke="#9a32cd" stroke-dasharray="5,2" d="M56.23,-135.1055C56.23,-122.1334 56.23,-105.358 56.23,-93.64"/>
<polygon fill="#9a32cd" stroke="#9a32cd" points="52.7301,-135.3035 56.23,-145.3035 59.7301,-135.3036 52.7301,-135.3035"/>
<text text-anchor="middle" x="63.4541" y="-114" font-family="Helvetica,sans-Serif" font-size="10.00" fill="#000000"> ptr</text>
</g>
<!-- Node4 -->
<g id="node4" class="node">
<title>Node4</title>
<g id="a_node4"><a xlink:href="structdelta_1_1_src_loc.html" target="_top" xlink:title="delta::SrcLoc">
<polygon fill="#ffffff" stroke="#000000" points="19.0479,-215.5 19.0479,-233.5 93.4121,-233.5 93.4121,-215.5 19.0479,-215.5"/>
<text text-anchor="middle" x="56.23" y="-221.5" font-family="Helvetica,sans-Serif" font-size="10.00" fill="#000000">delta::SrcLoc</text>
</a>
</g>
</g>
<!-- Node4&#45;&gt;Node3 -->
<g id="edge3" class="edge">
<title>Node4&#45;&gt;Node3</title>
<path fill="none" stroke="#9a32cd" stroke-dasharray="5,2" d="M56.23,-205.2039C56.23,-191.7531 56.23,-174.3986 56.23,-163.8769"/>
<polygon fill="#9a32cd" stroke="#9a32cd" points="52.7301,-205.3487 56.23,-215.3487 59.7301,-205.3488 52.7301,-205.3487"/>
<text text-anchor="middle" x="72.3457" y="-189" font-family="Helvetica,sans-Serif" font-size="10.00" fill="#000000"> srcLoc</text>
</g>
<!-- Node5 -->
<g id="node5" class="node">
<title>Node5</title>
<polygon fill="#ffffff" stroke="#bfbfbf" points="130.394,-65.5 130.394,-93.5 250.0659,-93.5 250.0659,-65.5 130.394,-65.5"/>
<text text-anchor="start" x="138.394" y="-81.5" font-family="Helvetica,sans-Serif" font-size="10.00" fill="#000000">std::vector&lt; std::unique</text>
<text text-anchor="middle" x="190.23" y="-71.5" font-family="Helvetica,sans-Serif" font-size="10.00" fill="#000000">_ptr&lt; delta::Stmt &gt; &gt;</text>
</g>
<!-- Node5&#45;&gt;Node1 -->
<g id="edge4" class="edge">
<title>Node5&#45;&gt;Node1</title>
<path fill="none" stroke="#9a32cd" stroke-dasharray="5,2" d="M169.656,-58.0048C157.0623,-44.8472 141.59,-28.6822 132.0709,-18.7368"/>
<polygon fill="#9a32cd" stroke="#9a32cd" points="167.2285,-60.5304 176.6715,-65.3345 172.2854,-55.6901 167.2285,-60.5304"/>
<text text-anchor="middle" x="172.5625" y="-39" font-family="Helvetica,sans-Serif" font-size="10.00" fill="#000000"> stmts</text>
</g>
<!-- Node6 -->
<g id="node6" class="node">
<title>Node6</title>
<polygon fill="#ffffff" stroke="#bfbfbf" points="134,-140.5 134,-168.5 246.46,-168.5 246.46,-140.5 134,-140.5"/>
<text text-anchor="start" x="142" y="-156.5" font-family="Helvetica,sans-Serif" font-size="10.00" fill="#000000">std::unique_ptr&lt; delta</text>
<text text-anchor="middle" x="190.23" y="-146.5" font-family="Helvetica,sans-Serif" font-size="10.00" fill="#000000">::Stmt &gt;</text>
</g>
<!-- Node6&#45;&gt;Node5 -->
<g id="edge5" class="edge">
<title>Node6&#45;&gt;Node5</title>
<path fill="none" stroke="#9a32cd" stroke-dasharray="5,2" d="M190.23,-130.0415C190.23,-117.9507 190.23,-103.7938 190.23,-93.5437"/>
<polygon fill="#9a32cd" stroke="#9a32cd" points="186.7301,-130.393 190.23,-140.3931 193.7301,-130.3931 186.7301,-130.393"/>
<text text-anchor="middle" x="211.9072" y="-114" font-family="Helvetica,sans-Serif" font-size="10.00" fill="#000000"> elements</text>
</g>
<!-- Node7 -->
<g id="node7" class="node">
<title>Node7</title>
<g id="a_node7"><a xlink:href="classdelta_1_1_stmt.html" target="_top" xlink:title="delta::Stmt">
<polygon fill="#ffffff" stroke="#000000" points="158.3311,-215.5 158.3311,-233.5 222.1289,-233.5 222.1289,-215.5 158.3311,-215.5"/>
<text text-anchor="middle" x="190.23" y="-221.5" font-family="Helvetica,sans-Serif" font-size="10.00" fill="#000000">delta::Stmt</text>
</a>
</g>
</g>
<!-- Node7&#45;&gt;Node6 -->
<g id="edge6" class="edge">
<title>Node7&#45;&gt;Node6</title>
<path fill="none" stroke="#9a32cd" stroke-dasharray="5,2" d="M190.23,-205.0243C190.23,-193.5169 190.23,-179.2016 190.23,-168.7499"/>
<polygon fill="#9a32cd" stroke="#9a32cd" points="186.7301,-205.3487 190.23,-215.3487 193.7301,-205.3488 186.7301,-205.3487"/>
<text text-anchor="middle" x="197.4541" y="-189" font-family="Helvetica,sans-Serif" font-size="10.00" fill="#000000"> ptr</text>
</g>
</g>
</svg>
