<?xml version="1.0" encoding="UTF-8" standalone="no"?>
<!DOCTYPE svg PUBLIC "-//W3C//DTD SVG 1.1//EN"
 "http://www.w3.org/Graphics/SVG/1.1/DTD/svg11.dtd">
<!-- Generated by graphviz version 2.40.1 (20161225.0304)
 -->
<!-- Title: delta::DeinitDecl Pages: 1 -->
<svg width="164pt" height="92pt"
 viewBox="0.00 0.00 163.81 92.00" xmlns="http://www.w3.org/2000/svg" xmlns:xlink="http://www.w3.org/1999/xlink">
<g id="graph0" class="graph" transform="scale(1 1) rotate(0) translate(4 88)">
<title>delta::DeinitDecl</title>
<polygon fill="#ffffff" stroke="transparent" points="-4,4 -4,-88 159.8052,-88 159.8052,4 -4,4"/>
<!-- Node2 -->
<g id="node1" class="node">
<title>Node2</title>
<polygon fill="#bfbfbf" stroke="#000000" points="30.2168,-.5 30.2168,-18.5 119.0293,-18.5 119.0293,-.5 30.2168,-.5"/>
<text text-anchor="middle" x="74.623" y="-6.5" font-family="Helvetica,sans-Serif" font-size="10.00" fill="#000000">delta::DeinitDecl</text>
</g>
<!-- Node3 -->
<g id="node2" class="node">
<title>Node3</title>
<g id="a_node2"><a xlink:href="classdelta_1_1_decl.html" target="_top" xlink:title="delta::Decl">
<polygon fill="#ffffff" stroke="#000000" points="0,-65.5 0,-83.5 63.2461,-83.5 63.2461,-65.5 0,-65.5"/>
<text text-anchor="middle" x="31.623" y="-71.5" font-family="Helvetica,sans-Serif" font-size="10.00" fill="#000000">delta::Decl</text>
</a>
</g>
</g>
<!-- Node3&#45;&gt;Node2 -->
<g id="edge1" class="edge">
<title>Node3&#45;&gt;Node2</title>
<path fill="none" stroke="#191970" d="M43.2302,-56.9542C51.3398,-44.6956 61.8507,-28.807 68.4164,-18.8821"/>
<polygon fill="#191970" stroke="#191970" points="40.2003,-55.1907 37.602,-65.462 46.0385,-59.0529 40.2003,-55.1907"/>
</g>
<!-- Node4 -->
<g id="node3" class="node">
<title>Node4</title>
<g id="a_node3"><a xlink:href="structdelta_1_1_src_loc.html" target="_top" xlink:title="delta::SrcLoc">
<polygon fill="#ffffff" stroke="#000000" points="81.4409,-65.5 81.4409,-83.5 155.8052,-83.5 155.8052,-65.5 81.4409,-65.5"/>
<text text-anchor="middle" x="118.623" y="-71.5" font-family="Helvetica,sans-Serif" font-size="10.00" fill="#000000">delta::SrcLoc</text>
</a>
</g>
</g>
<!-- Node4&#45;&gt;Node2 -->
<g id="edge2" class="edge">
<title>Node4&#45;&gt;Node2</title>
<path fill="none" stroke="#9a32cd" stroke-dasharray="5,2" d="M106.7459,-56.9542C98.4478,-44.6956 87.6924,-28.807 80.974,-18.8821"/>
<polygon fill="#9a32cd" stroke="#9a32cd" points="104.0009,-59.1429 112.505,-65.462 109.7977,-55.2189 104.0009,-59.1429"/>
<text text-anchor="middle" x="114.7388" y="-39" font-family="Helvetica,sans-Serif" font-size="10.00" fill="#000000"> srcLoc</text>
</g>
</g>
</svg>
