<?xml version="1.0" encoding="UTF-8" standalone="no"?>
<!DOCTYPE svg PUBLIC "-//W3C//DTD SVG 1.1//EN"
 "http://www.w3.org/Graphics/SVG/1.1/DTD/svg11.dtd">
<!-- Generated by graphviz version 2.40.1 (20161225.0304)
 -->
<!-- Title: delta::Expr::getKind Pages: 1 -->
<svg width="268pt" height="571pt"
 viewBox="0.00 0.00 268.32 571.00" xmlns="http://www.w3.org/2000/svg" xmlns:xlink="http://www.w3.org/1999/xlink">
<g id="graph0" class="graph" transform="scale(1 1) rotate(0) translate(4 567)">
<title>delta::Expr::getKind</title>
<polygon fill="#ffffff" stroke="transparent" points="-4,4 -4,-567 264.3193,-567 264.3193,4 -4,4"/>
<!-- Node2 -->
<g id="node1" class="node">
<title>Node2</title>
<polygon fill="#bfbfbf" stroke="#000000" points="0,-267.5 0,-285.5 103.2754,-285.5 103.2754,-267.5 0,-267.5"/>
<text text-anchor="middle" x="51.6377" y="-273.5" font-family="Helvetica,sans-Serif" font-size="10.00" fill="#000000">delta::Expr::getKind</text>
</g>
<!-- Node3 -->
<g id="node2" class="node">
<title>Node3</title>
<g id="a_node2"><a xlink:href="classdelta_1_1_expr.html#a8e4ba4b268e550dee508d225c6192a6b" target="_top" xlink:title="delta::Expr::isLvalue">
<polygon fill="#ffffff" stroke="#000000" points="146.7729,-544.5 146.7729,-562.5 252.8218,-562.5 252.8218,-544.5 146.7729,-544.5"/>
<text text-anchor="middle" x="199.7974" y="-550.5" font-family="Helvetica,sans-Serif" font-size="10.00" fill="#000000">delta::Expr::isLvalue</text>
</a>
</g>
</g>
<!-- Node2&#45;&gt;Node3 -->
<g id="edge1" class="edge">
<title>Node2&#45;&gt;Node3</title>
<path fill="none" stroke="#191970" d="M52.3775,-295.7842C55.271,-343.5339 69.4822,-468.2557 139.2754,-535.5 143.0646,-539.1508 147.5606,-542.0654 152.3651,-544.3915"/>
<polygon fill="#191970" stroke="#191970" points="55.8642,-295.4304 51.8677,-285.6182 48.873,-295.781 55.8642,-295.4304"/>
</g>
<!-- Node4 -->
<g id="node3" class="node">
<title>Node4</title>
<g id="a_node3"><a xlink:href="classdelta_1_1_variable_expr.html#a754ceea667972299b6c0d45a63d09207" target="_top" xlink:title="delta::VariableExpr\l::classof">
<polygon fill="#ffffff" stroke="#000000" points="149.9199,-497.5 149.9199,-525.5 249.6748,-525.5 249.6748,-497.5 149.9199,-497.5"/>
<text text-anchor="start" x="157.9199" y="-513.5" font-family="Helvetica,sans-Serif" font-size="10.00" fill="#000000">delta::VariableExpr</text>
<text text-anchor="middle" x="199.7974" y="-503.5" font-family="Helvetica,sans-Serif" font-size="10.00" fill="#000000">::classof</text>
</a>
</g>
</g>
<!-- Node2&#45;&gt;Node4 -->
<g id="edge2" class="edge">
<title>Node2&#45;&gt;Node4</title>
<path fill="none" stroke="#191970" d="M54.3491,-295.5354C61.1462,-336.4372 82.6175,-433.4519 139.2754,-488.5 142.8226,-491.9464 146.9384,-494.8876 151.3224,-497.3954"/>
<polygon fill="#191970" stroke="#191970" points="57.7947,-294.9142 52.8041,-285.5684 50.8774,-295.9866 57.7947,-294.9142"/>
</g>
<!-- Node5 -->
<g id="node4" class="node">
<title>Node5</title>
<g id="a_node4"><a xlink:href="classdelta_1_1_str_literal_expr.html#a29314eaf418d1caf364805fa17bf6563" target="_top" xlink:title="delta::StrLiteralExpr\l::classof">
<polygon fill="#ffffff" stroke="#000000" points="147.8887,-450.5 147.8887,-478.5 251.7061,-478.5 251.7061,-450.5 147.8887,-450.5"/>
<text text-anchor="start" x="155.8887" y="-466.5" font-family="Helvetica,sans-Serif" font-size="10.00" fill="#000000">delta::StrLiteralExpr</text>
<text text-anchor="middle" x="199.7974" y="-456.5" font-family="Helvetica,sans-Serif" font-size="10.00" fill="#000000">::classof</text>
</a>
</g>
</g>
<!-- Node2&#45;&gt;Node5 -->
<g id="edge3" class="edge">
<title>Node2&#45;&gt;Node5</title>
<path fill="none" stroke="#191970" d="M56.9637,-295.8481C67.288,-329.9112 93.1641,-400.8234 139.2754,-441.5 143.1529,-444.9205 147.5911,-447.8544 152.2632,-450.3661"/>
<polygon fill="#191970" stroke="#191970" points="60.1984,-294.4355 54.0519,-285.8058 53.4753,-296.3849 60.1984,-294.4355"/>
</g>
<!-- Node6 -->
<g id="node5" class="node">
<title>Node6</title>
<g id="a_node5"><a xlink:href="classdelta_1_1_int_literal_expr.html#a4f06a6d44bf5675c9bc15d23c0bd2c90" target="_top" xlink:title="delta::IntLiteralExpr\l::classof">
<polygon fill="#ffffff" stroke="#000000" points="148.7188,-403.5 148.7188,-431.5 250.876,-431.5 250.876,-403.5 148.7188,-403.5"/>
<text text-anchor="start" x="156.7188" y="-419.5" font-family="Helvetica,sans-Serif" font-size="10.00" fill="#000000">delta::IntLiteralExpr</text>
<text text-anchor="middle" x="199.7974" y="-409.5" font-family="Helvetica,sans-Serif" font-size="10.00" fill="#000000">::classof</text>
</a>
</g>
</g>
<!-- Node2&#45;&gt;Node6 -->
<g id="edge4" class="edge">
<title>Node2&#45;&gt;Node6</title>
<path fill="none" stroke="#191970" d="M60.7179,-294.5351C74.4471,-320.1227 102.8026,-366.9123 139.2754,-394.5 143.7578,-397.8904 148.798,-400.8339 154.0071,-403.3756"/>
<polygon fill="#191970" stroke="#191970" points="63.7655,-292.8097 56.0389,-285.5606 57.5585,-296.0459 63.7655,-292.8097"/>
</g>
<!-- Node7 -->
<g id="node6" class="node">
<title>Node7</title>
<g id="a_node6"><a xlink:href="classdelta_1_1_bool_literal_expr.html#a3ba99c67fe8eeff5cdb8435db04ea8e3" target="_top" xlink:title="delta::BoolLiteralExpr\l::classof">
<polygon fill="#ffffff" stroke="#000000" points="144.2705,-356.5 144.2705,-384.5 255.3242,-384.5 255.3242,-356.5 144.2705,-356.5"/>
<text text-anchor="start" x="152.2705" y="-372.5" font-family="Helvetica,sans-Serif" font-size="10.00" fill="#000000">delta::BoolLiteralExpr</text>
<text text-anchor="middle" x="199.7974" y="-362.5" font-family="Helvetica,sans-Serif" font-size="10.00" fill="#000000">::classof</text>
</a>
</g>
</g>
<!-- Node2&#45;&gt;Node7 -->
<g id="edge5" class="edge">
<title>Node2&#45;&gt;Node7</title>
<path fill="none" stroke="#191970" d="M68.5036,-292.9284C85.3171,-308.6059 112.4364,-332.0604 139.2754,-347.5 145.0239,-350.807 151.3374,-353.8113 157.6501,-356.4768"/>
<polygon fill="#191970" stroke="#191970" points="70.7871,-290.2703 61.1239,-285.9261 65.9689,-295.3482 70.7871,-290.2703"/>
</g>
<!-- Node8 -->
<g id="node7" class="node">
<title>Node8</title>
<g id="a_node7"><a xlink:href="classdelta_1_1_null_literal_expr.html#a964401107c9a61c3dd2567f1235fb5ba" target="_top" xlink:title="delta::NullLiteralExpr\l::classof">
<polygon fill="#ffffff" stroke="#000000" points="145.6646,-309.5 145.6646,-337.5 253.9302,-337.5 253.9302,-309.5 145.6646,-309.5"/>
<text text-anchor="start" x="153.6646" y="-325.5" font-family="Helvetica,sans-Serif" font-size="10.00" fill="#000000">delta::NullLiteralExpr</text>
<text text-anchor="middle" x="199.7974" y="-315.5" font-family="Helvetica,sans-Serif" font-size="10.00" fill="#000000">::classof</text>
</a>
</g>
</g>
<!-- Node2&#45;&gt;Node8 -->
<g id="edge6" class="edge">
<title>Node2&#45;&gt;Node8</title>
<path fill="none" stroke="#191970" d="M89.9412,-288.6508C110.0107,-295.0174 134.6904,-302.8464 155.5703,-309.4701"/>
<polygon fill="#191970" stroke="#191970" points="90.7946,-285.2497 80.2044,-285.5621 88.6779,-291.9221 90.7946,-285.2497"/>
</g>
<!-- Node9 -->
<g id="node8" class="node">
<title>Node9</title>
<g id="a_node8"><a xlink:href="classdelta_1_1_array_literal_expr.html#a28811119131b621edf49b265df73f66b" target="_top" xlink:title="delta::ArrayLiteralExpr\l::classof">
<polygon fill="#ffffff" stroke="#000000" points="142.332,-262.5 142.332,-290.5 257.2627,-290.5 257.2627,-262.5 142.332,-262.5"/>
<text text-anchor="start" x="150.332" y="-278.5" font-family="Helvetica,sans-Serif" font-size="10.00" fill="#000000">delta::ArrayLiteralExpr</text>
<text text-anchor="middle" x="199.7974" y="-268.5" font-family="Helvetica,sans-Serif" font-size="10.00" fill="#000000">::classof</text>
</a>
</g>
</g>
<!-- Node2&#45;&gt;Node9 -->
<g id="edge7" class="edge">
<title>Node2&#45;&gt;Node9</title>
<path fill="none" stroke="#191970" d="M113.5988,-276.5C123.0716,-276.5 132.8162,-276.5 142.1902,-276.5"/>
<polygon fill="#191970" stroke="#191970" points="113.4568,-273.0001 103.4568,-276.5 113.4567,-280.0001 113.4568,-273.0001"/>
</g>
<!-- Node10 -->
<g id="node9" class="node">
<title>Node10</title>
<g id="a_node9"><a xlink:href="classdelta_1_1_prefix_expr.html#a68f04edce6cc952f48255972606f411b" target="_top" xlink:title="delta::PrefixExpr::\lclassof">
<polygon fill="#ffffff" stroke="#000000" points="152.3369,-215.5 152.3369,-243.5 247.2578,-243.5 247.2578,-215.5 152.3369,-215.5"/>
<text text-anchor="start" x="160.3369" y="-231.5" font-family="Helvetica,sans-Serif" font-size="10.00" fill="#000000">delta::PrefixExpr::</text>
<text text-anchor="middle" x="199.7974" y="-221.5" font-family="Helvetica,sans-Serif" font-size="10.00" fill="#000000">classof</text>
</a>
</g>
</g>
<!-- Node2&#45;&gt;Node10 -->
<g id="edge8" class="edge">
<title>Node2&#45;&gt;Node10</title>
<path fill="none" stroke="#191970" d="M89.9412,-264.3492C110.0107,-257.9826 134.6904,-250.1536 155.5703,-243.5299"/>
<polygon fill="#191970" stroke="#191970" points="88.6779,-261.0779 80.2044,-267.4379 90.7946,-267.7503 88.6779,-261.0779"/>
</g>
<!-- Node11 -->
<g id="node10" class="node">
<title>Node11</title>
<g id="a_node10"><a xlink:href="classdelta_1_1_binary_expr.html#a07de7174e590d5b97d449fee02f91bc6" target="_top" xlink:title="delta::BinaryExpr::\lclassof">
<polygon fill="#ffffff" stroke="#000000" points="150.9453,-168.5 150.9453,-196.5 248.6494,-196.5 248.6494,-168.5 150.9453,-168.5"/>
<text text-anchor="start" x="158.9453" y="-184.5" font-family="Helvetica,sans-Serif" font-size="10.00" fill="#000000">delta::BinaryExpr::</text>
<text text-anchor="middle" x="199.7974" y="-174.5" font-family="Helvetica,sans-Serif" font-size="10.00" fill="#000000">classof</text>
</a>
</g>
</g>
<!-- Node2&#45;&gt;Node11 -->
<g id="edge9" class="edge">
<title>Node2&#45;&gt;Node11</title>
<path fill="none" stroke="#191970" d="M68.5941,-260.4042C85.475,-245.0227 112.6428,-221.9529 139.2754,-206.5 145.5325,-202.8695 152.4437,-199.5542 159.2908,-196.6235"/>
<polygon fill="#191970" stroke="#191970" points="66.1391,-257.9073 61.1809,-267.2704 70.8958,-263.0429 66.1391,-257.9073"/>
</g>
<!-- Node12 -->
<g id="node11" class="node">
<title>Node12</title>
<g id="a_node11"><a xlink:href="classdelta_1_1_call_expr.html#a76ec62d86e3e53cd5b351eccf5949dc8" target="_top" xlink:title="delta::CallExpr::classof">
<polygon fill="#ffffff" stroke="#000000" points="140.9429,-131.5 140.9429,-149.5 258.6519,-149.5 258.6519,-131.5 140.9429,-131.5"/>
<text text-anchor="middle" x="199.7974" y="-137.5" font-family="Helvetica,sans-Serif" font-size="10.00" fill="#000000">delta::CallExpr::classof</text>
</a>
</g>
</g>
<!-- Node2&#45;&gt;Node12 -->
<g id="edge10" class="edge">
<title>Node2&#45;&gt;Node12</title>
<path fill="none" stroke="#191970" d="M60.543,-258.3279C74.0584,-232.6028 102.1546,-185.7802 139.2754,-159.5 145.1178,-155.3638 151.8952,-152.1031 158.756,-149.5399"/>
<polygon fill="#191970" stroke="#191970" points="57.3627,-256.8603 55.9445,-267.3597 63.6007,-260.0363 57.3627,-256.8603"/>
</g>
<!-- Node13 -->
<g id="node12" class="node">
<title>Node13</title>
<g id="a_node12"><a xlink:href="classdelta_1_1_cast_expr.html#ad32475876a6450be02838ac8e2661247" target="_top" xlink:title="delta::CastExpr::classof">
<polygon fill="#ffffff" stroke="#000000" points="139.2754,-94.5 139.2754,-112.5 260.3193,-112.5 260.3193,-94.5 139.2754,-94.5"/>
<text text-anchor="middle" x="199.7974" y="-100.5" font-family="Helvetica,sans-Serif" font-size="10.00" fill="#000000">delta::CastExpr::classof</text>
</a>
</g>
</g>
<!-- Node2&#45;&gt;Node13 -->
<g id="edge11" class="edge">
<title>Node2&#45;&gt;Node13</title>
<path fill="none" stroke="#191970" d="M57.2608,-257.7086C67.9121,-225.316 94.1019,-158.9411 139.2754,-122.5 144.4183,-118.3512 150.4751,-115.1035 156.7348,-112.5623"/>
<polygon fill="#191970" stroke="#191970" points="53.9061,-256.7093 54.2394,-267.2989 60.5826,-258.8128 53.9061,-256.7093"/>
</g>
<!-- Node14 -->
<g id="node13" class="node">
<title>Node14</title>
<g id="a_node13"><a xlink:href="classdelta_1_1_member_expr.html#a0dc708521673c19ff290939bc082bb2a" target="_top" xlink:title="delta::MemberExpr::\lclassof">
<polygon fill="#ffffff" stroke="#000000" points="146.7803,-47.5 146.7803,-75.5 252.8145,-75.5 252.8145,-47.5 146.7803,-47.5"/>
<text text-anchor="start" x="154.7803" y="-63.5" font-family="Helvetica,sans-Serif" font-size="10.00" fill="#000000">delta::MemberExpr::</text>
<text text-anchor="middle" x="199.7974" y="-53.5" font-family="Helvetica,sans-Serif" font-size="10.00" fill="#000000">classof</text>
</a>
</g>
</g>
<!-- Node2&#45;&gt;Node14 -->
<g id="edge12" class="edge">
<title>Node2&#45;&gt;Node14</title>
<path fill="none" stroke="#191970" d="M55.5418,-256.8522C64.0906,-218.7284 87.9441,-134.1975 139.2754,-85.5 143.3755,-81.6103 148.1827,-78.3244 153.2645,-75.555"/>
<polygon fill="#191970" stroke="#191970" points="52.0187,-256.5941 53.3666,-267.1028 58.8662,-258.0472 52.0187,-256.5941"/>
</g>
<!-- Node15 -->
<g id="node14" class="node">
<title>Node15</title>
<g id="a_node14"><a xlink:href="classdelta_1_1_subscript_expr.html#a0158626ec52c6bad9ac4a04bf819d389" target="_top" xlink:title="delta::SubscriptExpr\l::classof">
<polygon fill="#ffffff" stroke="#000000" points="147.0537,-.5 147.0537,-28.5 252.541,-28.5 252.541,-.5 147.0537,-.5"/>
<text text-anchor="start" x="155.0537" y="-16.5" font-family="Helvetica,sans-Serif" font-size="10.00" fill="#000000">delta::SubscriptExpr</text>
<text text-anchor="middle" x="199.7974" y="-6.5" font-family="Helvetica,sans-Serif" font-size="10.00" fill="#000000">::classof</text>
</a>
</g>
</g>
<!-- Node2&#45;&gt;Node15 -->
<g id="edge13" class="edge">
<title>Node2&#45;&gt;Node15</title>
<path fill="none" stroke="#191970" d="M53.4411,-257.343C58.6069,-212.9502 77.3295,-101.9959 139.2754,-38.5 143.0642,-34.6164 147.5599,-31.3455 152.3642,-28.5939"/>
<polygon fill="#191970" stroke="#191970" points="49.9542,-257.0345 52.3806,-267.3477 56.9152,-257.7723 49.9542,-257.0345"/>
</g>
</g>
</svg>
