<?xml version="1.0" encoding="UTF-8" standalone="no"?>
<!DOCTYPE svg PUBLIC "-//W3C//DTD SVG 1.1//EN"
 "http://www.w3.org/Graphics/SVG/1.1/DTD/svg11.dtd">
<!-- Generated by graphviz version 2.40.1 (20161225.0304)
 -->
<!-- Title: delta::ParamDecl Pages: 1 -->
<svg width="342pt" height="168pt"
 viewBox="0.00 0.00 341.67 168.00" xmlns="http://www.w3.org/2000/svg" xmlns:xlink="http://www.w3.org/1999/xlink">
<g id="graph0" class="graph" transform="scale(1 1) rotate(0) translate(4 164)">
<title>delta::ParamDecl</title>
<polygon fill="#ffffff" stroke="transparent" points="-4,4 -4,-164 337.6709,-164 337.6709,4 -4,4"/>
<!-- Node2 -->
<g id="node1" class="node">
<title>Node2</title>
<polygon fill="#bfbfbf" stroke="#000000" points="111.2734,-.5 111.2734,-18.5 203.9727,-18.5 203.9727,-.5 111.2734,-.5"/>
<text text-anchor="middle" x="157.623" y="-6.5" font-family="Helvetica,sans-Serif" font-size="10.00" fill="#000000">delta::ParamDecl</text>
</g>
<!-- Node3 -->
<g id="node2" class="node">
<title>Node3</title>
<g id="a_node2"><a xlink:href="classdelta_1_1_decl.html" target="_top" xlink:title="delta::Decl">
<polygon fill="#ffffff" stroke="#000000" points="0,-75.5 0,-93.5 63.2461,-93.5 63.2461,-75.5 0,-75.5"/>
<text text-anchor="middle" x="31.623" y="-81.5" font-family="Helvetica,sans-Serif" font-size="10.00" fill="#000000">delta::Decl</text>
</a>
</g>
</g>
<!-- Node3&#45;&gt;Node2 -->
<g id="edge1" class="edge">
<title>Node3&#45;&gt;Node2</title>
<path fill="none" stroke="#191970" d="M55.8027,-70.1074C81.3756,-54.8854 120.9338,-31.3389 142.4402,-18.5374"/>
<polygon fill="#191970" stroke="#191970" points="53.8759,-67.1811 47.0731,-75.3035 57.4563,-73.1962 53.8759,-67.1811"/>
</g>
<!-- Node4 -->
<g id="node3" class="node">
<title>Node4</title>
<g id="a_node3"><a xlink:href="structdelta_1_1_type.html" target="_top" xlink:title="delta::Type">
<polygon fill="#ffffff" stroke="#000000" points="81.1602,-75.5 81.1602,-93.5 146.0859,-93.5 146.0859,-75.5 81.1602,-75.5"/>
<text text-anchor="middle" x="113.623" y="-81.5" font-family="Helvetica,sans-Serif" font-size="10.00" fill="#000000">delta::Type</text>
</a>
</g>
</g>
<!-- Node4&#45;&gt;Node2 -->
<g id="edge2" class="edge">
<title>Node4&#45;&gt;Node2</title>
<path fill="none" stroke="#9a32cd" stroke-dasharray="5,2" d="M124.2361,-66.4096C133.0514,-51.3835 145.2341,-30.6176 152.1837,-18.7717"/>
<polygon fill="#9a32cd" stroke="#9a32cd" points="121.0597,-64.9072 119.0183,-75.3035 127.0973,-68.4493 121.0597,-64.9072"/>
<text text-anchor="middle" x="152.4629" y="-44" font-family="Helvetica,sans-Serif" font-size="10.00" fill="#000000"> type</text>
</g>
<!-- Node5 -->
<g id="node4" class="node">
<title>Node5</title>
<g id="a_node4"><a xlink:href="structdelta_1_1_src_loc.html" target="_top" xlink:title="delta::SrcLoc">
<polygon fill="#ffffff" stroke="#000000" points="164.4409,-75.5 164.4409,-93.5 238.8052,-93.5 238.8052,-75.5 164.4409,-75.5"/>
<text text-anchor="middle" x="201.623" y="-81.5" font-family="Helvetica,sans-Serif" font-size="10.00" fill="#000000">delta::SrcLoc</text>
</a>
</g>
</g>
<!-- Node5&#45;&gt;Node2 -->
<g id="edge3" class="edge">
<title>Node5&#45;&gt;Node2</title>
<path fill="none" stroke="#9a32cd" stroke-dasharray="5,2" d="M191.01,-66.4096C182.1947,-51.3835 170.012,-30.6176 163.0624,-18.7717"/>
<polygon fill="#9a32cd" stroke="#9a32cd" points="188.1487,-68.4493 196.2278,-75.3035 194.1864,-64.9072 188.1487,-68.4493"/>
<text text-anchor="middle" x="200.7388" y="-44" font-family="Helvetica,sans-Serif" font-size="10.00" fill="#000000"> srcLoc</text>
</g>
<!-- Node6 -->
<g id="node5" class="node">
<title>Node6</title>
<g id="a_node5"><a xlink:title="STL class. ">
<polygon fill="#ffffff" stroke="#bfbfbf" points="256.9482,-75.5 256.9482,-93.5 316.2979,-93.5 316.2979,-75.5 256.9482,-75.5"/>
<text text-anchor="middle" x="286.623" y="-81.5" font-family="Helvetica,sans-Serif" font-size="10.00" fill="#000000">std::string</text>
</a>
</g>
</g>
<!-- Node6&#45;&gt;Node2 -->
<g id="edge4" class="edge">
<title>Node6&#45;&gt;Node2</title>
<path fill="none" stroke="#9a32cd" stroke-dasharray="5,2" d="M267.3912,-68.99C254.6001,-59.1017 237.1687,-46.4229 220.623,-37 208.1787,-29.9128 193.5582,-23.4274 181.536,-18.5368"/>
<polygon fill="#9a32cd" stroke="#9a32cd" points="265.4127,-71.8867 275.4373,-75.3157 269.739,-66.3837 265.4127,-71.8867"/>
<text text-anchor="middle" x="263.5195" y="-49" font-family="Helvetica,sans-Serif" font-size="10.00" fill="#000000"> name</text>
<text text-anchor="middle" x="263.5195" y="-39" font-family="Helvetica,sans-Serif" font-size="10.00" fill="#000000">label</text>
</g>
<!-- Node7 -->
<g id="node6" class="node">
<title>Node7</title>
<g id="a_node6"><a xlink:title="STL class. ">
<polygon fill="#ffffff" stroke="#bfbfbf" points="239.5752,-131.5 239.5752,-159.5 333.6709,-159.5 333.6709,-131.5 239.5752,-131.5"/>
<text text-anchor="start" x="247.5752" y="-147.5" font-family="Helvetica,sans-Serif" font-size="10.00" fill="#000000">std::basic_string&lt;</text>
<text text-anchor="middle" x="286.623" y="-137.5" font-family="Helvetica,sans-Serif" font-size="10.00" fill="#000000"> char &gt;</text>
</a>
</g>
</g>
<!-- Node7&#45;&gt;Node6 -->
<g id="edge5" class="edge">
<title>Node7&#45;&gt;Node6</title>
<path fill="none" stroke="#191970" d="M286.623,-121.1001C286.623,-111.5157 286.623,-101.0935 286.623,-93.831"/>
<polygon fill="#191970" stroke="#191970" points="283.1231,-121.352 286.623,-131.3521 290.1231,-121.3521 283.1231,-121.352"/>
</g>
</g>
</svg>
