<?xml version="1.0" encoding="UTF-8" standalone="no"?>
<!DOCTYPE svg PUBLIC "-//W3C//DTD SVG 1.1//EN"
 "http://www.w3.org/Graphics/SVG/1.1/DTD/svg11.dtd">
<!-- Generated by graphviz version 2.40.1 (20161225.0304)
 -->
<!-- Title: delta::BinaryExpr Pages: 1 -->
<svg width="299pt" height="242pt"
 viewBox="0.00 0.00 298.71 242.00" xmlns="http://www.w3.org/2000/svg" xmlns:xlink="http://www.w3.org/1999/xlink">
<g id="graph0" class="graph" transform="scale(1 1) rotate(0) translate(4 238)">
<title>delta::BinaryExpr</title>
<polygon fill="#ffffff" stroke="transparent" points="-4,4 -4,-238 294.7065,-238 294.7065,4 -4,4"/>
<!-- Node2 -->
<g id="node1" class="node">
<title>Node2</title>
<polygon fill="#bfbfbf" stroke="#000000" points="59.1084,-.5 59.1084,-18.5 151.2559,-18.5 151.2559,-.5 59.1084,-.5"/>
<text text-anchor="middle" x="105.1821" y="-6.5" font-family="Helvetica,sans-Serif" font-size="10.00" fill="#000000">delta::BinaryExpr</text>
</g>
<!-- Node3 -->
<g id="node2" class="node">
<title>Node3</title>
<g id="a_node2"><a xlink:href="classdelta_1_1_expr.html" target="_top" xlink:title="delta::Expr">
<polygon fill="#ffffff" stroke="#000000" points="5.2808,-150.5 5.2808,-168.5 69.0835,-168.5 69.0835,-150.5 5.2808,-150.5"/>
<text text-anchor="middle" x="37.1821" y="-156.5" font-family="Helvetica,sans-Serif" font-size="10.00" fill="#000000">delta::Expr</text>
</a>
</g>
</g>
<!-- Node3&#45;&gt;Node2 -->
<g id="edge1" class="edge">
<title>Node3&#45;&gt;Node2</title>
<path fill="none" stroke="#191970" d="M34.0246,-140.4363C31.9585,-122.7198 31.098,-95.9853 40.1821,-75 50.8741,-50.3004 75.526,-29.8105 91.2108,-18.6424"/>
<polygon fill="#191970" stroke="#191970" points="30.5669,-140.9829 35.4262,-150.3977 37.4986,-140.0075 30.5669,-140.9829"/>
</g>
<!-- Node6 -->
<g id="node5" class="node">
<title>Node6</title>
<polygon fill="#ffffff" stroke="#bfbfbf" points="48.9521,-75.5 48.9521,-103.5 161.4121,-103.5 161.4121,-75.5 48.9521,-75.5"/>
<text text-anchor="start" x="56.9521" y="-91.5" font-family="Helvetica,sans-Serif" font-size="10.00" fill="#000000">std::unique_ptr&lt; delta</text>
<text text-anchor="middle" x="105.1821" y="-81.5" font-family="Helvetica,sans-Serif" font-size="10.00" fill="#000000">::Expr &gt;</text>
</g>
<!-- Node3&#45;&gt;Node6 -->
<g id="edge5" class="edge">
<title>Node3&#45;&gt;Node6</title>
<path fill="none" stroke="#9a32cd" stroke-dasharray="5,2" d="M53.3672,-142.8388C64.9362,-130.9296 80.3402,-115.0726 91.3394,-103.7499"/>
<polygon fill="#9a32cd" stroke="#9a32cd" points="50.5293,-140.7371 46.0719,-150.3487 55.5503,-145.6147 50.5293,-140.7371"/>
<text text-anchor="middle" x="81.4063" y="-124" font-family="Helvetica,sans-Serif" font-size="10.00" fill="#000000"> ptr</text>
</g>
<!-- Node4 -->
<g id="node3" class="node">
<title>Node4</title>
<g id="a_node3"><a xlink:href="structdelta_1_1_src_loc.html" target="_top" xlink:title="delta::SrcLoc">
<polygon fill="#ffffff" stroke="#000000" points="0,-215.5 0,-233.5 74.3643,-233.5 74.3643,-215.5 0,-215.5"/>
<text text-anchor="middle" x="37.1821" y="-221.5" font-family="Helvetica,sans-Serif" font-size="10.00" fill="#000000">delta::SrcLoc</text>
</a>
</g>
</g>
<!-- Node4&#45;&gt;Node3 -->
<g id="edge2" class="edge">
<title>Node4&#45;&gt;Node3</title>
<path fill="none" stroke="#9a32cd" stroke-dasharray="5,2" d="M37.1821,-205.1265C37.1821,-193.1522 37.1821,-178.3205 37.1821,-168.8821"/>
<polygon fill="#9a32cd" stroke="#9a32cd" points="33.6822,-205.462 37.1821,-215.462 40.6822,-205.4621 33.6822,-205.462"/>
<text text-anchor="middle" x="53.2979" y="-189" font-family="Helvetica,sans-Serif" font-size="10.00" fill="#000000"> srcLoc</text>
</g>
<!-- Node5 -->
<g id="node4" class="node">
<title>Node5</title>
<g id="a_node4"><a xlink:href="structdelta_1_1_binary_operator.html" target="_top" xlink:title="delta::BinaryOperator">
<polygon fill="#ffffff" stroke="#000000" points="179.6577,-80.5 179.6577,-98.5 290.7065,-98.5 290.7065,-80.5 179.6577,-80.5"/>
<text text-anchor="middle" x="235.1821" y="-86.5" font-family="Helvetica,sans-Serif" font-size="10.00" fill="#000000">delta::BinaryOperator</text>
</a>
</g>
</g>
<!-- Node5&#45;&gt;Node2 -->
<g id="edge3" class="edge">
<title>Node5&#45;&gt;Node2</title>
<path fill="none" stroke="#9a32cd" stroke-dasharray="5,2" d="M211.83,-75.1295C185.1852,-58.7327 142.4108,-32.4099 119.988,-18.6113"/>
<polygon fill="#9a32cd" stroke="#9a32cd" points="210.1712,-78.2183 220.5222,-80.4785 213.8399,-72.2567 210.1712,-78.2183"/>
<text text-anchor="middle" x="188.1328" y="-44" font-family="Helvetica,sans-Serif" font-size="10.00" fill="#000000"> op</text>
</g>
<!-- Node6&#45;&gt;Node2 -->
<g id="edge4" class="edge">
<title>Node6&#45;&gt;Node2</title>
<path fill="none" stroke="#9a32cd" stroke-dasharray="5,2" d="M105.1821,-65.0944C105.1821,-49.4125 105.1821,-29.9392 105.1821,-18.6941"/>
<polygon fill="#9a32cd" stroke="#9a32cd" points="101.6822,-65.1976 105.1821,-75.1976 108.6822,-65.1976 101.6822,-65.1976"/>
<text text-anchor="middle" x="116.2979" y="-49" font-family="Helvetica,sans-Serif" font-size="10.00" fill="#000000"> right</text>
<text text-anchor="middle" x="116.2979" y="-39" font-family="Helvetica,sans-Serif" font-size="10.00" fill="#000000">left</text>
</g>
</g>
</svg>
