<?xml version="1.0" encoding="UTF-8" standalone="no"?>
<!DOCTYPE svg PUBLIC "-//W3C//DTD SVG 1.1//EN"
 "http://www.w3.org/Graphics/SVG/1.1/DTD/svg11.dtd">
<!-- Generated by graphviz version 2.40.1 (20161225.0304)
 -->
<!-- Title: delta::CallExpr Pages: 1 -->
<svg width="903pt" height="220pt"
 viewBox="0.00 0.00 902.95 219.50" xmlns="http://www.w3.org/2000/svg" xmlns:xlink="http://www.w3.org/1999/xlink">
<g id="graph0" class="graph" transform="scale(1 1) rotate(0) translate(4 215.5)">
<title>delta::CallExpr</title>
<polygon fill="#ffffff" stroke="transparent" points="-4,4 -4,-215.5 898.9453,-215.5 898.9453,4 -4,4"/>
<!-- Node2 -->
<g id="node1" class="node">
<title>Node2</title>
<polygon fill="#bfbfbf" stroke="#000000" points="813.916,-106.5 813.916,-124.5 894.9453,-124.5 894.9453,-106.5 813.916,-106.5"/>
<text text-anchor="middle" x="854.4307" y="-112.5" font-family="Helvetica,sans-Serif" font-size="10.00" fill="#000000">delta::CallExpr</text>
</g>
<!-- Node3 -->
<g id="node2" class="node">
<title>Node3</title>
<g id="a_node2"><a xlink:href="classdelta_1_1_expr.html" target="_top" xlink:title="delta::Expr">
<polygon fill="#ffffff" stroke="#000000" points="157.7422,-154.5 157.7422,-172.5 221.5449,-172.5 221.5449,-154.5 157.7422,-154.5"/>
<text text-anchor="middle" x="189.6436" y="-160.5" font-family="Helvetica,sans-Serif" font-size="10.00" fill="#000000">delta::Expr</text>
</a>
</g>
</g>
<!-- Node3&#45;&gt;Node2 -->
<g id="edge1" class="edge">
<title>Node3&#45;&gt;Node2</title>
<path fill="none" stroke="#191970" d="M218.3007,-176.7035C251.8131,-190.9126 309.3134,-211.5 361.1528,-211.5 361.1528,-211.5 361.1528,-211.5 675.563,-211.5 748.5167,-211.5 820.4385,-148.7329 845.2984,-124.7049"/>
<polygon fill="#191970" stroke="#191970" points="219.2694,-173.3081 208.7033,-172.5284 216.477,-179.7271 219.2694,-173.3081"/>
</g>
<!-- Node11 -->
<g id="node10" class="node">
<title>Node11</title>
<polygon fill="#ffffff" stroke="#bfbfbf" points="304.9229,-149.5 304.9229,-177.5 417.3828,-177.5 417.3828,-149.5 304.9229,-149.5"/>
<text text-anchor="start" x="312.9229" y="-165.5" font-family="Helvetica,sans-Serif" font-size="10.00" fill="#000000">std::unique_ptr&lt; delta</text>
<text text-anchor="middle" x="361.1528" y="-155.5" font-family="Helvetica,sans-Serif" font-size="10.00" fill="#000000">::Expr &gt;</text>
</g>
<!-- Node3&#45;&gt;Node11 -->
<g id="edge11" class="edge">
<title>Node3&#45;&gt;Node11</title>
<path fill="none" stroke="#9a32cd" stroke-dasharray="5,2" d="M231.9124,-163.5C253.8705,-163.5 281.0014,-163.5 304.727,-163.5"/>
<polygon fill="#9a32cd" stroke="#9a32cd" points="231.9032,-160.0001 221.9031,-163.5 231.9031,-167.0001 231.9032,-160.0001"/>
<text text-anchor="middle" x="270.8071" y="-165.5" font-family="Helvetica,sans-Serif" font-size="10.00" fill="#000000"> ptr</text>
</g>
<!-- Node4 -->
<g id="node3" class="node">
<title>Node4</title>
<g id="a_node3"><a xlink:href="structdelta_1_1_src_loc.html" target="_top" xlink:title="delta::SrcLoc">
<polygon fill="#ffffff" stroke="#000000" points="0,-122.5 0,-140.5 74.3643,-140.5 74.3643,-122.5 0,-122.5"/>
<text text-anchor="middle" x="37.1821" y="-128.5" font-family="Helvetica,sans-Serif" font-size="10.00" fill="#000000">delta::SrcLoc</text>
</a>
</g>
</g>
<!-- Node4&#45;&gt;Node3 -->
<g id="edge2" class="edge">
<title>Node4&#45;&gt;Node3</title>
<path fill="none" stroke="#9a32cd" stroke-dasharray="5,2" d="M84.3708,-141.4044C108.1648,-146.3985 136.3974,-152.3242 157.6326,-156.7812"/>
<polygon fill="#9a32cd" stroke="#9a32cd" points="84.9841,-137.9569 74.4784,-139.3281 83.5462,-144.8077 84.9841,-137.9569"/>
<text text-anchor="middle" x="108.48" y="-150.5" font-family="Helvetica,sans-Serif" font-size="10.00" fill="#000000"> srcLoc</text>
</g>
<!-- Node8 -->
<g id="node7" class="node">
<title>Node8</title>
<g id="a_node7"><a xlink:href="classdelta_1_1_arg.html" target="_top" xlink:title="delta::Arg">
<polygon fill="#ffffff" stroke="#000000" points="483.1289,-106.5 483.1289,-124.5 541.9316,-124.5 541.9316,-106.5 483.1289,-106.5"/>
<text text-anchor="middle" x="512.5303" y="-112.5" font-family="Helvetica,sans-Serif" font-size="10.00" fill="#000000">delta::Arg</text>
</a>
</g>
</g>
<!-- Node4&#45;&gt;Node8 -->
<g id="edge7" class="edge">
<title>Node4&#45;&gt;Node8</title>
<path fill="none" stroke="#9a32cd" stroke-dasharray="5,2" d="M84.6467,-129.9024C182.2389,-126.6175 402.9551,-119.1882 482.9074,-116.4971"/>
<polygon fill="#9a32cd" stroke="#9a32cd" points="84.3585,-126.41 74.4819,-130.2445 84.594,-133.406 84.3585,-126.41"/>
<text text-anchor="middle" x="270.8071" y="-125.5" font-family="Helvetica,sans-Serif" font-size="10.00" fill="#000000"> srcLoc</text>
</g>
<!-- Node5 -->
<g id="node4" class="node">
<title>Node5</title>
<polygon fill="#ffffff" stroke="#bfbfbf" points="629.3477,-.5 629.3477,-28.5 721.7783,-28.5 721.7783,-.5 629.3477,-.5"/>
<text text-anchor="start" x="637.3477" y="-16.5" font-family="Helvetica,sans-Serif" font-size="10.00" fill="#000000">std::vector&lt; delta</text>
<text text-anchor="middle" x="675.563" y="-6.5" font-family="Helvetica,sans-Serif" font-size="10.00" fill="#000000">::Type &gt;</text>
</g>
<!-- Node5&#45;&gt;Node2 -->
<g id="edge3" class="edge">
<title>Node5&#45;&gt;Node2</title>
<path fill="none" stroke="#9a32cd" stroke-dasharray="5,2" d="M732.1618,-14.3506C753.4537,-16.5393 777.0528,-21.8362 795.916,-33.5 824.625,-51.2517 843.3044,-88.8439 850.7596,-106.2712"/>
<polygon fill="#9a32cd" stroke="#9a32cd" points="732.1781,-10.8403 721.9256,-13.5115 731.6062,-17.8169 732.1781,-10.8403"/>
<text text-anchor="middle" x="767.8472" y="-35.5" font-family="Helvetica,sans-Serif" font-size="10.00" fill="#000000"> genericArgs</text>
</g>
<!-- Node6 -->
<g id="node5" class="node">
<title>Node6</title>
<g id="a_node5"><a xlink:href="structdelta_1_1_type.html" target="_top" xlink:title="delta::Type">
<polygon fill="#ffffff" stroke="#000000" points="480.0674,-5.5 480.0674,-23.5 544.9932,-23.5 544.9932,-5.5 480.0674,-5.5"/>
<text text-anchor="middle" x="512.5303" y="-11.5" font-family="Helvetica,sans-Serif" font-size="10.00" fill="#000000">delta::Type</text>
</a>
</g>
</g>
<!-- Node6&#45;&gt;Node5 -->
<g id="edge4" class="edge">
<title>Node6&#45;&gt;Node5</title>
<path fill="none" stroke="#9a32cd" stroke-dasharray="5,2" d="M555.1617,-14.5C577.8782,-14.5 605.8561,-14.5 629.123,-14.5"/>
<polygon fill="#9a32cd" stroke="#9a32cd" points="555.1306,-11.0001 545.1305,-14.5 555.1305,-18.0001 555.1306,-11.0001"/>
<text text-anchor="middle" x="587.1704" y="-16.5" font-family="Helvetica,sans-Serif" font-size="10.00" fill="#000000"> elements</text>
</g>
<!-- Node7 -->
<g id="node6" class="node">
<title>Node7</title>
<polygon fill="#ffffff" stroke="#bfbfbf" points="629.3477,-101.5 629.3477,-129.5 721.7783,-129.5 721.7783,-101.5 629.3477,-101.5"/>
<text text-anchor="start" x="637.3477" y="-117.5" font-family="Helvetica,sans-Serif" font-size="10.00" fill="#000000">std::vector&lt; delta</text>
<text text-anchor="middle" x="675.563" y="-107.5" font-family="Helvetica,sans-Serif" font-size="10.00" fill="#000000">::Arg &gt;</text>
</g>
<!-- Node7&#45;&gt;Node2 -->
<g id="edge5" class="edge">
<title>Node7&#45;&gt;Node2</title>
<path fill="none" stroke="#9a32cd" stroke-dasharray="5,2" d="M732.3856,-115.5C758.8893,-115.5 789.8204,-115.5 813.9118,-115.5"/>
<polygon fill="#9a32cd" stroke="#9a32cd" points="732.0915,-112.0001 722.0914,-115.5 732.0914,-119.0001 732.0915,-112.0001"/>
<text text-anchor="middle" x="767.8472" y="-117.5" font-family="Helvetica,sans-Serif" font-size="10.00" fill="#000000"> args</text>
</g>
<!-- Node8&#45;&gt;Node7 -->
<g id="edge6" class="edge">
<title>Node8&#45;&gt;Node7</title>
<path fill="none" stroke="#9a32cd" stroke-dasharray="5,2" d="M552.2626,-115.5C575.5225,-115.5 605.0032,-115.5 629.3051,-115.5"/>
<polygon fill="#9a32cd" stroke="#9a32cd" points="552.0543,-112.0001 542.0543,-115.5 552.0542,-119.0001 552.0543,-112.0001"/>
<text text-anchor="middle" x="587.1704" y="-117.5" font-family="Helvetica,sans-Serif" font-size="10.00" fill="#000000"> elements</text>
</g>
<!-- Node9 -->
<g id="node8" class="node">
<title>Node9</title>
<g id="a_node8"><a xlink:title="STL class. ">
<polygon fill="#ffffff" stroke="#bfbfbf" points="331.478,-55.5 331.478,-73.5 390.8276,-73.5 390.8276,-55.5 331.478,-55.5"/>
<text text-anchor="middle" x="361.1528" y="-61.5" font-family="Helvetica,sans-Serif" font-size="10.00" fill="#000000">std::string</text>
</a>
</g>
</g>
<!-- Node9&#45;&gt;Node2 -->
<g id="edge12" class="edge">
<title>Node9&#45;&gt;Node2</title>
<path fill="none" stroke="#9a32cd" stroke-dasharray="5,2" d="M401.2504,-66.3775C467.9559,-69.7775 605.8519,-77.9823 721.7783,-92.5 752.7401,-96.3774 787.484,-102.4655 813.6454,-107.4043"/>
<polygon fill="#9a32cd" stroke="#9a32cd" points="401.3327,-62.8773 391.1701,-65.8729 400.9826,-69.8686 401.3327,-62.8773"/>
<text text-anchor="middle" x="587.1704" y="-82.5" font-family="Helvetica,sans-Serif" font-size="10.00" fill="#000000"> funcName</text>
</g>
<!-- Node9&#45;&gt;Node8 -->
<g id="edge8" class="edge">
<title>Node9&#45;&gt;Node8</title>
<path fill="none" stroke="#9a32cd" stroke-dasharray="5,2" d="M400.9085,-73.3575C419.7033,-77.9944 442.3024,-84.2251 462.0674,-91.5 473.5386,-95.7222 485.9424,-101.6022 495.5819,-106.4852"/>
<polygon fill="#9a32cd" stroke="#9a32cd" points="401.7236,-69.9538 391.1821,-71.0151 400.0846,-76.7592 401.7236,-69.9538"/>
<text text-anchor="middle" x="448.7251" y="-93.5" font-family="Helvetica,sans-Serif" font-size="10.00" fill="#000000"> label</text>
</g>
<!-- Node10 -->
<g id="node9" class="node">
<title>Node10</title>
<g id="a_node9"><a xlink:title="STL class. ">
<polygon fill="#ffffff" stroke="#bfbfbf" points="142.5957,-50.5 142.5957,-78.5 236.6914,-78.5 236.6914,-50.5 142.5957,-50.5"/>
<text text-anchor="start" x="150.5957" y="-66.5" font-family="Helvetica,sans-Serif" font-size="10.00" fill="#000000">std::basic_string&lt;</text>
<text text-anchor="middle" x="189.6436" y="-56.5" font-family="Helvetica,sans-Serif" font-size="10.00" fill="#000000"> char &gt;</text>
</a>
</g>
</g>
<!-- Node10&#45;&gt;Node9 -->
<g id="edge9" class="edge">
<title>Node10&#45;&gt;Node9</title>
<path fill="none" stroke="#191970" d="M247.114,-64.5C275.3013,-64.5 308.0798,-64.5 331.2414,-64.5"/>
<polygon fill="#191970" stroke="#191970" points="246.9633,-61.0001 236.9632,-64.5 246.9632,-68.0001 246.9633,-61.0001"/>
</g>
<!-- Node11&#45;&gt;Node2 -->
<g id="edge13" class="edge">
<title>Node11&#45;&gt;Node2</title>
<path fill="none" stroke="#9a32cd" stroke-dasharray="5,2" d="M427.8142,-160.4157C500.2767,-156.7477 619.4289,-149.7965 721.7783,-139.5 754.8598,-136.172 763.2316,-135.5982 795.916,-129.5 803.5146,-128.0823 811.6095,-126.3144 819.279,-124.5172"/>
<polygon fill="#9a32cd" stroke="#9a32cd" points="427.282,-156.9379 417.4694,-160.9331 427.6318,-163.9291 427.282,-156.9379"/>
<text text-anchor="middle" x="587.1704" y="-153.5" font-family="Helvetica,sans-Serif" font-size="10.00" fill="#000000"> receiver</text>
</g>
<!-- Node11&#45;&gt;Node8 -->
<g id="edge10" class="edge">
<title>Node11&#45;&gt;Node8</title>
<path fill="none" stroke="#9a32cd" stroke-dasharray="5,2" d="M415.0743,-146.4021C438.2698,-139.0471 464.4462,-130.7469 483.8251,-124.6021"/>
<polygon fill="#9a32cd" stroke="#9a32cd" points="413.8187,-143.1284 405.3444,-149.4874 415.9346,-149.801 413.8187,-143.1284"/>
<text text-anchor="middle" x="448.7251" y="-141.5" font-family="Helvetica,sans-Serif" font-size="10.00" fill="#000000"> value</text>
</g>
</g>
</svg>
