<?xml version="1.0" encoding="UTF-8" standalone="no"?>
<!DOCTYPE svg PUBLIC "-//W3C//DTD SVG 1.1//EN"
 "http://www.w3.org/Graphics/SVG/1.1/DTD/svg11.dtd">
<!-- Generated by graphviz version 2.40.1 (20161225.0304)
 -->
<!-- Title: delta::AugAssignStmt Pages: 1 -->
<svg width="369pt" height="242pt"
 viewBox="0.00 0.00 369.13 242.00" xmlns="http://www.w3.org/2000/svg" xmlns:xlink="http://www.w3.org/1999/xlink">
<g id="graph0" class="graph" transform="scale(1 1) rotate(0) translate(4 238)">
<title>delta::AugAssignStmt</title>
<polygon fill="#ffffff" stroke="transparent" points="-4,4 -4,-238 365.1289,-238 365.1289,4 -4,4"/>
<!-- Node2 -->
<g id="node1" class="node">
<title>Node2</title>
<polygon fill="#bfbfbf" stroke="#000000" points="123.0962,-.5 123.0962,-18.5 234.7017,-18.5 234.7017,-.5 123.0962,-.5"/>
<text text-anchor="middle" x="178.8989" y="-6.5" font-family="Helvetica,sans-Serif" font-size="10.00" fill="#000000">delta::AugAssignStmt</text>
</g>
<!-- Node3 -->
<g id="node2" class="node">
<title>Node3</title>
<g id="a_node2"><a xlink:href="classdelta_1_1_stmt.html" target="_top" xlink:title="delta::Stmt">
<polygon fill="#ffffff" stroke="#000000" points="0,-80.5 0,-98.5 63.7979,-98.5 63.7979,-80.5 0,-80.5"/>
<text text-anchor="middle" x="31.8989" y="-86.5" font-family="Helvetica,sans-Serif" font-size="10.00" fill="#000000">delta::Stmt</text>
</a>
</g>
</g>
<!-- Node3&#45;&gt;Node2 -->
<g id="edge1" class="edge">
<title>Node3&#45;&gt;Node2</title>
<path fill="none" stroke="#191970" d="M57.5195,-75.5568C87.5873,-59.1934 136.5805,-32.5305 162.1569,-18.6113"/>
<polygon fill="#191970" stroke="#191970" points="55.5864,-72.6241 48.4759,-80.4785 58.9325,-78.7725 55.5864,-72.6241"/>
</g>
<!-- Node4 -->
<g id="node3" class="node">
<title>Node4</title>
<g id="a_node3"><a xlink:href="structdelta_1_1_binary_operator.html" target="_top" xlink:title="delta::BinaryOperator">
<polygon fill="#ffffff" stroke="#000000" points="81.3745,-80.5 81.3745,-98.5 192.4233,-98.5 192.4233,-80.5 81.3745,-80.5"/>
<text text-anchor="middle" x="136.8989" y="-86.5" font-family="Helvetica,sans-Serif" font-size="10.00" fill="#000000">delta::BinaryOperator</text>
</a>
</g>
</g>
<!-- Node4&#45;&gt;Node2 -->
<g id="edge2" class="edge">
<title>Node4&#45;&gt;Node2</title>
<path fill="none" stroke="#9a32cd" stroke-dasharray="5,2" d="M146.5339,-71.1478C155.1642,-54.7091 167.4594,-31.2896 174.1372,-18.57"/>
<polygon fill="#9a32cd" stroke="#9a32cd" points="143.2664,-69.8421 141.7169,-80.323 149.4641,-73.0959 143.2664,-69.8421"/>
<text text-anchor="middle" x="171.8496" y="-44" font-family="Helvetica,sans-Serif" font-size="10.00" fill="#000000"> op</text>
</g>
<!-- Node5 -->
<g id="node4" class="node">
<title>Node5</title>
<g id="a_node4"><a xlink:href="structdelta_1_1_src_loc.html" target="_top" xlink:title="delta::SrcLoc">
<polygon fill="#ffffff" stroke="#000000" points="199.7168,-215.5 199.7168,-233.5 274.0811,-233.5 274.0811,-215.5 199.7168,-215.5"/>
<text text-anchor="middle" x="236.8989" y="-221.5" font-family="Helvetica,sans-Serif" font-size="10.00" fill="#000000">delta::SrcLoc</text>
</a>
</g>
</g>
<!-- Node5&#45;&gt;Node2 -->
<g id="edge3" class="edge">
<title>Node5&#45;&gt;Node2</title>
<path fill="none" stroke="#9a32cd" stroke-dasharray="5,2" d="M233.1237,-205.4389C227.3089,-176.8591 215.4086,-121.3121 201.8989,-75 195.9588,-54.6368 187.3152,-31.314 182.4931,-18.7259"/>
<polygon fill="#9a32cd" stroke="#9a32cd" points="229.7057,-206.1955 235.1072,-215.31 236.5685,-204.8165 229.7057,-206.1955"/>
<text text-anchor="middle" x="233.0146" y="-124" font-family="Helvetica,sans-Serif" font-size="10.00" fill="#000000"> srcLoc</text>
</g>
<!-- Node7 -->
<g id="node6" class="node">
<title>Node7</title>
<g id="a_node6"><a xlink:href="classdelta_1_1_expr.html" target="_top" xlink:title="delta::Expr">
<polygon fill="#ffffff" stroke="#000000" points="260.9976,-150.5 260.9976,-168.5 324.8003,-168.5 324.8003,-150.5 260.9976,-150.5"/>
<text text-anchor="middle" x="292.8989" y="-156.5" font-family="Helvetica,sans-Serif" font-size="10.00" fill="#000000">delta::Expr</text>
</a>
</g>
</g>
<!-- Node5&#45;&gt;Node7 -->
<g id="edge6" class="edge">
<title>Node5&#45;&gt;Node7</title>
<path fill="none" stroke="#9a32cd" stroke-dasharray="5,2" d="M251.3977,-207.6711C262.0378,-195.321 276.0975,-179.0016 284.8159,-168.8821"/>
<polygon fill="#9a32cd" stroke="#9a32cd" points="248.561,-205.6014 244.6855,-215.462 253.8642,-210.1704 248.561,-205.6014"/>
<text text-anchor="middle" x="285.0146" y="-189" font-family="Helvetica,sans-Serif" font-size="10.00" fill="#000000"> srcLoc</text>
</g>
<!-- Node6 -->
<g id="node5" class="node">
<title>Node6</title>
<polygon fill="#ffffff" stroke="#bfbfbf" points="248.6689,-75.5 248.6689,-103.5 361.1289,-103.5 361.1289,-75.5 248.6689,-75.5"/>
<text text-anchor="start" x="256.6689" y="-91.5" font-family="Helvetica,sans-Serif" font-size="10.00" fill="#000000">std::unique_ptr&lt; delta</text>
<text text-anchor="middle" x="304.8989" y="-81.5" font-family="Helvetica,sans-Serif" font-size="10.00" fill="#000000">::Expr &gt;</text>
</g>
<!-- Node6&#45;&gt;Node2 -->
<g id="edge4" class="edge">
<title>Node6&#45;&gt;Node2</title>
<path fill="none" stroke="#9a32cd" stroke-dasharray="5,2" d="M279.9701,-69.0087C266.9517,-58.7777 250.5157,-46.5745 234.8989,-37 223.6335,-30.0933 210.3872,-23.5239 199.6065,-18.539"/>
<polygon fill="#9a32cd" stroke="#9a32cd" points="277.9871,-71.9039 287.9886,-75.3997 282.3501,-66.4299 277.9871,-71.9039"/>
<text text-anchor="middle" x="270.6797" y="-49" font-family="Helvetica,sans-Serif" font-size="10.00" fill="#000000"> lhs</text>
<text text-anchor="middle" x="270.6797" y="-39" font-family="Helvetica,sans-Serif" font-size="10.00" fill="#000000">rhs</text>
</g>
<!-- Node7&#45;&gt;Node6 -->
<g id="edge5" class="edge">
<title>Node7&#45;&gt;Node6</title>
<path fill="none" stroke="#9a32cd" stroke-dasharray="5,2" d="M296.1761,-140.383C298.1591,-128.8156 300.6457,-114.3105 302.4561,-103.7499"/>
<polygon fill="#9a32cd" stroke="#9a32cd" points="292.7078,-139.9011 294.4677,-150.3487 299.6071,-141.0839 292.7078,-139.9011"/>
<text text-anchor="middle" x="306.123" y="-124" font-family="Helvetica,sans-Serif" font-size="10.00" fill="#000000"> ptr</text>
</g>
</g>
</svg>
