<?xml version="1.0" encoding="UTF-8" standalone="no"?>
<!DOCTYPE svg PUBLIC "-//W3C//DTD SVG 1.1//EN"
 "http://www.w3.org/Graphics/SVG/1.1/DTD/svg11.dtd">
<!-- Generated by graphviz version 2.40.1 (20161225.0304)
 -->
<!-- Title: delta::BreakStmt Pages: 1 -->
<svg width="164pt" height="92pt"
 viewBox="0.00 0.00 164.08 92.00" xmlns="http://www.w3.org/2000/svg" xmlns:xlink="http://www.w3.org/1999/xlink">
<g id="graph0" class="graph" transform="scale(1 1) rotate(0) translate(4 88)">
<title>delta::BreakStmt</title>
<polygon fill="#ffffff" stroke="transparent" points="-4,4 -4,-88 160.0811,-88 160.0811,4 -4,4"/>
<!-- Node2 -->
<g id="node1" class="node">
<title>Node2</title>
<polygon fill="#bfbfbf" stroke="#000000" points="29.9385,-.5 29.9385,-18.5 119.8594,-18.5 119.8594,-.5 29.9385,-.5"/>
<text text-anchor="middle" x="74.8989" y="-6.5" font-family="Helvetica,sans-Serif" font-size="10.00" fill="#000000">delta::BreakStmt</text>
</g>
<!-- Node3 -->
<g id="node2" class="node">
<title>Node3</title>
<g id="a_node2"><a xlink:href="classdelta_1_1_stmt.html" target="_top" xlink:title="delta::Stmt">
<polygon fill="#ffffff" stroke="#000000" points="0,-65.5 0,-83.5 63.7979,-83.5 63.7979,-65.5 0,-65.5"/>
<text text-anchor="middle" x="31.8989" y="-71.5" font-family="Helvetica,sans-Serif" font-size="10.00" fill="#000000">delta::Stmt</text>
</a>
</g>
</g>
<!-- Node3&#45;&gt;Node2 -->
<g id="edge1" class="edge">
<title>Node3&#45;&gt;Node2</title>
<path fill="none" stroke="#191970" d="M43.5061,-56.9542C51.6157,-44.6956 62.1266,-28.807 68.6923,-18.8821"/>
<polygon fill="#191970" stroke="#191970" points="40.4762,-55.1907 37.8779,-65.462 46.3144,-59.0529 40.4762,-55.1907"/>
</g>
<!-- Node4 -->
<g id="node3" class="node">
<title>Node4</title>
<g id="a_node3"><a xlink:href="structdelta_1_1_src_loc.html" target="_top" xlink:title="delta::SrcLoc">
<polygon fill="#ffffff" stroke="#000000" points="81.7168,-65.5 81.7168,-83.5 156.0811,-83.5 156.0811,-65.5 81.7168,-65.5"/>
<text text-anchor="middle" x="118.8989" y="-71.5" font-family="Helvetica,sans-Serif" font-size="10.00" fill="#000000">delta::SrcLoc</text>
</a>
</g>
</g>
<!-- Node4&#45;&gt;Node2 -->
<g id="edge2" class="edge">
<title>Node4&#45;&gt;Node2</title>
<path fill="none" stroke="#9a32cd" stroke-dasharray="5,2" d="M107.0218,-56.9542C98.7236,-44.6956 87.9683,-28.807 81.2499,-18.8821"/>
<polygon fill="#9a32cd" stroke="#9a32cd" points="104.2768,-59.1429 112.7809,-65.462 110.0736,-55.2189 104.2768,-59.1429"/>
<text text-anchor="middle" x="115.0146" y="-39" font-family="Helvetica,sans-Serif" font-size="10.00" fill="#000000"> srcLoc</text>
</g>
</g>
</svg>
