<?xml version="1.0" encoding="UTF-8" standalone="no"?>
<!DOCTYPE svg PUBLIC "-//W3C//DTD SVG 1.1//EN"
 "http://www.w3.org/Graphics/SVG/1.1/DTD/svg11.dtd">
<!-- Generated by graphviz version 2.40.1 (20161225.0304)
 -->
<!-- Title: delta::ArrayType Pages: 1 -->
<svg width="185pt" height="92pt"
 viewBox="0.00 0.00 184.90 92.00" xmlns="http://www.w3.org/2000/svg" xmlns:xlink="http://www.w3.org/1999/xlink">
<g id="graph0" class="graph" transform="scale(1 1) rotate(0) translate(4 88)">
<title>delta::ArrayType</title>
<polygon fill="#ffffff" stroke="transparent" points="-4,4 -4,-88 180.8984,-88 180.8984,4 -4,4"/>
<!-- Node2 -->
<g id="node1" class="node">
<title>Node2</title>
<polygon fill="#bfbfbf" stroke="#000000" points="46.4507,-.5 46.4507,-18.5 135.2681,-18.5 135.2681,-.5 46.4507,-.5"/>
<text text-anchor="middle" x="90.8594" y="-6.5" font-family="Helvetica,sans-Serif" font-size="10.00" fill="#000000">delta::ArrayType</text>
</g>
<!-- Node3 -->
<g id="node2" class="node">
<title>Node3</title>
<g id="a_node2"><a xlink:href="classdelta_1_1_type_base.html" target="_top" xlink:title="delta::TypeBase">
<polygon fill="#ffffff" stroke="#000000" points="0,-65.5 0,-83.5 87.7188,-83.5 87.7188,-65.5 0,-65.5"/>
<text text-anchor="middle" x="43.8594" y="-71.5" font-family="Helvetica,sans-Serif" font-size="10.00" fill="#000000">delta::TypeBase</text>
</a>
</g>
</g>
<!-- Node3&#45;&gt;Node2 -->
<g id="edge1" class="edge">
<title>Node3&#45;&gt;Node2</title>
<path fill="none" stroke="#191970" d="M56.2864,-57.3137C65.1846,-45.0077 76.8285,-28.9043 84.0754,-18.8821"/>
<polygon fill="#191970" stroke="#191970" points="53.4178,-55.3077 50.3945,-65.462 59.0903,-59.4093 53.4178,-55.3077"/>
</g>
<!-- Node4 -->
<g id="node3" class="node">
<title>Node4</title>
<g id="a_node3"><a xlink:href="structdelta_1_1_type.html" target="_top" xlink:title="delta::Type">
<polygon fill="#ffffff" stroke="#000000" points="105.3965,-65.5 105.3965,-83.5 170.3223,-83.5 170.3223,-65.5 105.3965,-65.5"/>
<text text-anchor="middle" x="137.8594" y="-71.5" font-family="Helvetica,sans-Serif" font-size="10.00" fill="#000000">delta::Type</text>
</a>
</g>
</g>
<!-- Node4&#45;&gt;Node2 -->
<g id="edge2" class="edge">
<title>Node4&#45;&gt;Node2</title>
<path fill="none" stroke="#9a32cd" stroke-dasharray="5,2" d="M125.4324,-57.3137C116.5342,-45.0077 104.8902,-28.9043 97.6434,-18.8821"/>
<polygon fill="#9a32cd" stroke="#9a32cd" points="122.6285,-59.4093 131.3242,-65.462 128.301,-55.3077 122.6285,-59.4093"/>
<text text-anchor="middle" x="146.8789" y="-39" font-family="Helvetica,sans-Serif" font-size="10.00" fill="#000000"> elementType</text>
</g>
</g>
</svg>
