<?xml version="1.0" encoding="UTF-8" standalone="no"?>
<!DOCTYPE svg PUBLIC "-//W3C//DTD SVG 1.1//EN"
 "http://www.w3.org/Graphics/SVG/1.1/DTD/svg11.dtd">
<!-- Generated by graphviz version 2.40.1 (20161225.0304)
 -->
<!-- Title: delta::TypeDecl Pages: 1 -->
<svg width="326pt" height="298pt"
 viewBox="0.00 0.00 325.81 298.00" xmlns="http://www.w3.org/2000/svg" xmlns:xlink="http://www.w3.org/1999/xlink">
<g id="graph0" class="graph" transform="scale(1 1) rotate(0) translate(4 294)">
<title>delta::TypeDecl</title>
<polygon fill="#ffffff" stroke="transparent" points="-4,4 -4,-294 321.8052,-294 321.8052,4 -4,4"/>
<!-- Node2 -->
<g id="node1" class="node">
<title>Node2</title>
<polygon fill="#bfbfbf" stroke="#000000" points="137.1577,-.5 137.1577,-18.5 222.0884,-18.5 222.0884,-.5 137.1577,-.5"/>
<text text-anchor="middle" x="179.623" y="-6.5" font-family="Helvetica,sans-Serif" font-size="10.00" fill="#000000">delta::TypeDecl</text>
</g>
<!-- Node3 -->
<g id="node2" class="node">
<title>Node3</title>
<g id="a_node2"><a xlink:href="classdelta_1_1_decl.html" target="_top" xlink:title="delta::Decl">
<polygon fill="#ffffff" stroke="#000000" points="0,-205.5 0,-223.5 63.2461,-223.5 63.2461,-205.5 0,-205.5"/>
<text text-anchor="middle" x="31.623" y="-211.5" font-family="Helvetica,sans-Serif" font-size="10.00" fill="#000000">delta::Decl</text>
</a>
</g>
</g>
<!-- Node3&#45;&gt;Node2 -->
<g id="edge1" class="edge">
<title>Node3&#45;&gt;Node2</title>
<path fill="none" stroke="#191970" d="M31.9591,-195.0263C33.4665,-164.1637 40.5111,-103.5705 71.623,-65 90.6819,-41.3721 122.4714,-26.7651 146.6392,-18.5064"/>
<polygon fill="#191970" stroke="#191970" points="28.4521,-195.179 31.6139,-205.291 35.4482,-195.4144 28.4521,-195.179"/>
</g>
<!-- Node5 -->
<g id="node4" class="node">
<title>Node5</title>
<g id="a_node4"><a xlink:href="classdelta_1_1_field_decl.html" target="_top" xlink:title="delta::FieldDecl">
<polygon fill="#ffffff" stroke="#000000" points="84.1626,-140.5 84.1626,-158.5 169.0835,-158.5 169.0835,-140.5 84.1626,-140.5"/>
<text text-anchor="middle" x="126.623" y="-146.5" font-family="Helvetica,sans-Serif" font-size="10.00" fill="#000000">delta::FieldDecl</text>
</a>
</g>
</g>
<!-- Node3&#45;&gt;Node5 -->
<g id="edge4" class="edge">
<title>Node3&#45;&gt;Node5</title>
<path fill="none" stroke="#191970" d="M53.207,-199.732C71.6563,-187.1088 97.623,-169.3421 113.2196,-158.6708"/>
<polygon fill="#191970" stroke="#191970" points="51.1091,-196.9266 44.8324,-205.462 55.0619,-202.7037 51.1091,-196.9266"/>
</g>
<!-- Node4 -->
<g id="node3" class="node">
<title>Node4</title>
<polygon fill="#ffffff" stroke="#bfbfbf" points="80.4077,-65.5 80.4077,-93.5 172.8384,-93.5 172.8384,-65.5 80.4077,-65.5"/>
<text text-anchor="start" x="88.4077" y="-81.5" font-family="Helvetica,sans-Serif" font-size="10.00" fill="#000000">std::vector&lt; delta</text>
<text text-anchor="middle" x="126.623" y="-71.5" font-family="Helvetica,sans-Serif" font-size="10.00" fill="#000000">::FieldDecl &gt;</text>
</g>
<!-- Node4&#45;&gt;Node2 -->
<g id="edge2" class="edge">
<title>Node4&#45;&gt;Node2</title>
<path fill="none" stroke="#9a32cd" stroke-dasharray="5,2" d="M143.459,-57.2639C153.316,-44.2451 165.2402,-28.4963 172.6295,-18.7368"/>
<polygon fill="#9a32cd" stroke="#9a32cd" points="140.5944,-55.2491 137.3484,-65.3345 146.1752,-59.4746 140.5944,-55.2491"/>
<text text-anchor="middle" x="170.6846" y="-39" font-family="Helvetica,sans-Serif" font-size="10.00" fill="#000000"> fields</text>
</g>
<!-- Node5&#45;&gt;Node4 -->
<g id="edge3" class="edge">
<title>Node5&#45;&gt;Node4</title>
<path fill="none" stroke="#9a32cd" stroke-dasharray="5,2" d="M126.623,-130.0243C126.623,-118.5169 126.623,-104.2016 126.623,-93.7499"/>
<polygon fill="#9a32cd" stroke="#9a32cd" points="123.1231,-130.3487 126.623,-140.3487 130.1231,-130.3488 123.1231,-130.3487"/>
<text text-anchor="middle" x="148.3003" y="-114" font-family="Helvetica,sans-Serif" font-size="10.00" fill="#000000"> elements</text>
</g>
<!-- Node6 -->
<g id="node5" class="node">
<title>Node6</title>
<g id="a_node5"><a xlink:href="structdelta_1_1_type.html" target="_top" xlink:title="delta::Type">
<polygon fill="#ffffff" stroke="#000000" points="81.1602,-205.5 81.1602,-223.5 146.0859,-223.5 146.0859,-205.5 81.1602,-205.5"/>
<text text-anchor="middle" x="113.623" y="-211.5" font-family="Helvetica,sans-Serif" font-size="10.00" fill="#000000">delta::Type</text>
</a>
</g>
</g>
<!-- Node6&#45;&gt;Node5 -->
<g id="edge5" class="edge">
<title>Node6&#45;&gt;Node5</title>
<path fill="none" stroke="#9a32cd" stroke-dasharray="5,2" d="M112.2374,-195.1303C112.2304,-189.2484 112.643,-182.8073 113.9434,-177 115.3908,-170.5358 118.4851,-163.773 121.2544,-158.5714"/>
<polygon fill="#9a32cd" stroke="#9a32cd" points="108.7525,-195.5841 112.6447,-205.4381 115.747,-195.3076 108.7525,-195.5841"/>
<text text-anchor="middle" x="124.4629" y="-179" font-family="Helvetica,sans-Serif" font-size="10.00" fill="#000000"> type</text>
</g>
<!-- Node7 -->
<g id="node6" class="node">
<title>Node7</title>
<g id="a_node6"><a xlink:href="structdelta_1_1_src_loc.html" target="_top" xlink:title="delta::SrcLoc">
<polygon fill="#ffffff" stroke="#000000" points="243.4409,-205.5 243.4409,-223.5 317.8052,-223.5 317.8052,-205.5 243.4409,-205.5"/>
<text text-anchor="middle" x="280.623" y="-211.5" font-family="Helvetica,sans-Serif" font-size="10.00" fill="#000000">delta::SrcLoc</text>
</a>
</g>
</g>
<!-- Node7&#45;&gt;Node2 -->
<g id="edge9" class="edge">
<title>Node7&#45;&gt;Node2</title>
<path fill="none" stroke="#9a32cd" stroke-dasharray="5,2" d="M273.712,-195.4908C261.26,-162.2219 233.2912,-91.7709 200.623,-37 196.7458,-30.4994 191.598,-23.736 187.3696,-18.5433"/>
<polygon fill="#9a32cd" stroke="#9a32cd" points="270.5764,-197.1034 277.3243,-205.2714 277.1429,-194.6782 270.5764,-197.1034"/>
<text text-anchor="middle" x="258.7388" y="-114" font-family="Helvetica,sans-Serif" font-size="10.00" fill="#000000"> srcLoc</text>
</g>
<!-- Node7&#45;&gt;Node5 -->
<g id="edge6" class="edge">
<title>Node7&#45;&gt;Node5</title>
<path fill="none" stroke="#9a32cd" stroke-dasharray="5,2" d="M249.6342,-201.4203C219.5884,-188.7386 174.7828,-169.8272 148.3507,-158.6708"/>
<polygon fill="#9a32cd" stroke="#9a32cd" points="248.636,-204.7979 259.21,-205.462 251.3581,-198.3488 248.636,-204.7979"/>
<text text-anchor="middle" x="228.7388" y="-179" font-family="Helvetica,sans-Serif" font-size="10.00" fill="#000000"> srcLoc</text>
</g>
<!-- Node8 -->
<g id="node7" class="node">
<title>Node8</title>
<g id="a_node7"><a xlink:title="STL class. ">
<polygon fill="#ffffff" stroke="#bfbfbf" points="164.9482,-205.5 164.9482,-223.5 224.2979,-223.5 224.2979,-205.5 164.9482,-205.5"/>
<text text-anchor="middle" x="194.623" y="-211.5" font-family="Helvetica,sans-Serif" font-size="10.00" fill="#000000">std::string</text>
</a>
</g>
</g>
<!-- Node8&#45;&gt;Node2 -->
<g id="edge10" class="edge">
<title>Node8&#45;&gt;Node2</title>
<path fill="none" stroke="#9a32cd" stroke-dasharray="5,2" d="M195.0363,-195.1799C195.4506,-162.4393 195.0785,-94.0479 186.623,-37 185.6985,-30.7622 183.9485,-23.8872 182.4296,-18.5716"/>
<polygon fill="#9a32cd" stroke="#9a32cd" points="191.5366,-195.1398 194.8689,-205.1969 198.5356,-195.2568 191.5366,-195.1398"/>
<text text-anchor="middle" x="207.5195" y="-114" font-family="Helvetica,sans-Serif" font-size="10.00" fill="#000000"> name</text>
</g>
<!-- Node8&#45;&gt;Node5 -->
<g id="edge7" class="edge">
<title>Node8&#45;&gt;Node5</title>
<path fill="none" stroke="#9a32cd" stroke-dasharray="5,2" d="M173.4808,-199.4085C168.5114,-195.552 163.3501,-191.2802 158.8301,-187 149.3583,-178.0308 139.78,-166.4923 133.5609,-158.5976"/>
<polygon fill="#9a32cd" stroke="#9a32cd" points="171.4156,-202.2346 181.5156,-205.4347 175.6157,-196.6346 171.4156,-202.2346"/>
<text text-anchor="middle" x="172.5195" y="-179" font-family="Helvetica,sans-Serif" font-size="10.00" fill="#000000"> name</text>
</g>
<!-- Node9 -->
<g id="node8" class="node">
<title>Node9</title>
<g id="a_node8"><a xlink:title="STL class. ">
<polygon fill="#ffffff" stroke="#bfbfbf" points="147.5752,-261.5 147.5752,-289.5 241.6709,-289.5 241.6709,-261.5 147.5752,-261.5"/>
<text text-anchor="start" x="155.5752" y="-277.5" font-family="Helvetica,sans-Serif" font-size="10.00" fill="#000000">std::basic_string&lt;</text>
<text text-anchor="middle" x="194.623" y="-267.5" font-family="Helvetica,sans-Serif" font-size="10.00" fill="#000000"> char &gt;</text>
</a>
</g>
</g>
<!-- Node9&#45;&gt;Node8 -->
<g id="edge8" class="edge">
<title>Node9&#45;&gt;Node8</title>
<path fill="none" stroke="#191970" d="M194.623,-251.1001C194.623,-241.5157 194.623,-231.0935 194.623,-223.831"/>
<polygon fill="#191970" stroke="#191970" points="191.1231,-251.352 194.623,-261.3521 198.1231,-251.3521 191.1231,-251.352"/>
</g>
</g>
</svg>
