<?xml version="1.0" encoding="UTF-8" standalone="no"?>
<!DOCTYPE svg PUBLIC "-//W3C//DTD SVG 1.1//EN"
 "http://www.w3.org/Graphics/SVG/1.1/DTD/svg11.dtd">
<!-- Generated by graphviz version 2.40.1 (20161225.0304)
 -->
<!-- Title: delta::ArrayLiteralExpr Pages: 1 -->
<svg width="197pt" height="307pt"
 viewBox="0.00 0.00 197.30 307.00" xmlns="http://www.w3.org/2000/svg" xmlns:xlink="http://www.w3.org/1999/xlink">
<g id="graph0" class="graph" transform="scale(1 1) rotate(0) translate(4 303)">
<title>delta::ArrayLiteralExpr</title>
<polygon fill="#ffffff" stroke="transparent" points="-4,4 -4,-303 193.3013,-303 193.3013,4 -4,4"/>
<!-- Node2 -->
<g id="node1" class="node">
<title>Node2</title>
<polygon fill="#bfbfbf" stroke="#000000" points="0,-.5 0,-18.5 114.9307,-18.5 114.9307,-.5 0,-.5"/>
<text text-anchor="middle" x="57.4653" y="-6.5" font-family="Helvetica,sans-Serif" font-size="10.00" fill="#000000">delta::ArrayLiteralExpr</text>
</g>
<!-- Node3 -->
<g id="node2" class="node">
<title>Node3</title>
<g id="a_node2"><a xlink:href="classdelta_1_1_expr.html" target="_top" xlink:title="delta::Expr">
<polygon fill="#ffffff" stroke="#000000" points="25.564,-215.5 25.564,-233.5 89.3667,-233.5 89.3667,-215.5 25.564,-215.5"/>
<text text-anchor="middle" x="57.4653" y="-221.5" font-family="Helvetica,sans-Serif" font-size="10.00" fill="#000000">delta::Expr</text>
</a>
</g>
</g>
<!-- Node3&#45;&gt;Node2 -->
<g id="edge1" class="edge">
<title>Node3&#45;&gt;Node2</title>
<path fill="none" stroke="#191970" d="M57.4653,-205.1589C57.4653,-160.5261 57.4653,-51.6561 57.4653,-18.946"/>
<polygon fill="#191970" stroke="#191970" points="53.9654,-205.2617 57.4653,-215.2617 60.9654,-205.2618 53.9654,-205.2617"/>
</g>
<!-- Node6 -->
<g id="node5" class="node">
<title>Node6</title>
<polygon fill="#ffffff" stroke="#bfbfbf" points="71.2354,-140.5 71.2354,-168.5 183.6953,-168.5 183.6953,-140.5 71.2354,-140.5"/>
<text text-anchor="start" x="79.2354" y="-156.5" font-family="Helvetica,sans-Serif" font-size="10.00" fill="#000000">std::unique_ptr&lt; delta</text>
<text text-anchor="middle" x="127.4653" y="-146.5" font-family="Helvetica,sans-Serif" font-size="10.00" fill="#000000">::Expr &gt;</text>
</g>
<!-- Node3&#45;&gt;Node6 -->
<g id="edge5" class="edge">
<title>Node3&#45;&gt;Node6</title>
<path fill="none" stroke="#9a32cd" stroke-dasharray="5,2" d="M73.7841,-208.1813C85.7303,-196.235 101.7839,-180.1814 113.2154,-168.7499"/>
<polygon fill="#9a32cd" stroke="#9a32cd" points="71.2128,-205.8027 66.6166,-215.3487 76.1626,-210.7525 71.2128,-205.8027"/>
<text text-anchor="middle" x="101.6895" y="-189" font-family="Helvetica,sans-Serif" font-size="10.00" fill="#000000"> ptr</text>
</g>
<!-- Node4 -->
<g id="node3" class="node">
<title>Node4</title>
<g id="a_node3"><a xlink:href="structdelta_1_1_src_loc.html" target="_top" xlink:title="delta::SrcLoc">
<polygon fill="#ffffff" stroke="#000000" points="20.2832,-280.5 20.2832,-298.5 94.6475,-298.5 94.6475,-280.5 20.2832,-280.5"/>
<text text-anchor="middle" x="57.4653" y="-286.5" font-family="Helvetica,sans-Serif" font-size="10.00" fill="#000000">delta::SrcLoc</text>
</a>
</g>
</g>
<!-- Node4&#45;&gt;Node3 -->
<g id="edge2" class="edge">
<title>Node4&#45;&gt;Node3</title>
<path fill="none" stroke="#9a32cd" stroke-dasharray="5,2" d="M57.4653,-270.1265C57.4653,-258.1522 57.4653,-243.3205 57.4653,-233.8821"/>
<polygon fill="#9a32cd" stroke="#9a32cd" points="53.9654,-270.462 57.4653,-280.462 60.9654,-270.4621 53.9654,-270.462"/>
<text text-anchor="middle" x="73.5811" y="-254" font-family="Helvetica,sans-Serif" font-size="10.00" fill="#000000"> srcLoc</text>
</g>
<!-- Node5 -->
<g id="node4" class="node">
<title>Node5</title>
<polygon fill="#ffffff" stroke="#bfbfbf" points="69.6294,-65.5 69.6294,-93.5 189.3013,-93.5 189.3013,-65.5 69.6294,-65.5"/>
<text text-anchor="start" x="77.6294" y="-81.5" font-family="Helvetica,sans-Serif" font-size="10.00" fill="#000000">std::vector&lt; std::unique</text>
<text text-anchor="middle" x="129.4653" y="-71.5" font-family="Helvetica,sans-Serif" font-size="10.00" fill="#000000">_ptr&lt; delta::Expr &gt; &gt;</text>
</g>
<!-- Node5&#45;&gt;Node2 -->
<g id="edge3" class="edge">
<title>Node5&#45;&gt;Node2</title>
<path fill="none" stroke="#9a32cd" stroke-dasharray="5,2" d="M107.356,-58.0048C93.8225,-44.8472 77.1956,-28.6822 66.966,-18.7368"/>
<polygon fill="#9a32cd" stroke="#9a32cd" points="105.2853,-60.8731 114.8951,-65.3345 110.1649,-55.8542 105.2853,-60.8731"/>
<text text-anchor="middle" x="117.1426" y="-39" font-family="Helvetica,sans-Serif" font-size="10.00" fill="#000000"> elements</text>
</g>
<!-- Node6&#45;&gt;Node5 -->
<g id="edge4" class="edge">
<title>Node6&#45;&gt;Node5</title>
<path fill="none" stroke="#9a32cd" stroke-dasharray="5,2" d="M128.1176,-130.0415C128.44,-117.9507 128.8175,-103.7938 129.0908,-93.5437"/>
<polygon fill="#9a32cd" stroke="#9a32cd" points="124.6094,-130.3033 127.8415,-140.3931 131.6069,-130.49 124.6094,-130.3033"/>
<text text-anchor="middle" x="150.1426" y="-114" font-family="Helvetica,sans-Serif" font-size="10.00" fill="#000000"> elements</text>
</g>
</g>
</svg>
