<?xml version="1.0" encoding="UTF-8" standalone="no"?>
<!DOCTYPE svg PUBLIC "-//W3C//DTD SVG 1.1//EN"
 "http://www.w3.org/Graphics/SVG/1.1/DTD/svg11.dtd">
<!-- Generated by graphviz version 2.40.1 (20161225.0304)
 -->
<!-- Title: delta::Stmt::getKind Pages: 1 -->
<svg width="274pt" height="504pt"
 viewBox="0.00 0.00 273.87 504.00" xmlns="http://www.w3.org/2000/svg" xmlns:xlink="http://www.w3.org/1999/xlink">
<g id="graph0" class="graph" transform="scale(1 1) rotate(0) translate(4 500)">
<title>delta::Stmt::getKind</title>
<polygon fill="#ffffff" stroke="transparent" points="-4,4 -4,-500 269.8711,-500 269.8711,4 -4,4"/>
<!-- Node2 -->
<g id="node1" class="node">
<title>Node2</title>
<polygon fill="#bfbfbf" stroke="#000000" points="0,-233.5 0,-251.5 103.2705,-251.5 103.2705,-233.5 0,-233.5"/>
<text text-anchor="middle" x="51.6353" y="-239.5" font-family="Helvetica,sans-Serif" font-size="10.00" fill="#000000">delta::Stmt::getKind</text>
</g>
<!-- Node3 -->
<g id="node2" class="node">
<title>Node3</title>
<g id="a_node2"><a xlink:href="classdelta_1_1_return_stmt.html#a4806a57bb58831232e9e5ac243ed47c9" target="_top" xlink:title="delta::ReturnStmt::\lclassof">
<polygon fill="#ffffff" stroke="#000000" points="152.8862,-467.5 152.8862,-495.5 252.2554,-495.5 252.2554,-467.5 152.8862,-467.5"/>
<text text-anchor="start" x="160.8862" y="-483.5" font-family="Helvetica,sans-Serif" font-size="10.00" fill="#000000">delta::ReturnStmt::</text>
<text text-anchor="middle" x="202.5708" y="-473.5" font-family="Helvetica,sans-Serif" font-size="10.00" fill="#000000">classof</text>
</a>
</g>
</g>
<!-- Node2&#45;&gt;Node3 -->
<g id="edge1" class="edge">
<title>Node2&#45;&gt;Node3</title>
<path fill="none" stroke="#191970" d="M54.1318,-261.6858C60.5405,-303.3175 81.3493,-402.6782 139.2705,-458.5 143.2275,-462.3135 147.8651,-465.5021 152.8002,-468.1665"/>
<polygon fill="#191970" stroke="#191970" points="57.5942,-261.1731 52.7147,-251.7688 50.6645,-262.1634 57.5942,-261.1731"/>
</g>
<!-- Node4 -->
<g id="node3" class="node">
<title>Node4</title>
<g id="a_node3"><a xlink:href="classdelta_1_1_variable_stmt.html#a0e761265ea92b4710e1a8b588f9a0383" target="_top" xlink:title="delta::VariableStmt\l::classof">
<polygon fill="#ffffff" stroke="#000000" points="152.6958,-420.5 152.6958,-448.5 252.4458,-448.5 252.4458,-420.5 152.6958,-420.5"/>
<text text-anchor="start" x="160.6958" y="-436.5" font-family="Helvetica,sans-Serif" font-size="10.00" fill="#000000">delta::VariableStmt</text>
<text text-anchor="middle" x="202.5708" y="-426.5" font-family="Helvetica,sans-Serif" font-size="10.00" fill="#000000">::classof</text>
</a>
</g>
</g>
<!-- Node2&#45;&gt;Node4 -->
<g id="edge2" class="edge">
<title>Node2&#45;&gt;Node4</title>
<path fill="none" stroke="#191970" d="M56.4945,-261.4367C66.3185,-296.0476 91.7575,-369.7886 139.2705,-411.5 143.2246,-414.9713 147.7446,-417.9329 152.5092,-420.4567"/>
<polygon fill="#191970" stroke="#191970" points="59.84,-260.4003 53.8454,-251.6645 53.0838,-262.2319 59.84,-260.4003"/>
</g>
<!-- Node5 -->
<g id="node4" class="node">
<title>Node5</title>
<g id="a_node4"><a xlink:href="classdelta_1_1_increment_stmt.html#ac198a7d1172d7012a3ede4282fcfbc53" target="_top" xlink:title="delta::IncrementStmt\l::classof">
<polygon fill="#ffffff" stroke="#000000" points="148.4404,-373.5 148.4404,-401.5 256.7012,-401.5 256.7012,-373.5 148.4404,-373.5"/>
<text text-anchor="start" x="156.4404" y="-389.5" font-family="Helvetica,sans-Serif" font-size="10.00" fill="#000000">delta::IncrementStmt</text>
<text text-anchor="middle" x="202.5708" y="-379.5" font-family="Helvetica,sans-Serif" font-size="10.00" fill="#000000">::classof</text>
</a>
</g>
</g>
<!-- Node2&#45;&gt;Node5 -->
<g id="edge3" class="edge">
<title>Node2&#45;&gt;Node5</title>
<path fill="none" stroke="#191970" d="M60.3054,-260.8382C73.6972,-287.3068 101.8305,-336.1442 139.2705,-364.5 143.8378,-367.9591 148.9758,-370.9367 154.2986,-373.4903"/>
<polygon fill="#191970" stroke="#191970" points="63.3105,-259.0171 55.7643,-251.5804 57.0258,-262.0998 63.3105,-259.0171"/>
</g>
<!-- Node6 -->
<g id="node5" class="node">
<title>Node6</title>
<g id="a_node5"><a xlink:href="classdelta_1_1_decrement_stmt.html#aea275a6b2d760b07117d4354d8045262" target="_top" xlink:title="delta::DecrementStmt\l::classof">
<polygon fill="#ffffff" stroke="#000000" points="146.2188,-326.5 146.2188,-354.5 258.9229,-354.5 258.9229,-326.5 146.2188,-326.5"/>
<text text-anchor="start" x="154.2188" y="-342.5" font-family="Helvetica,sans-Serif" font-size="10.00" fill="#000000">delta::DecrementStmt</text>
<text text-anchor="middle" x="202.5708" y="-332.5" font-family="Helvetica,sans-Serif" font-size="10.00" fill="#000000">::classof</text>
</a>
</g>
</g>
<!-- Node2&#45;&gt;Node6 -->
<g id="edge4" class="edge">
<title>Node2&#45;&gt;Node6</title>
<path fill="none" stroke="#191970" d="M67.2054,-258.9322C83.7488,-275.5982 111.3259,-301.1947 139.2705,-317.5 144.926,-320.7999 151.1363,-323.7567 157.3879,-326.3626"/>
<polygon fill="#191970" stroke="#191970" points="69.5005,-256.2721 60.0172,-251.5479 64.4846,-261.1548 69.5005,-256.2721"/>
</g>
<!-- Node7 -->
<g id="node6" class="node">
<title>Node7</title>
<g id="a_node6"><a xlink:href="classdelta_1_1_expr_stmt.html#a03309126883dbbb0ce3c82bb9d20bced" target="_top" xlink:title="delta::ExprStmt::classof">
<polygon fill="#ffffff" stroke="#000000" points="142.0513,-289.5 142.0513,-307.5 263.0903,-307.5 263.0903,-289.5 142.0513,-289.5"/>
<text text-anchor="middle" x="202.5708" y="-295.5" font-family="Helvetica,sans-Serif" font-size="10.00" fill="#000000">delta::ExprStmt::classof</text>
</a>
</g>
</g>
<!-- Node2&#45;&gt;Node7 -->
<g id="edge5" class="edge">
<title>Node2&#45;&gt;Node7</title>
<path fill="none" stroke="#191970" d="M79.8407,-255.8614C96.8345,-263.6259 119.0359,-273.2717 139.2705,-280.5 148.3084,-283.7286 158.2305,-286.7764 167.4834,-289.4144"/>
<polygon fill="#191970" stroke="#191970" points="81.0368,-252.5585 70.491,-251.5396 78.0997,-258.9125 81.0368,-252.5585"/>
</g>
<!-- Node8 -->
<g id="node7" class="node">
<title>Node8</title>
<g id="a_node7"><a xlink:href="classdelta_1_1_defer_stmt.html#ad3c2a603bf6a55681e1df28c6ca9e51f" target="_top" xlink:title="delta::DeferStmt::classof">
<polygon fill="#ffffff" stroke="#000000" points="140.1055,-252.5 140.1055,-270.5 265.0361,-270.5 265.0361,-252.5 140.1055,-252.5"/>
<text text-anchor="middle" x="202.5708" y="-258.5" font-family="Helvetica,sans-Serif" font-size="10.00" fill="#000000">delta::DeferStmt::classof</text>
</a>
</g>
</g>
<!-- Node2&#45;&gt;Node8 -->
<g id="edge6" class="edge">
<title>Node2&#45;&gt;Node8</title>
<path fill="none" stroke="#191970" d="M113.6056,-250.3009C122.2673,-251.3913 131.1742,-252.5125 139.8496,-253.6046"/>
<polygon fill="#191970" stroke="#191970" points="113.9376,-246.8152 103.5787,-249.0387 113.0632,-253.7604 113.9376,-246.8152"/>
</g>
<!-- Node9 -->
<g id="node8" class="node">
<title>Node9</title>
<g id="a_node8"><a xlink:href="classdelta_1_1_if_stmt.html#a443fd47eeddc7cb371f1305584bb209c" target="_top" xlink:title="delta::IfStmt::classof">
<polygon fill="#ffffff" stroke="#000000" points="149.5537,-215.5 149.5537,-233.5 255.5879,-233.5 255.5879,-215.5 149.5537,-215.5"/>
<text text-anchor="middle" x="202.5708" y="-221.5" font-family="Helvetica,sans-Serif" font-size="10.00" fill="#000000">delta::IfStmt::classof</text>
</a>
</g>
</g>
<!-- Node2&#45;&gt;Node9 -->
<g id="edge7" class="edge">
<title>Node2&#45;&gt;Node9</title>
<path fill="none" stroke="#191970" d="M113.8407,-235.0816C125.6847,-233.6691 137.9787,-232.203 149.5058,-230.8283"/>
<polygon fill="#191970" stroke="#191970" points="113.0939,-231.6458 103.5787,-236.3054 113.9228,-238.5965 113.0939,-231.6458"/>
</g>
<!-- Node10 -->
<g id="node9" class="node">
<title>Node10</title>
<g id="a_node9"><a xlink:href="classdelta_1_1_switch_stmt.html#a6d7e211dd6a9a134937311ddf7212d05" target="_top" xlink:title="delta::SwitchStmt::\lclassof">
<polygon fill="#ffffff" stroke="#000000" points="153.167,-168.5 153.167,-196.5 251.9746,-196.5 251.9746,-168.5 153.167,-168.5"/>
<text text-anchor="start" x="161.167" y="-184.5" font-family="Helvetica,sans-Serif" font-size="10.00" fill="#000000">delta::SwitchStmt::</text>
<text text-anchor="middle" x="202.5708" y="-174.5" font-family="Helvetica,sans-Serif" font-size="10.00" fill="#000000">classof</text>
</a>
</g>
</g>
<!-- Node2&#45;&gt;Node10 -->
<g id="edge8" class="edge">
<title>Node2&#45;&gt;Node10</title>
<path fill="none" stroke="#191970" d="M82.4895,-229.584C99.2425,-222.6321 120.3433,-213.974 139.2705,-206.5 147.5785,-203.2193 156.5326,-199.7713 165.0169,-196.5444"/>
<polygon fill="#191970" stroke="#191970" points="81.0658,-226.3855 73.1774,-233.4583 83.7547,-232.8485 81.0658,-226.3855"/>
</g>
<!-- Node11 -->
<g id="node10" class="node">
<title>Node11</title>
<g id="a_node10"><a xlink:href="classdelta_1_1_while_stmt.html#a78c62a712b66c8cc8b47d44987c0d798" target="_top" xlink:title="delta::WhileStmt::classof">
<polygon fill="#ffffff" stroke="#000000" points="139.8296,-131.5 139.8296,-149.5 265.312,-149.5 265.312,-131.5 139.8296,-131.5"/>
<text text-anchor="middle" x="202.5708" y="-137.5" font-family="Helvetica,sans-Serif" font-size="10.00" fill="#000000">delta::WhileStmt::classof</text>
</a>
</g>
</g>
<!-- Node2&#45;&gt;Node11 -->
<g id="edge9" class="edge">
<title>Node2&#45;&gt;Node11</title>
<path fill="none" stroke="#191970" d="M65.2086,-225.5704C81.0887,-206.8356 109.0776,-176.9851 139.2705,-159.5 146.3202,-155.4174 154.3286,-152.1379 162.2216,-149.5301"/>
<polygon fill="#191970" stroke="#191970" points="62.4809,-223.3769 58.8001,-233.3118 67.873,-227.8407 62.4809,-223.3769"/>
</g>
<!-- Node12 -->
<g id="node11" class="node">
<title>Node12</title>
<g id="a_node11"><a xlink:href="classdelta_1_1_break_stmt.html#ad87fb365f72891eaf2a2fb94e3ab8767" target="_top" xlink:title="delta::BreakStmt::classof">
<polygon fill="#ffffff" stroke="#000000" points="139.2705,-94.5 139.2705,-112.5 265.8711,-112.5 265.8711,-94.5 139.2705,-94.5"/>
<text text-anchor="middle" x="202.5708" y="-100.5" font-family="Helvetica,sans-Serif" font-size="10.00" fill="#000000">delta::BreakStmt::classof</text>
</a>
</g>
</g>
<!-- Node2&#45;&gt;Node12 -->
<g id="edge10" class="edge">
<title>Node2&#45;&gt;Node12</title>
<path fill="none" stroke="#191970" d="M60.1774,-224.1842C73.4096,-197.8023 101.3454,-149.3361 139.2705,-122.5 145.0776,-118.3909 151.7847,-115.1576 158.6154,-112.6171"/>
<polygon fill="#191970" stroke="#191970" points="56.9124,-222.8958 55.6963,-233.4206 63.2103,-225.9513 56.9124,-222.8958"/>
</g>
<!-- Node13 -->
<g id="node12" class="node">
<title>Node13</title>
<g id="a_node12"><a xlink:href="classdelta_1_1_assign_stmt.html#a65aacdc67d3e74f97d59b564177b9434" target="_top" xlink:title="delta::AssignStmt::\lclassof">
<polygon fill="#ffffff" stroke="#000000" points="152.8862,-47.5 152.8862,-75.5 252.2554,-75.5 252.2554,-47.5 152.8862,-47.5"/>
<text text-anchor="start" x="160.8862" y="-63.5" font-family="Helvetica,sans-Serif" font-size="10.00" fill="#000000">delta::AssignStmt::</text>
<text text-anchor="middle" x="202.5708" y="-53.5" font-family="Helvetica,sans-Serif" font-size="10.00" fill="#000000">classof</text>
</a>
</g>
</g>
<!-- Node2&#45;&gt;Node13 -->
<g id="edge11" class="edge">
<title>Node2&#45;&gt;Node13</title>
<path fill="none" stroke="#191970" d="M57.38,-223.6186C68.2179,-191.0186 94.6852,-123.9812 139.2705,-85.5 143.7192,-81.6604 148.8448,-78.4051 154.2132,-75.6524"/>
<polygon fill="#191970" stroke="#191970" points="54.0081,-222.6722 54.3001,-233.263 60.6764,-224.8017 54.0081,-222.6722"/>
</g>
<!-- Node14 -->
<g id="node13" class="node">
<title>Node14</title>
<g id="a_node13"><a xlink:href="classdelta_1_1_aug_assign_stmt.html#a316a6d6ce8d175db3e408fbf0a8ad105" target="_top" xlink:title="delta::AugAssignStmt\l::classof">
<polygon fill="#ffffff" stroke="#000000" points="146.7681,-.5 146.7681,-28.5 258.3735,-28.5 258.3735,-.5 146.7681,-.5"/>
<text text-anchor="start" x="154.7681" y="-16.5" font-family="Helvetica,sans-Serif" font-size="10.00" fill="#000000">delta::AugAssignStmt</text>
<text text-anchor="middle" x="202.5708" y="-6.5" font-family="Helvetica,sans-Serif" font-size="10.00" fill="#000000">::classof</text>
</a>
</g>
</g>
<!-- Node2&#45;&gt;Node14 -->
<g id="edge12" class="edge">
<title>Node2&#45;&gt;Node14</title>
<path fill="none" stroke="#191970" d="M54.7128,-223.3659C62.0906,-183.5269 84.42,-91.0229 139.2705,-38.5 143.3451,-34.5983 148.1172,-31.316 153.1818,-28.5579"/>
<polygon fill="#191970" stroke="#191970" points="51.2447,-222.881 52.9808,-233.3326 58.1413,-224.0795 51.2447,-222.881"/>
</g>
</g>
</svg>
