<?xml version="1.0" encoding="UTF-8" standalone="no"?>
<!DOCTYPE svg PUBLIC "-//W3C//DTD SVG 1.1//EN"
 "http://www.w3.org/Graphics/SVG/1.1/DTD/svg11.dtd">
<!-- Generated by graphviz version 2.40.1 (20161225.0304)
 -->
<!-- Title: delta::IncrementStmt Pages: 1 -->
<svg width="240pt" height="232pt"
 viewBox="0.00 0.00 240.13 232.00" xmlns="http://www.w3.org/2000/svg" xmlns:xlink="http://www.w3.org/1999/xlink">
<g id="graph0" class="graph" transform="scale(1 1) rotate(0) translate(4 228)">
<title>delta::IncrementStmt</title>
<polygon fill="#ffffff" stroke="transparent" points="-4,4 -4,-228 236.1289,-228 236.1289,4 -4,4"/>
<!-- Node2 -->
<g id="node1" class="node">
<title>Node2</title>
<polygon fill="#bfbfbf" stroke="#000000" points="37.7686,-.5 37.7686,-18.5 146.0293,-18.5 146.0293,-.5 37.7686,-.5"/>
<text text-anchor="middle" x="91.8989" y="-6.5" font-family="Helvetica,sans-Serif" font-size="10.00" fill="#000000">delta::IncrementStmt</text>
</g>
<!-- Node3 -->
<g id="node2" class="node">
<title>Node3</title>
<g id="a_node2"><a xlink:href="classdelta_1_1_stmt.html" target="_top" xlink:title="delta::Stmt">
<polygon fill="#ffffff" stroke="#000000" points="0,-70.5 0,-88.5 63.7979,-88.5 63.7979,-70.5 0,-70.5"/>
<text text-anchor="middle" x="31.8989" y="-76.5" font-family="Helvetica,sans-Serif" font-size="10.00" fill="#000000">delta::Stmt</text>
</a>
</g>
</g>
<!-- Node3&#45;&gt;Node2 -->
<g id="edge1" class="edge">
<title>Node3&#45;&gt;Node2</title>
<path fill="none" stroke="#191970" d="M46.4013,-62.5806C58.1615,-48.8603 74.3019,-30.0299 83.8615,-18.8769"/>
<polygon fill="#191970" stroke="#191970" points="43.5934,-60.4784 39.7429,-70.3487 48.9082,-65.0339 43.5934,-60.4784"/>
</g>
<!-- Node4 -->
<g id="node3" class="node">
<title>Node4</title>
<g id="a_node3"><a xlink:href="structdelta_1_1_src_loc.html" target="_top" xlink:title="delta::SrcLoc">
<polygon fill="#ffffff" stroke="#000000" points="70.7168,-205.5 70.7168,-223.5 145.0811,-223.5 145.0811,-205.5 70.7168,-205.5"/>
<text text-anchor="middle" x="107.8989" y="-211.5" font-family="Helvetica,sans-Serif" font-size="10.00" fill="#000000">delta::SrcLoc</text>
</a>
</g>
</g>
<!-- Node4&#45;&gt;Node2 -->
<g id="edge2" class="edge">
<title>Node4&#45;&gt;Node2</title>
<path fill="none" stroke="#9a32cd" stroke-dasharray="5,2" d="M106.3946,-195.2257C103.049,-152.3597 95.0936,-50.4314 92.6354,-18.9362"/>
<polygon fill="#9a32cd" stroke="#9a32cd" points="102.9232,-195.7296 107.1908,-205.4269 109.902,-195.1848 102.9232,-195.7296"/>
<text text-anchor="middle" x="117.0146" y="-114" font-family="Helvetica,sans-Serif" font-size="10.00" fill="#000000"> srcLoc</text>
</g>
<!-- Node6 -->
<g id="node5" class="node">
<title>Node6</title>
<g id="a_node5"><a xlink:href="classdelta_1_1_expr.html" target="_top" xlink:title="delta::Expr">
<polygon fill="#ffffff" stroke="#000000" points="131.9976,-140.5 131.9976,-158.5 195.8003,-158.5 195.8003,-140.5 131.9976,-140.5"/>
<text text-anchor="middle" x="163.8989" y="-146.5" font-family="Helvetica,sans-Serif" font-size="10.00" fill="#000000">delta::Expr</text>
</a>
</g>
</g>
<!-- Node4&#45;&gt;Node6 -->
<g id="edge5" class="edge">
<title>Node4&#45;&gt;Node6</title>
<path fill="none" stroke="#9a32cd" stroke-dasharray="5,2" d="M122.3977,-197.6711C133.0378,-185.321 147.0975,-169.0016 155.8159,-158.8821"/>
<polygon fill="#9a32cd" stroke="#9a32cd" points="119.561,-195.6014 115.6855,-205.462 124.8642,-200.1704 119.561,-195.6014"/>
<text text-anchor="middle" x="156.0146" y="-179" font-family="Helvetica,sans-Serif" font-size="10.00" fill="#000000"> srcLoc</text>
</g>
<!-- Node5 -->
<g id="node4" class="node">
<title>Node5</title>
<polygon fill="#ffffff" stroke="#bfbfbf" points="119.6689,-65.5 119.6689,-93.5 232.1289,-93.5 232.1289,-65.5 119.6689,-65.5"/>
<text text-anchor="start" x="127.6689" y="-81.5" font-family="Helvetica,sans-Serif" font-size="10.00" fill="#000000">std::unique_ptr&lt; delta</text>
<text text-anchor="middle" x="175.8989" y="-71.5" font-family="Helvetica,sans-Serif" font-size="10.00" fill="#000000">::Expr &gt;</text>
</g>
<!-- Node5&#45;&gt;Node2 -->
<g id="edge3" class="edge">
<title>Node5&#45;&gt;Node2</title>
<path fill="none" stroke="#9a32cd" stroke-dasharray="5,2" d="M150.9862,-58.7394C135.0434,-45.4537 115.1406,-28.8681 102.9831,-18.7368"/>
<polygon fill="#9a32cd" stroke="#9a32cd" points="148.9774,-61.6214 158.9003,-65.3345 153.4587,-56.2438 148.9774,-61.6214"/>
<text text-anchor="middle" x="156.6377" y="-39" font-family="Helvetica,sans-Serif" font-size="10.00" fill="#000000"> operand</text>
</g>
<!-- Node6&#45;&gt;Node5 -->
<g id="edge4" class="edge">
<title>Node6&#45;&gt;Node5</title>
<path fill="none" stroke="#9a32cd" stroke-dasharray="5,2" d="M167.1761,-130.383C169.1591,-118.8156 171.6457,-104.3105 173.4561,-93.7499"/>
<polygon fill="#9a32cd" stroke="#9a32cd" points="163.7078,-129.9011 165.4677,-140.3487 170.6071,-131.0839 163.7078,-129.9011"/>
<text text-anchor="middle" x="177.123" y="-114" font-family="Helvetica,sans-Serif" font-size="10.00" fill="#000000"> ptr</text>
</g>
</g>
</svg>
