<?xml version="1.0" encoding="UTF-8" standalone="no"?>
<!DOCTYPE svg PUBLIC "-//W3C//DTD SVG 1.1//EN"
 "http://www.w3.org/Graphics/SVG/1.1/DTD/svg11.dtd">
<!-- Generated by graphviz version 2.40.1 (20161225.0304)
 -->
<!-- Title: delta::WhileStmt Pages: 1 -->
<svg width="630pt" height="109pt"
 viewBox="0.00 0.00 629.69 109.00" xmlns="http://www.w3.org/2000/svg" xmlns:xlink="http://www.w3.org/1999/xlink">
<g id="graph0" class="graph" transform="scale(1 1) rotate(0) translate(4 105)">
<title>delta::WhileStmt</title>
<polygon fill="#ffffff" stroke="transparent" points="-4,4 -4,-105 625.6924,-105 625.6924,4 -4,4"/>
<!-- Node2 -->
<g id="node1" class="node">
<title>Node2</title>
<polygon fill="#bfbfbf" stroke="#000000" points="532.8896,-52.5 532.8896,-70.5 621.6924,-70.5 621.6924,-52.5 532.8896,-52.5"/>
<text text-anchor="middle" x="577.291" y="-58.5" font-family="Helvetica,sans-Serif" font-size="10.00" fill="#000000">delta::WhileStmt</text>
</g>
<!-- Node3 -->
<g id="node2" class="node">
<title>Node3</title>
<g id="a_node2"><a xlink:href="classdelta_1_1_stmt.html" target="_top" xlink:title="delta::Stmt">
<polygon fill="#ffffff" stroke="#000000" points="5.2832,-82.5 5.2832,-100.5 69.0811,-100.5 69.0811,-82.5 5.2832,-82.5"/>
<text text-anchor="middle" x="37.1821" y="-88.5" font-family="Helvetica,sans-Serif" font-size="10.00" fill="#000000">delta::Stmt</text>
</a>
</g>
</g>
<!-- Node3&#45;&gt;Node2 -->
<g id="edge1" class="edge">
<title>Node3&#45;&gt;Node2</title>
<path fill="none" stroke="#191970" d="M79.2047,-92.9633C154.5182,-95.1256 317.3947,-97.709 454.082,-85.5 483.8193,-82.8438 517.0145,-76.1572 541.4501,-70.5146"/>
<polygon fill="#191970" stroke="#191970" points="79.271,-89.4638 69.1706,-92.6626 79.0613,-96.4607 79.271,-89.4638"/>
</g>
<!-- Node8 -->
<g id="node7" class="node">
<title>Node8</title>
<polygon fill="#ffffff" stroke="#bfbfbf" points="142.5957,-47.5 142.5957,-75.5 255.0557,-75.5 255.0557,-47.5 142.5957,-47.5"/>
<text text-anchor="start" x="150.5957" y="-63.5" font-family="Helvetica,sans-Serif" font-size="10.00" fill="#000000">std::unique_ptr&lt; delta</text>
<text text-anchor="middle" x="198.8257" y="-53.5" font-family="Helvetica,sans-Serif" font-size="10.00" fill="#000000">::Stmt &gt;</text>
</g>
<!-- Node3&#45;&gt;Node8 -->
<g id="edge7" class="edge">
<title>Node3&#45;&gt;Node8</title>
<path fill="none" stroke="#9a32cd" stroke-dasharray="5,2" d="M79.3822,-82.9971C83.7639,-82.1414 88.1527,-81.2955 92.3643,-80.5 108.5991,-77.4335 126.2524,-74.2301 142.4306,-71.3463"/>
<polygon fill="#9a32cd" stroke="#9a32cd" points="78.3927,-79.6247 69.2583,-84.9924 79.7463,-86.4926 78.3927,-79.6247"/>
<text text-anchor="middle" x="108.48" y="-82.5" font-family="Helvetica,sans-Serif" font-size="10.00" fill="#000000"> ptr</text>
</g>
<!-- Node4 -->
<g id="node3" class="node">
<title>Node4</title>
<polygon fill="#ffffff" stroke="#bfbfbf" points="338.0161,-.5 338.0161,-28.5 450.4761,-28.5 450.4761,-.5 338.0161,-.5"/>
<text text-anchor="start" x="346.0161" y="-16.5" font-family="Helvetica,sans-Serif" font-size="10.00" fill="#000000">std::unique_ptr&lt; delta</text>
<text text-anchor="middle" x="394.2461" y="-6.5" font-family="Helvetica,sans-Serif" font-size="10.00" fill="#000000">::Expr &gt;</text>
</g>
<!-- Node4&#45;&gt;Node2 -->
<g id="edge2" class="edge">
<title>Node4&#45;&gt;Node2</title>
<path fill="none" stroke="#9a32cd" stroke-dasharray="5,2" d="M458.887,-31.0977C486.859,-38.28 518.5073,-46.4063 542.0421,-52.4492"/>
<polygon fill="#9a32cd" stroke="#9a32cd" points="459.7219,-27.6986 449.1656,-28.6015 457.9809,-34.4787 459.7219,-27.6986"/>
<text text-anchor="middle" x="493.4858" y="-47.5" font-family="Helvetica,sans-Serif" font-size="10.00" fill="#000000"> condition</text>
</g>
<!-- Node5 -->
<g id="node4" class="node">
<title>Node5</title>
<g id="a_node4"><a xlink:href="classdelta_1_1_expr.html" target="_top" xlink:title="delta::Expr">
<polygon fill="#ffffff" stroke="#000000" points="166.9243,-5.5 166.9243,-23.5 230.7271,-23.5 230.7271,-5.5 166.9243,-5.5"/>
<text text-anchor="middle" x="198.8257" y="-11.5" font-family="Helvetica,sans-Serif" font-size="10.00" fill="#000000">delta::Expr</text>
</a>
</g>
</g>
<!-- Node5&#45;&gt;Node4 -->
<g id="edge3" class="edge">
<title>Node5&#45;&gt;Node4</title>
<path fill="none" stroke="#9a32cd" stroke-dasharray="5,2" d="M241.4451,-14.5C269.7019,-14.5 307.0892,-14.5 337.8085,-14.5"/>
<polygon fill="#9a32cd" stroke="#9a32cd" points="241.0954,-11.0001 231.0954,-14.5 241.0954,-18.0001 241.0954,-11.0001"/>
<text text-anchor="middle" x="294.7329" y="-16.5" font-family="Helvetica,sans-Serif" font-size="10.00" fill="#000000"> ptr</text>
</g>
<!-- Node6 -->
<g id="node5" class="node">
<title>Node6</title>
<g id="a_node5"><a xlink:href="structdelta_1_1_src_loc.html" target="_top" xlink:title="delta::SrcLoc">
<polygon fill="#ffffff" stroke="#000000" points="0,-5.5 0,-23.5 74.3643,-23.5 74.3643,-5.5 0,-5.5"/>
<text text-anchor="middle" x="37.1821" y="-11.5" font-family="Helvetica,sans-Serif" font-size="10.00" fill="#000000">delta::SrcLoc</text>
</a>
</g>
</g>
<!-- Node6&#45;&gt;Node5 -->
<g id="edge4" class="edge">
<title>Node6&#45;&gt;Node5</title>
<path fill="none" stroke="#9a32cd" stroke-dasharray="5,2" d="M84.8452,-14.5C111.2313,-14.5 143.3216,-14.5 166.721,-14.5"/>
<polygon fill="#9a32cd" stroke="#9a32cd" points="84.6727,-11.0001 74.6727,-14.5 84.6727,-18.0001 84.6727,-11.0001"/>
<text text-anchor="middle" x="108.48" y="-16.5" font-family="Helvetica,sans-Serif" font-size="10.00" fill="#000000"> srcLoc</text>
</g>
<!-- Node7 -->
<g id="node6" class="node">
<title>Node7</title>
<polygon fill="#ffffff" stroke="#bfbfbf" points="334.4102,-47.5 334.4102,-75.5 454.082,-75.5 454.082,-47.5 334.4102,-47.5"/>
<text text-anchor="start" x="342.4102" y="-63.5" font-family="Helvetica,sans-Serif" font-size="10.00" fill="#000000">std::vector&lt; std::unique</text>
<text text-anchor="middle" x="394.2461" y="-53.5" font-family="Helvetica,sans-Serif" font-size="10.00" fill="#000000">_ptr&lt; delta::Stmt &gt; &gt;</text>
</g>
<!-- Node7&#45;&gt;Node2 -->
<g id="edge5" class="edge">
<title>Node7&#45;&gt;Node2</title>
<path fill="none" stroke="#9a32cd" stroke-dasharray="5,2" d="M464.2269,-61.5C487.1827,-61.5 512.0556,-61.5 532.612,-61.5"/>
<polygon fill="#9a32cd" stroke="#9a32cd" points="464.1819,-58.0001 454.1818,-61.5 464.1818,-65.0001 464.1819,-58.0001"/>
<text text-anchor="middle" x="493.4858" y="-63.5" font-family="Helvetica,sans-Serif" font-size="10.00" fill="#000000"> body</text>
</g>
<!-- Node8&#45;&gt;Node7 -->
<g id="edge6" class="edge">
<title>Node8&#45;&gt;Node7</title>
<path fill="none" stroke="#9a32cd" stroke-dasharray="5,2" d="M265.1829,-61.5C287.5749,-61.5 312.4241,-61.5 334.2917,-61.5"/>
<polygon fill="#9a32cd" stroke="#9a32cd" points="265.0872,-58.0001 255.0872,-61.5 265.0871,-65.0001 265.0872,-58.0001"/>
<text text-anchor="middle" x="294.7329" y="-63.5" font-family="Helvetica,sans-Serif" font-size="10.00" fill="#000000"> elements</text>
</g>
</g>
</svg>
