<?xml version="1.0" encoding="UTF-8" standalone="no"?>
<!DOCTYPE svg PUBLIC "-//W3C//DTD SVG 1.1//EN"
 "http://www.w3.org/Graphics/SVG/1.1/DTD/svg11.dtd">
<!-- Generated by graphviz version 2.40.1 (20161225.0304)
 -->
<!-- Title: delta::InitDecl Pages: 1 -->
<svg width="324pt" height="308pt"
 viewBox="0.00 0.00 323.65 308.00" xmlns="http://www.w3.org/2000/svg" xmlns:xlink="http://www.w3.org/1999/xlink">
<g id="graph0" class="graph" transform="scale(1 1) rotate(0) translate(4 304)">
<title>delta::InitDecl</title>
<polygon fill="#ffffff" stroke="transparent" points="-4,4 -4,-304 319.645,-304 319.645,4 -4,4"/>
<!-- Node2 -->
<g id="node1" class="node">
<title>Node2</title>
<polygon fill="#bfbfbf" stroke="#000000" points="82.8892,-.5 82.8892,-18.5 159.4751,-18.5 159.4751,-.5 82.8892,-.5"/>
<text text-anchor="middle" x="121.1821" y="-6.5" font-family="Helvetica,sans-Serif" font-size="10.00" fill="#000000">delta::InitDecl</text>
</g>
<!-- Node3 -->
<g id="node2" class="node">
<title>Node3</title>
<g id="a_node2"><a xlink:href="classdelta_1_1_decl.html" target="_top" xlink:title="delta::Decl">
<polygon fill="#ffffff" stroke="#000000" points="92.5591,-215.5 92.5591,-233.5 155.8052,-233.5 155.8052,-215.5 92.5591,-215.5"/>
<text text-anchor="middle" x="124.1821" y="-221.5" font-family="Helvetica,sans-Serif" font-size="10.00" fill="#000000">delta::Decl</text>
</a>
</g>
</g>
<!-- Node3&#45;&gt;Node2 -->
<g id="edge1" class="edge">
<title>Node3&#45;&gt;Node2</title>
<path fill="none" stroke="#191970" d="M123.9123,-205.1589C123.2895,-160.5261 121.7704,-51.6561 121.3139,-18.946"/>
<polygon fill="#191970" stroke="#191970" points="120.4139,-205.3116 124.0532,-215.2617 127.4133,-205.2138 120.4139,-205.3116"/>
</g>
<!-- Node6 -->
<g id="node5" class="node">
<title>Node6</title>
<g id="a_node5"><a xlink:href="classdelta_1_1_param_decl.html" target="_top" xlink:title="delta::ParamDecl">
<polygon fill="#ffffff" stroke="#000000" points="148.8325,-140.5 148.8325,-158.5 241.5317,-158.5 241.5317,-140.5 148.8325,-140.5"/>
<text text-anchor="middle" x="195.1821" y="-146.5" font-family="Helvetica,sans-Serif" font-size="10.00" fill="#000000">delta::ParamDecl</text>
</a>
</g>
</g>
<!-- Node3&#45;&gt;Node6 -->
<g id="edge5" class="edge">
<title>Node3&#45;&gt;Node6</title>
<path fill="none" stroke="#191970" d="M140.1021,-207.6831C154.4021,-192.5774 174.8704,-170.956 186.4049,-158.7717"/>
<polygon fill="#191970" stroke="#191970" points="137.2212,-205.6353 132.8881,-215.3035 142.3046,-210.4476 137.2212,-205.6353"/>
</g>
<!-- Node4 -->
<g id="node3" class="node">
<title>Node4</title>
<g id="a_node3"><a xlink:href="structdelta_1_1_src_loc.html" target="_top" xlink:title="delta::SrcLoc">
<polygon fill="#ffffff" stroke="#000000" points="0,-215.5 0,-233.5 74.3643,-233.5 74.3643,-215.5 0,-215.5"/>
<text text-anchor="middle" x="37.1821" y="-221.5" font-family="Helvetica,sans-Serif" font-size="10.00" fill="#000000">delta::SrcLoc</text>
</a>
</g>
</g>
<!-- Node4&#45;&gt;Node2 -->
<g id="edge2" class="edge">
<title>Node4&#45;&gt;Node2</title>
<path fill="none" stroke="#9a32cd" stroke-dasharray="5,2" d="M44.5179,-205.724C61.8148,-161.452 104.6576,-51.795 117.4916,-18.946"/>
<polygon fill="#9a32cd" stroke="#9a32cd" points="41.1706,-204.6737 40.7915,-215.2617 47.6907,-207.2211 41.1706,-204.6737"/>
<text text-anchor="middle" x="97.2979" y="-114" font-family="Helvetica,sans-Serif" font-size="10.00" fill="#000000"> srcLoc</text>
</g>
<!-- Node4&#45;&gt;Node6 -->
<g id="edge7" class="edge">
<title>Node4&#45;&gt;Node6</title>
<path fill="none" stroke="#9a32cd" stroke-dasharray="5,2" d="M58.7075,-209.8388C74.1713,-199.73 95.7654,-186.4625 115.9507,-177 131.5075,-169.7073 149.5567,-163.2948 164.4953,-158.5005"/>
<polygon fill="#9a32cd" stroke="#9a32cd" points="56.7649,-206.9273 50.368,-215.373 60.6355,-212.7598 56.7649,-206.9273"/>
<text text-anchor="middle" x="132.2979" y="-184" font-family="Helvetica,sans-Serif" font-size="10.00" fill="#000000"> srcLoc</text>
</g>
<!-- Node5 -->
<g id="node4" class="node">
<title>Node5</title>
<polygon fill="#ffffff" stroke="#bfbfbf" points="148.9668,-65.5 148.9668,-93.5 241.3975,-93.5 241.3975,-65.5 148.9668,-65.5"/>
<text text-anchor="start" x="156.9668" y="-81.5" font-family="Helvetica,sans-Serif" font-size="10.00" fill="#000000">std::vector&lt; delta</text>
<text text-anchor="middle" x="195.1821" y="-71.5" font-family="Helvetica,sans-Serif" font-size="10.00" fill="#000000">::ParamDecl &gt;</text>
</g>
<!-- Node5&#45;&gt;Node2 -->
<g id="edge3" class="edge">
<title>Node5&#45;&gt;Node2</title>
<path fill="none" stroke="#9a32cd" stroke-dasharray="5,2" d="M172.8478,-58.3729C158.8692,-45.1499 141.5587,-28.7751 130.9467,-18.7368"/>
<polygon fill="#9a32cd" stroke="#9a32cd" points="170.5372,-61.0051 180.2071,-65.3345 175.3476,-55.9198 170.5372,-61.0051"/>
<text text-anchor="middle" x="179.2437" y="-39" font-family="Helvetica,sans-Serif" font-size="10.00" fill="#000000"> params</text>
</g>
<!-- Node6&#45;&gt;Node5 -->
<g id="edge4" class="edge">
<title>Node6&#45;&gt;Node5</title>
<path fill="none" stroke="#9a32cd" stroke-dasharray="5,2" d="M195.1821,-130.0243C195.1821,-118.5169 195.1821,-104.2016 195.1821,-93.7499"/>
<polygon fill="#9a32cd" stroke="#9a32cd" points="191.6822,-130.3487 195.1821,-140.3487 198.6822,-130.3488 191.6822,-130.3487"/>
<text text-anchor="middle" x="216.8594" y="-114" font-family="Helvetica,sans-Serif" font-size="10.00" fill="#000000"> elements</text>
</g>
<!-- Node7 -->
<g id="node6" class="node">
<title>Node7</title>
<g id="a_node6"><a xlink:href="structdelta_1_1_type.html" target="_top" xlink:title="delta::Type">
<polygon fill="#ffffff" stroke="#000000" points="250.7192,-215.5 250.7192,-233.5 315.645,-233.5 315.645,-215.5 250.7192,-215.5"/>
<text text-anchor="middle" x="283.1821" y="-221.5" font-family="Helvetica,sans-Serif" font-size="10.00" fill="#000000">delta::Type</text>
</a>
</g>
</g>
<!-- Node7&#45;&gt;Node6 -->
<g id="edge6" class="edge">
<title>Node7&#45;&gt;Node6</title>
<path fill="none" stroke="#9a32cd" stroke-dasharray="5,2" d="M266.5166,-208.5861C256.4759,-199.174 243.3221,-187.1481 231.1821,-177 223.5789,-170.6443 214.7392,-163.8832 207.722,-158.6553"/>
<polygon fill="#9a32cd" stroke="#9a32cd" points="264.15,-211.1653 273.8227,-215.4883 268.9571,-206.0768 264.15,-211.1653"/>
<text text-anchor="middle" x="263.022" y="-184" font-family="Helvetica,sans-Serif" font-size="10.00" fill="#000000"> type</text>
</g>
<!-- Node8 -->
<g id="node7" class="node">
<title>Node8</title>
<g id="a_node7"><a xlink:title="STL class. ">
<polygon fill="#ffffff" stroke="#bfbfbf" points="173.5073,-215.5 173.5073,-233.5 232.8569,-233.5 232.8569,-215.5 173.5073,-215.5"/>
<text text-anchor="middle" x="203.1821" y="-221.5" font-family="Helvetica,sans-Serif" font-size="10.00" fill="#000000">std::string</text>
</a>
</g>
</g>
<!-- Node8&#45;&gt;Node6 -->
<g id="edge8" class="edge">
<title>Node8&#45;&gt;Node6</title>
<path fill="none" stroke="#9a32cd" stroke-dasharray="5,2" d="M201.1136,-205.1079C199.5239,-190.2042 197.3986,-170.2791 196.1711,-158.7717"/>
<polygon fill="#9a32cd" stroke="#9a32cd" points="197.6602,-205.7312 202.2012,-215.3035 204.6207,-204.9887 197.6602,-205.7312"/>
<text text-anchor="middle" x="213.0786" y="-189" font-family="Helvetica,sans-Serif" font-size="10.00" fill="#000000"> name</text>
<text text-anchor="middle" x="213.0786" y="-179" font-family="Helvetica,sans-Serif" font-size="10.00" fill="#000000">label</text>
</g>
<!-- Node9 -->
<g id="node8" class="node">
<title>Node9</title>
<g id="a_node8"><a xlink:title="STL class. ">
<polygon fill="#ffffff" stroke="#bfbfbf" points="156.1343,-271.5 156.1343,-299.5 250.23,-299.5 250.23,-271.5 156.1343,-271.5"/>
<text text-anchor="start" x="164.1343" y="-287.5" font-family="Helvetica,sans-Serif" font-size="10.00" fill="#000000">std::basic_string&lt;</text>
<text text-anchor="middle" x="203.1821" y="-277.5" font-family="Helvetica,sans-Serif" font-size="10.00" fill="#000000"> char &gt;</text>
</a>
</g>
</g>
<!-- Node9&#45;&gt;Node8 -->
<g id="edge9" class="edge">
<title>Node9&#45;&gt;Node8</title>
<path fill="none" stroke="#191970" d="M203.1821,-261.1001C203.1821,-251.5157 203.1821,-241.0935 203.1821,-233.831"/>
<polygon fill="#191970" stroke="#191970" points="199.6822,-261.352 203.1821,-271.3521 206.6822,-261.3521 199.6822,-261.352"/>
</g>
</g>
</svg>
