<?xml version="1.0" encoding="UTF-8" standalone="no"?>
<!DOCTYPE svg PUBLIC "-//W3C//DTD SVG 1.1//EN"
 "http://www.w3.org/Graphics/SVG/1.1/DTD/svg11.dtd">
<!-- Generated by graphviz version 2.40.1 (20161225.0304)
 -->
<!-- Title: delta::FuncDecl Pages: 1 -->
<svg width="354pt" height="318pt"
 viewBox="0.00 0.00 353.65 318.00" xmlns="http://www.w3.org/2000/svg" xmlns:xlink="http://www.w3.org/1999/xlink">
<g id="graph0" class="graph" transform="scale(1 1) rotate(0) translate(4 314)">
<title>delta::FuncDecl</title>
<polygon fill="#ffffff" stroke="transparent" points="-4,4 -4,-314 349.645,-314 349.645,4 -4,4"/>
<!-- Node2 -->
<g id="node1" class="node">
<title>Node2</title>
<polygon fill="#bfbfbf" stroke="#000000" points="120.7241,-.5 120.7241,-18.5 206.2017,-18.5 206.2017,-.5 120.7241,-.5"/>
<text text-anchor="middle" x="163.4629" y="-6.5" font-family="Helvetica,sans-Serif" font-size="10.00" fill="#000000">delta::FuncDecl</text>
</g>
<!-- Node3 -->
<g id="node2" class="node">
<title>Node3</title>
<g id="a_node2"><a xlink:href="classdelta_1_1_decl.html" target="_top" xlink:title="delta::Decl">
<polygon fill="#ffffff" stroke="#000000" points="89.8398,-225.5 89.8398,-243.5 153.0859,-243.5 153.0859,-225.5 89.8398,-225.5"/>
<text text-anchor="middle" x="121.4629" y="-231.5" font-family="Helvetica,sans-Serif" font-size="10.00" fill="#000000">delta::Decl</text>
</a>
</g>
</g>
<!-- Node3&#45;&gt;Node2 -->
<g id="edge1" class="edge">
<title>Node3&#45;&gt;Node2</title>
<path fill="none" stroke="#191970" d="M114.6907,-215.7196C104.2146,-183.5084 87.371,-116.2479 108.4629,-65 116.7234,-44.9289 136.1427,-28.267 149.5455,-18.5931"/>
<polygon fill="#191970" stroke="#191970" points="111.3927,-216.8926 117.9353,-225.226 118.0175,-214.6315 111.3927,-216.8926"/>
</g>
<!-- Node9 -->
<g id="node8" class="node">
<title>Node9</title>
<g id="a_node8"><a xlink:href="classdelta_1_1_param_decl.html" target="_top" xlink:title="delta::ParamDecl">
<polygon fill="#ffffff" stroke="#000000" points="117.1133,-150.5 117.1133,-168.5 209.8125,-168.5 209.8125,-150.5 117.1133,-150.5"/>
<text text-anchor="middle" x="163.4629" y="-156.5" font-family="Helvetica,sans-Serif" font-size="10.00" fill="#000000">delta::ParamDecl</text>
</a>
</g>
</g>
<!-- Node3&#45;&gt;Node9 -->
<g id="edge8" class="edge">
<title>Node3&#45;&gt;Node9</title>
<path fill="none" stroke="#191970" d="M131.5935,-216.4096C140.0081,-201.3835 151.637,-180.6176 158.2707,-168.7717"/>
<polygon fill="#191970" stroke="#191970" points="128.4452,-214.8683 126.6129,-225.3035 134.5528,-218.2886 128.4452,-214.8683"/>
</g>
<!-- Node4 -->
<g id="node3" class="node">
<title>Node4</title>
<g id="a_node3"><a xlink:href="structdelta_1_1_type.html" target="_top" xlink:title="delta::Type">
<polygon fill="#ffffff" stroke="#000000" points="0,-225.5 0,-243.5 64.9258,-243.5 64.9258,-225.5 0,-225.5"/>
<text text-anchor="middle" x="32.4629" y="-231.5" font-family="Helvetica,sans-Serif" font-size="10.00" fill="#000000">delta::Type</text>
</a>
</g>
</g>
<!-- Node4&#45;&gt;Node2 -->
<g id="edge2" class="edge">
<title>Node4&#45;&gt;Node2</title>
<path fill="none" stroke="#9a32cd" stroke-dasharray="5,2" d="M30.297,-215.3988C28.2918,-190.438 27.5893,-145.9176 42.877,-112 63.5385,-66.1597 116.2801,-33.4791 144.6792,-18.5683"/>
<polygon fill="#9a32cd" stroke="#9a32cd" points="26.8159,-215.7636 31.2573,-225.3826 33.7837,-215.0934 26.8159,-215.7636"/>
<text text-anchor="middle" x="67.7559" y="-119" font-family="Helvetica,sans-Serif" font-size="10.00" fill="#000000"> returnType</text>
</g>
<!-- Node4&#45;&gt;Node9 -->
<g id="edge9" class="edge">
<title>Node4&#45;&gt;Node9</title>
<path fill="none" stroke="#9a32cd" stroke-dasharray="5,2" d="M55.7923,-220.1066C71.4985,-210.5213 92.7413,-197.7587 111.7832,-187 122.9325,-180.7006 135.626,-173.9403 145.6428,-168.6989"/>
<polygon fill="#9a32cd" stroke="#9a32cd" points="53.9417,-217.1357 47.2429,-225.344 57.5984,-223.1047 53.9417,-217.1357"/>
<text text-anchor="middle" x="122.3027" y="-194" font-family="Helvetica,sans-Serif" font-size="10.00" fill="#000000"> type</text>
</g>
<!-- Node5 -->
<g id="node4" class="node">
<title>Node5</title>
<g id="a_node4"><a xlink:href="structdelta_1_1_src_loc.html" target="_top" xlink:title="delta::SrcLoc">
<polygon fill="#ffffff" stroke="#000000" points="271.2808,-225.5 271.2808,-243.5 345.645,-243.5 345.645,-225.5 271.2808,-225.5"/>
<text text-anchor="middle" x="308.4629" y="-231.5" font-family="Helvetica,sans-Serif" font-size="10.00" fill="#000000">delta::SrcLoc</text>
</a>
</g>
</g>
<!-- Node5&#45;&gt;Node2 -->
<g id="edge3" class="edge">
<title>Node5&#45;&gt;Node2</title>
<path fill="none" stroke="#9a32cd" stroke-dasharray="5,2" d="M310.7023,-215.3047C312.7677,-190.2414 313.4524,-145.6095 297.4629,-112 274.7507,-64.2597 217.4501,-32.8843 185.6272,-18.5302"/>
<polygon fill="#9a32cd" stroke="#9a32cd" points="307.2117,-215.0376 309.7111,-225.3334 314.1778,-215.7262 307.2117,-215.0376"/>
<text text-anchor="middle" x="320.5786" y="-119" font-family="Helvetica,sans-Serif" font-size="10.00" fill="#000000"> srcLoc</text>
</g>
<!-- Node5&#45;&gt;Node9 -->
<g id="edge10" class="edge">
<title>Node5&#45;&gt;Node9</title>
<path fill="none" stroke="#9a32cd" stroke-dasharray="5,2" d="M282.6979,-220.4528C264.9924,-210.8728 240.9018,-197.9811 219.4629,-187 207.1234,-180.6796 193.1234,-173.8046 182.2083,-168.5097"/>
<polygon fill="#9a32cd" stroke="#9a32cd" points="281.361,-223.7094 291.8199,-225.4012 284.6988,-217.5564 281.361,-223.7094"/>
<text text-anchor="middle" x="271.5786" y="-194" font-family="Helvetica,sans-Serif" font-size="10.00" fill="#000000"> srcLoc</text>
</g>
<!-- Node6 -->
<g id="node5" class="node">
<title>Node6</title>
<g id="a_node5"><a xlink:title="STL class. ">
<polygon fill="#ffffff" stroke="#bfbfbf" points="173.7881,-225.5 173.7881,-243.5 233.1377,-243.5 233.1377,-225.5 173.7881,-225.5"/>
<text text-anchor="middle" x="203.4629" y="-231.5" font-family="Helvetica,sans-Serif" font-size="10.00" fill="#000000">std::string</text>
</a>
</g>
</g>
<!-- Node6&#45;&gt;Node2 -->
<g id="edge4" class="edge">
<title>Node6&#45;&gt;Node2</title>
<path fill="none" stroke="#9a32cd" stroke-dasharray="5,2" d="M215.5655,-216.7542C217.1726,-213.6243 218.571,-210.3064 219.4629,-207 226.503,-180.9005 260.003,-227.6823 218.4629,-65 214.9701,-51.3212 212.8792,-47.5186 203.4629,-37 196.9426,-29.7165 188.1185,-23.3873 180.4171,-18.643"/>
<polygon fill="#9a32cd" stroke="#9a32cd" points="212.5365,-214.9999 210.415,-225.3802 218.5467,-218.5885 212.5365,-214.9999"/>
<text text-anchor="middle" x="263.4775" y="-124" font-family="Helvetica,sans-Serif" font-size="10.00" fill="#000000"> receiverType</text>
<text text-anchor="middle" x="263.4775" y="-114" font-family="Helvetica,sans-Serif" font-size="10.00" fill="#000000">name</text>
</g>
<!-- Node6&#45;&gt;Node9 -->
<g id="edge11" class="edge">
<title>Node6&#45;&gt;Node9</title>
<path fill="none" stroke="#9a32cd" stroke-dasharray="5,2" d="M193.8147,-216.4096C185.8008,-201.3835 174.7256,-180.6176 168.4078,-168.7717"/>
<polygon fill="#9a32cd" stroke="#9a32cd" points="190.7639,-218.1271 198.5581,-225.3035 196.9404,-214.8329 190.7639,-218.1271"/>
<text text-anchor="middle" x="201.3594" y="-199" font-family="Helvetica,sans-Serif" font-size="10.00" fill="#000000"> name</text>
<text text-anchor="middle" x="201.3594" y="-189" font-family="Helvetica,sans-Serif" font-size="10.00" fill="#000000">label</text>
</g>
<!-- Node7 -->
<g id="node6" class="node">
<title>Node7</title>
<g id="a_node6"><a xlink:title="STL class. ">
<polygon fill="#ffffff" stroke="#bfbfbf" points="156.415,-281.5 156.415,-309.5 250.5107,-309.5 250.5107,-281.5 156.415,-281.5"/>
<text text-anchor="start" x="164.415" y="-297.5" font-family="Helvetica,sans-Serif" font-size="10.00" fill="#000000">std::basic_string&lt;</text>
<text text-anchor="middle" x="203.4629" y="-287.5" font-family="Helvetica,sans-Serif" font-size="10.00" fill="#000000"> char &gt;</text>
</a>
</g>
</g>
<!-- Node7&#45;&gt;Node6 -->
<g id="edge5" class="edge">
<title>Node7&#45;&gt;Node6</title>
<path fill="none" stroke="#191970" d="M203.4629,-271.1001C203.4629,-261.5157 203.4629,-251.0935 203.4629,-243.831"/>
<polygon fill="#191970" stroke="#191970" points="199.963,-271.352 203.4629,-281.3521 206.963,-271.3521 199.963,-271.352"/>
</g>
<!-- Node8 -->
<g id="node7" class="node">
<title>Node8</title>
<polygon fill="#ffffff" stroke="#bfbfbf" points="117.2476,-65.5 117.2476,-93.5 209.6782,-93.5 209.6782,-65.5 117.2476,-65.5"/>
<text text-anchor="start" x="125.2476" y="-81.5" font-family="Helvetica,sans-Serif" font-size="10.00" fill="#000000">std::vector&lt; delta</text>
<text text-anchor="middle" x="163.4629" y="-71.5" font-family="Helvetica,sans-Serif" font-size="10.00" fill="#000000">::ParamDecl &gt;</text>
</g>
<!-- Node8&#45;&gt;Node2 -->
<g id="edge6" class="edge">
<title>Node8&#45;&gt;Node2</title>
<path fill="none" stroke="#9a32cd" stroke-dasharray="5,2" d="M163.4629,-55.007C163.4629,-42.4648 163.4629,-27.9386 163.4629,-18.7368"/>
<polygon fill="#9a32cd" stroke="#9a32cd" points="159.963,-55.3344 163.4629,-65.3345 166.963,-55.3345 159.963,-55.3344"/>
<text text-anchor="middle" x="181.5244" y="-39" font-family="Helvetica,sans-Serif" font-size="10.00" fill="#000000"> params</text>
</g>
<!-- Node9&#45;&gt;Node8 -->
<g id="edge7" class="edge">
<title>Node9&#45;&gt;Node8</title>
<path fill="none" stroke="#9a32cd" stroke-dasharray="5,2" d="M163.4629,-140.0816C163.4629,-125.7521 163.4629,-106.579 163.4629,-93.6728"/>
<polygon fill="#9a32cd" stroke="#9a32cd" points="159.963,-140.3229 163.4629,-150.323 166.963,-140.323 159.963,-140.3229"/>
<text text-anchor="middle" x="185.1401" y="-119" font-family="Helvetica,sans-Serif" font-size="10.00" fill="#000000"> elements</text>
</g>
</g>
</svg>
