<?xml version="1.0" encoding="UTF-8" standalone="no"?>
<!DOCTYPE svg PUBLIC "-//W3C//DTD SVG 1.1//EN"
 "http://www.w3.org/Graphics/SVG/1.1/DTD/svg11.dtd">
<!-- Generated by graphviz version 2.40.1 (20161225.0304)
 -->
<!-- Title: delta::SwitchStmt Pages: 1 -->
<svg width="966pt" height="135pt"
 viewBox="0.00 0.00 965.75 134.50" xmlns="http://www.w3.org/2000/svg" xmlns:xlink="http://www.w3.org/1999/xlink">
<g id="graph0" class="graph" transform="scale(1 1) rotate(0) translate(4 130.5)">
<title>delta::SwitchStmt</title>
<polygon fill="#ffffff" stroke="transparent" points="-4,4 -4,-130.5 961.748,-130.5 961.748,4 -4,4"/>
<!-- Node2 -->
<g id="node1" class="node">
<title>Node2</title>
<polygon fill="#bfbfbf" stroke="#000000" points="864.4971,-66.5 864.4971,-84.5 957.748,-84.5 957.748,-66.5 864.4971,-66.5"/>
<text text-anchor="middle" x="911.1226" y="-72.5" font-family="Helvetica,sans-Serif" font-size="10.00" fill="#000000">delta::SwitchStmt</text>
</g>
<!-- Node3 -->
<g id="node2" class="node">
<title>Node3</title>
<g id="a_node2"><a xlink:href="classdelta_1_1_stmt.html" target="_top" xlink:title="delta::Stmt">
<polygon fill="#ffffff" stroke="#000000" points="5.2832,-104.5 5.2832,-122.5 69.0811,-122.5 69.0811,-104.5 5.2832,-104.5"/>
<text text-anchor="middle" x="37.1821" y="-110.5" font-family="Helvetica,sans-Serif" font-size="10.00" fill="#000000">delta::Stmt</text>
</a>
</g>
</g>
<!-- Node3&#45;&gt;Node2 -->
<g id="edge1" class="edge">
<title>Node3&#45;&gt;Node2</title>
<path fill="none" stroke="#191970" d="M79.3951,-118.7595C111.9669,-122.3653 158.1787,-126.5 198.8257,-126.5 198.8257,-126.5 198.8257,-126.5 753.3804,-126.5 807.2019,-126.5 866.5623,-99.2872 894.6513,-84.6178"/>
<polygon fill="#191970" stroke="#191970" points="79.6551,-115.2666 69.3234,-117.6133 78.8635,-122.2217 79.6551,-115.2666"/>
</g>
<!-- Node8 -->
<g id="node7" class="node">
<title>Node8</title>
<polygon fill="#ffffff" stroke="#bfbfbf" points="142.5957,-69.5 142.5957,-97.5 255.0557,-97.5 255.0557,-69.5 142.5957,-69.5"/>
<text text-anchor="start" x="150.5957" y="-85.5" font-family="Helvetica,sans-Serif" font-size="10.00" fill="#000000">std::unique_ptr&lt; delta</text>
<text text-anchor="middle" x="198.8257" y="-75.5" font-family="Helvetica,sans-Serif" font-size="10.00" fill="#000000">::Stmt &gt;</text>
</g>
<!-- Node3&#45;&gt;Node8 -->
<g id="edge7" class="edge">
<title>Node3&#45;&gt;Node8</title>
<path fill="none" stroke="#9a32cd" stroke-dasharray="5,2" d="M79.3822,-104.9971C83.7639,-104.1414 88.1527,-103.2955 92.3643,-102.5 108.5991,-99.4335 126.2524,-96.2301 142.4306,-93.3463"/>
<polygon fill="#9a32cd" stroke="#9a32cd" points="78.3927,-101.6247 69.2583,-106.9924 79.7463,-108.4926 78.3927,-101.6247"/>
<text text-anchor="middle" x="108.48" y="-104.5" font-family="Helvetica,sans-Serif" font-size="10.00" fill="#000000"> ptr</text>
</g>
<!-- Node4 -->
<g id="node3" class="node">
<title>Node4</title>
<polygon fill="#ffffff" stroke="#bfbfbf" points="338.0161,-.5 338.0161,-28.5 450.4761,-28.5 450.4761,-.5 338.0161,-.5"/>
<text text-anchor="start" x="346.0161" y="-16.5" font-family="Helvetica,sans-Serif" font-size="10.00" fill="#000000">std::unique_ptr&lt; delta</text>
<text text-anchor="middle" x="394.2461" y="-6.5" font-family="Helvetica,sans-Serif" font-size="10.00" fill="#000000">::Expr &gt;</text>
</g>
<!-- Node4&#45;&gt;Node2 -->
<g id="edge2" class="edge">
<title>Node4&#45;&gt;Node2</title>
<path fill="none" stroke="#9a32cd" stroke-dasharray="5,2" d="M460.6842,-7.0007C541.8863,.2017 682.8924,6.3296 799.5957,-21.5 837.2621,-30.4821 877.0973,-53.5299 897.4297,-66.4229"/>
<polygon fill="#9a32cd" stroke="#9a32cd" points="460.2373,-3.527 450.5999,-7.9282 460.8785,-10.4975 460.2373,-3.527"/>
<text text-anchor="middle" x="659.9854" y="-6.5" font-family="Helvetica,sans-Serif" font-size="10.00" fill="#000000"> condition</text>
</g>
<!-- Node10 -->
<g id="node9" class="node">
<title>Node10</title>
<g id="a_node9"><a xlink:href="classdelta_1_1_switch_case.html" target="_top" xlink:title="delta::SwitchCase">
<polygon fill="#ffffff" stroke="#000000" points="516.7666,-36.5 516.7666,-54.5 612.8057,-54.5 612.8057,-36.5 516.7666,-36.5"/>
<text text-anchor="middle" x="564.7861" y="-42.5" font-family="Helvetica,sans-Serif" font-size="10.00" fill="#000000">delta::SwitchCase</text>
</a>
</g>
</g>
<!-- Node4&#45;&gt;Node10 -->
<g id="edge10" class="edge">
<title>Node4&#45;&gt;Node10</title>
<path fill="none" stroke="#9a32cd" stroke-dasharray="5,2" d="M460.7584,-24.8294C473.3986,-26.9307 486.5042,-29.204 498.7666,-31.5 506.8281,-33.0095 515.4172,-34.7402 523.6425,-36.4583"/>
<polygon fill="#9a32cd" stroke="#9a32cd" points="461.1812,-21.352 450.746,-23.1839 460.046,-28.2593 461.1812,-21.352"/>
<text text-anchor="middle" x="485.4243" y="-33.5" font-family="Helvetica,sans-Serif" font-size="10.00" fill="#000000"> value</text>
</g>
<!-- Node5 -->
<g id="node4" class="node">
<title>Node5</title>
<g id="a_node4"><a xlink:href="classdelta_1_1_expr.html" target="_top" xlink:title="delta::Expr">
<polygon fill="#ffffff" stroke="#000000" points="166.9243,-5.5 166.9243,-23.5 230.7271,-23.5 230.7271,-5.5 166.9243,-5.5"/>
<text text-anchor="middle" x="198.8257" y="-11.5" font-family="Helvetica,sans-Serif" font-size="10.00" fill="#000000">delta::Expr</text>
</a>
</g>
</g>
<!-- Node5&#45;&gt;Node4 -->
<g id="edge3" class="edge">
<title>Node5&#45;&gt;Node4</title>
<path fill="none" stroke="#9a32cd" stroke-dasharray="5,2" d="M241.4451,-14.5C269.7019,-14.5 307.0892,-14.5 337.8085,-14.5"/>
<polygon fill="#9a32cd" stroke="#9a32cd" points="241.0954,-11.0001 231.0954,-14.5 241.0954,-18.0001 241.0954,-11.0001"/>
<text text-anchor="middle" x="294.7329" y="-16.5" font-family="Helvetica,sans-Serif" font-size="10.00" fill="#000000"> ptr</text>
</g>
<!-- Node6 -->
<g id="node5" class="node">
<title>Node6</title>
<g id="a_node5"><a xlink:href="structdelta_1_1_src_loc.html" target="_top" xlink:title="delta::SrcLoc">
<polygon fill="#ffffff" stroke="#000000" points="0,-5.5 0,-23.5 74.3643,-23.5 74.3643,-5.5 0,-5.5"/>
<text text-anchor="middle" x="37.1821" y="-11.5" font-family="Helvetica,sans-Serif" font-size="10.00" fill="#000000">delta::SrcLoc</text>
</a>
</g>
</g>
<!-- Node6&#45;&gt;Node5 -->
<g id="edge4" class="edge">
<title>Node6&#45;&gt;Node5</title>
<path fill="none" stroke="#9a32cd" stroke-dasharray="5,2" d="M84.8452,-14.5C111.2313,-14.5 143.3216,-14.5 166.721,-14.5"/>
<polygon fill="#9a32cd" stroke="#9a32cd" points="84.6727,-11.0001 74.6727,-14.5 84.6727,-18.0001 84.6727,-11.0001"/>
<text text-anchor="middle" x="108.48" y="-16.5" font-family="Helvetica,sans-Serif" font-size="10.00" fill="#000000"> srcLoc</text>
</g>
<!-- Node7 -->
<g id="node6" class="node">
<title>Node7</title>
<polygon fill="#ffffff" stroke="#bfbfbf" points="334.4102,-69.5 334.4102,-97.5 454.082,-97.5 454.082,-69.5 334.4102,-69.5"/>
<text text-anchor="start" x="342.4102" y="-85.5" font-family="Helvetica,sans-Serif" font-size="10.00" fill="#000000">std::vector&lt; std::unique</text>
<text text-anchor="middle" x="394.2461" y="-75.5" font-family="Helvetica,sans-Serif" font-size="10.00" fill="#000000">_ptr&lt; delta::Stmt &gt; &gt;</text>
</g>
<!-- Node7&#45;&gt;Node2 -->
<g id="edge5" class="edge">
<title>Node7&#45;&gt;Node2</title>
<path fill="none" stroke="#9a32cd" stroke-dasharray="5,2" d="M464.3692,-82.4147C571.5767,-80.7554 773.3569,-77.6323 864.428,-76.2227"/>
<polygon fill="#9a32cd" stroke="#9a32cd" points="464.241,-78.9161 454.2964,-82.5706 464.3494,-85.9153 464.241,-78.9161"/>
<text text-anchor="middle" x="659.9854" y="-81.5" font-family="Helvetica,sans-Serif" font-size="10.00" fill="#000000"> defaultStmts</text>
</g>
<!-- Node7&#45;&gt;Node10 -->
<g id="edge11" class="edge">
<title>Node7&#45;&gt;Node10</title>
<path fill="none" stroke="#9a32cd" stroke-dasharray="5,2" d="M460.4952,-67.1512C464.4122,-66.2396 468.2966,-65.3496 472.082,-64.5 487.3107,-61.082 504.0032,-57.5843 518.9759,-54.5367"/>
<polygon fill="#9a32cd" stroke="#9a32cd" points="459.6611,-63.7517 450.7294,-69.4505 461.2654,-70.5654 459.6611,-63.7517"/>
<text text-anchor="middle" x="485.4243" y="-66.5" font-family="Helvetica,sans-Serif" font-size="10.00" fill="#000000"> stmts</text>
</g>
<!-- Node8&#45;&gt;Node7 -->
<g id="edge6" class="edge">
<title>Node8&#45;&gt;Node7</title>
<path fill="none" stroke="#9a32cd" stroke-dasharray="5,2" d="M265.1829,-83.5C287.5749,-83.5 312.4241,-83.5 334.2917,-83.5"/>
<polygon fill="#9a32cd" stroke="#9a32cd" points="265.0872,-80.0001 255.0872,-83.5 265.0871,-87.0001 265.0872,-80.0001"/>
<text text-anchor="middle" x="294.7329" y="-85.5" font-family="Helvetica,sans-Serif" font-size="10.00" fill="#000000"> elements</text>
</g>
<!-- Node9 -->
<g id="node8" class="node">
<title>Node9</title>
<polygon fill="#ffffff" stroke="#bfbfbf" points="707.165,-31.5 707.165,-59.5 799.5957,-59.5 799.5957,-31.5 707.165,-31.5"/>
<text text-anchor="start" x="715.165" y="-47.5" font-family="Helvetica,sans-Serif" font-size="10.00" fill="#000000">std::vector&lt; delta</text>
<text text-anchor="middle" x="753.3804" y="-37.5" font-family="Helvetica,sans-Serif" font-size="10.00" fill="#000000">::SwitchCase &gt;</text>
</g>
<!-- Node9&#45;&gt;Node2 -->
<g id="edge8" class="edge">
<title>Node9&#45;&gt;Node2</title>
<path fill="none" stroke="#9a32cd" stroke-dasharray="5,2" d="M810.1252,-56.2919C827.9419,-59.6804 847.3976,-63.3806 864.435,-66.6208"/>
<polygon fill="#9a32cd" stroke="#9a32cd" points="810.3329,-52.7688 799.8551,-54.3387 809.025,-59.6455 810.3329,-52.7688"/>
<text text-anchor="middle" x="832.0464" y="-64.5" font-family="Helvetica,sans-Serif" font-size="10.00" fill="#000000"> cases</text>
</g>
<!-- Node10&#45;&gt;Node9 -->
<g id="edge9" class="edge">
<title>Node10&#45;&gt;Node9</title>
<path fill="none" stroke="#9a32cd" stroke-dasharray="5,2" d="M622.9665,-45.5C649.9796,-45.5 681.6509,-45.5 707.0176,-45.5"/>
<polygon fill="#9a32cd" stroke="#9a32cd" points="622.8644,-42.0001 612.8644,-45.5 622.8644,-49.0001 622.8644,-42.0001"/>
<text text-anchor="middle" x="659.9854" y="-47.5" font-family="Helvetica,sans-Serif" font-size="10.00" fill="#000000"> elements</text>
</g>
</g>
</svg>
