<?xml version="1.0" encoding="UTF-8" standalone="no"?>
<!DOCTYPE svg PUBLIC "-//W3C//DTD SVG 1.1//EN"
 "http://www.w3.org/Graphics/SVG/1.1/DTD/svg11.dtd">
<!-- Generated by graphviz version 2.40.1 (20161225.0304)
 -->
<!-- Title: delta::DeinitDecl::getTypeName Pages: 1 -->
<svg width="430pt" height="101pt"
 viewBox="0.00 0.00 429.85 101.00" xmlns="http://www.w3.org/2000/svg" xmlns:xlink="http://www.w3.org/1999/xlink">
<g id="graph0" class="graph" transform="scale(1 1) rotate(0) translate(4 97)">
<title>delta::DeinitDecl::getTypeName</title>
<polygon fill="#ffffff" stroke="transparent" points="-4,4 -4,-97 425.8457,-97 425.8457,4 -4,4"/>
<!-- Node4 -->
<g id="node1" class="node">
<title>Node4</title>
<polygon fill="#bfbfbf" stroke="#000000" points="0,-32.5 0,-60.5 94.3691,-60.5 94.3691,-32.5 0,-32.5"/>
<text text-anchor="start" x="8" y="-48.5" font-family="Helvetica,sans-Serif" font-size="10.00" fill="#000000">delta::DeinitDecl::</text>
<text text-anchor="middle" x="47.1846" y="-38.5" font-family="Helvetica,sans-Serif" font-size="10.00" fill="#000000">getTypeName</text>
</g>
<!-- Node5 -->
<g id="node2" class="node">
<title>Node5</title>
<g id="a_node2"><a xlink:href="namespacedelta.html#ab6c2ddf5b58f75de28c6c6931b45b814" target="_top" xlink:title="delta::mangle">
<polygon fill="#ffffff" stroke="#000000" points="156.2188,-74.5 156.2188,-92.5 232.2578,-92.5 232.2578,-74.5 156.2188,-74.5"/>
<text text-anchor="middle" x="194.2383" y="-80.5" font-family="Helvetica,sans-Serif" font-size="10.00" fill="#000000">delta::mangle</text>
</a>
</g>
</g>
<!-- Node4&#45;&gt;Node5 -->
<g id="edge1" class="edge">
<title>Node4&#45;&gt;Node5</title>
<path fill="none" stroke="#191970" d="M104.4071,-60.8977C122.5097,-65.4525 142.0007,-70.3566 158.1855,-74.4288"/>
<polygon fill="#191970" stroke="#191970" points="105.0745,-57.4566 94.5227,-58.4107 103.3664,-64.245 105.0745,-57.4566"/>
</g>
<!-- Node6 -->
<g id="node3" class="node">
<title>Node6</title>
<g id="a_node3"><a xlink:href="namespacedelta.html#aee04758561a6b4ea9f4ad0a2ace54f96" target="_top" xlink:title="delta::addToSymbolTable">
<polygon fill="#ffffff" stroke="#000000" points="130.3691,-37.5 130.3691,-55.5 258.1074,-55.5 258.1074,-37.5 130.3691,-37.5"/>
<text text-anchor="middle" x="194.2383" y="-43.5" font-family="Helvetica,sans-Serif" font-size="10.00" fill="#000000">delta::addToSymbolTable</text>
</a>
</g>
</g>
<!-- Node4&#45;&gt;Node6 -->
<g id="edge2" class="edge">
<title>Node4&#45;&gt;Node6</title>
<path fill="none" stroke="#191970" d="M104.6361,-46.5C113.0741,-46.5 121.8091,-46.5 130.3666,-46.5"/>
<polygon fill="#191970" stroke="#191970" points="104.5228,-43.0001 94.5227,-46.5 104.5227,-50.0001 104.5228,-43.0001"/>
</g>
<!-- Node7 -->
<g id="node4" class="node">
<title>Node7</title>
<g id="a_node4"><a xlink:href="namespacedelta.html#afbcc11c583968bc13aa34e5c3d58e54b" target="_top" xlink:title="delta::findInSymbolTable">
<polygon fill="#ffffff" stroke="#000000" points="131.7607,-.5 131.7607,-18.5 256.7158,-18.5 256.7158,-.5 131.7607,-.5"/>
<text text-anchor="middle" x="194.2383" y="-6.5" font-family="Helvetica,sans-Serif" font-size="10.00" fill="#000000">delta::findInSymbolTable</text>
</a>
</g>
</g>
<!-- Node4&#45;&gt;Node7 -->
<g id="edge3" class="edge">
<title>Node4&#45;&gt;Node7</title>
<path fill="none" stroke="#191970" d="M104.4071,-32.1023C122.5097,-27.5475 142.0007,-22.6434 158.1855,-18.5712"/>
<polygon fill="#191970" stroke="#191970" points="103.3664,-28.755 94.5227,-34.5893 105.0745,-35.5434 103.3664,-28.755"/>
</g>
<!-- Node8 -->
<g id="node5" class="node">
<title>Node8</title>
<g id="a_node5"><a xlink:href="namespacedelta.html#abf78cd71ca70d4a49c0e9c3ac2e06d87" target="_top" xlink:title="delta::addToSymbolTable">
<polygon fill="#ffffff" stroke="#000000" points="294.1074,-.5 294.1074,-18.5 421.8457,-18.5 421.8457,-.5 294.1074,-.5"/>
<text text-anchor="middle" x="357.9766" y="-6.5" font-family="Helvetica,sans-Serif" font-size="10.00" fill="#000000">delta::addToSymbolTable</text>
</a>
</g>
</g>
<!-- Node7&#45;&gt;Node8 -->
<g id="edge4" class="edge">
<title>Node7&#45;&gt;Node8</title>
<path fill="none" stroke="#191970" d="M267.0971,-9.5C276.0486,-9.5 285.1456,-9.5 293.9529,-9.5"/>
<polygon fill="#191970" stroke="#191970" points="267.0755,-6.0001 257.0755,-9.5 267.0755,-13.0001 267.0755,-6.0001"/>
</g>
</g>
</svg>
