<?xml version="1.0" encoding="UTF-8" standalone="no"?>
<!DOCTYPE svg PUBLIC "-//W3C//DTD SVG 1.1//EN"
 "http://www.w3.org/Graphics/SVG/1.1/DTD/svg11.dtd">
<!-- Generated by graphviz version 2.40.1 (20161225.0304)
 -->
<!-- Title: delta::TypeBase::getKind Pages: 1 -->
<svg width="438pt" height="295pt"
 viewBox="0.00 0.00 438.39 295.00" xmlns="http://www.w3.org/2000/svg" xmlns:xlink="http://www.w3.org/1999/xlink">
<g id="graph0" class="graph" transform="scale(1 1) rotate(0) translate(4 291)">
<title>delta::TypeBase::getKind</title>
<polygon fill="#ffffff" stroke="transparent" points="-4,4 -4,-291 434.3906,-291 434.3906,4 -4,4"/>
<!-- Node2 -->
<g id="node1" class="node">
<title>Node2</title>
<polygon fill="#bfbfbf" stroke="#000000" points="0,-111.5 0,-129.5 127.1914,-129.5 127.1914,-111.5 0,-111.5"/>
<text text-anchor="middle" x="63.5957" y="-117.5" font-family="Helvetica,sans-Serif" font-size="10.00" fill="#000000">delta::TypeBase::getKind</text>
</g>
<!-- Node3 -->
<g id="node2" class="node">
<title>Node3</title>
<g id="a_node2"><a xlink:href="structdelta_1_1_type.html#a16a719104a088d92388e5a5d0f28981f" target="_top" xlink:title="delta::Type::isImplicitly\lConvertibleTo">
<polygon fill="#ffffff" stroke="#000000" points="168.2988,-240.5 168.2988,-268.5 284.3379,-268.5 284.3379,-240.5 168.2988,-240.5"/>
<text text-anchor="start" x="176.2988" y="-256.5" font-family="Helvetica,sans-Serif" font-size="10.00" fill="#000000">delta::Type::isImplicitly</text>
<text text-anchor="middle" x="226.3184" y="-246.5" font-family="Helvetica,sans-Serif" font-size="10.00" fill="#000000">ConvertibleTo</text>
</a>
</g>
</g>
<!-- Node2&#45;&gt;Node3 -->
<g id="edge1" class="edge">
<title>Node2&#45;&gt;Node3</title>
<path fill="none" stroke="#191970" d="M75.2226,-138.1726C91.982,-162.3792 125.1302,-205.77 163.1914,-231.5 168.2164,-234.897 173.8045,-237.8629 179.5198,-240.4327"/>
<polygon fill="#191970" stroke="#191970" points="77.9459,-135.952 69.4416,-129.6332 72.1493,-139.8762 77.9459,-135.952"/>
</g>
<!-- Node4 -->
<g id="node3" class="node">
<title>Node4</title>
<g id="a_node3"><a xlink:href="structdelta_1_1_type.html#ad33f5df1e06c20291060f7a33912bd18" target="_top" xlink:title="delta::Type::printTo">
<polygon fill="#ffffff" stroke="#000000" points="176.0698,-185.5 176.0698,-203.5 276.5669,-203.5 276.5669,-185.5 176.0698,-185.5"/>
<text text-anchor="middle" x="226.3184" y="-191.5" font-family="Helvetica,sans-Serif" font-size="10.00" fill="#000000">delta::Type::printTo</text>
</a>
</g>
</g>
<!-- Node2&#45;&gt;Node4 -->
<g id="edge3" class="edge">
<title>Node2&#45;&gt;Node4</title>
<path fill="none" stroke="#191970" d="M85.7971,-134.9879C105.4926,-147.3452 135.3727,-164.9023 163.1914,-176.5 171.3961,-179.9206 180.4614,-182.9277 189.1012,-185.4559"/>
<polygon fill="#191970" stroke="#191970" points="87.5704,-131.9678 77.2545,-129.5524 83.8126,-137.8737 87.5704,-131.9678"/>
</g>
<!-- Node7 -->
<g id="node6" class="node">
<title>Node7</title>
<g id="a_node6"><a xlink:href="classdelta_1_1_basic_type.html#ad451f8bd6f09e35eb620dd9e8412981d" target="_top" xlink:title="delta::BasicType::classof">
<polygon fill="#ffffff" stroke="#000000" points="163.2891,-148.5 163.2891,-166.5 289.3477,-166.5 289.3477,-148.5 163.2891,-148.5"/>
<text text-anchor="middle" x="226.3184" y="-154.5" font-family="Helvetica,sans-Serif" font-size="10.00" fill="#000000">delta::BasicType::classof</text>
</a>
</g>
</g>
<!-- Node2&#45;&gt;Node7 -->
<g id="edge7" class="edge">
<title>Node2&#45;&gt;Node7</title>
<path fill="none" stroke="#191970" d="M113.2085,-131.781C136.7582,-137.1357 164.5168,-143.4475 186.6412,-148.4782"/>
<polygon fill="#191970" stroke="#191970" points="113.9293,-128.3556 103.4021,-129.5512 112.3772,-135.1814 113.9293,-128.3556"/>
</g>
<!-- Node8 -->
<g id="node7" class="node">
<title>Node8</title>
<g id="a_node7"><a xlink:href="classdelta_1_1_array_type.html#a64b3037d79535f85bdddccb77b56bd3b" target="_top" xlink:title="delta::ArrayType::classof">
<polygon fill="#ffffff" stroke="#000000" points="163.5698,-111.5 163.5698,-129.5 289.0669,-129.5 289.0669,-111.5 163.5698,-111.5"/>
<text text-anchor="middle" x="226.3184" y="-117.5" font-family="Helvetica,sans-Serif" font-size="10.00" fill="#000000">delta::ArrayType::classof</text>
</a>
</g>
</g>
<!-- Node2&#45;&gt;Node8 -->
<g id="edge8" class="edge">
<title>Node2&#45;&gt;Node8</title>
<path fill="none" stroke="#191970" d="M137.5323,-120.5C146.1932,-120.5 154.9672,-120.5 163.4574,-120.5"/>
<polygon fill="#191970" stroke="#191970" points="137.441,-117.0001 127.441,-120.5 137.4409,-124.0001 137.441,-117.0001"/>
</g>
<!-- Node9 -->
<g id="node8" class="node">
<title>Node9</title>
<g id="a_node8"><a xlink:href="classdelta_1_1_tuple_type.html#a686fc67ac17cd3e34151f6009abd0b54" target="_top" xlink:title="delta::TupleType::classof">
<polygon fill="#ffffff" stroke="#000000" points="163.1914,-74.5 163.1914,-92.5 289.4453,-92.5 289.4453,-74.5 163.1914,-74.5"/>
<text text-anchor="middle" x="226.3184" y="-80.5" font-family="Helvetica,sans-Serif" font-size="10.00" fill="#000000">delta::TupleType::classof</text>
</a>
</g>
</g>
<!-- Node2&#45;&gt;Node9 -->
<g id="edge9" class="edge">
<title>Node2&#45;&gt;Node9</title>
<path fill="none" stroke="#191970" d="M113.2085,-109.219C136.7582,-103.8643 164.5168,-97.5525 186.6412,-92.5218"/>
<polygon fill="#191970" stroke="#191970" points="112.3772,-105.8186 103.4021,-111.4488 113.9293,-112.6444 112.3772,-105.8186"/>
</g>
<!-- Node10 -->
<g id="node9" class="node">
<title>Node10</title>
<g id="a_node9"><a xlink:href="classdelta_1_1_func_type.html#abe18a78abd71abea02e291a67c2510b7" target="_top" xlink:title="delta::FuncType::classof">
<polygon fill="#ffffff" stroke="#000000" points="164.3999,-37.5 164.3999,-55.5 288.2368,-55.5 288.2368,-37.5 164.3999,-37.5"/>
<text text-anchor="middle" x="226.3184" y="-43.5" font-family="Helvetica,sans-Serif" font-size="10.00" fill="#000000">delta::FuncType::classof</text>
</a>
</g>
</g>
<!-- Node2&#45;&gt;Node10 -->
<g id="edge10" class="edge">
<title>Node2&#45;&gt;Node10</title>
<path fill="none" stroke="#191970" d="M86.2134,-106.1905C105.9614,-94.1451 135.6885,-77.078 163.1914,-65.5 172.1577,-61.7254 182.1292,-58.3627 191.45,-55.5546"/>
<polygon fill="#191970" stroke="#191970" points="84.2975,-103.2599 77.6301,-111.4938 87.977,-109.2149 84.2975,-103.2599"/>
</g>
<!-- Node11 -->
<g id="node10" class="node">
<title>Node11</title>
<g id="a_node10"><a xlink:href="classdelta_1_1_ptr_type.html#ada68d169a87da36cc9a55a3d1ba12d00" target="_top" xlink:title="delta::PtrType::classof">
<polygon fill="#ffffff" stroke="#000000" points="169.1265,-.5 169.1265,-18.5 283.5103,-18.5 283.5103,-.5 169.1265,-.5"/>
<text text-anchor="middle" x="226.3184" y="-6.5" font-family="Helvetica,sans-Serif" font-size="10.00" fill="#000000">delta::PtrType::classof</text>
</a>
</g>
</g>
<!-- Node2&#45;&gt;Node11 -->
<g id="edge11" class="edge">
<title>Node2&#45;&gt;Node11</title>
<path fill="none" stroke="#191970" d="M77.5286,-103.5921C95.3534,-83.0095 128.1392,-48.5261 163.1914,-28.5 170.3465,-24.4121 178.4703,-21.1208 186.452,-18.5012"/>
<polygon fill="#191970" stroke="#191970" points="74.639,-101.5882 70.8424,-111.4794 79.9786,-106.1146 74.639,-101.5882"/>
</g>
<!-- Node3&#45;&gt;Node3 -->
<g id="edge2" class="edge">
<title>Node3&#45;&gt;Node3</title>
<path fill="none" stroke="#191970" d="M199.2028,-278.4873C202.0821,-283.4413 211.1206,-287 226.3184,-287 250.6348,-287 259.1835,-277.8898 251.9646,-268.5305"/>
<polygon fill="#191970" stroke="#191970" points="202.6747,-278.9343 200.6721,-268.5305 195.7497,-277.9124 202.6747,-278.9343"/>
</g>
<!-- Node4&#45;&gt;Node4 -->
<g id="edge4" class="edge">
<title>Node4&#45;&gt;Node4</title>
<path fill="none" stroke="#191970" d="M198.1934,-211.7043C198.2117,-217.4256 207.5867,-222 226.3184,-222 253.5645,-222 261.0146,-212.322 248.6687,-203.5134"/>
<polygon fill="#191970" stroke="#191970" points="201.0665,-213.7032 203.968,-203.5134 195.3453,-209.6697 201.0665,-213.7032"/>
</g>
<!-- Node5 -->
<g id="node4" class="node">
<title>Node5</title>
<g id="a_node4"><a xlink:href="structdelta_1_1_type.html#a98ef8c2e4a833d7c8db893fd14f9e466" target="_top" xlink:title="delta::Type::toString">
<polygon fill="#ffffff" stroke="#000000" points="325.4453,-203.5 325.4453,-221.5 430.3906,-221.5 430.3906,-203.5 325.4453,-203.5"/>
<text text-anchor="middle" x="377.918" y="-209.5" font-family="Helvetica,sans-Serif" font-size="10.00" fill="#000000">delta::Type::toString</text>
</a>
</g>
</g>
<!-- Node4&#45;&gt;Node5 -->
<g id="edge5" class="edge">
<title>Node4&#45;&gt;Node5</title>
<path fill="none" stroke="#191970" d="M286.851,-201.6873C299.5816,-203.1988 312.9115,-204.7815 325.3229,-206.2552"/>
<polygon fill="#191970" stroke="#191970" points="287.1418,-198.1973 276.7988,-200.4937 286.3164,-205.1485 287.1418,-198.1973"/>
</g>
<!-- Node6 -->
<g id="node5" class="node">
<title>Node6</title>
<g id="a_node5"><a xlink:href="namespacedelta.html#a679bd697f2c5acfcb9361ff45a7eeef1" target="_top" xlink:title="delta::operator\&lt;\&lt;">
<polygon fill="#ffffff" stroke="#000000" points="331.8345,-166.5 331.8345,-184.5 424.0015,-184.5 424.0015,-166.5 331.8345,-166.5"/>
<text text-anchor="middle" x="377.918" y="-172.5" font-family="Helvetica,sans-Serif" font-size="10.00" fill="#000000">delta::operator&lt;&lt;</text>
</a>
</g>
</g>
<!-- Node4&#45;&gt;Node6 -->
<g id="edge6" class="edge">
<title>Node4&#45;&gt;Node6</title>
<path fill="none" stroke="#191970" d="M286.9701,-186.8985C301.8938,-185.0281 317.6341,-183.0554 331.748,-181.2865"/>
<polygon fill="#191970" stroke="#191970" points="286.2859,-183.4568 276.7988,-188.1733 287.1565,-190.4024 286.2859,-183.4568"/>
</g>
</g>
</svg>
