<?xml version="1.0" encoding="UTF-8" standalone="no"?>
<!DOCTYPE svg PUBLIC "-//W3C//DTD SVG 1.1//EN"
 "http://www.w3.org/Graphics/SVG/1.1/DTD/svg11.dtd">
<!-- Generated by graphviz version 2.40.1 (20161225.0304)
 -->
<!-- Title: delta::InitDecl::getTypeName Pages: 1 -->
<svg width="477pt" height="103pt"
 viewBox="0.00 0.00 477.10 103.00" xmlns="http://www.w3.org/2000/svg" xmlns:xlink="http://www.w3.org/1999/xlink">
<g id="graph0" class="graph" transform="scale(1 1) rotate(0) translate(4 99)">
<title>delta::InitDecl::getTypeName</title>
<polygon fill="#ffffff" stroke="transparent" points="-4,4 -4,-99 473.0967,-99 473.0967,4 -4,4"/>
<!-- Node4 -->
<g id="node1" class="node">
<title>Node4</title>
<polygon fill="#bfbfbf" stroke="#000000" points="0,-38.5 0,-56.5 144.4033,-56.5 144.4033,-38.5 0,-38.5"/>
<text text-anchor="middle" x="72.2017" y="-44.5" font-family="Helvetica,sans-Serif" font-size="10.00" fill="#000000">delta::InitDecl::getTypeName</text>
</g>
<!-- Node5 -->
<g id="node2" class="node">
<title>Node5</title>
<g id="a_node2"><a xlink:href="namespacedelta.html#abefeea249e7830a48c41a7e576bf0564" target="_top" xlink:title="delta::mangle">
<polygon fill="#ffffff" stroke="#000000" points="204.8613,-76.5 204.8613,-94.5 280.9004,-94.5 280.9004,-76.5 204.8613,-76.5"/>
<text text-anchor="middle" x="242.8809" y="-82.5" font-family="Helvetica,sans-Serif" font-size="10.00" fill="#000000">delta::mangle</text>
</a>
</g>
</g>
<!-- Node4&#45;&gt;Node5 -->
<g id="edge1" class="edge">
<title>Node4&#45;&gt;Node5</title>
<path fill="none" stroke="#191970" d="M122.4488,-58.687C148.7742,-64.5481 180.4945,-71.6103 204.7713,-77.0153"/>
<polygon fill="#191970" stroke="#191970" points="123.1719,-55.2624 112.6502,-56.5055 121.6506,-62.0951 123.1719,-55.2624"/>
</g>
<!-- Node6 -->
<g id="node3" class="node">
<title>Node6</title>
<g id="a_node3"><a xlink:href="namespacedelta.html#abf78cd71ca70d4a49c0e9c3ac2e06d87" target="_top" xlink:title="delta::addToSymbolTable">
<polygon fill="#ffffff" stroke="#000000" points="341.3584,-19.5 341.3584,-37.5 469.0967,-37.5 469.0967,-19.5 341.3584,-19.5"/>
<text text-anchor="middle" x="405.2275" y="-25.5" font-family="Helvetica,sans-Serif" font-size="10.00" fill="#000000">delta::addToSymbolTable</text>
</a>
</g>
</g>
<!-- Node4&#45;&gt;Node6 -->
<g id="edge2" class="edge">
<title>Node4&#45;&gt;Node6</title>
<path fill="none" stroke="#191970" d="M154.6413,-42.7966C212.2903,-39.5076 288.1661,-35.1787 341.2616,-32.1494"/>
<polygon fill="#191970" stroke="#191970" points="154.2477,-39.3133 144.4633,-43.3773 154.6465,-46.3019 154.2477,-39.3133"/>
</g>
<!-- Node7 -->
<g id="node4" class="node">
<title>Node7</title>
<g id="a_node4"><a xlink:href="namespacedelta.html#afbcc11c583968bc13aa34e5c3d58e54b" target="_top" xlink:title="delta::findInSymbolTable">
<polygon fill="#ffffff" stroke="#000000" points="180.4033,-.5 180.4033,-18.5 305.3584,-18.5 305.3584,-.5 180.4033,-.5"/>
<text text-anchor="middle" x="242.8809" y="-6.5" font-family="Helvetica,sans-Serif" font-size="10.00" fill="#000000">delta::findInSymbolTable</text>
</a>
</g>
</g>
<!-- Node4&#45;&gt;Node7 -->
<g id="edge3" class="edge">
<title>Node4&#45;&gt;Node7</title>
<path fill="none" stroke="#191970" d="M122.5017,-36.3012C147.9772,-30.6294 178.4941,-23.8351 202.4272,-18.5066"/>
<polygon fill="#191970" stroke="#191970" points="121.6506,-32.9049 112.6502,-38.4945 123.1719,-39.7376 121.6506,-32.9049"/>
</g>
<!-- Node7&#45;&gt;Node6 -->
<g id="edge4" class="edge">
<title>Node7&#45;&gt;Node6</title>
<path fill="none" stroke="#191970" d="M315.6151,-18.0123C324.1746,-19.0141 332.8606,-20.0306 341.2869,-21.0168"/>
<polygon fill="#191970" stroke="#191970" points="315.9874,-14.5321 305.6483,-16.8459 315.1737,-21.4847 315.9874,-14.5321"/>
</g>
</g>
</svg>
