<?xml version="1.0" encoding="UTF-8" standalone="no"?>
<!DOCTYPE svg PUBLIC "-//W3C//DTD SVG 1.1//EN"
 "http://www.w3.org/Graphics/SVG/1.1/DTD/svg11.dtd">
<!-- Generated by graphviz version 2.40.1 (20161225.0304)
 -->
<!-- Title: delta::NullLiteralExpr Pages: 1 -->
<svg width="116pt" height="148pt"
 viewBox="0.00 0.00 116.27 148.00" xmlns="http://www.w3.org/2000/svg" xmlns:xlink="http://www.w3.org/1999/xlink">
<g id="graph0" class="graph" transform="scale(1 1) rotate(0) translate(4 144)">
<title>delta::NullLiteralExpr</title>
<polygon fill="#ffffff" stroke="transparent" points="-4,4 -4,-144 112.2656,-144 112.2656,4 -4,4"/>
<!-- Node2 -->
<g id="node1" class="node">
<title>Node2</title>
<polygon fill="#bfbfbf" stroke="#000000" points="0,-.5 0,-18.5 108.2656,-18.5 108.2656,-.5 0,-.5"/>
<text text-anchor="middle" x="54.1328" y="-6.5" font-family="Helvetica,sans-Serif" font-size="10.00" fill="#000000">delta::NullLiteralExpr</text>
</g>
<!-- Node3 -->
<g id="node2" class="node">
<title>Node3</title>
<g id="a_node2"><a xlink:href="classdelta_1_1_expr.html" target="_top" xlink:title="delta::Expr">
<polygon fill="#ffffff" stroke="#000000" points="22.2314,-56.5 22.2314,-74.5 86.0342,-74.5 86.0342,-56.5 22.2314,-56.5"/>
<text text-anchor="middle" x="54.1328" y="-62.5" font-family="Helvetica,sans-Serif" font-size="10.00" fill="#000000">delta::Expr</text>
</a>
</g>
</g>
<!-- Node3&#45;&gt;Node2 -->
<g id="edge1" class="edge">
<title>Node3&#45;&gt;Node2</title>
<path fill="none" stroke="#191970" d="M54.1328,-46.2065C54.1328,-36.8384 54.1328,-26.0262 54.1328,-18.5752"/>
<polygon fill="#191970" stroke="#191970" points="50.6329,-46.2527 54.1328,-56.2527 57.6329,-46.2528 50.6329,-46.2527"/>
</g>
<!-- Node4 -->
<g id="node3" class="node">
<title>Node4</title>
<g id="a_node3"><a xlink:href="structdelta_1_1_src_loc.html" target="_top" xlink:title="delta::SrcLoc">
<polygon fill="#ffffff" stroke="#000000" points="16.9507,-121.5 16.9507,-139.5 91.3149,-139.5 91.3149,-121.5 16.9507,-121.5"/>
<text text-anchor="middle" x="54.1328" y="-127.5" font-family="Helvetica,sans-Serif" font-size="10.00" fill="#000000">delta::SrcLoc</text>
</a>
</g>
</g>
<!-- Node4&#45;&gt;Node3 -->
<g id="edge2" class="edge">
<title>Node4&#45;&gt;Node3</title>
<path fill="none" stroke="#9a32cd" stroke-dasharray="5,2" d="M54.1328,-111.1265C54.1328,-99.1522 54.1328,-84.3205 54.1328,-74.8821"/>
<polygon fill="#9a32cd" stroke="#9a32cd" points="50.6329,-111.462 54.1328,-121.462 57.6329,-111.4621 50.6329,-111.462"/>
<text text-anchor="middle" x="70.2485" y="-95" font-family="Helvetica,sans-Serif" font-size="10.00" fill="#000000"> srcLoc</text>
</g>
</g>
</svg>
