<?xml version="1.0" encoding="UTF-8" standalone="no"?>
<!DOCTYPE svg PUBLIC "-//W3C//DTD SVG 1.1//EN"
 "http://www.w3.org/Graphics/SVG/1.1/DTD/svg11.dtd">
<!-- Generated by graphviz version 2.40.1 (20161225.0304)
 -->
<!-- Title: delta::AssignStmt Pages: 1 -->
<svg width="240pt" height="242pt"
 viewBox="0.00 0.00 240.13 242.00" xmlns="http://www.w3.org/2000/svg" xmlns:xlink="http://www.w3.org/1999/xlink">
<g id="graph0" class="graph" transform="scale(1 1) rotate(0) translate(4 238)">
<title>delta::AssignStmt</title>
<polygon fill="#ffffff" stroke="transparent" points="-4,4 -4,-238 236.1289,-238 236.1289,4 -4,4"/>
<!-- Node2 -->
<g id="node1" class="node">
<title>Node2</title>
<polygon fill="#bfbfbf" stroke="#000000" points="44.9927,-.5 44.9927,-18.5 138.8052,-18.5 138.8052,-.5 44.9927,-.5"/>
<text text-anchor="middle" x="91.8989" y="-6.5" font-family="Helvetica,sans-Serif" font-size="10.00" fill="#000000">delta::AssignStmt</text>
</g>
<!-- Node3 -->
<g id="node2" class="node">
<title>Node3</title>
<g id="a_node2"><a xlink:href="classdelta_1_1_stmt.html" target="_top" xlink:title="delta::Stmt">
<polygon fill="#ffffff" stroke="#000000" points="0,-80.5 0,-98.5 63.7979,-98.5 63.7979,-80.5 0,-80.5"/>
<text text-anchor="middle" x="31.8989" y="-86.5" font-family="Helvetica,sans-Serif" font-size="10.00" fill="#000000">delta::Stmt</text>
</a>
</g>
</g>
<!-- Node3&#45;&gt;Node2 -->
<g id="edge1" class="edge">
<title>Node3&#45;&gt;Node2</title>
<path fill="none" stroke="#191970" d="M44.9709,-72.0707C57.3264,-55.5966 75.3767,-31.5296 85.0964,-18.57"/>
<polygon fill="#191970" stroke="#191970" points="41.9817,-70.2229 38.7817,-80.323 47.5817,-74.423 41.9817,-70.2229"/>
</g>
<!-- Node4 -->
<g id="node3" class="node">
<title>Node4</title>
<g id="a_node3"><a xlink:href="structdelta_1_1_src_loc.html" target="_top" xlink:title="delta::SrcLoc">
<polygon fill="#ffffff" stroke="#000000" points="70.7168,-215.5 70.7168,-233.5 145.0811,-233.5 145.0811,-215.5 70.7168,-215.5"/>
<text text-anchor="middle" x="107.8989" y="-221.5" font-family="Helvetica,sans-Serif" font-size="10.00" fill="#000000">delta::SrcLoc</text>
</a>
</g>
</g>
<!-- Node4&#45;&gt;Node2 -->
<g id="edge2" class="edge">
<title>Node4&#45;&gt;Node2</title>
<path fill="none" stroke="#9a32cd" stroke-dasharray="5,2" d="M106.4596,-205.1589C103.1381,-160.5261 95.0361,-51.6561 92.6019,-18.946"/>
<polygon fill="#9a32cd" stroke="#9a32cd" points="102.9789,-205.5491 107.2114,-215.2617 109.9595,-205.0295 102.9789,-205.5491"/>
<text text-anchor="middle" x="118.0146" y="-124" font-family="Helvetica,sans-Serif" font-size="10.00" fill="#000000"> srcLoc</text>
</g>
<!-- Node6 -->
<g id="node5" class="node">
<title>Node6</title>
<g id="a_node5"><a xlink:href="classdelta_1_1_expr.html" target="_top" xlink:title="delta::Expr">
<polygon fill="#ffffff" stroke="#000000" points="131.9976,-150.5 131.9976,-168.5 195.8003,-168.5 195.8003,-150.5 131.9976,-150.5"/>
<text text-anchor="middle" x="163.8989" y="-156.5" font-family="Helvetica,sans-Serif" font-size="10.00" fill="#000000">delta::Expr</text>
</a>
</g>
</g>
<!-- Node4&#45;&gt;Node6 -->
<g id="edge5" class="edge">
<title>Node4&#45;&gt;Node6</title>
<path fill="none" stroke="#9a32cd" stroke-dasharray="5,2" d="M122.3977,-207.6711C133.0378,-195.321 147.0975,-179.0016 155.8159,-168.8821"/>
<polygon fill="#9a32cd" stroke="#9a32cd" points="119.561,-205.6014 115.6855,-215.462 124.8642,-210.1704 119.561,-205.6014"/>
<text text-anchor="middle" x="156.0146" y="-189" font-family="Helvetica,sans-Serif" font-size="10.00" fill="#000000"> srcLoc</text>
</g>
<!-- Node5 -->
<g id="node4" class="node">
<title>Node5</title>
<polygon fill="#ffffff" stroke="#bfbfbf" points="119.6689,-75.5 119.6689,-103.5 232.1289,-103.5 232.1289,-75.5 119.6689,-75.5"/>
<text text-anchor="start" x="127.6689" y="-91.5" font-family="Helvetica,sans-Serif" font-size="10.00" fill="#000000">std::unique_ptr&lt; delta</text>
<text text-anchor="middle" x="175.8989" y="-81.5" font-family="Helvetica,sans-Serif" font-size="10.00" fill="#000000">::Expr &gt;</text>
</g>
<!-- Node5&#45;&gt;Node2 -->
<g id="edge3" class="edge">
<title>Node5&#45;&gt;Node2</title>
<path fill="none" stroke="#9a32cd" stroke-dasharray="5,2" d="M153.5399,-68.2057C136.5986,-52.0712 114.1548,-30.6961 101.5527,-18.6941"/>
<polygon fill="#9a32cd" stroke="#9a32cd" points="151.2262,-70.8355 160.8814,-75.1976 156.0538,-65.7665 151.2262,-70.8355"/>
<text text-anchor="middle" x="149.6797" y="-49" font-family="Helvetica,sans-Serif" font-size="10.00" fill="#000000"> lhs</text>
<text text-anchor="middle" x="149.6797" y="-39" font-family="Helvetica,sans-Serif" font-size="10.00" fill="#000000">rhs</text>
</g>
<!-- Node6&#45;&gt;Node5 -->
<g id="edge4" class="edge">
<title>Node6&#45;&gt;Node5</title>
<path fill="none" stroke="#9a32cd" stroke-dasharray="5,2" d="M167.1761,-140.383C169.1591,-128.8156 171.6457,-114.3105 173.4561,-103.7499"/>
<polygon fill="#9a32cd" stroke="#9a32cd" points="163.7078,-139.9011 165.4677,-150.3487 170.6071,-141.0839 163.7078,-139.9011"/>
<text text-anchor="middle" x="177.123" y="-124" font-family="Helvetica,sans-Serif" font-size="10.00" fill="#000000"> ptr</text>
</g>
</g>
</svg>
