<?xml version="1.0" encoding="UTF-8" standalone="no"?>
<!DOCTYPE svg PUBLIC "-//W3C//DTD SVG 1.1//EN"
 "http://www.w3.org/Graphics/SVG/1.1/DTD/svg11.dtd">
<!-- Generated by graphviz version 2.40.1 (20161225.0304)
 -->
<!-- Title: delta::BasicType Pages: 1 -->
<svg width="191pt" height="158pt"
 viewBox="0.00 0.00 190.91 158.00" xmlns="http://www.w3.org/2000/svg" xmlns:xlink="http://www.w3.org/1999/xlink">
<g id="graph0" class="graph" transform="scale(1 1) rotate(0) translate(4 154)">
<title>delta::BasicType</title>
<polygon fill="#ffffff" stroke="transparent" points="-4,4 -4,-154 186.9072,-154 186.9072,4 -4,4"/>
<!-- Node2 -->
<g id="node1" class="node">
<title>Node2</title>
<polygon fill="#bfbfbf" stroke="#000000" points="15.1699,-.5 15.1699,-18.5 104.5488,-18.5 104.5488,-.5 15.1699,-.5"/>
<text text-anchor="middle" x="59.8594" y="-6.5" font-family="Helvetica,sans-Serif" font-size="10.00" fill="#000000">delta::BasicType</text>
</g>
<!-- Node3 -->
<g id="node2" class="node">
<title>Node3</title>
<g id="a_node2"><a xlink:href="classdelta_1_1_type_base.html" target="_top" xlink:title="delta::TypeBase">
<polygon fill="#ffffff" stroke="#000000" points="0,-65.5 0,-83.5 87.7188,-83.5 87.7188,-65.5 0,-65.5"/>
<text text-anchor="middle" x="43.8594" y="-71.5" font-family="Helvetica,sans-Serif" font-size="10.00" fill="#000000">delta::TypeBase</text>
</a>
</g>
</g>
<!-- Node3&#45;&gt;Node2 -->
<g id="edge1" class="edge">
<title>Node3&#45;&gt;Node2</title>
<path fill="none" stroke="#191970" d="M48.5373,-55.4959C51.5003,-43.4586 55.2027,-28.4178 57.5499,-18.8821"/>
<polygon fill="#191970" stroke="#191970" points="45.0758,-54.9153 46.0841,-65.462 51.8729,-56.5885 45.0758,-54.9153"/>
</g>
<!-- Node4 -->
<g id="node3" class="node">
<title>Node4</title>
<g id="a_node3"><a xlink:title="STL class. ">
<polygon fill="#ffffff" stroke="#bfbfbf" points="106.1846,-65.5 106.1846,-83.5 165.5342,-83.5 165.5342,-65.5 106.1846,-65.5"/>
<text text-anchor="middle" x="135.8594" y="-71.5" font-family="Helvetica,sans-Serif" font-size="10.00" fill="#000000">std::string</text>
</a>
</g>
</g>
<!-- Node4&#45;&gt;Node2 -->
<g id="edge2" class="edge">
<title>Node4&#45;&gt;Node2</title>
<path fill="none" stroke="#9a32cd" stroke-dasharray="5,2" d="M117.4202,-58.7297C102.8492,-46.2676 83.0026,-29.2936 70.8293,-18.8821"/>
<polygon fill="#9a32cd" stroke="#9a32cd" points="115.4174,-61.6222 125.2919,-65.462 119.9672,-56.3024 115.4174,-61.6222"/>
<text text-anchor="middle" x="115.7559" y="-39" font-family="Helvetica,sans-Serif" font-size="10.00" fill="#000000"> name</text>
</g>
<!-- Node5 -->
<g id="node4" class="node">
<title>Node5</title>
<g id="a_node4"><a xlink:title="STL class. ">
<polygon fill="#ffffff" stroke="#bfbfbf" points="88.8115,-121.5 88.8115,-149.5 182.9072,-149.5 182.9072,-121.5 88.8115,-121.5"/>
<text text-anchor="start" x="96.8115" y="-137.5" font-family="Helvetica,sans-Serif" font-size="10.00" fill="#000000">std::basic_string&lt;</text>
<text text-anchor="middle" x="135.8594" y="-127.5" font-family="Helvetica,sans-Serif" font-size="10.00" fill="#000000"> char &gt;</text>
</a>
</g>
</g>
<!-- Node5&#45;&gt;Node4 -->
<g id="edge3" class="edge">
<title>Node5&#45;&gt;Node4</title>
<path fill="none" stroke="#191970" d="M135.8594,-111.1001C135.8594,-101.5157 135.8594,-91.0935 135.8594,-83.831"/>
<polygon fill="#191970" stroke="#191970" points="132.3595,-111.352 135.8594,-121.3521 139.3595,-111.3521 132.3595,-111.352"/>
</g>
</g>
</svg>
