<?xml version="1.0" encoding="UTF-8" standalone="no"?>
<!DOCTYPE svg PUBLIC "-//W3C//DTD SVG 1.1//EN"
 "http://www.w3.org/Graphics/SVG/1.1/DTD/svg11.dtd">
<!-- Generated by graphviz version 2.40.1 (20161225.0304)
 -->
<!-- Title: delta::SubscriptExpr Pages: 1 -->
<svg width="185pt" height="242pt"
 viewBox="0.00 0.00 184.97 242.00" xmlns="http://www.w3.org/2000/svg" xmlns:xlink="http://www.w3.org/1999/xlink">
<g id="graph0" class="graph" transform="scale(1 1) rotate(0) translate(4 238)">
<title>delta::SubscriptExpr</title>
<polygon fill="#ffffff" stroke="transparent" points="-4,4 -4,-238 180.9736,-238 180.9736,4 -4,4"/>
<!-- Node2 -->
<g id="node1" class="node">
<title>Node2</title>
<polygon fill="#bfbfbf" stroke="#000000" points="0,-.5 0,-18.5 105.4873,-18.5 105.4873,-.5 0,-.5"/>
<text text-anchor="middle" x="52.7437" y="-6.5" font-family="Helvetica,sans-Serif" font-size="10.00" fill="#000000">delta::SubscriptExpr</text>
</g>
<!-- Node3 -->
<g id="node2" class="node">
<title>Node3</title>
<g id="a_node2"><a xlink:href="classdelta_1_1_expr.html" target="_top" xlink:title="delta::Expr">
<polygon fill="#ffffff" stroke="#000000" points="20.8423,-150.5 20.8423,-168.5 84.645,-168.5 84.645,-150.5 20.8423,-150.5"/>
<text text-anchor="middle" x="52.7437" y="-156.5" font-family="Helvetica,sans-Serif" font-size="10.00" fill="#000000">delta::Expr</text>
</a>
</g>
</g>
<!-- Node3&#45;&gt;Node2 -->
<g id="edge1" class="edge">
<title>Node3&#45;&gt;Node2</title>
<path fill="none" stroke="#191970" d="M52.7437,-140.029C52.7437,-107.4205 52.7437,-42.9725 52.7437,-18.8796"/>
<polygon fill="#191970" stroke="#191970" points="49.2438,-140.1168 52.7437,-150.1168 56.2438,-140.1169 49.2438,-140.1168"/>
</g>
<!-- Node5 -->
<g id="node4" class="node">
<title>Node5</title>
<polygon fill="#ffffff" stroke="#bfbfbf" points="64.5137,-75.5 64.5137,-103.5 176.9736,-103.5 176.9736,-75.5 64.5137,-75.5"/>
<text text-anchor="start" x="72.5137" y="-91.5" font-family="Helvetica,sans-Serif" font-size="10.00" fill="#000000">std::unique_ptr&lt; delta</text>
<text text-anchor="middle" x="120.7437" y="-81.5" font-family="Helvetica,sans-Serif" font-size="10.00" fill="#000000">::Expr &gt;</text>
</g>
<!-- Node3&#45;&gt;Node5 -->
<g id="edge4" class="edge">
<title>Node3&#45;&gt;Node5</title>
<path fill="none" stroke="#9a32cd" stroke-dasharray="5,2" d="M68.9288,-142.8388C80.4977,-130.9296 95.9017,-115.0726 106.9009,-103.7499"/>
<polygon fill="#9a32cd" stroke="#9a32cd" points="66.0909,-140.7371 61.6335,-150.3487 71.1118,-145.6147 66.0909,-140.7371"/>
<text text-anchor="middle" x="95.9678" y="-124" font-family="Helvetica,sans-Serif" font-size="10.00" fill="#000000"> ptr</text>
</g>
<!-- Node4 -->
<g id="node3" class="node">
<title>Node4</title>
<g id="a_node3"><a xlink:href="structdelta_1_1_src_loc.html" target="_top" xlink:title="delta::SrcLoc">
<polygon fill="#ffffff" stroke="#000000" points="15.5615,-215.5 15.5615,-233.5 89.9258,-233.5 89.9258,-215.5 15.5615,-215.5"/>
<text text-anchor="middle" x="52.7437" y="-221.5" font-family="Helvetica,sans-Serif" font-size="10.00" fill="#000000">delta::SrcLoc</text>
</a>
</g>
</g>
<!-- Node4&#45;&gt;Node3 -->
<g id="edge2" class="edge">
<title>Node4&#45;&gt;Node3</title>
<path fill="none" stroke="#9a32cd" stroke-dasharray="5,2" d="M52.7437,-205.1265C52.7437,-193.1522 52.7437,-178.3205 52.7437,-168.8821"/>
<polygon fill="#9a32cd" stroke="#9a32cd" points="49.2437,-205.462 52.7437,-215.462 56.2437,-205.4621 49.2437,-205.462"/>
<text text-anchor="middle" x="68.8594" y="-189" font-family="Helvetica,sans-Serif" font-size="10.00" fill="#000000"> srcLoc</text>
</g>
<!-- Node5&#45;&gt;Node2 -->
<g id="edge3" class="edge">
<title>Node5&#45;&gt;Node2</title>
<path fill="none" stroke="#9a32cd" stroke-dasharray="5,2" d="M101.8979,-67.3285C88.277,-51.3039 70.5765,-30.4798 60.5586,-18.6941"/>
<polygon fill="#9a32cd" stroke="#9a32cd" points="99.4433,-69.845 108.5866,-75.1976 104.7769,-65.3114 99.4433,-69.845"/>
<text text-anchor="middle" x="105.5244" y="-49" font-family="Helvetica,sans-Serif" font-size="10.00" fill="#000000"> array</text>
<text text-anchor="middle" x="105.5244" y="-39" font-family="Helvetica,sans-Serif" font-size="10.00" fill="#000000">index</text>
</g>
</g>
</svg>
