<?xml version="1.0" encoding="UTF-8" standalone="no"?>
<!DOCTYPE svg PUBLIC "-//W3C//DTD SVG 1.1//EN"
 "http://www.w3.org/Graphics/SVG/1.1/DTD/svg11.dtd">
<!-- Generated by graphviz version 2.40.1 (20161225.0304)
 -->
<!-- Title: delta::ImportDecl Pages: 1 -->
<svg width="259pt" height="158pt"
 viewBox="0.00 0.00 258.67 158.00" xmlns="http://www.w3.org/2000/svg" xmlns:xlink="http://www.w3.org/1999/xlink">
<g id="graph0" class="graph" transform="scale(1 1) rotate(0) translate(4 154)">
<title>delta::ImportDecl</title>
<polygon fill="#ffffff" stroke="transparent" points="-4,4 -4,-154 254.6709,-154 254.6709,4 -4,4"/>
<!-- Node2 -->
<g id="node1" class="node">
<title>Node2</title>
<polygon fill="#bfbfbf" stroke="#000000" points="72.8301,-.5 72.8301,-18.5 164.416,-18.5 164.416,-.5 72.8301,-.5"/>
<text text-anchor="middle" x="118.623" y="-6.5" font-family="Helvetica,sans-Serif" font-size="10.00" fill="#000000">delta::ImportDecl</text>
</g>
<!-- Node3 -->
<g id="node2" class="node">
<title>Node3</title>
<g id="a_node2"><a xlink:href="classdelta_1_1_decl.html" target="_top" xlink:title="delta::Decl">
<polygon fill="#ffffff" stroke="#000000" points="0,-65.5 0,-83.5 63.2461,-83.5 63.2461,-65.5 0,-65.5"/>
<text text-anchor="middle" x="31.623" y="-71.5" font-family="Helvetica,sans-Serif" font-size="10.00" fill="#000000">delta::Decl</text>
</a>
</g>
</g>
<!-- Node3&#45;&gt;Node2 -->
<g id="edge1" class="edge">
<title>Node3&#45;&gt;Node2</title>
<path fill="none" stroke="#191970" d="M51.8519,-59.3865C68.7167,-46.7864 92.195,-29.2451 106.3483,-18.6708"/>
<polygon fill="#191970" stroke="#191970" points="49.6362,-56.6729 43.72,-65.462 53.8259,-62.2806 49.6362,-56.6729"/>
</g>
<!-- Node4 -->
<g id="node3" class="node">
<title>Node4</title>
<g id="a_node3"><a xlink:href="structdelta_1_1_src_loc.html" target="_top" xlink:title="delta::SrcLoc">
<polygon fill="#ffffff" stroke="#000000" points="81.4409,-65.5 81.4409,-83.5 155.8052,-83.5 155.8052,-65.5 81.4409,-65.5"/>
<text text-anchor="middle" x="118.623" y="-71.5" font-family="Helvetica,sans-Serif" font-size="10.00" fill="#000000">delta::SrcLoc</text>
</a>
</g>
</g>
<!-- Node4&#45;&gt;Node2 -->
<g id="edge2" class="edge">
<title>Node4&#45;&gt;Node2</title>
<path fill="none" stroke="#9a32cd" stroke-dasharray="5,2" d="M118.623,-55.1265C118.623,-43.1522 118.623,-28.3205 118.623,-18.8821"/>
<polygon fill="#9a32cd" stroke="#9a32cd" points="115.1231,-55.462 118.623,-65.462 122.1231,-55.4621 115.1231,-55.462"/>
<text text-anchor="middle" x="134.7388" y="-39" font-family="Helvetica,sans-Serif" font-size="10.00" fill="#000000"> srcLoc</text>
</g>
<!-- Node5 -->
<g id="node4" class="node">
<title>Node5</title>
<g id="a_node4"><a xlink:title="STL class. ">
<polygon fill="#ffffff" stroke="#bfbfbf" points="173.9482,-65.5 173.9482,-83.5 233.2979,-83.5 233.2979,-65.5 173.9482,-65.5"/>
<text text-anchor="middle" x="203.623" y="-71.5" font-family="Helvetica,sans-Serif" font-size="10.00" fill="#000000">std::string</text>
</a>
</g>
</g>
<!-- Node5&#45;&gt;Node2 -->
<g id="edge3" class="edge">
<title>Node5&#45;&gt;Node2</title>
<path fill="none" stroke="#9a32cd" stroke-dasharray="5,2" d="M183.3621,-58.9877C174.5357,-52.2317 164.069,-44.2223 154.623,-37 146.6258,-30.8853 137.6258,-24.0103 130.6251,-18.664"/>
<polygon fill="#9a32cd" stroke="#9a32cd" points="181.4752,-61.9511 191.5432,-65.2505 185.7302,-56.3927 181.4752,-61.9511"/>
<text text-anchor="middle" x="180.7979" y="-39" font-family="Helvetica,sans-Serif" font-size="10.00" fill="#000000"> target</text>
</g>
<!-- Node6 -->
<g id="node5" class="node">
<title>Node6</title>
<g id="a_node5"><a xlink:title="STL class. ">
<polygon fill="#ffffff" stroke="#bfbfbf" points="156.5752,-121.5 156.5752,-149.5 250.6709,-149.5 250.6709,-121.5 156.5752,-121.5"/>
<text text-anchor="start" x="164.5752" y="-137.5" font-family="Helvetica,sans-Serif" font-size="10.00" fill="#000000">std::basic_string&lt;</text>
<text text-anchor="middle" x="203.623" y="-127.5" font-family="Helvetica,sans-Serif" font-size="10.00" fill="#000000"> char &gt;</text>
</a>
</g>
</g>
<!-- Node6&#45;&gt;Node5 -->
<g id="edge4" class="edge">
<title>Node6&#45;&gt;Node5</title>
<path fill="none" stroke="#191970" d="M203.623,-111.1001C203.623,-101.5157 203.623,-91.0935 203.623,-83.831"/>
<polygon fill="#191970" stroke="#191970" points="200.1231,-111.352 203.623,-121.3521 207.1231,-111.3521 200.1231,-111.352"/>
</g>
</g>
</svg>
