<?xml version="1.0" encoding="UTF-8" standalone="no"?>
<!DOCTYPE svg PUBLIC "-//W3C//DTD SVG 1.1//EN"
 "http://www.w3.org/Graphics/SVG/1.1/DTD/svg11.dtd">
<!-- Generated by graphviz version 2.40.1 (20161225.0304)
 -->
<!-- Title: delta::VariableExpr Pages: 1 -->
<svg width="194pt" height="167pt"
 viewBox="0.00 0.00 194.23 167.00" xmlns="http://www.w3.org/2000/svg" xmlns:xlink="http://www.w3.org/1999/xlink">
<g id="graph0" class="graph" transform="scale(1 1) rotate(0) translate(4 163)">
<title>delta::VariableExpr</title>
<polygon fill="#ffffff" stroke="transparent" points="-4,4 -4,-163 190.23,-163 190.23,4 -4,4"/>
<!-- Node2 -->
<g id="node1" class="node">
<title>Node2</title>
<polygon fill="#bfbfbf" stroke="#000000" points="32.3047,-.5 32.3047,-18.5 132.0596,-18.5 132.0596,-.5 32.3047,-.5"/>
<text text-anchor="middle" x="82.1821" y="-6.5" font-family="Helvetica,sans-Serif" font-size="10.00" fill="#000000">delta::VariableExpr</text>
</g>
<!-- Node3 -->
<g id="node2" class="node">
<title>Node3</title>
<g id="a_node2"><a xlink:href="classdelta_1_1_expr.html" target="_top" xlink:title="delta::Expr">
<polygon fill="#ffffff" stroke="#000000" points="11.2808,-65.5 11.2808,-83.5 75.0835,-83.5 75.0835,-65.5 11.2808,-65.5"/>
<text text-anchor="middle" x="43.1821" y="-71.5" font-family="Helvetica,sans-Serif" font-size="10.00" fill="#000000">delta::Expr</text>
</a>
</g>
</g>
<!-- Node3&#45;&gt;Node2 -->
<g id="edge1" class="edge">
<title>Node3&#45;&gt;Node2</title>
<path fill="none" stroke="#191970" d="M53.9265,-56.5926C61.2514,-44.3846 70.6563,-28.7097 76.5528,-18.8821"/>
<polygon fill="#191970" stroke="#191970" points="50.7487,-55.0863 48.6049,-65.462 56.7511,-58.6878 50.7487,-55.0863"/>
</g>
<!-- Node4 -->
<g id="node3" class="node">
<title>Node4</title>
<g id="a_node3"><a xlink:href="structdelta_1_1_src_loc.html" target="_top" xlink:title="delta::SrcLoc">
<polygon fill="#ffffff" stroke="#000000" points="0,-135.5 0,-153.5 74.3643,-153.5 74.3643,-135.5 0,-135.5"/>
<text text-anchor="middle" x="37.1821" y="-141.5" font-family="Helvetica,sans-Serif" font-size="10.00" fill="#000000">delta::SrcLoc</text>
</a>
</g>
</g>
<!-- Node4&#45;&gt;Node3 -->
<g id="edge2" class="edge">
<title>Node4&#45;&gt;Node3</title>
<path fill="none" stroke="#9a32cd" stroke-dasharray="5,2" d="M38.8361,-125.2039C39.989,-111.7531 41.4765,-94.3986 42.3784,-83.8769"/>
<polygon fill="#9a32cd" stroke="#9a32cd" points="35.3334,-125.0863 37.9665,-135.3487 42.3078,-125.6842 35.3334,-125.0863"/>
<text text-anchor="middle" x="57.2979" y="-104" font-family="Helvetica,sans-Serif" font-size="10.00" fill="#000000"> srcLoc</text>
</g>
<!-- Node5 -->
<g id="node4" class="node">
<title>Node5</title>
<g id="a_node4"><a xlink:title="STL class. ">
<polygon fill="#ffffff" stroke="#bfbfbf" points="104.5073,-65.5 104.5073,-83.5 163.8569,-83.5 163.8569,-65.5 104.5073,-65.5"/>
<text text-anchor="middle" x="134.1821" y="-71.5" font-family="Helvetica,sans-Serif" font-size="10.00" fill="#000000">std::string</text>
</a>
</g>
</g>
<!-- Node5&#45;&gt;Node2 -->
<g id="edge3" class="edge">
<title>Node5&#45;&gt;Node2</title>
<path fill="none" stroke="#9a32cd" stroke-dasharray="5,2" d="M120.4331,-57.3137C110.5883,-45.0077 97.7056,-28.9043 89.6878,-18.8821"/>
<polygon fill="#9a32cd" stroke="#9a32cd" points="117.9717,-59.8398 126.9518,-65.462 123.4378,-55.4669 117.9717,-59.8398"/>
<text text-anchor="middle" x="132.4702" y="-39" font-family="Helvetica,sans-Serif" font-size="10.00" fill="#000000"> identifier</text>
</g>
<!-- Node6 -->
<g id="node5" class="node">
<title>Node6</title>
<g id="a_node5"><a xlink:title="STL class. ">
<polygon fill="#ffffff" stroke="#bfbfbf" points="92.1343,-130.5 92.1343,-158.5 186.23,-158.5 186.23,-130.5 92.1343,-130.5"/>
<text text-anchor="start" x="100.1343" y="-146.5" font-family="Helvetica,sans-Serif" font-size="10.00" fill="#000000">std::basic_string&lt;</text>
<text text-anchor="middle" x="139.1821" y="-136.5" font-family="Helvetica,sans-Serif" font-size="10.00" fill="#000000"> char &gt;</text>
</a>
</g>
</g>
<!-- Node6&#45;&gt;Node5 -->
<g id="edge4" class="edge">
<title>Node6&#45;&gt;Node5</title>
<path fill="none" stroke="#191970" d="M137.4326,-120.007C136.5368,-107.4648 135.4992,-92.9386 134.8419,-83.7368"/>
<polygon fill="#191970" stroke="#191970" points="133.9666,-120.6093 138.1703,-130.3345 140.9488,-120.1105 133.9666,-120.6093"/>
</g>
</g>
</svg>
