<?xml version="1.0" encoding="UTF-8" standalone="no"?>
<!DOCTYPE svg PUBLIC "-//W3C//DTD SVG 1.1//EN"
 "http://www.w3.org/Graphics/SVG/1.1/DTD/svg11.dtd">
<!-- Generated by graphviz version 2.40.1 (20161225.0304)
 -->
<!-- Title: delta::FieldDecl Pages: 1 -->
<svg width="342pt" height="158pt"
 viewBox="0.00 0.00 341.67 158.00" xmlns="http://www.w3.org/2000/svg" xmlns:xlink="http://www.w3.org/1999/xlink">
<g id="graph0" class="graph" transform="scale(1 1) rotate(0) translate(4 154)">
<title>delta::FieldDecl</title>
<polygon fill="#ffffff" stroke="transparent" points="-4,4 -4,-154 337.6709,-154 337.6709,4 -4,4"/>
<!-- Node2 -->
<g id="node1" class="node">
<title>Node2</title>
<polygon fill="#bfbfbf" stroke="#000000" points="115.1626,-.5 115.1626,-18.5 200.0835,-18.5 200.0835,-.5 115.1626,-.5"/>
<text text-anchor="middle" x="157.623" y="-6.5" font-family="Helvetica,sans-Serif" font-size="10.00" fill="#000000">delta::FieldDecl</text>
</g>
<!-- Node3 -->
<g id="node2" class="node">
<title>Node3</title>
<g id="a_node2"><a xlink:href="classdelta_1_1_decl.html" target="_top" xlink:title="delta::Decl">
<polygon fill="#ffffff" stroke="#000000" points="0,-65.5 0,-83.5 63.2461,-83.5 63.2461,-65.5 0,-65.5"/>
<text text-anchor="middle" x="31.623" y="-71.5" font-family="Helvetica,sans-Serif" font-size="10.00" fill="#000000">delta::Decl</text>
</a>
</g>
</g>
<!-- Node3&#45;&gt;Node2 -->
<g id="edge1" class="edge">
<title>Node3&#45;&gt;Node2</title>
<path fill="none" stroke="#191970" d="M58.2709,-60.7531C82.831,-48.0832 118.5957,-29.6332 139.8459,-18.6708"/>
<polygon fill="#191970" stroke="#191970" points="56.4253,-57.7668 49.1428,-65.462 59.6346,-63.9878 56.4253,-57.7668"/>
</g>
<!-- Node4 -->
<g id="node3" class="node">
<title>Node4</title>
<g id="a_node3"><a xlink:href="structdelta_1_1_type.html" target="_top" xlink:title="delta::Type">
<polygon fill="#ffffff" stroke="#000000" points="81.1602,-65.5 81.1602,-83.5 146.0859,-83.5 146.0859,-65.5 81.1602,-65.5"/>
<text text-anchor="middle" x="113.623" y="-71.5" font-family="Helvetica,sans-Serif" font-size="10.00" fill="#000000">delta::Type</text>
</a>
</g>
</g>
<!-- Node4&#45;&gt;Node2 -->
<g id="edge2" class="edge">
<title>Node4&#45;&gt;Node2</title>
<path fill="none" stroke="#9a32cd" stroke-dasharray="5,2" d="M125.5002,-56.9542C133.7983,-44.6956 144.5537,-28.807 151.2721,-18.8821"/>
<polygon fill="#9a32cd" stroke="#9a32cd" points="122.4484,-55.2189 119.7411,-65.462 128.2452,-59.1429 122.4484,-55.2189"/>
<text text-anchor="middle" x="149.4629" y="-39" font-family="Helvetica,sans-Serif" font-size="10.00" fill="#000000"> type</text>
</g>
<!-- Node5 -->
<g id="node4" class="node">
<title>Node5</title>
<g id="a_node4"><a xlink:href="structdelta_1_1_src_loc.html" target="_top" xlink:title="delta::SrcLoc">
<polygon fill="#ffffff" stroke="#000000" points="164.4409,-65.5 164.4409,-83.5 238.8052,-83.5 238.8052,-65.5 164.4409,-65.5"/>
<text text-anchor="middle" x="201.623" y="-71.5" font-family="Helvetica,sans-Serif" font-size="10.00" fill="#000000">delta::SrcLoc</text>
</a>
</g>
</g>
<!-- Node5&#45;&gt;Node2 -->
<g id="edge3" class="edge">
<title>Node5&#45;&gt;Node2</title>
<path fill="none" stroke="#9a32cd" stroke-dasharray="5,2" d="M189.7459,-56.9542C181.4478,-44.6956 170.6924,-28.807 163.974,-18.8821"/>
<polygon fill="#9a32cd" stroke="#9a32cd" points="187.0009,-59.1429 195.505,-65.462 192.7977,-55.2189 187.0009,-59.1429"/>
<text text-anchor="middle" x="197.7388" y="-39" font-family="Helvetica,sans-Serif" font-size="10.00" fill="#000000"> srcLoc</text>
</g>
<!-- Node6 -->
<g id="node5" class="node">
<title>Node6</title>
<g id="a_node5"><a xlink:title="STL class. ">
<polygon fill="#ffffff" stroke="#bfbfbf" points="256.9482,-65.5 256.9482,-83.5 316.2979,-83.5 316.2979,-65.5 256.9482,-65.5"/>
<text text-anchor="middle" x="286.623" y="-71.5" font-family="Helvetica,sans-Serif" font-size="10.00" fill="#000000">std::string</text>
</a>
</g>
</g>
<!-- Node6&#45;&gt;Node2 -->
<g id="edge4" class="edge">
<title>Node6&#45;&gt;Node2</title>
<path fill="none" stroke="#9a32cd" stroke-dasharray="5,2" d="M261.7686,-60.461C248.7354,-53.2348 232.4394,-44.4109 217.623,-37 204.7103,-30.5413 189.9736,-23.7785 178.3366,-18.5757"/>
<polygon fill="#9a32cd" stroke="#9a32cd" points="260.1764,-63.5805 270.6143,-65.3973 263.5875,-57.4679 260.1764,-63.5805"/>
<text text-anchor="middle" x="250.5195" y="-39" font-family="Helvetica,sans-Serif" font-size="10.00" fill="#000000"> name</text>
</g>
<!-- Node7 -->
<g id="node6" class="node">
<title>Node7</title>
<g id="a_node6"><a xlink:title="STL class. ">
<polygon fill="#ffffff" stroke="#bfbfbf" points="239.5752,-121.5 239.5752,-149.5 333.6709,-149.5 333.6709,-121.5 239.5752,-121.5"/>
<text text-anchor="start" x="247.5752" y="-137.5" font-family="Helvetica,sans-Serif" font-size="10.00" fill="#000000">std::basic_string&lt;</text>
<text text-anchor="middle" x="286.623" y="-127.5" font-family="Helvetica,sans-Serif" font-size="10.00" fill="#000000"> char &gt;</text>
</a>
</g>
</g>
<!-- Node7&#45;&gt;Node6 -->
<g id="edge5" class="edge">
<title>Node7&#45;&gt;Node6</title>
<path fill="none" stroke="#191970" d="M286.623,-111.1001C286.623,-101.5157 286.623,-91.0935 286.623,-83.831"/>
<polygon fill="#191970" stroke="#191970" points="283.1231,-111.352 286.623,-121.3521 290.1231,-111.3521 283.1231,-111.352"/>
</g>
</g>
</svg>
