<?xml version="1.0" encoding="UTF-8" standalone="no"?>
<!DOCTYPE svg PUBLIC "-//W3C//DTD SVG 1.1//EN"
 "http://www.w3.org/Graphics/SVG/1.1/DTD/svg11.dtd">
<!-- Generated by graphviz version 2.40.1 (20161225.0304)
 -->
<!-- Title: delta::Decl::getKind Pages: 1 -->
<svg width="440pt" height="474pt"
 viewBox="0.00 0.00 439.84 474.00" xmlns="http://www.w3.org/2000/svg" xmlns:xlink="http://www.w3.org/1999/xlink">
<g id="graph0" class="graph" transform="scale(1 1) rotate(0) translate(4 470)">
<title>delta::Decl::getKind</title>
<polygon fill="#ffffff" stroke="transparent" points="-4,4 -4,-470 435.8359,-470 435.8359,4 -4,4"/>
<!-- Node2 -->
<g id="node1" class="node">
<title>Node2</title>
<polygon fill="#bfbfbf" stroke="#000000" points="0,-221.5 0,-239.5 102.7188,-239.5 102.7188,-221.5 0,-221.5"/>
<text text-anchor="middle" x="51.3594" y="-227.5" font-family="Helvetica,sans-Serif" font-size="10.00" fill="#000000">delta::Decl::getKind</text>
</g>
<!-- Node3 -->
<g id="node2" class="node">
<title>Node3</title>
<g id="a_node2"><a xlink:href="classdelta_1_1_decl.html#a905b8ed13cd2a6a490a96dcdfaf3ca73" target="_top" xlink:title="delta::Decl::getSrcLoc">
<polygon fill="#ffffff" stroke="#000000" points="146.4946,-447.5 146.4946,-465.5 260.3218,-465.5 260.3218,-447.5 146.4946,-447.5"/>
<text text-anchor="middle" x="203.4082" y="-453.5" font-family="Helvetica,sans-Serif" font-size="10.00" fill="#000000">delta::Decl::getSrcLoc</text>
</a>
</g>
</g>
<!-- Node2&#45;&gt;Node3 -->
<g id="edge1" class="edge">
<title>Node2&#45;&gt;Node3</title>
<path fill="none" stroke="#191970" d="M53.7866,-249.5794C60.0219,-290.4999 80.4294,-387.1408 138.7188,-438.5 142.9171,-442.1992 147.8153,-445.144 153.0034,-447.4873"/>
<polygon fill="#191970" stroke="#191970" points="57.2418,-249.0148 52.3841,-239.5992 50.3099,-249.989 57.2418,-249.0148"/>
</g>
<!-- Node4 -->
<g id="node3" class="node">
<title>Node4</title>
<g id="a_node3"><a xlink:href="classdelta_1_1_param_decl.html#a1cf96d3550d8a4dd4c3d9af14b5d27f4" target="_top" xlink:title="delta::ParamDecl::classof">
<polygon fill="#ffffff" stroke="#000000" points="138.7188,-410.5 138.7188,-428.5 268.0977,-428.5 268.0977,-410.5 138.7188,-410.5"/>
<text text-anchor="middle" x="203.4082" y="-416.5" font-family="Helvetica,sans-Serif" font-size="10.00" fill="#000000">delta::ParamDecl::classof</text>
</a>
</g>
</g>
<!-- Node2&#45;&gt;Node4 -->
<g id="edge2" class="edge">
<title>Node2&#45;&gt;Node4</title>
<path fill="none" stroke="#191970" d="M55.6865,-249.5162C64.743,-284.9085 89.0961,-360.9652 138.7188,-401.5 143.2329,-405.1874 148.4514,-408.1211 153.9269,-410.4547"/>
<polygon fill="#191970" stroke="#191970" points="59.0282,-248.4447 53.2709,-239.5506 52.2252,-250.0937 59.0282,-248.4447"/>
</g>
<!-- Node5 -->
<g id="node4" class="node">
<title>Node5</title>
<g id="a_node4"><a xlink:href="classdelta_1_1_generic_param_decl.html#a954d34a5f7d5f23d4b7b47d25dd52cc1" target="_top" xlink:title="delta::GenericParamDecl\l::classof">
<polygon fill="#ffffff" stroke="#000000" points="139.5513,-363.5 139.5513,-391.5 267.2651,-391.5 267.2651,-363.5 139.5513,-363.5"/>
<text text-anchor="start" x="147.5513" y="-379.5" font-family="Helvetica,sans-Serif" font-size="10.00" fill="#000000">delta::GenericParamDecl</text>
<text text-anchor="middle" x="203.4082" y="-369.5" font-family="Helvetica,sans-Serif" font-size="10.00" fill="#000000">::classof</text>
</a>
</g>
</g>
<!-- Node2&#45;&gt;Node5 -->
<g id="edge3" class="edge">
<title>Node2&#45;&gt;Node5</title>
<path fill="none" stroke="#191970" d="M59.7086,-248.8206C72.8376,-275.6869 100.7776,-325.6972 138.7188,-354.5 143.2758,-357.9594 148.3982,-360.9302 153.7137,-363.4739"/>
<polygon fill="#191970" stroke="#191970" points="62.8559,-247.2888 55.4121,-239.7495 56.5297,-250.2853 62.8559,-247.2888"/>
</g>
<!-- Node6 -->
<g id="node5" class="node">
<title>Node6</title>
<g id="a_node5"><a xlink:href="classdelta_1_1_func_decl.html#a6bf353f356a6159bcd0bcffedacc65e3" target="_top" xlink:title="delta::FuncDecl::classof">
<polygon fill="#ffffff" stroke="#000000" points="142.3296,-326.5 142.3296,-344.5 264.4868,-344.5 264.4868,-326.5 142.3296,-326.5"/>
<text text-anchor="middle" x="203.4082" y="-332.5" font-family="Helvetica,sans-Serif" font-size="10.00" fill="#000000">delta::FuncDecl::classof</text>
</a>
</g>
</g>
<!-- Node2&#45;&gt;Node6 -->
<g id="edge4" class="edge">
<title>Node2&#45;&gt;Node6</title>
<path fill="none" stroke="#191970" d="M64.1503,-247.7754C79.6548,-267.5017 107.6011,-299.3777 138.7188,-317.5 144.9644,-321.1373 151.9792,-324.0686 159.0242,-326.4225"/>
<polygon fill="#191970" stroke="#191970" points="66.7942,-245.4712 57.9354,-239.6599 61.2366,-249.7273 66.7942,-245.4712"/>
</g>
<!-- Node7 -->
<g id="node6" class="node">
<title>Node7</title>
<g id="a_node6"><a xlink:href="classdelta_1_1_generic_func_decl.html#ad29453cf592d3bdccde30dfcd103b4a3" target="_top" xlink:title="delta::GenericFuncDecl\l::classof">
<polygon fill="#ffffff" stroke="#000000" points="143.1621,-279.5 143.1621,-307.5 263.6543,-307.5 263.6543,-279.5 143.1621,-279.5"/>
<text text-anchor="start" x="151.1621" y="-295.5" font-family="Helvetica,sans-Serif" font-size="10.00" fill="#000000">delta::GenericFuncDecl</text>
<text text-anchor="middle" x="203.4082" y="-285.5" font-family="Helvetica,sans-Serif" font-size="10.00" fill="#000000">::classof</text>
</a>
</g>
</g>
<!-- Node2&#45;&gt;Node7 -->
<g id="edge5" class="edge">
<title>Node2&#45;&gt;Node7</title>
<path fill="none" stroke="#191970" d="M79.2532,-244.03C96.2725,-252.0948 118.5623,-262.3205 138.7188,-270.5 146.2292,-273.5477 154.314,-276.5992 162.1381,-279.4373"/>
<polygon fill="#191970" stroke="#191970" points="80.4297,-240.7133 69.8975,-239.5631 77.4137,-247.0302 80.4297,-240.7133"/>
</g>
<!-- Node8 -->
<g id="node7" class="node">
<title>Node8</title>
<g id="a_node7"><a xlink:href="classdelta_1_1_init_decl.html#a69acd06e0d616826a9aa278076163f51" target="_top" xlink:title="delta::InitDecl::classof">
<polygon fill="#ffffff" stroke="#000000" points="146.7754,-242.5 146.7754,-260.5 260.041,-260.5 260.041,-242.5 146.7754,-242.5"/>
<text text-anchor="middle" x="203.4082" y="-248.5" font-family="Helvetica,sans-Serif" font-size="10.00" fill="#000000">delta::InitDecl::classof</text>
</a>
</g>
</g>
<!-- Node2&#45;&gt;Node8 -->
<g id="edge6" class="edge">
<title>Node2&#45;&gt;Node8</title>
<path fill="none" stroke="#191970" d="M112.9505,-239.0066C124.1278,-240.5503 135.7372,-242.1537 146.7638,-243.6766"/>
<polygon fill="#191970" stroke="#191970" points="113.221,-235.5108 102.8362,-237.6096 112.2633,-242.445 113.221,-235.5108"/>
</g>
<!-- Node9 -->
<g id="node8" class="node">
<title>Node9</title>
<g id="a_node8"><a xlink:href="classdelta_1_1_deinit_decl.html#ab71d974c56fd23677a1828acc3569836" target="_top" xlink:title="delta::DeinitDecl::\lclassof">
<polygon fill="#ffffff" stroke="#000000" points="156.2236,-195.5 156.2236,-223.5 250.5928,-223.5 250.5928,-195.5 156.2236,-195.5"/>
<text text-anchor="start" x="164.2236" y="-211.5" font-family="Helvetica,sans-Serif" font-size="10.00" fill="#000000">delta::DeinitDecl::</text>
<text text-anchor="middle" x="203.4082" y="-201.5" font-family="Helvetica,sans-Serif" font-size="10.00" fill="#000000">classof</text>
</a>
</g>
</g>
<!-- Node2&#45;&gt;Node9 -->
<g id="edge7" class="edge">
<title>Node2&#45;&gt;Node9</title>
<path fill="none" stroke="#191970" d="M113.1174,-221.9704C127.4492,-219.991 142.4826,-217.9147 156.0805,-216.0366"/>
<polygon fill="#191970" stroke="#191970" points="112.2633,-218.555 102.8362,-223.3904 113.221,-225.4892 112.2633,-218.555"/>
</g>
<!-- Node10 -->
<g id="node9" class="node">
<title>Node10</title>
<g id="a_node9"><a xlink:href="classdelta_1_1_type_decl.html#a33fc815ffa2312b1478ea97c08f5d98c" target="_top" xlink:title="delta::TypeDecl::classof">
<polygon fill="#ffffff" stroke="#000000" points="142.603,-158.5 142.603,-176.5 264.2134,-176.5 264.2134,-158.5 142.603,-158.5"/>
<text text-anchor="middle" x="203.4082" y="-164.5" font-family="Helvetica,sans-Serif" font-size="10.00" fill="#000000">delta::TypeDecl::classof</text>
</a>
</g>
</g>
<!-- Node2&#45;&gt;Node10 -->
<g id="edge8" class="edge">
<title>Node2&#45;&gt;Node10</title>
<path fill="none" stroke="#191970" d="M76.2134,-216.4643C93.4004,-207.1392 116.9963,-195.0788 138.7188,-186.5 148.1904,-182.7594 158.6955,-179.3668 168.4377,-176.5178"/>
<polygon fill="#191970" stroke="#191970" points="74.4527,-213.4382 67.3771,-221.3241 77.826,-219.5718 74.4527,-213.4382"/>
</g>
<!-- Node11 -->
<g id="node10" class="node">
<title>Node11</title>
<g id="a_node10"><a xlink:href="classdelta_1_1_var_decl.html#a0367e453842e12fe903575f8e8df22bb" target="_top" xlink:title="delta::VarDecl::classof">
<polygon fill="#ffffff" stroke="#000000" points="146.0332,-121.5 146.0332,-139.5 260.7832,-139.5 260.7832,-121.5 146.0332,-121.5"/>
<text text-anchor="middle" x="203.4082" y="-127.5" font-family="Helvetica,sans-Serif" font-size="10.00" fill="#000000">delta::VarDecl::classof</text>
</a>
</g>
</g>
<!-- Node2&#45;&gt;Node11 -->
<g id="edge9" class="edge">
<title>Node2&#45;&gt;Node11</title>
<path fill="none" stroke="#191970" d="M65.6296,-213.1746C81.6215,-194.8345 109.2011,-166.27 138.7188,-149.5 145.8429,-145.4525 153.9077,-142.1979 161.8662,-139.6052"/>
<polygon fill="#191970" stroke="#191970" points="62.5652,-211.3752 58.7521,-221.2601 67.8973,-215.9106 62.5652,-211.3752"/>
</g>
<!-- Node12 -->
<g id="node11" class="node">
<title>Node12</title>
<g id="a_node11"><a xlink:href="classdelta_1_1_field_decl.html#a605a124ad6dc82cc48c3a5e52f1e8191" target="_top" xlink:title="delta::FieldDecl::classof">
<polygon fill="#ffffff" stroke="#000000" points="142.6079,-84.5 142.6079,-102.5 264.2085,-102.5 264.2085,-84.5 142.6079,-84.5"/>
<text text-anchor="middle" x="203.4082" y="-90.5" font-family="Helvetica,sans-Serif" font-size="10.00" fill="#000000">delta::FieldDecl::classof</text>
</a>
</g>
</g>
<!-- Node2&#45;&gt;Node12 -->
<g id="edge10" class="edge">
<title>Node2&#45;&gt;Node12</title>
<path fill="none" stroke="#191970" d="M60.1152,-212.0777C73.4395,-186.0167 101.2669,-138.6532 138.7188,-112.5 144.6688,-108.345 151.5312,-105.0881 158.5149,-102.5381"/>
<polygon fill="#191970" stroke="#191970" points="56.8843,-210.7153 55.5871,-221.2304 63.1585,-213.8193 56.8843,-210.7153"/>
</g>
<!-- Node13 -->
<g id="node12" class="node">
<title>Node13</title>
<g id="a_node12"><a xlink:href="classdelta_1_1_import_decl.html#a245eddac8124223d30826f27c1a910dc" target="_top" xlink:title="delta::ImportDecl::\lclassof">
<polygon fill="#ffffff" stroke="#000000" points="154.8369,-37.5 154.8369,-65.5 251.9795,-65.5 251.9795,-37.5 154.8369,-37.5"/>
<text text-anchor="start" x="162.8369" y="-53.5" font-family="Helvetica,sans-Serif" font-size="10.00" fill="#000000">delta::ImportDecl::</text>
<text text-anchor="middle" x="203.4082" y="-43.5" font-family="Helvetica,sans-Serif" font-size="10.00" fill="#000000">classof</text>
</a>
</g>
</g>
<!-- Node2&#45;&gt;Node13 -->
<g id="edge11" class="edge">
<title>Node2&#45;&gt;Node13</title>
<path fill="none" stroke="#191970" d="M57.1093,-211.8257C67.9487,-179.5897 94.3857,-113.3299 138.7188,-75.5 143.4571,-71.4567 148.9396,-68.0658 154.6684,-65.229"/>
<polygon fill="#191970" stroke="#191970" points="53.7717,-210.7716 54.0279,-221.3633 60.4328,-212.9236 53.7717,-210.7716"/>
</g>
<!-- Node14 -->
<g id="node13" class="node">
<title>Node14</title>
<g id="a_node13"><a xlink:href="namespacedelta.html#afbcc11c583968bc13aa34e5c3d58e54b" target="_top" xlink:title="delta::findInSymbolTable">
<polygon fill="#ffffff" stroke="#000000" points="140.9307,-.5 140.9307,-18.5 265.8857,-18.5 265.8857,-.5 140.9307,-.5"/>
<text text-anchor="middle" x="203.4082" y="-6.5" font-family="Helvetica,sans-Serif" font-size="10.00" fill="#000000">delta::findInSymbolTable</text>
</a>
</g>
</g>
<!-- Node2&#45;&gt;Node14 -->
<g id="edge12" class="edge">
<title>Node2&#45;&gt;Node14</title>
<path fill="none" stroke="#191970" d="M54.155,-211.213C60.9941,-171.1201 82.3315,-78.3705 138.7188,-28.5 143.3658,-24.39 148.8614,-21.1675 154.655,-18.641"/>
<polygon fill="#191970" stroke="#191970" points="50.6727,-210.826 52.5634,-221.2508 57.5863,-211.9223 50.6727,-210.826"/>
</g>
<!-- Node15 -->
<g id="node14" class="node">
<title>Node15</title>
<g id="a_node14"><a xlink:href="namespacedelta.html#abf78cd71ca70d4a49c0e9c3ac2e06d87" target="_top" xlink:title="delta::addToSymbolTable">
<polygon fill="#ffffff" stroke="#000000" points="304.0977,-.5 304.0977,-18.5 431.8359,-18.5 431.8359,-.5 304.0977,-.5"/>
<text text-anchor="middle" x="367.9668" y="-6.5" font-family="Helvetica,sans-Serif" font-size="10.00" fill="#000000">delta::addToSymbolTable</text>
</a>
</g>
</g>
<!-- Node14&#45;&gt;Node15 -->
<g id="edge13" class="edge">
<title>Node14&#45;&gt;Node15</title>
<path fill="none" stroke="#191970" d="M276.1174,-9.5C285.4396,-9.5 294.9279,-9.5 304.0948,-9.5"/>
<polygon fill="#191970" stroke="#191970" points="276.0902,-6.0001 266.0902,-9.5 276.0902,-13.0001 276.0902,-6.0001"/>
</g>
</g>
</svg>
