<?xml version="1.0" encoding="UTF-8" standalone="no"?>
<!DOCTYPE svg PUBLIC "-//W3C//DTD SVG 1.1//EN"
 "http://www.w3.org/Graphics/SVG/1.1/DTD/svg11.dtd">
<!-- Generated by graphviz version 2.40.1 (20161225.0304)
 -->
<!-- Title: delta::FuncDecl::isExtern Pages: 1 -->
<svg width="460pt" height="27pt"
 viewBox="0.00 0.00 459.85 27.00" xmlns="http://www.w3.org/2000/svg" xmlns:xlink="http://www.w3.org/1999/xlink">
<g id="graph0" class="graph" transform="scale(1 1) rotate(0) translate(4 23)">
<title>delta::FuncDecl::isExtern</title>
<polygon fill="#ffffff" stroke="transparent" points="-4,4 -4,-23 455.8506,-23 455.8506,4 -4,4"/>
<!-- Node3 -->
<g id="node1" class="node">
<title>Node3</title>
<polygon fill="#bfbfbf" stroke="#000000" points="0,-.5 0,-18.5 127.1572,-18.5 127.1572,-.5 0,-.5"/>
<text text-anchor="middle" x="63.5786" y="-6.5" font-family="Helvetica,sans-Serif" font-size="10.00" fill="#000000">delta::FuncDecl::isExtern</text>
</g>
<!-- Node4 -->
<g id="node2" class="node">
<title>Node4</title>
<g id="a_node2"><a xlink:href="namespacedelta.html#afbcc11c583968bc13aa34e5c3d58e54b" target="_top" xlink:title="delta::findInSymbolTable">
<polygon fill="#ffffff" stroke="#000000" points="163.1572,-.5 163.1572,-18.5 288.1123,-18.5 288.1123,-.5 163.1572,-.5"/>
<text text-anchor="middle" x="225.6348" y="-6.5" font-family="Helvetica,sans-Serif" font-size="10.00" fill="#000000">delta::findInSymbolTable</text>
</a>
</g>
</g>
<!-- Node3&#45;&gt;Node4 -->
<g id="edge1" class="edge">
<title>Node3&#45;&gt;Node4</title>
<path fill="none" stroke="#191970" d="M137.2124,-9.5C145.8378,-9.5 154.5758,-9.5 163.0313,-9.5"/>
<polygon fill="#191970" stroke="#191970" points="137.1624,-6.0001 127.1624,-9.5 137.1623,-13.0001 137.1624,-6.0001"/>
</g>
<!-- Node5 -->
<g id="node3" class="node">
<title>Node5</title>
<g id="a_node3"><a xlink:href="namespacedelta.html#abf78cd71ca70d4a49c0e9c3ac2e06d87" target="_top" xlink:title="delta::addToSymbolTable">
<polygon fill="#ffffff" stroke="#000000" points="324.1123,-.5 324.1123,-18.5 451.8506,-18.5 451.8506,-.5 324.1123,-.5"/>
<text text-anchor="middle" x="387.9814" y="-6.5" font-family="Helvetica,sans-Serif" font-size="10.00" fill="#000000">delta::addToSymbolTable</text>
</a>
</g>
</g>
<!-- Node4&#45;&gt;Node5 -->
<g id="edge2" class="edge">
<title>Node4&#45;&gt;Node5</title>
<path fill="none" stroke="#191970" d="M298.6482,-9.5C307.1173,-9.5 315.7061,-9.5 324.0408,-9.5"/>
<polygon fill="#191970" stroke="#191970" points="298.4023,-6.0001 288.4022,-9.5 298.4022,-13.0001 298.4023,-6.0001"/>
</g>
</g>
</svg>
