<?xml version="1.0" encoding="UTF-8" standalone="no"?>
<!DOCTYPE svg PUBLIC "-//W3C//DTD SVG 1.1//EN"
 "http://www.w3.org/Graphics/SVG/1.1/DTD/svg11.dtd">
<!-- Generated by graphviz version 2.40.1 (20161225.0304)
 -->
<!-- Title: delta::GenericFuncDecl Pages: 1 -->
<svg width="274pt" height="298pt"
 viewBox="0.00 0.00 274.29 298.00" xmlns="http://www.w3.org/2000/svg" xmlns:xlink="http://www.w3.org/1999/xlink">
<g id="graph0" class="graph" transform="scale(1 1) rotate(0) translate(4 294)">
<title>delta::GenericFuncDecl</title>
<polygon fill="#ffffff" stroke="transparent" points="-4,4 -4,-294 270.2939,-294 270.2939,4 -4,4"/>
<!-- Node2 -->
<g id="node1" class="node">
<title>Node2</title>
<polygon fill="#bfbfbf" stroke="#000000" points="0,-.5 0,-18.5 120.4922,-18.5 120.4922,-.5 0,-.5"/>
<text text-anchor="middle" x="60.2461" y="-6.5" font-family="Helvetica,sans-Serif" font-size="10.00" fill="#000000">delta::GenericFuncDecl</text>
</g>
<!-- Node3 -->
<g id="node2" class="node">
<title>Node3</title>
<g id="a_node2"><a xlink:href="classdelta_1_1_decl.html" target="_top" xlink:title="delta::Decl">
<polygon fill="#ffffff" stroke="#000000" points="14.623,-205.5 14.623,-223.5 77.8691,-223.5 77.8691,-205.5 14.623,-205.5"/>
<text text-anchor="middle" x="46.2461" y="-211.5" font-family="Helvetica,sans-Serif" font-size="10.00" fill="#000000">delta::Decl</text>
</a>
</g>
</g>
<!-- Node3&#45;&gt;Node2 -->
<g id="edge1" class="edge">
<title>Node3&#45;&gt;Node2</title>
<path fill="none" stroke="#191970" d="M47.5624,-195.2257C50.4898,-152.3597 57.4508,-50.4314 59.6017,-18.9362"/>
<polygon fill="#191970" stroke="#191970" points="44.0553,-195.2116 46.8657,-205.4269 51.039,-195.6886 44.0553,-195.2116"/>
</g>
<!-- Node5 -->
<g id="node4" class="node">
<title>Node5</title>
<g id="a_node4"><a xlink:href="classdelta_1_1_generic_param_decl.html" target="_top" xlink:title="delta::GenericParamDecl">
<polygon fill="#ffffff" stroke="#000000" points="72.3892,-140.5 72.3892,-158.5 200.103,-158.5 200.103,-140.5 72.3892,-140.5"/>
<text text-anchor="middle" x="136.2461" y="-146.5" font-family="Helvetica,sans-Serif" font-size="10.00" fill="#000000">delta::GenericParamDecl</text>
</a>
</g>
</g>
<!-- Node3&#45;&gt;Node5 -->
<g id="edge4" class="edge">
<title>Node3&#45;&gt;Node5</title>
<path fill="none" stroke="#191970" d="M67.1725,-199.3865C84.6188,-186.7864 108.9067,-169.2451 123.5481,-158.6708"/>
<polygon fill="#191970" stroke="#191970" points="64.8178,-196.7697 58.7602,-205.462 68.9162,-202.4445 64.8178,-196.7697"/>
</g>
<!-- Node4 -->
<g id="node3" class="node">
<title>Node4</title>
<polygon fill="#ffffff" stroke="#bfbfbf" points="74.9224,-65.5 74.9224,-93.5 189.5698,-93.5 189.5698,-65.5 74.9224,-65.5"/>
<text text-anchor="start" x="82.9224" y="-81.5" font-family="Helvetica,sans-Serif" font-size="10.00" fill="#000000">std::vector&lt; delta</text>
<text text-anchor="middle" x="132.2461" y="-71.5" font-family="Helvetica,sans-Serif" font-size="10.00" fill="#000000">::GenericParamDecl &gt;</text>
</g>
<!-- Node4&#45;&gt;Node2 -->
<g id="edge2" class="edge">
<title>Node4&#45;&gt;Node2</title>
<path fill="none" stroke="#9a32cd" stroke-dasharray="5,2" d="M110.1367,-58.0048C96.6033,-44.8472 79.9763,-28.6822 69.7468,-18.7368"/>
<polygon fill="#9a32cd" stroke="#9a32cd" points="108.0661,-60.8731 117.6758,-65.3345 112.9456,-55.8542 108.0661,-60.8731"/>
<text text-anchor="middle" x="134.2607" y="-39" font-family="Helvetica,sans-Serif" font-size="10.00" fill="#000000"> genericParams</text>
</g>
<!-- Node5&#45;&gt;Node4 -->
<g id="edge3" class="edge">
<title>Node5&#45;&gt;Node4</title>
<path fill="none" stroke="#9a32cd" stroke-dasharray="5,2" d="M135.1332,-130.0243C134.4756,-118.5169 133.6576,-104.2016 133.0604,-93.7499"/>
<polygon fill="#9a32cd" stroke="#9a32cd" points="131.6583,-130.5647 135.7232,-140.3487 138.6469,-130.1653 131.6583,-130.5647"/>
<text text-anchor="middle" x="156.9233" y="-114" font-family="Helvetica,sans-Serif" font-size="10.00" fill="#000000"> elements</text>
</g>
<!-- Node6 -->
<g id="node5" class="node">
<title>Node6</title>
<g id="a_node5"><a xlink:href="structdelta_1_1_src_loc.html" target="_top" xlink:title="delta::SrcLoc">
<polygon fill="#ffffff" stroke="#000000" points="97.064,-205.5 97.064,-223.5 171.4282,-223.5 171.4282,-205.5 97.064,-205.5"/>
<text text-anchor="middle" x="134.2461" y="-211.5" font-family="Helvetica,sans-Serif" font-size="10.00" fill="#000000">delta::SrcLoc</text>
</a>
</g>
</g>
<!-- Node6&#45;&gt;Node5 -->
<g id="edge5" class="edge">
<title>Node6&#45;&gt;Node5</title>
<path fill="none" stroke="#9a32cd" stroke-dasharray="5,2" d="M134.8422,-195.1265C135.2106,-183.1522 135.667,-168.3205 135.9574,-158.8821"/>
<polygon fill="#9a32cd" stroke="#9a32cd" points="131.3335,-195.3591 134.5242,-205.462 138.3302,-195.5744 131.3335,-195.3591"/>
<text text-anchor="middle" x="152.3618" y="-179" font-family="Helvetica,sans-Serif" font-size="10.00" fill="#000000"> srcLoc</text>
</g>
<!-- Node7 -->
<g id="node6" class="node">
<title>Node7</title>
<g id="a_node6"><a xlink:title="STL class. ">
<polygon fill="#ffffff" stroke="#bfbfbf" points="189.5713,-205.5 189.5713,-223.5 248.9209,-223.5 248.9209,-205.5 189.5713,-205.5"/>
<text text-anchor="middle" x="219.2461" y="-211.5" font-family="Helvetica,sans-Serif" font-size="10.00" fill="#000000">std::string</text>
</a>
</g>
</g>
<!-- Node7&#45;&gt;Node5 -->
<g id="edge6" class="edge">
<title>Node7&#45;&gt;Node5</title>
<path fill="none" stroke="#9a32cd" stroke-dasharray="5,2" d="M200.2239,-199.1733C191.7001,-192.344 181.5026,-184.2269 172.2461,-177 164.311,-170.8048 155.311,-163.9298 148.2948,-158.6036"/>
<polygon fill="#9a32cd" stroke="#9a32cd" points="198.1044,-201.9601 208.093,-205.4925 202.4875,-196.5021 198.1044,-201.9601"/>
<text text-anchor="middle" x="197.1426" y="-179" font-family="Helvetica,sans-Serif" font-size="10.00" fill="#000000"> name</text>
</g>
<!-- Node8 -->
<g id="node7" class="node">
<title>Node8</title>
<g id="a_node7"><a xlink:title="STL class. ">
<polygon fill="#ffffff" stroke="#bfbfbf" points="172.1982,-261.5 172.1982,-289.5 266.2939,-289.5 266.2939,-261.5 172.1982,-261.5"/>
<text text-anchor="start" x="180.1982" y="-277.5" font-family="Helvetica,sans-Serif" font-size="10.00" fill="#000000">std::basic_string&lt;</text>
<text text-anchor="middle" x="219.2461" y="-267.5" font-family="Helvetica,sans-Serif" font-size="10.00" fill="#000000"> char &gt;</text>
</a>
</g>
</g>
<!-- Node8&#45;&gt;Node7 -->
<g id="edge7" class="edge">
<title>Node8&#45;&gt;Node7</title>
<path fill="none" stroke="#191970" d="M219.2461,-251.1001C219.2461,-241.5157 219.2461,-231.0935 219.2461,-223.831"/>
<polygon fill="#191970" stroke="#191970" points="215.7462,-251.352 219.2461,-261.3521 222.7462,-251.3521 215.7462,-251.352"/>
</g>
</g>
</svg>
