<?xml version="1.0" encoding="UTF-8" standalone="no"?>
<!DOCTYPE svg PUBLIC "-//W3C//DTD SVG 1.1//EN"
 "http://www.w3.org/Graphics/SVG/1.1/DTD/svg11.dtd">
<!-- Generated by graphviz version 2.40.1 (20161225.0304)
 -->
<!-- Title: delta::TypeBase Pages: 1 -->
<svg width="512pt" height="82pt"
 viewBox="0.00 0.00 512.20 82.00" xmlns="http://www.w3.org/2000/svg" xmlns:xlink="http://www.w3.org/1999/xlink">
<g id="graph0" class="graph" transform="scale(1 1) rotate(0) translate(4 78)">
<title>delta::TypeBase</title>
<polygon fill="#ffffff" stroke="transparent" points="-4,4 -4,-78 508.1958,-78 508.1958,4 -4,4"/>
<!-- Node0 -->
<g id="node1" class="node">
<title>Node0</title>
<polygon fill="#bfbfbf" stroke="#000000" points="213.5493,-55.5 213.5493,-73.5 301.2681,-73.5 301.2681,-55.5 213.5493,-55.5"/>
<text text-anchor="middle" x="257.4087" y="-61.5" font-family="Helvetica,sans-Serif" font-size="10.00" fill="#000000">delta::TypeBase</text>
</g>
<!-- Node1 -->
<g id="node2" class="node">
<title>Node1</title>
<g id="a_node2"><a xlink:href="classdelta_1_1_array_type.html" target="_top" xlink:title="delta::ArrayType">
<polygon fill="#ffffff" stroke="#000000" points="0,-.5 0,-18.5 88.8174,-18.5 88.8174,-.5 0,-.5"/>
<text text-anchor="middle" x="44.4087" y="-6.5" font-family="Helvetica,sans-Serif" font-size="10.00" fill="#000000">delta::ArrayType</text>
</a>
</g>
</g>
<!-- Node0&#45;&gt;Node1 -->
<g id="edge1" class="edge">
<title>Node0&#45;&gt;Node1</title>
<path fill="none" stroke="#191970" d="M212.5364,-52.9133C172.8152,-42.6566 115.6562,-27.8973 79.2795,-18.5042"/>
<polygon fill="#191970" stroke="#191970" points="211.6786,-56.3065 222.2361,-55.4179 213.4287,-49.5288 211.6786,-56.3065"/>
</g>
<!-- Node2 -->
<g id="node3" class="node">
<title>Node2</title>
<g id="a_node3"><a xlink:href="classdelta_1_1_basic_type.html" target="_top" xlink:title="delta::BasicType">
<polygon fill="#ffffff" stroke="#000000" points="106.7192,-.5 106.7192,-18.5 196.0981,-18.5 196.0981,-.5 106.7192,-.5"/>
<text text-anchor="middle" x="151.4087" y="-6.5" font-family="Helvetica,sans-Serif" font-size="10.00" fill="#000000">delta::BasicType</text>
</a>
</g>
</g>
<!-- Node0&#45;&gt;Node2 -->
<g id="edge2" class="edge">
<title>Node0&#45;&gt;Node2</title>
<path fill="none" stroke="#191970" d="M230.9722,-50.7829C211.5939,-40.7282 185.8258,-27.3579 168.9384,-18.5956"/>
<polygon fill="#191970" stroke="#191970" points="229.4167,-53.9189 239.9049,-55.4179 232.6406,-47.7055 229.4167,-53.9189"/>
</g>
<!-- Node3 -->
<g id="node4" class="node">
<title>Node3</title>
<g id="a_node4"><a xlink:href="classdelta_1_1_func_type.html" target="_top" xlink:title="delta::FuncType">
<polygon fill="#ffffff" stroke="#000000" points="213.8301,-.5 213.8301,-18.5 300.9873,-18.5 300.9873,-.5 213.8301,-.5"/>
<text text-anchor="middle" x="257.4087" y="-6.5" font-family="Helvetica,sans-Serif" font-size="10.00" fill="#000000">delta::FuncType</text>
</a>
</g>
</g>
<!-- Node0&#45;&gt;Node3 -->
<g id="edge3" class="edge">
<title>Node0&#45;&gt;Node3</title>
<path fill="none" stroke="#191970" d="M257.4087,-45.383C257.4087,-36.3738 257.4087,-26.0373 257.4087,-18.7795"/>
<polygon fill="#191970" stroke="#191970" points="253.9088,-45.4178 257.4087,-55.4179 260.9088,-45.4179 253.9088,-45.4178"/>
</g>
<!-- Node4 -->
<g id="node5" class="node">
<title>Node4</title>
<g id="a_node5"><a xlink:href="classdelta_1_1_ptr_type.html" target="_top" xlink:title="delta::PtrType">
<polygon fill="#ffffff" stroke="#000000" points="318.5566,-.5 318.5566,-18.5 396.2607,-18.5 396.2607,-.5 318.5566,-.5"/>
<text text-anchor="middle" x="357.4087" y="-6.5" font-family="Helvetica,sans-Serif" font-size="10.00" fill="#000000">delta::PtrType</text>
</a>
</g>
</g>
<!-- Node0&#45;&gt;Node4 -->
<g id="edge4" class="edge">
<title>Node0&#45;&gt;Node4</title>
<path fill="none" stroke="#191970" d="M282.8489,-50.5079C301.0715,-40.4854 325.0846,-27.2783 340.8712,-18.5956"/>
<polygon fill="#191970" stroke="#191970" points="280.9971,-47.5319 273.9217,-55.4179 284.3706,-53.6654 280.9971,-47.5319"/>
</g>
<!-- Node5 -->
<g id="node6" class="node">
<title>Node5</title>
<g id="a_node6"><a xlink:href="classdelta_1_1_tuple_type.html" target="_top" xlink:title="delta::TupleType">
<polygon fill="#ffffff" stroke="#000000" points="414.6216,-.5 414.6216,-18.5 504.1958,-18.5 504.1958,-.5 414.6216,-.5"/>
<text text-anchor="middle" x="459.4087" y="-6.5" font-family="Helvetica,sans-Serif" font-size="10.00" fill="#000000">delta::TupleType</text>
</a>
</g>
</g>
<!-- Node0&#45;&gt;Node5 -->
<g id="edge5" class="edge">
<title>Node0&#45;&gt;Node5</title>
<path fill="none" stroke="#191970" d="M300.4433,-52.7826C338.0925,-42.5316 391.9868,-27.8575 426.3387,-18.5042"/>
<polygon fill="#191970" stroke="#191970" points="299.4941,-49.4136 290.7649,-55.4179 301.3331,-56.1677 299.4941,-49.4136"/>
</g>
</g>
</svg>
