<?xml version="1.0" encoding="UTF-8" standalone="no"?>
<!DOCTYPE svg PUBLIC "-//W3C//DTD SVG 1.1//EN"
 "http://www.w3.org/Graphics/SVG/1.1/DTD/svg11.dtd">
<!-- Generated by graphviz version 2.40.1 (20161225.0304)
 -->
<!-- Title: delta::TupleType Pages: 1 -->
<svg width="206pt" height="167pt"
 viewBox="0.00 0.00 206.07 167.00" xmlns="http://www.w3.org/2000/svg" xmlns:xlink="http://www.w3.org/1999/xlink">
<g id="graph0" class="graph" transform="scale(1 1) rotate(0) translate(4 163)">
<title>delta::TupleType</title>
<polygon fill="#ffffff" stroke="transparent" points="-4,4 -4,-163 202.0747,-163 202.0747,4 -4,4"/>
<!-- Node2 -->
<g id="node1" class="node">
<title>Node2</title>
<polygon fill="#bfbfbf" stroke="#000000" points="34.0723,-.5 34.0723,-18.5 123.6465,-18.5 123.6465,-.5 34.0723,-.5"/>
<text text-anchor="middle" x="78.8594" y="-6.5" font-family="Helvetica,sans-Serif" font-size="10.00" fill="#000000">delta::TupleType</text>
</g>
<!-- Node3 -->
<g id="node2" class="node">
<title>Node3</title>
<g id="a_node2"><a xlink:href="classdelta_1_1_type_base.html" target="_top" xlink:title="delta::TypeBase">
<polygon fill="#ffffff" stroke="#000000" points="0,-70.5 0,-88.5 87.7188,-88.5 87.7188,-70.5 0,-70.5"/>
<text text-anchor="middle" x="43.8594" y="-76.5" font-family="Helvetica,sans-Serif" font-size="10.00" fill="#000000">delta::TypeBase</text>
</a>
</g>
</g>
<!-- Node3&#45;&gt;Node2 -->
<g id="edge1" class="edge">
<title>Node3&#45;&gt;Node2</title>
<path fill="none" stroke="#191970" d="M52.9075,-61.4037C59.7091,-47.8006 68.7523,-29.7142 74.1709,-18.8769"/>
<polygon fill="#191970" stroke="#191970" points="49.7767,-59.8392 48.435,-70.3487 56.0377,-62.9697 49.7767,-59.8392"/>
</g>
<!-- Node4 -->
<g id="node3" class="node">
<title>Node4</title>
<polygon fill="#ffffff" stroke="#bfbfbf" points="105.644,-65.5 105.644,-93.5 198.0747,-93.5 198.0747,-65.5 105.644,-65.5"/>
<text text-anchor="start" x="113.644" y="-81.5" font-family="Helvetica,sans-Serif" font-size="10.00" fill="#000000">std::vector&lt; delta</text>
<text text-anchor="middle" x="151.8594" y="-71.5" font-family="Helvetica,sans-Serif" font-size="10.00" fill="#000000">::Type &gt;</text>
</g>
<!-- Node4&#45;&gt;Node2 -->
<g id="edge2" class="edge">
<title>Node4&#45;&gt;Node2</title>
<path fill="none" stroke="#9a32cd" stroke-dasharray="5,2" d="M129.8268,-58.3729C116.0372,-45.1499 98.9606,-28.7751 88.492,-18.7368"/>
<polygon fill="#9a32cd" stroke="#9a32cd" points="127.4465,-60.9395 137.0867,-65.3345 132.2913,-55.887 127.4465,-60.9395"/>
<text text-anchor="middle" x="138.2607" y="-39" font-family="Helvetica,sans-Serif" font-size="10.00" fill="#000000"> subtypes</text>
</g>
<!-- Node5 -->
<g id="node4" class="node">
<title>Node5</title>
<g id="a_node4"><a xlink:href="structdelta_1_1_type.html" target="_top" xlink:title="delta::Type">
<polygon fill="#ffffff" stroke="#000000" points="119.3965,-140.5 119.3965,-158.5 184.3223,-158.5 184.3223,-140.5 119.3965,-140.5"/>
<text text-anchor="middle" x="151.8594" y="-146.5" font-family="Helvetica,sans-Serif" font-size="10.00" fill="#000000">delta::Type</text>
</a>
</g>
</g>
<!-- Node5&#45;&gt;Node4 -->
<g id="edge3" class="edge">
<title>Node5&#45;&gt;Node4</title>
<path fill="none" stroke="#9a32cd" stroke-dasharray="5,2" d="M151.8594,-130.0243C151.8594,-118.5169 151.8594,-104.2016 151.8594,-93.7499"/>
<polygon fill="#9a32cd" stroke="#9a32cd" points="148.3595,-130.3487 151.8594,-140.3487 155.3595,-130.3488 148.3595,-130.3487"/>
<text text-anchor="middle" x="173.5366" y="-114" font-family="Helvetica,sans-Serif" font-size="10.00" fill="#000000"> elements</text>
</g>
</g>
</svg>
