<?xml version="1.0" encoding="UTF-8" standalone="no"?>
<!DOCTYPE svg PUBLIC "-//W3C//DTD SVG 1.1//EN"
 "http://www.w3.org/Graphics/SVG/1.1/DTD/svg11.dtd">
<!-- Generated by graphviz version 2.40.1 (20161225.0304)
 -->
<!-- Title: delta::PrefixExpr Pages: 1 -->
<svg width="295pt" height="232pt"
 viewBox="0.00 0.00 295.31 232.00" xmlns="http://www.w3.org/2000/svg" xmlns:xlink="http://www.w3.org/1999/xlink">
<g id="graph0" class="graph" transform="scale(1 1) rotate(0) translate(4 228)">
<title>delta::PrefixExpr</title>
<polygon fill="#ffffff" stroke="transparent" points="-4,4 -4,-228 291.3149,-228 291.3149,4 -4,4"/>
<!-- Node2 -->
<g id="node1" class="node">
<title>Node2</title>
<polygon fill="#bfbfbf" stroke="#000000" points="60.5,-.5 60.5,-18.5 149.8643,-18.5 149.8643,-.5 60.5,-.5"/>
<text text-anchor="middle" x="105.1821" y="-6.5" font-family="Helvetica,sans-Serif" font-size="10.00" fill="#000000">delta::PrefixExpr</text>
</g>
<!-- Node3 -->
<g id="node2" class="node">
<title>Node3</title>
<g id="a_node2"><a xlink:href="classdelta_1_1_expr.html" target="_top" xlink:title="delta::Expr">
<polygon fill="#ffffff" stroke="#000000" points="5.2808,-140.5 5.2808,-158.5 69.0835,-158.5 69.0835,-140.5 5.2808,-140.5"/>
<text text-anchor="middle" x="37.1821" y="-146.5" font-family="Helvetica,sans-Serif" font-size="10.00" fill="#000000">delta::Expr</text>
</a>
</g>
</g>
<!-- Node3&#45;&gt;Node2 -->
<g id="edge1" class="edge">
<title>Node3&#45;&gt;Node2</title>
<path fill="none" stroke="#191970" d="M33.6302,-130.2558C31.2869,-112.4125 30.2402,-85.5928 40.1821,-65 50.3108,-44.0203 72.4634,-27.8992 88.0823,-18.5681"/>
<polygon fill="#191970" stroke="#191970" points="30.1989,-130.9663 35.2124,-140.2998 37.1136,-129.877 30.1989,-130.9663"/>
</g>
<!-- Node6 -->
<g id="node5" class="node">
<title>Node6</title>
<polygon fill="#ffffff" stroke="#bfbfbf" points="48.9521,-65.5 48.9521,-93.5 161.4121,-93.5 161.4121,-65.5 48.9521,-65.5"/>
<text text-anchor="start" x="56.9521" y="-81.5" font-family="Helvetica,sans-Serif" font-size="10.00" fill="#000000">std::unique_ptr&lt; delta</text>
<text text-anchor="middle" x="105.1821" y="-71.5" font-family="Helvetica,sans-Serif" font-size="10.00" fill="#000000">::Expr &gt;</text>
</g>
<!-- Node3&#45;&gt;Node6 -->
<g id="edge5" class="edge">
<title>Node3&#45;&gt;Node6</title>
<path fill="none" stroke="#9a32cd" stroke-dasharray="5,2" d="M53.3672,-132.8388C64.9362,-120.9296 80.3402,-105.0726 91.3394,-93.7499"/>
<polygon fill="#9a32cd" stroke="#9a32cd" points="50.5293,-130.7371 46.0719,-140.3487 55.5503,-135.6147 50.5293,-130.7371"/>
<text text-anchor="middle" x="81.4063" y="-114" font-family="Helvetica,sans-Serif" font-size="10.00" fill="#000000"> ptr</text>
</g>
<!-- Node4 -->
<g id="node3" class="node">
<title>Node4</title>
<g id="a_node3"><a xlink:href="structdelta_1_1_src_loc.html" target="_top" xlink:title="delta::SrcLoc">
<polygon fill="#ffffff" stroke="#000000" points="0,-205.5 0,-223.5 74.3643,-223.5 74.3643,-205.5 0,-205.5"/>
<text text-anchor="middle" x="37.1821" y="-211.5" font-family="Helvetica,sans-Serif" font-size="10.00" fill="#000000">delta::SrcLoc</text>
</a>
</g>
</g>
<!-- Node4&#45;&gt;Node3 -->
<g id="edge2" class="edge">
<title>Node4&#45;&gt;Node3</title>
<path fill="none" stroke="#9a32cd" stroke-dasharray="5,2" d="M37.1821,-195.1265C37.1821,-183.1522 37.1821,-168.3205 37.1821,-158.8821"/>
<polygon fill="#9a32cd" stroke="#9a32cd" points="33.6822,-195.462 37.1821,-205.462 40.6822,-195.4621 33.6822,-195.462"/>
<text text-anchor="middle" x="53.2979" y="-179" font-family="Helvetica,sans-Serif" font-size="10.00" fill="#000000"> srcLoc</text>
</g>
<!-- Node5 -->
<g id="node4" class="node">
<title>Node5</title>
<g id="a_node4"><a xlink:href="structdelta_1_1_prefix_operator.html" target="_top" xlink:title="delta::PrefixOperator">
<polygon fill="#ffffff" stroke="#000000" points="179.0493,-70.5 179.0493,-88.5 287.3149,-88.5 287.3149,-70.5 179.0493,-70.5"/>
<text text-anchor="middle" x="233.1821" y="-76.5" font-family="Helvetica,sans-Serif" font-size="10.00" fill="#000000">delta::PrefixOperator</text>
</a>
</g>
</g>
<!-- Node5&#45;&gt;Node2 -->
<g id="edge3" class="edge">
<title>Node5&#45;&gt;Node2</title>
<path fill="none" stroke="#9a32cd" stroke-dasharray="5,2" d="M207.6493,-65.5368C182.1988,-51.6185 143.8452,-30.6439 121.9971,-18.6957"/>
<polygon fill="#9a32cd" stroke="#9a32cd" points="206.2573,-68.7647 216.7104,-70.492 209.616,-62.6231 206.2573,-68.7647"/>
<text text-anchor="middle" x="179.1328" y="-39" font-family="Helvetica,sans-Serif" font-size="10.00" fill="#000000"> op</text>
</g>
<!-- Node6&#45;&gt;Node2 -->
<g id="edge4" class="edge">
<title>Node6&#45;&gt;Node2</title>
<path fill="none" stroke="#9a32cd" stroke-dasharray="5,2" d="M105.1821,-55.007C105.1821,-42.4648 105.1821,-27.9386 105.1821,-18.7368"/>
<polygon fill="#9a32cd" stroke="#9a32cd" points="101.6822,-55.3344 105.1821,-65.3345 108.6822,-55.3345 101.6822,-55.3344"/>
<text text-anchor="middle" x="124.9209" y="-39" font-family="Helvetica,sans-Serif" font-size="10.00" fill="#000000"> operand</text>
</g>
</g>
</svg>
