<?xml version="1.0" encoding="UTF-8" standalone="no"?>
<!DOCTYPE svg PUBLIC "-//W3C//DTD SVG 1.1//EN"
 "http://www.w3.org/Graphics/SVG/1.1/DTD/svg11.dtd">
<!-- Generated by graphviz version 2.40.1 (20161225.0304)
 -->
<!-- Title: delta::ReturnStmt Pages: 1 -->
<svg width="262pt" height="307pt"
 viewBox="0.00 0.00 262.13 307.00" xmlns="http://www.w3.org/2000/svg" xmlns:xlink="http://www.w3.org/1999/xlink">
<g id="graph0" class="graph" transform="scale(1 1) rotate(0) translate(4 303)">
<title>delta::ReturnStmt</title>
<polygon fill="#ffffff" stroke="transparent" points="-4,4 -4,-303 258.1289,-303 258.1289,4 -4,4"/>
<!-- Node2 -->
<g id="node1" class="node">
<title>Node2</title>
<polygon fill="#bfbfbf" stroke="#000000" points="44.9927,-.5 44.9927,-18.5 138.8052,-18.5 138.8052,-.5 44.9927,-.5"/>
<text text-anchor="middle" x="91.8989" y="-6.5" font-family="Helvetica,sans-Serif" font-size="10.00" fill="#000000">delta::ReturnStmt</text>
</g>
<!-- Node3 -->
<g id="node2" class="node">
<title>Node3</title>
<g id="a_node2"><a xlink:href="classdelta_1_1_stmt.html" target="_top" xlink:title="delta::Stmt">
<polygon fill="#ffffff" stroke="#000000" points="0,-70.5 0,-88.5 63.7979,-88.5 63.7979,-70.5 0,-70.5"/>
<text text-anchor="middle" x="31.8989" y="-76.5" font-family="Helvetica,sans-Serif" font-size="10.00" fill="#000000">delta::Stmt</text>
</a>
</g>
</g>
<!-- Node3&#45;&gt;Node2 -->
<g id="edge1" class="edge">
<title>Node3&#45;&gt;Node2</title>
<path fill="none" stroke="#191970" d="M46.4013,-62.5806C58.1615,-48.8603 74.3019,-30.0299 83.8615,-18.8769"/>
<polygon fill="#191970" stroke="#191970" points="43.5934,-60.4784 39.7429,-70.3487 48.9082,-65.0339 43.5934,-60.4784"/>
</g>
<!-- Node4 -->
<g id="node3" class="node">
<title>Node4</title>
<polygon fill="#ffffff" stroke="#bfbfbf" points="129.063,-65.5 129.063,-93.5 248.7349,-93.5 248.7349,-65.5 129.063,-65.5"/>
<text text-anchor="start" x="137.063" y="-81.5" font-family="Helvetica,sans-Serif" font-size="10.00" fill="#000000">std::vector&lt; std::unique</text>
<text text-anchor="middle" x="188.8989" y="-71.5" font-family="Helvetica,sans-Serif" font-size="10.00" fill="#000000">_ptr&lt; delta::Expr &gt; &gt;</text>
</g>
<!-- Node4&#45;&gt;Node2 -->
<g id="edge2" class="edge">
<title>Node4&#45;&gt;Node2</title>
<path fill="none" stroke="#9a32cd" stroke-dasharray="5,2" d="M161.0903,-59.4319C142.4023,-45.9457 118.67,-28.8193 104.4154,-18.5325"/>
<polygon fill="#9a32cd" stroke="#9a32cd" points="159.1124,-62.3207 169.2695,-65.3345 163.2087,-56.6444 159.1124,-62.3207"/>
<text text-anchor="middle" x="158.7412" y="-39" font-family="Helvetica,sans-Serif" font-size="10.00" fill="#000000"> values</text>
</g>
<!-- Node5 -->
<g id="node4" class="node">
<title>Node5</title>
<polygon fill="#ffffff" stroke="#bfbfbf" points="141.6689,-140.5 141.6689,-168.5 254.1289,-168.5 254.1289,-140.5 141.6689,-140.5"/>
<text text-anchor="start" x="149.6689" y="-156.5" font-family="Helvetica,sans-Serif" font-size="10.00" fill="#000000">std::unique_ptr&lt; delta</text>
<text text-anchor="middle" x="197.8989" y="-146.5" font-family="Helvetica,sans-Serif" font-size="10.00" fill="#000000">::Expr &gt;</text>
</g>
<!-- Node5&#45;&gt;Node4 -->
<g id="edge3" class="edge">
<title>Node5&#45;&gt;Node4</title>
<path fill="none" stroke="#9a32cd" stroke-dasharray="5,2" d="M195.0082,-130.4109C193.5477,-118.24 191.8267,-103.8983 190.5842,-93.5437"/>
<polygon fill="#9a32cd" stroke="#9a32cd" points="191.5395,-130.8813 196.2061,-140.3931 198.4896,-130.0473 191.5395,-130.8813"/>
<text text-anchor="middle" x="215.5762" y="-114" font-family="Helvetica,sans-Serif" font-size="10.00" fill="#000000"> elements</text>
</g>
<!-- Node6 -->
<g id="node5" class="node">
<title>Node6</title>
<g id="a_node5"><a xlink:href="classdelta_1_1_expr.html" target="_top" xlink:title="delta::Expr">
<polygon fill="#ffffff" stroke="#000000" points="142.9976,-215.5 142.9976,-233.5 206.8003,-233.5 206.8003,-215.5 142.9976,-215.5"/>
<text text-anchor="middle" x="174.8989" y="-221.5" font-family="Helvetica,sans-Serif" font-size="10.00" fill="#000000">delta::Expr</text>
</a>
</g>
</g>
<!-- Node6&#45;&gt;Node5 -->
<g id="edge4" class="edge">
<title>Node6&#45;&gt;Node5</title>
<path fill="none" stroke="#9a32cd" stroke-dasharray="5,2" d="M181.063,-205.7398C184.8825,-194.1151 189.7111,-179.4193 193.2168,-168.7499"/>
<polygon fill="#9a32cd" stroke="#9a32cd" points="177.7023,-204.7558 177.9058,-215.3487 184.3525,-206.941 177.7023,-204.7558"/>
<text text-anchor="middle" x="194.123" y="-189" font-family="Helvetica,sans-Serif" font-size="10.00" fill="#000000"> ptr</text>
</g>
<!-- Node7 -->
<g id="node6" class="node">
<title>Node7</title>
<g id="a_node6"><a xlink:href="structdelta_1_1_src_loc.html" target="_top" xlink:title="delta::SrcLoc">
<polygon fill="#ffffff" stroke="#000000" points="70.7168,-280.5 70.7168,-298.5 145.0811,-298.5 145.0811,-280.5 70.7168,-280.5"/>
<text text-anchor="middle" x="107.8989" y="-286.5" font-family="Helvetica,sans-Serif" font-size="10.00" fill="#000000">delta::SrcLoc</text>
</a>
</g>
</g>
<!-- Node7&#45;&gt;Node2 -->
<g id="edge6" class="edge">
<title>Node7&#45;&gt;Node2</title>
<path fill="none" stroke="#9a32cd" stroke-dasharray="5,2" d="M100.7879,-270.8833C96.5147,-258.0453 91.8989,-240.4797 91.8989,-224.5 91.8989,-224.5 91.8989,-224.5 91.8989,-79.5 91.8989,-57.625 91.8989,-31.9048 91.8989,-18.5614"/>
<polygon fill="#9a32cd" stroke="#9a32cd" points="97.5321,-272.1735 104.188,-280.4167 104.1253,-269.822 97.5321,-272.1735"/>
<text text-anchor="middle" x="108.0146" y="-151.5" font-family="Helvetica,sans-Serif" font-size="10.00" fill="#000000"> srcLoc</text>
</g>
<!-- Node7&#45;&gt;Node6 -->
<g id="edge5" class="edge">
<title>Node7&#45;&gt;Node6</title>
<path fill="none" stroke="#9a32cd" stroke-dasharray="5,2" d="M124.5159,-273.3791C137.3264,-260.9509 154.5966,-244.1962 165.2281,-233.8821"/>
<polygon fill="#9a32cd" stroke="#9a32cd" points="121.9553,-270.9868 117.215,-280.462 126.8295,-276.011 121.9553,-270.9868"/>
<text text-anchor="middle" x="161.0146" y="-254" font-family="Helvetica,sans-Serif" font-size="10.00" fill="#000000"> srcLoc</text>
</g>
</g>
</svg>
