<?xml version="1.0" encoding="UTF-8" standalone="no"?>
<!DOCTYPE svg PUBLIC "-//W3C//DTD SVG 1.1//EN"
 "http://www.w3.org/Graphics/SVG/1.1/DTD/svg11.dtd">
<!-- Generated by graphviz version 2.40.1 (20161225.0304)
 -->
<!-- Title: delta::MemberExpr Pages: 1 -->
<svg width="250pt" height="242pt"
 viewBox="0.00 0.00 250.23 242.00" xmlns="http://www.w3.org/2000/svg" xmlns:xlink="http://www.w3.org/1999/xlink">
<g id="graph0" class="graph" transform="scale(1 1) rotate(0) translate(4 238)">
<title>delta::MemberExpr</title>
<polygon fill="#ffffff" stroke="transparent" points="-4,4 -4,-238 246.23,-238 246.23,4 -4,4"/>
<!-- Node2 -->
<g id="node1" class="node">
<title>Node2</title>
<polygon fill="#bfbfbf" stroke="#000000" points="40.9434,-.5 40.9434,-18.5 141.4209,-18.5 141.4209,-.5 40.9434,-.5"/>
<text text-anchor="middle" x="91.1821" y="-6.5" font-family="Helvetica,sans-Serif" font-size="10.00" fill="#000000">delta::MemberExpr</text>
</g>
<!-- Node3 -->
<g id="node2" class="node">
<title>Node3</title>
<g id="a_node2"><a xlink:href="classdelta_1_1_expr.html" target="_top" xlink:title="delta::Expr">
<polygon fill="#ffffff" stroke="#000000" points="5.2808,-145.5 5.2808,-163.5 69.0835,-163.5 69.0835,-145.5 5.2808,-145.5"/>
<text text-anchor="middle" x="37.1821" y="-151.5" font-family="Helvetica,sans-Serif" font-size="10.00" fill="#000000">delta::Expr</text>
</a>
</g>
</g>
<!-- Node3&#45;&gt;Node2 -->
<g id="edge1" class="edge">
<title>Node3&#45;&gt;Node2</title>
<path fill="none" stroke="#191970" d="M29.3282,-135.9219C22.6484,-117.171 15.667,-87.8049 26.1821,-65 35.8748,-43.9787 57.8915,-27.9678 73.6131,-18.667"/>
<polygon fill="#191970" stroke="#191970" points="26.1141,-137.3142 32.9933,-145.372 32.6404,-134.783 26.1141,-137.3142"/>
</g>
<!-- Node7 -->
<g id="node6" class="node">
<title>Node7</title>
<polygon fill="#ffffff" stroke="#bfbfbf" points="34.9521,-65.5 34.9521,-93.5 147.4121,-93.5 147.4121,-65.5 34.9521,-65.5"/>
<text text-anchor="start" x="42.9521" y="-81.5" font-family="Helvetica,sans-Serif" font-size="10.00" fill="#000000">std::unique_ptr&lt; delta</text>
<text text-anchor="middle" x="91.1821" y="-71.5" font-family="Helvetica,sans-Serif" font-size="10.00" fill="#000000">::Expr &gt;</text>
</g>
<!-- Node3&#45;&gt;Node7 -->
<g id="edge6" class="edge">
<title>Node3&#45;&gt;Node7</title>
<path fill="none" stroke="#9a32cd" stroke-dasharray="5,2" d="M49.7528,-137.0408C59.2568,-123.8408 72.1383,-105.9498 81.0014,-93.64"/>
<polygon fill="#9a32cd" stroke="#9a32cd" points="46.8063,-135.1431 43.8036,-145.3035 52.4871,-139.2332 46.8063,-135.1431"/>
<text text-anchor="middle" x="75.4063" y="-114" font-family="Helvetica,sans-Serif" font-size="10.00" fill="#000000"> ptr</text>
</g>
<!-- Node4 -->
<g id="node3" class="node">
<title>Node4</title>
<g id="a_node3"><a xlink:href="structdelta_1_1_src_loc.html" target="_top" xlink:title="delta::SrcLoc">
<polygon fill="#ffffff" stroke="#000000" points="0,-215.5 0,-233.5 74.3643,-233.5 74.3643,-215.5 0,-215.5"/>
<text text-anchor="middle" x="37.1821" y="-221.5" font-family="Helvetica,sans-Serif" font-size="10.00" fill="#000000">delta::SrcLoc</text>
</a>
</g>
</g>
<!-- Node4&#45;&gt;Node3 -->
<g id="edge2" class="edge">
<title>Node4&#45;&gt;Node3</title>
<path fill="none" stroke="#9a32cd" stroke-dasharray="5,2" d="M37.1821,-205.2039C37.1821,-191.7531 37.1821,-174.3986 37.1821,-163.8769"/>
<polygon fill="#9a32cd" stroke="#9a32cd" points="33.6822,-205.3487 37.1821,-215.3487 40.6822,-205.3488 33.6822,-205.3487"/>
<text text-anchor="middle" x="53.2979" y="-189" font-family="Helvetica,sans-Serif" font-size="10.00" fill="#000000"> srcLoc</text>
</g>
<!-- Node5 -->
<g id="node4" class="node">
<title>Node5</title>
<g id="a_node4"><a xlink:title="STL class. ">
<polygon fill="#ffffff" stroke="#bfbfbf" points="165.5073,-70.5 165.5073,-88.5 224.8569,-88.5 224.8569,-70.5 165.5073,-70.5"/>
<text text-anchor="middle" x="195.1821" y="-76.5" font-family="Helvetica,sans-Serif" font-size="10.00" fill="#000000">std::string</text>
</a>
</g>
</g>
<!-- Node5&#45;&gt;Node2 -->
<g id="edge3" class="edge">
<title>Node5&#45;&gt;Node2</title>
<path fill="none" stroke="#9a32cd" stroke-dasharray="5,2" d="M173.1031,-64.6391C152.4136,-50.7135 122.1455,-30.3407 104.7816,-18.6535"/>
<polygon fill="#9a32cd" stroke="#9a32cd" points="171.3357,-67.6685 181.5859,-70.3487 175.2444,-61.8614 171.3357,-67.6685"/>
<text text-anchor="middle" x="166.9087" y="-39" font-family="Helvetica,sans-Serif" font-size="10.00" fill="#000000"> member</text>
</g>
<!-- Node6 -->
<g id="node5" class="node">
<title>Node6</title>
<g id="a_node5"><a xlink:title="STL class. ">
<polygon fill="#ffffff" stroke="#bfbfbf" points="148.1343,-140.5 148.1343,-168.5 242.23,-168.5 242.23,-140.5 148.1343,-140.5"/>
<text text-anchor="start" x="156.1343" y="-156.5" font-family="Helvetica,sans-Serif" font-size="10.00" fill="#000000">std::basic_string&lt;</text>
<text text-anchor="middle" x="195.1821" y="-146.5" font-family="Helvetica,sans-Serif" font-size="10.00" fill="#000000"> char &gt;</text>
</a>
</g>
</g>
<!-- Node6&#45;&gt;Node5 -->
<g id="edge4" class="edge">
<title>Node6&#45;&gt;Node5</title>
<path fill="none" stroke="#191970" d="M195.1821,-130.3035C195.1821,-116.1617 195.1821,-99.1197 195.1821,-88.807"/>
<polygon fill="#191970" stroke="#191970" points="191.6822,-130.393 195.1821,-140.3931 198.6822,-130.3931 191.6822,-130.393"/>
</g>
<!-- Node7&#45;&gt;Node2 -->
<g id="edge5" class="edge">
<title>Node7&#45;&gt;Node2</title>
<path fill="none" stroke="#9a32cd" stroke-dasharray="5,2" d="M91.1821,-55.007C91.1821,-42.4648 91.1821,-27.9386 91.1821,-18.7368"/>
<polygon fill="#9a32cd" stroke="#9a32cd" points="87.6822,-55.3344 91.1821,-65.3345 94.6822,-55.3345 87.6822,-55.3344"/>
<text text-anchor="middle" x="103.4136" y="-39" font-family="Helvetica,sans-Serif" font-size="10.00" fill="#000000"> base</text>
</g>
</g>
</svg>
