<?xml version="1.0" encoding="UTF-8" standalone="no"?>
<!DOCTYPE svg PUBLIC "-//W3C//DTD SVG 1.1//EN"
 "http://www.w3.org/Graphics/SVG/1.1/DTD/svg11.dtd">
<!-- Generated by graphviz version 2.40.1 (20161225.0304)
 -->
<!-- Title: delta::VarDecl::getType Pages: 1 -->
<svg width="452pt" height="27pt"
 viewBox="0.00 0.00 451.91 27.00" xmlns="http://www.w3.org/2000/svg" xmlns:xlink="http://www.w3.org/1999/xlink">
<g id="graph0" class="graph" transform="scale(1 1) rotate(0) translate(4 23)">
<title>delta::VarDecl::getType</title>
<polygon fill="#ffffff" stroke="transparent" points="-4,4 -4,-23 447.9063,-23 447.9063,4 -4,4"/>
<!-- Node2 -->
<g id="node1" class="node">
<title>Node2</title>
<polygon fill="#bfbfbf" stroke="#000000" points="0,-.5 0,-18.5 119.2129,-18.5 119.2129,-.5 0,-.5"/>
<text text-anchor="middle" x="59.6064" y="-6.5" font-family="Helvetica,sans-Serif" font-size="10.00" fill="#000000">delta::VarDecl::getType</text>
</g>
<!-- Node3 -->
<g id="node2" class="node">
<title>Node3</title>
<g id="a_node2"><a xlink:href="namespacedelta.html#afbcc11c583968bc13aa34e5c3d58e54b" target="_top" xlink:title="delta::findInSymbolTable">
<polygon fill="#ffffff" stroke="#000000" points="155.2129,-.5 155.2129,-18.5 280.168,-18.5 280.168,-.5 155.2129,-.5"/>
<text text-anchor="middle" x="217.6904" y="-6.5" font-family="Helvetica,sans-Serif" font-size="10.00" fill="#000000">delta::findInSymbolTable</text>
</a>
</g>
</g>
<!-- Node2&#45;&gt;Node3 -->
<g id="edge1" class="edge">
<title>Node2&#45;&gt;Node3</title>
<path fill="none" stroke="#191970" d="M129.3748,-9.5C137.9756,-9.5 146.725,-9.5 155.2079,-9.5"/>
<polygon fill="#191970" stroke="#191970" points="129.3713,-6.0001 119.3712,-9.5 129.3712,-13.0001 129.3713,-6.0001"/>
</g>
<!-- Node4 -->
<g id="node3" class="node">
<title>Node4</title>
<g id="a_node3"><a xlink:href="namespacedelta.html#abf78cd71ca70d4a49c0e9c3ac2e06d87" target="_top" xlink:title="delta::addToSymbolTable">
<polygon fill="#ffffff" stroke="#000000" points="316.168,-.5 316.168,-18.5 443.9063,-18.5 443.9063,-.5 316.168,-.5"/>
<text text-anchor="middle" x="380.0371" y="-6.5" font-family="Helvetica,sans-Serif" font-size="10.00" fill="#000000">delta::addToSymbolTable</text>
</a>
</g>
</g>
<!-- Node3&#45;&gt;Node4 -->
<g id="edge2" class="edge">
<title>Node3&#45;&gt;Node4</title>
<path fill="none" stroke="#191970" d="M290.7039,-9.5C299.173,-9.5 307.7617,-9.5 316.0964,-9.5"/>
<polygon fill="#191970" stroke="#191970" points="290.4579,-6.0001 280.4579,-9.5 290.4579,-13.0001 290.4579,-6.0001"/>
</g>
</g>
</svg>
