<?xml version="1.0" encoding="UTF-8" standalone="no"?>
<!DOCTYPE svg PUBLIC "-//W3C//DTD SVG 1.1//EN"
 "http://www.w3.org/Graphics/SVG/1.1/DTD/svg11.dtd">
<!-- Generated by graphviz version 2.40.1 (20161225.0304)
 -->
<!-- Title: delta::Stmt Pages: 1 -->
<svg width="221pt" height="434pt"
 viewBox="0.00 0.00 220.50 434.00" xmlns="http://www.w3.org/2000/svg" xmlns:xlink="http://www.w3.org/1999/xlink">
<g id="graph0" class="graph" transform="scale(1 1) rotate(0) translate(4 430)">
<title>delta::Stmt</title>
<polygon fill="#ffffff" stroke="transparent" points="-4,4 -4,-430 216.502,-430 216.502,4 -4,4"/>
<!-- Node0 -->
<g id="node1" class="node">
<title>Node0</title>
<polygon fill="#bfbfbf" stroke="#000000" points="0,-203.5 0,-221.5 63.7979,-221.5 63.7979,-203.5 0,-203.5"/>
<text text-anchor="middle" x="31.8989" y="-209.5" font-family="Helvetica,sans-Serif" font-size="10.00" fill="#000000">delta::Stmt</text>
</g>
<!-- Node1 -->
<g id="node2" class="node">
<title>Node1</title>
<g id="a_node2"><a xlink:href="classdelta_1_1_assign_stmt.html" target="_top" xlink:title="delta::AssignStmt">
<polygon fill="#ffffff" stroke="#000000" points="109.2437,-407.5 109.2437,-425.5 203.0562,-425.5 203.0562,-407.5 109.2437,-407.5"/>
<text text-anchor="middle" x="156.1499" y="-413.5" font-family="Helvetica,sans-Serif" font-size="10.00" fill="#000000">delta::AssignStmt</text>
</a>
</g>
</g>
<!-- Node0&#45;&gt;Node1 -->
<g id="edge1" class="edge">
<title>Node0&#45;&gt;Node1</title>
<path fill="none" stroke="#191970" d="M33.456,-231.8545C37.5109,-269.3671 51.7038,-352.331 99.7979,-398.5 103.6505,-402.1985 108.2631,-405.1371 113.168,-407.472"/>
<polygon fill="#191970" stroke="#191970" points="36.9274,-231.3868 32.4967,-221.7629 29.9588,-232.0492 36.9274,-231.3868"/>
</g>
<!-- Node2 -->
<g id="node3" class="node">
<title>Node2</title>
<g id="a_node3"><a xlink:href="classdelta_1_1_aug_assign_stmt.html" target="_top" xlink:title="An augmented assignment (a.k.a. compound assignment) statement. ">
<polygon fill="#ffffff" stroke="#000000" points="100.3472,-370.5 100.3472,-388.5 211.9526,-388.5 211.9526,-370.5 100.3472,-370.5"/>
<text text-anchor="middle" x="156.1499" y="-376.5" font-family="Helvetica,sans-Serif" font-size="10.00" fill="#000000">delta::AugAssignStmt</text>
</a>
</g>
</g>
<!-- Node0&#45;&gt;Node2 -->
<g id="edge2" class="edge">
<title>Node0&#45;&gt;Node2</title>
<path fill="none" stroke="#191970" d="M35.4693,-231.8816C42.3068,-263.548 60.2331,-326.363 99.7979,-361.5 103.9446,-365.1827 108.8493,-368.1127 114.0077,-370.4436"/>
<polygon fill="#191970" stroke="#191970" points="38.8319,-230.849 33.4324,-221.7334 31.9688,-232.2266 38.8319,-230.849"/>
</g>
<!-- Node3 -->
<g id="node4" class="node">
<title>Node3</title>
<g id="a_node4"><a xlink:href="classdelta_1_1_break_stmt.html" target="_top" xlink:title="delta::BreakStmt">
<polygon fill="#ffffff" stroke="#000000" points="111.1895,-333.5 111.1895,-351.5 201.1104,-351.5 201.1104,-333.5 111.1895,-333.5"/>
<text text-anchor="middle" x="156.1499" y="-339.5" font-family="Helvetica,sans-Serif" font-size="10.00" fill="#000000">delta::BreakStmt</text>
</a>
</g>
</g>
<!-- Node0&#45;&gt;Node3 -->
<g id="edge3" class="edge">
<title>Node0&#45;&gt;Node3</title>
<path fill="none" stroke="#191970" d="M38.4451,-231.2354C48.0698,-256.0988 68.374,-299.7325 99.7979,-324.5 104.4762,-328.1873 109.9272,-331.1278 115.5607,-333.4706"/>
<polygon fill="#191970" stroke="#191970" points="41.6177,-229.7228 34.8725,-221.5525 35.0505,-232.1459 41.6177,-229.7228"/>
</g>
<!-- Node4 -->
<g id="node5" class="node">
<title>Node4</title>
<g id="a_node5"><a xlink:href="classdelta_1_1_decrement_stmt.html" target="_top" xlink:title="delta::DecrementStmt">
<polygon fill="#ffffff" stroke="#000000" points="99.7979,-296.5 99.7979,-314.5 212.502,-314.5 212.502,-296.5 99.7979,-296.5"/>
<text text-anchor="middle" x="156.1499" y="-302.5" font-family="Helvetica,sans-Serif" font-size="10.00" fill="#000000">delta::DecrementStmt</text>
</a>
</g>
</g>
<!-- Node0&#45;&gt;Node4 -->
<g id="edge4" class="edge">
<title>Node0&#45;&gt;Node4</title>
<path fill="none" stroke="#191970" d="M43.7296,-230.2513C55.9088,-247.2292 76.3734,-272.4157 99.7979,-287.5 105.4105,-291.1143 111.8059,-294.0536 118.2247,-296.4278"/>
<polygon fill="#191970" stroke="#191970" points="46.4269,-227.9992 37.8496,-221.7798 40.6764,-231.9906 46.4269,-227.9992"/>
</g>
<!-- Node5 -->
<g id="node6" class="node">
<title>Node5</title>
<g id="a_node6"><a xlink:href="classdelta_1_1_defer_stmt.html" target="_top" xlink:title="delta::DeferStmt">
<polygon fill="#ffffff" stroke="#000000" points="112.0244,-259.5 112.0244,-277.5 200.2754,-277.5 200.2754,-259.5 112.0244,-259.5"/>
<text text-anchor="middle" x="156.1499" y="-265.5" font-family="Helvetica,sans-Serif" font-size="10.00" fill="#000000">delta::DeferStmt</text>
</a>
</g>
</g>
<!-- Node0&#45;&gt;Node5 -->
<g id="edge5" class="edge">
<title>Node0&#45;&gt;Node5</title>
<path fill="none" stroke="#191970" d="M54.7106,-226.7862C67.6176,-234.4779 84.2438,-243.7453 99.7979,-250.5 107.4283,-253.8137 115.8717,-256.8325 123.8497,-259.4113"/>
<polygon fill="#191970" stroke="#191970" points="56.4028,-223.7191 46.0382,-221.5225 52.7707,-229.7031 56.4028,-223.7191"/>
</g>
<!-- Node6 -->
<g id="node7" class="node">
<title>Node6</title>
<g id="a_node7"><a xlink:href="classdelta_1_1_expr_stmt.html" target="_top" xlink:title="A statement that consists of the evaluation of a single expression. ">
<polygon fill="#ffffff" stroke="#000000" points="113.9702,-222.5 113.9702,-240.5 198.3296,-240.5 198.3296,-222.5 113.9702,-222.5"/>
<text text-anchor="middle" x="156.1499" y="-228.5" font-family="Helvetica,sans-Serif" font-size="10.00" fill="#000000">delta::ExprStmt</text>
</a>
</g>
</g>
<!-- Node0&#45;&gt;Node6 -->
<g id="edge6" class="edge">
<title>Node0&#45;&gt;Node6</title>
<path fill="none" stroke="#191970" d="M73.9198,-218.9257C86.8263,-220.8993 101.0303,-223.0713 113.9488,-225.0468"/>
<polygon fill="#191970" stroke="#191970" points="74.3108,-215.4449 63.8966,-217.393 73.2526,-222.3644 74.3108,-215.4449"/>
</g>
<!-- Node7 -->
<g id="node8" class="node">
<title>Node7</title>
<g id="a_node8"><a xlink:href="classdelta_1_1_if_stmt.html" target="_top" xlink:title="delta::IfStmt">
<polygon fill="#ffffff" stroke="#000000" points="121.4727,-185.5 121.4727,-203.5 190.8271,-203.5 190.8271,-185.5 121.4727,-185.5"/>
<text text-anchor="middle" x="156.1499" y="-191.5" font-family="Helvetica,sans-Serif" font-size="10.00" fill="#000000">delta::IfStmt</text>
</a>
</g>
</g>
<!-- Node0&#45;&gt;Node7 -->
<g id="edge7" class="edge">
<title>Node0&#45;&gt;Node7</title>
<path fill="none" stroke="#191970" d="M74.1587,-206.3779C89.4734,-204.1593 106.5881,-201.6799 121.2033,-199.5627"/>
<polygon fill="#191970" stroke="#191970" points="73.2915,-202.9669 63.8966,-207.8646 74.2952,-209.8946 73.2915,-202.9669"/>
</g>
<!-- Node8 -->
<g id="node9" class="node">
<title>Node8</title>
<g id="a_node9"><a xlink:href="classdelta_1_1_increment_stmt.html" target="_top" xlink:title="delta::IncrementStmt">
<polygon fill="#ffffff" stroke="#000000" points="102.0195,-148.5 102.0195,-166.5 210.2803,-166.5 210.2803,-148.5 102.0195,-148.5"/>
<text text-anchor="middle" x="156.1499" y="-154.5" font-family="Helvetica,sans-Serif" font-size="10.00" fill="#000000">delta::IncrementStmt</text>
</a>
</g>
</g>
<!-- Node0&#45;&gt;Node8 -->
<g id="edge8" class="edge">
<title>Node0&#45;&gt;Node8</title>
<path fill="none" stroke="#191970" d="M56.2191,-198.3706C68.9553,-191.2901 84.9529,-182.8879 99.7979,-176.5 108.2384,-172.868 117.6211,-169.465 126.2707,-166.5706"/>
<polygon fill="#191970" stroke="#191970" points="54.1737,-195.5061 47.1885,-203.4721 57.6168,-201.6008 54.1737,-195.5061"/>
</g>
<!-- Node9 -->
<g id="node10" class="node">
<title>Node9</title>
<g id="a_node10"><a xlink:href="classdelta_1_1_return_stmt.html" target="_top" xlink:title="delta::ReturnStmt">
<polygon fill="#ffffff" stroke="#000000" points="109.2437,-111.5 109.2437,-129.5 203.0562,-129.5 203.0562,-111.5 109.2437,-111.5"/>
<text text-anchor="middle" x="156.1499" y="-117.5" font-family="Helvetica,sans-Serif" font-size="10.00" fill="#000000">delta::ReturnStmt</text>
</a>
</g>
</g>
<!-- Node0&#45;&gt;Node9 -->
<g id="edge9" class="edge">
<title>Node0&#45;&gt;Node9</title>
<path fill="none" stroke="#191970" d="M44.2811,-194.7862C56.6203,-178.3387 76.9789,-154.2356 99.7979,-139.5 106.0426,-135.4674 113.2322,-132.2002 120.3412,-129.5868"/>
<polygon fill="#191970" stroke="#191970" points="41.3382,-192.8822 38.2864,-203.028 46.9991,-196.9997 41.3382,-192.8822"/>
</g>
<!-- Node10 -->
<g id="node11" class="node">
<title>Node10</title>
<g id="a_node11"><a xlink:href="classdelta_1_1_switch_stmt.html" target="_top" xlink:title="delta::SwitchStmt">
<polygon fill="#ffffff" stroke="#000000" points="109.5244,-74.5 109.5244,-92.5 202.7754,-92.5 202.7754,-74.5 109.5244,-74.5"/>
<text text-anchor="middle" x="156.1499" y="-80.5" font-family="Helvetica,sans-Serif" font-size="10.00" fill="#000000">delta::SwitchStmt</text>
</a>
</g>
</g>
<!-- Node0&#45;&gt;Node10 -->
<g id="edge10" class="edge">
<title>Node0&#45;&gt;Node10</title>
<path fill="none" stroke="#191970" d="M38.7401,-193.8077C48.5902,-169.4091 69.0344,-126.947 99.7979,-102.5 104.971,-98.389 111.0795,-95.1461 117.3325,-92.594"/>
<polygon fill="#191970" stroke="#191970" points="35.3983,-192.7462 35.0641,-203.3358 41.9291,-195.2659 35.3983,-192.7462"/>
</g>
<!-- Node11 -->
<g id="node12" class="node">
<title>Node11</title>
<g id="a_node12"><a xlink:href="classdelta_1_1_variable_stmt.html" target="_top" xlink:title="delta::VariableStmt">
<polygon fill="#ffffff" stroke="#000000" points="106.2749,-37.5 106.2749,-55.5 206.0249,-55.5 206.0249,-37.5 106.2749,-37.5"/>
<text text-anchor="middle" x="156.1499" y="-43.5" font-family="Helvetica,sans-Serif" font-size="10.00" fill="#000000">delta::VariableStmt</text>
</a>
</g>
</g>
<!-- Node0&#45;&gt;Node11 -->
<g id="edge11" class="edge">
<title>Node0&#45;&gt;Node11</title>
<path fill="none" stroke="#191970" d="M35.6098,-193.4442C42.6501,-162.2978 60.8623,-100.4596 99.7979,-65.5 104.4072,-61.3614 109.9514,-58.119 115.7391,-55.5802"/>
<polygon fill="#191970" stroke="#191970" points="32.1441,-192.9168 33.5038,-203.424 38.9933,-194.3622 32.1441,-192.9168"/>
</g>
<!-- Node12 -->
<g id="node13" class="node">
<title>Node12</title>
<g id="a_node13"><a xlink:href="classdelta_1_1_while_stmt.html" target="_top" xlink:title="delta::WhileStmt">
<polygon fill="#ffffff" stroke="#000000" points="111.7485,-.5 111.7485,-18.5 200.5513,-18.5 200.5513,-.5 111.7485,-.5"/>
<text text-anchor="middle" x="156.1499" y="-6.5" font-family="Helvetica,sans-Serif" font-size="10.00" fill="#000000">delta::WhileStmt</text>
</a>
</g>
</g>
<!-- Node0&#45;&gt;Node12 -->
<g id="edge12" class="edge">
<title>Node0&#45;&gt;Node12</title>
<path fill="none" stroke="#191970" d="M33.587,-193.4164C37.8713,-156.417 52.4471,-74.5285 99.7979,-28.5 104.0917,-24.3261 109.3324,-21.0682 114.8707,-18.5255"/>
<polygon fill="#191970" stroke="#191970" points="30.1051,-193.0627 32.563,-203.3685 37.0683,-193.7793 30.1051,-193.0627"/>
</g>
</g>
</svg>
