<?xml version="1.0" encoding="UTF-8" standalone="no"?>
<!DOCTYPE svg PUBLIC "-//W3C//DTD SVG 1.1//EN"
 "http://www.w3.org/Graphics/SVG/1.1/DTD/svg11.dtd">
<!-- Generated by graphviz version 2.40.1 (20161225.0304)
 -->
<!-- Title: delta::ExprStmt Pages: 1 -->
<svg width="202pt" height="232pt"
 viewBox="0.00 0.00 202.13 232.00" xmlns="http://www.w3.org/2000/svg" xmlns:xlink="http://www.w3.org/1999/xlink">
<g id="graph0" class="graph" transform="scale(1 1) rotate(0) translate(4 228)">
<title>delta::ExprStmt</title>
<polygon fill="#ffffff" stroke="transparent" points="-4,4 -4,-228 198.1289,-228 198.1289,4 -4,4"/>
<!-- Node2 -->
<g id="node1" class="node">
<title>Node2</title>
<polygon fill="#bfbfbf" stroke="#000000" points="23.7192,-.5 23.7192,-18.5 108.0786,-18.5 108.0786,-.5 23.7192,-.5"/>
<text text-anchor="middle" x="65.8989" y="-6.5" font-family="Helvetica,sans-Serif" font-size="10.00" fill="#000000">delta::ExprStmt</text>
</g>
<!-- Node3 -->
<g id="node2" class="node">
<title>Node3</title>
<g id="a_node2"><a xlink:href="classdelta_1_1_stmt.html" target="_top" xlink:title="delta::Stmt">
<polygon fill="#ffffff" stroke="#000000" points="0,-70.5 0,-88.5 63.7979,-88.5 63.7979,-70.5 0,-70.5"/>
<text text-anchor="middle" x="31.8989" y="-76.5" font-family="Helvetica,sans-Serif" font-size="10.00" fill="#000000">delta::Stmt</text>
</a>
</g>
</g>
<!-- Node3&#45;&gt;Node2 -->
<g id="edge1" class="edge">
<title>Node3&#45;&gt;Node2</title>
<path fill="none" stroke="#191970" d="M40.8816,-61.0062C47.466,-47.4501 56.1317,-29.609 61.3444,-18.8769"/>
<polygon fill="#191970" stroke="#191970" points="37.5646,-59.8244 36.3438,-70.3487 43.8612,-62.8828 37.5646,-59.8244"/>
</g>
<!-- Node4 -->
<g id="node3" class="node">
<title>Node4</title>
<polygon fill="#ffffff" stroke="#bfbfbf" points="81.6689,-65.5 81.6689,-93.5 194.1289,-93.5 194.1289,-65.5 81.6689,-65.5"/>
<text text-anchor="start" x="89.6689" y="-81.5" font-family="Helvetica,sans-Serif" font-size="10.00" fill="#000000">std::unique_ptr&lt; delta</text>
<text text-anchor="middle" x="137.8989" y="-71.5" font-family="Helvetica,sans-Serif" font-size="10.00" fill="#000000">::Expr &gt;</text>
</g>
<!-- Node4&#45;&gt;Node2 -->
<g id="edge2" class="edge">
<title>Node4&#45;&gt;Node2</title>
<path fill="none" stroke="#9a32cd" stroke-dasharray="5,2" d="M115.7896,-58.0048C102.2561,-44.8472 85.6291,-28.6822 75.3996,-18.7368"/>
<polygon fill="#9a32cd" stroke="#9a32cd" points="113.7189,-60.8731 123.3287,-65.3345 118.5985,-55.8542 113.7189,-60.8731"/>
<text text-anchor="middle" x="115.0146" y="-39" font-family="Helvetica,sans-Serif" font-size="10.00" fill="#000000"> expr</text>
</g>
<!-- Node5 -->
<g id="node4" class="node">
<title>Node5</title>
<g id="a_node4"><a xlink:href="classdelta_1_1_expr.html" target="_top" xlink:title="delta::Expr">
<polygon fill="#ffffff" stroke="#000000" points="105.9976,-140.5 105.9976,-158.5 169.8003,-158.5 169.8003,-140.5 105.9976,-140.5"/>
<text text-anchor="middle" x="137.8989" y="-146.5" font-family="Helvetica,sans-Serif" font-size="10.00" fill="#000000">delta::Expr</text>
</a>
</g>
</g>
<!-- Node5&#45;&gt;Node4 -->
<g id="edge3" class="edge">
<title>Node5&#45;&gt;Node4</title>
<path fill="none" stroke="#9a32cd" stroke-dasharray="5,2" d="M137.8989,-130.0243C137.8989,-118.5169 137.8989,-104.2016 137.8989,-93.7499"/>
<polygon fill="#9a32cd" stroke="#9a32cd" points="134.399,-130.3487 137.8989,-140.3487 141.399,-130.3488 134.399,-130.3487"/>
<text text-anchor="middle" x="145.123" y="-114" font-family="Helvetica,sans-Serif" font-size="10.00" fill="#000000"> ptr</text>
</g>
<!-- Node6 -->
<g id="node5" class="node">
<title>Node6</title>
<g id="a_node5"><a xlink:href="structdelta_1_1_src_loc.html" target="_top" xlink:title="delta::SrcLoc">
<polygon fill="#ffffff" stroke="#000000" points="100.7168,-205.5 100.7168,-223.5 175.0811,-223.5 175.0811,-205.5 100.7168,-205.5"/>
<text text-anchor="middle" x="137.8989" y="-211.5" font-family="Helvetica,sans-Serif" font-size="10.00" fill="#000000">delta::SrcLoc</text>
</a>
</g>
</g>
<!-- Node6&#45;&gt;Node5 -->
<g id="edge4" class="edge">
<title>Node6&#45;&gt;Node5</title>
<path fill="none" stroke="#9a32cd" stroke-dasharray="5,2" d="M137.8989,-195.1265C137.8989,-183.1522 137.8989,-168.3205 137.8989,-158.8821"/>
<polygon fill="#9a32cd" stroke="#9a32cd" points="134.399,-195.462 137.8989,-205.462 141.399,-195.4621 134.399,-195.462"/>
<text text-anchor="middle" x="154.0146" y="-179" font-family="Helvetica,sans-Serif" font-size="10.00" fill="#000000"> srcLoc</text>
</g>
</g>
</svg>
