<?xml version="1.0" encoding="UTF-8" standalone="no"?>
<!DOCTYPE svg PUBLIC "-//W3C//DTD SVG 1.1//EN"
 "http://www.w3.org/Graphics/SVG/1.1/DTD/svg11.dtd">
<!-- Generated by graphviz version 2.40.1 (20161225.0304)
 -->
<!-- Title: delta::FuncType Pages: 1 -->
<svg width="293pt" height="167pt"
 viewBox="0.00 0.00 293.07 167.00" xmlns="http://www.w3.org/2000/svg" xmlns:xlink="http://www.w3.org/1999/xlink">
<g id="graph0" class="graph" transform="scale(1 1) rotate(0) translate(4 163)">
<title>delta::FuncType</title>
<polygon fill="#ffffff" stroke="transparent" points="-4,4 -4,-163 289.0747,-163 289.0747,4 -4,4"/>
<!-- Node2 -->
<g id="node1" class="node">
<title>Node2</title>
<polygon fill="#bfbfbf" stroke="#000000" points="80.2808,-.5 80.2808,-18.5 167.438,-18.5 167.438,-.5 80.2808,-.5"/>
<text text-anchor="middle" x="123.8594" y="-6.5" font-family="Helvetica,sans-Serif" font-size="10.00" fill="#000000">delta::FuncType</text>
</g>
<!-- Node3 -->
<g id="node2" class="node">
<title>Node3</title>
<g id="a_node2"><a xlink:href="classdelta_1_1_type_base.html" target="_top" xlink:title="delta::TypeBase">
<polygon fill="#ffffff" stroke="#000000" points="0,-70.5 0,-88.5 87.7188,-88.5 87.7188,-70.5 0,-70.5"/>
<text text-anchor="middle" x="43.8594" y="-76.5" font-family="Helvetica,sans-Serif" font-size="10.00" fill="#000000">delta::TypeBase</text>
</a>
</g>
</g>
<!-- Node3&#45;&gt;Node2 -->
<g id="edge1" class="edge">
<title>Node3&#45;&gt;Node2</title>
<path fill="none" stroke="#191970" d="M61.9247,-63.6928C77.7974,-49.8043 100.3409,-30.0787 113.3982,-18.6535"/>
<polygon fill="#191970" stroke="#191970" points="59.539,-61.1296 54.318,-70.3487 64.1485,-66.3977 59.539,-61.1296"/>
</g>
<!-- Node4 -->
<g id="node3" class="node">
<title>Node4</title>
<g id="a_node3"><a xlink:href="structdelta_1_1_type.html" target="_top" xlink:title="delta::Type">
<polygon fill="#ffffff" stroke="#000000" points="107.3965,-140.5 107.3965,-158.5 172.3223,-158.5 172.3223,-140.5 107.3965,-140.5"/>
<text text-anchor="middle" x="139.8594" y="-146.5" font-family="Helvetica,sans-Serif" font-size="10.00" fill="#000000">delta::Type</text>
</a>
</g>
</g>
<!-- Node4&#45;&gt;Node2 -->
<g id="edge2" class="edge">
<title>Node4&#45;&gt;Node2</title>
<path fill="none" stroke="#9a32cd" stroke-dasharray="5,2" d="M137.5347,-130.2001C136.2582,-119.5302 134.6578,-106.0342 133.2734,-94 130.1358,-66.7246 126.5879,-34.4768 124.8823,-18.8806"/>
<polygon fill="#9a32cd" stroke="#9a32cd" points="134.1001,-130.9546 138.7672,-140.4661 141.0502,-130.1201 134.1001,-130.9546"/>
<text text-anchor="middle" x="159.1523" y="-76.5" font-family="Helvetica,sans-Serif" font-size="10.00" fill="#000000"> returnType</text>
</g>
<!-- Node5 -->
<g id="node4" class="node">
<title>Node5</title>
<polygon fill="#ffffff" stroke="#bfbfbf" points="192.644,-65.5 192.644,-93.5 285.0747,-93.5 285.0747,-65.5 192.644,-65.5"/>
<text text-anchor="start" x="200.644" y="-81.5" font-family="Helvetica,sans-Serif" font-size="10.00" fill="#000000">std::vector&lt; delta</text>
<text text-anchor="middle" x="238.8594" y="-71.5" font-family="Helvetica,sans-Serif" font-size="10.00" fill="#000000">::Type &gt;</text>
</g>
<!-- Node4&#45;&gt;Node5 -->
<g id="edge4" class="edge">
<title>Node4&#45;&gt;Node5</title>
<path fill="none" stroke="#9a32cd" stroke-dasharray="5,2" d="M161.0338,-134.5282C178.0948,-122.4648 201.9226,-105.6169 218.7059,-93.7499"/>
<polygon fill="#9a32cd" stroke="#9a32cd" points="158.9463,-131.7176 152.8019,-140.3487 162.9877,-137.4332 158.9463,-131.7176"/>
<text text-anchor="middle" x="213.5366" y="-114" font-family="Helvetica,sans-Serif" font-size="10.00" fill="#000000"> elements</text>
</g>
<!-- Node5&#45;&gt;Node2 -->
<g id="edge3" class="edge">
<title>Node5&#45;&gt;Node2</title>
<path fill="none" stroke="#9a32cd" stroke-dasharray="5,2" d="M206.7853,-59.9766C184.497,-46.4099 155.8266,-28.9583 138.6985,-18.5325"/>
<polygon fill="#9a32cd" stroke="#9a32cd" points="205.2256,-63.1246 215.5874,-65.3345 208.8652,-57.1452 205.2256,-63.1246"/>
<text text-anchor="middle" x="212.7632" y="-39" font-family="Helvetica,sans-Serif" font-size="10.00" fill="#000000"> paramTypes</text>
</g>
</g>
</svg>
