<?xml version="1.0" encoding="UTF-8" standalone="no"?>
<!DOCTYPE svg PUBLIC "-//W3C//DTD SVG 1.1//EN"
 "http://www.w3.org/Graphics/SVG/1.1/DTD/svg11.dtd">
<!-- Generated by graphviz version 2.40.1 (20161225.0304)
 -->
<!-- Title: delta::IntLiteralExpr Pages: 1 -->
<svg width="110pt" height="148pt"
 viewBox="0.00 0.00 110.16 148.00" xmlns="http://www.w3.org/2000/svg" xmlns:xlink="http://www.w3.org/1999/xlink">
<g id="graph0" class="graph" transform="scale(1 1) rotate(0) translate(4 144)">
<title>delta::IntLiteralExpr</title>
<polygon fill="#ffffff" stroke="transparent" points="-4,4 -4,-144 106.1572,-144 106.1572,4 -4,4"/>
<!-- Node2 -->
<g id="node1" class="node">
<title>Node2</title>
<polygon fill="#bfbfbf" stroke="#000000" points="0,-.5 0,-18.5 102.1572,-18.5 102.1572,-.5 0,-.5"/>
<text text-anchor="middle" x="51.0786" y="-6.5" font-family="Helvetica,sans-Serif" font-size="10.00" fill="#000000">delta::IntLiteralExpr</text>
</g>
<!-- Node3 -->
<g id="node2" class="node">
<title>Node3</title>
<g id="a_node2"><a xlink:href="classdelta_1_1_expr.html" target="_top" xlink:title="delta::Expr">
<polygon fill="#ffffff" stroke="#000000" points="19.1772,-56.5 19.1772,-74.5 82.98,-74.5 82.98,-56.5 19.1772,-56.5"/>
<text text-anchor="middle" x="51.0786" y="-62.5" font-family="Helvetica,sans-Serif" font-size="10.00" fill="#000000">delta::Expr</text>
</a>
</g>
</g>
<!-- Node3&#45;&gt;Node2 -->
<g id="edge1" class="edge">
<title>Node3&#45;&gt;Node2</title>
<path fill="none" stroke="#191970" d="M51.0786,-46.2065C51.0786,-36.8384 51.0786,-26.0262 51.0786,-18.5752"/>
<polygon fill="#191970" stroke="#191970" points="47.5787,-46.2527 51.0786,-56.2527 54.5787,-46.2528 47.5787,-46.2527"/>
</g>
<!-- Node4 -->
<g id="node3" class="node">
<title>Node4</title>
<g id="a_node3"><a xlink:href="structdelta_1_1_src_loc.html" target="_top" xlink:title="delta::SrcLoc">
<polygon fill="#ffffff" stroke="#000000" points="13.8965,-121.5 13.8965,-139.5 88.2607,-139.5 88.2607,-121.5 13.8965,-121.5"/>
<text text-anchor="middle" x="51.0786" y="-127.5" font-family="Helvetica,sans-Serif" font-size="10.00" fill="#000000">delta::SrcLoc</text>
</a>
</g>
</g>
<!-- Node4&#45;&gt;Node3 -->
<g id="edge2" class="edge">
<title>Node4&#45;&gt;Node3</title>
<path fill="none" stroke="#9a32cd" stroke-dasharray="5,2" d="M51.0786,-111.1265C51.0786,-99.1522 51.0786,-84.3205 51.0786,-74.8821"/>
<polygon fill="#9a32cd" stroke="#9a32cd" points="47.5787,-111.462 51.0786,-121.462 54.5787,-111.4621 47.5787,-111.462"/>
<text text-anchor="middle" x="67.1943" y="-95" font-family="Helvetica,sans-Serif" font-size="10.00" fill="#000000"> srcLoc</text>
</g>
</g>
</svg>
