<?xml version="1.0" encoding="UTF-8" standalone="no"?>
<!DOCTYPE svg PUBLIC "-//W3C//DTD SVG 1.1//EN"
 "http://www.w3.org/Graphics/SVG/1.1/DTD/svg11.dtd">
<!-- Generated by graphviz version 2.40.1 (20161225.0304)
 -->
<!-- Title: delta::VariableStmt Pages: 1 -->
<svg width="342pt" height="223pt"
 viewBox="0.00 0.00 341.67 223.00" xmlns="http://www.w3.org/2000/svg" xmlns:xlink="http://www.w3.org/1999/xlink">
<g id="graph0" class="graph" transform="scale(1 1) rotate(0) translate(4 219)">
<title>delta::VariableStmt</title>
<polygon fill="#ffffff" stroke="transparent" points="-4,4 -4,-219 337.6709,-219 337.6709,4 -4,4"/>
<!-- Node2 -->
<g id="node1" class="node">
<title>Node2</title>
<polygon fill="#bfbfbf" stroke="#000000" points="34.748,-.5 34.748,-18.5 134.498,-18.5 134.498,-.5 34.748,-.5"/>
<text text-anchor="middle" x="84.623" y="-6.5" font-family="Helvetica,sans-Serif" font-size="10.00" fill="#000000">delta::VariableStmt</text>
</g>
<!-- Node3 -->
<g id="node2" class="node">
<title>Node3</title>
<g id="a_node2"><a xlink:href="classdelta_1_1_stmt.html" target="_top" xlink:title="delta::Stmt">
<polygon fill="#ffffff" stroke="#000000" points="36.7241,-65.5 36.7241,-83.5 100.522,-83.5 100.522,-65.5 36.7241,-65.5"/>
<text text-anchor="middle" x="68.623" y="-71.5" font-family="Helvetica,sans-Serif" font-size="10.00" fill="#000000">delta::Stmt</text>
</a>
</g>
</g>
<!-- Node3&#45;&gt;Node2 -->
<g id="edge1" class="edge">
<title>Node3&#45;&gt;Node2</title>
<path fill="none" stroke="#191970" d="M73.301,-55.4959C76.264,-43.4586 79.9664,-28.4178 82.3136,-18.8821"/>
<polygon fill="#191970" stroke="#191970" points="69.8395,-54.9153 70.8478,-65.462 76.6366,-56.5885 69.8395,-54.9153"/>
</g>
<!-- Node4 -->
<g id="node3" class="node">
<title>Node4</title>
<g id="a_node3"><a xlink:href="classdelta_1_1_var_decl.html" target="_top" xlink:title="delta::VarDecl">
<polygon fill="#ffffff" stroke="#000000" points="118.5879,-65.5 118.5879,-83.5 196.6582,-83.5 196.6582,-65.5 118.5879,-65.5"/>
<text text-anchor="middle" x="157.623" y="-71.5" font-family="Helvetica,sans-Serif" font-size="10.00" fill="#000000">delta::VarDecl</text>
</a>
</g>
</g>
<!-- Node4&#45;&gt;Node2 -->
<g id="edge2" class="edge">
<title>Node4&#45;&gt;Node2</title>
<path fill="none" stroke="#9a32cd" stroke-dasharray="5,2" d="M139.9118,-58.7297C125.9159,-46.2676 106.8527,-29.2936 95.1599,-18.8821"/>
<polygon fill="#9a32cd" stroke="#9a32cd" points="137.6767,-61.426 147.4727,-65.462 142.3317,-56.198 137.6767,-61.426"/>
<text text-anchor="middle" x="136.1846" y="-39" font-family="Helvetica,sans-Serif" font-size="10.00" fill="#000000"> decl</text>
</g>
<!-- Node5 -->
<g id="node4" class="node">
<title>Node5</title>
<g id="a_node4"><a xlink:href="classdelta_1_1_decl.html" target="_top" xlink:title="delta::Decl">
<polygon fill="#ffffff" stroke="#000000" points="0,-130.5 0,-148.5 63.2461,-148.5 63.2461,-130.5 0,-130.5"/>
<text text-anchor="middle" x="31.623" y="-136.5" font-family="Helvetica,sans-Serif" font-size="10.00" fill="#000000">delta::Decl</text>
</a>
</g>
</g>
<!-- Node5&#45;&gt;Node4 -->
<g id="edge3" class="edge">
<title>Node5&#45;&gt;Node4</title>
<path fill="none" stroke="#191970" d="M58.2709,-125.7531C82.831,-113.0832 118.5957,-94.6332 139.8459,-83.6708"/>
<polygon fill="#191970" stroke="#191970" points="56.4253,-122.7668 49.1428,-130.462 59.6346,-128.9878 56.4253,-122.7668"/>
</g>
<!-- Node6 -->
<g id="node5" class="node">
<title>Node6</title>
<g id="a_node5"><a xlink:href="structdelta_1_1_type.html" target="_top" xlink:title="delta::Type">
<polygon fill="#ffffff" stroke="#000000" points="81.1602,-130.5 81.1602,-148.5 146.0859,-148.5 146.0859,-130.5 81.1602,-130.5"/>
<text text-anchor="middle" x="113.623" y="-136.5" font-family="Helvetica,sans-Serif" font-size="10.00" fill="#000000">delta::Type</text>
</a>
</g>
</g>
<!-- Node6&#45;&gt;Node4 -->
<g id="edge4" class="edge">
<title>Node6&#45;&gt;Node4</title>
<path fill="none" stroke="#9a32cd" stroke-dasharray="5,2" d="M125.5002,-121.9542C133.7983,-109.6956 144.5537,-93.807 151.2721,-83.8821"/>
<polygon fill="#9a32cd" stroke="#9a32cd" points="122.4484,-120.2189 119.7411,-130.462 128.2452,-124.1429 122.4484,-120.2189"/>
<text text-anchor="middle" x="149.4629" y="-104" font-family="Helvetica,sans-Serif" font-size="10.00" fill="#000000"> type</text>
</g>
<!-- Node7 -->
<g id="node6" class="node">
<title>Node7</title>
<g id="a_node6"><a xlink:href="structdelta_1_1_src_loc.html" target="_top" xlink:title="delta::SrcLoc">
<polygon fill="#ffffff" stroke="#000000" points="164.4409,-130.5 164.4409,-148.5 238.8052,-148.5 238.8052,-130.5 164.4409,-130.5"/>
<text text-anchor="middle" x="201.623" y="-136.5" font-family="Helvetica,sans-Serif" font-size="10.00" fill="#000000">delta::SrcLoc</text>
</a>
</g>
</g>
<!-- Node7&#45;&gt;Node4 -->
<g id="edge5" class="edge">
<title>Node7&#45;&gt;Node4</title>
<path fill="none" stroke="#9a32cd" stroke-dasharray="5,2" d="M189.7459,-121.9542C181.4478,-109.6956 170.6924,-93.807 163.974,-83.8821"/>
<polygon fill="#9a32cd" stroke="#9a32cd" points="187.0009,-124.1429 195.505,-130.462 192.7977,-120.2189 187.0009,-124.1429"/>
<text text-anchor="middle" x="197.7388" y="-104" font-family="Helvetica,sans-Serif" font-size="10.00" fill="#000000"> srcLoc</text>
</g>
<!-- Node8 -->
<g id="node7" class="node">
<title>Node8</title>
<g id="a_node7"><a xlink:title="STL class. ">
<polygon fill="#ffffff" stroke="#bfbfbf" points="256.9482,-130.5 256.9482,-148.5 316.2979,-148.5 316.2979,-130.5 256.9482,-130.5"/>
<text text-anchor="middle" x="286.623" y="-136.5" font-family="Helvetica,sans-Serif" font-size="10.00" fill="#000000">std::string</text>
</a>
</g>
</g>
<!-- Node8&#45;&gt;Node4 -->
<g id="edge6" class="edge">
<title>Node8&#45;&gt;Node4</title>
<path fill="none" stroke="#9a32cd" stroke-dasharray="5,2" d="M261.7686,-125.461C248.7354,-118.2348 232.4394,-109.4109 217.623,-102 204.7103,-95.5413 189.9736,-88.7785 178.3366,-83.5757"/>
<polygon fill="#9a32cd" stroke="#9a32cd" points="260.1764,-128.5805 270.6143,-130.3973 263.5875,-122.4679 260.1764,-128.5805"/>
<text text-anchor="middle" x="250.5195" y="-104" font-family="Helvetica,sans-Serif" font-size="10.00" fill="#000000"> name</text>
</g>
<!-- Node9 -->
<g id="node8" class="node">
<title>Node9</title>
<g id="a_node8"><a xlink:title="STL class. ">
<polygon fill="#ffffff" stroke="#bfbfbf" points="239.5752,-186.5 239.5752,-214.5 333.6709,-214.5 333.6709,-186.5 239.5752,-186.5"/>
<text text-anchor="start" x="247.5752" y="-202.5" font-family="Helvetica,sans-Serif" font-size="10.00" fill="#000000">std::basic_string&lt;</text>
<text text-anchor="middle" x="286.623" y="-192.5" font-family="Helvetica,sans-Serif" font-size="10.00" fill="#000000"> char &gt;</text>
</a>
</g>
</g>
<!-- Node9&#45;&gt;Node8 -->
<g id="edge7" class="edge">
<title>Node9&#45;&gt;Node8</title>
<path fill="none" stroke="#191970" d="M286.623,-176.1001C286.623,-166.5157 286.623,-156.0935 286.623,-148.831"/>
<polygon fill="#191970" stroke="#191970" points="283.1231,-176.352 286.623,-186.3521 290.1231,-176.3521 283.1231,-176.352"/>
</g>
</g>
</svg>
