<?xml version="1.0" encoding="UTF-8" standalone="no"?>
<!DOCTYPE svg PUBLIC "-//W3C//DTD SVG 1.1//EN"
 "http://www.w3.org/Graphics/SVG/1.1/DTD/svg11.dtd">
<!-- Generated by graphviz version 2.40.1 (20161225.0304)
 -->
<!-- Title: delta::BoolLiteralExpr Pages: 1 -->
<svg width="119pt" height="148pt"
 viewBox="0.00 0.00 119.05 148.00" xmlns="http://www.w3.org/2000/svg" xmlns:xlink="http://www.w3.org/1999/xlink">
<g id="graph0" class="graph" transform="scale(1 1) rotate(0) translate(4 144)">
<title>delta::BoolLiteralExpr</title>
<polygon fill="#ffffff" stroke="transparent" points="-4,4 -4,-144 115.0537,-144 115.0537,4 -4,4"/>
<!-- Node2 -->
<g id="node1" class="node">
<title>Node2</title>
<polygon fill="#bfbfbf" stroke="#000000" points="0,-.5 0,-18.5 111.0537,-18.5 111.0537,-.5 0,-.5"/>
<text text-anchor="middle" x="55.5269" y="-6.5" font-family="Helvetica,sans-Serif" font-size="10.00" fill="#000000">delta::BoolLiteralExpr</text>
</g>
<!-- Node3 -->
<g id="node2" class="node">
<title>Node3</title>
<g id="a_node2"><a xlink:href="classdelta_1_1_expr.html" target="_top" xlink:title="delta::Expr">
<polygon fill="#ffffff" stroke="#000000" points="23.6255,-56.5 23.6255,-74.5 87.4282,-74.5 87.4282,-56.5 23.6255,-56.5"/>
<text text-anchor="middle" x="55.5269" y="-62.5" font-family="Helvetica,sans-Serif" font-size="10.00" fill="#000000">delta::Expr</text>
</a>
</g>
</g>
<!-- Node3&#45;&gt;Node2 -->
<g id="edge1" class="edge">
<title>Node3&#45;&gt;Node2</title>
<path fill="none" stroke="#191970" d="M55.5269,-46.2065C55.5269,-36.8384 55.5269,-26.0262 55.5269,-18.5752"/>
<polygon fill="#191970" stroke="#191970" points="52.027,-46.2527 55.5269,-56.2527 59.027,-46.2528 52.027,-46.2527"/>
</g>
<!-- Node4 -->
<g id="node3" class="node">
<title>Node4</title>
<g id="a_node3"><a xlink:href="structdelta_1_1_src_loc.html" target="_top" xlink:title="delta::SrcLoc">
<polygon fill="#ffffff" stroke="#000000" points="18.3447,-121.5 18.3447,-139.5 92.709,-139.5 92.709,-121.5 18.3447,-121.5"/>
<text text-anchor="middle" x="55.5269" y="-127.5" font-family="Helvetica,sans-Serif" font-size="10.00" fill="#000000">delta::SrcLoc</text>
</a>
</g>
</g>
<!-- Node4&#45;&gt;Node3 -->
<g id="edge2" class="edge">
<title>Node4&#45;&gt;Node3</title>
<path fill="none" stroke="#9a32cd" stroke-dasharray="5,2" d="M55.5269,-111.1265C55.5269,-99.1522 55.5269,-84.3205 55.5269,-74.8821"/>
<polygon fill="#9a32cd" stroke="#9a32cd" points="52.027,-111.462 55.5269,-121.462 59.027,-111.4621 52.027,-111.462"/>
<text text-anchor="middle" x="71.6426" y="-95" font-family="Helvetica,sans-Serif" font-size="10.00" fill="#000000"> srcLoc</text>
</g>
</g>
</svg>
