<?xml version="1.0" encoding="UTF-8" standalone="no"?>
<!DOCTYPE svg PUBLIC "-//W3C//DTD SVG 1.1//EN"
 "http://www.w3.org/Graphics/SVG/1.1/DTD/svg11.dtd">
<!-- Generated by graphviz version 2.40.1 (20161225.0304)
 -->
<!-- Title: src/ast/decl.h Pages: 1 -->
<svg width="966pt" height="82pt"
 viewBox="0.00 0.00 965.55 82.00" xmlns="http://www.w3.org/2000/svg" xmlns:xlink="http://www.w3.org/1999/xlink">
<g id="graph0" class="graph" transform="scale(1 1) rotate(0) translate(4 78)">
<title>src/ast/decl.h</title>
<polygon fill="#ffffff" stroke="transparent" points="-4,4 -4,-78 961.5464,-78 961.5464,4 -4,4"/>
<!-- Node15 -->
<g id="node1" class="node">
<title>Node15</title>
<polygon fill="#bfbfbf" stroke="#000000" points="410.458,-55.5 410.458,-73.5 485.3691,-73.5 485.3691,-55.5 410.458,-55.5"/>
<text text-anchor="middle" x="447.9136" y="-61.5" font-family="Helvetica,sans-Serif" font-size="10.00" fill="#000000">src/ast/decl.h</text>
</g>
<!-- Node16 -->
<g id="node2" class="node">
<title>Node16</title>
<g id="a_node2"><a xlink:href="ast__printer_8cpp.html" target="_top" xlink:title="src/ast/ast_printer.cpp">
<polygon fill="#ffffff" stroke="#000000" points="0,-.5 0,-18.5 113.8271,-18.5 113.8271,-.5 0,-.5"/>
<text text-anchor="middle" x="56.9136" y="-6.5" font-family="Helvetica,sans-Serif" font-size="10.00" fill="#000000">src/ast/ast_printer.cpp</text>
</a>
</g>
</g>
<!-- Node15&#45;&gt;Node16 -->
<g id="edge1" class="edge">
<title>Node15&#45;&gt;Node16</title>
<path fill="none" stroke="#191970" d="M400.2916,-57.8916C336.9507,-49.0884 221.4986,-32.996 122.9136,-19 120.0482,-18.5932 117.113,-18.1753 114.1491,-17.7522"/>
<polygon fill="#191970" stroke="#191970" points="399.9873,-61.3828 410.3738,-59.2924 400.9507,-54.4494 399.9873,-61.3828"/>
</g>
<!-- Node17 -->
<g id="node3" class="node">
<title>Node17</title>
<g id="a_node3"><a xlink:href="decl_8cpp.html" target="_top" xlink:title="src/ast/decl.cpp">
<polygon fill="#ffffff" stroke="#000000" points="132.1772,-.5 132.1772,-18.5 217.6499,-18.5 217.6499,-.5 132.1772,-.5"/>
<text text-anchor="middle" x="174.9136" y="-6.5" font-family="Helvetica,sans-Serif" font-size="10.00" fill="#000000">src/ast/decl.cpp</text>
</a>
</g>
</g>
<!-- Node15&#45;&gt;Node17 -->
<g id="edge2" class="edge">
<title>Node15&#45;&gt;Node17</title>
<path fill="none" stroke="#191970" d="M400.3719,-54.922C348.9471,-44.5617 267.6804,-28.1893 218.0441,-18.1893"/>
<polygon fill="#191970" stroke="#191970" points="399.7464,-58.3662 410.2407,-56.9102 401.1289,-51.5041 399.7464,-58.3662"/>
</g>
<!-- Node18 -->
<g id="node4" class="node">
<title>Node18</title>
<g id="a_node4"><a xlink:href="expr_8cpp.html" target="_top" xlink:title="src/ast/expr.cpp">
<polygon fill="#ffffff" stroke="#000000" points="235.8965,-.5 235.8965,-18.5 321.9307,-18.5 321.9307,-.5 235.8965,-.5"/>
<text text-anchor="middle" x="278.9136" y="-6.5" font-family="Helvetica,sans-Serif" font-size="10.00" fill="#000000">src/ast/expr.cpp</text>
</a>
</g>
</g>
<!-- Node15&#45;&gt;Node18 -->
<g id="edge3" class="edge">
<title>Node15&#45;&gt;Node18</title>
<path fill="none" stroke="#191970" d="M410.2892,-52.2554C378.8805,-42.0336 334.8318,-27.6983 306.5811,-18.5042"/>
<polygon fill="#191970" stroke="#191970" points="409.4144,-55.6513 420.0067,-55.4179 411.5807,-48.9949 409.4144,-55.6513"/>
</g>
<!-- Node19 -->
<g id="node5" class="node">
<title>Node19</title>
<g id="a_node5"><a xlink:href="main_8cpp.html" target="_top" xlink:title="src/driver/main.cpp">
<polygon fill="#ffffff" stroke="#000000" points="339.6797,-.5 339.6797,-18.5 440.1475,-18.5 440.1475,-.5 339.6797,-.5"/>
<text text-anchor="middle" x="389.9136" y="-6.5" font-family="Helvetica,sans-Serif" font-size="10.00" fill="#000000">src/driver/main.cpp</text>
</a>
</g>
</g>
<!-- Node15&#45;&gt;Node19 -->
<g id="edge4" class="edge">
<title>Node15&#45;&gt;Node19</title>
<path fill="none" stroke="#191970" d="M430.8291,-48.2992C420.6881,-38.6828 408.194,-26.8349 399.6992,-18.7795"/>
<polygon fill="#191970" stroke="#191970" points="428.6715,-51.0766 438.3361,-55.4179 433.4881,-45.9972 428.6715,-51.0766"/>
</g>
<!-- Node20 -->
<g id="node6" class="node">
<title>Node20</title>
<g id="a_node6"><a xlink:href="irgen_8cpp.html" target="_top" xlink:title="src/irgen/irgen.cpp">
<polygon fill="#ffffff" stroke="#000000" points="457.7832,-.5 457.7832,-18.5 556.0439,-18.5 556.0439,-.5 457.7832,-.5"/>
<text text-anchor="middle" x="506.9136" y="-6.5" font-family="Helvetica,sans-Serif" font-size="10.00" fill="#000000">src/irgen/irgen.cpp</text>
</a>
</g>
</g>
<!-- Node15&#45;&gt;Node20 -->
<g id="edge5" class="edge">
<title>Node15&#45;&gt;Node20</title>
<path fill="none" stroke="#191970" d="M464.9869,-48.5841C475.3564,-38.9177 488.2324,-26.9147 496.9592,-18.7795"/>
<polygon fill="#191970" stroke="#191970" points="462.5843,-46.0389 457.6562,-55.4179 467.3575,-51.1592 462.5843,-46.0389"/>
</g>
<!-- Node21 -->
<g id="node7" class="node">
<title>Node21</title>
<g id="a_node7"><a xlink:href="mangle_8cpp.html" target="_top" xlink:title="src/irgen/mangle.cpp">
<polygon fill="#ffffff" stroke="#000000" points="574.5024,-.5 574.5024,-18.5 683.3247,-18.5 683.3247,-.5 574.5024,-.5"/>
<text text-anchor="middle" x="628.9136" y="-6.5" font-family="Helvetica,sans-Serif" font-size="10.00" fill="#000000">src/irgen/mangle.cpp</text>
</a>
</g>
</g>
<!-- Node15&#45;&gt;Node21 -->
<g id="edge6" class="edge">
<title>Node15&#45;&gt;Node21</title>
<path fill="none" stroke="#191970" d="M487.7734,-52.3879C521.4396,-42.1578 568.8938,-27.7381 599.2815,-18.5042"/>
<polygon fill="#191970" stroke="#191970" points="486.3524,-49.1616 477.802,-55.4179 488.3877,-55.8592 486.3524,-49.1616"/>
</g>
<!-- Node22 -->
<g id="node8" class="node">
<title>Node22</title>
<g id="a_node8"><a xlink:href="c-import_8cpp.html" target="_top" xlink:title="src/sema/c&#45;import.cpp">
<polygon fill="#ffffff" stroke="#000000" points="701.7363,-.5 701.7363,-18.5 816.0908,-18.5 816.0908,-.5 701.7363,-.5"/>
<text text-anchor="middle" x="758.9136" y="-6.5" font-family="Helvetica,sans-Serif" font-size="10.00" fill="#000000">src/sema/c&#45;import.cpp</text>
</a>
</g>
</g>
<!-- Node15&#45;&gt;Node22 -->
<g id="edge7" class="edge">
<title>Node15&#45;&gt;Node22</title>
<path fill="none" stroke="#191970" d="M495.3239,-56.1155C552.6895,-45.9705 648.8946,-28.9567 707.8521,-18.5302"/>
<polygon fill="#191970" stroke="#191970" points="494.6651,-52.6776 485.4274,-57.8657 495.8842,-59.5707 494.6651,-52.6776"/>
</g>
<!-- Node23 -->
<g id="node9" class="node">
<title>Node23</title>
<g id="a_node9"><a xlink:href="typecheck_8cpp.html" target="_top" xlink:title="src/sema/typecheck.cpp">
<polygon fill="#ffffff" stroke="#000000" points="834.2808,-.5 834.2808,-18.5 957.5464,-18.5 957.5464,-.5 834.2808,-.5"/>
<text text-anchor="middle" x="895.9136" y="-6.5" font-family="Helvetica,sans-Serif" font-size="10.00" fill="#000000">src/sema/typecheck.cpp</text>
</a>
</g>
</g>
<!-- Node15&#45;&gt;Node23 -->
<g id="edge8" class="edge">
<title>Node15&#45;&gt;Node23</title>
<path fill="none" stroke="#191970" d="M495.4372,-58.9637C566.9506,-50.5875 706.48,-34.0696 824.9136,-19 827.8744,-18.6233 830.9041,-18.2337 833.9637,-17.8369"/>
<polygon fill="#191970" stroke="#191970" points="494.9156,-55.5007 485.3901,-60.1393 495.7292,-62.4533 494.9156,-55.5007"/>
</g>
</g>
</svg>
