<?xml version="1.0" encoding="UTF-8" standalone="no"?>
<!DOCTYPE svg PUBLIC "-//W3C//DTD SVG 1.1//EN"
 "http://www.w3.org/Graphics/SVG/1.1/DTD/svg11.dtd">
<!-- Generated by graphviz version 2.40.1 (20161225.0304)
 -->
<!-- Title: src/ast/decl.h Pages: 1 -->
<svg width="763pt" height="247pt"
 viewBox="0.00 0.00 762.59 247.00" xmlns="http://www.w3.org/2000/svg" xmlns:xlink="http://www.w3.org/1999/xlink">
<g id="graph0" class="graph" transform="scale(1 1) rotate(0) translate(4 243)">
<title>src/ast/decl.h</title>
<polygon fill="#ffffff" stroke="transparent" points="-4,4 -4,-243 758.5859,-243 758.5859,4 -4,4"/>
<!-- Node0 -->
<g id="node1" class="node">
<title>Node0</title>
<polygon fill="#bfbfbf" stroke="#000000" points="404.771,-220.5 404.771,-238.5 479.6821,-238.5 479.6821,-220.5 404.771,-220.5"/>
<text text-anchor="middle" x="442.2266" y="-226.5" font-family="Helvetica,sans-Serif" font-size="10.00" fill="#000000">src/ast/decl.h</text>
</g>
<!-- Node1 -->
<g id="node2" class="node">
<title>Node1</title>
<polygon fill="#ffffff" stroke="#bfbfbf" points="0,-.5 0,-18.5 40.4531,-18.5 40.4531,-.5 0,-.5"/>
<text text-anchor="middle" x="20.2266" y="-6.5" font-family="Helvetica,sans-Serif" font-size="10.00" fill="#000000">string</text>
</g>
<!-- Node0&#45;&gt;Node1 -->
<g id="edge1" class="edge">
<title>Node0&#45;&gt;Node1</title>
<path fill="none" stroke="#191970" d="M424.8969,-220.4656C359.3202,-186.2787 126.0838,-64.6862 46.8167,-23.3621"/>
<polygon fill="#191970" stroke="#191970" points="48.4202,-20.2511 37.9348,-18.7318 45.1842,-26.4582 48.4202,-20.2511"/>
</g>
<!-- Node2 -->
<g id="node3" class="node">
<title>Node2</title>
<polygon fill="#ffffff" stroke="#bfbfbf" points="516.1699,-55.5 516.1699,-73.5 568.2832,-73.5 568.2832,-55.5 516.1699,-55.5"/>
<text text-anchor="middle" x="542.2266" y="-61.5" font-family="Helvetica,sans-Serif" font-size="10.00" fill="#000000">memory</text>
</g>
<!-- Node0&#45;&gt;Node2 -->
<g id="edge2" class="edge">
<title>Node0&#45;&gt;Node2</title>
<path fill="none" stroke="#191970" d="M447.8895,-220.1561C463.978,-193.6101 510.1599,-117.41 531.3557,-82.4369"/>
<polygon fill="#191970" stroke="#191970" points="534.4358,-84.1075 536.6257,-73.7414 528.4495,-80.4793 534.4358,-84.1075"/>
</g>
<!-- Node3 -->
<g id="node4" class="node">
<title>Node3</title>
<polygon fill="#ffffff" stroke="#bfbfbf" points="577.6108,-.5 577.6108,-18.5 620.8423,-18.5 620.8423,-.5 577.6108,-.5"/>
<text text-anchor="middle" x="599.2266" y="-6.5" font-family="Helvetica,sans-Serif" font-size="10.00" fill="#000000">vector</text>
</g>
<!-- Node0&#45;&gt;Node3 -->
<g id="edge3" class="edge">
<title>Node0&#45;&gt;Node3</title>
<path fill="none" stroke="#191970" d="M479.752,-220.7462C501.8059,-213.9321 528.8706,-202.4501 547.2266,-184 590.0785,-140.9284 597.8966,-64.1712 599.1318,-28.5873"/>
<polygon fill="#191970" stroke="#191970" points="602.6313,-28.6456 599.3377,-18.5757 595.6328,-28.5016 602.6313,-28.6456"/>
</g>
<!-- Node4 -->
<g id="node5" class="node">
<title>Node4</title>
<polygon fill="#ffffff" stroke="#bfbfbf" points="661.8672,-165.5 661.8672,-183.5 754.5859,-183.5 754.5859,-165.5 661.8672,-165.5"/>
<text text-anchor="middle" x="708.2266" y="-171.5" font-family="Helvetica,sans-Serif" font-size="10.00" fill="#000000">boost/variant.hpp</text>
</g>
<!-- Node0&#45;&gt;Node4 -->
<g id="edge4" class="edge">
<title>Node0&#45;&gt;Node4</title>
<path fill="none" stroke="#191970" d="M479.7737,-221.7365C525.4216,-212.298 602.7761,-196.3037 654.6666,-185.5744"/>
<polygon fill="#191970" stroke="#191970" points="655.6041,-188.9547 664.6882,-183.5023 654.1866,-182.0997 655.6041,-188.9547"/>
</g>
<!-- Node5 -->
<g id="node6" class="node">
<title>Node5</title>
<g id="a_node6"><a xlink:href="expr_8h.html" target="_top" xlink:title="expr.h">
<polygon fill="#ffffff" stroke="#000000" points="387.6035,-110.5 387.6035,-128.5 430.8496,-128.5 430.8496,-110.5 387.6035,-110.5"/>
<text text-anchor="middle" x="409.2266" y="-116.5" font-family="Helvetica,sans-Serif" font-size="10.00" fill="#000000">expr.h</text>
</a>
</g>
</g>
<!-- Node0&#45;&gt;Node5 -->
<g id="edge5" class="edge">
<title>Node0&#45;&gt;Node5</title>
<path fill="none" stroke="#191970" d="M439.526,-220.4982C434.1598,-202.6108 422.0544,-162.2594 414.8747,-138.3271"/>
<polygon fill="#191970" stroke="#191970" points="418.1903,-137.1987 411.9644,-128.6261 411.4856,-139.2102 418.1903,-137.1987"/>
</g>
<!-- Node6 -->
<g id="node7" class="node">
<title>Node6</title>
<g id="a_node7"><a xlink:href="type_8h.html" target="_top" xlink:title="type.h">
<polygon fill="#ffffff" stroke="#000000" points="224.606,-55.5 224.606,-73.5 267.8472,-73.5 267.8472,-55.5 224.606,-55.5"/>
<text text-anchor="middle" x="246.2266" y="-61.5" font-family="Helvetica,sans-Serif" font-size="10.00" fill="#000000">type.h</text>
</a>
</g>
</g>
<!-- Node0&#45;&gt;Node6 -->
<g id="edge23" class="edge">
<title>Node0&#45;&gt;Node6</title>
<path fill="none" stroke="#191970" d="M431.4096,-220.3939C399.4923,-193.5247 305.4236,-114.3342 265.0177,-80.3191"/>
<polygon fill="#191970" stroke="#191970" points="267.1559,-77.544 257.2517,-73.7814 262.6478,-82.8991 267.1559,-77.544"/>
</g>
<!-- Node11 -->
<g id="node12" class="node">
<title>Node11</title>
<g id="a_node12"><a xlink:href="srcloc_8h.html" target="_top" xlink:title="srcloc.h">
<polygon fill="#ffffff" stroke="#000000" points="286,-55.5 286,-73.5 336.4531,-73.5 336.4531,-55.5 286,-55.5"/>
<text text-anchor="middle" x="311.2266" y="-61.5" font-family="Helvetica,sans-Serif" font-size="10.00" fill="#000000">srcloc.h</text>
</a>
</g>
</g>
<!-- Node0&#45;&gt;Node11 -->
<g id="edge24" class="edge">
<title>Node0&#45;&gt;Node11</title>
<path fill="none" stroke="#191970" d="M434.8081,-220.1561C413.6421,-193.4967 352.7161,-116.7578 325.1132,-81.9907"/>
<polygon fill="#191970" stroke="#191970" points="327.5228,-79.3969 318.5637,-73.7414 322.0405,-83.7495 327.5228,-79.3969"/>
</g>
<!-- Node14 -->
<g id="node15" class="node">
<title>Node14</title>
<g id="a_node15"><a xlink:href="stmt_8h.html" target="_top" xlink:title="stmt.h">
<polygon fill="#ffffff" stroke="#000000" points="494.6133,-165.5 494.6133,-183.5 537.8398,-183.5 537.8398,-165.5 494.6133,-165.5"/>
<text text-anchor="middle" x="516.2266" y="-171.5" font-family="Helvetica,sans-Serif" font-size="10.00" fill="#000000">stmt.h</text>
</a>
</g>
</g>
<!-- Node0&#45;&gt;Node14 -->
<g id="edge19" class="edge">
<title>Node0&#45;&gt;Node14</title>
<path fill="none" stroke="#191970" d="M454.4462,-220.4179C465.6935,-212.0584 482.5947,-199.4966 495.878,-189.6239"/>
<polygon fill="#191970" stroke="#191970" points="498.0507,-192.37 503.9888,-183.5956 493.875,-186.7518 498.0507,-192.37"/>
</g>
<!-- Node5&#45;&gt;Node1 -->
<g id="edge6" class="edge">
<title>Node5&#45;&gt;Node1</title>
<path fill="none" stroke="#191970" d="M387.535,-115.0725C351.5056,-107.5715 277.1562,-91.4671 215.2266,-74 155.9993,-57.2951 88.0073,-33.8004 49.9839,-20.2621"/>
<polygon fill="#191970" stroke="#191970" points="51.1306,-16.9551 40.536,-16.8831 48.7733,-23.5463 51.1306,-16.9551"/>
</g>
<!-- Node5&#45;&gt;Node2 -->
<g id="edge7" class="edge">
<title>Node5&#45;&gt;Node2</title>
<path fill="none" stroke="#191970" d="M430.8913,-110.5409C452.5952,-101.5656 486.2259,-87.6582 510.8478,-77.4762"/>
<polygon fill="#191970" stroke="#191970" points="512.2244,-80.6945 520.1279,-73.6386 509.5493,-74.2257 512.2244,-80.6945"/>
</g>
<!-- Node5&#45;&gt;Node3 -->
<g id="edge8" class="edge">
<title>Node5&#45;&gt;Node3</title>
<path fill="none" stroke="#191970" d="M421.9072,-110.4272C440.2878,-97.4455 475.5991,-73.1377 507.2266,-55 527.6666,-43.2781 551.5373,-31.5258 569.8408,-22.9021"/>
<polygon fill="#191970" stroke="#191970" points="571.5354,-25.9738 579.1179,-18.574 568.5758,-19.6302 571.5354,-25.9738"/>
</g>
<!-- Node5&#45;&gt;Node6 -->
<g id="edge9" class="edge">
<title>Node5&#45;&gt;Node6</title>
<path fill="none" stroke="#191970" d="M387.5814,-112.1964C359.45,-102.7042 310.1141,-86.0571 277.8046,-75.1552"/>
<polygon fill="#191970" stroke="#191970" points="278.5554,-71.7147 267.9612,-71.8338 276.3174,-78.3473 278.5554,-71.7147"/>
</g>
<!-- Node5&#45;&gt;Node11 -->
<g id="edge16" class="edge">
<title>Node5&#45;&gt;Node11</title>
<path fill="none" stroke="#191970" d="M393.0439,-110.4179C377.5813,-101.7399 354.0498,-88.5334 336.1857,-78.5077"/>
<polygon fill="#191970" stroke="#191970" points="337.8668,-75.4377 327.4333,-73.5956 334.4409,-81.542 337.8668,-75.4377"/>
</g>
<!-- Node13 -->
<g id="node14" class="node">
<title>Node13</title>
<g id="a_node14"><a xlink:href="operators_8h.html" target="_top" xlink:title="../parser/operators.h">
<polygon fill="#ffffff" stroke="#000000" points="354.2046,-55.5 354.2046,-73.5 460.2485,-73.5 460.2485,-55.5 354.2046,-55.5"/>
<text text-anchor="middle" x="407.2266" y="-61.5" font-family="Helvetica,sans-Serif" font-size="10.00" fill="#000000">../parser/operators.h</text>
</a>
</g>
</g>
<!-- Node5&#45;&gt;Node13 -->
<g id="edge18" class="edge">
<title>Node5&#45;&gt;Node13</title>
<path fill="none" stroke="#191970" d="M408.8963,-110.4179C408.6344,-103.2164 408.2592,-92.8962 407.9307,-83.8632"/>
<polygon fill="#191970" stroke="#191970" points="411.4252,-83.6456 407.564,-73.7795 404.4298,-83.9001 411.4252,-83.6456"/>
</g>
<!-- Node6&#45;&gt;Node1 -->
<g id="edge11" class="edge">
<title>Node6&#45;&gt;Node1</title>
<path fill="none" stroke="#191970" d="M224.4951,-60.146C189.6605,-53.0253 119.0135,-38.0041 50.4144,-19.1597"/>
<polygon fill="#191970" stroke="#191970" points="51.3242,-15.78 40.7523,-16.4757 49.4506,-22.5246 51.3242,-15.78"/>
</g>
<!-- Node6&#45;&gt;Node3 -->
<g id="edge10" class="edge">
<title>Node6&#45;&gt;Node3</title>
<path fill="none" stroke="#191970" d="M268.1178,-57.2746C271.1559,-56.4237 274.2538,-55.6343 277.2266,-55 401.5651,-28.4689 438.9593,-45.3243 567.5103,-18.7996"/>
<polygon fill="#191970" stroke="#191970" points="568.274,-22.2156 577.3353,-16.7254 566.828,-15.3666 568.274,-22.2156"/>
</g>
<!-- Node7 -->
<g id="node8" class="node">
<title>Node7</title>
<polygon fill="#ffffff" stroke="#bfbfbf" points="320.165,-.5 320.165,-18.5 372.2881,-18.5 372.2881,-.5 320.165,-.5"/>
<text text-anchor="middle" x="346.2266" y="-6.5" font-family="Helvetica,sans-Serif" font-size="10.00" fill="#000000">ostream</text>
</g>
<!-- Node6&#45;&gt;Node7 -->
<g id="edge12" class="edge">
<title>Node6&#45;&gt;Node7</title>
<path fill="none" stroke="#191970" d="M262.7395,-55.4179C278.5176,-46.7399 302.5294,-33.5334 320.758,-23.5077"/>
<polygon fill="#191970" stroke="#191970" points="322.6136,-26.4816 329.6891,-18.5956 319.2402,-20.3481 322.6136,-26.4816"/>
</g>
<!-- Node8 -->
<g id="node9" class="node">
<title>Node8</title>
<polygon fill="#ffffff" stroke="#bfbfbf" points="390.665,-.5 390.665,-18.5 497.7881,-18.5 497.7881,-.5 390.665,-.5"/>
<text text-anchor="middle" x="444.2266" y="-6.5" font-family="Helvetica,sans-Serif" font-size="10.00" fill="#000000">llvm/ADT/ArrayRef.h</text>
</g>
<!-- Node6&#45;&gt;Node8 -->
<g id="edge13" class="edge">
<title>Node6&#45;&gt;Node8</title>
<path fill="none" stroke="#191970" d="M267.8809,-57.7693C271.0119,-56.8237 274.1986,-55.8762 277.2266,-55 318.6893,-43.0017 366.1993,-30.1431 399.9167,-21.167"/>
<polygon fill="#191970" stroke="#191970" points="401.1495,-24.461 409.916,-18.5112 399.3526,-17.6955 401.1495,-24.461"/>
</g>
<!-- Node9 -->
<g id="node10" class="node">
<title>Node9</title>
<polygon fill="#ffffff" stroke="#bfbfbf" points="58.5493,-.5 58.5493,-18.5 167.9038,-18.5 167.9038,-.5 58.5493,-.5"/>
<text text-anchor="middle" x="113.2266" y="-6.5" font-family="Helvetica,sans-Serif" font-size="10.00" fill="#000000">llvm/ADT/StringRef.h</text>
</g>
<!-- Node6&#45;&gt;Node9 -->
<g id="edge14" class="edge">
<title>Node6&#45;&gt;Node9</title>
<path fill="none" stroke="#191970" d="M224.5618,-55.5409C202.8579,-46.5656 169.2272,-32.6582 144.6053,-22.4762"/>
<polygon fill="#191970" stroke="#191970" points="145.9038,-19.2257 135.3253,-18.6386 143.2287,-25.6945 145.9038,-19.2257"/>
</g>
<!-- Node10 -->
<g id="node11" class="node">
<title>Node10</title>
<polygon fill="#ffffff" stroke="#bfbfbf" points="185.9263,-.5 185.9263,-18.5 302.5269,-18.5 302.5269,-.5 185.9263,-.5"/>
<text text-anchor="middle" x="244.2266" y="-6.5" font-family="Helvetica,sans-Serif" font-size="10.00" fill="#000000">llvm/Support/Casting.h</text>
</g>
<!-- Node6&#45;&gt;Node10 -->
<g id="edge15" class="edge">
<title>Node6&#45;&gt;Node10</title>
<path fill="none" stroke="#191970" d="M245.8963,-55.4179C245.6344,-48.2164 245.2592,-37.8962 244.9307,-28.8632"/>
<polygon fill="#191970" stroke="#191970" points="248.4252,-28.6456 244.564,-18.7795 241.4298,-28.9001 248.4252,-28.6456"/>
</g>
<!-- Node12 -->
<g id="node13" class="node">
<title>Node12</title>
<polygon fill="#ffffff" stroke="#bfbfbf" points="515.3398,-.5 515.3398,-18.5 559.1133,-18.5 559.1133,-.5 515.3398,-.5"/>
<text text-anchor="middle" x="537.2266" y="-6.5" font-family="Helvetica,sans-Serif" font-size="10.00" fill="#000000">climits</text>
</g>
<!-- Node11&#45;&gt;Node12 -->
<g id="edge17" class="edge">
<title>Node11&#45;&gt;Node12</title>
<path fill="none" stroke="#191970" d="M336.8071,-57.1936C339.6422,-56.4312 342.4919,-55.6854 345.2266,-55 413.6961,-37.8399 434.2509,-38.0938 505.4341,-19.3232"/>
<polygon fill="#191970" stroke="#191970" points="506.5799,-22.6399 515.3371,-16.6765 504.7725,-15.8772 506.5799,-22.6399"/>
</g>
<!-- Node14&#45;&gt;Node2 -->
<g id="edge21" class="edge">
<title>Node14&#45;&gt;Node2</title>
<path fill="none" stroke="#191970" d="M518.3543,-165.4982C522.5632,-147.6913 532.034,-107.6225 537.6999,-83.6515"/>
<polygon fill="#191970" stroke="#191970" points="541.1753,-84.1631 540.0695,-73.6261 534.363,-82.5529 541.1753,-84.1631"/>
</g>
<!-- Node14&#45;&gt;Node3 -->
<g id="edge20" class="edge">
<title>Node14&#45;&gt;Node3</title>
<path fill="none" stroke="#191970" d="M522.6473,-165.4537C534.6193,-148.2829 560.6371,-109.5033 577.2266,-74 584.1916,-59.094 590.0814,-41.3496 594.0089,-28.2489"/>
<polygon fill="#191970" stroke="#191970" points="597.412,-29.0795 596.827,-18.5009 590.6874,-27.1355 597.412,-29.0795"/>
</g>
<!-- Node14&#45;&gt;Node5 -->
<g id="edge22" class="edge">
<title>Node14&#45;&gt;Node5</title>
<path fill="none" stroke="#191970" d="M498.5577,-165.4179C481.5203,-156.6603 455.5104,-143.2907 435.9426,-133.2326"/>
<polygon fill="#191970" stroke="#191970" points="437.4156,-130.0544 426.9217,-128.5956 434.2155,-136.2801 437.4156,-130.0544"/>
</g>
</g>
</svg>
