<?xml version="1.0" encoding="UTF-8" standalone="no"?>
<!DOCTYPE svg PUBLIC "-//W3C//DTD SVG 1.1//EN"
 "http://www.w3.org/Graphics/SVG/1.1/DTD/svg11.dtd">
<!-- Generated by graphviz version 2.40.1 (20161225.0304)
 -->
<!-- Title: src/ast/decl.cpp Pages: 1 -->
<svg width="763pt" height="302pt"
 viewBox="0.00 0.00 763.00 302.00" xmlns="http://www.w3.org/2000/svg" xmlns:xlink="http://www.w3.org/1999/xlink">
<g id="graph0" class="graph" transform="scale(1 1) rotate(0) translate(4 298)">
<title>src/ast/decl.cpp</title>
<polygon fill="#ffffff" stroke="transparent" points="-4,4 -4,-298 759.0048,-298 759.0048,4 -4,4"/>
<!-- Node0 -->
<g id="node1" class="node">
<title>Node0</title>
<polygon fill="#bfbfbf" stroke="#000000" points="121.0419,-275.5 121.0419,-293.5 206.5145,-293.5 206.5145,-275.5 121.0419,-275.5"/>
<text text-anchor="middle" x="163.7782" y="-281.5" font-family="Helvetica,sans-Serif" font-size="10.00" fill="#000000">src/ast/decl.cpp</text>
</g>
<!-- Node1 -->
<g id="node2" class="node">
<title>Node1</title>
<polygon fill="#ffffff" stroke="#bfbfbf" points="88.101,-.5 88.101,-18.5 197.4554,-18.5 197.4554,-.5 88.101,-.5"/>
<text text-anchor="middle" x="142.7782" y="-6.5" font-family="Helvetica,sans-Serif" font-size="10.00" fill="#000000">llvm/ADT/StringRef.h</text>
</g>
<!-- Node0&#45;&gt;Node1 -->
<g id="edge1" class="edge">
<title>Node0&#45;&gt;Node1</title>
<path fill="none" stroke="#191970" d="M163.7782,-275.3733C163.7782,-256.5256 163.7782,-211.9306 163.7782,-174.5 163.7782,-174.5 163.7782,-174.5 163.7782,-119.5 163.7782,-86.901 154.7695,-49.8165 148.553,-28.1066"/>
<polygon fill="#191970" stroke="#191970" points="151.9056,-27.1012 145.6982,-18.5153 145.1965,-29.0982 151.9056,-27.1012"/>
</g>
<!-- Node2 -->
<g id="node3" class="node">
<title>Node2</title>
<g id="a_node3"><a xlink:href="decl_8h.html" target="_top" xlink:title="decl.h">
<polygon fill="#ffffff" stroke="#000000" points="402.4359,-220.5 402.4359,-238.5 445.1205,-238.5 445.1205,-220.5 402.4359,-220.5"/>
<text text-anchor="middle" x="423.7782" y="-226.5" font-family="Helvetica,sans-Serif" font-size="10.00" fill="#000000">decl.h</text>
</a>
</g>
</g>
<!-- Node0&#45;&gt;Node2 -->
<g id="edge2" class="edge">
<title>Node0&#45;&gt;Node2</title>
<path fill="none" stroke="#191970" d="M206.4208,-275.4795C258.6556,-264.4298 345.912,-245.9717 392.3929,-236.1392"/>
<polygon fill="#191970" stroke="#191970" points="393.1473,-239.5571 402.2064,-234.0633 391.6986,-232.7087 393.1473,-239.5571"/>
</g>
<!-- Node16 -->
<g id="node17" class="node">
<title>Node16</title>
<g id="a_node17"><a xlink:href="utility_8h.html" target="_top" xlink:title="../driver/utility.h">
<polygon fill="#ffffff" stroke="#000000" points="53.5262,-110.5 53.5262,-128.5 136.0302,-128.5 136.0302,-110.5 53.5262,-110.5"/>
<text text-anchor="middle" x="94.7782" y="-116.5" font-family="Helvetica,sans-Serif" font-size="10.00" fill="#000000">../driver/utility.h</text>
</a>
</g>
</g>
<!-- Node0&#45;&gt;Node16 -->
<g id="edge27" class="edge">
<title>Node0&#45;&gt;Node16</title>
<path fill="none" stroke="#191970" d="M159.8708,-275.1561C148.8646,-248.837 117.4474,-173.709 102.6578,-138.3426"/>
<polygon fill="#191970" stroke="#191970" points="105.7299,-136.6169 98.6428,-128.7414 99.2719,-139.3175 105.7299,-136.6169"/>
</g>
<!-- Node3 -->
<g id="node4" class="node">
<title>Node3</title>
<polygon fill="#ffffff" stroke="#bfbfbf" points="714.5516,-.5 714.5516,-18.5 755.0048,-18.5 755.0048,-.5 714.5516,-.5"/>
<text text-anchor="middle" x="734.7782" y="-6.5" font-family="Helvetica,sans-Serif" font-size="10.00" fill="#000000">string</text>
</g>
<!-- Node2&#45;&gt;Node3 -->
<g id="edge3" class="edge">
<title>Node2&#45;&gt;Node3</title>
<path fill="none" stroke="#191970" d="M445.3371,-227.33C494.0304,-222.0663 610.6921,-207.312 641.7782,-184 694.7929,-144.2433 720.7344,-65.2285 730.2886,-28.763"/>
<polygon fill="#191970" stroke="#191970" points="733.7239,-29.4517 732.7395,-18.9027 726.9306,-27.7632 733.7239,-29.4517"/>
</g>
<!-- Node4 -->
<g id="node5" class="node">
<title>Node4</title>
<polygon fill="#ffffff" stroke="#bfbfbf" points="297.7216,-55.5 297.7216,-73.5 349.8348,-73.5 349.8348,-55.5 297.7216,-55.5"/>
<text text-anchor="middle" x="323.7782" y="-61.5" font-family="Helvetica,sans-Serif" font-size="10.00" fill="#000000">memory</text>
</g>
<!-- Node2&#45;&gt;Node4 -->
<g id="edge4" class="edge">
<title>Node2&#45;&gt;Node4</title>
<path fill="none" stroke="#191970" d="M418.1152,-220.1561C402.0267,-193.6101 355.8449,-117.41 334.649,-82.4369"/>
<polygon fill="#191970" stroke="#191970" points="337.5553,-80.4793 329.379,-73.7414 331.5689,-84.1075 337.5553,-80.4793"/>
</g>
<!-- Node5 -->
<g id="node6" class="node">
<title>Node5</title>
<polygon fill="#ffffff" stroke="#bfbfbf" points="324.1625,-.5 324.1625,-18.5 367.3939,-18.5 367.3939,-.5 324.1625,-.5"/>
<text text-anchor="middle" x="345.7782" y="-6.5" font-family="Helvetica,sans-Serif" font-size="10.00" fill="#000000">vector</text>
</g>
<!-- Node2&#45;&gt;Node5 -->
<g id="edge5" class="edge">
<title>Node2&#45;&gt;Node5</title>
<path fill="none" stroke="#191970" d="M436.3918,-220.1759C471.6205,-193.0283 565.6195,-112.3357 520.7782,-55 481.7893,-5.1474 443.4531,-34.0033 377.6036,-19.1384"/>
<polygon fill="#191970" stroke="#191970" points="378.2395,-15.6887 367.6851,-16.6134 376.5125,-22.4723 378.2395,-15.6887"/>
</g>
<!-- Node6 -->
<g id="node7" class="node">
<title>Node6</title>
<polygon fill="#ffffff" stroke="#bfbfbf" points="522.4188,-165.5 522.4188,-183.5 615.1376,-183.5 615.1376,-165.5 522.4188,-165.5"/>
<text text-anchor="middle" x="568.7782" y="-171.5" font-family="Helvetica,sans-Serif" font-size="10.00" fill="#000000">boost/variant.hpp</text>
</g>
<!-- Node2&#45;&gt;Node6 -->
<g id="edge6" class="edge">
<title>Node2&#45;&gt;Node6</title>
<path fill="none" stroke="#191970" d="M445.1734,-221.3846C468.888,-212.3894 507.4451,-197.7643 535.1935,-187.239"/>
<polygon fill="#191970" stroke="#191970" points="536.7714,-190.3839 544.8801,-183.5648 534.2888,-183.8389 536.7714,-190.3839"/>
</g>
<!-- Node7 -->
<g id="node8" class="node">
<title>Node7</title>
<g id="a_node8"><a xlink:href="expr_8h.html" target="_top" xlink:title="expr.h">
<polygon fill="#ffffff" stroke="#000000" points="402.1552,-110.5 402.1552,-128.5 445.4012,-128.5 445.4012,-110.5 402.1552,-110.5"/>
<text text-anchor="middle" x="423.7782" y="-116.5" font-family="Helvetica,sans-Serif" font-size="10.00" fill="#000000">expr.h</text>
</a>
</g>
</g>
<!-- Node2&#45;&gt;Node7 -->
<g id="edge7" class="edge">
<title>Node2&#45;&gt;Node7</title>
<path fill="none" stroke="#191970" d="M423.7782,-220.4982C423.7782,-202.6913 423.7782,-162.6225 423.7782,-138.6515"/>
<polygon fill="#191970" stroke="#191970" points="427.2783,-138.6261 423.7782,-128.6261 420.2783,-138.6262 427.2783,-138.6261"/>
</g>
<!-- Node8 -->
<g id="node9" class="node">
<title>Node8</title>
<g id="a_node9"><a xlink:href="type_8h.html" target="_top" xlink:title="type.h">
<polygon fill="#ffffff" stroke="#000000" points="568.1576,-55.5 568.1576,-73.5 611.3988,-73.5 611.3988,-55.5 568.1576,-55.5"/>
<text text-anchor="middle" x="589.7782" y="-61.5" font-family="Helvetica,sans-Serif" font-size="10.00" fill="#000000">type.h</text>
</a>
</g>
</g>
<!-- Node2&#45;&gt;Node8 -->
<g id="edge25" class="edge">
<title>Node2&#45;&gt;Node8</title>
<path fill="none" stroke="#191970" d="M445.4662,-227.8864C492.5375,-223.8871 601.6218,-211.7631 623.7782,-184 647.9838,-153.6691 621.3764,-106.9514 603.4202,-81.8583"/>
<polygon fill="#191970" stroke="#191970" points="606.091,-79.5851 597.3063,-73.6623 600.4802,-83.7706 606.091,-79.5851"/>
</g>
<!-- Node12 -->
<g id="node13" class="node">
<title>Node12</title>
<g id="a_node13"><a xlink:href="srcloc_8h.html" target="_top" xlink:title="srcloc.h">
<polygon fill="#ffffff" stroke="#000000" points="191.5516,-55.5 191.5516,-73.5 242.0048,-73.5 242.0048,-55.5 191.5516,-55.5"/>
<text text-anchor="middle" x="216.7782" y="-61.5" font-family="Helvetica,sans-Serif" font-size="10.00" fill="#000000">srcloc.h</text>
</a>
</g>
</g>
<!-- Node2&#45;&gt;Node12 -->
<g id="edge26" class="edge">
<title>Node2&#45;&gt;Node12</title>
<path fill="none" stroke="#191970" d="M402.1791,-226.486C374.3438,-221.6709 325.6318,-209.9918 292.7782,-184 258.3754,-156.7826 235.0107,-109.4582 224.0087,-83.2742"/>
<polygon fill="#191970" stroke="#191970" points="227.158,-81.7256 220.1687,-73.7632 220.6671,-84.3463 227.158,-81.7256"/>
</g>
<!-- Node15 -->
<g id="node16" class="node">
<title>Node15</title>
<g id="a_node16"><a xlink:href="stmt_8h.html" target="_top" xlink:title="stmt.h">
<polygon fill="#ffffff" stroke="#000000" points="302.1649,-165.5 302.1649,-183.5 345.3915,-183.5 345.3915,-165.5 302.1649,-165.5"/>
<text text-anchor="middle" x="323.7782" y="-171.5" font-family="Helvetica,sans-Serif" font-size="10.00" fill="#000000">stmt.h</text>
</a>
</g>
</g>
<!-- Node2&#45;&gt;Node15 -->
<g id="edge21" class="edge">
<title>Node2&#45;&gt;Node15</title>
<path fill="none" stroke="#191970" d="M407.2652,-220.4179C391.4871,-211.7399 367.4754,-198.5334 349.2467,-188.5077"/>
<polygon fill="#191970" stroke="#191970" points="350.7646,-185.3481 340.3157,-183.5956 347.3911,-191.4816 350.7646,-185.3481"/>
</g>
<!-- Node7&#45;&gt;Node3 -->
<g id="edge8" class="edge">
<title>Node7&#45;&gt;Node3</title>
<path fill="none" stroke="#191970" d="M445.6651,-116.5511C482.6843,-111.1044 559.6022,-97.7937 620.7782,-74 654.8655,-60.7421 691.12,-38.6831 713.363,-24.1154"/>
<polygon fill="#191970" stroke="#191970" points="715.3255,-27.0136 721.7165,-18.5634 711.4508,-21.1838 715.3255,-27.0136"/>
</g>
<!-- Node7&#45;&gt;Node4 -->
<g id="edge9" class="edge">
<title>Node7&#45;&gt;Node4</title>
<path fill="none" stroke="#191970" d="M407.2652,-110.4179C391.4871,-101.7399 367.4754,-88.5334 349.2467,-78.5077"/>
<polygon fill="#191970" stroke="#191970" points="350.7646,-75.3481 340.3157,-73.5956 347.3911,-81.4816 350.7646,-75.3481"/>
</g>
<!-- Node7&#45;&gt;Node5 -->
<g id="edge10" class="edge">
<title>Node7&#45;&gt;Node5</title>
<path fill="none" stroke="#191970" d="M417.3951,-110.4982C404.4827,-92.2885 375.0623,-50.798 358.2225,-27.0496"/>
<polygon fill="#191970" stroke="#191970" points="360.8889,-24.759 352.2495,-18.6261 355.1787,-28.808 360.8889,-24.759"/>
</g>
<!-- Node7&#45;&gt;Node8 -->
<g id="edge11" class="edge">
<title>Node7&#45;&gt;Node8</title>
<path fill="none" stroke="#191970" d="M445.4798,-112.3097C474.311,-102.7572 525.4379,-85.8176 558.4518,-74.8792"/>
<polygon fill="#191970" stroke="#191970" points="559.6795,-78.1596 568.0713,-71.6921 557.4779,-71.5148 559.6795,-78.1596"/>
</g>
<!-- Node7&#45;&gt;Node12 -->
<g id="edge18" class="edge">
<title>Node7&#45;&gt;Node12</title>
<path fill="none" stroke="#191970" d="M402.0168,-113.718C366.2685,-104.2196 294.8018,-85.2309 251.8419,-73.8164"/>
<polygon fill="#191970" stroke="#191970" points="252.6559,-70.4114 242.0925,-71.226 250.8584,-77.1766 252.6559,-70.4114"/>
</g>
<!-- Node14 -->
<g id="node15" class="node">
<title>Node14</title>
<g id="a_node15"><a xlink:href="operators_8h.html" target="_top" xlink:title="../parser/operators.h">
<polygon fill="#ffffff" stroke="#000000" points="405.7562,-55.5 405.7562,-73.5 511.8002,-73.5 511.8002,-55.5 405.7562,-55.5"/>
<text text-anchor="middle" x="458.7782" y="-61.5" font-family="Helvetica,sans-Serif" font-size="10.00" fill="#000000">../parser/operators.h</text>
</a>
</g>
</g>
<!-- Node7&#45;&gt;Node14 -->
<g id="edge20" class="edge">
<title>Node7&#45;&gt;Node14</title>
<path fill="none" stroke="#191970" d="M429.5577,-110.4179C434.3923,-102.8207 441.4356,-91.7527 447.3958,-82.3866"/>
<polygon fill="#191970" stroke="#191970" points="450.4571,-84.0952 452.8731,-73.7795 444.5515,-80.337 450.4571,-84.0952"/>
</g>
<!-- Node8&#45;&gt;Node1 -->
<g id="edge16" class="edge">
<title>Node8&#45;&gt;Node1</title>
<path fill="none" stroke="#191970" d="M568.0413,-61.3787C554.4644,-59.461 536.6144,-56.9977 520.7782,-55 384.6793,-37.8313 347.7637,-37.3295 207.8302,-19.0997"/>
<polygon fill="#191970" stroke="#191970" points="207.9441,-15.5848 197.5742,-17.756 207.0348,-22.5254 207.9441,-15.5848"/>
</g>
<!-- Node8&#45;&gt;Node3 -->
<g id="edge13" class="edge">
<title>Node8&#45;&gt;Node3</title>
<path fill="none" stroke="#191970" d="M611.4862,-56.2659C636.254,-46.8713 676.9152,-31.448 704.7207,-20.9011"/>
<polygon fill="#191970" stroke="#191970" points="706.2213,-24.0753 714.3299,-17.2562 703.7386,-17.5303 706.2213,-24.0753"/>
</g>
<!-- Node8&#45;&gt;Node5 -->
<g id="edge12" class="edge">
<title>Node8&#45;&gt;Node5</title>
<path fill="none" stroke="#191970" d="M568.1273,-58.5674C563.4103,-57.3363 558.4369,-56.0848 553.7782,-55 478.2391,-37.4101 455.6669,-39.0474 377.4735,-19.249"/>
<polygon fill="#191970" stroke="#191970" points="378.2112,-15.8249 367.6547,-16.7255 376.4688,-22.6046 378.2112,-15.8249"/>
</g>
<!-- Node9 -->
<g id="node10" class="node">
<title>Node9</title>
<polygon fill="#ffffff" stroke="#bfbfbf" points="644.7167,-.5 644.7167,-18.5 696.8397,-18.5 696.8397,-.5 644.7167,-.5"/>
<text text-anchor="middle" x="670.7782" y="-6.5" font-family="Helvetica,sans-Serif" font-size="10.00" fill="#000000">ostream</text>
</g>
<!-- Node8&#45;&gt;Node9 -->
<g id="edge14" class="edge">
<title>Node8&#45;&gt;Node9</title>
<path fill="none" stroke="#191970" d="M603.1537,-55.4179C615.5822,-46.9788 634.3179,-34.257 648.9191,-24.3426"/>
<polygon fill="#191970" stroke="#191970" points="651.0759,-27.1088 657.3828,-18.5956 647.1436,-21.3176 651.0759,-27.1088"/>
</g>
<!-- Node10 -->
<g id="node11" class="node">
<title>Node10</title>
<polygon fill="#ffffff" stroke="#bfbfbf" points="385.2167,-.5 385.2167,-18.5 492.3397,-18.5 492.3397,-.5 385.2167,-.5"/>
<text text-anchor="middle" x="438.7782" y="-6.5" font-family="Helvetica,sans-Serif" font-size="10.00" fill="#000000">llvm/ADT/ArrayRef.h</text>
</g>
<!-- Node8&#45;&gt;Node10 -->
<g id="edge15" class="edge">
<title>Node8&#45;&gt;Node10</title>
<path fill="none" stroke="#191970" d="M568.1436,-56.6198C543.3063,-47.5732 502.241,-32.6156 473.0436,-21.9808"/>
<polygon fill="#191970" stroke="#191970" points="474.2314,-18.6885 463.6374,-18.5547 471.8357,-25.2658 474.2314,-18.6885"/>
</g>
<!-- Node11 -->
<g id="node12" class="node">
<title>Node11</title>
<polygon fill="#ffffff" stroke="#bfbfbf" points="510.4779,-.5 510.4779,-18.5 627.0785,-18.5 627.0785,-.5 510.4779,-.5"/>
<text text-anchor="middle" x="568.7782" y="-6.5" font-family="Helvetica,sans-Serif" font-size="10.00" fill="#000000">llvm/Support/Casting.h</text>
</g>
<!-- Node8&#45;&gt;Node11 -->
<g id="edge17" class="edge">
<title>Node8&#45;&gt;Node11</title>
<path fill="none" stroke="#191970" d="M586.3105,-55.4179C583.5004,-48.0581 579.4466,-37.441 575.9447,-28.2695"/>
<polygon fill="#191970" stroke="#191970" points="579.1581,-26.8732 572.3213,-18.7795 572.6186,-29.3701 579.1581,-26.8732"/>
</g>
<!-- Node13 -->
<g id="node14" class="node">
<title>Node13</title>
<polygon fill="#ffffff" stroke="#bfbfbf" points="215.8915,-.5 215.8915,-18.5 259.6649,-18.5 259.6649,-.5 215.8915,-.5"/>
<text text-anchor="middle" x="237.7782" y="-6.5" font-family="Helvetica,sans-Serif" font-size="10.00" fill="#000000">climits</text>
</g>
<!-- Node12&#45;&gt;Node13 -->
<g id="edge19" class="edge">
<title>Node12&#45;&gt;Node13</title>
<path fill="none" stroke="#191970" d="M220.2459,-55.4179C223.056,-48.0581 227.1098,-37.441 230.6117,-28.2695"/>
<polygon fill="#191970" stroke="#191970" points="233.9378,-29.3701 234.2351,-18.7795 227.3983,-26.8732 233.9378,-29.3701"/>
</g>
<!-- Node15&#45;&gt;Node4 -->
<g id="edge23" class="edge">
<title>Node15&#45;&gt;Node4</title>
<path fill="none" stroke="#191970" d="M323.7782,-165.4982C323.7782,-147.6913 323.7782,-107.6225 323.7782,-83.6515"/>
<polygon fill="#191970" stroke="#191970" points="327.2783,-83.6261 323.7782,-73.6261 320.2783,-83.6262 327.2783,-83.6261"/>
</g>
<!-- Node15&#45;&gt;Node5 -->
<g id="edge22" class="edge">
<title>Node15&#45;&gt;Node5</title>
<path fill="none" stroke="#191970" d="M316.7948,-165.4397C301.9373,-144.9815 270.0279,-93.9588 288.7782,-55 295.0175,-42.0361 306.9473,-31.6167 318.2869,-24.0369"/>
<polygon fill="#191970" stroke="#191970" points="320.4656,-26.8051 327.1346,-18.5725 316.7873,-20.8494 320.4656,-26.8051"/>
</g>
<!-- Node15&#45;&gt;Node7 -->
<g id="edge24" class="edge">
<title>Node15&#45;&gt;Node7</title>
<path fill="none" stroke="#191970" d="M340.2912,-165.4179C356.0692,-156.7399 380.081,-143.5334 398.3097,-133.5077"/>
<polygon fill="#191970" stroke="#191970" points="400.1653,-136.4816 407.2407,-128.5956 396.7918,-130.3481 400.1653,-136.4816"/>
</g>
<!-- Node16&#45;&gt;Node1 -->
<g id="edge30" class="edge">
<title>Node16&#45;&gt;Node1</title>
<path fill="none" stroke="#191970" d="M61.4022,-110.4906C28.6925,-99.949 -13.7535,-80.6231 4.7782,-55 14.8699,-41.0466 53.4456,-29.0354 87.2544,-20.8632"/>
<polygon fill="#191970" stroke="#191970" points="88.1574,-24.2465 97.0951,-18.5572 86.5603,-17.4311 88.1574,-24.2465"/>
</g>
<!-- Node16&#45;&gt;Node12 -->
<g id="edge31" class="edge">
<title>Node16&#45;&gt;Node12</title>
<path fill="none" stroke="#191970" d="M114.924,-110.4179C134.6148,-101.5409 164.8167,-87.9253 187.2255,-77.823"/>
<polygon fill="#191970" stroke="#191970" points="188.9245,-80.8963 196.6024,-73.5956 186.0476,-74.5148 188.9245,-80.8963"/>
</g>
<!-- Node17 -->
<g id="node18" class="node">
<title>Node17</title>
<polygon fill="#ffffff" stroke="#bfbfbf" points="13.6058,-55.5 13.6058,-73.5 67.9506,-73.5 67.9506,-55.5 13.6058,-55.5"/>
<text text-anchor="middle" x="40.7782" y="-61.5" font-family="Helvetica,sans-Serif" font-size="10.00" fill="#000000">iostream</text>
</g>
<!-- Node16&#45;&gt;Node17 -->
<g id="edge28" class="edge">
<title>Node16&#45;&gt;Node17</title>
<path fill="none" stroke="#191970" d="M85.8612,-110.4179C78.0136,-102.425 66.3942,-90.5903 56.9171,-80.9377"/>
<polygon fill="#191970" stroke="#191970" points="59.3924,-78.463 49.8889,-73.7795 54.3974,-83.3672 59.3924,-78.463"/>
</g>
<!-- Node18 -->
<g id="node19" class="node">
<title>Node18</title>
<polygon fill="#ffffff" stroke="#bfbfbf" points="86.1083,-55.5 86.1083,-73.5 135.4481,-73.5 135.4481,-55.5 86.1083,-55.5"/>
<text text-anchor="middle" x="110.7782" y="-61.5" font-family="Helvetica,sans-Serif" font-size="10.00" fill="#000000">fstream</text>
</g>
<!-- Node16&#45;&gt;Node18 -->
<g id="edge29" class="edge">
<title>Node16&#45;&gt;Node18</title>
<path fill="none" stroke="#191970" d="M97.4203,-110.4179C99.5383,-103.1372 102.5836,-92.669 105.2318,-83.5659"/>
<polygon fill="#191970" stroke="#191970" points="108.646,-84.3591 108.0787,-73.7795 101.9247,-82.4037 108.646,-84.3591"/>
</g>
</g>
</svg>
