<?xml version="1.0" encoding="UTF-8" standalone="no"?>
<!DOCTYPE svg PUBLIC "-//W3C//DTD SVG 1.1//EN"
 "http://www.w3.org/Graphics/SVG/1.1/DTD/svg11.dtd">
<!-- Generated by graphviz version 2.40.1 (20161225.0304)
 -->
<!-- Title: src/irgen Pages: 1 -->
<svg width="168pt" height="188pt"
 viewBox="0.00 0.00 168.15 188.00" xmlns="http://www.w3.org/2000/svg" xmlns:xlink="http://www.w3.org/1999/xlink">
<g id="graph0" class="graph" transform="scale(1 1) rotate(0) translate(4 184)">
<title>src/irgen</title>
<polygon fill="#ffffff" stroke="transparent" points="-4,4 -4,-184 164.1491,-184 164.1491,4 -4,4"/>
<g id="clust1" class="cluster">
<title>clusterdir_68267d1309a1af8e8297ef4c3efbcdba</title>
<g id="a_clust1"><a xlink:href="dir_68267d1309a1af8e8297ef4c3efbcdba.html" target="_top" xlink:title="src">
<polygon fill="#ddddee" stroke="#000000" points="8,-64 8,-134 78,-134 78,-64 8,-64"/>
<text text-anchor="middle" x="43" y="-122" font-family="Helvetica,sans-Serif" font-size="10.00" fill="#000000">src</text>
</a>
</g>
</g>
<!-- dir_b5231b0438093b9678c95afaec75ebe4 -->
<g id="node1" class="node">
<title>dir_b5231b0438093b9678c95afaec75ebe4</title>
<g id="a_node1"><a xlink:href="dir_b5231b0438093b9678c95afaec75ebe4.html" target="_top" xlink:title="irgen">
<polygon fill="#eeeeff" stroke="#000000" points="70,-108 16,-108 16,-72 70,-72 70,-108"/>
<text text-anchor="middle" x="43" y="-87" font-family="Helvetica,sans-Serif" font-size="10.00" fill="#000000">irgen</text>
</a>
</g>
</g>
<!-- dir_203e5988f1ed315d29383d699972de6f -->
<g id="node2" class="node">
<title>dir_203e5988f1ed315d29383d699972de6f</title>
<g id="a_node2"><a xlink:href="dir_203e5988f1ed315d29383d699972de6f.html" target="_top" xlink:title="ast">
<polygon fill="none" stroke="#000000" points="142,-180 88,-180 88,-144 142,-144 142,-180"/>
<text text-anchor="middle" x="115" y="-159" font-family="Helvetica,sans-Serif" font-size="10.00" fill="#000000">ast</text>
</a>
</g>
</g>
<!-- dir_b5231b0438093b9678c95afaec75ebe4&#45;&gt;dir_203e5988f1ed315d29383d699972de6f -->
<g id="edge5" class="edge">
<title>dir_b5231b0438093b9678c95afaec75ebe4&#45;&gt;dir_203e5988f1ed315d29383d699972de6f</title>
<path fill="none" stroke="#000000" d="M56.5075,-108.3424C62.9265,-116.5579 70.9463,-126.1427 79,-134 80.0627,-135.0367 81.1628,-136.0718 82.2891,-137.0999"/>
<polygon fill="#000000" stroke="#000000" points="80.124,-139.8543 89.9855,-143.7273 84.6917,-134.5499 80.124,-139.8543"/>
<g id="a_edge5&#45;headlabel"><a xlink:href="dir_000003_000001.html" target="_top" xlink:title="3">
<text text-anchor="middle" x="75.5474" y="-136.6603" font-family="Helvetica,sans-Serif" font-size="10.00" fill="#000000">3</text>
</a>
</g>
</g>
<!-- dir_4db3a2f7aa3a8b9901e70dfeb2571af9 -->
<g id="node3" class="node">
<title>dir_4db3a2f7aa3a8b9901e70dfeb2571af9</title>
<g id="a_node3"><a xlink:href="dir_4db3a2f7aa3a8b9901e70dfeb2571af9.html" target="_top" xlink:title="driver">
<polygon fill="none" stroke="#000000" points="142,-108 88,-108 88,-72 142,-72 142,-108"/>
<text text-anchor="middle" x="115" y="-87" font-family="Helvetica,sans-Serif" font-size="10.00" fill="#000000">driver</text>
</a>
</g>
</g>
<!-- dir_b5231b0438093b9678c95afaec75ebe4&#45;&gt;dir_4db3a2f7aa3a8b9901e70dfeb2571af9 -->
<g id="edge6" class="edge">
<title>dir_b5231b0438093b9678c95afaec75ebe4&#45;&gt;dir_4db3a2f7aa3a8b9901e70dfeb2571af9</title>
<path fill="none" stroke="#000000" d="M70.2813,-90C72.7377,-90 75.1942,-90 77.6507,-90"/>
<polygon fill="#000000" stroke="#000000" points="77.7495,-93.5001 87.7495,-90 77.7495,-86.5001 77.7495,-93.5001"/>
<g id="a_edge6&#45;headlabel"><a xlink:href="dir_000003_000002.html" target="_top" xlink:title="1">
<text text-anchor="middle" x="74.1549" y="-93.3393" font-family="Helvetica,sans-Serif" font-size="10.00" fill="#000000">1</text>
</a>
</g>
</g>
<!-- dir_64a2fc46d0d41bc8a4d0616660b79740 -->
<g id="node4" class="node">
<title>dir_64a2fc46d0d41bc8a4d0616660b79740</title>
<g id="a_node4"><a xlink:href="dir_64a2fc46d0d41bc8a4d0616660b79740.html" target="_top" xlink:title="sema">
<polygon fill="none" stroke="#000000" points="142,-36 88,-36 88,0 142,0 142,-36"/>
<text text-anchor="middle" x="115" y="-15" font-family="Helvetica,sans-Serif" font-size="10.00" fill="#000000">sema</text>
</a>
</g>
</g>
<!-- dir_b5231b0438093b9678c95afaec75ebe4&#45;&gt;dir_64a2fc46d0d41bc8a4d0616660b79740 -->
<g id="edge7" class="edge">
<title>dir_b5231b0438093b9678c95afaec75ebe4&#45;&gt;dir_64a2fc46d0d41bc8a4d0616660b79740</title>
<path fill="none" stroke="#000000" d="M55.2162,-71.8314C63.0663,-63.1337 73.4496,-52.5783 83.4049,-43.1265"/>
<polygon fill="#000000" stroke="#000000" points="85.9508,-45.5384 90.8853,-36.1628 81.1812,-40.4148 85.9508,-45.5384"/>
<g id="a_edge7&#45;headlabel"><a xlink:href="dir_000003_000005.html" target="_top" xlink:title="1">
<text text-anchor="middle" x="85.2544" y="-47.0658" font-family="Helvetica,sans-Serif" font-size="10.00" fill="#000000">1</text>
</a>
</g>
</g>
<!-- dir_203e5988f1ed315d29383d699972de6f&#45;&gt;dir_4db3a2f7aa3a8b9901e70dfeb2571af9 -->
<g id="edge1" class="edge">
<title>dir_203e5988f1ed315d29383d699972de6f&#45;&gt;dir_4db3a2f7aa3a8b9901e70dfeb2571af9</title>
<path fill="none" stroke="#000000" d="M109.0476,-143.8314C108.2972,-136.131 108.0763,-126.9743 108.3849,-118.4166"/>
<polygon fill="#000000" stroke="#000000" points="111.8792,-118.6161 109.024,-108.4133 104.8935,-118.1697 111.8792,-118.6161"/>
<g id="a_edge1&#45;headlabel"><a xlink:href="dir_000001_000002.html" target="_top" xlink:title="2">
<text text-anchor="middle" x="114.4836" y="-119.3844" font-family="Helvetica,sans-Serif" font-size="10.00" fill="#000000">2</text>
</a>
</g>
</g>
<!-- dir_4db3a2f7aa3a8b9901e70dfeb2571af9&#45;&gt;dir_b5231b0438093b9678c95afaec75ebe4 -->
<g id="edge3" class="edge">
<title>dir_4db3a2f7aa3a8b9901e70dfeb2571af9&#45;&gt;dir_b5231b0438093b9678c95afaec75ebe4</title>
<path fill="none" stroke="#000000" d="M87.7495,-90C85.293,-90 82.8366,-90 80.3801,-90"/>
<polygon fill="#000000" stroke="#000000" points="80.2813,-86.5001 70.2813,-90 80.2812,-93.5001 80.2813,-86.5001"/>
<g id="a_edge3&#45;headlabel"><a xlink:href="dir_000002_000003.html" target="_top" xlink:title="1">
<text text-anchor="middle" x="83.8759" y="-80.6607" font-family="Helvetica,sans-Serif" font-size="10.00" fill="#000000">1</text>
</a>
</g>
</g>
<!-- dir_4db3a2f7aa3a8b9901e70dfeb2571af9&#45;&gt;dir_203e5988f1ed315d29383d699972de6f -->
<g id="edge2" class="edge">
<title>dir_4db3a2f7aa3a8b9901e70dfeb2571af9&#45;&gt;dir_203e5988f1ed315d29383d699972de6f</title>
<path fill="none" stroke="#000000" d="M120.976,-108.4133C121.7071,-116.0593 121.9203,-125.1084 121.6155,-133.5726"/>
<polygon fill="#000000" stroke="#000000" points="118.1048,-133.6264 120.9524,-143.8314 125.0902,-134.078 118.1048,-133.6264"/>
<g id="a_edge2&#45;headlabel"><a xlink:href="dir_000002_000001.html" target="_top" xlink:title="3">
<text text-anchor="middle" x="115.5032" y="-126.8562" font-family="Helvetica,sans-Serif" font-size="10.00" fill="#000000">3</text>
</a>
</g>
</g>
<!-- dir_4db3a2f7aa3a8b9901e70dfeb2571af9&#45;&gt;dir_64a2fc46d0d41bc8a4d0616660b79740 -->
<g id="edge4" class="edge">
<title>dir_4db3a2f7aa3a8b9901e70dfeb2571af9&#45;&gt;dir_64a2fc46d0d41bc8a4d0616660b79740</title>
<path fill="none" stroke="#000000" d="M109.0476,-71.8314C108.2972,-64.131 108.0763,-54.9743 108.3849,-46.4166"/>
<polygon fill="#000000" stroke="#000000" points="111.8792,-46.6161 109.024,-36.4133 104.8935,-46.1697 111.8792,-46.6161"/>
<g id="a_edge4&#45;headlabel"><a xlink:href="dir_000002_000005.html" target="_top" xlink:title="1">
<text text-anchor="middle" x="114.4836" y="-47.3844" font-family="Helvetica,sans-Serif" font-size="10.00" fill="#000000">1</text>
</a>
</g>
</g>
<!-- dir_64a2fc46d0d41bc8a4d0616660b79740&#45;&gt;dir_b5231b0438093b9678c95afaec75ebe4 -->
<g id="edge10" class="edge">
<title>dir_64a2fc46d0d41bc8a4d0616660b79740&#45;&gt;dir_b5231b0438093b9678c95afaec75ebe4</title>
<path fill="none" stroke="#000000" d="M102.5627,-36.4133C94.7259,-45.0787 84.4215,-55.5464 74.5436,-64.9223"/>
<polygon fill="#000000" stroke="#000000" points="72.0561,-62.4561 67.121,-71.8314 76.8255,-67.5799 72.0561,-62.4561"/>
<g id="a_edge10&#45;headlabel"><a xlink:href="dir_000005_000003.html" target="_top" xlink:title="1">
<text text-anchor="middle" x="72.7528" y="-54.9287" font-family="Helvetica,sans-Serif" font-size="10.00" fill="#000000">1</text>
</a>
</g>
</g>
<!-- dir_64a2fc46d0d41bc8a4d0616660b79740&#45;&gt;dir_203e5988f1ed315d29383d699972de6f -->
<g id="edge8" class="edge">
<title>dir_64a2fc46d0d41bc8a4d0616660b79740&#45;&gt;dir_203e5988f1ed315d29383d699972de6f</title>
<path fill="none" stroke="#000000" d="M133.9861,-36.4043C140.7218,-44.2043 147.4961,-53.8376 151,-64 161.1409,-93.412 164.6687,-106.0524 151,-134 150.413,-135.2003 149.7469,-136.364 149.0148,-137.4907"/>
<polygon fill="#000000" stroke="#000000" points="146.1115,-135.5034 142.3238,-145.3981 151.4552,-140.0251 146.1115,-135.5034"/>
<g id="a_edge8&#45;headlabel"><a xlink:href="dir_000005_000001.html" target="_top" xlink:title="5">
<text text-anchor="middle" x="146.2659" y="-127.9254" font-family="Helvetica,sans-Serif" font-size="10.00" fill="#000000">5</text>
</a>
</g>
</g>
<!-- dir_64a2fc46d0d41bc8a4d0616660b79740&#45;&gt;dir_4db3a2f7aa3a8b9901e70dfeb2571af9 -->
<g id="edge9" class="edge">
<title>dir_64a2fc46d0d41bc8a4d0616660b79740&#45;&gt;dir_4db3a2f7aa3a8b9901e70dfeb2571af9</title>
<path fill="none" stroke="#000000" d="M120.976,-36.4133C121.7071,-44.0593 121.9203,-53.1084 121.6155,-61.5726"/>
<polygon fill="#000000" stroke="#000000" points="118.1048,-61.6264 120.9524,-71.8314 125.0902,-62.078 118.1048,-61.6264"/>
<g id="a_edge9&#45;headlabel"><a xlink:href="dir_000005_000002.html" target="_top" xlink:title="1">
<text text-anchor="middle" x="115.5032" y="-54.8562" font-family="Helvetica,sans-Serif" font-size="10.00" fill="#000000">1</text>
</a>
</g>
</g>
</g>
</svg>
