<?xml version="1.0" encoding="UTF-8" standalone="no"?>
<!DOCTYPE svg PUBLIC "-//W3C//DTD SVG 1.1//EN"
 "http://www.w3.org/Graphics/SVG/1.1/DTD/svg11.dtd">
<!-- Generated by graphviz version 2.40.1 (20161225.0304)
 -->
<!-- Title: src/ast Pages: 1 -->
<svg width="150pt" height="150pt"
 viewBox="0.00 0.00 150.00 150.00" xmlns="http://www.w3.org/2000/svg" xmlns:xlink="http://www.w3.org/1999/xlink">
<g id="graph0" class="graph" transform="scale(1 1) rotate(0) translate(4 146)">
<title>src/ast</title>
<polygon fill="#ffffff" stroke="transparent" points="-4,4 -4,-146 146,-146 146,4 -4,4"/>
<g id="clust1" class="cluster">
<title>clusterdir_68267d1309a1af8e8297ef4c3efbcdba</title>
<g id="a_clust1"><a xlink:href="dir_68267d1309a1af8e8297ef4c3efbcdba.html" target="_top" xlink:title="src">
<polygon fill="#ddddee" stroke="#000000" points="8,-64 8,-134 78,-134 78,-64 8,-64"/>
<text text-anchor="middle" x="43" y="-122" font-family="Helvetica,sans-Serif" font-size="10.00" fill="#000000">src</text>
</a>
</g>
</g>
<!-- dir_203e5988f1ed315d29383d699972de6f -->
<g id="node1" class="node">
<title>dir_203e5988f1ed315d29383d699972de6f</title>
<g id="a_node1"><a xlink:href="dir_203e5988f1ed315d29383d699972de6f.html" target="_top" xlink:title="ast">
<polygon fill="#eeeeff" stroke="#000000" points="70,-108 16,-108 16,-72 70,-72 70,-108"/>
<text text-anchor="middle" x="43" y="-87" font-family="Helvetica,sans-Serif" font-size="10.00" fill="#000000">ast</text>
</a>
</g>
</g>
<!-- dir_4db3a2f7aa3a8b9901e70dfeb2571af9 -->
<g id="node2" class="node">
<title>dir_4db3a2f7aa3a8b9901e70dfeb2571af9</title>
<g id="a_node2"><a xlink:href="dir_4db3a2f7aa3a8b9901e70dfeb2571af9.html" target="_top" xlink:title="driver">
<polygon fill="none" stroke="#000000" points="106,-36 52,-36 52,0 106,0 106,-36"/>
<text text-anchor="middle" x="79" y="-15" font-family="Helvetica,sans-Serif" font-size="10.00" fill="#000000">driver</text>
</a>
</g>
</g>
<!-- dir_203e5988f1ed315d29383d699972de6f&#45;&gt;dir_4db3a2f7aa3a8b9901e70dfeb2571af9 -->
<g id="edge1" class="edge">
<title>dir_203e5988f1ed315d29383d699972de6f&#45;&gt;dir_4db3a2f7aa3a8b9901e70dfeb2571af9</title>
<path fill="none" stroke="#000000" d="M46.1319,-71.8314C49.368,-63.7925 53.9746,-54.1666 58.7828,-45.2918"/>
<polygon fill="#000000" stroke="#000000" points="61.9292,-46.8385 63.8174,-36.4133 55.8401,-43.3856 61.9292,-46.8385"/>
<g id="a_edge1&#45;headlabel"><a xlink:href="dir_000001_000002.html" target="_top" xlink:title="2">
<text text-anchor="middle" x="62.626" y="-48.3659" font-family="Helvetica,sans-Serif" font-size="10.00" fill="#000000">2</text>
</a>
</g>
</g>
<!-- dir_6cd8491d143eb218b70983dbdb3c58bc -->
<g id="node3" class="node">
<title>dir_6cd8491d143eb218b70983dbdb3c58bc</title>
<g id="a_node3"><a xlink:href="dir_6cd8491d143eb218b70983dbdb3c58bc.html" target="_top" xlink:title="parser">
<polygon fill="none" stroke="#000000" points="142,-108 88,-108 88,-72 142,-72 142,-108"/>
<text text-anchor="middle" x="115" y="-87" font-family="Helvetica,sans-Serif" font-size="10.00" fill="#000000">parser</text>
</a>
</g>
</g>
<!-- dir_203e5988f1ed315d29383d699972de6f&#45;&gt;dir_6cd8491d143eb218b70983dbdb3c58bc -->
<g id="edge2" class="edge">
<title>dir_203e5988f1ed315d29383d699972de6f&#45;&gt;dir_6cd8491d143eb218b70983dbdb3c58bc</title>
<path fill="none" stroke="#000000" d="M70.2813,-90C72.7377,-90 75.1942,-90 77.6507,-90"/>
<polygon fill="#000000" stroke="#000000" points="77.7495,-93.5001 87.7495,-90 77.7495,-86.5001 77.7495,-93.5001"/>
<g id="a_edge2&#45;headlabel"><a xlink:href="dir_000001_000004.html" target="_top" xlink:title="1">
<text text-anchor="middle" x="74.1549" y="-93.3393" font-family="Helvetica,sans-Serif" font-size="10.00" fill="#000000">1</text>
</a>
</g>
</g>
<!-- dir_4db3a2f7aa3a8b9901e70dfeb2571af9&#45;&gt;dir_203e5988f1ed315d29383d699972de6f -->
<g id="edge3" class="edge">
<title>dir_4db3a2f7aa3a8b9901e70dfeb2571af9&#45;&gt;dir_203e5988f1ed315d29383d699972de6f</title>
<path fill="none" stroke="#000000" d="M75.7694,-36.4133C72.5057,-44.484 67.8833,-54.1182 63.0711,-62.9775"/>
<polygon fill="#000000" stroke="#000000" points="59.9372,-61.4084 58.0367,-71.8314 66.0222,-64.8684 59.9372,-61.4084"/>
<g id="a_edge3&#45;headlabel"><a xlink:href="dir_000002_000001.html" target="_top" xlink:title="3">
<text text-anchor="middle" x="59.2457" y="-53.8802" font-family="Helvetica,sans-Serif" font-size="10.00" fill="#000000">3</text>
</a>
</g>
</g>
<!-- dir_6cd8491d143eb218b70983dbdb3c58bc&#45;&gt;dir_4db3a2f7aa3a8b9901e70dfeb2571af9 -->
<g id="edge4" class="edge">
<title>dir_6cd8491d143eb218b70983dbdb3c58bc&#45;&gt;dir_4db3a2f7aa3a8b9901e70dfeb2571af9</title>
<path fill="none" stroke="#000000" d="M105.9157,-71.8314C101.9385,-63.8771 97.1845,-54.369 92.7861,-45.5723"/>
<polygon fill="#000000" stroke="#000000" points="95.8093,-43.7923 88.2066,-36.4133 89.5483,-46.9228 95.8093,-43.7923"/>
<g id="a_edge4&#45;headlabel"><a xlink:href="dir_000004_000002.html" target="_top" xlink:title="1">
<text text-anchor="middle" x="99.9563" y="-42.7377" font-family="Helvetica,sans-Serif" font-size="10.00" fill="#000000">1</text>
</a>
</g>
</g>
</g>
</svg>
