<?xml version="1.0" encoding="UTF-8" standalone="no"?>
<!DOCTYPE svg PUBLIC "-//W3C//DTD SVG 1.1//EN"
 "http://www.w3.org/Graphics/SVG/1.1/DTD/svg11.dtd">
<!-- Generated by graphviz version 2.40.1 (20161225.0304)
 -->
<!-- Title: src/driver Pages: 1 -->
<svg width="188pt" height="188pt"
 viewBox="0.00 0.00 188.00 188.00" xmlns="http://www.w3.org/2000/svg" xmlns:xlink="http://www.w3.org/1999/xlink">
<g id="graph0" class="graph" transform="scale(1 1) rotate(0) translate(4 184)">
<title>src/driver</title>
<polygon fill="#ffffff" stroke="transparent" points="-4,4 -4,-184 184,-184 184,4 -4,4"/>
<g id="clust1" class="cluster">
<title>clusterdir_68267d1309a1af8e8297ef4c3efbcdba</title>
<g id="a_clust1"><a xlink:href="dir_68267d1309a1af8e8297ef4c3efbcdba.html" target="_top" xlink:title="src">
<polygon fill="#ddddee" stroke="#000000" points="8,-64 8,-134 78,-134 78,-64 8,-64"/>
<text text-anchor="middle" x="43" y="-122" font-family="Helvetica,sans-Serif" font-size="10.00" fill="#000000">src</text>
</a>
</g>
</g>
<!-- dir_4db3a2f7aa3a8b9901e70dfeb2571af9 -->
<g id="node1" class="node">
<title>dir_4db3a2f7aa3a8b9901e70dfeb2571af9</title>
<g id="a_node1"><a xlink:href="dir_4db3a2f7aa3a8b9901e70dfeb2571af9.html" target="_top" xlink:title="driver">
<polygon fill="#eeeeff" stroke="#000000" points="70,-108 16,-108 16,-72 70,-72 70,-108"/>
<text text-anchor="middle" x="43" y="-87" font-family="Helvetica,sans-Serif" font-size="10.00" fill="#000000">driver</text>
</a>
</g>
</g>
<!-- dir_203e5988f1ed315d29383d699972de6f -->
<g id="node2" class="node">
<title>dir_203e5988f1ed315d29383d699972de6f</title>
<g id="a_node2"><a xlink:href="dir_203e5988f1ed315d29383d699972de6f.html" target="_top" xlink:title="ast">
<polygon fill="none" stroke="#000000" points="125,-36 71,-36 71,0 125,0 125,-36"/>
<text text-anchor="middle" x="98" y="-15" font-family="Helvetica,sans-Serif" font-size="10.00" fill="#000000">ast</text>
</a>
</g>
</g>
<!-- dir_4db3a2f7aa3a8b9901e70dfeb2571af9&#45;&gt;dir_203e5988f1ed315d29383d699972de6f -->
<g id="edge2" class="edge">
<title>dir_4db3a2f7aa3a8b9901e70dfeb2571af9&#45;&gt;dir_203e5988f1ed315d29383d699972de6f</title>
<path fill="none" stroke="#000000" d="M50.9264,-71.8314C56.5094,-63.454 64.0357,-53.3531 71.4838,-44.1749"/>
<polygon fill="#000000" stroke="#000000" points="74.2404,-46.3344 77.9583,-36.4133 68.865,-41.8504 74.2404,-46.3344"/>
<g id="a_edge2&#45;headlabel"><a xlink:href="dir_000002_000001.html" target="_top" xlink:title="3">
<text text-anchor="middle" x="74.1181" y="-47.9134" font-family="Helvetica,sans-Serif" font-size="10.00" fill="#000000">3</text>
</a>
</g>
</g>
<!-- dir_b5231b0438093b9678c95afaec75ebe4 -->
<g id="node3" class="node">
<title>dir_b5231b0438093b9678c95afaec75ebe4</title>
<g id="a_node3"><a xlink:href="dir_b5231b0438093b9678c95afaec75ebe4.html" target="_top" xlink:title="irgen">
<polygon fill="none" stroke="#000000" points="152,-180 98,-180 98,-144 152,-144 152,-180"/>
<text text-anchor="middle" x="125" y="-159" font-family="Helvetica,sans-Serif" font-size="10.00" fill="#000000">irgen</text>
</a>
</g>
</g>
<!-- dir_4db3a2f7aa3a8b9901e70dfeb2571af9&#45;&gt;dir_b5231b0438093b9678c95afaec75ebe4 -->
<g id="edge3" class="edge">
<title>dir_4db3a2f7aa3a8b9901e70dfeb2571af9&#45;&gt;dir_b5231b0438093b9678c95afaec75ebe4</title>
<path fill="none" stroke="#000000" d="M49.9701,-108.0019C56.5349,-116.3315 65.8143,-126.1058 75,-134 79.3554,-137.743 84.2208,-141.4343 89.1944,-144.8472"/>
<polygon fill="#000000" stroke="#000000" points="87.2996,-147.7899 97.5957,-150.2881 91.1047,-141.9144 87.2996,-147.7899"/>
<g id="a_edge3&#45;headlabel"><a xlink:href="dir_000002_000003.html" target="_top" xlink:title="1">
<text text-anchor="middle" x="82.7391" y="-145.2192" font-family="Helvetica,sans-Serif" font-size="10.00" fill="#000000">1</text>
</a>
</g>
</g>
<!-- dir_64a2fc46d0d41bc8a4d0616660b79740 -->
<g id="node4" class="node">
<title>dir_64a2fc46d0d41bc8a4d0616660b79740</title>
<g id="a_node4"><a xlink:href="dir_64a2fc46d0d41bc8a4d0616660b79740.html" target="_top" xlink:title="sema">
<polygon fill="none" stroke="#000000" points="180,-108 126,-108 126,-72 180,-72 180,-108"/>
<text text-anchor="middle" x="153" y="-87" font-family="Helvetica,sans-Serif" font-size="10.00" fill="#000000">sema</text>
</a>
</g>
</g>
<!-- dir_4db3a2f7aa3a8b9901e70dfeb2571af9&#45;&gt;dir_64a2fc46d0d41bc8a4d0616660b79740 -->
<g id="edge4" class="edge">
<title>dir_4db3a2f7aa3a8b9901e70dfeb2571af9&#45;&gt;dir_64a2fc46d0d41bc8a4d0616660b79740</title>
<path fill="none" stroke="#000000" d="M70.0703,-90C85.3058,-90 100.5413,-90 115.7768,-90"/>
<polygon fill="#000000" stroke="#000000" points="115.7887,-93.5001 125.7887,-90 115.7887,-86.5001 115.7887,-93.5001"/>
<g id="a_edge4&#45;headlabel"><a xlink:href="dir_000002_000005.html" target="_top" xlink:title="1">
<text text-anchor="middle" x="112.1941" y="-93.3393" font-family="Helvetica,sans-Serif" font-size="10.00" fill="#000000">1</text>
</a>
</g>
</g>
<!-- dir_203e5988f1ed315d29383d699972de6f&#45;&gt;dir_4db3a2f7aa3a8b9901e70dfeb2571af9 -->
<g id="edge1" class="edge">
<title>dir_203e5988f1ed315d29383d699972de6f&#45;&gt;dir_4db3a2f7aa3a8b9901e70dfeb2571af9</title>
<path fill="none" stroke="#000000" d="M89.9103,-36.4133C84.2898,-44.8239 76.7456,-54.9323 69.2991,-64.0923"/>
<polygon fill="#000000" stroke="#000000" points="66.5584,-61.9138 62.8312,-71.8314 71.9296,-66.4027 66.5584,-61.9138"/>
<g id="a_edge1&#45;headlabel"><a xlink:href="dir_000001_000002.html" target="_top" xlink:title="2">
<text text-anchor="middle" x="66.6849" y="-54.3348" font-family="Helvetica,sans-Serif" font-size="10.00" fill="#000000">2</text>
</a>
</g>
</g>
<!-- dir_b5231b0438093b9678c95afaec75ebe4&#45;&gt;dir_4db3a2f7aa3a8b9901e70dfeb2571af9 -->
<g id="edge6" class="edge">
<title>dir_b5231b0438093b9678c95afaec75ebe4&#45;&gt;dir_4db3a2f7aa3a8b9901e70dfeb2571af9</title>
<path fill="none" stroke="#000000" d="M105.4825,-143.821C101.2582,-140.6997 96.9223,-137.3708 93,-134 86.3978,-128.326 79.7471,-121.6808 73.469,-115.2989"/>
<polygon fill="#000000" stroke="#000000" points="75.8019,-112.6793 66.2954,-108.0019 70.8101,-117.5867 75.8019,-112.6793"/>
<g id="a_edge6&#45;headlabel"><a xlink:href="dir_000003_000002.html" target="_top" xlink:title="1">
<text text-anchor="middle" x="80.3466" y="-110.2522" font-family="Helvetica,sans-Serif" font-size="10.00" fill="#000000">1</text>
</a>
</g>
</g>
<!-- dir_b5231b0438093b9678c95afaec75ebe4&#45;&gt;dir_203e5988f1ed315d29383d699972de6f -->
<g id="edge5" class="edge">
<title>dir_b5231b0438093b9678c95afaec75ebe4&#45;&gt;dir_203e5988f1ed315d29383d699972de6f</title>
<path fill="none" stroke="#000000" d="M119.4433,-143.7031C118.5607,-140.4861 117.7071,-137.1574 117,-134 110.3477,-104.2971 104.9973,-69.8279 101.6899,-46.2297"/>
<polygon fill="#000000" stroke="#000000" points="105.142,-45.6406 100.3167,-36.2084 98.2068,-46.591 105.142,-45.6406"/>
<g id="a_edge5&#45;headlabel"><a xlink:href="dir_000003_000001.html" target="_top" xlink:title="3">
<text text-anchor="middle" x="108.4429" y="-45.8165" font-family="Helvetica,sans-Serif" font-size="10.00" fill="#000000">3</text>
</a>
</g>
</g>
<!-- dir_b5231b0438093b9678c95afaec75ebe4&#45;&gt;dir_64a2fc46d0d41bc8a4d0616660b79740 -->
<g id="edge7" class="edge">
<title>dir_b5231b0438093b9678c95afaec75ebe4&#45;&gt;dir_64a2fc46d0d41bc8a4d0616660b79740</title>
<path fill="none" stroke="#000000" d="M126.1132,-143.8314C128.4313,-135.8771 131.9188,-126.369 135.6946,-117.5723"/>
<polygon fill="#000000" stroke="#000000" points="138.9062,-118.9648 139.8633,-108.4133 132.5351,-116.065 138.9062,-118.9648"/>
<g id="a_edge7&#45;headlabel"><a xlink:href="dir_000003_000005.html" target="_top" xlink:title="1">
<text text-anchor="middle" x="140.0014" y="-120.4126" font-family="Helvetica,sans-Serif" font-size="10.00" fill="#000000">1</text>
</a>
</g>
</g>
<!-- dir_64a2fc46d0d41bc8a4d0616660b79740&#45;&gt;dir_4db3a2f7aa3a8b9901e70dfeb2571af9 -->
<g id="edge9" class="edge">
<title>dir_64a2fc46d0d41bc8a4d0616660b79740&#45;&gt;dir_4db3a2f7aa3a8b9901e70dfeb2571af9</title>
<path fill="none" stroke="#000000" d="M125.7887,-90C110.5532,-90 95.3177,-90 80.0822,-90"/>
<polygon fill="#000000" stroke="#000000" points="80.0703,-86.5001 70.0703,-90 80.0703,-93.5001 80.0703,-86.5001"/>
<g id="a_edge9&#45;headlabel"><a xlink:href="dir_000005_000002.html" target="_top" xlink:title="1">
<text text-anchor="middle" x="83.6649" y="-80.6607" font-family="Helvetica,sans-Serif" font-size="10.00" fill="#000000">1</text>
</a>
</g>
</g>
<!-- dir_64a2fc46d0d41bc8a4d0616660b79740&#45;&gt;dir_203e5988f1ed315d29383d699972de6f -->
<g id="edge8" class="edge">
<title>dir_64a2fc46d0d41bc8a4d0616660b79740&#45;&gt;dir_203e5988f1ed315d29383d699972de6f</title>
<path fill="none" stroke="#000000" d="M139.1212,-71.8314C132.7864,-63.5386 125.1616,-53.557 118.2074,-44.4533"/>
<polygon fill="#000000" stroke="#000000" points="120.9175,-42.2353 112.0657,-36.4133 115.3548,-46.4847 120.9175,-42.2353"/>
<g id="a_edge8&#45;headlabel"><a xlink:href="dir_000005_000001.html" target="_top" xlink:title="5">
<text text-anchor="middle" x="125.3558" y="-40.3683" font-family="Helvetica,sans-Serif" font-size="10.00" fill="#000000">5</text>
</a>
</g>
</g>
<!-- dir_64a2fc46d0d41bc8a4d0616660b79740&#45;&gt;dir_b5231b0438093b9678c95afaec75ebe4 -->
<g id="edge10" class="edge">
<title>dir_64a2fc46d0d41bc8a4d0616660b79740&#45;&gt;dir_b5231b0438093b9678c95afaec75ebe4</title>
<path fill="none" stroke="#000000" d="M151.8153,-108.4133C149.4733,-116.3991 145.971,-125.9155 142.1894,-134.6975"/>
<polygon fill="#000000" stroke="#000000" points="138.9886,-133.2811 138.018,-143.8314 145.356,-136.1891 138.9886,-133.2811"/>
<g id="a_edge10&#45;headlabel"><a xlink:href="dir_000005_000003.html" target="_top" xlink:title="1">
<text text-anchor="middle" x="137.8992" y="-125.8318" font-family="Helvetica,sans-Serif" font-size="10.00" fill="#000000">1</text>
</a>
</g>
</g>
</g>
</svg>
