<?xml version="1.0" encoding="UTF-8" standalone="no"?>
<!DOCTYPE svg PUBLIC "-//W3C//DTD SVG 1.1//EN"
 "http://www.w3.org/Graphics/SVG/1.1/DTD/svg11.dtd">
<!-- Generated by graphviz version 2.40.1 (20161225.0304)
 -->
<!-- Title: src Pages: 1 -->
<svg width="166pt" height="364pt"
 viewBox="0.00 0.00 166.00 364.00" xmlns="http://www.w3.org/2000/svg" xmlns:xlink="http://www.w3.org/1999/xlink">
<g id="graph0" class="graph" transform="scale(1 1) rotate(0) translate(4 360)">
<title>src</title>
<polygon fill="#ffffff" stroke="transparent" points="-4,4 -4,-360 162,-360 162,4 -4,4"/>
<g id="clust1" class="cluster">
<title>clusterdir_68267d1309a1af8e8297ef4c3efbcdba</title>
<g id="a_clust1"><a xlink:href="dir_68267d1309a1af8e8297ef4c3efbcdba.html" target="_top">
<polygon fill="#eeeeff" stroke="#000000" points="8,-8 8,-348 150,-348 150,-8 8,-8"/>
</a>
</g>
</g>
<!-- dir_68267d1309a1af8e8297ef4c3efbcdba -->
<g id="node1" class="node">
<title>dir_68267d1309a1af8e8297ef4c3efbcdba</title>
<text text-anchor="middle" x="115" y="-319" font-family="Helvetica,sans-Serif" font-size="10.00" fill="#000000">src</text>
</g>
<!-- dir_203e5988f1ed315d29383d699972de6f -->
<g id="node2" class="node">
<title>dir_203e5988f1ed315d29383d699972de6f</title>
<g id="a_node2"><a xlink:href="dir_203e5988f1ed315d29383d699972de6f.html" target="_top" xlink:title="ast">
<polygon fill="#ffffff" stroke="#000000" points="70,-340 16,-340 16,-304 70,-304 70,-340"/>
<text text-anchor="middle" x="43" y="-319" font-family="Helvetica,sans-Serif" font-size="10.00" fill="#000000">ast</text>
</a>
</g>
</g>
<!-- dir_4db3a2f7aa3a8b9901e70dfeb2571af9 -->
<g id="node3" class="node">
<title>dir_4db3a2f7aa3a8b9901e70dfeb2571af9</title>
<g id="a_node3"><a xlink:href="dir_4db3a2f7aa3a8b9901e70dfeb2571af9.html" target="_top" xlink:title="driver">
<polygon fill="#ffffff" stroke="#000000" points="70,-196 16,-196 16,-160 70,-160 70,-196"/>
<text text-anchor="middle" x="43" y="-175" font-family="Helvetica,sans-Serif" font-size="10.00" fill="#000000">driver</text>
</a>
</g>
</g>
<!-- dir_203e5988f1ed315d29383d699972de6f&#45;&gt;dir_4db3a2f7aa3a8b9901e70dfeb2571af9 -->
<g id="edge1" class="edge">
<title>dir_203e5988f1ed315d29383d699972de6f&#45;&gt;dir_4db3a2f7aa3a8b9901e70dfeb2571af9</title>
<path fill="none" stroke="#000000" d="M29.5285,-303.7012C25.6035,-293.3353 22.4319,-280.0653 21,-268 19.1144,-252.1115 19.1144,-247.8885 21,-232 22.018,-223.4223 23.9152,-214.2358 26.3374,-205.9167"/>
<polygon fill="#000000" stroke="#000000" points="29.7013,-206.8922 29.5285,-196.2988 23.0575,-204.6879 29.7013,-206.8922"/>
<g id="a_edge1&#45;headlabel"><a xlink:href="dir_000001_000002.html" target="_top" xlink:title="2">
<text text-anchor="middle" x="31.2643" y="-208.198" font-family="Helvetica,sans-Serif" font-size="10.00" fill="#000000">2</text>
</a>
</g>
</g>
<!-- dir_6cd8491d143eb218b70983dbdb3c58bc -->
<g id="node5" class="node">
<title>dir_6cd8491d143eb218b70983dbdb3c58bc</title>
<g id="a_node5"><a xlink:href="dir_6cd8491d143eb218b70983dbdb3c58bc.html" target="_top" xlink:title="parser">
<polygon fill="#ffffff" stroke="#000000" points="93,-268 39,-268 39,-232 93,-232 93,-268"/>
<text text-anchor="middle" x="66" y="-247" font-family="Helvetica,sans-Serif" font-size="10.00" fill="#000000">parser</text>
</a>
</g>
</g>
<!-- dir_203e5988f1ed315d29383d699972de6f&#45;&gt;dir_6cd8491d143eb218b70983dbdb3c58bc -->
<g id="edge2" class="edge">
<title>dir_203e5988f1ed315d29383d699972de6f&#45;&gt;dir_6cd8491d143eb218b70983dbdb3c58bc</title>
<path fill="none" stroke="#000000" d="M48.8039,-303.8314C51.2908,-296.0463 54.2531,-286.7729 57.0125,-278.1347"/>
<polygon fill="#000000" stroke="#000000" points="60.409,-279.0041 60.118,-268.4133 53.7409,-276.874 60.409,-279.0041"/>
<g id="a_edge2&#45;headlabel"><a xlink:href="dir_000001_000004.html" target="_top" xlink:title="1">
<text text-anchor="middle" x="62.0199" y="-280.2922" font-family="Helvetica,sans-Serif" font-size="10.00" fill="#000000">1</text>
</a>
</g>
</g>
<!-- dir_4db3a2f7aa3a8b9901e70dfeb2571af9&#45;&gt;dir_203e5988f1ed315d29383d699972de6f -->
<g id="edge3" class="edge">
<title>dir_4db3a2f7aa3a8b9901e70dfeb2571af9&#45;&gt;dir_203e5988f1ed315d29383d699972de6f</title>
<path fill="none" stroke="#000000" d="M45.3823,-196.2988C43.6035,-206.6647 40.4319,-219.9347 39,-232 37.1144,-247.8885 37.1144,-252.1115 39,-268 40.0068,-276.4834 41.8736,-285.5624 43.5117,-293.8087"/>
<polygon fill="#000000" stroke="#000000" points="40.0852,-294.5257 45.3823,-303.7012 46.9633,-293.225 40.0852,-294.5257"/>
<g id="a_edge3&#45;headlabel"><a xlink:href="dir_000002_000001.html" target="_top" xlink:title="3">
<text text-anchor="middle" x="36.6276" y="-288.5211" font-family="Helvetica,sans-Serif" font-size="10.00" fill="#000000">3</text>
</a>
</g>
</g>
<!-- dir_b5231b0438093b9678c95afaec75ebe4 -->
<g id="node4" class="node">
<title>dir_b5231b0438093b9678c95afaec75ebe4</title>
<g id="a_node4"><a xlink:href="dir_b5231b0438093b9678c95afaec75ebe4.html" target="_top" xlink:title="irgen">
<polygon fill="#ffffff" stroke="#000000" points="114,-52 60,-52 60,-16 114,-16 114,-52"/>
<text text-anchor="middle" x="87" y="-31" font-family="Helvetica,sans-Serif" font-size="10.00" fill="#000000">irgen</text>
</a>
</g>
</g>
<!-- dir_4db3a2f7aa3a8b9901e70dfeb2571af9&#45;&gt;dir_b5231b0438093b9678c95afaec75ebe4 -->
<g id="edge4" class="edge">
<title>dir_4db3a2f7aa3a8b9901e70dfeb2571af9&#45;&gt;dir_b5231b0438093b9678c95afaec75ebe4</title>
<path fill="none" stroke="#000000" d="M35.263,-159.8591C32.6144,-141.2787 33.6174,-111.8237 42,-88 45.4219,-78.2748 50.9967,-68.6031 57.1592,-60.189"/>
<polygon fill="#000000" stroke="#000000" points="59.9917,-62.25 63.4596,-52.2388 54.5055,-57.9023 59.9917,-62.25"/>
<g id="a_edge4&#45;headlabel"><a xlink:href="dir_000002_000003.html" target="_top" xlink:title="1">
<text text-anchor="middle" x="59.9844" y="-63.8306" font-family="Helvetica,sans-Serif" font-size="10.00" fill="#000000">1</text>
</a>
</g>
</g>
<!-- dir_64a2fc46d0d41bc8a4d0616660b79740 -->
<g id="node6" class="node">
<title>dir_64a2fc46d0d41bc8a4d0616660b79740</title>
<g id="a_node6"><a xlink:href="dir_64a2fc46d0d41bc8a4d0616660b79740.html" target="_top" xlink:title="sema">
<polygon fill="#ffffff" stroke="#000000" points="114,-124 60,-124 60,-88 114,-88 114,-124"/>
<text text-anchor="middle" x="87" y="-103" font-family="Helvetica,sans-Serif" font-size="10.00" fill="#000000">sema</text>
</a>
</g>
</g>
<!-- dir_4db3a2f7aa3a8b9901e70dfeb2571af9&#45;&gt;dir_64a2fc46d0d41bc8a4d0616660b79740 -->
<g id="edge5" class="edge">
<title>dir_4db3a2f7aa3a8b9901e70dfeb2571af9&#45;&gt;dir_64a2fc46d0d41bc8a4d0616660b79740</title>
<path fill="none" stroke="#000000" d="M48.1507,-159.8314C52.3668,-151.6232 58.1958,-141.7606 64.1165,-132.7323"/>
<polygon fill="#000000" stroke="#000000" points="67.0442,-134.6511 69.7714,-124.4133 61.2551,-130.7158 67.0442,-134.6511"/>
<g id="a_edge5&#45;headlabel"><a xlink:href="dir_000002_000005.html" target="_top" xlink:title="1">
<text text-anchor="middle" x="67.3716" y="-136.22" font-family="Helvetica,sans-Serif" font-size="10.00" fill="#000000">1</text>
</a>
</g>
</g>
<!-- dir_b5231b0438093b9678c95afaec75ebe4&#45;&gt;dir_203e5988f1ed315d29383d699972de6f -->
<g id="edge7" class="edge">
<title>dir_b5231b0438093b9678c95afaec75ebe4&#45;&gt;dir_203e5988f1ed315d29383d699972de6f</title>
<path fill="none" stroke="#000000" d="M102.9905,-52.0831C110.6538,-61.9629 119.0166,-74.8437 123,-88 146.2342,-164.7373 148.8324,-197.3095 111,-268 103.6021,-281.8231 90.9924,-293.327 78.6263,-302.1148"/>
<polygon fill="#000000" stroke="#000000" points="76.5445,-299.2962 70.1712,-307.7598 80.4314,-305.118 76.5445,-299.2962"/>
<g id="a_edge7&#45;headlabel"><a xlink:href="dir_000003_000001.html" target="_top" xlink:title="3">
<text text-anchor="middle" x="77.9575" y="-291.939" font-family="Helvetica,sans-Serif" font-size="10.00" fill="#000000">3</text>
</a>
</g>
</g>
<!-- dir_b5231b0438093b9678c95afaec75ebe4&#45;&gt;dir_4db3a2f7aa3a8b9901e70dfeb2571af9 -->
<g id="edge8" class="edge">
<title>dir_b5231b0438093b9678c95afaec75ebe4&#45;&gt;dir_4db3a2f7aa3a8b9901e70dfeb2571af9</title>
<path fill="none" stroke="#000000" d="M79.5114,-52.2388C72.9524,-62.1612 64.5625,-75.0331 60,-88 53.0254,-107.8221 51.1595,-131.5426 49.6761,-149.6541"/>
<polygon fill="#000000" stroke="#000000" points="46.1683,-149.5927 48.7856,-159.8591 53.1418,-150.2013 46.1683,-149.5927"/>
<g id="a_edge8&#45;headlabel"><a xlink:href="dir_000003_000002.html" target="_top" xlink:title="1">
<text text-anchor="middle" x="43.6521" y="-142.7649" font-family="Helvetica,sans-Serif" font-size="10.00" fill="#000000">1</text>
</a>
</g>
</g>
<!-- dir_b5231b0438093b9678c95afaec75ebe4&#45;&gt;dir_64a2fc46d0d41bc8a4d0616660b79740 -->
<g id="edge9" class="edge">
<title>dir_b5231b0438093b9678c95afaec75ebe4&#45;&gt;dir_64a2fc46d0d41bc8a4d0616660b79740</title>
<path fill="none" stroke="#000000" d="M92.976,-52.4133C93.7071,-60.0593 93.9203,-69.1084 93.6155,-77.5726"/>
<polygon fill="#000000" stroke="#000000" points="90.1048,-77.6264 92.9524,-87.8314 97.0902,-78.078 90.1048,-77.6264"/>
<g id="a_edge9&#45;headlabel"><a xlink:href="dir_000003_000005.html" target="_top" xlink:title="1">
<text text-anchor="middle" x="87.5032" y="-70.8562" font-family="Helvetica,sans-Serif" font-size="10.00" fill="#000000">1</text>
</a>
</g>
</g>
<!-- dir_6cd8491d143eb218b70983dbdb3c58bc&#45;&gt;dir_4db3a2f7aa3a8b9901e70dfeb2571af9 -->
<g id="edge6" class="edge">
<title>dir_6cd8491d143eb218b70983dbdb3c58bc&#45;&gt;dir_4db3a2f7aa3a8b9901e70dfeb2571af9</title>
<path fill="none" stroke="#000000" d="M60.1961,-231.8314C57.7092,-224.0463 54.7469,-214.7729 51.9875,-206.1347"/>
<polygon fill="#000000" stroke="#000000" points="55.2591,-204.874 48.882,-196.4133 48.591,-207.0041 55.2591,-204.874"/>
<g id="a_edge6&#45;headlabel"><a xlink:href="dir_000004_000002.html" target="_top" xlink:title="1">
<text text-anchor="middle" x="59.0574" y="-204.4342" font-family="Helvetica,sans-Serif" font-size="10.00" fill="#000000">1</text>
</a>
</g>
</g>
<!-- dir_64a2fc46d0d41bc8a4d0616660b79740&#45;&gt;dir_203e5988f1ed315d29383d699972de6f -->
<g id="edge10" class="edge">
<title>dir_64a2fc46d0d41bc8a4d0616660b79740&#45;&gt;dir_203e5988f1ed315d29383d699972de6f</title>
<path fill="none" stroke="#000000" d="M94.2317,-124.1787C105.3756,-155.1582 123.3436,-219.5314 102,-268 96.8411,-279.7152 87.7467,-289.9955 78.2203,-298.3552"/>
<polygon fill="#000000" stroke="#000000" points="75.7219,-295.8769 70.1934,-304.9149 80.1514,-301.2971 75.7219,-295.8769"/>
<g id="a_edge10&#45;headlabel"><a xlink:href="dir_000005_000001.html" target="_top" xlink:title="5">
<text text-anchor="middle" x="76.7086" y="-288.4037" font-family="Helvetica,sans-Serif" font-size="10.00" fill="#000000">5</text>
</a>
</g>
</g>
<!-- dir_64a2fc46d0d41bc8a4d0616660b79740&#45;&gt;dir_4db3a2f7aa3a8b9901e70dfeb2571af9 -->
<g id="edge11" class="edge">
<title>dir_64a2fc46d0d41bc8a4d0616660b79740&#45;&gt;dir_4db3a2f7aa3a8b9901e70dfeb2571af9</title>
<path fill="none" stroke="#000000" d="M81.7235,-124.4133C77.4755,-132.654 71.6298,-142.5245 65.7074,-151.536"/>
<polygon fill="#000000" stroke="#000000" points="62.7937,-149.5965 60.0555,-159.8314 68.5786,-153.538 62.7937,-149.5965"/>
<g id="a_edge11&#45;headlabel"><a xlink:href="dir_000005_000002.html" target="_top" xlink:title="1">
<text text-anchor="middle" x="62.4713" y="-142.0272" font-family="Helvetica,sans-Serif" font-size="10.00" fill="#000000">1</text>
</a>
</g>
</g>
<!-- dir_64a2fc46d0d41bc8a4d0616660b79740&#45;&gt;dir_b5231b0438093b9678c95afaec75ebe4 -->
<g id="edge12" class="edge">
<title>dir_64a2fc46d0d41bc8a4d0616660b79740&#45;&gt;dir_b5231b0438093b9678c95afaec75ebe4</title>
<path fill="none" stroke="#000000" d="M81.0476,-87.8314C80.2972,-80.131 80.0763,-70.9743 80.3849,-62.4166"/>
<polygon fill="#000000" stroke="#000000" points="83.8792,-62.6161 81.024,-52.4133 76.8935,-62.1697 83.8792,-62.6161"/>
<g id="a_edge12&#45;headlabel"><a xlink:href="dir_000005_000003.html" target="_top" xlink:title="1">
<text text-anchor="middle" x="86.4836" y="-63.3844" font-family="Helvetica,sans-Serif" font-size="10.00" fill="#000000">1</text>
</a>
</g>
</g>
</g>
</svg>
