<?xml version="1.0" encoding="UTF-8" standalone="no"?>
<!DOCTYPE svg PUBLIC "-//W3C//DTD SVG 1.1//EN"
 "http://www.w3.org/Graphics/SVG/1.1/DTD/svg11.dtd">
<!-- Generated by graphviz version 2.40.1 (20161225.0304)
 -->
<!-- Title: src/ast/expr.h Pages: 1 -->
<svg width="628pt" height="137pt"
 viewBox="0.00 0.00 628.11 137.00" xmlns="http://www.w3.org/2000/svg" xmlns:xlink="http://www.w3.org/1999/xlink">
<g id="graph0" class="graph" transform="scale(1 1) rotate(0) translate(4 133)">
<title>src/ast/expr.h</title>
<polygon fill="#ffffff" stroke="transparent" points="-4,4 -4,-133 624.1133,-133 624.1133,4 -4,4"/>
<!-- Node0 -->
<g id="node1" class="node">
<title>Node0</title>
<polygon fill="#bfbfbf" stroke="#000000" points="168.4902,-110.5 168.4902,-128.5 243.9629,-128.5 243.9629,-110.5 168.4902,-110.5"/>
<text text-anchor="middle" x="206.2266" y="-116.5" font-family="Helvetica,sans-Serif" font-size="10.00" fill="#000000">src/ast/expr.h</text>
</g>
<!-- Node1 -->
<g id="node2" class="node">
<title>Node1</title>
<polygon fill="#ffffff" stroke="#bfbfbf" points="0,-.5 0,-18.5 40.4531,-18.5 40.4531,-.5 0,-.5"/>
<text text-anchor="middle" x="20.2266" y="-6.5" font-family="Helvetica,sans-Serif" font-size="10.00" fill="#000000">string</text>
</g>
<!-- Node0&#45;&gt;Node1 -->
<g id="edge1" class="edge">
<title>Node0&#45;&gt;Node1</title>
<path fill="none" stroke="#191970" d="M187.3788,-110.4699C169.3479,-101.6647 141.5295,-87.6424 118.2266,-74 91.2162,-58.1871 61.3223,-38.1183 41.7385,-24.6001"/>
<polygon fill="#191970" stroke="#191970" points="43.4721,-21.5428 33.2621,-18.7133 39.4791,-27.2923 43.4721,-21.5428"/>
</g>
<!-- Node2 -->
<g id="node3" class="node">
<title>Node2</title>
<polygon fill="#ffffff" stroke="#bfbfbf" points="213.1699,-55.5 213.1699,-73.5 265.2832,-73.5 265.2832,-55.5 213.1699,-55.5"/>
<text text-anchor="middle" x="239.2266" y="-61.5" font-family="Helvetica,sans-Serif" font-size="10.00" fill="#000000">memory</text>
</g>
<!-- Node0&#45;&gt;Node2 -->
<g id="edge2" class="edge">
<title>Node0&#45;&gt;Node2</title>
<path fill="none" stroke="#191970" d="M211.6758,-110.4179C216.2342,-102.8207 222.875,-91.7527 228.4946,-82.3866"/>
<polygon fill="#191970" stroke="#191970" points="231.5151,-84.1552 233.6589,-73.7795 225.5127,-80.5536 231.5151,-84.1552"/>
</g>
<!-- Node3 -->
<g id="node4" class="node">
<title>Node3</title>
<polygon fill="#ffffff" stroke="#bfbfbf" points="58.6108,-.5 58.6108,-18.5 101.8423,-18.5 101.8423,-.5 58.6108,-.5"/>
<text text-anchor="middle" x="80.2266" y="-6.5" font-family="Helvetica,sans-Serif" font-size="10.00" fill="#000000">vector</text>
</g>
<!-- Node0&#45;&gt;Node3 -->
<g id="edge3" class="edge">
<title>Node0&#45;&gt;Node3</title>
<path fill="none" stroke="#191970" d="M191.9319,-110.4534C178.5752,-101.7462 158.3328,-87.8884 142.2266,-74 124.8872,-59.0482 106.9598,-39.9299 94.8704,-26.4007"/>
<polygon fill="#191970" stroke="#191970" points="97.3945,-23.9711 88.155,-18.7862 92.1445,-28.6013 97.3945,-23.9711"/>
</g>
<!-- Node4 -->
<g id="node5" class="node">
<title>Node4</title>
<g id="a_node5"><a xlink:href="type_8h.html" target="_top" xlink:title="type.h">
<polygon fill="#ffffff" stroke="#000000" points="151.606,-55.5 151.606,-73.5 194.8472,-73.5 194.8472,-55.5 151.606,-55.5"/>
<text text-anchor="middle" x="173.2266" y="-61.5" font-family="Helvetica,sans-Serif" font-size="10.00" fill="#000000">type.h</text>
</a>
</g>
</g>
<!-- Node0&#45;&gt;Node4 -->
<g id="edge4" class="edge">
<title>Node0&#45;&gt;Node4</title>
<path fill="none" stroke="#191970" d="M200.7773,-110.4179C196.219,-102.8207 189.5782,-91.7527 183.9585,-82.3866"/>
<polygon fill="#191970" stroke="#191970" points="186.9405,-80.5536 178.7942,-73.7795 180.938,-84.1552 186.9405,-80.5536"/>
</g>
<!-- Node9 -->
<g id="node10" class="node">
<title>Node9</title>
<g id="a_node10"><a xlink:href="srcloc_8h.html" target="_top" xlink:title="srcloc.h">
<polygon fill="#ffffff" stroke="#000000" points="283,-55.5 283,-73.5 333.4531,-73.5 333.4531,-55.5 283,-55.5"/>
<text text-anchor="middle" x="308.2266" y="-61.5" font-family="Helvetica,sans-Serif" font-size="10.00" fill="#000000">srcloc.h</text>
</a>
</g>
</g>
<!-- Node0&#45;&gt;Node9 -->
<g id="edge11" class="edge">
<title>Node0&#45;&gt;Node9</title>
<path fill="none" stroke="#191970" d="M223.0698,-110.4179C239.2373,-101.7001 263.8803,-88.4122 282.5042,-78.3699"/>
<polygon fill="#191970" stroke="#191970" points="284.2175,-81.4225 291.3583,-73.5956 280.8952,-75.2611 284.2175,-81.4225"/>
</g>
<!-- Node11 -->
<g id="node12" class="node">
<title>Node11</title>
<g id="a_node12"><a xlink:href="operators_8h.html" target="_top" xlink:title="../parser/operators.h">
<polygon fill="#ffffff" stroke="#000000" points="351.2046,-55.5 351.2046,-73.5 457.2485,-73.5 457.2485,-55.5 351.2046,-55.5"/>
<text text-anchor="middle" x="404.2266" y="-61.5" font-family="Helvetica,sans-Serif" font-size="10.00" fill="#000000">../parser/operators.h</text>
</a>
</g>
</g>
<!-- Node0&#45;&gt;Node11 -->
<g id="edge13" class="edge">
<title>Node0&#45;&gt;Node11</title>
<path fill="none" stroke="#191970" d="M238.9222,-110.4179C272.5561,-101.0751 325.0863,-86.4834 361.8798,-76.263"/>
<polygon fill="#191970" stroke="#191970" points="363.113,-79.553 371.8114,-73.5042 361.2394,-72.8084 363.113,-79.553"/>
</g>
<!-- Node4&#45;&gt;Node1 -->
<g id="edge6" class="edge">
<title>Node4&#45;&gt;Node1</title>
<path fill="none" stroke="#191970" d="M151.3054,-56.6198C124.7287,-47.0661 79.8141,-30.9204 50.0898,-20.2352"/>
<polygon fill="#191970" stroke="#191970" points="51.2346,-16.9275 40.6402,-16.8382 48.8666,-23.5148 51.2346,-16.9275"/>
</g>
<!-- Node4&#45;&gt;Node3 -->
<g id="edge5" class="edge">
<title>Node4&#45;&gt;Node3</title>
<path fill="none" stroke="#191970" d="M157.8695,-55.4179C143.3305,-46.8195 121.274,-33.7754 104.3802,-23.7844"/>
<polygon fill="#191970" stroke="#191970" points="105.9955,-20.6735 95.6064,-18.5956 102.4322,-26.6987 105.9955,-20.6735"/>
</g>
<!-- Node5 -->
<g id="node6" class="node">
<title>Node5</title>
<polygon fill="#ffffff" stroke="#bfbfbf" points="506.165,-.5 506.165,-18.5 558.2881,-18.5 558.2881,-.5 506.165,-.5"/>
<text text-anchor="middle" x="532.2266" y="-6.5" font-family="Helvetica,sans-Serif" font-size="10.00" fill="#000000">ostream</text>
</g>
<!-- Node4&#45;&gt;Node5 -->
<g id="edge7" class="edge">
<title>Node4&#45;&gt;Node5</title>
<path fill="none" stroke="#191970" d="M195.1173,-57.2723C198.1555,-56.4218 201.2536,-55.6331 204.2266,-55 329.4179,-28.3413 366.6681,-43.4653 496.0583,-18.9789"/>
<polygon fill="#191970" stroke="#191970" points="496.7954,-22.4013 505.9482,-17.0649 495.4653,-15.5288 496.7954,-22.4013"/>
</g>
<!-- Node6 -->
<g id="node7" class="node">
<title>Node6</title>
<polygon fill="#ffffff" stroke="#bfbfbf" points="119.665,-.5 119.665,-18.5 226.7881,-18.5 226.7881,-.5 119.665,-.5"/>
<text text-anchor="middle" x="173.2266" y="-6.5" font-family="Helvetica,sans-Serif" font-size="10.00" fill="#000000">llvm/ADT/ArrayRef.h</text>
</g>
<!-- Node4&#45;&gt;Node6 -->
<g id="edge8" class="edge">
<title>Node4&#45;&gt;Node6</title>
<path fill="none" stroke="#191970" d="M173.2266,-55.4179C173.2266,-48.2164 173.2266,-37.8962 173.2266,-28.8632"/>
<polygon fill="#191970" stroke="#191970" points="176.7267,-28.7794 173.2266,-18.7795 169.7267,-28.7795 176.7267,-28.7794"/>
</g>
<!-- Node7 -->
<g id="node8" class="node">
<title>Node7</title>
<polygon fill="#ffffff" stroke="#bfbfbf" points="244.5493,-.5 244.5493,-18.5 353.9038,-18.5 353.9038,-.5 244.5493,-.5"/>
<text text-anchor="middle" x="299.2266" y="-6.5" font-family="Helvetica,sans-Serif" font-size="10.00" fill="#000000">llvm/ADT/StringRef.h</text>
</g>
<!-- Node4&#45;&gt;Node7 -->
<g id="edge9" class="edge">
<title>Node4&#45;&gt;Node7</title>
<path fill="none" stroke="#191970" d="M194.0329,-55.4179C214.4605,-46.5011 245.8414,-32.803 269.0158,-22.6873"/>
<polygon fill="#191970" stroke="#191970" points="270.6246,-25.804 278.3893,-18.5956 267.8242,-19.3885 270.6246,-25.804"/>
</g>
<!-- Node8 -->
<g id="node9" class="node">
<title>Node8</title>
<polygon fill="#ffffff" stroke="#bfbfbf" points="371.9263,-.5 371.9263,-18.5 488.5269,-18.5 488.5269,-.5 371.9263,-.5"/>
<text text-anchor="middle" x="430.2266" y="-6.5" font-family="Helvetica,sans-Serif" font-size="10.00" fill="#000000">llvm/Support/Casting.h</text>
</g>
<!-- Node4&#45;&gt;Node8 -->
<g id="edge10" class="edge">
<title>Node4&#45;&gt;Node8</title>
<path fill="none" stroke="#191970" d="M195.1666,-57.4835C198.1971,-56.6003 201.2799,-55.7462 204.2266,-55 259.054,-41.1159 322.2153,-28.6958 367.8036,-20.354"/>
<polygon fill="#191970" stroke="#191970" points="368.6207,-23.7629 377.8344,-18.5324 367.37,-16.8756 368.6207,-23.7629"/>
</g>
<!-- Node10 -->
<g id="node11" class="node">
<title>Node10</title>
<polygon fill="#ffffff" stroke="#bfbfbf" points="576.3398,-.5 576.3398,-18.5 620.1133,-18.5 620.1133,-.5 576.3398,-.5"/>
<text text-anchor="middle" x="598.2266" y="-6.5" font-family="Helvetica,sans-Serif" font-size="10.00" fill="#000000">climits</text>
</g>
<!-- Node9&#45;&gt;Node10 -->
<g id="edge12" class="edge">
<title>Node9&#45;&gt;Node10</title>
<path fill="none" stroke="#191970" d="M333.7681,-57.0273C336.6105,-56.2961 339.4725,-55.603 342.2266,-55 438.0632,-34.0155 466.7921,-41.3864 566.4436,-18.8983"/>
<polygon fill="#191970" stroke="#191970" points="567.3531,-22.2806 576.3134,-16.6269 565.7831,-15.4589 567.3531,-22.2806"/>
</g>
</g>
</svg>
