<?xml version="1.0" encoding="UTF-8" standalone="no"?>
<!DOCTYPE svg PUBLIC "-//W3C//DTD SVG 1.1//EN"
 "http://www.w3.org/Graphics/SVG/1.1/DTD/svg11.dtd">
<!-- Generated by graphviz version 2.40.1 (20161225.0304)
 -->
<!-- Title: src/ast/expr.h Pages: 1 -->
<svg width="965pt" height="192pt"
 viewBox="0.00 0.00 964.55 192.00" xmlns="http://www.w3.org/2000/svg" xmlns:xlink="http://www.w3.org/1999/xlink">
<g id="graph0" class="graph" transform="scale(1 1) rotate(0) translate(4 188)">
<title>src/ast/expr.h</title>
<polygon fill="#ffffff" stroke="transparent" points="-4,4 -4,-188 960.5464,-188 960.5464,4 -4,4"/>
<!-- Node12 -->
<g id="node1" class="node">
<title>Node12</title>
<polygon fill="#bfbfbf" stroke="#000000" points="618.1772,-165.5 618.1772,-183.5 693.6499,-183.5 693.6499,-165.5 618.1772,-165.5"/>
<text text-anchor="middle" x="655.9136" y="-171.5" font-family="Helvetica,sans-Serif" font-size="10.00" fill="#000000">src/ast/expr.h</text>
</g>
<!-- Node13 -->
<g id="node2" class="node">
<title>Node13</title>
<g id="a_node2"><a xlink:href="decl_8h.html" target="_top" xlink:title="src/ast/decl.h">
<polygon fill="#ffffff" stroke="#000000" points="503.458,-55.5 503.458,-73.5 578.3691,-73.5 578.3691,-55.5 503.458,-55.5"/>
<text text-anchor="middle" x="540.9136" y="-61.5" font-family="Helvetica,sans-Serif" font-size="10.00" fill="#000000">src/ast/decl.h</text>
</a>
</g>
</g>
<!-- Node12&#45;&gt;Node13 -->
<g id="edge1" class="edge">
<title>Node12&#45;&gt;Node13</title>
<path fill="none" stroke="#191970" d="M639.0311,-158.3515C614.5351,-134.9206 569.9412,-92.2656 550.4545,-73.6261"/>
<polygon fill="#191970" stroke="#191970" points="636.8569,-161.1152 646.5026,-165.4982 641.6955,-156.0567 636.8569,-161.1152"/>
</g>
<!-- Node16 -->
<g id="node5" class="node">
<title>Node16</title>
<g id="a_node5"><a xlink:href="expr_8cpp.html" target="_top" xlink:title="src/ast/expr.cpp">
<polygon fill="#ffffff" stroke="#000000" points="612.8965,-.5 612.8965,-18.5 698.9307,-18.5 698.9307,-.5 612.8965,-.5"/>
<text text-anchor="middle" x="655.9136" y="-6.5" font-family="Helvetica,sans-Serif" font-size="10.00" fill="#000000">src/ast/expr.cpp</text>
</a>
</g>
</g>
<!-- Node12&#45;&gt;Node16 -->
<g id="edge13" class="edge">
<title>Node12&#45;&gt;Node16</title>
<path fill="none" stroke="#191970" d="M655.9136,-155.0583C655.9136,-119.4028 655.9136,-44.8205 655.9136,-18.7414"/>
<polygon fill="#191970" stroke="#191970" points="652.4137,-155.1561 655.9136,-165.1561 659.4137,-155.1562 652.4137,-155.1561"/>
</g>
<!-- Node18 -->
<g id="node7" class="node">
<title>Node18</title>
<g id="a_node7"><a xlink:href="irgen_8cpp.html" target="_top" xlink:title="src/irgen/irgen.cpp">
<polygon fill="#ffffff" stroke="#000000" points="716.7832,-.5 716.7832,-18.5 815.0439,-18.5 815.0439,-.5 716.7832,-.5"/>
<text text-anchor="middle" x="765.9136" y="-6.5" font-family="Helvetica,sans-Serif" font-size="10.00" fill="#000000">src/irgen/irgen.cpp</text>
</a>
</g>
</g>
<!-- Node12&#45;&gt;Node18 -->
<g id="edge14" class="edge">
<title>Node12&#45;&gt;Node18</title>
<path fill="none" stroke="#191970" d="M667.9618,-156.4276C691.3481,-121.3482 742.1408,-45.1592 759.7526,-18.7414"/>
<polygon fill="#191970" stroke="#191970" points="664.7777,-154.8941 662.1428,-165.1561 670.602,-158.7771 664.7777,-154.8941"/>
</g>
<!-- Node21 -->
<g id="node10" class="node">
<title>Node21</title>
<g id="a_node10"><a xlink:href="typecheck_8cpp.html" target="_top" xlink:title="src/sema/typecheck.cpp">
<polygon fill="#ffffff" stroke="#000000" points="833.2808,-.5 833.2808,-18.5 956.5464,-18.5 956.5464,-.5 833.2808,-.5"/>
<text text-anchor="middle" x="894.9136" y="-6.5" font-family="Helvetica,sans-Serif" font-size="10.00" fill="#000000">src/sema/typecheck.cpp</text>
</a>
</g>
</g>
<!-- Node12&#45;&gt;Node21 -->
<g id="edge15" class="edge">
<title>Node12&#45;&gt;Node21</title>
<path fill="none" stroke="#191970" d="M677.6156,-159.5174C726.2077,-125.9706 842.5619,-45.6423 881.7642,-18.578"/>
<polygon fill="#191970" stroke="#191970" points="675.3446,-156.8322 669.1037,-165.3939 679.3215,-162.5927 675.3446,-156.8322"/>
</g>
<!-- Node22 -->
<g id="node11" class="node">
<title>Node22</title>
<g id="a_node11"><a xlink:href="stmt_8h.html" target="_top" xlink:title="src/ast/stmt.h">
<polygon fill="#ffffff" stroke="#000000" points="503.187,-110.5 503.187,-128.5 578.6401,-128.5 578.6401,-110.5 503.187,-110.5"/>
<text text-anchor="middle" x="540.9136" y="-116.5" font-family="Helvetica,sans-Serif" font-size="10.00" fill="#000000">src/ast/stmt.h</text>
</a>
</g>
</g>
<!-- Node12&#45;&gt;Node22 -->
<g id="edge10" class="edge">
<title>Node12&#45;&gt;Node22</title>
<path fill="none" stroke="#191970" d="M627.8041,-161.0563C606.7179,-150.9716 578.4194,-137.4376 559.9317,-128.5956"/>
<polygon fill="#191970" stroke="#191970" points="626.3922,-164.2607 636.9237,-165.4179 629.4124,-157.9458 626.3922,-164.2607"/>
</g>
<!-- Node14 -->
<g id="node3" class="node">
<title>Node14</title>
<g id="a_node3"><a xlink:href="ast__printer_8cpp.html" target="_top" xlink:title="src/ast/ast_printer.cpp">
<polygon fill="#ffffff" stroke="#000000" points="0,-.5 0,-18.5 113.8271,-18.5 113.8271,-.5 0,-.5"/>
<text text-anchor="middle" x="56.9136" y="-6.5" font-family="Helvetica,sans-Serif" font-size="10.00" fill="#000000">src/ast/ast_printer.cpp</text>
</a>
</g>
</g>
<!-- Node13&#45;&gt;Node14 -->
<g id="edge2" class="edge">
<title>Node13&#45;&gt;Node14</title>
<path fill="none" stroke="#191970" d="M492.9657,-59.8244C415.1943,-52.1184 256.7554,-35.9119 122.9136,-19 120.0423,-18.6372 117.1024,-18.2546 114.1346,-17.8597"/>
<polygon fill="#191970" stroke="#191970" points="493.0975,-63.3544 503.3932,-60.8545 493.7858,-56.3883 493.0975,-63.3544"/>
</g>
<!-- Node15 -->
<g id="node4" class="node">
<title>Node15</title>
<g id="a_node4"><a xlink:href="decl_8cpp.html" target="_top" xlink:title="src/ast/decl.cpp">
<polygon fill="#ffffff" stroke="#000000" points="264.1772,-.5 264.1772,-18.5 349.6499,-18.5 349.6499,-.5 264.1772,-.5"/>
<text text-anchor="middle" x="306.9136" y="-6.5" font-family="Helvetica,sans-Serif" font-size="10.00" fill="#000000">src/ast/decl.cpp</text>
</a>
</g>
</g>
<!-- Node13&#45;&gt;Node15 -->
<g id="edge3" class="edge">
<title>Node13&#45;&gt;Node15</title>
<path fill="none" stroke="#191970" d="M493.5251,-53.3617C449.957,-43.1213 386.1524,-28.1245 345.5847,-18.5894"/>
<polygon fill="#191970" stroke="#191970" points="492.7819,-56.7823 503.3174,-55.6633 494.3836,-49.968 492.7819,-56.7823"/>
</g>
<!-- Node13&#45;&gt;Node16 -->
<g id="edge4" class="edge">
<title>Node13&#45;&gt;Node16</title>
<path fill="none" stroke="#191970" d="M569.0231,-51.0563C590.1093,-40.9716 618.4077,-27.4376 636.8955,-18.5956"/>
<polygon fill="#191970" stroke="#191970" points="567.4147,-47.9458 559.9035,-55.4179 570.435,-54.2607 567.4147,-47.9458"/>
</g>
<!-- Node17 -->
<g id="node6" class="node">
<title>Node17</title>
<g id="a_node6"><a xlink:href="main_8cpp.html" target="_top" xlink:title="src/driver/main.cpp">
<polygon fill="#ffffff" stroke="#000000" points="367.6797,-.5 367.6797,-18.5 468.1475,-18.5 468.1475,-.5 367.6797,-.5"/>
<text text-anchor="middle" x="417.9136" y="-6.5" font-family="Helvetica,sans-Serif" font-size="10.00" fill="#000000">src/driver/main.cpp</text>
</a>
</g>
</g>
<!-- Node13&#45;&gt;Node17 -->
<g id="edge5" class="edge">
<title>Node13&#45;&gt;Node17</title>
<path fill="none" stroke="#191970" d="M511.4563,-51.328C488.8418,-41.2159 458.2067,-27.5172 438.2547,-18.5956"/>
<polygon fill="#191970" stroke="#191970" points="510.045,-54.5309 520.6026,-55.4179 512.9024,-48.1407 510.045,-54.5309"/>
</g>
<!-- Node13&#45;&gt;Node18 -->
<g id="edge6" class="edge">
<title>Node13&#45;&gt;Node18</title>
<path fill="none" stroke="#191970" d="M587.7872,-53.042C629.7348,-42.7881 690.3998,-27.9589 728.9912,-18.5255"/>
<polygon fill="#191970" stroke="#191970" points="586.6987,-49.705 577.8158,-55.4795 588.3609,-56.5047 586.6987,-49.705"/>
</g>
<!-- Node19 -->
<g id="node8" class="node">
<title>Node19</title>
<g id="a_node8"><a xlink:href="mangle_8cpp.html" target="_top" xlink:title="src/irgen/mangle.cpp">
<polygon fill="#ffffff" stroke="#000000" points="486.5024,-.5 486.5024,-18.5 595.3247,-18.5 595.3247,-.5 486.5024,-.5"/>
<text text-anchor="middle" x="540.9136" y="-6.5" font-family="Helvetica,sans-Serif" font-size="10.00" fill="#000000">src/irgen/mangle.cpp</text>
</a>
</g>
</g>
<!-- Node13&#45;&gt;Node19 -->
<g id="edge7" class="edge">
<title>Node13&#45;&gt;Node19</title>
<path fill="none" stroke="#191970" d="M540.9136,-45.383C540.9136,-36.3738 540.9136,-26.0373 540.9136,-18.7795"/>
<polygon fill="#191970" stroke="#191970" points="537.4137,-45.4178 540.9136,-55.4179 544.4137,-45.4179 537.4137,-45.4178"/>
</g>
<!-- Node20 -->
<g id="node9" class="node">
<title>Node20</title>
<g id="a_node9"><a xlink:href="c-import_8cpp.html" target="_top" xlink:title="src/sema/c&#45;import.cpp">
<polygon fill="#ffffff" stroke="#000000" points="131.7363,-.5 131.7363,-18.5 246.0908,-18.5 246.0908,-.5 131.7363,-.5"/>
<text text-anchor="middle" x="188.9136" y="-6.5" font-family="Helvetica,sans-Serif" font-size="10.00" fill="#000000">src/sema/c&#45;import.cpp</text>
</a>
</g>
</g>
<!-- Node13&#45;&gt;Node20 -->
<g id="edge8" class="edge">
<title>Node13&#45;&gt;Node20</title>
<path fill="none" stroke="#191970" d="M492.9994,-57.0134C428.8037,-46.9828 315.0203,-29.2042 246.3194,-18.4697"/>
<polygon fill="#191970" stroke="#191970" points="492.8229,-60.5282 503.2434,-58.614 493.9036,-53.6121 492.8229,-60.5282"/>
</g>
<!-- Node13&#45;&gt;Node21 -->
<g id="edge9" class="edge">
<title>Node13&#45;&gt;Node21</title>
<path fill="none" stroke="#191970" d="M588.729,-57.071C653.084,-47.0724 767.4694,-29.3006 836.7388,-18.5385"/>
<polygon fill="#191970" stroke="#191970" points="587.8067,-53.6723 578.4626,-58.6661 588.8814,-60.5893 587.8067,-53.6723"/>
</g>
<!-- Node22&#45;&gt;Node13 -->
<g id="edge11" class="edge">
<title>Node22&#45;&gt;Node13</title>
<path fill="none" stroke="#191970" d="M540.9136,-100.383C540.9136,-91.3738 540.9136,-81.0373 540.9136,-73.7795"/>
<polygon fill="#191970" stroke="#191970" points="537.4137,-100.4178 540.9136,-110.4179 544.4137,-100.4179 537.4137,-100.4178"/>
</g>
<!-- Node22&#45;&gt;Node14 -->
<g id="edge12" class="edge">
<title>Node22&#45;&gt;Node14</title>
<path fill="none" stroke="#191970" d="M492.9742,-108.6047C397.4881,-86.9033 185.1465,-38.6438 96.7399,-18.5514"/>
<polygon fill="#191970" stroke="#191970" points="492.4079,-112.0652 502.9349,-110.8685 493.9593,-105.2392 492.4079,-112.0652"/>
</g>
</g>
</svg>
