<?xml version="1.0" encoding="UTF-8" standalone="no"?>
<!DOCTYPE svg PUBLIC "-//W3C//DTD SVG 1.1//EN"
 "http://www.w3.org/Graphics/SVG/1.1/DTD/svg11.dtd">
<!-- Generated by graphviz version 2.40.1 (20161225.0304)
 -->
<!-- Title: src/ast/expr.cpp Pages: 1 -->
<svg width="629pt" height="302pt"
 viewBox="0.00 0.00 628.50 302.00" xmlns="http://www.w3.org/2000/svg" xmlns:xlink="http://www.w3.org/1999/xlink">
<g id="graph0" class="graph" transform="scale(1 1) rotate(0) translate(4 298)">
<title>src/ast/expr.cpp</title>
<polygon fill="#ffffff" stroke="transparent" points="-4,4 -4,-298 624.5024,-298 624.5024,4 -4,4"/>
<!-- Node0 -->
<g id="node1" class="node">
<title>Node0</title>
<polygon fill="#bfbfbf" stroke="#000000" points="226.8696,-275.5 226.8696,-293.5 312.9038,-293.5 312.9038,-275.5 226.8696,-275.5"/>
<text text-anchor="middle" x="269.8867" y="-281.5" font-family="Helvetica,sans-Serif" font-size="10.00" fill="#000000">src/ast/expr.cpp</text>
</g>
<!-- Node1 -->
<g id="node2" class="node">
<title>Node1</title>
<g id="a_node2"><a xlink:href="expr_8h.html" target="_top" xlink:title="expr.h">
<polygon fill="#ffffff" stroke="#000000" points="199.2637,-110.5 199.2637,-128.5 242.5098,-128.5 242.5098,-110.5 199.2637,-110.5"/>
<text text-anchor="middle" x="220.8867" y="-116.5" font-family="Helvetica,sans-Serif" font-size="10.00" fill="#000000">expr.h</text>
</a>
</g>
</g>
<!-- Node0&#45;&gt;Node1 -->
<g id="edge1" class="edge">
<title>Node0&#45;&gt;Node1</title>
<path fill="none" stroke="#191970" d="M262.1753,-275.3946C255.2,-266.6458 245.2284,-252.76 239.8867,-239 226.8203,-205.3412 222.7347,-163.0127 221.4605,-138.828"/>
<polygon fill="#191970" stroke="#191970" points="224.9449,-138.377 221.0338,-128.5305 217.9509,-138.6669 224.9449,-138.377"/>
</g>
<!-- Node13 -->
<g id="node14" class="node">
<title>Node13</title>
<g id="a_node14"><a xlink:href="decl_8h.html" target="_top" xlink:title="decl.h">
<polygon fill="#ffffff" stroke="#000000" points="248.5444,-220.5 248.5444,-238.5 291.229,-238.5 291.229,-220.5 248.5444,-220.5"/>
<text text-anchor="middle" x="269.8867" y="-226.5" font-family="Helvetica,sans-Serif" font-size="10.00" fill="#000000">decl.h</text>
</a>
</g>
</g>
<!-- Node0&#45;&gt;Node13 -->
<g id="edge15" class="edge">
<title>Node0&#45;&gt;Node13</title>
<path fill="none" stroke="#191970" d="M269.8867,-275.4179C269.8867,-268.2164 269.8867,-257.8962 269.8867,-248.8632"/>
<polygon fill="#191970" stroke="#191970" points="273.3868,-248.7794 269.8867,-238.7795 266.3868,-248.7795 273.3868,-248.7794"/>
</g>
<!-- Node16 -->
<g id="node17" class="node">
<title>Node16</title>
<polygon fill="#ffffff" stroke="#bfbfbf" points="309.5273,-220.5 309.5273,-238.5 412.2461,-238.5 412.2461,-220.5 309.5273,-220.5"/>
<text text-anchor="middle" x="360.8867" y="-226.5" font-family="Helvetica,sans-Serif" font-size="10.00" fill="#000000">../parser/parser.hpp</text>
</g>
<!-- Node0&#45;&gt;Node16 -->
<g id="edge27" class="edge">
<title>Node0&#45;&gt;Node16</title>
<path fill="none" stroke="#191970" d="M284.9135,-275.4179C299.1398,-266.8195 320.722,-253.7754 337.2525,-243.7844"/>
<polygon fill="#191970" stroke="#191970" points="339.0897,-246.7637 345.8376,-238.5956 335.4689,-240.7729 339.0897,-246.7637"/>
</g>
<!-- Node2 -->
<g id="node3" class="node">
<title>Node2</title>
<polygon fill="#ffffff" stroke="#bfbfbf" points="61.6602,-.5 61.6602,-18.5 102.1133,-18.5 102.1133,-.5 61.6602,-.5"/>
<text text-anchor="middle" x="81.8867" y="-6.5" font-family="Helvetica,sans-Serif" font-size="10.00" fill="#000000">string</text>
</g>
<!-- Node1&#45;&gt;Node2 -->
<g id="edge2" class="edge">
<title>Node1&#45;&gt;Node2</title>
<path fill="none" stroke="#191970" d="M207.8825,-110.3258C195.2114,-101.3005 175.4844,-87.0202 158.8867,-74 138.5118,-58.0167 115.8652,-38.8729 100.4384,-25.6135"/>
<polygon fill="#191970" stroke="#191970" points="102.5283,-22.7939 92.671,-18.91 97.9547,-28.0932 102.5283,-22.7939"/>
</g>
<!-- Node3 -->
<g id="node4" class="node">
<title>Node3</title>
<polygon fill="#ffffff" stroke="#bfbfbf" points="391.8301,-55.5 391.8301,-73.5 443.9434,-73.5 443.9434,-55.5 391.8301,-55.5"/>
<text text-anchor="middle" x="417.8867" y="-61.5" font-family="Helvetica,sans-Serif" font-size="10.00" fill="#000000">memory</text>
</g>
<!-- Node1&#45;&gt;Node3 -->
<g id="edge3" class="edge">
<title>Node1&#45;&gt;Node3</title>
<path fill="none" stroke="#191970" d="M242.7219,-113.4039C276.338,-104.0187 341.1313,-85.9292 381.7954,-74.5763"/>
<polygon fill="#191970" stroke="#191970" points="382.8897,-77.9047 391.5802,-71.8445 381.0074,-71.1625 382.8897,-77.9047"/>
</g>
<!-- Node4 -->
<g id="node5" class="node">
<title>Node4</title>
<polygon fill="#ffffff" stroke="#bfbfbf" points="577.271,-.5 577.271,-18.5 620.5024,-18.5 620.5024,-.5 577.271,-.5"/>
<text text-anchor="middle" x="598.8867" y="-6.5" font-family="Helvetica,sans-Serif" font-size="10.00" fill="#000000">vector</text>
</g>
<!-- Node1&#45;&gt;Node4 -->
<g id="edge4" class="edge">
<title>Node1&#45;&gt;Node4</title>
<path fill="none" stroke="#191970" d="M242.6799,-112.3309C267.6732,-103.9194 309.7298,-89.1828 344.8867,-74 362.2216,-66.5138 365.0105,-61.0815 382.8867,-55 459.245,-29.0227 484.7303,-38.5153 567.1608,-18.9318"/>
<polygon fill="#191970" stroke="#191970" points="568.0707,-22.3124 576.9512,-16.5343 566.4057,-15.5133 568.0707,-22.3124"/>
</g>
<!-- Node5 -->
<g id="node6" class="node">
<title>Node5</title>
<g id="a_node6"><a xlink:href="type_8h.html" target="_top" xlink:title="type.h">
<polygon fill="#ffffff" stroke="#000000" points="292.2661,-55.5 292.2661,-73.5 335.5073,-73.5 335.5073,-55.5 292.2661,-55.5"/>
<text text-anchor="middle" x="313.8867" y="-61.5" font-family="Helvetica,sans-Serif" font-size="10.00" fill="#000000">type.h</text>
</a>
</g>
</g>
<!-- Node1&#45;&gt;Node5 -->
<g id="edge5" class="edge">
<title>Node1&#45;&gt;Node5</title>
<path fill="none" stroke="#191970" d="M236.2438,-110.4179C250.7828,-101.8195 272.8393,-88.7754 289.7331,-78.7844"/>
<polygon fill="#191970" stroke="#191970" points="291.6811,-81.6987 298.5068,-73.5956 288.1177,-75.6735 291.6811,-81.6987"/>
</g>
<!-- Node10 -->
<g id="node11" class="node">
<title>Node10</title>
<g id="a_node11"><a xlink:href="srcloc_8h.html" target="_top" xlink:title="srcloc.h">
<polygon fill="#ffffff" stroke="#000000" points="23.6602,-55.5 23.6602,-73.5 74.1133,-73.5 74.1133,-55.5 23.6602,-55.5"/>
<text text-anchor="middle" x="48.8867" y="-61.5" font-family="Helvetica,sans-Serif" font-size="10.00" fill="#000000">srcloc.h</text>
</a>
</g>
</g>
<!-- Node1&#45;&gt;Node10 -->
<g id="edge12" class="edge">
<title>Node1&#45;&gt;Node10</title>
<path fill="none" stroke="#191970" d="M199.1028,-112.5342C170.0599,-103.2472 118.316,-86.7012 83.7975,-75.6633"/>
<polygon fill="#191970" stroke="#191970" points="84.7082,-72.28 74.1172,-72.5679 82.5761,-78.9474 84.7082,-72.28"/>
</g>
<!-- Node12 -->
<g id="node13" class="node">
<title>Node12</title>
<g id="a_node13"><a xlink:href="operators_8h.html" target="_top" xlink:title="../parser/operators.h">
<polygon fill="#ffffff" stroke="#000000" points="167.8647,-55.5 167.8647,-73.5 273.9087,-73.5 273.9087,-55.5 167.8647,-55.5"/>
<text text-anchor="middle" x="220.8867" y="-61.5" font-family="Helvetica,sans-Serif" font-size="10.00" fill="#000000">../parser/operators.h</text>
</a>
</g>
</g>
<!-- Node1&#45;&gt;Node12 -->
<g id="edge14" class="edge">
<title>Node1&#45;&gt;Node12</title>
<path fill="none" stroke="#191970" d="M220.8867,-110.4179C220.8867,-103.2164 220.8867,-92.8962 220.8867,-83.8632"/>
<polygon fill="#191970" stroke="#191970" points="224.3868,-83.7794 220.8867,-73.7795 217.3868,-83.7795 224.3868,-83.7794"/>
</g>
<!-- Node5&#45;&gt;Node2 -->
<g id="edge7" class="edge">
<title>Node5&#45;&gt;Node2</title>
<path fill="none" stroke="#191970" d="M291.9414,-57.5046C288.9117,-56.6181 285.8305,-55.7575 282.8867,-55 210.3518,-36.3362 188.1414,-38.9269 112.416,-19.1877"/>
<polygon fill="#191970" stroke="#191970" points="112.9611,-15.7112 102.3979,-16.529 111.1655,-22.477 112.9611,-15.7112"/>
</g>
<!-- Node5&#45;&gt;Node4 -->
<g id="edge6" class="edge">
<title>Node5&#45;&gt;Node4</title>
<path fill="none" stroke="#191970" d="M335.5092,-58.4403C340.228,-57.2171 345.2093,-56.001 349.8867,-55 442.8187,-35.1112 470.5111,-41.0149 567.0882,-18.9158"/>
<polygon fill="#191970" stroke="#191970" points="568.0256,-22.2913 576.9703,-16.613 566.4369,-15.4739 568.0256,-22.2913"/>
</g>
<!-- Node6 -->
<g id="node7" class="node">
<title>Node6</title>
<polygon fill="#ffffff" stroke="#bfbfbf" points="119.8252,-.5 119.8252,-18.5 171.9482,-18.5 171.9482,-.5 119.8252,-.5"/>
<text text-anchor="middle" x="145.8867" y="-6.5" font-family="Helvetica,sans-Serif" font-size="10.00" fill="#000000">ostream</text>
</g>
<!-- Node5&#45;&gt;Node6 -->
<g id="edge8" class="edge">
<title>Node5&#45;&gt;Node6</title>
<path fill="none" stroke="#191970" d="M291.9237,-57.3097C263.9541,-48.153 215.2515,-32.2087 181.8354,-21.2689"/>
<polygon fill="#191970" stroke="#191970" points="182.5882,-17.8326 171.9955,-18.0475 180.4102,-24.4852 182.5882,-17.8326"/>
</g>
<!-- Node7 -->
<g id="node8" class="node">
<title>Node7</title>
<polygon fill="#ffffff" stroke="#bfbfbf" points="190.3252,-.5 190.3252,-18.5 297.4482,-18.5 297.4482,-.5 190.3252,-.5"/>
<text text-anchor="middle" x="243.8867" y="-6.5" font-family="Helvetica,sans-Serif" font-size="10.00" fill="#000000">llvm/ADT/ArrayRef.h</text>
</g>
<!-- Node5&#45;&gt;Node7 -->
<g id="edge9" class="edge">
<title>Node5&#45;&gt;Node7</title>
<path fill="none" stroke="#191970" d="M302.3276,-55.4179C291.8527,-47.1876 276.1935,-34.8839 263.7203,-25.0836"/>
<polygon fill="#191970" stroke="#191970" points="265.7225,-22.2056 255.6969,-18.7795 261.3978,-27.7098 265.7225,-22.2056"/>
</g>
<!-- Node8 -->
<g id="node9" class="node">
<title>Node8</title>
<polygon fill="#ffffff" stroke="#bfbfbf" points="315.2095,-.5 315.2095,-18.5 424.564,-18.5 424.564,-.5 315.2095,-.5"/>
<text text-anchor="middle" x="369.8867" y="-6.5" font-family="Helvetica,sans-Serif" font-size="10.00" fill="#000000">llvm/ADT/StringRef.h</text>
</g>
<!-- Node5&#45;&gt;Node8 -->
<g id="edge10" class="edge">
<title>Node5&#45;&gt;Node8</title>
<path fill="none" stroke="#191970" d="M323.134,-55.4179C331.2722,-47.425 343.322,-35.5903 353.1501,-25.9377"/>
<polygon fill="#191970" stroke="#191970" points="355.7565,-28.2836 360.4385,-18.7795 350.8515,-23.2895 355.7565,-28.2836"/>
</g>
<!-- Node9 -->
<g id="node10" class="node">
<title>Node9</title>
<polygon fill="#ffffff" stroke="#bfbfbf" points="442.5864,-.5 442.5864,-18.5 559.187,-18.5 559.187,-.5 442.5864,-.5"/>
<text text-anchor="middle" x="500.8867" y="-6.5" font-family="Helvetica,sans-Serif" font-size="10.00" fill="#000000">llvm/Support/Casting.h</text>
</g>
<!-- Node5&#45;&gt;Node9 -->
<g id="edge11" class="edge">
<title>Node5&#45;&gt;Node9</title>
<path fill="none" stroke="#191970" d="M335.704,-58.0832C366.2163,-49.1089 422.1819,-32.6485 460.4381,-21.3967"/>
<polygon fill="#191970" stroke="#191970" points="461.6329,-24.6936 470.2389,-18.5141 459.6577,-17.978 461.6329,-24.6936"/>
</g>
<!-- Node11 -->
<g id="node12" class="node">
<title>Node11</title>
<polygon fill="#ffffff" stroke="#bfbfbf" points="0,-.5 0,-18.5 43.7734,-18.5 43.7734,-.5 0,-.5"/>
<text text-anchor="middle" x="21.8867" y="-6.5" font-family="Helvetica,sans-Serif" font-size="10.00" fill="#000000">climits</text>
</g>
<!-- Node10&#45;&gt;Node11 -->
<g id="edge13" class="edge">
<title>Node10&#45;&gt;Node11</title>
<path fill="none" stroke="#191970" d="M44.4282,-55.4179C40.7764,-47.9789 35.491,-37.2123 30.9559,-27.9742"/>
<polygon fill="#191970" stroke="#191970" points="33.9907,-26.2138 26.4421,-18.7795 27.707,-29.2985 33.9907,-26.2138"/>
</g>
<!-- Node13&#45;&gt;Node1 -->
<g id="edge20" class="edge">
<title>Node13&#45;&gt;Node1</title>
<path fill="none" stroke="#191970" d="M265.8768,-220.4982C257.8729,-202.5302 239.772,-161.8954 229.1297,-138.0046"/>
<polygon fill="#191970" stroke="#191970" points="232.2183,-136.3366 224.952,-128.6261 225.824,-139.185 232.2183,-136.3366"/>
</g>
<!-- Node13&#45;&gt;Node2 -->
<g id="edge16" class="edge">
<title>Node13&#45;&gt;Node2</title>
<path fill="none" stroke="#191970" d="M261.7869,-220.4962C240.51,-196.7899 181.4011,-130.5766 133.8867,-74 120.6586,-58.249 105.9834,-39.969 95.6053,-26.9002"/>
<polygon fill="#191970" stroke="#191970" points="98.1285,-24.4487 89.1775,-18.7803 92.64,-28.7934 98.1285,-24.4487"/>
</g>
<!-- Node13&#45;&gt;Node3 -->
<g id="edge17" class="edge">
<title>Node13&#45;&gt;Node3</title>
<path fill="none" stroke="#191970" d="M291.3155,-222.5749C327.0566,-210.9361 395.3047,-188.2989 398.8867,-184 422.6665,-155.4615 422.6601,-109.3312 420.3819,-83.529"/>
<polygon fill="#191970" stroke="#191970" points="423.8553,-83.0937 419.291,-73.5325 416.8966,-83.8532 423.8553,-83.0937"/>
</g>
<!-- Node13&#45;&gt;Node4 -->
<g id="edge18" class="edge">
<title>Node13&#45;&gt;Node4</title>
<path fill="none" stroke="#191970" d="M291.4771,-222.5291C294.6175,-221.6187 297.8238,-220.745 300.8867,-220 387.7953,-198.8601 424.6628,-233.908 498.8867,-184 555.0819,-146.2145 583.5247,-65.5319 594.0128,-28.6327"/>
<polygon fill="#191970" stroke="#191970" points="597.4715,-29.2497 596.7021,-18.6828 590.714,-27.4231 597.4715,-29.2497"/>
</g>
<!-- Node13&#45;&gt;Node5 -->
<g id="edge25" class="edge">
<title>Node13&#45;&gt;Node5</title>
<path fill="none" stroke="#191970" d="M272.3784,-220.1561C279.3666,-193.9504 299.2585,-119.3557 308.7395,-83.8021"/>
<polygon fill="#191970" stroke="#191970" points="312.2275,-84.3056 311.4223,-73.7414 305.4638,-82.5019 312.2275,-84.3056"/>
</g>
<!-- Node13&#45;&gt;Node10 -->
<g id="edge26" class="edge">
<title>Node13&#45;&gt;Node10</title>
<path fill="none" stroke="#191970" d="M248.4285,-226.7594C205.5175,-220.8715 111.2376,-205.7604 87.8867,-184 59.5153,-157.561 51.74,-110.2465 49.6378,-83.7777"/>
<polygon fill="#191970" stroke="#191970" points="53.1161,-83.3064 49.0289,-73.5317 46.1284,-83.7218 53.1161,-83.3064"/>
</g>
<!-- Node14 -->
<g id="node15" class="node">
<title>Node14</title>
<polygon fill="#ffffff" stroke="#bfbfbf" points="297.5273,-165.5 297.5273,-183.5 390.2461,-183.5 390.2461,-165.5 297.5273,-165.5"/>
<text text-anchor="middle" x="343.8867" y="-171.5" font-family="Helvetica,sans-Serif" font-size="10.00" fill="#000000">boost/variant.hpp</text>
</g>
<!-- Node13&#45;&gt;Node14 -->
<g id="edge19" class="edge">
<title>Node13&#45;&gt;Node14</title>
<path fill="none" stroke="#191970" d="M282.1063,-220.4179C293.3536,-212.0584 310.2549,-199.4966 323.5382,-189.6239"/>
<polygon fill="#191970" stroke="#191970" points="325.7108,-192.37 331.649,-183.5956 321.5351,-186.7518 325.7108,-192.37"/>
</g>
<!-- Node15 -->
<g id="node16" class="node">
<title>Node15</title>
<g id="a_node16"><a xlink:href="stmt_8h.html" target="_top" xlink:title="stmt.h">
<polygon fill="#ffffff" stroke="#000000" points="446.2734,-165.5 446.2734,-183.5 489.5,-183.5 489.5,-165.5 446.2734,-165.5"/>
<text text-anchor="middle" x="467.8867" y="-171.5" font-family="Helvetica,sans-Serif" font-size="10.00" fill="#000000">stmt.h</text>
</a>
</g>
</g>
<!-- Node13&#45;&gt;Node15 -->
<g id="edge21" class="edge">
<title>Node13&#45;&gt;Node15</title>
<path fill="none" stroke="#191970" d="M291.5411,-222.7693C294.6721,-221.8237 297.8587,-220.8762 300.8867,-220 326.2332,-212.6653 395.3947,-193.9815 436.3284,-182.9714"/>
<polygon fill="#191970" stroke="#191970" points="437.3348,-186.3252 446.0833,-180.3491 435.5175,-179.5652 437.3348,-186.3252"/>
</g>
<!-- Node15&#45;&gt;Node1 -->
<g id="edge24" class="edge">
<title>Node15&#45;&gt;Node1</title>
<path fill="none" stroke="#191970" d="M445.9671,-169.6191C402.1157,-159.8546 303.442,-137.8828 252.5596,-126.5527"/>
<polygon fill="#191970" stroke="#191970" points="253.2789,-123.1272 242.7572,-124.3699 251.7574,-129.9598 253.2789,-123.1272"/>
</g>
<!-- Node15&#45;&gt;Node3 -->
<g id="edge23" class="edge">
<title>Node15&#45;&gt;Node3</title>
<path fill="none" stroke="#191970" d="M463.795,-165.4982C455.6277,-147.5302 437.1574,-106.8954 426.2979,-83.0046"/>
<polygon fill="#191970" stroke="#191970" points="429.3593,-81.2815 422.035,-73.6261 422.9868,-84.1781 429.3593,-81.2815"/>
</g>
<!-- Node15&#45;&gt;Node4 -->
<g id="edge22" class="edge">
<title>Node15&#45;&gt;Node4</title>
<path fill="none" stroke="#191970" d="M475.3052,-165.1561C496.4712,-138.4967 557.3972,-61.7578 585.0001,-26.9907"/>
<polygon fill="#191970" stroke="#191970" points="588.0727,-28.7495 591.5496,-18.7414 582.5905,-24.3969 588.0727,-28.7495"/>
</g>
</g>
</svg>
