<?xml version="1.0" encoding="UTF-8" standalone="no"?>
<!DOCTYPE svg PUBLIC "-//W3C//DTD SVG 1.1//EN"
 "http://www.w3.org/Graphics/SVG/1.1/DTD/svg11.dtd">
<!-- Generated by graphviz version 2.40.1 (20161225.0304)
 -->
<!-- Title: Graphical Class Hierarchy Pages: 1 -->
<svg width="221pt" height="175pt"
 viewBox="0.00 0.00 221.29 175.00" xmlns="http://www.w3.org/2000/svg" xmlns:xlink="http://www.w3.org/1999/xlink">
<g id="graph0" class="graph" transform="scale(1 1) rotate(0) translate(4 171)">
<title>Graphical Class Hierarchy</title>
<polygon fill="#ffffff" stroke="transparent" points="-4,4 -4,-171 217.293,-171 217.293,4 -4,4"/>
<!-- Node0 -->
<g id="node1" class="node">
<title>Node0</title>
<g id="a_node1"><a xlink:href="classdelta_1_1_type_base.html" target="_top" xlink:title="delta::TypeBase">
<polygon fill="#ffffff" stroke="#000000" points="0,-74.5 0,-92.5 87.7188,-92.5 87.7188,-74.5 0,-74.5"/>
<text text-anchor="middle" x="43.8594" y="-80.5" font-family="Helvetica,sans-Serif" font-size="10.00" fill="#000000">delta::TypeBase</text>
</a>
</g>
</g>
<!-- Node1 -->
<g id="node2" class="node">
<title>Node1</title>
<g id="a_node2"><a xlink:href="classdelta_1_1_array_type.html" target="_top" xlink:title="delta::ArrayType">
<polygon fill="#ffffff" stroke="#000000" points="124.0972,-148.5 124.0972,-166.5 212.9146,-166.5 212.9146,-148.5 124.0972,-148.5"/>
<text text-anchor="middle" x="168.5059" y="-154.5" font-family="Helvetica,sans-Serif" font-size="10.00" fill="#000000">delta::ArrayType</text>
</a>
</g>
</g>
<!-- Node0&#45;&gt;Node1 -->
<g id="edge1" class="edge">
<title>Node0&#45;&gt;Node1</title>
<path fill="none" stroke="#191970" d="M62.8528,-98.6969C78.5464,-110.7822 101.7385,-127.5819 123.7188,-139.5 129.7595,-142.7754 136.5256,-145.7993 142.9325,-148.3968"/>
<polygon fill="#191970" stroke="#191970" points="64.9953,-95.9292 54.9609,-92.5289 60.6847,-101.4446 64.9953,-95.9292"/>
</g>
<!-- Node2 -->
<g id="node3" class="node">
<title>Node2</title>
<g id="a_node3"><a xlink:href="classdelta_1_1_basic_type.html" target="_top" xlink:title="delta::BasicType">
<polygon fill="#ffffff" stroke="#000000" points="123.8164,-111.5 123.8164,-129.5 213.1953,-129.5 213.1953,-111.5 123.8164,-111.5"/>
<text text-anchor="middle" x="168.5059" y="-117.5" font-family="Helvetica,sans-Serif" font-size="10.00" fill="#000000">delta::BasicType</text>
</a>
</g>
</g>
<!-- Node0&#45;&gt;Node2 -->
<g id="edge2" class="edge">
<title>Node0&#45;&gt;Node2</title>
<path fill="none" stroke="#191970" d="M84.2593,-95.4923C101.685,-100.6649 121.7313,-106.6155 137.8967,-111.414"/>
<polygon fill="#191970" stroke="#191970" points="84.9339,-92.0417 74.3513,-92.5512 82.9419,-98.7523 84.9339,-92.0417"/>
</g>
<!-- Node3 -->
<g id="node4" class="node">
<title>Node3</title>
<g id="a_node4"><a xlink:href="classdelta_1_1_func_type.html" target="_top" xlink:title="delta::FuncType">
<polygon fill="#ffffff" stroke="#000000" points="124.9272,-74.5 124.9272,-92.5 212.0845,-92.5 212.0845,-74.5 124.9272,-74.5"/>
<text text-anchor="middle" x="168.5059" y="-80.5" font-family="Helvetica,sans-Serif" font-size="10.00" fill="#000000">delta::FuncType</text>
</a>
</g>
</g>
<!-- Node0&#45;&gt;Node3 -->
<g id="edge3" class="edge">
<title>Node0&#45;&gt;Node3</title>
<path fill="none" stroke="#191970" d="M98.0485,-83.5C106.8988,-83.5 115.9717,-83.5 124.5369,-83.5"/>
<polygon fill="#191970" stroke="#191970" points="97.8051,-80.0001 87.8051,-83.5 97.805,-87.0001 97.8051,-80.0001"/>
</g>
<!-- Node4 -->
<g id="node5" class="node">
<title>Node4</title>
<g id="a_node5"><a xlink:href="classdelta_1_1_ptr_type.html" target="_top" xlink:title="delta::PtrType">
<polygon fill="#ffffff" stroke="#000000" points="129.6538,-37.5 129.6538,-55.5 207.3579,-55.5 207.3579,-37.5 129.6538,-37.5"/>
<text text-anchor="middle" x="168.5059" y="-43.5" font-family="Helvetica,sans-Serif" font-size="10.00" fill="#000000">delta::PtrType</text>
</a>
</g>
</g>
<!-- Node0&#45;&gt;Node4 -->
<g id="edge4" class="edge">
<title>Node0&#45;&gt;Node4</title>
<path fill="none" stroke="#191970" d="M84.2593,-71.5077C101.685,-66.3351 121.7313,-60.3845 137.8967,-55.586"/>
<polygon fill="#191970" stroke="#191970" points="82.9419,-68.2477 74.3513,-74.4488 84.9339,-74.9583 82.9419,-68.2477"/>
</g>
<!-- Node5 -->
<g id="node6" class="node">
<title>Node5</title>
<g id="a_node6"><a xlink:href="classdelta_1_1_tuple_type.html" target="_top" xlink:title="delta::TupleType">
<polygon fill="#ffffff" stroke="#000000" points="123.7188,-.5 123.7188,-18.5 213.293,-18.5 213.293,-.5 123.7188,-.5"/>
<text text-anchor="middle" x="168.5059" y="-6.5" font-family="Helvetica,sans-Serif" font-size="10.00" fill="#000000">delta::TupleType</text>
</a>
</g>
</g>
<!-- Node0&#45;&gt;Node5 -->
<g id="edge5" class="edge">
<title>Node0&#45;&gt;Node5</title>
<path fill="none" stroke="#191970" d="M63.938,-67.9798C79.6641,-56.2486 102.3788,-40.2181 123.7188,-28.5 130.2339,-24.9225 137.5621,-21.5594 144.3745,-18.686"/>
<polygon fill="#191970" stroke="#191970" points="61.4134,-65.5009 55.5495,-74.3251 65.6364,-71.0837 61.4134,-65.5009"/>
</g>
</g>
</svg>
