<?xml version="1.0" encoding="UTF-8" standalone="no"?>
<!DOCTYPE svg PUBLIC "-//W3C//DTD SVG 1.1//EN"
 "http://www.w3.org/Graphics/SVG/1.1/DTD/svg11.dtd">
<!-- Generated by graphviz version 2.40.1 (20161225.0304)
 -->
<!-- Title: Graphical Class Hierarchy Pages: 1 -->
<svg width="223pt" height="434pt"
 viewBox="0.00 0.00 222.73 434.00" xmlns="http://www.w3.org/2000/svg" xmlns:xlink="http://www.w3.org/1999/xlink">
<g id="graph0" class="graph" transform="scale(1 1) rotate(0) translate(4 430)">
<title>Graphical Class Hierarchy</title>
<polygon fill="#ffffff" stroke="transparent" points="-4,4 -4,-430 218.7334,-430 218.7334,4 -4,4"/>
<!-- Node0 -->
<g id="node1" class="node">
<title>Node0</title>
<g id="a_node1"><a xlink:href="classdelta_1_1_expr.html" target="_top" xlink:title="delta::Expr">
<polygon fill="#ffffff" stroke="#000000" points="0,-203.5 0,-221.5 63.8027,-221.5 63.8027,-203.5 0,-203.5"/>
<text text-anchor="middle" x="31.9014" y="-209.5" font-family="Helvetica,sans-Serif" font-size="10.00" fill="#000000">delta::Expr</text>
</a>
</g>
</g>
<!-- Node1 -->
<g id="node2" class="node">
<title>Node1</title>
<g id="a_node2"><a xlink:href="classdelta_1_1_array_literal_expr.html" target="_top" xlink:title="delta::ArrayLiteralExpr">
<polygon fill="#ffffff" stroke="#000000" points="99.8027,-407.5 99.8027,-425.5 214.7334,-425.5 214.7334,-407.5 99.8027,-407.5"/>
<text text-anchor="middle" x="157.2681" y="-413.5" font-family="Helvetica,sans-Serif" font-size="10.00" fill="#000000">delta::ArrayLiteralExpr</text>
</a>
</g>
</g>
<!-- Node0&#45;&gt;Node1 -->
<g id="edge1" class="edge">
<title>Node0&#45;&gt;Node1</title>
<path fill="none" stroke="#191970" d="M33.4358,-231.8784C37.4513,-269.4329 51.5785,-352.4666 99.8027,-398.5 103.6595,-402.1816 108.2603,-405.1106 113.1556,-407.4409"/>
<polygon fill="#191970" stroke="#191970" points="36.9068,-231.4042 32.4877,-221.7749 29.9374,-232.0582 36.9068,-231.4042"/>
</g>
<!-- Node2 -->
<g id="node3" class="node">
<title>Node2</title>
<g id="a_node3"><a xlink:href="classdelta_1_1_binary_expr.html" target="_top" xlink:title="delta::BinaryExpr">
<polygon fill="#ffffff" stroke="#000000" points="111.1943,-370.5 111.1943,-388.5 203.3418,-388.5 203.3418,-370.5 111.1943,-370.5"/>
<text text-anchor="middle" x="157.2681" y="-376.5" font-family="Helvetica,sans-Serif" font-size="10.00" fill="#000000">delta::BinaryExpr</text>
</a>
</g>
</g>
<!-- Node0&#45;&gt;Node2 -->
<g id="edge2" class="edge">
<title>Node0&#45;&gt;Node2</title>
<path fill="none" stroke="#191970" d="M35.45,-231.9065C42.2562,-263.6088 60.1389,-326.4744 99.8027,-361.5 103.9561,-365.1677 108.8528,-368.0882 114.007,-370.4137"/>
<polygon fill="#191970" stroke="#191970" points="38.812,-230.8684 33.4238,-221.746 31.9472,-232.2374 38.812,-230.8684"/>
</g>
<!-- Node3 -->
<g id="node4" class="node">
<title>Node3</title>
<g id="a_node4"><a xlink:href="classdelta_1_1_bool_literal_expr.html" target="_top" xlink:title="delta::BoolLiteralExpr">
<polygon fill="#ffffff" stroke="#000000" points="101.7412,-333.5 101.7412,-351.5 212.7949,-351.5 212.7949,-333.5 101.7412,-333.5"/>
<text text-anchor="middle" x="157.2681" y="-339.5" font-family="Helvetica,sans-Serif" font-size="10.00" fill="#000000">delta::BoolLiteralExpr</text>
</a>
</g>
</g>
<!-- Node0&#45;&gt;Node3 -->
<g id="edge3" class="edge">
<title>Node0&#45;&gt;Node3</title>
<path fill="none" stroke="#191970" d="M38.4276,-231.2614C48.0297,-256.1541 68.3089,-299.821 99.8027,-324.5 104.4933,-328.1756 109.944,-331.1067 115.5837,-333.4428"/>
<polygon fill="#191970" stroke="#191970" points="41.5993,-229.7449 34.8645,-221.5661 35.0289,-232.1597 41.5993,-229.7449"/>
</g>
<!-- Node4 -->
<g id="node5" class="node">
<title>Node4</title>
<g id="a_node5"><a xlink:href="classdelta_1_1_call_expr.html" target="_top" xlink:title="delta::CallExpr">
<polygon fill="#ffffff" stroke="#000000" points="116.7534,-296.5 116.7534,-314.5 197.7827,-314.5 197.7827,-296.5 116.7534,-296.5"/>
<text text-anchor="middle" x="157.2681" y="-302.5" font-family="Helvetica,sans-Serif" font-size="10.00" fill="#000000">delta::CallExpr</text>
</a>
</g>
</g>
<!-- Node0&#45;&gt;Node4 -->
<g id="edge4" class="edge">
<title>Node0&#45;&gt;Node4</title>
<path fill="none" stroke="#191970" d="M43.7142,-230.2799C55.8801,-247.2794 76.3354,-272.4816 99.8027,-287.5 105.4384,-291.1067 111.8478,-294.035 118.2919,-296.3987"/>
<polygon fill="#191970" stroke="#191970" points="46.4112,-228.0265 37.8417,-221.7964 40.6556,-232.0107 46.4112,-228.0265"/>
</g>
<!-- Node5 -->
<g id="node6" class="node">
<title>Node5</title>
<g id="a_node6"><a xlink:href="classdelta_1_1_cast_expr.html" target="_top" xlink:title="A type cast expression using the &#39;cast&#39; keyword, e.g. &#39;cast&lt;type&gt;(expr)&#39;. ">
<polygon fill="#ffffff" stroke="#000000" points="115.0859,-259.5 115.0859,-277.5 199.4502,-277.5 199.4502,-259.5 115.0859,-259.5"/>
<text text-anchor="middle" x="157.2681" y="-265.5" font-family="Helvetica,sans-Serif" font-size="10.00" fill="#000000">delta::CastExpr</text>
</a>
</g>
</g>
<!-- Node0&#45;&gt;Node5 -->
<g id="edge5" class="edge">
<title>Node0&#45;&gt;Node5</title>
<path fill="none" stroke="#191970" d="M54.6992,-226.8203C67.6021,-234.5224 84.2293,-243.789 99.8027,-250.5 107.5796,-253.8513 116.1882,-256.8839 124.3236,-259.4639"/>
<polygon fill="#191970" stroke="#191970" points="56.3929,-223.7539 46.0304,-221.5473 52.7551,-229.7345 56.3929,-223.7539"/>
</g>
<!-- Node6 -->
<g id="node7" class="node">
<title>Node6</title>
<g id="a_node7"><a xlink:href="classdelta_1_1_int_literal_expr.html" target="_top" xlink:title="delta::IntLiteralExpr">
<polygon fill="#ffffff" stroke="#000000" points="106.1895,-222.5 106.1895,-240.5 208.3467,-240.5 208.3467,-222.5 106.1895,-222.5"/>
<text text-anchor="middle" x="157.2681" y="-228.5" font-family="Helvetica,sans-Serif" font-size="10.00" fill="#000000">delta::IntLiteralExpr</text>
</a>
</g>
</g>
<!-- Node0&#45;&gt;Node6 -->
<g id="edge6" class="edge">
<title>Node0&#45;&gt;Node6</title>
<path fill="none" stroke="#191970" d="M73.8128,-218.8519C84.0925,-220.4098 95.2125,-222.0951 105.881,-223.712"/>
<polygon fill="#191970" stroke="#191970" points="74.2726,-215.3817 63.8611,-217.3437 73.2237,-222.3027 74.2726,-215.3817"/>
</g>
<!-- Node7 -->
<g id="node8" class="node">
<title>Node7</title>
<g id="a_node8"><a xlink:href="classdelta_1_1_member_expr.html" target="_top" xlink:title="A member access expression using the dot syntax, such as &#39;a.b&#39;. ">
<polygon fill="#ffffff" stroke="#000000" points="107.0293,-185.5 107.0293,-203.5 207.5068,-203.5 207.5068,-185.5 107.0293,-185.5"/>
<text text-anchor="middle" x="157.2681" y="-191.5" font-family="Helvetica,sans-Serif" font-size="10.00" fill="#000000">delta::MemberExpr</text>
</a>
</g>
</g>
<!-- Node0&#45;&gt;Node7 -->
<g id="edge7" class="edge">
<title>Node0&#45;&gt;Node7</title>
<path fill="none" stroke="#191970" d="M74.0466,-206.4488C84.5728,-204.9375 95.9678,-203.3014 106.8496,-201.739"/>
<polygon fill="#191970" stroke="#191970" points="73.2621,-203.0255 63.8611,-207.9113 74.257,-209.9544 73.2621,-203.0255"/>
</g>
<!-- Node8 -->
<g id="node9" class="node">
<title>Node8</title>
<g id="a_node9"><a xlink:href="classdelta_1_1_null_literal_expr.html" target="_top" xlink:title="delta::NullLiteralExpr">
<polygon fill="#ffffff" stroke="#000000" points="103.1353,-148.5 103.1353,-166.5 211.4009,-166.5 211.4009,-148.5 103.1353,-148.5"/>
<text text-anchor="middle" x="157.2681" y="-154.5" font-family="Helvetica,sans-Serif" font-size="10.00" fill="#000000">delta::NullLiteralExpr</text>
</a>
</g>
</g>
<!-- Node0&#45;&gt;Node8 -->
<g id="edge8" class="edge">
<title>Node0&#45;&gt;Node8</title>
<path fill="none" stroke="#191970" d="M56.2069,-198.3343C68.9395,-191.2442 84.9386,-182.8443 99.8027,-176.5 108.404,-172.8288 117.9702,-169.4138 126.7909,-166.5206"/>
<polygon fill="#191970" stroke="#191970" points="54.1576,-195.4724 47.1799,-203.445 57.6064,-201.5639 54.1576,-195.4724"/>
</g>
<!-- Node9 -->
<g id="node10" class="node">
<title>Node9</title>
<g id="a_node10"><a xlink:href="classdelta_1_1_prefix_expr.html" target="_top" xlink:title="delta::PrefixExpr">
<polygon fill="#ffffff" stroke="#000000" points="112.5859,-111.5 112.5859,-129.5 201.9502,-129.5 201.9502,-111.5 112.5859,-111.5"/>
<text text-anchor="middle" x="157.2681" y="-117.5" font-family="Helvetica,sans-Serif" font-size="10.00" fill="#000000">delta::PrefixExpr</text>
</a>
</g>
</g>
<!-- Node0&#45;&gt;Node9 -->
<g id="edge9" class="edge">
<title>Node0&#45;&gt;Node9</title>
<path fill="none" stroke="#191970" d="M44.2648,-194.7561C56.5904,-178.2868 76.9401,-154.1685 99.8027,-139.5 106.1704,-135.4145 113.5019,-132.1242 120.7513,-129.5049"/>
<polygon fill="#191970" stroke="#191970" points="41.3161,-192.8604 38.2777,-203.0102 46.9824,-196.9705 41.3161,-192.8604"/>
</g>
<!-- Node10 -->
<g id="node11" class="node">
<title>Node10</title>
<g id="a_node11"><a xlink:href="classdelta_1_1_str_literal_expr.html" target="_top" xlink:title="delta::StrLiteralExpr">
<polygon fill="#ffffff" stroke="#000000" points="105.3594,-74.5 105.3594,-92.5 209.1768,-92.5 209.1768,-74.5 105.3594,-74.5"/>
<text text-anchor="middle" x="157.2681" y="-80.5" font-family="Helvetica,sans-Serif" font-size="10.00" fill="#000000">delta::StrLiteralExpr</text>
</a>
</g>
</g>
<!-- Node0&#45;&gt;Node10 -->
<g id="edge10" class="edge">
<title>Node0&#45;&gt;Node10</title>
<path fill="none" stroke="#191970" d="M38.7215,-193.7806C48.5483,-169.3519 68.9671,-126.8565 99.8027,-102.5 104.9976,-98.3967 111.1158,-95.1623 117.3883,-92.6177"/>
<polygon fill="#191970" stroke="#191970" points="35.3752,-192.7314 35.0554,-203.3214 41.9094,-195.2423 35.3752,-192.7314"/>
</g>
<!-- Node11 -->
<g id="node12" class="node">
<title>Node11</title>
<g id="a_node12"><a xlink:href="classdelta_1_1_subscript_expr.html" target="_top" xlink:title="An array element access expression using the element&#39;s index in brackets, e.g. &#39;array[index]&#39;. ">
<polygon fill="#ffffff" stroke="#000000" points="104.5244,-37.5 104.5244,-55.5 210.0117,-55.5 210.0117,-37.5 104.5244,-37.5"/>
<text text-anchor="middle" x="157.2681" y="-43.5" font-family="Helvetica,sans-Serif" font-size="10.00" fill="#000000">delta::SubscriptExpr</text>
</a>
</g>
</g>
<!-- Node0&#45;&gt;Node11 -->
<g id="edge11" class="edge">
<title>Node0&#45;&gt;Node11</title>
<path fill="none" stroke="#191970" d="M35.5897,-193.4186C42.5975,-162.2352 60.7641,-100.345 99.8027,-65.5 104.4279,-61.3717 109.9735,-58.1371 115.7695,-55.6035"/>
<polygon fill="#191970" stroke="#191970" points="32.1213,-192.9056 33.4948,-203.411 38.9723,-194.342 32.1213,-192.9056"/>
</g>
<!-- Node12 -->
<g id="node13" class="node">
<title>Node12</title>
<g id="a_node13"><a xlink:href="classdelta_1_1_variable_expr.html" target="_top" xlink:title="delta::VariableExpr">
<polygon fill="#ffffff" stroke="#000000" points="107.3906,-.5 107.3906,-18.5 207.1455,-18.5 207.1455,-.5 107.3906,-.5"/>
<text text-anchor="middle" x="157.2681" y="-6.5" font-family="Helvetica,sans-Serif" font-size="10.00" fill="#000000">delta::VariableExpr</text>
</a>
</g>
</g>
<!-- Node0&#45;&gt;Node12 -->
<g id="edge12" class="edge">
<title>Node0&#45;&gt;Node12</title>
<path fill="none" stroke="#191970" d="M33.566,-193.3918C37.8091,-156.3494 52.3164,-74.3891 99.8027,-28.5 104.1097,-24.3379 109.3476,-21.0873 114.8884,-18.5486"/>
<polygon fill="#191970" stroke="#191970" points="30.0824,-193.0534 32.5535,-203.356 37.0465,-193.7611 30.0824,-193.0534"/>
</g>
</g>
</svg>
