<?xml version="1.0" encoding="UTF-8" standalone="no"?>
<!DOCTYPE svg PUBLIC "-//W3C//DTD SVG 1.1//EN"
 "http://www.w3.org/Graphics/SVG/1.1/DTD/svg11.dtd">
<!-- Generated by graphviz version 2.40.1 (20161225.0304)
 -->
<!-- Title: Graphical Class Hierarchy Pages: 1 -->
<svg width="235pt" height="360pt"
 viewBox="0.00 0.00 234.96 360.00" xmlns="http://www.w3.org/2000/svg" xmlns:xlink="http://www.w3.org/1999/xlink">
<g id="graph0" class="graph" transform="scale(1 1) rotate(0) translate(4 356)">
<title>Graphical Class Hierarchy</title>
<polygon fill="#ffffff" stroke="transparent" points="-4,4 -4,-356 230.96,-356 230.96,4 -4,4"/>
<!-- Node0 -->
<g id="node1" class="node">
<title>Node0</title>
<g id="a_node1"><a xlink:href="classdelta_1_1_decl.html" target="_top" xlink:title="delta::Decl">
<polygon fill="#ffffff" stroke="#000000" points="0,-166.5 0,-184.5 63.2461,-184.5 63.2461,-166.5 0,-166.5"/>
<text text-anchor="middle" x="31.623" y="-172.5" font-family="Helvetica,sans-Serif" font-size="10.00" fill="#000000">delta::Decl</text>
</a>
</g>
</g>
<!-- Node1 -->
<g id="node2" class="node">
<title>Node1</title>
<g id="a_node2"><a xlink:href="classdelta_1_1_deinit_decl.html" target="_top" xlink:title="delta::DeinitDecl">
<polygon fill="#ffffff" stroke="#000000" points="118.6968,-333.5 118.6968,-351.5 207.5093,-351.5 207.5093,-333.5 118.6968,-333.5"/>
<text text-anchor="middle" x="163.103" y="-339.5" font-family="Helvetica,sans-Serif" font-size="10.00" fill="#000000">delta::DeinitDecl</text>
</a>
</g>
</g>
<!-- Node0&#45;&gt;Node1 -->
<g id="edge1" class="edge">
<title>Node0&#45;&gt;Node1</title>
<path fill="none" stroke="#191970" d="M35.0214,-195.0334C41.6037,-226.9188 59.1369,-290.0424 99.2461,-324.5 104.8377,-329.3037 111.6246,-332.8306 118.6596,-335.4188"/>
<polygon fill="#191970" stroke="#191970" points="38.383,-193.977 33.0702,-184.8105 31.5071,-195.2894 38.383,-193.977"/>
</g>
<!-- Node2 -->
<g id="node3" class="node">
<title>Node2</title>
<g id="a_node3"><a xlink:href="classdelta_1_1_field_decl.html" target="_top" xlink:title="delta::FieldDecl">
<polygon fill="#ffffff" stroke="#000000" points="120.6426,-296.5 120.6426,-314.5 205.5635,-314.5 205.5635,-296.5 120.6426,-296.5"/>
<text text-anchor="middle" x="163.103" y="-302.5" font-family="Helvetica,sans-Serif" font-size="10.00" fill="#000000">delta::FieldDecl</text>
</a>
</g>
</g>
<!-- Node0&#45;&gt;Node2 -->
<g id="edge2" class="edge">
<title>Node0&#45;&gt;Node2</title>
<path fill="none" stroke="#191970" d="M37.872,-194.0587C47.2406,-219.0443 67.3146,-263.1662 99.2461,-287.5 105.4758,-292.2474 112.9015,-295.7428 120.4483,-298.3163"/>
<polygon fill="#191970" stroke="#191970" points="41.1667,-192.8773 34.509,-184.6356 34.574,-195.2303 41.1667,-192.8773"/>
</g>
<!-- Node3 -->
<g id="node4" class="node">
<title>Node3</title>
<g id="a_node4"><a xlink:href="classdelta_1_1_func_decl.html" target="_top" xlink:title="delta::FuncDecl">
<polygon fill="#ffffff" stroke="#000000" points="120.3643,-259.5 120.3643,-277.5 205.8418,-277.5 205.8418,-259.5 120.3643,-259.5"/>
<text text-anchor="middle" x="163.103" y="-265.5" font-family="Helvetica,sans-Serif" font-size="10.00" fill="#000000">delta::FuncDecl</text>
</a>
</g>
</g>
<!-- Node0&#45;&gt;Node3 -->
<g id="edge3" class="edge">
<title>Node0&#45;&gt;Node3</title>
<path fill="none" stroke="#191970" d="M43.087,-193.1561C55.0963,-210.2706 75.4979,-235.746 99.2461,-250.5 105.6056,-254.451 112.8524,-257.556 120.126,-259.99"/>
<polygon fill="#191970" stroke="#191970" points="45.817,-190.9455 37.3107,-184.6295 40.0217,-194.8716 45.817,-190.9455"/>
</g>
<!-- Node4 -->
<g id="node5" class="node">
<title>Node4</title>
<g id="a_node5"><a xlink:href="classdelta_1_1_generic_func_decl.html" target="_top" xlink:title="delta::GenericFuncDecl">
<polygon fill="#ffffff" stroke="#000000" points="102.8569,-222.5 102.8569,-240.5 223.3491,-240.5 223.3491,-222.5 102.8569,-222.5"/>
<text text-anchor="middle" x="163.103" y="-228.5" font-family="Helvetica,sans-Serif" font-size="10.00" fill="#000000">delta::GenericFuncDecl</text>
</a>
</g>
</g>
<!-- Node0&#45;&gt;Node4 -->
<g id="edge4" class="edge">
<title>Node0&#45;&gt;Node4</title>
<path fill="none" stroke="#191970" d="M54,-189.8517C66.8587,-197.6396 83.5321,-206.9789 99.2461,-213.5 107.5442,-216.9436 116.7138,-219.9598 125.4534,-222.4893"/>
<polygon fill="#191970" stroke="#191970" points="55.7246,-186.803 45.3792,-184.5176 52.0414,-192.7557 55.7246,-186.803"/>
</g>
<!-- Node5 -->
<g id="node6" class="node">
<title>Node5</title>
<g id="a_node6"><a xlink:href="classdelta_1_1_generic_param_decl.html" target="_top" xlink:title="delta::GenericParamDecl">
<polygon fill="#ffffff" stroke="#000000" points="99.2461,-185.5 99.2461,-203.5 226.96,-203.5 226.96,-185.5 99.2461,-185.5"/>
<text text-anchor="middle" x="163.103" y="-191.5" font-family="Helvetica,sans-Serif" font-size="10.00" fill="#000000">delta::GenericParamDecl</text>
</a>
</g>
</g>
<!-- Node0&#45;&gt;Node5 -->
<g id="edge5" class="edge">
<title>Node0&#45;&gt;Node5</title>
<path fill="none" stroke="#191970" d="M73.6138,-181.568C82.2416,-182.8148 91.4999,-184.1527 100.6721,-185.4782"/>
<polygon fill="#191970" stroke="#191970" points="73.8485,-178.0657 63.4507,-180.0994 72.8473,-184.9937 73.8485,-178.0657"/>
</g>
<!-- Node6 -->
<g id="node7" class="node">
<title>Node6</title>
<g id="a_node7"><a xlink:href="classdelta_1_1_import_decl.html" target="_top" xlink:title="delta::ImportDecl">
<polygon fill="#ffffff" stroke="#000000" points="117.3101,-148.5 117.3101,-166.5 208.896,-166.5 208.896,-148.5 117.3101,-148.5"/>
<text text-anchor="middle" x="163.103" y="-154.5" font-family="Helvetica,sans-Serif" font-size="10.00" fill="#000000">delta::ImportDecl</text>
</a>
</g>
</g>
<!-- Node0&#45;&gt;Node6 -->
<g id="edge6" class="edge">
<title>Node0&#45;&gt;Node6</title>
<path fill="none" stroke="#191970" d="M73.683,-169.7419C87.541,-167.8447 103.0195,-165.7256 117.1523,-163.7908"/>
<polygon fill="#191970" stroke="#191970" points="72.8835,-166.3186 63.4507,-171.1427 73.833,-173.2539 72.8835,-166.3186"/>
</g>
<!-- Node7 -->
<g id="node8" class="node">
<title>Node7</title>
<g id="a_node8"><a xlink:href="classdelta_1_1_init_decl.html" target="_top" xlink:title="delta::InitDecl">
<polygon fill="#ffffff" stroke="#000000" points="124.8101,-111.5 124.8101,-129.5 201.396,-129.5 201.396,-111.5 124.8101,-111.5"/>
<text text-anchor="middle" x="163.103" y="-117.5" font-family="Helvetica,sans-Serif" font-size="10.00" fill="#000000">delta::InitDecl</text>
</a>
</g>
</g>
<!-- Node0&#45;&gt;Node7 -->
<g id="edge7" class="edge">
<title>Node0&#45;&gt;Node7</title>
<path fill="none" stroke="#191970" d="M55.4948,-161.2823C68.1923,-154.1108 84.2431,-145.653 99.2461,-139.5 108.4494,-135.7255 118.6758,-132.3428 128.1992,-129.5146"/>
<polygon fill="#191970" stroke="#191970" points="53.4302,-158.4324 46.5115,-166.4562 56.9238,-164.4982 53.4302,-158.4324"/>
</g>
<!-- Node8 -->
<g id="node9" class="node">
<title>Node8</title>
<g id="a_node9"><a xlink:href="classdelta_1_1_param_decl.html" target="_top" xlink:title="delta::ParamDecl">
<polygon fill="#ffffff" stroke="#000000" points="116.7534,-74.5 116.7534,-92.5 209.4526,-92.5 209.4526,-74.5 116.7534,-74.5"/>
<text text-anchor="middle" x="163.103" y="-80.5" font-family="Helvetica,sans-Serif" font-size="10.00" fill="#000000">delta::ParamDecl</text>
</a>
</g>
</g>
<!-- Node0&#45;&gt;Node8 -->
<g id="edge8" class="edge">
<title>Node0&#45;&gt;Node8</title>
<path fill="none" stroke="#191970" d="M43.4313,-158.1313C55.5804,-141.5378 75.9761,-116.9729 99.2461,-102.5 105.8267,-98.4071 113.3368,-95.1552 120.8391,-92.5843"/>
<polygon fill="#191970" stroke="#191970" points="40.4879,-156.2316 37.5644,-166.4152 46.2003,-160.2775 40.4879,-156.2316"/>
</g>
<!-- Node9 -->
<g id="node10" class="node">
<title>Node9</title>
<g id="a_node10"><a xlink:href="classdelta_1_1_type_decl.html" target="_top" xlink:title="delta::TypeDecl">
<polygon fill="#ffffff" stroke="#000000" points="120.6377,-37.5 120.6377,-55.5 205.5684,-55.5 205.5684,-37.5 120.6377,-37.5"/>
<text text-anchor="middle" x="163.103" y="-43.5" font-family="Helvetica,sans-Serif" font-size="10.00" fill="#000000">delta::TypeDecl</text>
</a>
</g>
</g>
<!-- Node0&#45;&gt;Node9 -->
<g id="edge9" class="edge">
<title>Node0&#45;&gt;Node9</title>
<path fill="none" stroke="#191970" d="M38.2856,-156.6411C47.9283,-132.0576 68.1043,-89.391 99.2461,-65.5 105.4865,-60.7125 112.9173,-57.1278 120.4656,-54.4447"/>
<polygon fill="#191970" stroke="#191970" points="34.9178,-155.6549 34.6954,-166.2474 41.4748,-158.1056 34.9178,-155.6549"/>
</g>
<!-- Node10 -->
<g id="node11" class="node">
<title>Node10</title>
<g id="a_node11"><a xlink:href="classdelta_1_1_var_decl.html" target="_top" xlink:title="delta::VarDecl">
<polygon fill="#ffffff" stroke="#000000" points="124.0679,-.5 124.0679,-18.5 202.1382,-18.5 202.1382,-.5 124.0679,-.5"/>
<text text-anchor="middle" x="163.103" y="-6.5" font-family="Helvetica,sans-Serif" font-size="10.00" fill="#000000">delta::VarDecl</text>
</a>
</g>
</g>
<!-- Node0&#45;&gt;Node10 -->
<g id="edge10" class="edge">
<title>Node0&#45;&gt;Node10</title>
<path fill="none" stroke="#191970" d="M35.1566,-156.2878C41.9341,-124.9156 59.7423,-62.7593 99.2461,-28.5 106.2367,-22.4374 115.0942,-18.3085 123.9691,-15.4967"/>
<polygon fill="#191970" stroke="#191970" points="31.6745,-155.8513 33.139,-166.3445 38.5377,-157.2284 31.6745,-155.8513"/>
</g>
</g>
</svg>
