<?xml version="1.0" encoding="UTF-8" standalone="no"?>
<!DOCTYPE svg PUBLIC "-//W3C//DTD SVG 1.1//EN"
 "http://www.w3.org/Graphics/SVG/1.1/DTD/svg11.dtd">
<!-- Generated by graphviz version 2.40.1 (20161225.0304)
 -->
<!-- Title: src/irgen/irgen.h Pages: 1 -->
<svg width="122pt" height="82pt"
 viewBox="0.00 0.00 121.67 82.00" xmlns="http://www.w3.org/2000/svg" xmlns:xlink="http://www.w3.org/1999/xlink">
<g id="graph0" class="graph" transform="scale(1 1) rotate(0) translate(4 78)">
<title>src/irgen/irgen.h</title>
<polygon fill="#ffffff" stroke="transparent" points="-4,4 -4,-78 117.6724,-78 117.6724,4 -4,4"/>
<!-- Node0 -->
<g id="node1" class="node">
<title>Node0</title>
<polygon fill="#bfbfbf" stroke="#000000" points="10.7661,-55.5 10.7661,-73.5 98.4653,-73.5 98.4653,-55.5 10.7661,-55.5"/>
<text text-anchor="middle" x="54.6157" y="-61.5" font-family="Helvetica,sans-Serif" font-size="10.00" fill="#000000">src/irgen/irgen.h</text>
</g>
<!-- Node1 -->
<g id="node2" class="node">
<title>Node1</title>
<polygon fill="#ffffff" stroke="#bfbfbf" points="0,-.5 0,-18.5 43.2314,-18.5 43.2314,-.5 0,-.5"/>
<text text-anchor="middle" x="21.6157" y="-6.5" font-family="Helvetica,sans-Serif" font-size="10.00" fill="#000000">vector</text>
</g>
<!-- Node0&#45;&gt;Node1 -->
<g id="edge1" class="edge">
<title>Node0&#45;&gt;Node1</title>
<path fill="none" stroke="#191970" d="M49.1664,-55.4179C44.6081,-47.8207 37.9673,-36.7527 32.3477,-27.3866"/>
<polygon fill="#191970" stroke="#191970" points="35.3296,-25.5536 27.1834,-18.7795 29.3272,-29.1552 35.3296,-25.5536"/>
</g>
<!-- Node2 -->
<g id="node3" class="node">
<title>Node2</title>
<polygon fill="#ffffff" stroke="#bfbfbf" points="61.5591,-.5 61.5591,-18.5 113.6724,-18.5 113.6724,-.5 61.5591,-.5"/>
<text text-anchor="middle" x="87.6157" y="-6.5" font-family="Helvetica,sans-Serif" font-size="10.00" fill="#000000">memory</text>
</g>
<!-- Node0&#45;&gt;Node2 -->
<g id="edge2" class="edge">
<title>Node0&#45;&gt;Node2</title>
<path fill="none" stroke="#191970" d="M60.065,-55.4179C64.6233,-47.8207 71.2641,-36.7527 76.8838,-27.3866"/>
<polygon fill="#191970" stroke="#191970" points="79.9043,-29.1552 82.048,-18.7795 73.9018,-25.5536 79.9043,-29.1552"/>
</g>
</g>
</svg>
