<?xml version="1.0" encoding="UTF-8" standalone="no"?>
<!DOCTYPE svg PUBLIC "-//W3C//DTD SVG 1.1//EN"
 "http://www.w3.org/Graphics/SVG/1.1/DTD/svg11.dtd">
<!-- Generated by graphviz version 2.40.1 (20161225.0304)
 -->
<!-- Title: src/irgen/irgen.h Pages: 1 -->
<svg width="224pt" height="82pt"
 viewBox="0.00 0.00 224.36 82.00" xmlns="http://www.w3.org/2000/svg" xmlns:xlink="http://www.w3.org/1999/xlink">
<g id="graph0" class="graph" transform="scale(1 1) rotate(0) translate(4 78)">
<title>src/irgen/irgen.h</title>
<polygon fill="#ffffff" stroke="transparent" points="-4,4 -4,-78 220.3643,-78 220.3643,4 -4,4"/>
<!-- Node3 -->
<g id="node1" class="node">
<title>Node3</title>
<polygon fill="#bfbfbf" stroke="#000000" points="64.3843,-55.5 64.3843,-73.5 152.0835,-73.5 152.0835,-55.5 64.3843,-55.5"/>
<text text-anchor="middle" x="108.2339" y="-61.5" font-family="Helvetica,sans-Serif" font-size="10.00" fill="#000000">src/irgen/irgen.h</text>
</g>
<!-- Node4 -->
<g id="node2" class="node">
<title>Node4</title>
<g id="a_node2"><a xlink:href="main_8cpp.html" target="_top" xlink:title="src/driver/main.cpp">
<polygon fill="#ffffff" stroke="#000000" points="0,-.5 0,-18.5 100.4678,-18.5 100.4678,-.5 0,-.5"/>
<text text-anchor="middle" x="50.2339" y="-6.5" font-family="Helvetica,sans-Serif" font-size="10.00" fill="#000000">src/driver/main.cpp</text>
</a>
</g>
</g>
<!-- Node3&#45;&gt;Node4 -->
<g id="edge1" class="edge">
<title>Node3&#45;&gt;Node4</title>
<path fill="none" stroke="#191970" d="M91.1494,-48.2992C81.0084,-38.6828 68.5143,-26.8349 60.0195,-18.7795"/>
<polygon fill="#191970" stroke="#191970" points="88.9918,-51.0766 98.6564,-55.4179 93.8084,-45.9972 88.9918,-51.0766"/>
</g>
<!-- Node5 -->
<g id="node3" class="node">
<title>Node5</title>
<g id="a_node3"><a xlink:href="irgen_8cpp.html" target="_top" xlink:title="src/irgen/irgen.cpp">
<polygon fill="#ffffff" stroke="#000000" points="118.1035,-.5 118.1035,-18.5 216.3643,-18.5 216.3643,-.5 118.1035,-.5"/>
<text text-anchor="middle" x="167.2339" y="-6.5" font-family="Helvetica,sans-Serif" font-size="10.00" fill="#000000">src/irgen/irgen.cpp</text>
</a>
</g>
</g>
<!-- Node3&#45;&gt;Node5 -->
<g id="edge2" class="edge">
<title>Node3&#45;&gt;Node5</title>
<path fill="none" stroke="#191970" d="M125.3073,-48.5841C135.6767,-38.9177 148.5527,-26.9147 157.2796,-18.7795"/>
<polygon fill="#191970" stroke="#191970" points="122.9047,-46.0389 117.9765,-55.4179 127.6778,-51.1592 122.9047,-46.0389"/>
</g>
</g>
</svg>
