<?xml version="1.0" encoding="UTF-8" standalone="no"?>
<!DOCTYPE svg PUBLIC "-//W3C//DTD SVG 1.1//EN"
 "http://www.w3.org/Graphics/SVG/1.1/DTD/svg11.dtd">
<!-- Generated by graphviz version 2.40.1 (20161225.0304)
 -->
<!-- Title: src/irgen/irgen.cpp Pages: 1 -->
<svg width="1472pt" height="302pt"
 viewBox="0.00 0.00 1472.48 302.00" xmlns="http://www.w3.org/2000/svg" xmlns:xlink="http://www.w3.org/1999/xlink">
<g id="graph0" class="graph" transform="scale(1 1) rotate(0) translate(4 298)">
<title>src/irgen/irgen.cpp</title>
<polygon fill="#ffffff" stroke="transparent" points="-4,4 -4,-298 1468.4751,-298 1468.4751,4 -4,4"/>
<!-- Node0 -->
<g id="node1" class="node">
<title>Node0</title>
<polygon fill="#bfbfbf" stroke="#000000" points="727.1724,-275.5 727.1724,-293.5 825.4331,-293.5 825.4331,-275.5 727.1724,-275.5"/>
<text text-anchor="middle" x="776.3027" y="-281.5" font-family="Helvetica,sans-Serif" font-size="10.00" fill="#000000">src/irgen/irgen.cpp</text>
</g>
<!-- Node1 -->
<g id="node2" class="node">
<title>Node1</title>
<polygon fill="#ffffff" stroke="#bfbfbf" points="0,-220.5 0,-238.5 86.6055,-238.5 86.6055,-220.5 0,-220.5"/>
<text text-anchor="middle" x="43.3027" y="-226.5" font-family="Helvetica,sans-Serif" font-size="10.00" fill="#000000">unordered_map</text>
</g>
<!-- Node0&#45;&gt;Node1 -->
<g id="edge1" class="edge">
<title>Node0&#45;&gt;Node1</title>
<path fill="none" stroke="#191970" d="M726.9559,-282.8355C615.1299,-278.7015 333.9702,-266.2697 100.3027,-239 99.2066,-238.8721 98.0995,-238.7376 96.9842,-238.5974"/>
<polygon fill="#191970" stroke="#191970" points="97.1924,-235.0933 86.8095,-237.2018 96.2412,-242.0283 97.1924,-235.0933"/>
</g>
<!-- Node2 -->
<g id="node3" class="node">
<title>Node2</title>
<polygon fill="#ffffff" stroke="#bfbfbf" points="717.687,-.5 717.687,-18.5 760.9185,-18.5 760.9185,-.5 717.687,-.5"/>
<text text-anchor="middle" x="739.3027" y="-6.5" font-family="Helvetica,sans-Serif" font-size="10.00" fill="#000000">vector</text>
</g>
<!-- Node0&#45;&gt;Node2 -->
<g id="edge2" class="edge">
<title>Node0&#45;&gt;Node2</title>
<path fill="none" stroke="#191970" d="M726.9355,-284.1975C584.3597,-282.8861 179.1895,-275.9163 133.3027,-239 110.0181,-220.2673 114.3027,-204.3846 114.3027,-174.5 114.3027,-174.5 114.3027,-174.5 114.3027,-119.5 114.3027,-58.6797 579.304,-20.9409 707.1277,-11.7159"/>
<polygon fill="#191970" stroke="#191970" points="707.6992,-15.1842 717.4251,-10.9821 707.2016,-8.2019 707.6992,-15.1842"/>
</g>
<!-- Node3 -->
<g id="node4" class="node">
<title>Node3</title>
<polygon fill="#ffffff" stroke="#bfbfbf" points="142.187,-220.5 142.187,-238.5 190.4185,-238.5 190.4185,-220.5 142.187,-220.5"/>
<text text-anchor="middle" x="166.3027" y="-226.5" font-family="Helvetica,sans-Serif" font-size="10.00" fill="#000000">cassert</text>
</g>
<!-- Node0&#45;&gt;Node3 -->
<g id="edge3" class="edge">
<title>Node0&#45;&gt;Node3</title>
<path fill="none" stroke="#191970" d="M727.0365,-281.8957C610.199,-275.5193 317.9508,-258.3452 200.8,-238.8799"/>
<polygon fill="#191970" stroke="#191970" points="201.1342,-235.3854 190.6809,-237.1115 199.929,-242.2808 201.1342,-235.3854"/>
</g>
<!-- Node4 -->
<g id="node5" class="node">
<title>Node4</title>
<polygon fill="#ffffff" stroke="#bfbfbf" points="208.1279,-220.5 208.1279,-238.5 322.4775,-238.5 322.4775,-220.5 208.1279,-220.5"/>
<text text-anchor="middle" x="265.3027" y="-226.5" font-family="Helvetica,sans-Serif" font-size="10.00" fill="#000000">llvm/ADT/STLExtras.h</text>
</g>
<!-- Node0&#45;&gt;Node4 -->
<g id="edge4" class="edge">
<title>Node0&#45;&gt;Node4</title>
<path fill="none" stroke="#191970" d="M727.1715,-280.1413C646.9193,-272.8759 482.4633,-257.38 332.8119,-239.1439"/>
<polygon fill="#191970" stroke="#191970" points="332.8725,-235.6252 322.521,-237.8826 332.0209,-242.5732 332.8725,-235.6252"/>
</g>
<!-- Node5 -->
<g id="node6" class="node">
<title>Node5</title>
<polygon fill="#ffffff" stroke="#bfbfbf" points="340.1084,-220.5 340.1084,-238.5 484.4971,-238.5 484.4971,-220.5 340.1084,-220.5"/>
<text text-anchor="middle" x="412.3027" y="-226.5" font-family="Helvetica,sans-Serif" font-size="10.00" fill="#000000">llvm/Support/ErrorHandling.h</text>
</g>
<!-- Node0&#45;&gt;Node5 -->
<g id="edge5" class="edge">
<title>Node0&#45;&gt;Node5</title>
<path fill="none" stroke="#191970" d="M726.8333,-277.0252C663.6556,-267.4791 553.9426,-250.9016 482.2337,-240.0665"/>
<polygon fill="#191970" stroke="#191970" points="482.3502,-236.5444 471.9395,-238.5111 481.3044,-243.4659 482.3502,-236.5444"/>
</g>
<!-- Node6 -->
<g id="node7" class="node">
<title>Node6</title>
<polygon fill="#ffffff" stroke="#bfbfbf" points="502.1772,-220.5 502.1772,-238.5 600.4282,-238.5 600.4282,-220.5 502.1772,-220.5"/>
<text text-anchor="middle" x="551.3027" y="-226.5" font-family="Helvetica,sans-Serif" font-size="10.00" fill="#000000">llvm/IR/IRBuilder.h</text>
</g>
<!-- Node0&#45;&gt;Node6 -->
<g id="edge6" class="edge">
<title>Node0&#45;&gt;Node6</title>
<path fill="none" stroke="#191970" d="M739.4005,-275.4795C700.8168,-266.0479 640.1524,-251.2188 598.1983,-240.9634"/>
<polygon fill="#191970" stroke="#191970" points="598.7702,-237.5002 588.2251,-238.5255 597.108,-244.3 598.7702,-237.5002"/>
</g>
<!-- Node7 -->
<g id="node8" class="node">
<title>Node7</title>
<polygon fill="#ffffff" stroke="#bfbfbf" points="618.2905,-220.5 618.2905,-238.5 714.3149,-238.5 714.3149,-220.5 618.2905,-220.5"/>
<text text-anchor="middle" x="666.3027" y="-226.5" font-family="Helvetica,sans-Serif" font-size="10.00" fill="#000000">llvm/IR/Function.h</text>
</g>
<!-- Node0&#45;&gt;Node7 -->
<g id="edge7" class="edge">
<title>Node0&#45;&gt;Node7</title>
<path fill="none" stroke="#191970" d="M758.1385,-275.4179C740.5437,-266.6205 713.6409,-253.1691 693.4939,-243.0956"/>
<polygon fill="#191970" stroke="#191970" points="695.0035,-239.9373 684.494,-238.5956 691.873,-246.1983 695.0035,-239.9373"/>
</g>
<!-- Node8 -->
<g id="node9" class="node">
<title>Node8</title>
<polygon fill="#ffffff" stroke="#bfbfbf" points="732.1772,-220.5 732.1772,-238.5 820.4282,-238.5 820.4282,-220.5 732.1772,-220.5"/>
<text text-anchor="middle" x="776.3027" y="-226.5" font-family="Helvetica,sans-Serif" font-size="10.00" fill="#000000">llvm/IR/Verifier.h</text>
</g>
<!-- Node0&#45;&gt;Node8 -->
<g id="edge8" class="edge">
<title>Node0&#45;&gt;Node8</title>
<path fill="none" stroke="#191970" d="M776.3027,-275.4179C776.3027,-268.2164 776.3027,-257.8962 776.3027,-248.8632"/>
<polygon fill="#191970" stroke="#191970" points="779.8028,-248.7794 776.3027,-238.7795 772.8028,-248.7795 779.8028,-248.7794"/>
</g>
<!-- Node9 -->
<g id="node10" class="node">
<title>Node9</title>
<g id="a_node10"><a xlink:href="irgen_8h.html" target="_top" xlink:title="irgen.h">
<polygon fill="#ffffff" stroke="#000000" points="701.0146,-110.5 701.0146,-128.5 747.5908,-128.5 747.5908,-110.5 701.0146,-110.5"/>
<text text-anchor="middle" x="724.3027" y="-116.5" font-family="Helvetica,sans-Serif" font-size="10.00" fill="#000000">irgen.h</text>
</a>
</g>
</g>
<!-- Node0&#45;&gt;Node9 -->
<g id="edge9" class="edge">
<title>Node0&#45;&gt;Node9</title>
<path fill="none" stroke="#191970" d="M799.7462,-275.4412C824.9478,-264.2463 859.5971,-243.7415 845.3027,-220 827.6641,-190.7039 803.7865,-205.6332 777.3027,-184 760.7289,-170.4617 745.6421,-151.083 735.8407,-137.105"/>
<polygon fill="#191970" stroke="#191970" points="738.7195,-135.1142 730.2006,-128.8151 732.932,-139.0518 738.7195,-135.1142"/>
</g>
<!-- Node11 -->
<g id="node12" class="node">
<title>Node11</title>
<g id="a_node12"><a xlink:href="mangle_8h.html" target="_top" xlink:title="mangle.h">
<polygon fill="#ffffff" stroke="#000000" points="1255.7339,-165.5 1255.7339,-183.5 1312.8716,-183.5 1312.8716,-165.5 1255.7339,-165.5"/>
<text text-anchor="middle" x="1284.3027" y="-171.5" font-family="Helvetica,sans-Serif" font-size="10.00" fill="#000000">mangle.h</text>
</a>
</g>
</g>
<!-- Node0&#45;&gt;Node11 -->
<g id="edge12" class="edge">
<title>Node0&#45;&gt;Node11</title>
<path fill="none" stroke="#191970" d="M825.7221,-282.6048C894.8093,-278.9535 1023.6585,-268.4799 1129.3027,-239 1149.4275,-233.3842 1153.0664,-228.1551 1172.3027,-220 1199.0659,-208.654 1229.6537,-196.2666 1252.0936,-187.2857"/>
<polygon fill="#191970" stroke="#191970" points="1253.4927,-190.4959 1261.4817,-183.5369 1250.8968,-183.995 1253.4927,-190.4959"/>
</g>
<!-- Node13 -->
<g id="node14" class="node">
<title>Node13</title>
<g id="a_node14"><a xlink:href="typecheck_8h.html" target="_top" xlink:title="../sema/typecheck.h">
<polygon fill="#ffffff" stroke="#000000" points="620.8374,-165.5 620.8374,-183.5 725.7681,-183.5 725.7681,-165.5 620.8374,-165.5"/>
<text text-anchor="middle" x="673.3027" y="-171.5" font-family="Helvetica,sans-Serif" font-size="10.00" fill="#000000">../sema/typecheck.h</text>
</a>
</g>
</g>
<!-- Node0&#45;&gt;Node13 -->
<g id="edge14" class="edge">
<title>Node0&#45;&gt;Node13</title>
<path fill="none" stroke="#191970" d="M793.4336,-275.3085C814.166,-262.9811 844.5208,-240.2908 829.3027,-220 817.7654,-204.6169 774.2814,-192.7151 736.145,-184.9489"/>
<polygon fill="#191970" stroke="#191970" points="736.5638,-181.4642 726.076,-182.9665 735.2115,-188.3324 736.5638,-181.4642"/>
</g>
<!-- Node14 -->
<g id="node15" class="node">
<title>Node14</title>
<g id="a_node15"><a xlink:href="expr_8h.html" target="_top" xlink:title="../ast/expr.h">
<polygon fill="#ffffff" stroke="#000000" points="957.4531,-110.5 957.4531,-128.5 1025.1523,-128.5 1025.1523,-110.5 957.4531,-110.5"/>
<text text-anchor="middle" x="991.3027" y="-116.5" font-family="Helvetica,sans-Serif" font-size="10.00" fill="#000000">../ast/expr.h</text>
</a>
</g>
</g>
<!-- Node0&#45;&gt;Node14 -->
<g id="edge16" class="edge">
<title>Node0&#45;&gt;Node14</title>
<path fill="none" stroke="#191970" d="M825.7153,-276.9621C908.2469,-263.1653 1067.9285,-230.8938 1096.3027,-184 1113.5126,-155.5574 1071.1434,-137.8792 1035.1827,-128.3771"/>
<polygon fill="#191970" stroke="#191970" points="1035.8137,-124.9275 1025.2647,-125.9117 1034.125,-131.7208 1035.8137,-124.9275"/>
</g>
<!-- Node23 -->
<g id="node24" class="node">
<title>Node23</title>
<g id="a_node24"><a xlink:href="decl_8h.html" target="_top" xlink:title="../ast/decl.h">
<polygon fill="#ffffff" stroke="#000000" points="914.7339,-220.5 914.7339,-238.5 981.8716,-238.5 981.8716,-220.5 914.7339,-220.5"/>
<text text-anchor="middle" x="948.3027" y="-226.5" font-family="Helvetica,sans-Serif" font-size="10.00" fill="#000000">../ast/decl.h</text>
</a>
</g>
</g>
<!-- Node0&#45;&gt;Node23 -->
<g id="edge30" class="edge">
<title>Node0&#45;&gt;Node23</title>
<path fill="none" stroke="#191970" d="M804.705,-275.4179C833.5478,-266.1949 878.3872,-251.8567 910.2807,-241.6582"/>
<polygon fill="#191970" stroke="#191970" points="911.6853,-244.8837 920.1441,-238.5042 909.5532,-238.2163 911.6853,-244.8837"/>
</g>
<!-- Node26 -->
<g id="node27" class="node">
<title>Node26</title>
<polygon fill="#ffffff" stroke="#bfbfbf" points="1180.9434,-220.5 1180.9434,-238.5 1283.6621,-238.5 1283.6621,-220.5 1180.9434,-220.5"/>
<text text-anchor="middle" x="1232.3027" y="-226.5" font-family="Helvetica,sans-Serif" font-size="10.00" fill="#000000">../parser/parser.hpp</text>
</g>
<!-- Node0&#45;&gt;Node26 -->
<g id="edge42" class="edge">
<title>Node0&#45;&gt;Node26</title>
<path fill="none" stroke="#191970" d="M825.7384,-279.2167C899.9829,-271.1757 1044.6589,-255.0949 1167.3027,-239 1168.4052,-238.8553 1169.518,-238.7079 1170.6388,-238.5581"/>
<polygon fill="#191970" stroke="#191970" points="1171.4413,-241.981 1180.8748,-237.1582 1170.4927,-235.0456 1171.4413,-241.981"/>
</g>
<!-- Node27 -->
<g id="node28" class="node">
<title>Node27</title>
<g id="a_node28"><a xlink:href="utility_8h.html" target="_top" xlink:title="../driver/utility.h">
<polygon fill="#ffffff" stroke="#000000" points="1300.0508,-110.5 1300.0508,-128.5 1382.5547,-128.5 1382.5547,-110.5 1300.0508,-110.5"/>
<text text-anchor="middle" x="1341.3027" y="-116.5" font-family="Helvetica,sans-Serif" font-size="10.00" fill="#000000">../driver/utility.h</text>
</a>
</g>
</g>
<!-- Node0&#45;&gt;Node27 -->
<g id="edge43" class="edge">
<title>Node0&#45;&gt;Node27</title>
<path fill="none" stroke="#191970" d="M825.8784,-282.7744C947.5531,-278.1678 1253.837,-264.1851 1292.3027,-239 1326.103,-216.8696 1336.5974,-166.6961 1339.8488,-138.9158"/>
<polygon fill="#191970" stroke="#191970" points="1343.3443,-139.1308 1340.8223,-128.8405 1336.3767,-138.4576 1343.3443,-139.1308"/>
</g>
<!-- Node9&#45;&gt;Node2 -->
<g id="edge10" class="edge">
<title>Node9&#45;&gt;Node2</title>
<path fill="none" stroke="#191970" d="M725.5302,-110.4982C727.9585,-92.6913 733.4224,-52.6225 736.6912,-28.6515"/>
<polygon fill="#191970" stroke="#191970" points="740.1749,-29.0074 738.0583,-18.6261 733.2391,-28.0615 740.1749,-29.0074"/>
</g>
<!-- Node10 -->
<g id="node11" class="node">
<title>Node10</title>
<polygon fill="#ffffff" stroke="#bfbfbf" points="828.2461,-55.5 828.2461,-73.5 880.3594,-73.5 880.3594,-55.5 828.2461,-55.5"/>
<text text-anchor="middle" x="854.3027" y="-61.5" font-family="Helvetica,sans-Serif" font-size="10.00" fill="#000000">memory</text>
</g>
<!-- Node9&#45;&gt;Node10 -->
<g id="edge11" class="edge">
<title>Node9&#45;&gt;Node10</title>
<path fill="none" stroke="#191970" d="M745.7696,-110.4179C766.9397,-101.4613 799.5121,-87.6806 823.4526,-77.552"/>
<polygon fill="#191970" stroke="#191970" points="824.9581,-80.7155 832.804,-73.5956 822.2305,-74.2687 824.9581,-80.7155"/>
</g>
<!-- Node12 -->
<g id="node13" class="node">
<title>Node12</title>
<polygon fill="#ffffff" stroke="#bfbfbf" points="1112.0762,-.5 1112.0762,-18.5 1152.5293,-18.5 1152.5293,-.5 1112.0762,-.5"/>
<text text-anchor="middle" x="1132.3027" y="-6.5" font-family="Helvetica,sans-Serif" font-size="10.00" fill="#000000">string</text>
</g>
<!-- Node11&#45;&gt;Node12 -->
<g id="edge13" class="edge">
<title>Node11&#45;&gt;Node12</title>
<path fill="none" stroke="#191970" d="M1277.472,-165.3992C1261.8902,-144.8582 1222.1366,-93.6769 1184.3027,-55 1174.0794,-44.5489 1161.8046,-33.7364 1151.7487,-25.2752"/>
<polygon fill="#191970" stroke="#191970" points="1153.849,-22.4701 1143.9173,-18.7805 1149.3805,-27.8583 1153.849,-22.4701"/>
</g>
<!-- Node13&#45;&gt;Node2 -->
<g id="edge15" class="edge">
<title>Node13&#45;&gt;Node2</title>
<path fill="none" stroke="#191970" d="M675.578,-165.1695C678.7752,-152.4953 685.0274,-129.2144 692.3027,-110 703.4545,-80.5478 719.533,-47.722 729.6963,-27.8455"/>
<polygon fill="#191970" stroke="#191970" points="732.9315,-29.2088 734.4144,-18.7182 726.7132,-25.9943 732.9315,-29.2088"/>
</g>
<!-- Node14&#45;&gt;Node2 -->
<g id="edge19" class="edge">
<title>Node14&#45;&gt;Node2</title>
<path fill="none" stroke="#191970" d="M979.3593,-110.4119C960.9166,-96.7435 924.0007,-70.8152 889.3027,-55 841.4068,-33.1692 824.3795,-35.1022 770.6306,-19.3147"/>
<polygon fill="#191970" stroke="#191970" points="771.5051,-15.9229 760.9205,-16.3888 769.4854,-22.6252 771.5051,-15.9229"/>
</g>
<!-- Node14&#45;&gt;Node10 -->
<g id="edge18" class="edge">
<title>Node14&#45;&gt;Node10</title>
<path fill="none" stroke="#191970" d="M968.68,-110.4179C946.2707,-101.4215 911.7383,-87.5581 886.4782,-77.4172"/>
<polygon fill="#191970" stroke="#191970" points="887.5432,-74.0732 876.9591,-73.5956 884.9352,-80.5693 887.5432,-74.0732"/>
</g>
<!-- Node14&#45;&gt;Node12 -->
<g id="edge17" class="edge">
<title>Node14&#45;&gt;Node12</title>
<path fill="none" stroke="#191970" d="M1025.391,-115.2129C1052.7785,-110.0125 1090.3399,-98.6417 1113.3027,-74 1124.7318,-61.7353 1129.3172,-42.9333 1131.1406,-28.7882"/>
<polygon fill="#191970" stroke="#191970" points="1134.6417,-28.9389 1132.0886,-18.6563 1127.6721,-28.2867 1134.6417,-28.9389"/>
</g>
<!-- Node15 -->
<g id="node16" class="node">
<title>Node15</title>
<g id="a_node16"><a xlink:href="type_8h.html" target="_top" xlink:title="type.h">
<polygon fill="#ffffff" stroke="#000000" points="936.6821,-55.5 936.6821,-73.5 979.9233,-73.5 979.9233,-55.5 936.6821,-55.5"/>
<text text-anchor="middle" x="958.3027" y="-61.5" font-family="Helvetica,sans-Serif" font-size="10.00" fill="#000000">type.h</text>
</a>
</g>
</g>
<!-- Node14&#45;&gt;Node15 -->
<g id="edge20" class="edge">
<title>Node14&#45;&gt;Node15</title>
<path fill="none" stroke="#191970" d="M985.8535,-110.4179C981.2951,-102.8207 974.6543,-91.7527 969.0347,-82.3866"/>
<polygon fill="#191970" stroke="#191970" points="972.0166,-80.5536 963.8704,-73.7795 966.0142,-84.1552 972.0166,-80.5536"/>
</g>
<!-- Node20 -->
<g id="node21" class="node">
<title>Node20</title>
<g id="a_node21"><a xlink:href="srcloc_8h.html" target="_top" xlink:title="srcloc.h">
<polygon fill="#ffffff" stroke="#000000" points="1236.0762,-55.5 1236.0762,-73.5 1286.5293,-73.5 1286.5293,-55.5 1236.0762,-55.5"/>
<text text-anchor="middle" x="1261.3027" y="-61.5" font-family="Helvetica,sans-Serif" font-size="10.00" fill="#000000">srcloc.h</text>
</a>
</g>
</g>
<!-- Node14&#45;&gt;Node20 -->
<g id="edge27" class="edge">
<title>Node14&#45;&gt;Node20</title>
<path fill="none" stroke="#191970" d="M1025.225,-112.5899C1076.6115,-102.1223 1173.7152,-82.3419 1225.9408,-71.7034"/>
<polygon fill="#191970" stroke="#191970" points="1226.6606,-75.1287 1235.7607,-69.703 1225.2633,-68.2696 1226.6606,-75.1287"/>
</g>
<!-- Node22 -->
<g id="node23" class="node">
<title>Node22</title>
<g id="a_node23"><a xlink:href="operators_8h.html" target="_top" xlink:title="../parser/operators.h">
<polygon fill="#ffffff" stroke="#000000" points="998.2808,-55.5 998.2808,-73.5 1104.3247,-73.5 1104.3247,-55.5 998.2808,-55.5"/>
<text text-anchor="middle" x="1051.3027" y="-61.5" font-family="Helvetica,sans-Serif" font-size="10.00" fill="#000000">../parser/operators.h</text>
</a>
</g>
</g>
<!-- Node14&#45;&gt;Node22 -->
<g id="edge29" class="edge">
<title>Node14&#45;&gt;Node22</title>
<path fill="none" stroke="#191970" d="M1001.2105,-110.4179C1010.0164,-102.3458 1023.0966,-90.3556 1033.6827,-80.6517"/>
<polygon fill="#191970" stroke="#191970" points="1036.1732,-83.1168 1041.1797,-73.7795 1031.4431,-77.9567 1036.1732,-83.1168"/>
</g>
<!-- Node15&#45;&gt;Node2 -->
<g id="edge21" class="edge">
<title>Node15&#45;&gt;Node2</title>
<path fill="none" stroke="#191970" d="M936.625,-58.6785C931.9097,-57.4405 926.9437,-56.1581 922.3027,-55 857.569,-38.8461 838.3563,-37.6384 771.03,-19.343"/>
<polygon fill="#191970" stroke="#191970" points="771.7707,-15.9169 761.2009,-16.6447 769.9175,-22.6672 771.7707,-15.9169"/>
</g>
<!-- Node15&#45;&gt;Node12 -->
<g id="edge22" class="edge">
<title>Node15&#45;&gt;Node12</title>
<path fill="none" stroke="#191970" d="M979.9881,-57.6454C1010.833,-47.8956 1067.4903,-29.9867 1102.3328,-18.9733"/>
<polygon fill="#191970" stroke="#191970" points="1103.4874,-22.2791 1111.9675,-15.9278 1101.3776,-15.6046 1103.4874,-22.2791"/>
</g>
<!-- Node16 -->
<g id="node17" class="node">
<title>Node16</title>
<polygon fill="#ffffff" stroke="#bfbfbf" points="1038.2412,-.5 1038.2412,-18.5 1090.3643,-18.5 1090.3643,-.5 1038.2412,-.5"/>
<text text-anchor="middle" x="1064.3027" y="-6.5" font-family="Helvetica,sans-Serif" font-size="10.00" fill="#000000">ostream</text>
</g>
<!-- Node15&#45;&gt;Node16 -->
<g id="edge23" class="edge">
<title>Node15&#45;&gt;Node16</title>
<path fill="none" stroke="#191970" d="M975.8065,-55.4179C992.6847,-46.6603 1018.4515,-33.2907 1037.8364,-23.2326"/>
<polygon fill="#191970" stroke="#191970" points="1039.5087,-26.308 1046.773,-18.5956 1036.2847,-20.0946 1039.5087,-26.308"/>
</g>
<!-- Node17 -->
<g id="node18" class="node">
<title>Node17</title>
<polygon fill="#ffffff" stroke="#bfbfbf" points="778.7412,-.5 778.7412,-18.5 885.8643,-18.5 885.8643,-.5 778.7412,-.5"/>
<text text-anchor="middle" x="832.3027" y="-6.5" font-family="Helvetica,sans-Serif" font-size="10.00" fill="#000000">llvm/ADT/ArrayRef.h</text>
</g>
<!-- Node15&#45;&gt;Node17 -->
<g id="edge24" class="edge">
<title>Node15&#45;&gt;Node17</title>
<path fill="none" stroke="#191970" d="M937.4964,-55.4179C917.0688,-46.5011 885.6879,-32.803 862.5135,-22.6873"/>
<polygon fill="#191970" stroke="#191970" points="863.7051,-19.3885 853.14,-18.5956 860.9047,-25.804 863.7051,-19.3885"/>
</g>
<!-- Node18 -->
<g id="node19" class="node">
<title>Node18</title>
<polygon fill="#ffffff" stroke="#bfbfbf" points="1170.6255,-.5 1170.6255,-18.5 1279.98,-18.5 1279.98,-.5 1170.6255,-.5"/>
<text text-anchor="middle" x="1225.3027" y="-6.5" font-family="Helvetica,sans-Serif" font-size="10.00" fill="#000000">llvm/ADT/StringRef.h</text>
</g>
<!-- Node15&#45;&gt;Node18 -->
<g id="edge25" class="edge">
<title>Node15&#45;&gt;Node18</title>
<path fill="none" stroke="#191970" d="M980.237,-57.4609C983.2684,-56.5812 986.3531,-55.7341 989.3027,-55 1046.7629,-40.7 1113.0365,-28.2727 1160.6967,-20.036"/>
<polygon fill="#191970" stroke="#191970" points="1161.3096,-23.482 1170.5745,-18.3428 1160.1269,-16.5827 1161.3096,-23.482"/>
</g>
<!-- Node19 -->
<g id="node20" class="node">
<title>Node19</title>
<polygon fill="#ffffff" stroke="#bfbfbf" points="904.0024,-.5 904.0024,-18.5 1020.603,-18.5 1020.603,-.5 904.0024,-.5"/>
<text text-anchor="middle" x="962.3027" y="-6.5" font-family="Helvetica,sans-Serif" font-size="10.00" fill="#000000">llvm/Support/Casting.h</text>
</g>
<!-- Node15&#45;&gt;Node19 -->
<g id="edge26" class="edge">
<title>Node15&#45;&gt;Node19</title>
<path fill="none" stroke="#191970" d="M958.9633,-55.4179C959.487,-48.2164 960.2376,-37.8962 960.8945,-28.8632"/>
<polygon fill="#191970" stroke="#191970" points="964.3932,-29.007 961.6279,-18.7795 957.4116,-28.4992 964.3932,-29.007"/>
</g>
<!-- Node21 -->
<g id="node22" class="node">
<title>Node21</title>
<polygon fill="#ffffff" stroke="#bfbfbf" points="1298.416,-.5 1298.416,-18.5 1342.1895,-18.5 1342.1895,-.5 1298.416,-.5"/>
<text text-anchor="middle" x="1320.3027" y="-6.5" font-family="Helvetica,sans-Serif" font-size="10.00" fill="#000000">climits</text>
</g>
<!-- Node20&#45;&gt;Node21 -->
<g id="edge28" class="edge">
<title>Node20&#45;&gt;Node21</title>
<path fill="none" stroke="#191970" d="M1271.0454,-55.4179C1279.7045,-47.3458 1292.5667,-35.3556 1302.9764,-25.6517"/>
<polygon fill="#191970" stroke="#191970" points="1305.4203,-28.1584 1310.3484,-18.7795 1300.6471,-23.0381 1305.4203,-28.1584"/>
</g>
<!-- Node23&#45;&gt;Node2 -->
<g id="edge33" class="edge">
<title>Node23&#45;&gt;Node2</title>
<path fill="none" stroke="#191970" d="M914.45,-226.3507C883.7254,-221.8145 838.9671,-210.7803 810.3027,-184 764.3685,-141.0849 747.3867,-64.2492 741.7753,-28.6164"/>
<polygon fill="#191970" stroke="#191970" points="745.2211,-27.989 740.3306,-18.5904 738.2926,-28.9874 745.2211,-27.989"/>
</g>
<!-- Node23&#45;&gt;Node10 -->
<g id="edge32" class="edge">
<title>Node23&#45;&gt;Node10</title>
<path fill="none" stroke="#191970" d="M942.9796,-220.1561C927.8564,-193.6101 884.4454,-117.41 864.5213,-82.4369"/>
<polygon fill="#191970" stroke="#191970" points="867.5587,-80.6978 859.5675,-73.7414 861.4765,-84.1628 867.5587,-80.6978"/>
</g>
<!-- Node23&#45;&gt;Node12 -->
<g id="edge31" class="edge">
<title>Node23&#45;&gt;Node12</title>
<path fill="none" stroke="#191970" d="M982.0084,-222.8939C1020.4372,-214.7345 1080.049,-199.9634 1096.3027,-184 1138.7197,-142.3408 1137.7372,-64.8752 1134.613,-28.8505"/>
<polygon fill="#191970" stroke="#191970" points="1138.075,-28.3002 1133.5756,-18.7082 1131.1114,-29.0124 1138.075,-28.3002"/>
</g>
<!-- Node23&#45;&gt;Node14 -->
<g id="edge35" class="edge">
<title>Node23&#45;&gt;Node14</title>
<path fill="none" stroke="#191970" d="M951.8216,-220.4982C958.8455,-202.5302 974.73,-161.8954 984.0691,-138.0046"/>
<polygon fill="#191970" stroke="#191970" points="987.3542,-139.2141 987.7352,-128.6261 980.8346,-136.6655 987.3542,-139.2141"/>
</g>
<!-- Node23&#45;&gt;Node15 -->
<g id="edge40" class="edge">
<title>Node23&#45;&gt;Node15</title>
<path fill="none" stroke="#191970" d="M947.6398,-220.4697C946.3179,-200.487 943.8456,-151.0443 948.3027,-110 949.2512,-101.2659 951.1952,-91.7519 953.1192,-83.6922"/>
<polygon fill="#191970" stroke="#191970" points="956.5588,-84.3677 955.6349,-73.8132 949.7753,-82.6402 956.5588,-84.3677"/>
</g>
<!-- Node23&#45;&gt;Node20 -->
<g id="edge41" class="edge">
<title>Node23&#45;&gt;Node20</title>
<path fill="none" stroke="#191970" d="M982.0771,-226.272C1039.1668,-220.2838 1151.7212,-206.0249 1184.3027,-184 1221.1264,-159.1075 1244.2471,-110.0978 1254.7206,-83.2226"/>
<polygon fill="#191970" stroke="#191970" points="1258.0202,-84.3913 1258.2254,-73.7984 1251.4592,-81.9512 1258.0202,-84.3913"/>
</g>
<!-- Node24 -->
<g id="node25" class="node">
<title>Node24</title>
<polygon fill="#ffffff" stroke="#bfbfbf" points="994.9434,-165.5 994.9434,-183.5 1087.6621,-183.5 1087.6621,-165.5 994.9434,-165.5"/>
<text text-anchor="middle" x="1041.3027" y="-171.5" font-family="Helvetica,sans-Serif" font-size="10.00" fill="#000000">boost/variant.hpp</text>
</g>
<!-- Node23&#45;&gt;Node24 -->
<g id="edge34" class="edge">
<title>Node23&#45;&gt;Node24</title>
<path fill="none" stroke="#191970" d="M963.6598,-220.4179C978.1988,-211.8195 1000.2553,-198.7754 1017.1491,-188.7844"/>
<polygon fill="#191970" stroke="#191970" points="1019.0971,-191.6987 1025.9229,-183.5956 1015.5338,-185.6735 1019.0971,-191.6987"/>
</g>
<!-- Node25 -->
<g id="node26" class="node">
<title>Node25</title>
<g id="a_node26"><a xlink:href="stmt_8h.html" target="_top" xlink:title="stmt.h">
<polygon fill="#ffffff" stroke="#000000" points="819.6895,-165.5 819.6895,-183.5 862.916,-183.5 862.916,-165.5 819.6895,-165.5"/>
<text text-anchor="middle" x="841.3027" y="-171.5" font-family="Helvetica,sans-Serif" font-size="10.00" fill="#000000">stmt.h</text>
</a>
</g>
</g>
<!-- Node23&#45;&gt;Node25 -->
<g id="edge36" class="edge">
<title>Node23&#45;&gt;Node25</title>
<path fill="none" stroke="#191970" d="M930.6339,-220.4179C913.5964,-211.6603 887.5865,-198.2907 868.0188,-188.2326"/>
<polygon fill="#191970" stroke="#191970" points="869.4918,-185.0544 858.9979,-183.5956 866.2916,-191.2801 869.4918,-185.0544"/>
</g>
<!-- Node25&#45;&gt;Node2 -->
<g id="edge37" class="edge">
<title>Node25&#45;&gt;Node2</title>
<path fill="none" stroke="#191970" d="M837.1075,-165.4796C827.4805,-145.1031 802.5996,-94.2368 776.3027,-55 769.5857,-44.9777 761.1593,-34.4847 754.0452,-26.1042"/>
<polygon fill="#191970" stroke="#191970" points="756.6727,-23.7918 747.4805,-18.5235 751.3811,-28.3742 756.6727,-23.7918"/>
</g>
<!-- Node25&#45;&gt;Node10 -->
<g id="edge38" class="edge">
<title>Node25&#45;&gt;Node10</title>
<path fill="none" stroke="#191970" d="M842.3666,-165.4982C844.471,-147.6913 849.2064,-107.6225 852.0394,-83.6515"/>
<polygon fill="#191970" stroke="#191970" points="855.5263,-83.9678 853.2242,-73.6261 848.5746,-83.1462 855.5263,-83.9678"/>
</g>
<!-- Node25&#45;&gt;Node14 -->
<g id="edge39" class="edge">
<title>Node25&#45;&gt;Node14</title>
<path fill="none" stroke="#191970" d="M863.114,-166.5025C887.754,-157.4679 928.1743,-142.6471 957.0386,-132.0635"/>
<polygon fill="#191970" stroke="#191970" points="958.5377,-135.2418 966.7216,-128.5131 956.1279,-128.6696 958.5377,-135.2418"/>
</g>
<!-- Node27&#45;&gt;Node18 -->
<g id="edge46" class="edge">
<title>Node27&#45;&gt;Node18</title>
<path fill="none" stroke="#191970" d="M1336.2747,-110.3489C1328.6603,-97.0554 1313.1822,-72.1243 1295.3027,-55 1282.4601,-42.6997 1265.8495,-31.7389 1252.0323,-23.6587"/>
<polygon fill="#191970" stroke="#191970" points="1253.4204,-20.4226 1242.9934,-18.5439 1249.9729,-26.5149 1253.4204,-20.4226"/>
</g>
<!-- Node27&#45;&gt;Node20 -->
<g id="edge47" class="edge">
<title>Node27&#45;&gt;Node20</title>
<path fill="none" stroke="#191970" d="M1328.0924,-110.4179C1315.8173,-101.9788 1297.3129,-89.257 1282.8919,-79.3426"/>
<polygon fill="#191970" stroke="#191970" points="1284.756,-76.3768 1274.5327,-73.5956 1280.7903,-82.1451 1284.756,-76.3768"/>
</g>
<!-- Node28 -->
<g id="node29" class="node">
<title>Node28</title>
<polygon fill="#ffffff" stroke="#bfbfbf" points="1410.1304,-55.5 1410.1304,-73.5 1464.4751,-73.5 1464.4751,-55.5 1410.1304,-55.5"/>
<text text-anchor="middle" x="1437.3027" y="-61.5" font-family="Helvetica,sans-Serif" font-size="10.00" fill="#000000">iostream</text>
</g>
<!-- Node27&#45;&gt;Node28 -->
<g id="edge44" class="edge">
<title>Node27&#45;&gt;Node28</title>
<path fill="none" stroke="#191970" d="M1357.1552,-110.4179C1372.1632,-101.8195 1394.9312,-88.7754 1412.3699,-78.7844"/>
<polygon fill="#191970" stroke="#191970" points="1414.4898,-81.6037 1421.4267,-73.5956 1411.01,-75.5299 1414.4898,-81.6037"/>
</g>
<!-- Node29 -->
<g id="node30" class="node">
<title>Node29</title>
<polygon fill="#ffffff" stroke="#bfbfbf" points="1342.6328,-55.5 1342.6328,-73.5 1391.9727,-73.5 1391.9727,-55.5 1342.6328,-55.5"/>
<text text-anchor="middle" x="1367.3027" y="-61.5" font-family="Helvetica,sans-Serif" font-size="10.00" fill="#000000">fstream</text>
</g>
<!-- Node27&#45;&gt;Node29 -->
<g id="edge45" class="edge">
<title>Node27&#45;&gt;Node29</title>
<path fill="none" stroke="#191970" d="M1345.5961,-110.4179C1349.1127,-102.9789 1354.2024,-92.2123 1358.5695,-82.9742"/>
<polygon fill="#191970" stroke="#191970" points="1361.8065,-84.316 1362.9161,-73.7795 1355.478,-81.3243 1361.8065,-84.316"/>
</g>
</g>
</svg>
