<?xml version="1.0" encoding="UTF-8" standalone="no"?>
<!DOCTYPE svg PUBLIC "-//W3C//DTD SVG 1.1//EN"
 "http://www.w3.org/Graphics/SVG/1.1/DTD/svg11.dtd">
<!-- Generated by graphviz version 2.40.1 (20161225.0304)
 -->
<!-- Title: src/parser/lexer.cpp Pages: 1 -->
<svg width="572pt" height="192pt"
 viewBox="0.00 0.00 571.51 192.00" xmlns="http://www.w3.org/2000/svg" xmlns:xlink="http://www.w3.org/1999/xlink">
<g id="graph0" class="graph" transform="scale(1 1) rotate(0) translate(4 188)">
<title>src/parser/lexer.cpp</title>
<polygon fill="#ffffff" stroke="transparent" points="-4,4 -4,-188 567.5146,-188 567.5146,4 -4,4"/>
<!-- Node0 -->
<g id="node1" class="node">
<title>Node0</title>
<polygon fill="#bfbfbf" stroke="#000000" points="117.4312,-165.5 117.4312,-183.5 220.6919,-183.5 220.6919,-165.5 117.4312,-165.5"/>
<text text-anchor="middle" x="169.0615" y="-171.5" font-family="Helvetica,sans-Serif" font-size="10.00" fill="#000000">src/parser/lexer.cpp</text>
</g>
<!-- Node1 -->
<g id="node2" class="node">
<title>Node1</title>
<polygon fill="#ffffff" stroke="#bfbfbf" points="0,-110.5 0,-128.5 42.123,-128.5 42.123,-110.5 0,-110.5"/>
<text text-anchor="middle" x="21.0615" y="-116.5" font-family="Helvetica,sans-Serif" font-size="10.00" fill="#000000">cstdio</text>
</g>
<!-- Node0&#45;&gt;Node1 -->
<g id="edge1" class="edge">
<title>Node0&#45;&gt;Node1</title>
<path fill="none" stroke="#191970" d="M144.6223,-165.4179C119.1759,-155.9614 79.2591,-141.1275 51.7158,-130.8918"/>
<polygon fill="#191970" stroke="#191970" points="52.7707,-127.55 42.1778,-127.3473 50.3323,-134.1116 52.7707,-127.55"/>
</g>
<!-- Node2 -->
<g id="node3" class="node">
<title>Node2</title>
<polygon fill="#ffffff" stroke="#bfbfbf" points="59.7588,-110.5 59.7588,-128.5 146.3643,-128.5 146.3643,-110.5 59.7588,-110.5"/>
<text text-anchor="middle" x="103.0615" y="-116.5" font-family="Helvetica,sans-Serif" font-size="10.00" fill="#000000">unordered_map</text>
</g>
<!-- Node0&#45;&gt;Node2 -->
<g id="edge2" class="edge">
<title>Node0&#45;&gt;Node2</title>
<path fill="none" stroke="#191970" d="M158.163,-165.4179C148.3816,-157.2667 133.8057,-145.1201 122.1019,-135.3669"/>
<polygon fill="#191970" stroke="#191970" points="124.1198,-132.4926 114.1969,-128.7795 119.6384,-137.8701 124.1198,-132.4926"/>
</g>
<!-- Node3 -->
<g id="node4" class="node">
<title>Node3</title>
<polygon fill="#ffffff" stroke="#bfbfbf" points="163.8672,-110.5 163.8672,-128.5 308.2559,-128.5 308.2559,-110.5 163.8672,-110.5"/>
<text text-anchor="middle" x="236.0615" y="-116.5" font-family="Helvetica,sans-Serif" font-size="10.00" fill="#000000">llvm/Support/ErrorHandling.h</text>
</g>
<!-- Node0&#45;&gt;Node3 -->
<g id="edge3" class="edge">
<title>Node0&#45;&gt;Node3</title>
<path fill="none" stroke="#191970" d="M180.1252,-165.4179C190.0548,-157.2667 204.8515,-145.1201 216.7327,-135.3669"/>
<polygon fill="#191970" stroke="#191970" points="219.2489,-137.8297 224.7575,-128.7795 214.8074,-132.4192 219.2489,-137.8297"/>
</g>
<!-- Node4 -->
<g id="node5" class="node">
<title>Node4</title>
<g id="a_node5"><a xlink:href="utility_8h.html" target="_top" xlink:title="../driver/utility.h">
<polygon fill="#ffffff" stroke="#000000" points="325.8096,-110.5 325.8096,-128.5 408.3135,-128.5 408.3135,-110.5 325.8096,-110.5"/>
<text text-anchor="middle" x="367.0615" y="-116.5" font-family="Helvetica,sans-Serif" font-size="10.00" fill="#000000">../driver/utility.h</text>
</a>
</g>
</g>
<!-- Node0&#45;&gt;Node4 -->
<g id="edge4" class="edge">
<title>Node0&#45;&gt;Node4</title>
<path fill="none" stroke="#191970" d="M201.7572,-165.4179C235.3911,-156.0751 287.9212,-141.4834 324.7148,-131.263"/>
<polygon fill="#191970" stroke="#191970" points="325.948,-134.553 334.6464,-128.5042 324.0744,-127.8084 325.948,-134.553"/>
</g>
<!-- Node5 -->
<g id="node6" class="node">
<title>Node5</title>
<polygon fill="#ffffff" stroke="#bfbfbf" points="221.8892,-55.5 221.8892,-73.5 276.2339,-73.5 276.2339,-55.5 221.8892,-55.5"/>
<text text-anchor="middle" x="249.0615" y="-61.5" font-family="Helvetica,sans-Serif" font-size="10.00" fill="#000000">iostream</text>
</g>
<!-- Node4&#45;&gt;Node5 -->
<g id="edge5" class="edge">
<title>Node4&#45;&gt;Node5</title>
<path fill="none" stroke="#191970" d="M347.5762,-110.4179C328.5311,-101.5409 299.3193,-87.9253 277.6453,-77.823"/>
<polygon fill="#191970" stroke="#191970" points="279.1182,-74.648 268.5758,-73.5956 276.1609,-80.9927 279.1182,-74.648"/>
</g>
<!-- Node6 -->
<g id="node7" class="node">
<title>Node6</title>
<polygon fill="#ffffff" stroke="#bfbfbf" points="294.3916,-55.5 294.3916,-73.5 343.7314,-73.5 343.7314,-55.5 294.3916,-55.5"/>
<text text-anchor="middle" x="319.0615" y="-61.5" font-family="Helvetica,sans-Serif" font-size="10.00" fill="#000000">fstream</text>
</g>
<!-- Node4&#45;&gt;Node6 -->
<g id="edge6" class="edge">
<title>Node4&#45;&gt;Node6</title>
<path fill="none" stroke="#191970" d="M359.1353,-110.4179C352.2978,-102.5833 342.239,-91.0575 333.9098,-81.5137"/>
<polygon fill="#191970" stroke="#191970" points="336.3723,-79.0123 327.16,-73.7795 331.0983,-83.6151 336.3723,-79.0123"/>
</g>
<!-- Node7 -->
<g id="node8" class="node">
<title>Node7</title>
<polygon fill="#ffffff" stroke="#bfbfbf" points="361.3843,-55.5 361.3843,-73.5 470.7388,-73.5 470.7388,-55.5 361.3843,-55.5"/>
<text text-anchor="middle" x="416.0615" y="-61.5" font-family="Helvetica,sans-Serif" font-size="10.00" fill="#000000">llvm/ADT/StringRef.h</text>
</g>
<!-- Node4&#45;&gt;Node7 -->
<g id="edge7" class="edge">
<title>Node4&#45;&gt;Node7</title>
<path fill="none" stroke="#191970" d="M375.1529,-110.4179C382.1328,-102.5833 392.4012,-91.0575 400.9039,-81.5137"/>
<polygon fill="#191970" stroke="#191970" points="403.7556,-83.5743 407.7944,-73.7795 398.529,-78.9178 403.7556,-83.5743"/>
</g>
<!-- Node8 -->
<g id="node9" class="node">
<title>Node8</title>
<g id="a_node9"><a xlink:href="srcloc_8h.html" target="_top" xlink:title="../ast/srcloc.h">
<polygon fill="#ffffff" stroke="#000000" points="488.6084,-55.5 488.6084,-73.5 563.5146,-73.5 563.5146,-55.5 488.6084,-55.5"/>
<text text-anchor="middle" x="526.0615" y="-61.5" font-family="Helvetica,sans-Serif" font-size="10.00" fill="#000000">../ast/srcloc.h</text>
</a>
</g>
</g>
<!-- Node4&#45;&gt;Node8 -->
<g id="edge8" class="edge">
<title>Node4&#45;&gt;Node8</title>
<path fill="none" stroke="#191970" d="M393.3171,-110.4179C419.8645,-101.2348 461.0717,-86.9807 490.5297,-76.7909"/>
<polygon fill="#191970" stroke="#191970" points="491.7248,-80.081 500.0312,-73.5042 489.4364,-73.4656 491.7248,-80.081"/>
</g>
<!-- Node9 -->
<g id="node10" class="node">
<title>Node9</title>
<polygon fill="#ffffff" stroke="#bfbfbf" points="504.1748,-.5 504.1748,-18.5 547.9482,-18.5 547.9482,-.5 504.1748,-.5"/>
<text text-anchor="middle" x="526.0615" y="-6.5" font-family="Helvetica,sans-Serif" font-size="10.00" fill="#000000">climits</text>
</g>
<!-- Node8&#45;&gt;Node9 -->
<g id="edge9" class="edge">
<title>Node8&#45;&gt;Node9</title>
<path fill="none" stroke="#191970" d="M526.0615,-55.4179C526.0615,-48.2164 526.0615,-37.8962 526.0615,-28.8632"/>
<polygon fill="#191970" stroke="#191970" points="529.5616,-28.7794 526.0615,-18.7795 522.5616,-28.7795 529.5616,-28.7794"/>
</g>
</g>
</svg>
