<?xml version="1.0" encoding="UTF-8" standalone="no"?>
<!DOCTYPE svg PUBLIC "-//W3C//DTD SVG 1.1//EN"
 "http://www.w3.org/Graphics/SVG/1.1/DTD/svg11.dtd">
<!-- Generated by graphviz version 2.40.1 (20161225.0304)
 -->
<!-- Title: src/driver/main.cpp Pages: 1 -->
<svg width="2069pt" height="302pt"
 viewBox="0.00 0.00 2069.04 302.00" xmlns="http://www.w3.org/2000/svg" xmlns:xlink="http://www.w3.org/1999/xlink">
<g id="graph0" class="graph" transform="scale(1 1) rotate(0) translate(4 298)">
<title>src/driver/main.cpp</title>
<polygon fill="#ffffff" stroke="transparent" points="-4,4 -4,-298 2065.0366,-298 2065.0366,4 -4,4"/>
<!-- Node0 -->
<g id="node1" class="node">
<title>Node0</title>
<polygon fill="#bfbfbf" stroke="#000000" points="886.4434,-275.5 886.4434,-293.5 986.9111,-293.5 986.9111,-275.5 886.4434,-275.5"/>
<text text-anchor="middle" x="936.6772" y="-281.5" font-family="Helvetica,sans-Serif" font-size="10.00" fill="#000000">src/driver/main.cpp</text>
</g>
<!-- Node1 -->
<g id="node2" class="node">
<title>Node1</title>
<polygon fill="#ffffff" stroke="#bfbfbf" points="187.5049,-55.5 187.5049,-73.5 241.8496,-73.5 241.8496,-55.5 187.5049,-55.5"/>
<text text-anchor="middle" x="214.6772" y="-61.5" font-family="Helvetica,sans-Serif" font-size="10.00" fill="#000000">iostream</text>
</g>
<!-- Node0&#45;&gt;Node1 -->
<g id="edge1" class="edge">
<title>Node0&#45;&gt;Node1</title>
<path fill="none" stroke="#191970" d="M886.285,-283.0356C805.6058,-279.8254 642.8709,-269.7845 508.6772,-239 438.2466,-222.843 418.2393,-220.1597 355.6772,-184 304.7882,-154.5871 254.5348,-106.0838 230.0617,-80.8685"/>
<polygon fill="#191970" stroke="#191970" points="232.499,-78.3533 223.0537,-73.5538 227.4444,-83.196 232.499,-78.3533"/>
</g>
<!-- Node2 -->
<g id="node3" class="node">
<title>Node2</title>
<polygon fill="#ffffff" stroke="#bfbfbf" points="915.6157,-220.5 915.6157,-238.5 957.7388,-238.5 957.7388,-220.5 915.6157,-220.5"/>
<text text-anchor="middle" x="936.6772" y="-226.5" font-family="Helvetica,sans-Serif" font-size="10.00" fill="#000000">cstdio</text>
</g>
<!-- Node0&#45;&gt;Node2 -->
<g id="edge2" class="edge">
<title>Node0&#45;&gt;Node2</title>
<path fill="none" stroke="#191970" d="M936.6772,-275.4179C936.6772,-268.2164 936.6772,-257.8962 936.6772,-248.8632"/>
<polygon fill="#191970" stroke="#191970" points="940.1773,-248.7794 936.6772,-238.7795 933.1773,-248.7795 940.1773,-248.7794"/>
</g>
<!-- Node3 -->
<g id="node4" class="node">
<title>Node3</title>
<polygon fill="#ffffff" stroke="#bfbfbf" points="768.0615,-.5 768.0615,-18.5 811.293,-18.5 811.293,-.5 768.0615,-.5"/>
<text text-anchor="middle" x="789.6772" y="-6.5" font-family="Helvetica,sans-Serif" font-size="10.00" fill="#000000">vector</text>
</g>
<!-- Node0&#45;&gt;Node3 -->
<g id="edge3" class="edge">
<title>Node0&#45;&gt;Node3</title>
<path fill="none" stroke="#191970" d="M928.1788,-275.2333C920.8701,-266.5871 910.8642,-252.9567 906.6772,-239 904.2508,-230.9117 902.9786,-227.5913 906.6772,-220 918.0482,-196.6617 941.3063,-207.3383 952.6772,-184 966.3768,-155.8824 923.8061,-111.8855 922.6772,-110 907.6703,-84.9336 908.7391,-74.1522 886.6772,-55 867.6048,-38.443 841.4763,-26.6494 821.1421,-19.2242"/>
<polygon fill="#191970" stroke="#191970" points="822.2765,-15.9131 811.6817,-15.9282 819.9734,-22.5234 822.2765,-15.9131"/>
</g>
<!-- Node4 -->
<g id="node5" class="node">
<title>Node4</title>
<polygon fill="#ffffff" stroke="#bfbfbf" points="976.1133,-220.5 976.1133,-238.5 1033.2412,-238.5 1033.2412,-220.5 976.1133,-220.5"/>
<text text-anchor="middle" x="1004.6772" y="-226.5" font-family="Helvetica,sans-Serif" font-size="10.00" fill="#000000">algorithm</text>
</g>
<!-- Node0&#45;&gt;Node4 -->
<g id="edge4" class="edge">
<title>Node0&#45;&gt;Node4</title>
<path fill="none" stroke="#191970" d="M947.9061,-275.4179C958.0817,-267.1876 973.2935,-254.8839 985.4103,-245.0836"/>
<polygon fill="#191970" stroke="#191970" points="987.6304,-247.7895 993.2045,-238.7795 983.2283,-242.3469 987.6304,-247.7895"/>
</g>
<!-- Node5 -->
<g id="node6" class="node">
<title>Node5</title>
<polygon fill="#ffffff" stroke="#bfbfbf" points="0,-.5 0,-18.5 109.3545,-18.5 109.3545,-.5 0,-.5"/>
<text text-anchor="middle" x="54.6772" y="-6.5" font-family="Helvetica,sans-Serif" font-size="10.00" fill="#000000">llvm/ADT/StringRef.h</text>
</g>
<!-- Node0&#45;&gt;Node5 -->
<g id="edge5" class="edge">
<title>Node0&#45;&gt;Node5</title>
<path fill="none" stroke="#191970" d="M886.3531,-283.5641C699.1428,-279.4265 53.6772,-259.0315 53.6772,-174.5 53.6772,-174.5 53.6772,-174.5 53.6772,-119.5 53.6772,-87.7704 54.0984,-50.8948 54.3941,-28.9165"/>
<polygon fill="#191970" stroke="#191970" points="57.8977,-28.6745 54.5382,-18.6264 50.8984,-28.5764 57.8977,-28.6745"/>
</g>
<!-- Node6 -->
<g id="node7" class="node">
<title>Node6</title>
<polygon fill="#ffffff" stroke="#bfbfbf" points="1051.4434,-220.5 1051.4434,-238.5 1141.9111,-238.5 1141.9111,-220.5 1051.4434,-220.5"/>
<text text-anchor="middle" x="1096.6772" y="-226.5" font-family="Helvetica,sans-Serif" font-size="10.00" fill="#000000">llvm/IR/Module.h</text>
</g>
<!-- Node0&#45;&gt;Node6 -->
<g id="edge6" class="edge">
<title>Node0&#45;&gt;Node6</title>
<path fill="none" stroke="#191970" d="M963.098,-275.4179C989.8123,-266.2348 1031.2787,-251.9807 1060.9219,-241.7909"/>
<polygon fill="#191970" stroke="#191970" points="1062.1641,-245.065 1070.4832,-238.5042 1059.8885,-238.4452 1062.1641,-245.065"/>
</g>
<!-- Node7 -->
<g id="node8" class="node">
<title>Node7</title>
<polygon fill="#ffffff" stroke="#bfbfbf" points="1160.1431,-220.5 1160.1431,-238.5 1311.2114,-238.5 1311.2114,-220.5 1160.1431,-220.5"/>
<text text-anchor="middle" x="1235.6772" y="-226.5" font-family="Helvetica,sans-Serif" font-size="10.00" fill="#000000">llvm/IR/LegacyPassManager.h</text>
</g>
<!-- Node0&#45;&gt;Node7 -->
<g id="edge7" class="edge">
<title>Node0&#45;&gt;Node7</title>
<path fill="none" stroke="#191970" d="M985.7162,-275.4795C1037.9652,-265.8684 1120.6844,-250.6525 1176.5134,-240.383"/>
<polygon fill="#191970" stroke="#191970" points="1177.4097,-243.7769 1186.6115,-238.5255 1176.1433,-236.8924 1177.4097,-243.7769"/>
</g>
<!-- Node8 -->
<g id="node9" class="node">
<title>Node8</title>
<polygon fill="#ffffff" stroke="#bfbfbf" points="1329.1504,-220.5 1329.1504,-238.5 1470.2041,-238.5 1470.2041,-220.5 1329.1504,-220.5"/>
<text text-anchor="middle" x="1399.6772" y="-226.5" font-family="Helvetica,sans-Serif" font-size="10.00" fill="#000000">llvm/Target/TargetMachine.h</text>
</g>
<!-- Node0&#45;&gt;Node8 -->
<g id="edge8" class="edge">
<title>Node0&#45;&gt;Node8</title>
<path fill="none" stroke="#191970" d="M987.0001,-278.5655C1058.4399,-270.1345 1193.6527,-254.1543 1318.8913,-239.2117"/>
<polygon fill="#191970" stroke="#191970" points="1319.528,-242.6607 1329.0428,-238.0002 1318.6984,-235.71 1319.528,-242.6607"/>
</g>
<!-- Node9 -->
<g id="node10" class="node">
<title>Node9</title>
<polygon fill="#ffffff" stroke="#bfbfbf" points="1488.4648,-220.5 1488.4648,-238.5 1634.8896,-238.5 1634.8896,-220.5 1488.4648,-220.5"/>
<text text-anchor="middle" x="1561.6772" y="-226.5" font-family="Helvetica,sans-Serif" font-size="10.00" fill="#000000">llvm/Support/TargetRegistry.h</text>
</g>
<!-- Node0&#45;&gt;Node9 -->
<g id="edge9" class="edge">
<title>Node0&#45;&gt;Node9</title>
<path fill="none" stroke="#191970" d="M987.2576,-280.8005C1081.6229,-273.7811 1291.1698,-257.6412 1478.3471,-239.1066"/>
<polygon fill="#191970" stroke="#191970" points="1478.7677,-242.5821 1488.3721,-238.1094 1478.0748,-235.6165 1478.7677,-242.5821"/>
</g>
<!-- Node10 -->
<g id="node11" class="node">
<title>Node10</title>
<polygon fill="#ffffff" stroke="#bfbfbf" points="1652.5371,-220.5 1652.5371,-238.5 1790.8174,-238.5 1790.8174,-220.5 1652.5371,-220.5"/>
<text text-anchor="middle" x="1721.6772" y="-226.5" font-family="Helvetica,sans-Serif" font-size="10.00" fill="#000000">llvm/Support/TargetSelect.h</text>
</g>
<!-- Node0&#45;&gt;Node10 -->
<g id="edge10" class="edge">
<title>Node0&#45;&gt;Node10</title>
<path fill="none" stroke="#191970" d="M987.3349,-282.2316C1101.9979,-276.883 1390.3912,-262.2292 1642.3005,-239.0804"/>
<polygon fill="#191970" stroke="#191970" points="1642.7418,-242.5546 1652.3768,-238.1481 1642.0968,-235.5844 1642.7418,-242.5546"/>
</g>
<!-- Node11 -->
<g id="node12" class="node">
<title>Node11</title>
<polygon fill="#ffffff" stroke="#bfbfbf" points="1808.6035,-220.5 1808.6035,-238.5 1940.751,-238.5 1940.751,-220.5 1808.6035,-220.5"/>
<text text-anchor="middle" x="1874.6772" y="-226.5" font-family="Helvetica,sans-Serif" font-size="10.00" fill="#000000">llvm/Support/FileSystem.h</text>
</g>
<!-- Node0&#45;&gt;Node11 -->
<g id="edge11" class="edge">
<title>Node0&#45;&gt;Node11</title>
<path fill="none" stroke="#191970" d="M987.3507,-283.1266C1119.1848,-279.2752 1483.8907,-266.8451 1798.2305,-239.0662"/>
<polygon fill="#191970" stroke="#191970" points="1798.8023,-242.5293 1808.4524,-238.1559 1798.1813,-235.5569 1798.8023,-242.5293"/>
</g>
<!-- Node12 -->
<g id="node13" class="node">
<title>Node12</title>
<g id="a_node13"><a xlink:href="utility_8h.html" target="_top" xlink:title="utility.h">
<polygon fill="#ffffff" stroke="#000000" points="185.4844,-110.5 185.4844,-128.5 231.8701,-128.5 231.8701,-110.5 185.4844,-110.5"/>
<text text-anchor="middle" x="208.6772" y="-116.5" font-family="Helvetica,sans-Serif" font-size="10.00" fill="#000000">utility.h</text>
</a>
</g>
</g>
<!-- Node0&#45;&gt;Node12 -->
<g id="edge12" class="edge">
<title>Node0&#45;&gt;Node12</title>
<path fill="none" stroke="#191970" d="M886.3218,-282.7389C731.3979,-277.1175 270.7747,-258.8078 245.6772,-239 215.097,-214.865 209.2055,-165.8826 208.4183,-138.7223"/>
<polygon fill="#191970" stroke="#191970" points="211.9169,-138.5258 208.3364,-128.5544 204.9172,-138.5823 211.9169,-138.5258"/>
</g>
<!-- Node16 -->
<g id="node17" class="node">
<title>Node16</title>
<g id="a_node17"><a xlink:href="ast__printer_8h.html" target="_top" xlink:title="../ast/ast_printer.h">
<polygon fill="#ffffff" stroke="#000000" points="325.9312,-110.5 325.9312,-128.5 421.4233,-128.5 421.4233,-110.5 325.9312,-110.5"/>
<text text-anchor="middle" x="373.6772" y="-116.5" font-family="Helvetica,sans-Serif" font-size="10.00" fill="#000000">../ast/ast_printer.h</text>
</a>
</g>
</g>
<!-- Node0&#45;&gt;Node16 -->
<g id="edge18" class="edge">
<title>Node0&#45;&gt;Node16</title>
<path fill="none" stroke="#191970" d="M886.2847,-280.7913C797.5182,-273.873 616.968,-257.9687 556.6772,-239 488.5221,-217.557 421.6228,-163.0073 391.0047,-135.654"/>
<polygon fill="#191970" stroke="#191970" points="393.1155,-132.8431 383.36,-128.7103 388.409,-138.0247 393.1155,-132.8431"/>
</g>
<!-- Node18 -->
<g id="node19" class="node">
<title>Node18</title>
<g id="a_node19"><a xlink:href="decl_8h.html" target="_top" xlink:title="../ast/decl.h">
<polygon fill="#ffffff" stroke="#000000" points="566.1084,-220.5 566.1084,-238.5 633.2461,-238.5 633.2461,-220.5 566.1084,-220.5"/>
<text text-anchor="middle" x="599.6772" y="-226.5" font-family="Helvetica,sans-Serif" font-size="10.00" fill="#000000">../ast/decl.h</text>
</a>
</g>
</g>
<!-- Node0&#45;&gt;Node18 -->
<g id="edge22" class="edge">
<title>Node0&#45;&gt;Node18</title>
<path fill="none" stroke="#191970" d="M886.2249,-276.2659C820.3041,-265.5073 705.9408,-246.8427 643.4826,-236.6492"/>
<polygon fill="#191970" stroke="#191970" points="643.9845,-233.1849 633.5513,-235.0284 642.857,-240.0935 643.9845,-233.1849"/>
</g>
<!-- Node28 -->
<g id="node29" class="node">
<title>Node28</title>
<polygon fill="#ffffff" stroke="#bfbfbf" points="1958.3179,-220.5 1958.3179,-238.5 2061.0366,-238.5 2061.0366,-220.5 1958.3179,-220.5"/>
<text text-anchor="middle" x="2009.6772" y="-226.5" font-family="Helvetica,sans-Serif" font-size="10.00" fill="#000000">../parser/parser.hpp</text>
</g>
<!-- Node0&#45;&gt;Node28 -->
<g id="edge46" class="edge">
<title>Node0&#45;&gt;Node28</title>
<path fill="none" stroke="#191970" d="M987.153,-284.232C1133.9648,-283.0269 1573.606,-276.4036 1947.7982,-239.0849"/>
<polygon fill="#191970" stroke="#191970" points="1948.4153,-242.5406 1958.0145,-238.0567 1947.7143,-235.5758 1948.4153,-242.5406"/>
</g>
<!-- Node29 -->
<g id="node30" class="node">
<title>Node29</title>
<g id="a_node30"><a xlink:href="typecheck_8h.html" target="_top" xlink:title="../sema/typecheck.h">
<polygon fill="#ffffff" stroke="#000000" points="839.2119,-165.5 839.2119,-183.5 944.1426,-183.5 944.1426,-165.5 839.2119,-165.5"/>
<text text-anchor="middle" x="891.6772" y="-171.5" font-family="Helvetica,sans-Serif" font-size="10.00" fill="#000000">../sema/typecheck.h</text>
</a>
</g>
</g>
<!-- Node0&#45;&gt;Node29 -->
<g id="edge47" class="edge">
<title>Node0&#45;&gt;Node29</title>
<path fill="none" stroke="#191970" d="M915.2025,-275.4579C900.5698,-268.0204 882.3377,-255.9377 873.6772,-239 866.0963,-224.1736 872.6335,-205.7464 879.8636,-192.3893"/>
<polygon fill="#191970" stroke="#191970" points="882.94,-194.064 885.0587,-183.6832 876.9288,-190.477 882.94,-194.064"/>
</g>
<!-- Node30 -->
<g id="node31" class="node">
<title>Node30</title>
<g id="a_node31"><a xlink:href="irgen_8h.html" target="_top" xlink:title="../irgen/irgen.h">
<polygon fill="#ffffff" stroke="#000000" points="818.7144,-110.5 818.7144,-128.5 898.6401,-128.5 898.6401,-110.5 818.7144,-110.5"/>
<text text-anchor="middle" x="858.6772" y="-116.5" font-family="Helvetica,sans-Serif" font-size="10.00" fill="#000000">../irgen/irgen.h</text>
</a>
</g>
</g>
<!-- Node0&#45;&gt;Node30 -->
<g id="edge49" class="edge">
<title>Node0&#45;&gt;Node30</title>
<path fill="none" stroke="#191970" d="M917.9064,-275.3953C902.6029,-267.3283 881.0776,-254.4494 865.6772,-239 845.222,-218.4795 838.7781,-211.8187 830.6772,-184 825.8984,-167.5892 834.7229,-149.8352 843.7,-137.1165"/>
<polygon fill="#191970" stroke="#191970" points="846.7468,-138.8961 850.0713,-128.8364 841.1991,-134.6273 846.7468,-138.8961"/>
</g>
<!-- Node12&#45;&gt;Node1 -->
<g id="edge13" class="edge">
<title>Node12&#45;&gt;Node1</title>
<path fill="none" stroke="#191970" d="M209.668,-110.4179C210.4536,-103.2164 211.5795,-92.8962 212.5649,-83.8632"/>
<polygon fill="#191970" stroke="#191970" points="216.0597,-84.1001 213.6649,-73.7795 209.101,-83.3409 216.0597,-84.1001"/>
</g>
<!-- Node12&#45;&gt;Node5 -->
<g id="edge15" class="edge">
<title>Node12&#45;&gt;Node5</title>
<path fill="none" stroke="#191970" d="M185.3936,-111.8603C164.533,-104.3095 133.7571,-91.3729 110.6772,-74 93.1828,-60.8314 77.2394,-41.3959 66.8778,-27.3037"/>
<polygon fill="#191970" stroke="#191970" points="69.5678,-25.0475 60.9146,-18.9343 63.8669,-29.1095 69.5678,-25.0475"/>
</g>
<!-- Node13 -->
<g id="node14" class="node">
<title>Node13</title>
<polygon fill="#ffffff" stroke="#bfbfbf" points="120.0073,-55.5 120.0073,-73.5 169.3472,-73.5 169.3472,-55.5 120.0073,-55.5"/>
<text text-anchor="middle" x="144.6772" y="-61.5" font-family="Helvetica,sans-Serif" font-size="10.00" fill="#000000">fstream</text>
</g>
<!-- Node12&#45;&gt;Node13 -->
<g id="edge14" class="edge">
<title>Node12&#45;&gt;Node13</title>
<path fill="none" stroke="#191970" d="M198.1089,-110.4179C188.624,-102.2667 174.4898,-90.1201 163.1406,-80.3669"/>
<polygon fill="#191970" stroke="#191970" points="165.3406,-77.6427 155.4752,-73.7795 160.7782,-82.9516 165.3406,-77.6427"/>
</g>
<!-- Node14 -->
<g id="node15" class="node">
<title>Node14</title>
<g id="a_node15"><a xlink:href="srcloc_8h.html" target="_top" xlink:title="../ast/srcloc.h">
<polygon fill="#ffffff" stroke="#000000" points="260.2241,-55.5 260.2241,-73.5 335.1304,-73.5 335.1304,-55.5 260.2241,-55.5"/>
<text text-anchor="middle" x="297.6772" y="-61.5" font-family="Helvetica,sans-Serif" font-size="10.00" fill="#000000">../ast/srcloc.h</text>
</a>
</g>
</g>
<!-- Node12&#45;&gt;Node14 -->
<g id="edge16" class="edge">
<title>Node12&#45;&gt;Node14</title>
<path fill="none" stroke="#191970" d="M223.3738,-110.4179C237.1586,-101.8992 258.005,-89.0166 274.1121,-79.0627"/>
<polygon fill="#191970" stroke="#191970" points="276.2921,-81.83 282.9589,-73.5956 272.6122,-75.8753 276.2921,-81.83"/>
</g>
<!-- Node15 -->
<g id="node16" class="node">
<title>Node15</title>
<polygon fill="#ffffff" stroke="#bfbfbf" points="127.7905,-.5 127.7905,-18.5 171.564,-18.5 171.564,-.5 127.7905,-.5"/>
<text text-anchor="middle" x="149.6772" y="-6.5" font-family="Helvetica,sans-Serif" font-size="10.00" fill="#000000">climits</text>
</g>
<!-- Node14&#45;&gt;Node15 -->
<g id="edge17" class="edge">
<title>Node14&#45;&gt;Node15</title>
<path fill="none" stroke="#191970" d="M273.2381,-55.4179C248.0841,-46.0701 208.7905,-31.4678 181.2862,-21.2466"/>
<polygon fill="#191970" stroke="#191970" points="182.3273,-17.8997 171.7344,-17.6969 179.8888,-24.4612 182.3273,-17.8997"/>
</g>
<!-- Node16&#45;&gt;Node1 -->
<g id="edge19" class="edge">
<title>Node16&#45;&gt;Node1</title>
<path fill="none" stroke="#191970" d="M347.4216,-110.4179C320.8743,-101.2348 279.667,-86.9807 250.2091,-76.7909"/>
<polygon fill="#191970" stroke="#191970" points="251.3024,-73.4656 240.7076,-73.5042 249.014,-80.081 251.3024,-73.4656"/>
</g>
<!-- Node16&#45;&gt;Node3 -->
<g id="edge20" class="edge">
<title>Node16&#45;&gt;Node3</title>
<path fill="none" stroke="#191970" d="M390.6735,-110.3117C417.3701,-96.2704 471.1058,-69.5723 519.6772,-55 603.6293,-29.8128 706.7143,-17.3041 757.8198,-12.2767"/>
<polygon fill="#191970" stroke="#191970" points="758.2875,-15.7481 767.9106,-11.3156 757.6238,-8.7796 758.2875,-15.7481"/>
</g>
<!-- Node17 -->
<g id="node18" class="node">
<title>Node17</title>
<polygon fill="#ffffff" stroke="#bfbfbf" points="690.6206,-55.5 690.6206,-73.5 742.7339,-73.5 742.7339,-55.5 690.6206,-55.5"/>
<text text-anchor="middle" x="716.6772" y="-61.5" font-family="Helvetica,sans-Serif" font-size="10.00" fill="#000000">memory</text>
</g>
<!-- Node16&#45;&gt;Node17 -->
<g id="edge21" class="edge">
<title>Node16&#45;&gt;Node17</title>
<path fill="none" stroke="#191970" d="M421.7311,-111.7946C491.0982,-100.6716 617.7836,-80.3576 680.0918,-70.3665"/>
<polygon fill="#191970" stroke="#191970" points="680.916,-73.7791 690.2357,-68.7399 679.8077,-66.8674 680.916,-73.7791"/>
</g>
<!-- Node18&#45;&gt;Node3 -->
<g id="edge25" class="edge">
<title>Node18&#45;&gt;Node3</title>
<path fill="none" stroke="#191970" d="M633.4065,-223.6491C673.7693,-215.9796 738.0092,-201.4326 754.6772,-184 795.7182,-141.0766 794.8622,-64.2451 791.8865,-28.6149"/>
<polygon fill="#191970" stroke="#191970" points="795.3623,-28.1971 790.8962,-18.5896 788.3962,-28.8853 795.3623,-28.1971"/>
</g>
<!-- Node18&#45;&gt;Node14 -->
<g id="edge45" class="edge">
<title>Node18&#45;&gt;Node14</title>
<path fill="none" stroke="#191970" d="M565.7625,-227.4789C506.2725,-222.0524 383.1338,-202.1115 316.6772,-129 305.401,-116.5946 300.797,-97.8098 298.9278,-83.7068"/>
<polygon fill="#191970" stroke="#191970" points="302.3973,-83.2231 297.9399,-73.6116 295.4306,-83.9049 302.3973,-83.2231"/>
</g>
<!-- Node18&#45;&gt;Node17 -->
<g id="edge24" class="edge">
<title>Node18&#45;&gt;Node17</title>
<path fill="none" stroke="#191970" d="M613.6755,-220.3305C625.6745,-211.9496 642.8458,-198.6573 654.6772,-184 680.3814,-152.1567 699.9275,-107.9718 709.7152,-83.2229"/>
<polygon fill="#191970" stroke="#191970" points="713.0871,-84.2055 713.4076,-73.6155 706.553,-81.6942 713.0871,-84.2055"/>
</g>
<!-- Node19 -->
<g id="node20" class="node">
<title>Node19</title>
<polygon fill="#ffffff" stroke="#bfbfbf" points="518.4507,-.5 518.4507,-18.5 558.9038,-18.5 558.9038,-.5 518.4507,-.5"/>
<text text-anchor="middle" x="538.6772" y="-6.5" font-family="Helvetica,sans-Serif" font-size="10.00" fill="#000000">string</text>
</g>
<!-- Node18&#45;&gt;Node19 -->
<g id="edge23" class="edge">
<title>Node18&#45;&gt;Node19</title>
<path fill="none" stroke="#191970" d="M580.4631,-220.4845C566.1867,-212.787 547.3993,-200.3631 536.6772,-184 504.715,-135.2219 497.7091,-111.3635 512.6772,-55 515.2956,-45.1406 520.608,-35.1893 525.7522,-27.1181"/>
<polygon fill="#191970" stroke="#191970" points="528.8013,-28.859 531.5424,-18.6249 523.0175,-24.9159 528.8013,-28.859"/>
</g>
<!-- Node20 -->
<g id="node21" class="node">
<title>Node20</title>
<polygon fill="#ffffff" stroke="#bfbfbf" points="553.3179,-165.5 553.3179,-183.5 646.0366,-183.5 646.0366,-165.5 553.3179,-165.5"/>
<text text-anchor="middle" x="599.6772" y="-171.5" font-family="Helvetica,sans-Serif" font-size="10.00" fill="#000000">boost/variant.hpp</text>
</g>
<!-- Node18&#45;&gt;Node20 -->
<g id="edge26" class="edge">
<title>Node18&#45;&gt;Node20</title>
<path fill="none" stroke="#191970" d="M599.6772,-220.4179C599.6772,-213.2164 599.6772,-202.8962 599.6772,-193.8632"/>
<polygon fill="#191970" stroke="#191970" points="603.1773,-193.7794 599.6772,-183.7795 596.1773,-193.7795 603.1773,-193.7794"/>
</g>
<!-- Node21 -->
<g id="node22" class="node">
<title>Node21</title>
<g id="a_node22"><a xlink:href="expr_8h.html" target="_top" xlink:title="expr.h">
<polygon fill="#ffffff" stroke="#000000" points="538.0542,-110.5 538.0542,-128.5 581.3003,-128.5 581.3003,-110.5 538.0542,-110.5"/>
<text text-anchor="middle" x="559.6772" y="-116.5" font-family="Helvetica,sans-Serif" font-size="10.00" fill="#000000">expr.h</text>
</a>
</g>
</g>
<!-- Node18&#45;&gt;Node21 -->
<g id="edge27" class="edge">
<title>Node18&#45;&gt;Node21</title>
<path fill="none" stroke="#191970" d="M581.9387,-220.4258C568.9569,-212.6967 552.3281,-200.259 544.6772,-184 537.7339,-169.2446 543.0899,-151.0389 549.2472,-137.7362"/>
<polygon fill="#191970" stroke="#191970" points="552.4556,-139.1507 553.9216,-128.6577 546.2321,-135.9462 552.4556,-139.1507"/>
</g>
<!-- Node22 -->
<g id="node23" class="node">
<title>Node22</title>
<g id="a_node23"><a xlink:href="type_8h.html" target="_top" xlink:title="type.h">
<polygon fill="#ffffff" stroke="#000000" points="353.0566,-55.5 353.0566,-73.5 396.2979,-73.5 396.2979,-55.5 353.0566,-55.5"/>
<text text-anchor="middle" x="374.6772" y="-61.5" font-family="Helvetica,sans-Serif" font-size="10.00" fill="#000000">type.h</text>
</a>
</g>
</g>
<!-- Node18&#45;&gt;Node22 -->
<g id="edge44" class="edge">
<title>Node18&#45;&gt;Node22</title>
<path fill="none" stroke="#191970" d="M565.9858,-223.9355C538.6016,-217.975 500.2827,-206.2043 473.6772,-184 444.4733,-159.627 455.3979,-138.9103 430.6772,-110 420.9131,-98.5811 408.0062,-87.8746 397.0446,-79.7196"/>
<polygon fill="#191970" stroke="#191970" points="398.9285,-76.7632 388.7678,-73.7614 394.8389,-82.4443 398.9285,-76.7632"/>
</g>
<!-- Node27 -->
<g id="node28" class="node">
<title>Node27</title>
<g id="a_node28"><a xlink:href="stmt_8h.html" target="_top" xlink:title="stmt.h">
<polygon fill="#ffffff" stroke="#000000" points="702.064,-165.5 702.064,-183.5 745.2905,-183.5 745.2905,-165.5 702.064,-165.5"/>
<text text-anchor="middle" x="723.6772" y="-171.5" font-family="Helvetica,sans-Serif" font-size="10.00" fill="#000000">stmt.h</text>
</a>
</g>
</g>
<!-- Node18&#45;&gt;Node27 -->
<g id="edge40" class="edge">
<title>Node18&#45;&gt;Node27</title>
<path fill="none" stroke="#191970" d="M620.1533,-220.4179C640.2566,-211.5011 671.1395,-197.803 693.946,-187.6873"/>
<polygon fill="#191970" stroke="#191970" points="695.4487,-190.8496 703.1707,-183.5956 692.6105,-184.4508 695.4487,-190.8496"/>
</g>
<!-- Node21&#45;&gt;Node3 -->
<g id="edge30" class="edge">
<title>Node21&#45;&gt;Node3</title>
<path fill="none" stroke="#191970" d="M576.6202,-110.3063C605.0701,-94.9087 661.3257,-64.6441 681.6772,-55 707.188,-42.911 736.7711,-30.5605 758.5182,-21.783"/>
<polygon fill="#191970" stroke="#191970" points="759.9366,-24.9853 767.916,-18.0154 757.3317,-18.488 759.9366,-24.9853"/>
</g>
<!-- Node21&#45;&gt;Node14 -->
<g id="edge38" class="edge">
<title>Node21&#45;&gt;Node14</title>
<path fill="none" stroke="#191970" d="M537.7899,-114.9053C495.6745,-106.0643 402.4854,-86.5017 345.3811,-74.5142"/>
<polygon fill="#191970" stroke="#191970" points="346.0101,-71.07 335.5043,-72.4408 344.5719,-77.9207 346.0101,-71.07"/>
</g>
<!-- Node21&#45;&gt;Node17 -->
<g id="edge29" class="edge">
<title>Node21&#45;&gt;Node17</title>
<path fill="none" stroke="#191970" d="M581.5074,-111.8525C607.357,-102.7969 650.7613,-87.5916 681.4009,-76.858"/>
<polygon fill="#191970" stroke="#191970" points="682.5814,-80.153 690.8618,-73.5436 680.267,-73.5467 682.5814,-80.153"/>
</g>
<!-- Node21&#45;&gt;Node19 -->
<g id="edge28" class="edge">
<title>Node21&#45;&gt;Node19</title>
<path fill="none" stroke="#191970" d="M548.029,-110.4799C538.3617,-102.1947 525.3178,-88.959 519.6772,-74 513.9008,-58.6806 520.1563,-40.7876 526.9941,-27.7389"/>
<polygon fill="#191970" stroke="#191970" points="530.171,-29.2366 532.1468,-18.8276 524.1112,-25.7326 530.171,-29.2366"/>
</g>
<!-- Node21&#45;&gt;Node22 -->
<g id="edge31" class="edge">
<title>Node21&#45;&gt;Node22</title>
<path fill="none" stroke="#191970" d="M537.7288,-112.9748C505.0963,-103.2732 443.6216,-84.997 406.1877,-73.868"/>
<polygon fill="#191970" stroke="#191970" points="406.8936,-70.4265 396.3109,-70.9316 404.8988,-77.1363 406.8936,-70.4265"/>
</g>
<!-- Node26 -->
<g id="node27" class="node">
<title>Node26</title>
<g id="a_node27"><a xlink:href="operators_8h.html" target="_top" xlink:title="../parser/operators.h">
<polygon fill="#ffffff" stroke="#000000" points="528.6553,-55.5 528.6553,-73.5 634.6992,-73.5 634.6992,-55.5 528.6553,-55.5"/>
<text text-anchor="middle" x="581.6772" y="-61.5" font-family="Helvetica,sans-Serif" font-size="10.00" fill="#000000">../parser/operators.h</text>
</a>
</g>
</g>
<!-- Node21&#45;&gt;Node26 -->
<g id="edge39" class="edge">
<title>Node21&#45;&gt;Node26</title>
<path fill="none" stroke="#191970" d="M563.3101,-110.4179C566.254,-103.0581 570.5008,-92.441 574.1694,-83.2695"/>
<polygon fill="#191970" stroke="#191970" points="577.5012,-84.3641 577.9655,-73.7795 571.0018,-81.7643 577.5012,-84.3641"/>
</g>
<!-- Node22&#45;&gt;Node3 -->
<g id="edge32" class="edge">
<title>Node22&#45;&gt;Node3</title>
<path fill="none" stroke="#191970" d="M396.6513,-58.185C401.2582,-57.0067 406.1059,-55.8732 410.6772,-55 538.0081,-30.6775 692.0316,-16.9595 757.6133,-11.8409"/>
<polygon fill="#191970" stroke="#191970" points="758.0209,-15.32 767.724,-11.0656 757.4857,-8.3405 758.0209,-15.32"/>
</g>
<!-- Node22&#45;&gt;Node5 -->
<g id="edge36" class="edge">
<title>Node22&#45;&gt;Node5</title>
<path fill="none" stroke="#191970" d="M352.7656,-57.3662C349.7307,-56.5012 346.6391,-55.6834 343.6772,-55 322.3039,-50.0685 198.1847,-31.0749 119.7137,-19.2423"/>
<polygon fill="#191970" stroke="#191970" points="119.8434,-15.7224 109.4336,-17.6937 118.8007,-22.6443 119.8434,-15.7224"/>
</g>
<!-- Node22&#45;&gt;Node19 -->
<g id="edge33" class="edge">
<title>Node22&#45;&gt;Node19</title>
<path fill="none" stroke="#191970" d="M396.4552,-57.1964C425.231,-47.546 476.0583,-30.5003 508.5164,-19.6149"/>
<polygon fill="#191970" stroke="#191970" points="509.9899,-22.8124 518.3581,-16.3144 507.7641,-16.1757 509.9899,-22.8124"/>
</g>
<!-- Node23 -->
<g id="node24" class="node">
<title>Node23</title>
<polygon fill="#ffffff" stroke="#bfbfbf" points="448.6157,-.5 448.6157,-18.5 500.7388,-18.5 500.7388,-.5 448.6157,-.5"/>
<text text-anchor="middle" x="474.6772" y="-6.5" font-family="Helvetica,sans-Serif" font-size="10.00" fill="#000000">ostream</text>
</g>
<!-- Node22&#45;&gt;Node23 -->
<g id="edge34" class="edge">
<title>Node22&#45;&gt;Node23</title>
<path fill="none" stroke="#191970" d="M391.1902,-55.4179C406.9683,-46.7399 430.9801,-33.5334 449.2087,-23.5077"/>
<polygon fill="#191970" stroke="#191970" points="451.0643,-26.4816 458.1397,-18.5956 447.6908,-20.3481 451.0643,-26.4816"/>
</g>
<!-- Node24 -->
<g id="node25" class="node">
<title>Node24</title>
<polygon fill="#ffffff" stroke="#bfbfbf" points="189.1157,-.5 189.1157,-18.5 296.2388,-18.5 296.2388,-.5 189.1157,-.5"/>
<text text-anchor="middle" x="242.6772" y="-6.5" font-family="Helvetica,sans-Serif" font-size="10.00" fill="#000000">llvm/ADT/ArrayRef.h</text>
</g>
<!-- Node22&#45;&gt;Node24 -->
<g id="edge35" class="edge">
<title>Node22&#45;&gt;Node24</title>
<path fill="none" stroke="#191970" d="M352.8801,-55.4179C331.3843,-46.4613 298.3108,-32.6806 274.002,-22.552"/>
<polygon fill="#191970" stroke="#191970" points="275.0837,-19.2111 264.5067,-18.5956 272.3913,-25.6726 275.0837,-19.2111"/>
</g>
<!-- Node25 -->
<g id="node26" class="node">
<title>Node25</title>
<polygon fill="#ffffff" stroke="#bfbfbf" points="314.377,-.5 314.377,-18.5 430.9775,-18.5 430.9775,-.5 314.377,-.5"/>
<text text-anchor="middle" x="372.6772" y="-6.5" font-family="Helvetica,sans-Serif" font-size="10.00" fill="#000000">llvm/Support/Casting.h</text>
</g>
<!-- Node22&#45;&gt;Node25 -->
<g id="edge37" class="edge">
<title>Node22&#45;&gt;Node25</title>
<path fill="none" stroke="#191970" d="M374.347,-55.4179C374.0851,-48.2164 373.7098,-37.8962 373.3814,-28.8632"/>
<polygon fill="#191970" stroke="#191970" points="376.8759,-28.6456 373.0147,-18.7795 369.8805,-28.9001 376.8759,-28.6456"/>
</g>
<!-- Node27&#45;&gt;Node3 -->
<g id="edge41" class="edge">
<title>Node27&#45;&gt;Node3</title>
<path fill="none" stroke="#191970" d="M727.4148,-165.1561C737.9425,-138.837 767.9937,-63.709 782.1402,-28.3426"/>
<polygon fill="#191970" stroke="#191970" points="785.5164,-29.3261 785.9807,-18.7414 779.017,-26.7263 785.5164,-29.3261"/>
</g>
<!-- Node27&#45;&gt;Node17 -->
<g id="edge42" class="edge">
<title>Node27&#45;&gt;Node17</title>
<path fill="none" stroke="#191970" d="M723.1044,-165.4982C721.9712,-147.6913 719.4214,-107.6225 717.896,-83.6515"/>
<polygon fill="#191970" stroke="#191970" points="721.3861,-83.3836 717.258,-73.6261 714.4002,-83.8283 721.3861,-83.3836"/>
</g>
<!-- Node27&#45;&gt;Node21 -->
<g id="edge43" class="edge">
<title>Node27&#45;&gt;Node21</title>
<path fill="none" stroke="#191970" d="M701.8993,-167.1964C673.4727,-157.6631 623.5266,-140.9129 591.0278,-130.0139"/>
<polygon fill="#191970" stroke="#191970" points="592.1392,-126.6951 581.5453,-126.8338 589.9134,-133.3318 592.1392,-126.6951"/>
</g>
<!-- Node29&#45;&gt;Node3 -->
<g id="edge48" class="edge">
<title>Node29&#45;&gt;Node3</title>
<path fill="none" stroke="#191970" d="M897.6263,-165.3778C905.189,-152.5444 916.2879,-128.6441 907.6772,-110 889.2282,-70.0536 846.2056,-40.1354 817.5281,-23.732"/>
<polygon fill="#191970" stroke="#191970" points="818.8542,-20.466 808.4089,-18.6923 815.4683,-26.5927 818.8542,-20.466"/>
</g>
<!-- Node30&#45;&gt;Node3 -->
<g id="edge50" class="edge">
<title>Node30&#45;&gt;Node3</title>
<path fill="none" stroke="#191970" d="M853.8863,-110.1134C847.2847,-97.3756 834.8242,-74.0229 822.6772,-55 816.5836,-45.457 809.2346,-35.2175 803.0199,-26.8733"/>
<polygon fill="#191970" stroke="#191970" points="805.6551,-24.555 796.8347,-18.6855 800.0696,-28.7744 805.6551,-24.555"/>
</g>
<!-- Node30&#45;&gt;Node17 -->
<g id="edge51" class="edge">
<title>Node30&#45;&gt;Node17</title>
<path fill="none" stroke="#191970" d="M835.2288,-110.4179C811.899,-101.3817 775.892,-87.4353 749.68,-77.2828"/>
<polygon fill="#191970" stroke="#191970" points="750.7496,-73.9437 740.1605,-73.5956 748.2213,-80.4712 750.7496,-73.9437"/>
</g>
</g>
</svg>
