<?xml version="1.0" encoding="UTF-8" standalone="no"?>
<!DOCTYPE svg PUBLIC "-//W3C//DTD SVG 1.1//EN"
 "http://www.w3.org/Graphics/SVG/1.1/DTD/svg11.dtd">
<!-- Generated by graphviz version 2.40.1 (20161225.0304)
 -->
<!-- Title: src/irgen/mangle.h Pages: 1 -->
<svg width="375pt" height="82pt"
 viewBox="0.00 0.00 374.76 82.00" xmlns="http://www.w3.org/2000/svg" xmlns:xlink="http://www.w3.org/1999/xlink">
<g id="graph0" class="graph" transform="scale(1 1) rotate(0) translate(4 78)">
<title>src/irgen/mangle.h</title>
<polygon fill="#ffffff" stroke="transparent" points="-4,4 -4,-78 370.7632,-78 370.7632,4 -4,4"/>
<!-- Node2 -->
<g id="node1" class="node">
<title>Node2</title>
<polygon fill="#bfbfbf" stroke="#000000" points="122,-55.5 122,-73.5 220.2607,-73.5 220.2607,-55.5 122,-55.5"/>
<text text-anchor="middle" x="171.1304" y="-61.5" font-family="Helvetica,sans-Serif" font-size="10.00" fill="#000000">src/irgen/mangle.h</text>
</g>
<!-- Node3 -->
<g id="node2" class="node">
<title>Node3</title>
<g id="a_node2"><a xlink:href="irgen_8cpp.html" target="_top" xlink:title="src/irgen/irgen.cpp">
<polygon fill="#ffffff" stroke="#000000" points="0,-.5 0,-18.5 98.2607,-18.5 98.2607,-.5 0,-.5"/>
<text text-anchor="middle" x="49.1304" y="-6.5" font-family="Helvetica,sans-Serif" font-size="10.00" fill="#000000">src/irgen/irgen.cpp</text>
</a>
</g>
</g>
<!-- Node2&#45;&gt;Node3 -->
<g id="edge1" class="edge">
<title>Node2&#45;&gt;Node3</title>
<path fill="none" stroke="#191970" d="M141.6117,-51.1924C119.2108,-41.0937 89.0075,-27.4774 69.3061,-18.5956"/>
<polygon fill="#191970" stroke="#191970" points="140.4297,-54.4987 150.9846,-55.4179 143.3066,-48.1172 140.4297,-54.4987"/>
</g>
<!-- Node4 -->
<g id="node3" class="node">
<title>Node4</title>
<g id="a_node3"><a xlink:href="mangle_8cpp.html" target="_top" xlink:title="src/irgen/mangle.cpp">
<polygon fill="#ffffff" stroke="#000000" points="116.7192,-.5 116.7192,-18.5 225.5415,-18.5 225.5415,-.5 116.7192,-.5"/>
<text text-anchor="middle" x="171.1304" y="-6.5" font-family="Helvetica,sans-Serif" font-size="10.00" fill="#000000">src/irgen/mangle.cpp</text>
</a>
</g>
</g>
<!-- Node2&#45;&gt;Node4 -->
<g id="edge2" class="edge">
<title>Node2&#45;&gt;Node4</title>
<path fill="none" stroke="#191970" d="M171.1304,-45.383C171.1304,-36.3738 171.1304,-26.0373 171.1304,-18.7795"/>
<polygon fill="#191970" stroke="#191970" points="167.6305,-45.4178 171.1304,-55.4179 174.6305,-45.4179 167.6305,-45.4178"/>
</g>
<!-- Node5 -->
<g id="node4" class="node">
<title>Node5</title>
<g id="a_node4"><a xlink:href="typecheck_8cpp.html" target="_top" xlink:title="src/sema/typecheck.cpp">
<polygon fill="#ffffff" stroke="#000000" points="243.4976,-.5 243.4976,-18.5 366.7632,-18.5 366.7632,-.5 243.4976,-.5"/>
<text text-anchor="middle" x="305.1304" y="-6.5" font-family="Helvetica,sans-Serif" font-size="10.00" fill="#000000">src/sema/typecheck.cpp</text>
</a>
</g>
</g>
<!-- Node2&#45;&gt;Node5 -->
<g id="edge3" class="edge">
<title>Node2&#45;&gt;Node5</title>
<path fill="none" stroke="#191970" d="M202.5642,-51.598C227.2621,-41.4609 261.0398,-27.5969 282.9701,-18.5956"/>
<polygon fill="#191970" stroke="#191970" points="201.1798,-48.3829 193.2577,-55.4179 203.8378,-54.8586 201.1798,-48.3829"/>
</g>
</g>
</svg>
