<?xml version="1.0" encoding="UTF-8" standalone="no"?>
<!DOCTYPE svg PUBLIC "-//W3C//DTD SVG 1.1//EN"
 "http://www.w3.org/Graphics/SVG/1.1/DTD/svg11.dtd">
<!-- Generated by graphviz version 2.40.1 (20161225.0304)
 -->
<!-- Title: src/irgen/mangle.cpp Pages: 1 -->
<svg width="659pt" height="302pt"
 viewBox="0.00 0.00 658.59 302.00" xmlns="http://www.w3.org/2000/svg" xmlns:xlink="http://www.w3.org/1999/xlink">
<g id="graph0" class="graph" transform="scale(1 1) rotate(0) translate(4 298)">
<title>src/irgen/mangle.cpp</title>
<polygon fill="#ffffff" stroke="transparent" points="-4,4 -4,-298 654.5915,-298 654.5915,4 -4,4"/>
<!-- Node0 -->
<g id="node1" class="node">
<title>Node0</title>
<polygon fill="#bfbfbf" stroke="#000000" points="256.9538,-275.5 256.9538,-293.5 365.7761,-293.5 365.7761,-275.5 256.9538,-275.5"/>
<text text-anchor="middle" x="311.3649" y="-281.5" font-family="Helvetica,sans-Serif" font-size="10.00" fill="#000000">src/irgen/mangle.cpp</text>
</g>
<!-- Node1 -->
<g id="node2" class="node">
<title>Node1</title>
<polygon fill="#ffffff" stroke="#bfbfbf" points="90.8034,-.5 90.8034,-18.5 197.9264,-18.5 197.9264,-.5 90.8034,-.5"/>
<text text-anchor="middle" x="144.3649" y="-6.5" font-family="Helvetica,sans-Serif" font-size="10.00" fill="#000000">llvm/ADT/ArrayRef.h</text>
</g>
<!-- Node0&#45;&gt;Node1 -->
<g id="edge1" class="edge">
<title>Node0&#45;&gt;Node1</title>
<path fill="none" stroke="#191970" d="M256.837,-276.6774C167.6435,-262.3327 .3649,-228.263 .3649,-174.5 .3649,-174.5 .3649,-174.5 .3649,-119.5 .3649,-89.6154 -1.0948,-76.7827 19.3649,-55 35.548,-37.7704 58.7723,-27.0449 80.8205,-20.3767"/>
<polygon fill="#191970" stroke="#191970" points="81.8132,-23.7335 90.5048,-17.675 79.9321,-16.991 81.8132,-23.7335"/>
</g>
<!-- Node2 -->
<g id="node3" class="node">
<title>Node2</title>
<g id="a_node3"><a xlink:href="mangle_8h.html" target="_top" xlink:title="mangle.h">
<polygon fill="#ffffff" stroke="#000000" points="569.7961,-110.5 569.7961,-128.5 626.9338,-128.5 626.9338,-110.5 569.7961,-110.5"/>
<text text-anchor="middle" x="598.3649" y="-116.5" font-family="Helvetica,sans-Serif" font-size="10.00" fill="#000000">mangle.h</text>
</a>
</g>
</g>
<!-- Node0&#45;&gt;Node2 -->
<g id="edge2" class="edge">
<title>Node0&#45;&gt;Node2</title>
<path fill="none" stroke="#191970" d="M342.7992,-275.4129C389.061,-261.0449 476.8566,-229.9152 540.3649,-184 558.5851,-170.8272 575.2801,-151.0817 586.0319,-136.91"/>
<polygon fill="#191970" stroke="#191970" points="589.0915,-138.6572 592.1955,-128.5272 583.4519,-134.5105 589.0915,-138.6572"/>
</g>
<!-- Node4 -->
<g id="node5" class="node">
<title>Node4</title>
<g id="a_node5"><a xlink:href="decl_8h.html" target="_top" xlink:title="../ast/decl.h">
<polygon fill="#ffffff" stroke="#000000" points="277.7961,-220.5 277.7961,-238.5 344.9338,-238.5 344.9338,-220.5 277.7961,-220.5"/>
<text text-anchor="middle" x="311.3649" y="-226.5" font-family="Helvetica,sans-Serif" font-size="10.00" fill="#000000">../ast/decl.h</text>
</a>
</g>
</g>
<!-- Node0&#45;&gt;Node4 -->
<g id="edge4" class="edge">
<title>Node0&#45;&gt;Node4</title>
<path fill="none" stroke="#191970" d="M311.3649,-275.4179C311.3649,-268.2164 311.3649,-257.8962 311.3649,-248.8632"/>
<polygon fill="#191970" stroke="#191970" points="314.865,-248.7794 311.3649,-238.7795 307.865,-248.7795 314.865,-248.7794"/>
</g>
<!-- Node3 -->
<g id="node4" class="node">
<title>Node3</title>
<polygon fill="#ffffff" stroke="#bfbfbf" points="610.1384,-.5 610.1384,-18.5 650.5915,-18.5 650.5915,-.5 610.1384,-.5"/>
<text text-anchor="middle" x="630.3649" y="-6.5" font-family="Helvetica,sans-Serif" font-size="10.00" fill="#000000">string</text>
</g>
<!-- Node2&#45;&gt;Node3 -->
<g id="edge3" class="edge">
<title>Node2&#45;&gt;Node3</title>
<path fill="none" stroke="#191970" d="M600.9836,-110.4982C606.1872,-92.6108 617.9258,-52.2594 624.888,-28.3271"/>
<polygon fill="#191970" stroke="#191970" points="628.2774,-29.2058 627.71,-18.6261 621.556,-27.2504 628.2774,-29.2058"/>
</g>
<!-- Node4&#45;&gt;Node3 -->
<g id="edge5" class="edge">
<title>Node4&#45;&gt;Node3</title>
<path fill="none" stroke="#191970" d="M345.0988,-225.4163C379.0723,-220.0914 431.9578,-208.4027 471.3649,-184 539.2068,-141.9891 595.8235,-62.9477 619.0492,-27.5006"/>
<polygon fill="#191970" stroke="#191970" points="622.2277,-29.029 624.6961,-18.7257 616.3412,-25.2409 622.2277,-29.029"/>
</g>
<!-- Node5 -->
<g id="node6" class="node">
<title>Node5</title>
<polygon fill="#ffffff" stroke="#bfbfbf" points="96.3083,-55.5 96.3083,-73.5 148.4216,-73.5 148.4216,-55.5 96.3083,-55.5"/>
<text text-anchor="middle" x="122.3649" y="-61.5" font-family="Helvetica,sans-Serif" font-size="10.00" fill="#000000">memory</text>
</g>
<!-- Node4&#45;&gt;Node5 -->
<g id="edge6" class="edge">
<title>Node4&#45;&gt;Node5</title>
<path fill="none" stroke="#191970" d="M277.5385,-223.7132C249.7159,-217.6018 210.4374,-205.7355 182.3649,-184 149.5997,-158.6311 133.3559,-110.5415 126.5236,-83.7498"/>
<polygon fill="#191970" stroke="#191970" points="129.8551,-82.6281 124.1509,-73.6999 123.0423,-84.2365 129.8551,-82.6281"/>
</g>
<!-- Node6 -->
<g id="node7" class="node">
<title>Node6</title>
<polygon fill="#ffffff" stroke="#bfbfbf" points="215.7492,-.5 215.7492,-18.5 258.9806,-18.5 258.9806,-.5 215.7492,-.5"/>
<text text-anchor="middle" x="237.3649" y="-6.5" font-family="Helvetica,sans-Serif" font-size="10.00" fill="#000000">vector</text>
</g>
<!-- Node4&#45;&gt;Node6 -->
<g id="edge7" class="edge">
<title>Node4&#45;&gt;Node6</title>
<path fill="none" stroke="#191970" d="M316.5468,-220.2618C331.2651,-192.6659 370.0791,-109.3906 335.3649,-55 327.7029,-42.9951 294.6524,-29.2238 269.0268,-20.005"/>
<polygon fill="#191970" stroke="#191970" points="269.886,-16.5974 259.2911,-16.5893 267.5685,-23.2026 269.886,-16.5974"/>
</g>
<!-- Node7 -->
<g id="node8" class="node">
<title>Node7</title>
<polygon fill="#ffffff" stroke="#bfbfbf" points="352.0055,-165.5 352.0055,-183.5 444.7243,-183.5 444.7243,-165.5 352.0055,-165.5"/>
<text text-anchor="middle" x="398.3649" y="-171.5" font-family="Helvetica,sans-Serif" font-size="10.00" fill="#000000">boost/variant.hpp</text>
</g>
<!-- Node4&#45;&gt;Node7 -->
<g id="edge8" class="edge">
<title>Node4&#45;&gt;Node7</title>
<path fill="none" stroke="#191970" d="M325.7312,-220.4179C339.2063,-211.8992 359.5842,-199.0166 375.3293,-189.0627"/>
<polygon fill="#191970" stroke="#191970" points="377.395,-191.8977 383.9773,-183.5956 373.6544,-185.9808 377.395,-191.8977"/>
</g>
<!-- Node8 -->
<g id="node9" class="node">
<title>Node8</title>
<g id="a_node9"><a xlink:href="expr_8h.html" target="_top" xlink:title="expr.h">
<polygon fill="#ffffff" stroke="#000000" points="249.7419,-110.5 249.7419,-128.5 292.988,-128.5 292.988,-110.5 249.7419,-110.5"/>
<text text-anchor="middle" x="271.3649" y="-116.5" font-family="Helvetica,sans-Serif" font-size="10.00" fill="#000000">expr.h</text>
</a>
</g>
</g>
<!-- Node4&#45;&gt;Node8 -->
<g id="edge9" class="edge">
<title>Node4&#45;&gt;Node8</title>
<path fill="none" stroke="#191970" d="M308.0916,-220.4982C301.587,-202.6108 286.9138,-162.2594 278.2111,-138.3271"/>
<polygon fill="#191970" stroke="#191970" points="281.3903,-136.828 274.6835,-128.6261 274.8117,-139.2202 281.3903,-136.828"/>
</g>
<!-- Node9 -->
<g id="node10" class="node">
<title>Node9</title>
<g id="a_node10"><a xlink:href="type_8h.html" target="_top" xlink:title="type.h">
<polygon fill="#ffffff" stroke="#000000" points="404.7443,-55.5 404.7443,-73.5 447.9855,-73.5 447.9855,-55.5 404.7443,-55.5"/>
<text text-anchor="middle" x="426.3649" y="-61.5" font-family="Helvetica,sans-Serif" font-size="10.00" fill="#000000">type.h</text>
</a>
</g>
</g>
<!-- Node4&#45;&gt;Node9 -->
<g id="edge27" class="edge">
<title>Node4&#45;&gt;Node9</title>
<path fill="none" stroke="#191970" d="M344.9509,-223.4295C382.7167,-215.8399 440.4712,-201.6709 453.3649,-184 475.8207,-153.2243 453.6351,-107.0138 438.2841,-82.0334"/>
<polygon fill="#191970" stroke="#191970" points="441.1966,-80.0915 432.8426,-73.5753 435.3097,-83.8789 441.1966,-80.0915"/>
</g>
<!-- Node13 -->
<g id="node14" class="node">
<title>Node13</title>
<g id="a_node14"><a xlink:href="srcloc_8h.html" target="_top" xlink:title="srcloc.h">
<polygon fill="#ffffff" stroke="#000000" points="28.1384,-55.5 28.1384,-73.5 78.5915,-73.5 78.5915,-55.5 28.1384,-55.5"/>
<text text-anchor="middle" x="53.3649" y="-61.5" font-family="Helvetica,sans-Serif" font-size="10.00" fill="#000000">srcloc.h</text>
</a>
</g>
</g>
<!-- Node4&#45;&gt;Node13 -->
<g id="edge28" class="edge">
<title>Node4&#45;&gt;Node13</title>
<path fill="none" stroke="#191970" d="M277.6628,-224.7558C245.5191,-219.0346 196.7489,-207.1469 160.3649,-184 117.6755,-156.8417 81.6852,-108.0409 64.3876,-81.9973"/>
<polygon fill="#191970" stroke="#191970" points="67.2623,-79.9975 58.8828,-73.5141 61.3903,-83.808 67.2623,-79.9975"/>
</g>
<!-- Node16 -->
<g id="node17" class="node">
<title>Node16</title>
<g id="a_node17"><a xlink:href="stmt_8h.html" target="_top" xlink:title="stmt.h">
<polygon fill="#ffffff" stroke="#000000" points="191.7516,-165.5 191.7516,-183.5 234.9782,-183.5 234.9782,-165.5 191.7516,-165.5"/>
<text text-anchor="middle" x="213.3649" y="-171.5" font-family="Helvetica,sans-Serif" font-size="10.00" fill="#000000">stmt.h</text>
</a>
</g>
</g>
<!-- Node4&#45;&gt;Node16 -->
<g id="edge23" class="edge">
<title>Node4&#45;&gt;Node16</title>
<path fill="none" stroke="#191970" d="M295.1822,-220.4179C279.7197,-211.7399 256.1881,-198.5334 238.3241,-188.5077"/>
<polygon fill="#191970" stroke="#191970" points="240.0052,-185.4377 229.5717,-183.5956 236.5792,-191.542 240.0052,-185.4377"/>
</g>
<!-- Node8&#45;&gt;Node3 -->
<g id="edge10" class="edge">
<title>Node8&#45;&gt;Node3</title>
<path fill="none" stroke="#191970" d="M293.0686,-115.0544C328.0068,-107.7055 398.7404,-92.0314 457.3649,-74 484.8779,-65.5377 558.9368,-37.2024 600.6894,-21.0437"/>
<polygon fill="#191970" stroke="#191970" points="602.0084,-24.2863 610.0676,-17.4088 599.4786,-17.7594 602.0084,-24.2863"/>
</g>
<!-- Node8&#45;&gt;Node5 -->
<g id="edge11" class="edge">
<title>Node8&#45;&gt;Node5</title>
<path fill="none" stroke="#191970" d="M249.699,-111.5025C225.2233,-102.4679 185.0725,-87.6471 156.4006,-77.0635"/>
<polygon fill="#191970" stroke="#191970" points="157.3755,-73.6926 146.7822,-73.5131 154.9515,-80.2595 157.3755,-73.6926"/>
</g>
<!-- Node8&#45;&gt;Node6 -->
<g id="edge12" class="edge">
<title>Node8&#45;&gt;Node6</title>
<path fill="none" stroke="#191970" d="M286.7772,-110.3285C305.0841,-98.2054 331.6873,-75.9296 319.3649,-55 313.527,-45.0843 289.1363,-32.2468 268.4605,-22.7371"/>
<polygon fill="#191970" stroke="#191970" points="269.8585,-19.5282 259.3023,-18.6244 266.9909,-25.9139 269.8585,-19.5282"/>
</g>
<!-- Node8&#45;&gt;Node9 -->
<g id="edge13" class="edge">
<title>Node8&#45;&gt;Node9</title>
<path fill="none" stroke="#191970" d="M293.2439,-111.7365C319.7846,-102.3188 364.7194,-86.3742 394.9548,-75.6455"/>
<polygon fill="#191970" stroke="#191970" points="396.3434,-78.8667 404.5973,-72.224 394.0025,-72.2697 396.3434,-78.8667"/>
</g>
<!-- Node8&#45;&gt;Node13 -->
<g id="edge20" class="edge">
<title>Node8&#45;&gt;Node13</title>
<path fill="none" stroke="#191970" d="M249.5013,-114.3183C216.664,-106.4878 152.4356,-90.9859 88.4421,-74.2295"/>
<polygon fill="#191970" stroke="#191970" points="89.1543,-70.7979 78.593,-71.6399 87.3743,-77.5678 89.1543,-70.7979"/>
</g>
<!-- Node15 -->
<g id="node16" class="node">
<title>Node15</title>
<g id="a_node16"><a xlink:href="operators_8h.html" target="_top" xlink:title="../parser/operators.h">
<polygon fill="#ffffff" stroke="#000000" points="204.3429,-55.5 204.3429,-73.5 310.3869,-73.5 310.3869,-55.5 204.3429,-55.5"/>
<text text-anchor="middle" x="257.3649" y="-61.5" font-family="Helvetica,sans-Serif" font-size="10.00" fill="#000000">../parser/operators.h</text>
</a>
</g>
</g>
<!-- Node8&#45;&gt;Node15 -->
<g id="edge22" class="edge">
<title>Node8&#45;&gt;Node15</title>
<path fill="none" stroke="#191970" d="M269.0531,-110.4179C267.1998,-103.1372 264.5352,-92.669 262.218,-83.5659"/>
<polygon fill="#191970" stroke="#191970" points="265.5857,-82.607 259.727,-73.7795 258.802,-84.3338 265.5857,-82.607"/>
</g>
<!-- Node9&#45;&gt;Node1 -->
<g id="edge17" class="edge">
<title>Node9&#45;&gt;Node1</title>
<path fill="none" stroke="#191970" d="M404.7051,-60.2756C361.5176,-51.8525 263.4626,-32.7283 200.782,-20.5033"/>
<polygon fill="#191970" stroke="#191970" points="201.1433,-17.0079 190.6582,-18.5288 199.8033,-23.8785 201.1433,-17.0079"/>
</g>
<!-- Node9&#45;&gt;Node3 -->
<g id="edge15" class="edge">
<title>Node9&#45;&gt;Node3</title>
<path fill="none" stroke="#191970" d="M448.1633,-59.1786C481.2133,-51.0252 545.9195,-34.7281 600.3649,-19 600.4633,-18.9716 600.5619,-18.943 600.6607,-18.9144"/>
<polygon fill="#191970" stroke="#191970" points="601.5085,-22.3145 610.0743,-16.0793 599.4897,-15.6119 601.5085,-22.3145"/>
</g>
<!-- Node9&#45;&gt;Node6 -->
<g id="edge14" class="edge">
<title>Node9&#45;&gt;Node6</title>
<path fill="none" stroke="#191970" d="M404.6071,-58.3605C375.8365,-50.2152 323.3247,-35.2551 268.8581,-19.1105"/>
<polygon fill="#191970" stroke="#191970" points="269.6137,-15.6838 259.031,-16.1908 267.62,-22.3939 269.6137,-15.6838"/>
</g>
<!-- Node10 -->
<g id="node11" class="node">
<title>Node10</title>
<polygon fill="#ffffff" stroke="#bfbfbf" points="277.3034,-.5 277.3034,-18.5 329.4264,-18.5 329.4264,-.5 277.3034,-.5"/>
<text text-anchor="middle" x="303.3649" y="-6.5" font-family="Helvetica,sans-Serif" font-size="10.00" fill="#000000">ostream</text>
</g>
<!-- Node9&#45;&gt;Node10 -->
<g id="edge16" class="edge">
<title>Node9&#45;&gt;Node10</title>
<path fill="none" stroke="#191970" d="M406.054,-55.4179C386.1128,-46.5011 355.479,-32.803 332.8564,-22.6873"/>
<polygon fill="#191970" stroke="#191970" points="334.2637,-19.4826 323.706,-18.5956 331.4062,-25.8728 334.2637,-19.4826"/>
</g>
<!-- Node11 -->
<g id="node12" class="node">
<title>Node11</title>
<polygon fill="#ffffff" stroke="#bfbfbf" points="347.6877,-.5 347.6877,-18.5 457.0422,-18.5 457.0422,-.5 347.6877,-.5"/>
<text text-anchor="middle" x="402.3649" y="-6.5" font-family="Helvetica,sans-Serif" font-size="10.00" fill="#000000">llvm/ADT/StringRef.h</text>
</g>
<!-- Node9&#45;&gt;Node11 -->
<g id="edge18" class="edge">
<title>Node9&#45;&gt;Node11</title>
<path fill="none" stroke="#191970" d="M422.4018,-55.4179C419.1557,-47.9789 414.4576,-37.2123 410.4264,-27.9742"/>
<polygon fill="#191970" stroke="#191970" points="413.6215,-26.545 406.4141,-18.7795 407.2058,-29.3447 413.6215,-26.545"/>
</g>
<!-- Node12 -->
<g id="node13" class="node">
<title>Node12</title>
<polygon fill="#ffffff" stroke="#bfbfbf" points="475.0646,-.5 475.0646,-18.5 591.6652,-18.5 591.6652,-.5 475.0646,-.5"/>
<text text-anchor="middle" x="533.3649" y="-6.5" font-family="Helvetica,sans-Serif" font-size="10.00" fill="#000000">llvm/Support/Casting.h</text>
</g>
<!-- Node9&#45;&gt;Node12 -->
<g id="edge19" class="edge">
<title>Node9&#45;&gt;Node12</title>
<path fill="none" stroke="#191970" d="M444.0338,-55.4179C461.0712,-46.6603 487.0811,-33.2907 506.6489,-23.2326"/>
<polygon fill="#191970" stroke="#191970" points="508.376,-26.2801 515.6698,-18.5956 505.1759,-20.0544 508.376,-26.2801"/>
</g>
<!-- Node14 -->
<g id="node15" class="node">
<title>Node14</title>
<polygon fill="#ffffff" stroke="#bfbfbf" points="29.4782,-.5 29.4782,-18.5 73.2516,-18.5 73.2516,-.5 29.4782,-.5"/>
<text text-anchor="middle" x="51.3649" y="-6.5" font-family="Helvetica,sans-Serif" font-size="10.00" fill="#000000">climits</text>
</g>
<!-- Node13&#45;&gt;Node14 -->
<g id="edge21" class="edge">
<title>Node13&#45;&gt;Node14</title>
<path fill="none" stroke="#191970" d="M53.0347,-55.4179C52.7728,-48.2164 52.3975,-37.8962 52.069,-28.8632"/>
<polygon fill="#191970" stroke="#191970" points="55.5635,-28.6456 51.7024,-18.7795 48.5682,-28.9001 55.5635,-28.6456"/>
</g>
<!-- Node16&#45;&gt;Node5 -->
<g id="edge25" class="edge">
<title>Node16&#45;&gt;Node5</title>
<path fill="none" stroke="#191970" d="M201.1255,-165.2497C190.1872,-156.6146 174.1189,-142.9912 162.3649,-129 150.3428,-114.6897 139.363,-96.4358 131.9613,-83.0018"/>
<polygon fill="#191970" stroke="#191970" points="134.847,-80.9764 127.0406,-73.8133 128.6761,-84.2811 134.847,-80.9764"/>
</g>
<!-- Node16&#45;&gt;Node6 -->
<g id="edge24" class="edge">
<title>Node16&#45;&gt;Node6</title>
<path fill="none" stroke="#191970" d="M208.9643,-165.4571C199.6664,-145.0346 180.0852,-94.0802 195.3649,-55 199.8147,-43.619 208.5937,-33.3741 216.9799,-25.5003"/>
<polygon fill="#191970" stroke="#191970" points="219.5161,-27.9322 224.7458,-18.718 214.9115,-22.6598 219.5161,-27.9322"/>
</g>
<!-- Node16&#45;&gt;Node8 -->
<g id="edge26" class="edge">
<title>Node16&#45;&gt;Node8</title>
<path fill="none" stroke="#191970" d="M222.9424,-165.4179C231.3713,-157.425 243.8515,-145.5903 254.0306,-135.9377"/>
<polygon fill="#191970" stroke="#191970" points="256.7314,-138.2001 261.5793,-128.7795 251.9147,-133.1207 256.7314,-138.2001"/>
</g>
</g>
</svg>
