<?xml version="1.0" encoding="UTF-8" standalone="no"?>
<!DOCTYPE svg PUBLIC "-//W3C//DTD SVG 1.1//EN"
 "http://www.w3.org/Graphics/SVG/1.1/DTD/svg11.dtd">
<!-- Generated by graphviz version 2.40.1 (20161225.0304)
 -->
<!-- Title: delta::mangle Pages: 1 -->
<svg width="409pt" height="46pt"
 viewBox="0.00 0.00 408.73 46.00" xmlns="http://www.w3.org/2000/svg" xmlns:xlink="http://www.w3.org/1999/xlink">
<g id="graph0" class="graph" transform="scale(1 1) rotate(0) translate(4 42)">
<title>delta::mangle</title>
<polygon fill="#ffffff" stroke="transparent" points="-4,4 -4,-42 404.7324,-42 404.7324,4 -4,4"/>
<!-- Node17 -->
<g id="node1" class="node">
<title>Node17</title>
<polygon fill="#bfbfbf" stroke="#000000" points="0,-19.5 0,-37.5 76.0391,-37.5 76.0391,-19.5 0,-19.5"/>
<text text-anchor="middle" x="38.0195" y="-25.5" font-family="Helvetica,sans-Serif" font-size="10.00" fill="#000000">delta::mangle</text>
</g>
<!-- Node18 -->
<g id="node2" class="node">
<title>Node18</title>
<g id="a_node2"><a xlink:href="namespacedelta.html#abf78cd71ca70d4a49c0e9c3ac2e06d87" target="_top" xlink:title="delta::addToSymbolTable">
<polygon fill="#ffffff" stroke="#000000" points="272.9941,-19.5 272.9941,-37.5 400.7324,-37.5 400.7324,-19.5 272.9941,-19.5"/>
<text text-anchor="middle" x="336.8633" y="-25.5" font-family="Helvetica,sans-Serif" font-size="10.00" fill="#000000">delta::addToSymbolTable</text>
</a>
</g>
</g>
<!-- Node17&#45;&gt;Node18 -->
<g id="edge1" class="edge">
<title>Node17&#45;&gt;Node18</title>
<path fill="none" stroke="#191970" d="M86.2081,-28.5C136.8712,-28.5 216.8443,-28.5 272.7946,-28.5"/>
<polygon fill="#191970" stroke="#191970" points="86.1719,-25.0001 76.1718,-28.5 86.1718,-32.0001 86.1719,-25.0001"/>
</g>
<!-- Node19 -->
<g id="node3" class="node">
<title>Node19</title>
<g id="a_node3"><a xlink:href="namespacedelta.html#afbcc11c583968bc13aa34e5c3d58e54b" target="_top" xlink:title="delta::findInSymbolTable">
<polygon fill="#ffffff" stroke="#000000" points="112.0391,-.5 112.0391,-18.5 236.9941,-18.5 236.9941,-.5 112.0391,-.5"/>
<text text-anchor="middle" x="174.5166" y="-6.5" font-family="Helvetica,sans-Serif" font-size="10.00" fill="#000000">delta::findInSymbolTable</text>
</a>
</g>
</g>
<!-- Node17&#45;&gt;Node19 -->
<g id="edge2" class="edge">
<title>Node17&#45;&gt;Node19</title>
<path fill="none" stroke="#191970" d="M85.9852,-21.8233C94.3503,-20.6589 103.1625,-19.4323 111.8532,-18.2226"/>
<polygon fill="#191970" stroke="#191970" points="85.4635,-18.3621 76.0416,-23.2074 86.4287,-25.2953 85.4635,-18.3621"/>
</g>
<!-- Node19&#45;&gt;Node18 -->
<g id="edge3" class="edge">
<title>Node19&#45;&gt;Node18</title>
<path fill="none" stroke="#191970" d="M247.2509,-18.0123C255.8103,-19.0141 264.4963,-20.0306 272.9226,-21.0168"/>
<polygon fill="#191970" stroke="#191970" points="247.6232,-14.5321 237.2841,-16.8459 246.8094,-21.4847 247.6232,-14.5321"/>
</g>
</g>
</svg>
