<?xml version="1.0" encoding="UTF-8" standalone="no"?>
<!DOCTYPE svg PUBLIC "-//W3C//DTD SVG 1.1//EN"
 "http://www.w3.org/Graphics/SVG/1.1/DTD/svg11.dtd">
<!-- Generated by graphviz version 2.40.1 (20161225.0304)
 -->
<!-- Title: delta::error Pages: 1 -->
<svg width="400pt" height="64pt"
 viewBox="0.00 0.00 399.83 64.00" xmlns="http://www.w3.org/2000/svg" xmlns:xlink="http://www.w3.org/1999/xlink">
<g id="graph0" class="graph" transform="scale(1 1) rotate(0) translate(4 60)">
<title>delta::error</title>
<polygon fill="#ffffff" stroke="transparent" points="-4,4 -4,-60 395.8311,-60 395.8311,4 -4,4"/>
<!-- Node6 -->
<g id="node1" class="node">
<title>Node6</title>
<polygon fill="#bfbfbf" stroke="#000000" points="0,-18.5 0,-36.5 64.3545,-36.5 64.3545,-18.5 0,-18.5"/>
<text text-anchor="middle" x="32.1772" y="-24.5" font-family="Helvetica,sans-Serif" font-size="10.00" fill="#000000">delta::error</text>
</g>
<!-- Node7 -->
<g id="node2" class="node">
<title>Node7</title>
<g id="a_node2"><a xlink:href="namespacedelta.html#aa177c1257b262c2aeb1286821a0e3766" target="_top" xlink:title="delta::addToSymbolTable">
<polygon fill="#ffffff" stroke="#000000" points="100.3545,-37.5 100.3545,-55.5 228.0928,-55.5 228.0928,-37.5 100.3545,-37.5"/>
<text text-anchor="middle" x="164.2236" y="-43.5" font-family="Helvetica,sans-Serif" font-size="10.00" fill="#000000">delta::addToSymbolTable</text>
</a>
</g>
</g>
<!-- Node6&#45;&gt;Node7 -->
<g id="edge1" class="edge">
<title>Node6&#45;&gt;Node7</title>
<path fill="none" stroke="#191970" d="M74.611,-33.6057C83.2052,-34.8424 92.4135,-36.1673 101.5366,-37.48"/>
<polygon fill="#191970" stroke="#191970" points="74.876,-30.1079 64.4794,-32.1479 73.879,-37.0365 74.876,-30.1079"/>
</g>
<!-- Node8 -->
<g id="node3" class="node">
<title>Node8</title>
<g id="a_node3"><a xlink:href="namespacedelta.html#afbcc11c583968bc13aa34e5c3d58e54b" target="_top" xlink:title="delta::findInSymbolTable">
<polygon fill="#ffffff" stroke="#000000" points="101.7461,-.5 101.7461,-18.5 226.7012,-18.5 226.7012,-.5 101.7461,-.5"/>
<text text-anchor="middle" x="164.2236" y="-6.5" font-family="Helvetica,sans-Serif" font-size="10.00" fill="#000000">delta::findInSymbolTable</text>
</a>
</g>
</g>
<!-- Node6&#45;&gt;Node8 -->
<g id="edge2" class="edge">
<title>Node6&#45;&gt;Node8</title>
<path fill="none" stroke="#191970" d="M74.611,-21.7156C83.2052,-20.5441 92.4135,-19.2889 101.5366,-18.0452"/>
<polygon fill="#191970" stroke="#191970" points="73.915,-18.278 64.4794,-23.0967 74.8606,-25.2139 73.915,-18.278"/>
</g>
<!-- Node9 -->
<g id="node4" class="node">
<title>Node9</title>
<g id="a_node4"><a xlink:href="namespacedelta.html#abf78cd71ca70d4a49c0e9c3ac2e06d87" target="_top" xlink:title="delta::addToSymbolTable">
<polygon fill="#ffffff" stroke="#000000" points="264.0928,-.5 264.0928,-18.5 391.8311,-18.5 391.8311,-.5 264.0928,-.5"/>
<text text-anchor="middle" x="327.9619" y="-6.5" font-family="Helvetica,sans-Serif" font-size="10.00" fill="#000000">delta::addToSymbolTable</text>
</a>
</g>
</g>
<!-- Node8&#45;&gt;Node9 -->
<g id="edge3" class="edge">
<title>Node8&#45;&gt;Node9</title>
<path fill="none" stroke="#191970" d="M237.0824,-9.5C246.0339,-9.5 255.1309,-9.5 263.9383,-9.5"/>
<polygon fill="#191970" stroke="#191970" points="237.0609,-6.0001 227.0608,-9.5 237.0608,-13.0001 237.0609,-6.0001"/>
</g>
</g>
</svg>
