<?xml version="1.0" encoding="UTF-8" standalone="no"?>
<!DOCTYPE svg PUBLIC "-//W3C//DTD SVG 1.1//EN"
 "http://www.w3.org/Graphics/SVG/1.1/DTD/svg11.dtd">
<!-- Generated by graphviz version 2.40.1 (20161225.0304)
 -->
<!-- Title: delta::typecheck Pages: 1 -->
<svg width="421pt" height="64pt"
 viewBox="0.00 0.00 420.96 64.00" xmlns="http://www.w3.org/2000/svg" xmlns:xlink="http://www.w3.org/1999/xlink">
<g id="graph0" class="graph" transform="scale(1 1) rotate(0) translate(4 60)">
<title>delta::typecheck</title>
<polygon fill="#ffffff" stroke="transparent" points="-4,4 -4,-60 416.959,-60 416.959,4 -4,4"/>
<!-- Node38 -->
<g id="node1" class="node">
<title>Node38</title>
<polygon fill="#bfbfbf" stroke="#000000" points="0,-18.5 0,-36.5 88.2656,-36.5 88.2656,-18.5 0,-18.5"/>
<text text-anchor="middle" x="44.1328" y="-24.5" font-family="Helvetica,sans-Serif" font-size="10.00" fill="#000000">delta::typecheck</text>
</g>
<!-- Node39 -->
<g id="node2" class="node">
<title>Node39</title>
<g id="a_node2"><a xlink:href="main_8cpp.html#a3c04138a5bfe5d72780bb7e82a18e627" target="_top" xlink:title="main">
<polygon fill="#ffffff" stroke="#000000" points="167.9058,-37.5 167.9058,-55.5 205.5806,-55.5 205.5806,-37.5 167.9058,-37.5"/>
<text text-anchor="middle" x="186.7432" y="-43.5" font-family="Helvetica,sans-Serif" font-size="10.00" fill="#000000">main</text>
</a>
</g>
</g>
<!-- Node38&#45;&gt;Node39 -->
<g id="edge1" class="edge">
<title>Node38&#45;&gt;Node39</title>
<path fill="none" stroke="#191970" d="M98.7102,-34.7714C123.0729,-38.0172 150.1966,-41.6309 167.8125,-43.9779"/>
<polygon fill="#191970" stroke="#191970" points="98.8486,-31.2589 88.4739,-33.4076 97.924,-38.1976 98.8486,-31.2589"/>
</g>
<!-- Node40 -->
<g id="node3" class="node">
<title>Node40</title>
<g id="a_node3"><a xlink:href="namespacedelta.html#afbcc11c583968bc13aa34e5c3d58e54b" target="_top" xlink:title="delta::findInSymbolTable">
<polygon fill="#ffffff" stroke="#000000" points="124.2656,-.5 124.2656,-18.5 249.2207,-18.5 249.2207,-.5 124.2656,-.5"/>
<text text-anchor="middle" x="186.7432" y="-6.5" font-family="Helvetica,sans-Serif" font-size="10.00" fill="#000000">delta::findInSymbolTable</text>
</a>
</g>
</g>
<!-- Node38&#45;&gt;Node40 -->
<g id="edge2" class="edge">
<title>Node38&#45;&gt;Node40</title>
<path fill="none" stroke="#191970" d="M98.4901,-20.6391C106.8637,-19.5822 115.5683,-18.4836 124.1046,-17.4061"/>
<polygon fill="#191970" stroke="#191970" points="97.9569,-17.1786 88.4739,-21.9034 98.8335,-24.1235 97.9569,-17.1786"/>
</g>
<!-- Node41 -->
<g id="node4" class="node">
<title>Node41</title>
<g id="a_node4"><a xlink:href="namespacedelta.html#abf78cd71ca70d4a49c0e9c3ac2e06d87" target="_top" xlink:title="delta::addToSymbolTable">
<polygon fill="#ffffff" stroke="#000000" points="285.2207,-.5 285.2207,-18.5 412.959,-18.5 412.959,-.5 285.2207,-.5"/>
<text text-anchor="middle" x="349.0898" y="-6.5" font-family="Helvetica,sans-Serif" font-size="10.00" fill="#000000">delta::addToSymbolTable</text>
</a>
</g>
</g>
<!-- Node40&#45;&gt;Node41 -->
<g id="edge3" class="edge">
<title>Node40&#45;&gt;Node41</title>
<path fill="none" stroke="#191970" d="M259.7566,-9.5C268.2257,-9.5 276.8145,-9.5 285.1492,-9.5"/>
<polygon fill="#191970" stroke="#191970" points="259.5107,-6.0001 249.5106,-9.5 259.5106,-13.0001 259.5107,-6.0001"/>
</g>
</g>
</svg>
