<?xml version="1.0" encoding="UTF-8" standalone="no"?>
<!DOCTYPE svg PUBLIC "-//W3C//DTD SVG 1.1//EN"
 "http://www.w3.org/Graphics/SVG/1.1/DTD/svg11.dtd">
<!-- Generated by graphviz version 2.40.1 (20161225.0304)
 -->
<!-- Title: delta::importCHeader Pages: 1 -->
<svg width="444pt" height="27pt"
 viewBox="0.00 0.00 443.74 27.00" xmlns="http://www.w3.org/2000/svg" xmlns:xlink="http://www.w3.org/1999/xlink">
<g id="graph0" class="graph" transform="scale(1 1) rotate(0) translate(4 23)">
<title>delta::importCHeader</title>
<polygon fill="#ffffff" stroke="transparent" points="-4,4 -4,-23 439.7373,-23 439.7373,4 -4,4"/>
<!-- Node14 -->
<g id="node1" class="node">
<title>Node14</title>
<polygon fill="#bfbfbf" stroke="#000000" points="0,-.5 0,-18.5 111.0439,-18.5 111.0439,-.5 0,-.5"/>
<text text-anchor="middle" x="55.522" y="-6.5" font-family="Helvetica,sans-Serif" font-size="10.00" fill="#000000">delta::importCHeader</text>
</g>
<!-- Node15 -->
<g id="node2" class="node">
<title>Node15</title>
<g id="a_node2"><a xlink:href="namespacedelta.html#afbcc11c583968bc13aa34e5c3d58e54b" target="_top" xlink:title="delta::findInSymbolTable">
<polygon fill="#ffffff" stroke="#000000" points="147.0439,-.5 147.0439,-18.5 271.999,-18.5 271.999,-.5 147.0439,-.5"/>
<text text-anchor="middle" x="209.5215" y="-6.5" font-family="Helvetica,sans-Serif" font-size="10.00" fill="#000000">delta::findInSymbolTable</text>
</a>
</g>
</g>
<!-- Node14&#45;&gt;Node15 -->
<g id="edge1" class="edge">
<title>Node14&#45;&gt;Node15</title>
<path fill="none" stroke="#191970" d="M121.3544,-9.5C129.8439,-9.5 138.5184,-9.5 146.9534,-9.5"/>
<polygon fill="#191970" stroke="#191970" points="121.1194,-6.0001 111.1193,-9.5 121.1193,-13.0001 121.1194,-6.0001"/>
</g>
<!-- Node16 -->
<g id="node3" class="node">
<title>Node16</title>
<g id="a_node3"><a xlink:href="namespacedelta.html#abf78cd71ca70d4a49c0e9c3ac2e06d87" target="_top" xlink:title="delta::addToSymbolTable">
<polygon fill="#ffffff" stroke="#000000" points="307.999,-.5 307.999,-18.5 435.7373,-18.5 435.7373,-.5 307.999,-.5"/>
<text text-anchor="middle" x="371.8682" y="-6.5" font-family="Helvetica,sans-Serif" font-size="10.00" fill="#000000">delta::addToSymbolTable</text>
</a>
</g>
</g>
<!-- Node15&#45;&gt;Node16 -->
<g id="edge2" class="edge">
<title>Node15&#45;&gt;Node16</title>
<path fill="none" stroke="#191970" d="M282.5349,-9.5C291.004,-9.5 299.5928,-9.5 307.9275,-9.5"/>
<polygon fill="#191970" stroke="#191970" points="282.289,-6.0001 272.2889,-9.5 282.2889,-13.0001 282.289,-6.0001"/>
</g>
</g>
</svg>
