<?xml version="1.0" encoding="UTF-8" standalone="no"?>
<!DOCTYPE svg PUBLIC "-//W3C//DTD SVG 1.1//EN"
 "http://www.w3.org/Graphics/SVG/1.1/DTD/svg11.dtd">
<!-- Generated by graphviz version 2.40.1 (20161225.0304)
 -->
<!-- Title: src/parser/operators.cpp Pages: 1 -->
<svg width="236pt" height="82pt"
 viewBox="0.00 0.00 236.49 82.00" xmlns="http://www.w3.org/2000/svg" xmlns:xlink="http://www.w3.org/1999/xlink">
<g id="graph0" class="graph" transform="scale(1 1) rotate(0) translate(4 78)">
<title>src/parser/operators.cpp</title>
<polygon fill="#ffffff" stroke="transparent" points="-4,4 -4,-78 232.4873,-78 232.4873,4 -4,4"/>
<!-- Node0 -->
<g id="node1" class="node">
<title>Node0</title>
<polygon fill="#bfbfbf" stroke="#000000" points="71.0049,-55.5 71.0049,-73.5 195.3838,-73.5 195.3838,-55.5 71.0049,-55.5"/>
<text text-anchor="middle" x="133.1943" y="-61.5" font-family="Helvetica,sans-Serif" font-size="10.00" fill="#000000">src/parser/operators.cpp</text>
</g>
<!-- Node1 -->
<g id="node2" class="node">
<title>Node1</title>
<polygon fill="#ffffff" stroke="#bfbfbf" points="0,-.5 0,-18.5 144.3887,-18.5 144.3887,-.5 0,-.5"/>
<text text-anchor="middle" x="72.1943" y="-6.5" font-family="Helvetica,sans-Serif" font-size="10.00" fill="#000000">llvm/Support/ErrorHandling.h</text>
</g>
<!-- Node0&#45;&gt;Node1 -->
<g id="edge1" class="edge">
<title>Node0&#45;&gt;Node1</title>
<path fill="none" stroke="#191970" d="M123.1214,-55.4179C114.1688,-47.3458 100.8706,-35.3556 90.108,-25.6517"/>
<polygon fill="#191970" stroke="#191970" points="92.2567,-22.8764 82.4861,-18.7795 87.5693,-28.0753 92.2567,-22.8764"/>
</g>
<!-- Node2 -->
<g id="node3" class="node">
<title>Node2</title>
<g id="a_node3"><a xlink:href="operators_8h.html" target="_top" xlink:title="operators.h">
<polygon fill="#ffffff" stroke="#000000" points="161.9014,-.5 161.9014,-18.5 228.4873,-18.5 228.4873,-.5 161.9014,-.5"/>
<text text-anchor="middle" x="195.1943" y="-6.5" font-family="Helvetica,sans-Serif" font-size="10.00" fill="#000000">operators.h</text>
</a>
</g>
</g>
<!-- Node0&#45;&gt;Node2 -->
<g id="edge2" class="edge">
<title>Node0&#45;&gt;Node2</title>
<path fill="none" stroke="#191970" d="M143.4324,-55.4179C152.5317,-47.3458 166.048,-35.3556 176.987,-25.6517"/>
<polygon fill="#191970" stroke="#191970" points="179.5757,-28.0339 184.7339,-18.7795 174.9304,-22.7974 179.5757,-28.0339"/>
</g>
</g>
</svg>
