<?xml version="1.0" encoding="UTF-8" standalone="no"?>
<!DOCTYPE svg PUBLIC "-//W3C//DTD SVG 1.1//EN"
 "http://www.w3.org/Graphics/SVG/1.1/DTD/svg11.dtd">
<!-- Generated by graphviz version 2.40.1 (20161225.0304)
 -->
<!-- Title: src/ast/srcloc.h Pages: 1 -->
<svg width="1191pt" height="247pt"
 viewBox="0.00 0.00 1191.15 247.00" xmlns="http://www.w3.org/2000/svg" xmlns:xlink="http://www.w3.org/1999/xlink">
<g id="graph0" class="graph" transform="scale(1 1) rotate(0) translate(4 243)">
<title>src/ast/srcloc.h</title>
<polygon fill="#ffffff" stroke="transparent" points="-4,4 -4,-243 1187.1475,-243 1187.1475,4 -4,4"/>
<!-- Node2 -->
<g id="node1" class="node">
<title>Node2</title>
<polygon fill="#bfbfbf" stroke="#000000" points="479.7905,-220.5 479.7905,-238.5 562.4702,-238.5 562.4702,-220.5 479.7905,-220.5"/>
<text text-anchor="middle" x="521.1304" y="-226.5" font-family="Helvetica,sans-Serif" font-size="10.00" fill="#000000">src/ast/srcloc.h</text>
</g>
<!-- Node3 -->
<g id="node2" class="node">
<title>Node3</title>
<g id="a_node2"><a xlink:href="expr_8h.html" target="_top" xlink:title="src/ast/expr.h">
<polygon fill="#ffffff" stroke="#000000" points="554.394,-165.5 554.394,-183.5 629.8667,-183.5 629.8667,-165.5 554.394,-165.5"/>
<text text-anchor="middle" x="592.1304" y="-171.5" font-family="Helvetica,sans-Serif" font-size="10.00" fill="#000000">src/ast/expr.h</text>
</a>
</g>
</g>
<!-- Node2&#45;&gt;Node3 -->
<g id="edge1" class="edge">
<title>Node2&#45;&gt;Node3</title>
<path fill="none" stroke="#191970" d="M540.9458,-214.15C553.5452,-204.3899 569.4437,-192.0742 580.1514,-183.7795"/>
<polygon fill="#191970" stroke="#191970" points="538.6167,-211.5269 532.8546,-220.4179 542.9035,-217.0608 538.6167,-211.5269"/>
</g>
<!-- Node4 -->
<g id="node3" class="node">
<title>Node4</title>
<g id="a_node3"><a xlink:href="decl_8h.html" target="_top" xlink:title="src/ast/decl.h">
<polygon fill="#ffffff" stroke="#000000" points="607.6748,-55.5 607.6748,-73.5 682.5859,-73.5 682.5859,-55.5 607.6748,-55.5"/>
<text text-anchor="middle" x="645.1304" y="-61.5" font-family="Helvetica,sans-Serif" font-size="10.00" fill="#000000">src/ast/decl.h</text>
</a>
</g>
</g>
<!-- Node2&#45;&gt;Node4 -->
<g id="edge17" class="edge">
<title>Node2&#45;&gt;Node4</title>
<path fill="none" stroke="#191970" d="M525.97,-210.1791C529.8629,-196.8156 536.1704,-178.9923 545.1304,-165 570.0842,-126.031 612.3177,-90.0974 632.9937,-73.7572"/>
<polygon fill="#191970" stroke="#191970" points="522.4991,-209.6061 523.2627,-220.1734 529.2556,-211.4364 522.4991,-209.6061"/>
</g>
<!-- Node14 -->
<g id="node13" class="node">
<title>Node14</title>
<g id="a_node13"><a xlink:href="utility_8h.html" target="_top" xlink:title="src/driver/utility.h">
<polygon fill="#ffffff" stroke="#000000" points="358.9917,-55.5 358.9917,-73.5 449.269,-73.5 449.269,-55.5 358.9917,-55.5"/>
<text text-anchor="middle" x="404.1304" y="-61.5" font-family="Helvetica,sans-Serif" font-size="10.00" fill="#000000">src/driver/utility.h</text>
</a>
</g>
</g>
<!-- Node2&#45;&gt;Node14 -->
<g id="edge18" class="edge">
<title>Node2&#45;&gt;Node14</title>
<path fill="none" stroke="#191970" d="M508.6327,-211.8751C483.9033,-177.0003 429.496,-100.2721 410.6834,-73.7414"/>
<polygon fill="#191970" stroke="#191970" points="505.8653,-214.0233 514.5047,-220.1561 511.5755,-209.9743 505.8653,-214.0233"/>
</g>
<!-- Node3&#45;&gt;Node4 -->
<g id="edge2" class="edge">
<title>Node3&#45;&gt;Node4</title>
<path fill="none" stroke="#191970" d="M597.9443,-155.7314C602.2848,-142.6217 608.7269,-124.8745 616.1304,-110 622.7253,-96.7501 632.2263,-82.5237 638.534,-73.5733"/>
<polygon fill="#191970" stroke="#191970" points="594.5364,-154.8968 594.8175,-165.4879 601.2025,-157.0332 594.5364,-154.8968"/>
</g>
<!-- Node7 -->
<g id="node6" class="node">
<title>Node7</title>
<g id="a_node6"><a xlink:href="expr_8cpp.html" target="_top" xlink:title="src/ast/expr.cpp">
<polygon fill="#ffffff" stroke="#000000" points="1097.1133,-.5 1097.1133,-18.5 1183.1475,-18.5 1183.1475,-.5 1097.1133,-.5"/>
<text text-anchor="middle" x="1140.1304" y="-6.5" font-family="Helvetica,sans-Serif" font-size="10.00" fill="#000000">src/ast/expr.cpp</text>
</a>
</g>
</g>
<!-- Node3&#45;&gt;Node7 -->
<g id="edge14" class="edge">
<title>Node3&#45;&gt;Node7</title>
<path fill="none" stroke="#191970" d="M632.2474,-162.421C737.0612,-130.8621 1017.3843,-46.4582 1109.9804,-18.578"/>
<polygon fill="#191970" stroke="#191970" points="630.9401,-159.1593 622.3738,-165.3939 632.9583,-165.8621 630.9401,-159.1593"/>
</g>
<!-- Node9 -->
<g id="node8" class="node">
<title>Node9</title>
<g id="a_node8"><a xlink:href="irgen_8cpp.html" target="_top" xlink:title="src/irgen/irgen.cpp">
<polygon fill="#ffffff" stroke="#000000" points="0,-.5 0,-18.5 98.2607,-18.5 98.2607,-.5 0,-.5"/>
<text text-anchor="middle" x="49.1304" y="-6.5" font-family="Helvetica,sans-Serif" font-size="10.00" fill="#000000">src/irgen/irgen.cpp</text>
</a>
</g>
</g>
<!-- Node3&#45;&gt;Node9 -->
<g id="edge15" class="edge">
<title>Node3&#45;&gt;Node9</title>
<path fill="none" stroke="#191970" d="M552.3794,-162.421C448.5219,-130.8621 170.7565,-46.4582 79.0053,-18.578"/>
<polygon fill="#191970" stroke="#191970" points="551.5772,-165.8352 562.1629,-165.3939 553.6125,-159.1376 551.5772,-165.8352"/>
</g>
<!-- Node12 -->
<g id="node11" class="node">
<title>Node12</title>
<g id="a_node11"><a xlink:href="typecheck_8cpp.html" target="_top" xlink:title="src/sema/typecheck.cpp">
<polygon fill="#ffffff" stroke="#000000" points="342.4976,-.5 342.4976,-18.5 465.7632,-18.5 465.7632,-.5 342.4976,-.5"/>
<text text-anchor="middle" x="404.1304" y="-6.5" font-family="Helvetica,sans-Serif" font-size="10.00" fill="#000000">src/sema/typecheck.cpp</text>
</a>
</g>
</g>
<!-- Node3&#45;&gt;Node12 -->
<g id="edge16" class="edge">
<title>Node3&#45;&gt;Node12</title>
<path fill="none" stroke="#191970" d="M574.4066,-158.408C548.8908,-135.3069 500.2404,-91.5048 458.1304,-55 443.4946,-42.3123 426.3551,-27.9541 415.3776,-18.8204"/>
<polygon fill="#191970" stroke="#191970" points="572.3701,-161.2859 582.1301,-165.4083 577.0711,-156.0992 572.3701,-161.2859"/>
</g>
<!-- Node13 -->
<g id="node12" class="node">
<title>Node13</title>
<g id="a_node12"><a xlink:href="stmt_8h.html" target="_top" xlink:title="src/ast/stmt.h">
<polygon fill="#ffffff" stroke="#000000" points="625.4038,-110.5 625.4038,-128.5 700.8569,-128.5 700.8569,-110.5 625.4038,-110.5"/>
<text text-anchor="middle" x="663.1304" y="-116.5" font-family="Helvetica,sans-Serif" font-size="10.00" fill="#000000">src/ast/stmt.h</text>
</a>
</g>
</g>
<!-- Node3&#45;&gt;Node13 -->
<g id="edge11" class="edge">
<title>Node3&#45;&gt;Node13</title>
<path fill="none" stroke="#191970" d="M611.9458,-159.15C624.5452,-149.3899 640.4437,-137.0742 651.1514,-128.7795"/>
<polygon fill="#191970" stroke="#191970" points="609.6167,-156.5269 603.8546,-165.4179 613.9035,-162.0608 609.6167,-156.5269"/>
</g>
<!-- Node5 -->
<g id="node4" class="node">
<title>Node5</title>
<g id="a_node4"><a xlink:href="ast__printer_8cpp.html" target="_top" xlink:title="src/ast/ast_printer.cpp">
<polygon fill="#ffffff" stroke="#000000" points="965.2168,-.5 965.2168,-18.5 1079.0439,-18.5 1079.0439,-.5 965.2168,-.5"/>
<text text-anchor="middle" x="1022.1304" y="-6.5" font-family="Helvetica,sans-Serif" font-size="10.00" fill="#000000">src/ast/ast_printer.cpp</text>
</a>
</g>
</g>
<!-- Node4&#45;&gt;Node5 -->
<g id="edge3" class="edge">
<title>Node4&#45;&gt;Node5</title>
<path fill="none" stroke="#191970" d="M692.8533,-57.5378C762.194,-47.4217 890.6091,-28.6874 964.9266,-17.8454"/>
<polygon fill="#191970" stroke="#191970" points="692.0468,-54.1183 682.6569,-59.0253 693.0574,-61.045 692.0468,-54.1183"/>
</g>
<!-- Node6 -->
<g id="node5" class="node">
<title>Node6</title>
<g id="a_node5"><a xlink:href="decl_8cpp.html" target="_top" xlink:title="src/ast/decl.cpp">
<polygon fill="#ffffff" stroke="#000000" points="602.394,-.5 602.394,-18.5 687.8667,-18.5 687.8667,-.5 602.394,-.5"/>
<text text-anchor="middle" x="645.1304" y="-6.5" font-family="Helvetica,sans-Serif" font-size="10.00" fill="#000000">src/ast/decl.cpp</text>
</a>
</g>
</g>
<!-- Node4&#45;&gt;Node6 -->
<g id="edge4" class="edge">
<title>Node4&#45;&gt;Node6</title>
<path fill="none" stroke="#191970" d="M645.1304,-45.383C645.1304,-36.3738 645.1304,-26.0373 645.1304,-18.7795"/>
<polygon fill="#191970" stroke="#191970" points="641.6305,-45.4178 645.1304,-55.4179 648.6305,-45.4179 641.6305,-45.4178"/>
</g>
<!-- Node4&#45;&gt;Node7 -->
<g id="edge5" class="edge">
<title>Node4&#45;&gt;Node7</title>
<path fill="none" stroke="#191970" d="M693.0054,-60.8205C774.4136,-54.2871 944.9218,-39.404 1088.1304,-19 1091.0377,-18.5858 1094.0307,-18.1267 1097.0425,-17.6404"/>
<polygon fill="#191970" stroke="#191970" points="692.2802,-57.367 682.5895,-61.6497 692.8358,-64.3449 692.2802,-57.367"/>
</g>
<!-- Node8 -->
<g id="node7" class="node">
<title>Node8</title>
<g id="a_node7"><a xlink:href="main_8cpp.html" target="_top" xlink:title="src/driver/main.cpp">
<polygon fill="#ffffff" stroke="#000000" points="483.8965,-.5 483.8965,-18.5 584.3643,-18.5 584.3643,-.5 483.8965,-.5"/>
<text text-anchor="middle" x="534.1304" y="-6.5" font-family="Helvetica,sans-Serif" font-size="10.00" fill="#000000">src/driver/main.cpp</text>
</a>
</g>
</g>
<!-- Node4&#45;&gt;Node8 -->
<g id="edge6" class="edge">
<title>Node4&#45;&gt;Node8</title>
<path fill="none" stroke="#191970" d="M617.7231,-50.9198C597.4,-40.8498 570.2513,-27.3977 552.487,-18.5956"/>
<polygon fill="#191970" stroke="#191970" points="616.2867,-54.1141 626.801,-55.4179 619.3946,-47.8419 616.2867,-54.1141"/>
</g>
<!-- Node4&#45;&gt;Node9 -->
<g id="edge7" class="edge">
<title>Node4&#45;&gt;Node9</title>
<path fill="none" stroke="#191970" d="M597.4707,-61.7218C503.4579,-55.965 287.5765,-41.3737 107.1304,-19 104.2951,-18.6484 101.3861,-18.2601 98.4536,-17.8473"/>
<polygon fill="#191970" stroke="#191970" points="597.3277,-65.2195 607.5215,-62.3319 597.7519,-58.2323 597.3277,-65.2195"/>
</g>
<!-- Node10 -->
<g id="node9" class="node">
<title>Node10</title>
<g id="a_node9"><a xlink:href="mangle_8cpp.html" target="_top" xlink:title="src/irgen/mangle.cpp">
<polygon fill="#ffffff" stroke="#000000" points="705.7192,-.5 705.7192,-18.5 814.5415,-18.5 814.5415,-.5 705.7192,-.5"/>
<text text-anchor="middle" x="760.1304" y="-6.5" font-family="Helvetica,sans-Serif" font-size="10.00" fill="#000000">src/irgen/mangle.cpp</text>
</a>
</g>
</g>
<!-- Node4&#45;&gt;Node10 -->
<g id="edge8" class="edge">
<title>Node4&#45;&gt;Node10</title>
<path fill="none" stroke="#191970" d="M673.2399,-51.0563C694.3261,-40.9716 722.6245,-27.4376 741.1122,-18.5956"/>
<polygon fill="#191970" stroke="#191970" points="671.6315,-47.9458 664.1203,-55.4179 674.6517,-54.2607 671.6315,-47.9458"/>
</g>
<!-- Node11 -->
<g id="node10" class="node">
<title>Node11</title>
<g id="a_node10"><a xlink:href="c-import_8cpp.html" target="_top" xlink:title="src/sema/c&#45;import.cpp">
<polygon fill="#ffffff" stroke="#000000" points="832.9531,-.5 832.9531,-18.5 947.3076,-18.5 947.3076,-.5 832.9531,-.5"/>
<text text-anchor="middle" x="890.1304" y="-6.5" font-family="Helvetica,sans-Serif" font-size="10.00" fill="#000000">src/sema/c&#45;import.cpp</text>
</a>
</g>
</g>
<!-- Node4&#45;&gt;Node11 -->
<g id="edge9" class="edge">
<title>Node4&#45;&gt;Node11</title>
<path fill="none" stroke="#191970" d="M692.5668,-53.851C738.2696,-43.5912 806.6565,-28.239 849.8039,-18.5529"/>
<polygon fill="#191970" stroke="#191970" points="691.5978,-50.4813 682.6073,-56.0868 693.1311,-57.3114 691.5978,-50.4813"/>
</g>
<!-- Node4&#45;&gt;Node12 -->
<g id="edge10" class="edge">
<title>Node4&#45;&gt;Node12</title>
<path fill="none" stroke="#191970" d="M597.6783,-53.6707C552.7723,-43.4224 486.1285,-28.2133 443.9266,-18.5821"/>
<polygon fill="#191970" stroke="#191970" points="596.946,-57.0935 607.4741,-55.9063 598.5035,-50.269 596.946,-57.0935"/>
</g>
<!-- Node13&#45;&gt;Node4 -->
<g id="edge12" class="edge">
<title>Node13&#45;&gt;Node4</title>
<path fill="none" stroke="#191970" d="M656.971,-100.6796C653.9999,-91.6014 650.5687,-81.1171 648.1673,-73.7795"/>
<polygon fill="#191970" stroke="#191970" points="653.7212,-102.0026 660.158,-110.4179 660.374,-99.8252 653.7212,-102.0026"/>
</g>
<!-- Node13&#45;&gt;Node5 -->
<g id="edge13" class="edge">
<title>Node13&#45;&gt;Node5</title>
<path fill="none" stroke="#191970" d="M702.1664,-107.5391C774.5511,-85.3599 928.0815,-38.3172 992.5982,-18.5489"/>
<polygon fill="#191970" stroke="#191970" points="701.0447,-104.2221 692.5088,-110.4982 703.0955,-110.915 701.0447,-104.2221"/>
</g>
<!-- Node14&#45;&gt;Node6 -->
<g id="edge19" class="edge">
<title>Node14&#45;&gt;Node6</title>
<path fill="none" stroke="#191970" d="M453.4848,-53.2365C498.4426,-42.9765 563.9846,-28.0187 605.5824,-18.5255"/>
<polygon fill="#191970" stroke="#191970" points="452.6273,-49.8422 443.6568,-55.4795 454.1849,-56.6667 452.6273,-49.8422"/>
</g>
<!-- Node14&#45;&gt;Node8 -->
<g id="edge21" class="edge">
<title>Node14&#45;&gt;Node8</title>
<path fill="none" stroke="#191970" d="M434.9445,-51.4633C458.8763,-41.3383 491.45,-27.5571 512.6316,-18.5956"/>
<polygon fill="#191970" stroke="#191970" points="433.4431,-48.298 425.5972,-55.4179 436.1707,-54.7448 433.4431,-48.298"/>
</g>
<!-- Node14&#45;&gt;Node9 -->
<g id="edge22" class="edge">
<title>Node14&#45;&gt;Node9</title>
<path fill="none" stroke="#191970" d="M348.4678,-55.5226C347.3458,-55.3464 346.2323,-55.1721 345.1304,-55 239.43,-38.4965 212.8083,-35.6465 107.1304,-19 104.3082,-18.5554 101.4095,-18.0945 98.4848,-17.626"/>
<polygon fill="#191970" stroke="#191970" points="348.2954,-59.0387 358.7193,-57.1434 349.3886,-52.1246 348.2954,-59.0387"/>
</g>
<!-- Node14&#45;&gt;Node12 -->
<g id="edge24" class="edge">
<title>Node14&#45;&gt;Node12</title>
<path fill="none" stroke="#191970" d="M404.1304,-45.383C404.1304,-36.3738 404.1304,-26.0373 404.1304,-18.7795"/>
<polygon fill="#191970" stroke="#191970" points="400.6305,-45.4178 404.1304,-55.4179 407.6305,-45.4179 400.6305,-45.4178"/>
</g>
<!-- Node15 -->
<g id="node14" class="node">
<title>Node15</title>
<g id="a_node14"><a xlink:href="type_8cpp.html" target="_top" xlink:title="src/ast/type.cpp">
<polygon fill="#ffffff" stroke="#000000" points="238.1157,-.5 238.1157,-18.5 324.145,-18.5 324.145,-.5 238.1157,-.5"/>
<text text-anchor="middle" x="281.1304" y="-6.5" font-family="Helvetica,sans-Serif" font-size="10.00" fill="#000000">src/ast/type.cpp</text>
</a>
</g>
</g>
<!-- Node14&#45;&gt;Node15 -->
<g id="edge20" class="edge">
<title>Node14&#45;&gt;Node15</title>
<path fill="none" stroke="#191970" d="M374.6731,-51.328C352.0586,-41.2159 321.4235,-27.5172 301.4715,-18.5956"/>
<polygon fill="#191970" stroke="#191970" points="373.2618,-54.5309 383.8194,-55.4179 376.1192,-48.1407 373.2618,-54.5309"/>
</g>
<!-- Node16 -->
<g id="node15" class="node">
<title>Node16</title>
<g id="a_node15"><a xlink:href="lexer_8cpp.html" target="_top" xlink:title="src/parser/lexer.cpp">
<polygon fill="#ffffff" stroke="#000000" points="116.5,-.5 116.5,-18.5 219.7607,-18.5 219.7607,-.5 116.5,-.5"/>
<text text-anchor="middle" x="168.1304" y="-6.5" font-family="Helvetica,sans-Serif" font-size="10.00" fill="#000000">src/parser/lexer.cpp</text>
</a>
</g>
</g>
<!-- Node14&#45;&gt;Node16 -->
<g id="edge23" class="edge">
<title>Node14&#45;&gt;Node16</title>
<path fill="none" stroke="#191970" d="M355.5222,-53.1718C311.5053,-42.9136 247.5071,-27.9988 206.8578,-18.5255"/>
<polygon fill="#191970" stroke="#191970" points="354.8906,-56.6184 365.424,-55.4795 356.4794,-49.801 354.8906,-56.6184"/>
</g>
</g>
</svg>
