<?xml version="1.0" encoding="UTF-8" standalone="no"?>
<!DOCTYPE svg PUBLIC "-//W3C//DTD SVG 1.1//EN"
 "http://www.w3.org/Graphics/SVG/1.1/DTD/svg11.dtd">
<!-- Generated by graphviz version 2.40.1 (20161225.0304)
 -->
<!-- Title: src/ast/stmt.h Pages: 1 -->
<svg width="630pt" height="192pt"
 viewBox="0.00 0.00 629.50 192.00" xmlns="http://www.w3.org/2000/svg" xmlns:xlink="http://www.w3.org/1999/xlink">
<g id="graph0" class="graph" transform="scale(1 1) rotate(0) translate(4 188)">
<title>src/ast/stmt.h</title>
<polygon fill="#ffffff" stroke="transparent" points="-4,4 -4,-188 625.5024,-188 625.5024,4 -4,4"/>
<!-- Node0 -->
<g id="node1" class="node">
<title>Node0</title>
<polygon fill="#bfbfbf" stroke="#000000" points="67.8892,-165.5 67.8892,-183.5 143.3423,-183.5 143.3423,-165.5 67.8892,-165.5"/>
<text text-anchor="middle" x="105.6157" y="-171.5" font-family="Helvetica,sans-Serif" font-size="10.00" fill="#000000">src/ast/stmt.h</text>
</g>
<!-- Node1 -->
<g id="node2" class="node">
<title>Node1</title>
<polygon fill="#ffffff" stroke="#bfbfbf" points="0,-.5 0,-18.5 43.2314,-18.5 43.2314,-.5 0,-.5"/>
<text text-anchor="middle" x="21.6157" y="-6.5" font-family="Helvetica,sans-Serif" font-size="10.00" fill="#000000">vector</text>
</g>
<!-- Node0&#45;&gt;Node1 -->
<g id="edge1" class="edge">
<title>Node0&#45;&gt;Node1</title>
<path fill="none" stroke="#191970" d="M100.8588,-165.1561C87.4023,-138.7235 48.8828,-63.0604 30.9766,-27.8875"/>
<polygon fill="#191970" stroke="#191970" points="33.9764,-26.0651 26.3204,-18.7414 27.7382,-29.2409 33.9764,-26.0651"/>
</g>
<!-- Node2 -->
<g id="node3" class="node">
<title>Node2</title>
<polygon fill="#ffffff" stroke="#bfbfbf" points="79.5591,-55.5 79.5591,-73.5 131.6724,-73.5 131.6724,-55.5 79.5591,-55.5"/>
<text text-anchor="middle" x="105.6157" y="-61.5" font-family="Helvetica,sans-Serif" font-size="10.00" fill="#000000">memory</text>
</g>
<!-- Node0&#45;&gt;Node2 -->
<g id="edge2" class="edge">
<title>Node0&#45;&gt;Node2</title>
<path fill="none" stroke="#191970" d="M105.6157,-165.4982C105.6157,-147.6913 105.6157,-107.6225 105.6157,-83.6515"/>
<polygon fill="#191970" stroke="#191970" points="109.1158,-83.6261 105.6157,-73.6261 102.1158,-83.6262 109.1158,-83.6261"/>
</g>
<!-- Node3 -->
<g id="node4" class="node">
<title>Node3</title>
<g id="a_node4"><a xlink:href="expr_8h.html" target="_top" xlink:title="expr.h">
<polygon fill="#ffffff" stroke="#000000" points="187.9927,-110.5 187.9927,-128.5 231.2388,-128.5 231.2388,-110.5 187.9927,-110.5"/>
<text text-anchor="middle" x="209.6157" y="-116.5" font-family="Helvetica,sans-Serif" font-size="10.00" fill="#000000">expr.h</text>
</a>
</g>
</g>
<!-- Node0&#45;&gt;Node3 -->
<g id="edge3" class="edge">
<title>Node0&#45;&gt;Node3</title>
<path fill="none" stroke="#191970" d="M122.7892,-165.4179C139.2737,-156.7001 164.4,-143.4122 183.389,-133.3699"/>
<polygon fill="#191970" stroke="#191970" points="185.213,-136.3646 192.4167,-128.5956 181.9405,-130.1767 185.213,-136.3646"/>
</g>
<!-- Node3&#45;&gt;Node1 -->
<g id="edge6" class="edge">
<title>Node3&#45;&gt;Node1</title>
<path fill="none" stroke="#191970" d="M201.9971,-110.4115C190.123,-96.7427 165.926,-70.8137 140.6157,-55 125.6166,-45.6286 82.9182,-30.2097 52.9811,-19.956"/>
<polygon fill="#191970" stroke="#191970" points="53.9705,-16.5958 43.3762,-16.6929 51.7188,-23.2237 53.9705,-16.5958"/>
</g>
<!-- Node3&#45;&gt;Node2 -->
<g id="edge5" class="edge">
<title>Node3&#45;&gt;Node2</title>
<path fill="none" stroke="#191970" d="M192.4422,-110.4179C175.9578,-101.7001 150.8315,-88.4122 131.8425,-78.3699"/>
<polygon fill="#191970" stroke="#191970" points="133.2909,-75.1767 122.8147,-73.5956 130.0184,-81.3646 133.2909,-75.1767"/>
</g>
<!-- Node4 -->
<g id="node5" class="node">
<title>Node4</title>
<polygon fill="#ffffff" stroke="#bfbfbf" points="519.3892,-.5 519.3892,-18.5 559.8423,-18.5 559.8423,-.5 519.3892,-.5"/>
<text text-anchor="middle" x="539.6157" y="-6.5" font-family="Helvetica,sans-Serif" font-size="10.00" fill="#000000">string</text>
</g>
<!-- Node3&#45;&gt;Node4 -->
<g id="edge4" class="edge">
<title>Node3&#45;&gt;Node4</title>
<path fill="none" stroke="#191970" d="M231.3229,-113.6273C261.4307,-105.3687 317.4852,-89.5833 364.6157,-74 416.1006,-56.977 475.1156,-34.6236 509.776,-21.1987"/>
<polygon fill="#191970" stroke="#191970" points="511.2449,-24.3829 519.2976,-17.4979 508.7089,-17.8585 511.2449,-24.3829"/>
</g>
<!-- Node5 -->
<g id="node6" class="node">
<title>Node5</title>
<g id="a_node6"><a xlink:href="type_8h.html" target="_top" xlink:title="type.h">
<polygon fill="#ffffff" stroke="#000000" points="187.9951,-55.5 187.9951,-73.5 231.2363,-73.5 231.2363,-55.5 187.9951,-55.5"/>
<text text-anchor="middle" x="209.6157" y="-61.5" font-family="Helvetica,sans-Serif" font-size="10.00" fill="#000000">type.h</text>
</a>
</g>
</g>
<!-- Node3&#45;&gt;Node5 -->
<g id="edge7" class="edge">
<title>Node3&#45;&gt;Node5</title>
<path fill="none" stroke="#191970" d="M209.6157,-110.4179C209.6157,-103.2164 209.6157,-92.8962 209.6157,-83.8632"/>
<polygon fill="#191970" stroke="#191970" points="213.1158,-83.7794 209.6157,-73.7795 206.1158,-83.7795 213.1158,-83.7794"/>
</g>
<!-- Node10 -->
<g id="node11" class="node">
<title>Node10</title>
<g id="a_node11"><a xlink:href="srcloc_8h.html" target="_top" xlink:title="srcloc.h">
<polygon fill="#ffffff" stroke="#000000" points="549.3892,-55.5 549.3892,-73.5 599.8423,-73.5 599.8423,-55.5 549.3892,-55.5"/>
<text text-anchor="middle" x="574.6157" y="-61.5" font-family="Helvetica,sans-Serif" font-size="10.00" fill="#000000">srcloc.h</text>
</a>
</g>
</g>
<!-- Node3&#45;&gt;Node10 -->
<g id="edge14" class="edge">
<title>Node3&#45;&gt;Node10</title>
<path fill="none" stroke="#191970" d="M231.3551,-116.2242C292.0605,-107.0768 463.8404,-81.1922 538.8419,-69.8906"/>
<polygon fill="#191970" stroke="#191970" points="539.8138,-73.2837 549.1807,-68.3327 538.7708,-66.3619 539.8138,-73.2837"/>
</g>
<!-- Node12 -->
<g id="node13" class="node">
<title>Node12</title>
<g id="a_node13"><a xlink:href="operators_8h.html" target="_top" xlink:title="../parser/operators.h">
<polygon fill="#ffffff" stroke="#000000" points="249.5938,-55.5 249.5938,-73.5 355.6377,-73.5 355.6377,-55.5 249.5938,-55.5"/>
<text text-anchor="middle" x="302.6157" y="-61.5" font-family="Helvetica,sans-Serif" font-size="10.00" fill="#000000">../parser/operators.h</text>
</a>
</g>
</g>
<!-- Node3&#45;&gt;Node12 -->
<g id="edge16" class="edge">
<title>Node3&#45;&gt;Node12</title>
<path fill="none" stroke="#191970" d="M224.9728,-110.4179C239.5118,-101.8195 261.5683,-88.7754 278.4621,-78.7844"/>
<polygon fill="#191970" stroke="#191970" points="280.4101,-81.6987 287.2358,-73.5956 276.8468,-75.6735 280.4101,-81.6987"/>
</g>
<!-- Node5&#45;&gt;Node1 -->
<g id="edge8" class="edge">
<title>Node5&#45;&gt;Node1</title>
<path fill="none" stroke="#191970" d="M187.7421,-58.275C159.0975,-50.0985 107.0826,-35.1674 53.0357,-19.0927"/>
<polygon fill="#191970" stroke="#191970" points="53.8663,-15.6882 43.2832,-16.1862 51.8669,-22.3966 53.8663,-15.6882"/>
</g>
<!-- Node5&#45;&gt;Node4 -->
<g id="edge9" class="edge">
<title>Node5&#45;&gt;Node4</title>
<path fill="none" stroke="#191970" d="M231.5129,-57.3022C234.5501,-56.4471 237.6462,-55.6491 240.6157,-55 355.3477,-29.9211 390.0755,-44.4883 509.2187,-18.7031"/>
<polygon fill="#191970" stroke="#191970" points="510.0806,-22.0971 519.0874,-16.5179 508.5672,-15.2627 510.0806,-22.0971"/>
</g>
<!-- Node6 -->
<g id="node7" class="node">
<title>Node6</title>
<polygon fill="#ffffff" stroke="#bfbfbf" points="61.5542,-.5 61.5542,-18.5 113.6772,-18.5 113.6772,-.5 61.5542,-.5"/>
<text text-anchor="middle" x="87.6157" y="-6.5" font-family="Helvetica,sans-Serif" font-size="10.00" fill="#000000">ostream</text>
</g>
<!-- Node5&#45;&gt;Node6 -->
<g id="edge10" class="edge">
<title>Node5&#45;&gt;Node6</title>
<path fill="none" stroke="#191970" d="M189.4699,-55.4179C169.7791,-46.5409 139.5772,-32.9253 117.1685,-22.823"/>
<polygon fill="#191970" stroke="#191970" points="118.3464,-19.5148 107.7915,-18.5956 115.4694,-25.8963 118.3464,-19.5148"/>
</g>
<!-- Node7 -->
<g id="node8" class="node">
<title>Node7</title>
<polygon fill="#ffffff" stroke="#bfbfbf" points="132.0542,-.5 132.0542,-18.5 239.1772,-18.5 239.1772,-.5 132.0542,-.5"/>
<text text-anchor="middle" x="185.6157" y="-6.5" font-family="Helvetica,sans-Serif" font-size="10.00" fill="#000000">llvm/ADT/ArrayRef.h</text>
</g>
<!-- Node5&#45;&gt;Node7 -->
<g id="edge11" class="edge">
<title>Node5&#45;&gt;Node7</title>
<path fill="none" stroke="#191970" d="M205.6526,-55.4179C202.4065,-47.9789 197.7084,-37.2123 193.6772,-27.9742"/>
<polygon fill="#191970" stroke="#191970" points="196.8723,-26.545 189.6649,-18.7795 190.4566,-29.3447 196.8723,-26.545"/>
</g>
<!-- Node8 -->
<g id="node9" class="node">
<title>Node8</title>
<polygon fill="#ffffff" stroke="#bfbfbf" points="256.9385,-.5 256.9385,-18.5 366.293,-18.5 366.293,-.5 256.9385,-.5"/>
<text text-anchor="middle" x="311.6157" y="-6.5" font-family="Helvetica,sans-Serif" font-size="10.00" fill="#000000">llvm/ADT/StringRef.h</text>
</g>
<!-- Node5&#45;&gt;Node8 -->
<g id="edge12" class="edge">
<title>Node5&#45;&gt;Node8</title>
<path fill="none" stroke="#191970" d="M226.4589,-55.4179C242.6264,-46.7001 267.2695,-33.4122 285.8933,-23.3699"/>
<polygon fill="#191970" stroke="#191970" points="287.6067,-26.4225 294.7475,-18.5956 284.2844,-20.2611 287.6067,-26.4225"/>
</g>
<!-- Node9 -->
<g id="node10" class="node">
<title>Node9</title>
<polygon fill="#ffffff" stroke="#bfbfbf" points="384.3154,-.5 384.3154,-18.5 500.916,-18.5 500.916,-.5 384.3154,-.5"/>
<text text-anchor="middle" x="442.6157" y="-6.5" font-family="Helvetica,sans-Serif" font-size="10.00" fill="#000000">llvm/Support/Casting.h</text>
</g>
<!-- Node5&#45;&gt;Node9 -->
<g id="edge13" class="edge">
<title>Node5&#45;&gt;Node9</title>
<path fill="none" stroke="#191970" d="M231.572,-57.5464C234.6,-56.6534 237.6778,-55.7798 240.6157,-55 290.1027,-41.8641 347.0517,-29.2607 387.8411,-20.6635"/>
<polygon fill="#191970" stroke="#191970" points="388.7792,-24.043 397.8487,-18.5661 387.3434,-17.1918 388.7792,-24.043"/>
</g>
<!-- Node11 -->
<g id="node12" class="node">
<title>Node11</title>
<polygon fill="#ffffff" stroke="#bfbfbf" points="577.729,-.5 577.729,-18.5 621.5024,-18.5 621.5024,-.5 577.729,-.5"/>
<text text-anchor="middle" x="599.6157" y="-6.5" font-family="Helvetica,sans-Serif" font-size="10.00" fill="#000000">climits</text>
</g>
<!-- Node10&#45;&gt;Node11 -->
<g id="edge15" class="edge">
<title>Node10&#45;&gt;Node11</title>
<path fill="none" stroke="#191970" d="M578.744,-55.4179C582.1253,-47.9789 587.0192,-37.2123 591.2184,-27.9742"/>
<polygon fill="#191970" stroke="#191970" points="594.446,-29.3315 595.3978,-18.7795 588.0734,-26.4348 594.446,-29.3315"/>
</g>
</g>
</svg>
