<?xml version="1.0" encoding="UTF-8" standalone="no"?>
<!DOCTYPE svg PUBLIC "-//W3C//DTD SVG 1.1//EN"
 "http://www.w3.org/Graphics/SVG/1.1/DTD/svg11.dtd">
<!-- Generated by graphviz version 2.40.1 (20161225.0304)
 -->
<!-- Title: src/ast/stmt.h Pages: 1 -->
<svg width="966pt" height="137pt"
 viewBox="0.00 0.00 965.55 137.00" xmlns="http://www.w3.org/2000/svg" xmlns:xlink="http://www.w3.org/1999/xlink">
<g id="graph0" class="graph" transform="scale(1 1) rotate(0) translate(4 133)">
<title>src/ast/stmt.h</title>
<polygon fill="#ffffff" stroke="transparent" points="-4,4 -4,-133 961.5464,-133 961.5464,4 -4,4"/>
<!-- Node13 -->
<g id="node1" class="node">
<title>Node13</title>
<polygon fill="#bfbfbf" stroke="#000000" points="185.187,-110.5 185.187,-128.5 260.6401,-128.5 260.6401,-110.5 185.187,-110.5"/>
<text text-anchor="middle" x="222.9136" y="-116.5" font-family="Helvetica,sans-Serif" font-size="10.00" fill="#000000">src/ast/stmt.h</text>
</g>
<!-- Node14 -->
<g id="node2" class="node">
<title>Node14</title>
<g id="a_node2"><a xlink:href="decl_8h.html" target="_top" xlink:title="src/ast/decl.h">
<polygon fill="#ffffff" stroke="#000000" points="352.458,-55.5 352.458,-73.5 427.3691,-73.5 427.3691,-55.5 352.458,-55.5"/>
<text text-anchor="middle" x="389.9136" y="-61.5" font-family="Helvetica,sans-Serif" font-size="10.00" fill="#000000">src/ast/decl.h</text>
</a>
</g>
</g>
<!-- Node13&#45;&gt;Node14 -->
<g id="edge1" class="edge">
<title>Node13&#45;&gt;Node14</title>
<path fill="none" stroke="#191970" d="M260.0927,-107.2554C291.1297,-97.0336 334.6571,-82.6983 362.5735,-73.5042"/>
<polygon fill="#191970" stroke="#191970" points="258.8935,-103.9653 250.4902,-110.4179 261.0832,-110.614 258.8935,-103.9653"/>
</g>
<!-- Node15 -->
<g id="node3" class="node">
<title>Node15</title>
<g id="a_node3"><a xlink:href="ast__printer_8cpp.html" target="_top" xlink:title="src/ast/ast_printer.cpp">
<polygon fill="#ffffff" stroke="#000000" points="0,-.5 0,-18.5 113.8271,-18.5 113.8271,-.5 0,-.5"/>
<text text-anchor="middle" x="56.9136" y="-6.5" font-family="Helvetica,sans-Serif" font-size="10.00" fill="#000000">src/ast/ast_printer.cpp</text>
</a>
</g>
</g>
<!-- Node13&#45;&gt;Node15 -->
<g id="edge10" class="edge">
<title>Node13&#45;&gt;Node15</title>
<path fill="none" stroke="#191970" d="M200.8083,-104.8519C166.0005,-81.7865 99.4259,-37.6708 70.6858,-18.6261"/>
<polygon fill="#191970" stroke="#191970" points="199.0598,-107.892 209.3291,-110.4982 202.9265,-102.0568 199.0598,-107.892"/>
</g>
<!-- Node14&#45;&gt;Node15 -->
<g id="edge2" class="edge">
<title>Node14&#45;&gt;Node15</title>
<path fill="none" stroke="#191970" d="M342.2411,-56.6262C281.2643,-46.5549 175.8897,-29.1507 111.681,-18.5457"/>
<polygon fill="#191970" stroke="#191970" points="341.9248,-60.1213 352.3615,-58.2977 343.0656,-53.2148 341.9248,-60.1213"/>
</g>
<!-- Node16 -->
<g id="node4" class="node">
<title>Node16</title>
<g id="a_node4"><a xlink:href="decl_8cpp.html" target="_top" xlink:title="src/ast/decl.cpp">
<polygon fill="#ffffff" stroke="#000000" points="132.1772,-.5 132.1772,-18.5 217.6499,-18.5 217.6499,-.5 132.1772,-.5"/>
<text text-anchor="middle" x="174.9136" y="-6.5" font-family="Helvetica,sans-Serif" font-size="10.00" fill="#000000">src/ast/decl.cpp</text>
</a>
</g>
</g>
<!-- Node14&#45;&gt;Node16 -->
<g id="edge3" class="edge">
<title>Node14&#45;&gt;Node16</title>
<path fill="none" stroke="#191970" d="M344.62,-52.9133C304.5258,-42.6566 246.8301,-27.8973 210.1119,-18.5042"/>
<polygon fill="#191970" stroke="#191970" points="343.8552,-56.3303 354.4107,-55.4179 345.5901,-49.5487 343.8552,-56.3303"/>
</g>
<!-- Node17 -->
<g id="node5" class="node">
<title>Node17</title>
<g id="a_node5"><a xlink:href="expr_8cpp.html" target="_top" xlink:title="src/ast/expr.cpp">
<polygon fill="#ffffff" stroke="#000000" points="235.8965,-.5 235.8965,-18.5 321.9307,-18.5 321.9307,-.5 235.8965,-.5"/>
<text text-anchor="middle" x="278.9136" y="-6.5" font-family="Helvetica,sans-Serif" font-size="10.00" fill="#000000">src/ast/expr.cpp</text>
</a>
</g>
</g>
<!-- Node14&#45;&gt;Node17 -->
<g id="edge4" class="edge">
<title>Node14&#45;&gt;Node17</title>
<path fill="none" stroke="#191970" d="M362.5063,-50.9198C342.1832,-40.8498 315.0345,-27.3977 297.2702,-18.5956"/>
<polygon fill="#191970" stroke="#191970" points="361.0699,-54.1141 371.5842,-55.4179 364.1778,-47.8419 361.0699,-54.1141"/>
</g>
<!-- Node18 -->
<g id="node6" class="node">
<title>Node18</title>
<g id="a_node6"><a xlink:href="main_8cpp.html" target="_top" xlink:title="src/driver/main.cpp">
<polygon fill="#ffffff" stroke="#000000" points="339.6797,-.5 339.6797,-18.5 440.1475,-18.5 440.1475,-.5 339.6797,-.5"/>
<text text-anchor="middle" x="389.9136" y="-6.5" font-family="Helvetica,sans-Serif" font-size="10.00" fill="#000000">src/driver/main.cpp</text>
</a>
</g>
</g>
<!-- Node14&#45;&gt;Node18 -->
<g id="edge5" class="edge">
<title>Node14&#45;&gt;Node18</title>
<path fill="none" stroke="#191970" d="M389.9136,-45.383C389.9136,-36.3738 389.9136,-26.0373 389.9136,-18.7795"/>
<polygon fill="#191970" stroke="#191970" points="386.4137,-45.4178 389.9136,-55.4179 393.4137,-45.4179 386.4137,-45.4178"/>
</g>
<!-- Node19 -->
<g id="node7" class="node">
<title>Node19</title>
<g id="a_node7"><a xlink:href="irgen_8cpp.html" target="_top" xlink:title="src/irgen/irgen.cpp">
<polygon fill="#ffffff" stroke="#000000" points="457.7832,-.5 457.7832,-18.5 556.0439,-18.5 556.0439,-.5 457.7832,-.5"/>
<text text-anchor="middle" x="506.9136" y="-6.5" font-family="Helvetica,sans-Serif" font-size="10.00" fill="#000000">src/irgen/irgen.cpp</text>
</a>
</g>
</g>
<!-- Node14&#45;&gt;Node19 -->
<g id="edge6" class="edge">
<title>Node14&#45;&gt;Node19</title>
<path fill="none" stroke="#191970" d="M418.5119,-51.0563C439.9648,-40.9716 468.7555,-27.4376 487.5647,-18.5956"/>
<polygon fill="#191970" stroke="#191970" points="416.7947,-47.9961 409.2337,-55.4179 419.7727,-54.331 416.7947,-47.9961"/>
</g>
<!-- Node20 -->
<g id="node8" class="node">
<title>Node20</title>
<g id="a_node8"><a xlink:href="mangle_8cpp.html" target="_top" xlink:title="src/irgen/mangle.cpp">
<polygon fill="#ffffff" stroke="#000000" points="574.5024,-.5 574.5024,-18.5 683.3247,-18.5 683.3247,-.5 574.5024,-.5"/>
<text text-anchor="middle" x="628.9136" y="-6.5" font-family="Helvetica,sans-Serif" font-size="10.00" fill="#000000">src/irgen/mangle.cpp</text>
</a>
</g>
</g>
<!-- Node14&#45;&gt;Node20 -->
<g id="edge7" class="edge">
<title>Node14&#45;&gt;Node20</title>
<path fill="none" stroke="#191970" d="M437.5252,-53.5434C482.084,-43.2892 547.8657,-28.1512 589.5397,-18.5609"/>
<polygon fill="#191970" stroke="#191970" points="436.4806,-50.1922 427.5202,-55.8457 438.0505,-57.0139 436.4806,-50.1922"/>
</g>
<!-- Node21 -->
<g id="node9" class="node">
<title>Node21</title>
<g id="a_node9"><a xlink:href="c-import_8cpp.html" target="_top" xlink:title="src/sema/c&#45;import.cpp">
<polygon fill="#ffffff" stroke="#000000" points="701.7363,-.5 701.7363,-18.5 816.0908,-18.5 816.0908,-.5 701.7363,-.5"/>
<text text-anchor="middle" x="758.9136" y="-6.5" font-family="Helvetica,sans-Serif" font-size="10.00" fill="#000000">src/sema/c&#45;import.cpp</text>
</a>
</g>
</g>
<!-- Node14&#45;&gt;Node21 -->
<g id="edge8" class="edge">
<title>Node14&#45;&gt;Node21</title>
<path fill="none" stroke="#191970" d="M437.6392,-57.3864C505.3514,-47.2938 629.1211,-28.8458 701.6788,-18.0309"/>
<polygon fill="#191970" stroke="#191970" points="437.0437,-53.9364 427.6689,-58.8725 438.0757,-60.86 437.0437,-53.9364"/>
</g>
<!-- Node22 -->
<g id="node10" class="node">
<title>Node22</title>
<g id="a_node10"><a xlink:href="typecheck_8cpp.html" target="_top" xlink:title="src/sema/typecheck.cpp">
<polygon fill="#ffffff" stroke="#000000" points="834.2808,-.5 834.2808,-18.5 957.5464,-18.5 957.5464,-.5 834.2808,-.5"/>
<text text-anchor="middle" x="895.9136" y="-6.5" font-family="Helvetica,sans-Serif" font-size="10.00" fill="#000000">src/sema/typecheck.cpp</text>
</a>
</g>
</g>
<!-- Node14&#45;&gt;Node22 -->
<g id="edge9" class="edge">
<title>Node14&#45;&gt;Node22</title>
<path fill="none" stroke="#191970" d="M437.7485,-59.9511C517.9029,-52.2268 684.383,-35.7478 824.9136,-19 827.8773,-18.6468 830.9093,-18.2763 833.9709,-17.8949"/>
<polygon fill="#191970" stroke="#191970" points="437.1036,-56.4968 427.4845,-60.9378 437.7735,-63.4647 437.1036,-56.4968"/>
</g>
</g>
</svg>
