<?xml version="1.0" encoding="UTF-8" standalone="no"?>
<!DOCTYPE svg PUBLIC "-//W3C//DTD SVG 1.1//EN"
 "http://www.w3.org/Graphics/SVG/1.1/DTD/svg11.dtd">
<!-- Generated by graphviz version 2.40.1 (20161225.0304)
 -->
<!-- Title: delta::Type::isTupleType Pages: 1 -->
<svg width="444pt" height="129pt"
 viewBox="0.00 0.00 443.96 129.00" xmlns="http://www.w3.org/2000/svg" xmlns:xlink="http://www.w3.org/1999/xlink">
<g id="graph0" class="graph" transform="scale(1 1) rotate(0) translate(4 125)">
<title>delta::Type::isTupleType</title>
<polygon fill="#ffffff" stroke="transparent" points="-4,4 -4,-125 439.957,-125 439.957,4 -4,4"/>
<!-- Node128 -->
<g id="node1" class="node">
<title>Node128</title>
<polygon fill="#bfbfbf" stroke="#000000" points="0,-42.5 0,-60.5 124.0371,-60.5 124.0371,-42.5 0,-42.5"/>
<text text-anchor="middle" x="62.0186" y="-48.5" font-family="Helvetica,sans-Serif" font-size="10.00" fill="#000000">delta::Type::isTupleType</text>
</g>
<!-- Node129 -->
<g id="node2" class="node">
<title>Node129</title>
<g id="a_node2"><a xlink:href="structdelta_1_1_type.html#ae63c22497da399541f7cc9762ad339d5" target="_top" xlink:title="delta::Type::appendType">
<polygon fill="#ffffff" stroke="#000000" points="160.0371,-102.5 160.0371,-120.5 285.5732,-120.5 285.5732,-102.5 160.0371,-102.5"/>
<text text-anchor="middle" x="222.8052" y="-108.5" font-family="Helvetica,sans-Serif" font-size="10.00" fill="#000000">delta::Type::appendType</text>
</a>
</g>
</g>
<!-- Node128&#45;&gt;Node129 -->
<g id="edge1" class="edge">
<title>Node128&#45;&gt;Node129</title>
<path fill="none" stroke="#191970" d="M90.4313,-64.798C109.7994,-73.5832 136.1647,-85.0004 160.0371,-93.5 169.1149,-96.7321 179.0843,-99.8023 188.3525,-102.4617"/>
<polygon fill="#191970" stroke="#191970" points="91.8088,-61.5794 81.2596,-60.5975 88.894,-67.9436 91.8088,-61.5794"/>
</g>
<!-- Node130 -->
<g id="node3" class="node">
<title>Node130</title>
<g id="a_node3"><a xlink:href="structdelta_1_1_type.html#a16a719104a088d92388e5a5d0f28981f" target="_top" xlink:title="delta::Type::isImplicitly\lConvertibleTo">
<polygon fill="#ffffff" stroke="#000000" points="164.7856,-37.5 164.7856,-65.5 280.8247,-65.5 280.8247,-37.5 164.7856,-37.5"/>
<text text-anchor="start" x="172.7856" y="-53.5" font-family="Helvetica,sans-Serif" font-size="10.00" fill="#000000">delta::Type::isImplicitly</text>
<text text-anchor="middle" x="222.8052" y="-43.5" font-family="Helvetica,sans-Serif" font-size="10.00" fill="#000000">ConvertibleTo</text>
</a>
</g>
</g>
<!-- Node128&#45;&gt;Node130 -->
<g id="edge2" class="edge">
<title>Node128&#45;&gt;Node130</title>
<path fill="none" stroke="#191970" d="M134.2987,-51.5C144.4979,-51.5 154.873,-51.5 164.7584,-51.5"/>
<polygon fill="#191970" stroke="#191970" points="134.1829,-48.0001 124.1829,-51.5 134.1828,-55.0001 134.1829,-48.0001"/>
</g>
<!-- Node131 -->
<g id="node4" class="node">
<title>Node131</title>
<g id="a_node4"><a xlink:href="namespacedelta.html#ad62d6b2e68bcdebd01b3e7bc4f905c22" target="_top" xlink:title="delta::operator==">
<polygon fill="#ffffff" stroke="#000000" points="176.7217,-.5 176.7217,-18.5 268.8887,-18.5 268.8887,-.5 176.7217,-.5"/>
<text text-anchor="middle" x="222.8052" y="-6.5" font-family="Helvetica,sans-Serif" font-size="10.00" fill="#000000">delta::operator==</text>
</a>
</g>
</g>
<!-- Node128&#45;&gt;Node131 -->
<g id="edge4" class="edge">
<title>Node128&#45;&gt;Node131</title>
<path fill="none" stroke="#191970" d="M106.412,-39.9037C132.1832,-33.1719 164.1747,-24.8152 188.0924,-18.5675"/>
<polygon fill="#191970" stroke="#191970" points="105.3021,-36.5761 96.5113,-42.4899 107.0713,-43.3489 105.3021,-36.5761"/>
</g>
<!-- Node130&#45;&gt;Node130 -->
<g id="edge3" class="edge">
<title>Node130&#45;&gt;Node130</title>
<path fill="none" stroke="#191970" d="M194.9666,-75.4873C197.9226,-80.4413 207.2021,-84 222.8052,-84 247.77,-84 256.5467,-74.8898 249.1353,-65.5305"/>
<polygon fill="#191970" stroke="#191970" points="198.4376,-75.942 196.4751,-65.5305 191.5165,-74.8933 198.4376,-75.942"/>
</g>
<!-- Node132 -->
<g id="node5" class="node">
<title>Node132</title>
<g id="a_node5"><a xlink:href="classdelta_1_1_ptr_type.html#ada68d169a87da36cc9a55a3d1ba12d00" target="_top" xlink:title="delta::PtrType::classof">
<polygon fill="#ffffff" stroke="#000000" points="321.5732,-.5 321.5732,-18.5 435.957,-18.5 435.957,-.5 321.5732,-.5"/>
<text text-anchor="middle" x="378.7651" y="-6.5" font-family="Helvetica,sans-Serif" font-size="10.00" fill="#000000">delta::PtrType::classof</text>
</a>
</g>
</g>
<!-- Node131&#45;&gt;Node132 -->
<g id="edge5" class="edge">
<title>Node131&#45;&gt;Node132</title>
<path fill="none" stroke="#191970" d="M279.437,-9.5C293.1387,-9.5 307.793,-9.5 321.5226,-9.5"/>
<polygon fill="#191970" stroke="#191970" points="279.1761,-6.0001 269.176,-9.5 279.176,-13.0001 279.1761,-6.0001"/>
</g>
</g>
</svg>
