<?xml version="1.0" encoding="UTF-8" standalone="no"?>
<!DOCTYPE svg PUBLIC "-//W3C//DTD SVG 1.1//EN"
 "http://www.w3.org/Graphics/SVG/1.1/DTD/svg11.dtd">
<!-- Generated by graphviz version 2.40.1 (20161225.0304)
 -->
<!-- Title: delta::Type::getArraySize Pages: 1 -->
<svg width="429pt" height="128pt"
 viewBox="0.00 0.00 428.71 128.00" xmlns="http://www.w3.org/2000/svg" xmlns:xlink="http://www.w3.org/1999/xlink">
<g id="graph0" class="graph" transform="scale(1 1) rotate(0) translate(4 124)">
<title>delta::Type::getArraySize</title>
<polygon fill="#ffffff" stroke="transparent" points="-4,4 -4,-124 424.7129,-124 424.7129,4 -4,4"/>
<!-- Node5 -->
<g id="node1" class="node">
<title>Node5</title>
<polygon fill="#bfbfbf" stroke="#000000" points="0,-48.5 0,-66.5 127.7285,-66.5 127.7285,-48.5 0,-48.5"/>
<text text-anchor="middle" x="63.8643" y="-54.5" font-family="Helvetica,sans-Serif" font-size="10.00" fill="#000000">delta::Type::getArraySize</text>
</g>
<!-- Node6 -->
<g id="node2" class="node">
<title>Node6</title>
<g id="a_node2"><a xlink:href="structdelta_1_1_type.html#a16a719104a088d92388e5a5d0f28981f" target="_top" xlink:title="delta::Type::isImplicitly\lConvertibleTo">
<polygon fill="#ffffff" stroke="#000000" points="163.7285,-73.5 163.7285,-101.5 279.7676,-101.5 279.7676,-73.5 163.7285,-73.5"/>
<text text-anchor="start" x="171.7285" y="-89.5" font-family="Helvetica,sans-Serif" font-size="10.00" fill="#000000">delta::Type::isImplicitly</text>
<text text-anchor="middle" x="221.748" y="-79.5" font-family="Helvetica,sans-Serif" font-size="10.00" fill="#000000">ConvertibleTo</text>
</a>
</g>
</g>
<!-- Node5&#45;&gt;Node6 -->
<g id="edge1" class="edge">
<title>Node5&#45;&gt;Node6</title>
<path fill="none" stroke="#191970" d="M121.0912,-68.3739C134.8976,-70.9973 149.665,-73.8033 163.5168,-76.4353"/>
<polygon fill="#191970" stroke="#191970" points="121.7122,-64.9293 111.2346,-66.501 120.4054,-71.8063 121.7122,-64.9293"/>
</g>
<!-- Node7 -->
<g id="node3" class="node">
<title>Node7</title>
<g id="a_node3"><a xlink:href="structdelta_1_1_type.html#ad33f5df1e06c20291060f7a33912bd18" target="_top" xlink:title="delta::Type::printTo">
<polygon fill="#ffffff" stroke="#000000" points="171.4995,-18.5 171.4995,-36.5 271.9966,-36.5 271.9966,-18.5 171.4995,-18.5"/>
<text text-anchor="middle" x="221.748" y="-24.5" font-family="Helvetica,sans-Serif" font-size="10.00" fill="#000000">delta::Type::printTo</text>
</a>
</g>
</g>
<!-- Node5&#45;&gt;Node7 -->
<g id="edge3" class="edge">
<title>Node5&#45;&gt;Node7</title>
<path fill="none" stroke="#191970" d="M121.2556,-46.5949C138.619,-43.2956 157.4886,-39.7101 174.1385,-36.5464"/>
<polygon fill="#191970" stroke="#191970" points="120.4054,-43.1937 111.2346,-48.499 121.7122,-50.0707 120.4054,-43.1937"/>
</g>
<!-- Node6&#45;&gt;Node6 -->
<g id="edge2" class="edge">
<title>Node6&#45;&gt;Node6</title>
<path fill="none" stroke="#191970" d="M195.3556,-111.4873C198.1581,-116.4413 206.9556,-120 221.748,-120 245.416,-120 253.7368,-110.8898 246.7104,-101.5305"/>
<polygon fill="#191970" stroke="#191970" points="198.8284,-111.9265 196.7857,-101.5305 191.8995,-110.9313 198.8284,-111.9265"/>
</g>
<!-- Node7&#45;&gt;Node7 -->
<g id="edge4" class="edge">
<title>Node7&#45;&gt;Node7</title>
<path fill="none" stroke="#191970" d="M194.3884,-45.0926C194.8104,-50.6312 203.9302,-55 221.748,-55 248.2676,-55 255.519,-45.322 243.5023,-36.5134"/>
<polygon fill="#191970" stroke="#191970" points="197.454,-46.7994 199.9937,-36.5134 191.594,-42.9706 197.454,-46.7994"/>
</g>
<!-- Node8 -->
<g id="node4" class="node">
<title>Node8</title>
<g id="a_node4"><a xlink:href="structdelta_1_1_type.html#a98ef8c2e4a833d7c8db893fd14f9e466" target="_top" xlink:title="delta::Type::toString">
<polygon fill="#ffffff" stroke="#000000" points="315.7676,-37.5 315.7676,-55.5 420.7129,-55.5 420.7129,-37.5 315.7676,-37.5"/>
<text text-anchor="middle" x="368.2402" y="-43.5" font-family="Helvetica,sans-Serif" font-size="10.00" fill="#000000">delta::Type::toString</text>
</a>
</g>
</g>
<!-- Node7&#45;&gt;Node8 -->
<g id="edge5" class="edge">
<title>Node7&#45;&gt;Node8</title>
<path fill="none" stroke="#191970" d="M282.2303,-35.3445C293.3506,-36.7868 304.8759,-38.2817 315.7379,-39.6905"/>
<polygon fill="#191970" stroke="#191970" points="282.5295,-31.8541 272.1623,-34.0387 281.6291,-38.796 282.5295,-31.8541"/>
</g>
<!-- Node9 -->
<g id="node5" class="node">
<title>Node9</title>
<g id="a_node5"><a xlink:href="namespacedelta.html#a679bd697f2c5acfcb9361ff45a7eeef1" target="_top" xlink:title="delta::operator\&lt;\&lt;">
<polygon fill="#ffffff" stroke="#000000" points="322.1567,-.5 322.1567,-18.5 414.3237,-18.5 414.3237,-.5 322.1567,-.5"/>
<text text-anchor="middle" x="368.2402" y="-6.5" font-family="Helvetica,sans-Serif" font-size="10.00" fill="#000000">delta::operator&lt;&lt;</text>
</a>
</g>
</g>
<!-- Node7&#45;&gt;Node9 -->
<g id="edge6" class="edge">
<title>Node7&#45;&gt;Node9</title>
<path fill="none" stroke="#191970" d="M282.1182,-20.0821C295.3231,-18.4596 309.1045,-16.7662 321.6722,-15.222"/>
<polygon fill="#191970" stroke="#191970" points="281.6608,-16.6119 272.1623,-21.3054 282.5146,-23.5596 281.6608,-16.6119"/>
</g>
</g>
</svg>
