<?xml version="1.0" encoding="UTF-8" standalone="no"?>
<!DOCTYPE svg PUBLIC "-//W3C//DTD SVG 1.1//EN"
 "http://www.w3.org/Graphics/SVG/1.1/DTD/svg11.dtd">
<!-- Generated by graphviz version 2.40.1 (20161225.0304)
 -->
<!-- Title: delta::Type::isNull Pages: 1 -->
<svg width="428pt" height="27pt"
 viewBox="0.00 0.00 427.62 27.00" xmlns="http://www.w3.org/2000/svg" xmlns:xlink="http://www.w3.org/1999/xlink">
<g id="graph0" class="graph" transform="scale(1 1) rotate(0) translate(4 23)">
<title>delta::Type::isNull</title>
<polygon fill="#ffffff" stroke="transparent" points="-4,4 -4,-23 423.624,-23 423.624,4 -4,4"/>
<!-- Node112 -->
<g id="node1" class="node">
<title>Node112</title>
<polygon fill="#bfbfbf" stroke="#000000" points="0,-.5 0,-18.5 94.9307,-18.5 94.9307,-.5 0,-.5"/>
<text text-anchor="middle" x="47.4653" y="-6.5" font-family="Helvetica,sans-Serif" font-size="10.00" fill="#000000">delta::Type::isNull</text>
</g>
<!-- Node113 -->
<g id="node2" class="node">
<title>Node113</title>
<g id="a_node2"><a xlink:href="namespacedelta.html#afbcc11c583968bc13aa34e5c3d58e54b" target="_top" xlink:title="delta::findInSymbolTable">
<polygon fill="#ffffff" stroke="#000000" points="130.9307,-.5 130.9307,-18.5 255.8857,-18.5 255.8857,-.5 130.9307,-.5"/>
<text text-anchor="middle" x="193.4082" y="-6.5" font-family="Helvetica,sans-Serif" font-size="10.00" fill="#000000">delta::findInSymbolTable</text>
</a>
</g>
</g>
<!-- Node112&#45;&gt;Node113 -->
<g id="edge1" class="edge">
<title>Node112&#45;&gt;Node113</title>
<path fill="none" stroke="#191970" d="M105.3309,-9.5C113.7331,-9.5 122.4147,-9.5 130.9033,-9.5"/>
<polygon fill="#191970" stroke="#191970" points="105.2525,-6.0001 95.2525,-9.5 105.2525,-13.0001 105.2525,-6.0001"/>
</g>
<!-- Node114 -->
<g id="node3" class="node">
<title>Node114</title>
<g id="a_node3"><a xlink:href="namespacedelta.html#abf78cd71ca70d4a49c0e9c3ac2e06d87" target="_top" xlink:title="delta::addToSymbolTable">
<polygon fill="#ffffff" stroke="#000000" points="291.8857,-.5 291.8857,-18.5 419.624,-18.5 419.624,-.5 291.8857,-.5"/>
<text text-anchor="middle" x="355.7549" y="-6.5" font-family="Helvetica,sans-Serif" font-size="10.00" fill="#000000">delta::addToSymbolTable</text>
</a>
</g>
</g>
<!-- Node113&#45;&gt;Node114 -->
<g id="edge2" class="edge">
<title>Node113&#45;&gt;Node114</title>
<path fill="none" stroke="#191970" d="M266.4216,-9.5C274.8907,-9.5 283.4795,-9.5 291.8142,-9.5"/>
<polygon fill="#191970" stroke="#191970" points="266.1757,-6.0001 256.1757,-9.5 266.1756,-13.0001 266.1757,-6.0001"/>
</g>
</g>
</svg>
