<?xml version="1.0" encoding="UTF-8" standalone="no"?>
<!DOCTYPE svg PUBLIC "-//W3C//DTD SVG 1.1//EN"
 "http://www.w3.org/Graphics/SVG/1.1/DTD/svg11.dtd">
<!-- Generated by graphviz version 2.40.1 (20161225.0304)
 -->
<!-- Title: delta::Type::isMutable Pages: 1 -->
<svg width="446pt" height="198pt"
 viewBox="0.00 0.00 445.97 198.00" xmlns="http://www.w3.org/2000/svg" xmlns:xlink="http://www.w3.org/1999/xlink">
<g id="graph0" class="graph" transform="scale(1 1) rotate(0) translate(4 194)">
<title>delta::Type::isMutable</title>
<polygon fill="#ffffff" stroke="transparent" points="-4,4 -4,-194 441.9736,-194 441.9736,4 -4,4"/>
<!-- Node103 -->
<g id="node1" class="node">
<title>Node103</title>
<polygon fill="#bfbfbf" stroke="#000000" points="0,-78.5 0,-96.5 113.2803,-96.5 113.2803,-78.5 0,-78.5"/>
<text text-anchor="middle" x="56.6401" y="-84.5" font-family="Helvetica,sans-Serif" font-size="10.00" fill="#000000">delta::Type::isMutable</text>
</g>
<!-- Node104 -->
<g id="node2" class="node">
<title>Node104</title>
<g id="a_node2"><a xlink:href="structdelta_1_1_type.html#a16a719104a088d92388e5a5d0f28981f" target="_top" xlink:title="delta::Type::isImplicitly\lConvertibleTo">
<polygon fill="#ffffff" stroke="#000000" points="153.7383,-143.5 153.7383,-171.5 269.7773,-171.5 269.7773,-143.5 153.7383,-143.5"/>
<text text-anchor="start" x="161.7383" y="-159.5" font-family="Helvetica,sans-Serif" font-size="10.00" fill="#000000">delta::Type::isImplicitly</text>
<text text-anchor="middle" x="211.7578" y="-149.5" font-family="Helvetica,sans-Serif" font-size="10.00" fill="#000000">ConvertibleTo</text>
</a>
</g>
</g>
<!-- Node103&#45;&gt;Node104 -->
<g id="edge1" class="edge">
<title>Node103&#45;&gt;Node104</title>
<path fill="none" stroke="#191970" d="M82.0092,-101.3831C100.4138,-111.2041 126.0514,-124.3731 149.2803,-134.5 156.3791,-137.5948 164.0417,-140.6451 171.4866,-143.4622"/>
<polygon fill="#191970" stroke="#191970" points="83.5597,-98.2429 73.0952,-96.5863 80.2426,-104.4071 83.5597,-98.2429"/>
</g>
<!-- Node105 -->
<g id="node3" class="node">
<title>Node105</title>
<g id="a_node3"><a xlink:href="namespacedelta.html#ad62d6b2e68bcdebd01b3e7bc4f905c22" target="_top" xlink:title="delta::operator==">
<polygon fill="#ffffff" stroke="#000000" points="165.6743,-106.5 165.6743,-124.5 257.8413,-124.5 257.8413,-106.5 165.6743,-106.5"/>
<text text-anchor="middle" x="211.7578" y="-112.5" font-family="Helvetica,sans-Serif" font-size="10.00" fill="#000000">delta::operator==</text>
</a>
</g>
</g>
<!-- Node103&#45;&gt;Node105 -->
<g id="edge3" class="edge">
<title>Node103&#45;&gt;Node105</title>
<path fill="none" stroke="#191970" d="M116.5437,-98.3131C132.8272,-101.2524 150.2072,-104.3896 165.6013,-107.1684"/>
<polygon fill="#191970" stroke="#191970" points="117.0369,-94.8456 106.5742,-96.5135 115.7934,-101.7343 117.0369,-94.8456"/>
</g>
<!-- Node107 -->
<g id="node5" class="node">
<title>Node107</title>
<g id="a_node5"><a xlink:href="structdelta_1_1_type.html#ad33f5df1e06c20291060f7a33912bd18" target="_top" xlink:title="delta::Type::printTo">
<polygon fill="#ffffff" stroke="#000000" points="161.5093,-51.5 161.5093,-69.5 262.0063,-69.5 262.0063,-51.5 161.5093,-51.5"/>
<text text-anchor="middle" x="211.7578" y="-57.5" font-family="Helvetica,sans-Serif" font-size="10.00" fill="#000000">delta::Type::printTo</text>
</a>
</g>
</g>
<!-- Node103&#45;&gt;Node107 -->
<g id="edge5" class="edge">
<title>Node103&#45;&gt;Node107</title>
<path fill="none" stroke="#191970" d="M118.8584,-76.6702C132.9874,-74.2109 147.8239,-71.6284 161.3897,-69.2671"/>
<polygon fill="#191970" stroke="#191970" points="117.9752,-73.2712 108.7236,-78.4343 119.1757,-80.1675 117.9752,-73.2712"/>
</g>
<!-- Node110 -->
<g id="node8" class="node">
<title>Node110</title>
<g id="a_node8"><a xlink:href="namespacedelta.html#afbcc11c583968bc13aa34e5c3d58e54b" target="_top" xlink:title="delta::findInSymbolTable">
<polygon fill="#ffffff" stroke="#000000" points="149.2803,-9.5 149.2803,-27.5 274.2354,-27.5 274.2354,-9.5 149.2803,-9.5"/>
<text text-anchor="middle" x="211.7578" y="-15.5" font-family="Helvetica,sans-Serif" font-size="10.00" fill="#000000">delta::findInSymbolTable</text>
</a>
</g>
</g>
<!-- Node103&#45;&gt;Node110 -->
<g id="edge9" class="edge">
<title>Node103&#45;&gt;Node110</title>
<path fill="none" stroke="#191970" d="M83.1344,-73.8834C101.5104,-64.6243 126.6528,-52.3204 149.2803,-42.5 161.4315,-37.2263 175.1501,-31.8903 186.6304,-27.5931"/>
<polygon fill="#191970" stroke="#191970" points="81.5269,-70.7743 74.1909,-78.4185 84.6927,-77.0175 81.5269,-70.7743"/>
</g>
<!-- Node104&#45;&gt;Node104 -->
<g id="edge2" class="edge">
<title>Node104&#45;&gt;Node104</title>
<path fill="none" stroke="#191970" d="M183.9192,-181.4873C186.8753,-186.4413 196.1548,-190 211.7578,-190 236.7227,-190 245.4994,-180.8898 238.0879,-171.5305"/>
<polygon fill="#191970" stroke="#191970" points="187.3902,-181.942 185.4277,-171.5305 180.4692,-180.8933 187.3902,-181.942"/>
</g>
<!-- Node106 -->
<g id="node4" class="node">
<title>Node106</title>
<g id="a_node4"><a xlink:href="classdelta_1_1_ptr_type.html#ada68d169a87da36cc9a55a3d1ba12d00" target="_top" xlink:title="delta::PtrType::classof">
<polygon fill="#ffffff" stroke="#000000" points="316.9126,-111.5 316.9126,-129.5 431.2964,-129.5 431.2964,-111.5 316.9126,-111.5"/>
<text text-anchor="middle" x="374.1045" y="-117.5" font-family="Helvetica,sans-Serif" font-size="10.00" fill="#000000">delta::PtrType::classof</text>
</a>
</g>
</g>
<!-- Node105&#45;&gt;Node106 -->
<g id="edge4" class="edge">
<title>Node105&#45;&gt;Node106</title>
<path fill="none" stroke="#191970" d="M268.0091,-117.2324C283.8252,-117.7196 301.0393,-118.2497 316.9099,-118.7385"/>
<polygon fill="#191970" stroke="#191970" points="267.9486,-113.729 257.8456,-116.9194 267.7331,-120.7257 267.9486,-113.729"/>
</g>
<!-- Node107&#45;&gt;Node107 -->
<g id="edge6" class="edge">
<title>Node107&#45;&gt;Node107</title>
<path fill="none" stroke="#191970" d="M182.8828,-77.7043C182.9016,-83.4256 192.5266,-88 211.7578,-88 239.7305,-88 247.3792,-78.322 234.7041,-69.5134"/>
<polygon fill="#191970" stroke="#191970" points="185.7833,-79.6663 188.8115,-69.5134 180.1128,-75.5619 185.7833,-79.6663"/>
</g>
<!-- Node108 -->
<g id="node6" class="node">
<title>Node108</title>
<g id="a_node6"><a xlink:href="structdelta_1_1_type.html#a98ef8c2e4a833d7c8db893fd14f9e466" target="_top" xlink:title="delta::Type::toString">
<polygon fill="#ffffff" stroke="#000000" points="321.6318,-74.5 321.6318,-92.5 426.5771,-92.5 426.5771,-74.5 321.6318,-74.5"/>
<text text-anchor="middle" x="374.1045" y="-80.5" font-family="Helvetica,sans-Serif" font-size="10.00" fill="#000000">delta::Type::toString</text>
</a>
</g>
</g>
<!-- Node107&#45;&gt;Node108 -->
<g id="edge7" class="edge">
<title>Node107&#45;&gt;Node108</title>
<path fill="none" stroke="#191970" d="M272.5918,-69.1185C288.6438,-71.3926 305.8301,-73.8274 321.4127,-76.035"/>
<polygon fill="#191970" stroke="#191970" points="272.6275,-65.5887 262.2354,-67.6513 271.6455,-72.5195 272.6275,-65.5887"/>
</g>
<!-- Node109 -->
<g id="node7" class="node">
<title>Node109</title>
<g id="a_node7"><a xlink:href="namespacedelta.html#a679bd697f2c5acfcb9361ff45a7eeef1" target="_top" xlink:title="delta::operator\&lt;\&lt;">
<polygon fill="#ffffff" stroke="#000000" points="328.021,-37.5 328.021,-55.5 420.188,-55.5 420.188,-37.5 328.021,-37.5"/>
<text text-anchor="middle" x="374.1045" y="-43.5" font-family="Helvetica,sans-Serif" font-size="10.00" fill="#000000">delta::operator&lt;&lt;</text>
</a>
</g>
</g>
<!-- Node107&#45;&gt;Node109 -->
<g id="edge8" class="edge">
<title>Node107&#45;&gt;Node109</title>
<path fill="none" stroke="#191970" d="M272.2605,-55.2825C290.633,-53.6982 310.5191,-51.9833 327.8014,-50.493"/>
<polygon fill="#191970" stroke="#191970" points="271.8977,-51.8007 262.2354,-56.1471 272.4992,-58.7749 271.8977,-51.8007"/>
</g>
<!-- Node111 -->
<g id="node9" class="node">
<title>Node111</title>
<g id="a_node9"><a xlink:href="namespacedelta.html#abf78cd71ca70d4a49c0e9c3ac2e06d87" target="_top" xlink:title="delta::addToSymbolTable">
<polygon fill="#ffffff" stroke="#000000" points="310.2354,-.5 310.2354,-18.5 437.9736,-18.5 437.9736,-.5 310.2354,-.5"/>
<text text-anchor="middle" x="374.1045" y="-6.5" font-family="Helvetica,sans-Serif" font-size="10.00" fill="#000000">delta::addToSymbolTable</text>
</a>
</g>
</g>
<!-- Node110&#45;&gt;Node111 -->
<g id="edge10" class="edge">
<title>Node110&#45;&gt;Node111</title>
<path fill="none" stroke="#191970" d="M284.7712,-14.4524C293.2403,-13.9829 301.8291,-13.5067 310.1638,-13.0447"/>
<polygon fill="#191970" stroke="#191970" points="284.3162,-10.9721 274.5253,-15.0204 284.7037,-17.9614 284.3162,-10.9721"/>
</g>
</g>
</svg>
