<?xml version="1.0" encoding="UTF-8" standalone="no"?>
<!DOCTYPE svg PUBLIC "-//W3C//DTD SVG 1.1//EN"
 "http://www.w3.org/Graphics/SVG/1.1/DTD/svg11.dtd">
<!-- Generated by graphviz version 2.40.1 (20161225.0304)
 -->
<!-- Title: delta::Type::setMutable Pages: 1 -->
<svg width="452pt" height="27pt"
 viewBox="0.00 0.00 452.09 27.00" xmlns="http://www.w3.org/2000/svg" xmlns:xlink="http://www.w3.org/1999/xlink">
<g id="graph0" class="graph" transform="scale(1 1) rotate(0) translate(4 23)">
<title>delta::Type::setMutable</title>
<polygon fill="#ffffff" stroke="transparent" points="-4,4 -4,-23 448.0918,-23 448.0918,4 -4,4"/>
<!-- Node144 -->
<g id="node1" class="node">
<title>Node144</title>
<polygon fill="#bfbfbf" stroke="#000000" points="0,-.5 0,-18.5 119.3984,-18.5 119.3984,-.5 0,-.5"/>
<text text-anchor="middle" x="59.6992" y="-6.5" font-family="Helvetica,sans-Serif" font-size="10.00" fill="#000000">delta::Type::setMutable</text>
</g>
<!-- Node145 -->
<g id="node2" class="node">
<title>Node145</title>
<g id="a_node2"><a xlink:href="namespacedelta.html#afbcc11c583968bc13aa34e5c3d58e54b" target="_top" xlink:title="delta::findInSymbolTable">
<polygon fill="#ffffff" stroke="#000000" points="155.3984,-.5 155.3984,-18.5 280.3535,-18.5 280.3535,-.5 155.3984,-.5"/>
<text text-anchor="middle" x="217.876" y="-6.5" font-family="Helvetica,sans-Serif" font-size="10.00" fill="#000000">delta::findInSymbolTable</text>
</a>
</g>
</g>
<!-- Node144&#45;&gt;Node145 -->
<g id="edge1" class="edge">
<title>Node144&#45;&gt;Node145</title>
<path fill="none" stroke="#191970" d="M129.5085,-9.5C138.1144,-9.5 146.8689,-9.5 155.3568,-9.5"/>
<polygon fill="#191970" stroke="#191970" points="129.4991,-6.0001 119.4991,-9.5 129.499,-13.0001 129.4991,-6.0001"/>
</g>
<!-- Node146 -->
<g id="node3" class="node">
<title>Node146</title>
<g id="a_node3"><a xlink:href="namespacedelta.html#abf78cd71ca70d4a49c0e9c3ac2e06d87" target="_top" xlink:title="delta::addToSymbolTable">
<polygon fill="#ffffff" stroke="#000000" points="316.3535,-.5 316.3535,-18.5 444.0918,-18.5 444.0918,-.5 316.3535,-.5"/>
<text text-anchor="middle" x="380.2227" y="-6.5" font-family="Helvetica,sans-Serif" font-size="10.00" fill="#000000">delta::addToSymbolTable</text>
</a>
</g>
</g>
<!-- Node145&#45;&gt;Node146 -->
<g id="edge2" class="edge">
<title>Node145&#45;&gt;Node146</title>
<path fill="none" stroke="#191970" d="M290.8894,-9.5C299.3585,-9.5 307.9473,-9.5 316.282,-9.5"/>
<polygon fill="#191970" stroke="#191970" points="290.6435,-6.0001 280.6434,-9.5 290.6434,-13.0001 290.6435,-6.0001"/>
</g>
</g>
</svg>
