<?xml version="1.0" encoding="UTF-8" standalone="no"?>
<!DOCTYPE svg PUBLIC "-//W3C//DTD SVG 1.1//EN"
 "http://www.w3.org/Graphics/SVG/1.1/DTD/svg11.dtd">
<!-- Generated by graphviz version 2.40.1 (20161225.0304)
 -->
<!-- Title: delta::Type::getParamTypes Pages: 1 -->
<svg width="451pt" height="175pt"
 viewBox="0.00 0.00 450.94 175.00" xmlns="http://www.w3.org/2000/svg" xmlns:xlink="http://www.w3.org/1999/xlink">
<g id="graph0" class="graph" transform="scale(1 1) rotate(0) translate(4 171)">
<title>delta::Type::getParamTypes</title>
<polygon fill="#ffffff" stroke="transparent" points="-4,4 -4,-171 446.9443,-171 446.9443,4 -4,4"/>
<!-- Node40 -->
<g id="node1" class="node">
<title>Node40</title>
<polygon fill="#bfbfbf" stroke="#000000" points="0,-83.5 0,-101.5 140.5215,-101.5 140.5215,-83.5 0,-83.5"/>
<text text-anchor="middle" x="70.2607" y="-89.5" font-family="Helvetica,sans-Serif" font-size="10.00" fill="#000000">delta::Type::getParamTypes</text>
</g>
<!-- Node41 -->
<g id="node2" class="node">
<title>Node41</title>
<g id="a_node2"><a xlink:href="structdelta_1_1_type.html#a16a719104a088d92388e5a5d0f28981f" target="_top" xlink:title="delta::Type::isImplicitly\lConvertibleTo">
<polygon fill="#ffffff" stroke="#000000" points="176.5215,-120.5 176.5215,-148.5 292.5605,-148.5 292.5605,-120.5 176.5215,-120.5"/>
<text text-anchor="start" x="184.5215" y="-136.5" font-family="Helvetica,sans-Serif" font-size="10.00" fill="#000000">delta::Type::isImplicitly</text>
<text text-anchor="middle" x="234.541" y="-126.5" font-family="Helvetica,sans-Serif" font-size="10.00" fill="#000000">ConvertibleTo</text>
</a>
</g>
</g>
<!-- Node40&#45;&gt;Node41 -->
<g id="edge1" class="edge">
<title>Node40&#45;&gt;Node41</title>
<path fill="none" stroke="#191970" d="M115.241,-103.9997C135.137,-109.0863 158.7184,-115.1152 179.6409,-120.4642"/>
<polygon fill="#191970" stroke="#191970" points="116.0583,-100.5961 105.503,-101.5101 114.3244,-107.378 116.0583,-100.5961"/>
</g>
<!-- Node42 -->
<g id="node3" class="node">
<title>Node42</title>
<g id="a_node3"><a xlink:href="namespacedelta.html#ad62d6b2e68bcdebd01b3e7bc4f905c22" target="_top" xlink:title="delta::operator==">
<polygon fill="#ffffff" stroke="#000000" points="188.4575,-83.5 188.4575,-101.5 280.6245,-101.5 280.6245,-83.5 188.4575,-83.5"/>
<text text-anchor="middle" x="234.541" y="-89.5" font-family="Helvetica,sans-Serif" font-size="10.00" fill="#000000">delta::operator==</text>
</a>
</g>
</g>
<!-- Node40&#45;&gt;Node42 -->
<g id="edge3" class="edge">
<title>Node40&#45;&gt;Node42</title>
<path fill="none" stroke="#191970" d="M151.0656,-92.5C163.8022,-92.5 176.5815,-92.5 188.1784,-92.5"/>
<polygon fill="#191970" stroke="#191970" points="150.8838,-89.0001 140.8838,-92.5 150.8837,-96.0001 150.8838,-89.0001"/>
</g>
<!-- Node44 -->
<g id="node5" class="node">
<title>Node44</title>
<g id="a_node5"><a xlink:href="structdelta_1_1_type.html#ad33f5df1e06c20291060f7a33912bd18" target="_top" xlink:title="delta::Type::printTo">
<polygon fill="#ffffff" stroke="#000000" points="184.2925,-28.5 184.2925,-46.5 284.7896,-46.5 284.7896,-28.5 184.2925,-28.5"/>
<text text-anchor="middle" x="234.541" y="-34.5" font-family="Helvetica,sans-Serif" font-size="10.00" fill="#000000">delta::Type::printTo</text>
</a>
</g>
</g>
<!-- Node40&#45;&gt;Node44 -->
<g id="edge5" class="edge">
<title>Node40&#45;&gt;Node44</title>
<path fill="none" stroke="#191970" d="M107.2315,-80.1224C137.7363,-69.9096 180.3033,-55.6584 207.6462,-46.5042"/>
<polygon fill="#191970" stroke="#191970" points="105.7598,-76.9241 97.3883,-83.4179 107.9821,-83.562 105.7598,-76.9241"/>
</g>
<!-- Node41&#45;&gt;Node41 -->
<g id="edge2" class="edge">
<title>Node41&#45;&gt;Node41</title>
<path fill="none" stroke="#191970" d="M207.4255,-158.4873C210.3048,-163.4413 219.3433,-167 234.541,-167 258.8574,-167 267.4062,-157.8898 260.1872,-148.5305"/>
<polygon fill="#191970" stroke="#191970" points="210.8974,-158.9343 208.8948,-148.5305 203.9723,-157.9124 210.8974,-158.9343"/>
</g>
<!-- Node43 -->
<g id="node4" class="node">
<title>Node43</title>
<g id="a_node4"><a xlink:href="classdelta_1_1_ptr_type.html#ada68d169a87da36cc9a55a3d1ba12d00" target="_top" xlink:title="delta::PtrType::classof">
<polygon fill="#ffffff" stroke="#000000" points="328.5605,-83.5 328.5605,-101.5 442.9443,-101.5 442.9443,-83.5 328.5605,-83.5"/>
<text text-anchor="middle" x="385.7524" y="-89.5" font-family="Helvetica,sans-Serif" font-size="10.00" fill="#000000">delta::PtrType::classof</text>
</a>
</g>
</g>
<!-- Node42&#45;&gt;Node43 -->
<g id="edge4" class="edge">
<title>Node42&#45;&gt;Node43</title>
<path fill="none" stroke="#191970" d="M290.8242,-92.5C303.08,-92.5 316.0619,-92.5 328.3602,-92.5"/>
<polygon fill="#191970" stroke="#191970" points="290.7311,-89.0001 280.7311,-92.5 290.731,-96.0001 290.7311,-89.0001"/>
</g>
<!-- Node44&#45;&gt;Node44 -->
<g id="edge6" class="edge">
<title>Node44&#45;&gt;Node44</title>
<path fill="none" stroke="#191970" d="M206.416,-54.7043C206.4343,-60.4256 215.8093,-65 234.541,-65 261.7871,-65 269.2372,-55.322 256.8913,-46.5134"/>
<polygon fill="#191970" stroke="#191970" points="209.2891,-56.7032 212.1907,-46.5134 203.568,-52.6697 209.2891,-56.7032"/>
</g>
<!-- Node45 -->
<g id="node6" class="node">
<title>Node45</title>
<g id="a_node6"><a xlink:href="structdelta_1_1_type.html#a98ef8c2e4a833d7c8db893fd14f9e466" target="_top" xlink:title="delta::Type::toString">
<polygon fill="#ffffff" stroke="#000000" points="333.2798,-37.5 333.2798,-55.5 438.2251,-55.5 438.2251,-37.5 333.2798,-37.5"/>
<text text-anchor="middle" x="385.7524" y="-43.5" font-family="Helvetica,sans-Serif" font-size="10.00" fill="#000000">delta::Type::toString</text>
</a>
</g>
</g>
<!-- Node44&#45;&gt;Node45 -->
<g id="edge7" class="edge">
<title>Node44&#45;&gt;Node45</title>
<path fill="none" stroke="#191970" d="M295.2376,-41.1126C307.7501,-41.8574 320.83,-42.6359 333.0319,-43.3621"/>
<polygon fill="#191970" stroke="#191970" points="295.0825,-37.5973 284.8922,-40.4969 294.6666,-44.5849 295.0825,-37.5973"/>
</g>
<!-- Node46 -->
<g id="node7" class="node">
<title>Node46</title>
<g id="a_node7"><a xlink:href="namespacedelta.html#a679bd697f2c5acfcb9361ff45a7eeef1" target="_top" xlink:title="delta::operator\&lt;\&lt;">
<polygon fill="#ffffff" stroke="#000000" points="339.6689,-.5 339.6689,-18.5 431.8359,-18.5 431.8359,-.5 339.6689,-.5"/>
<text text-anchor="middle" x="385.7524" y="-6.5" font-family="Helvetica,sans-Serif" font-size="10.00" fill="#000000">delta::operator&lt;&lt;</text>
</a>
</g>
</g>
<!-- Node44&#45;&gt;Node46 -->
<g id="edge8" class="edge">
<title>Node44&#45;&gt;Node46</title>
<path fill="none" stroke="#191970" d="M293.144,-26.6484C308.5092,-23.8032 324.8626,-20.775 339.4836,-18.0677"/>
<polygon fill="#191970" stroke="#191970" points="292.4131,-23.2242 283.2176,-28.4865 293.6877,-30.1072 292.4131,-23.2242"/>
</g>
</g>
</svg>
