<?xml version="1.0" encoding="UTF-8" standalone="no"?>
<!DOCTYPE svg PUBLIC "-//W3C//DTD SVG 1.1//EN"
 "http://www.w3.org/Graphics/SVG/1.1/DTD/svg11.dtd">
<!-- Generated by graphviz version 2.40.1 (20161225.0304)
 -->
<!-- Title: delta::Type::isRef Pages: 1 -->
<svg width="408pt" height="212pt"
 viewBox="0.00 0.00 407.61 212.00" xmlns="http://www.w3.org/2000/svg" xmlns:xlink="http://www.w3.org/1999/xlink">
<g id="graph0" class="graph" transform="scale(1 1) rotate(0) translate(4 208)">
<title>delta::Type::isRef</title>
<polygon fill="#ffffff" stroke="transparent" points="-4,4 -4,-208 403.6094,-208 403.6094,4 -4,4"/>
<!-- Node119 -->
<g id="node1" class="node">
<title>Node119</title>
<polygon fill="#bfbfbf" stroke="#000000" points="0,-101.5 0,-119.5 93.2656,-119.5 93.2656,-101.5 0,-101.5"/>
<text text-anchor="middle" x="46.6328" y="-107.5" font-family="Helvetica,sans-Serif" font-size="10.00" fill="#000000">delta::Type::isRef</text>
</g>
<!-- Node120 -->
<g id="node2" class="node">
<title>Node120</title>
<g id="a_node2"><a xlink:href="structdelta_1_1_type.html#a16a719104a088d92388e5a5d0f28981f" target="_top" xlink:title="delta::Type::isImplicitly\lConvertibleTo">
<polygon fill="#ffffff" stroke="#000000" points="131.2261,-157.5 131.2261,-185.5 247.2651,-185.5 247.2651,-157.5 131.2261,-157.5"/>
<text text-anchor="start" x="139.2261" y="-173.5" font-family="Helvetica,sans-Serif" font-size="10.00" fill="#000000">delta::Type::isImplicitly</text>
<text text-anchor="middle" x="189.2456" y="-163.5" font-family="Helvetica,sans-Serif" font-size="10.00" fill="#000000">ConvertibleTo</text>
</a>
</g>
</g>
<!-- Node119&#45;&gt;Node120 -->
<g id="edge1" class="edge">
<title>Node119&#45;&gt;Node120</title>
<path fill="none" stroke="#191970" d="M74.7797,-123.9936C90.6658,-131.4704 110.9479,-140.7856 129.2656,-148.5 136.3576,-151.4867 143.9839,-154.5343 151.3414,-157.393"/>
<polygon fill="#191970" stroke="#191970" points="76.0493,-120.7223 65.5134,-119.6066 73.054,-127.0491 76.0493,-120.7223"/>
</g>
<!-- Node121 -->
<g id="node3" class="node">
<title>Node121</title>
<g id="a_node3"><a xlink:href="structdelta_1_1_type.html#ab7e32dafb00dc2c9976ad5486b1e1477" target="_top" xlink:title="delta::Type::getReferee">
<polygon fill="#ffffff" stroke="#000000" points="129.2656,-120.5 129.2656,-138.5 249.2256,-138.5 249.2256,-120.5 129.2656,-120.5"/>
<text text-anchor="middle" x="189.2456" y="-126.5" font-family="Helvetica,sans-Serif" font-size="10.00" fill="#000000">delta::Type::getReferee</text>
</a>
</g>
</g>
<!-- Node119&#45;&gt;Node121 -->
<g id="edge3" class="edge">
<title>Node119&#45;&gt;Node121</title>
<path fill="none" stroke="#191970" d="M103.4706,-118.0724C111.9274,-119.1991 120.6676,-120.3635 129.188,-121.4986"/>
<polygon fill="#191970" stroke="#191970" points="103.7042,-114.5727 93.3296,-116.7213 102.7797,-121.5114 103.7042,-114.5727"/>
</g>
<!-- Node122 -->
<g id="node4" class="node">
<title>Node122</title>
<g id="a_node4"><a xlink:href="namespacedelta.html#ad62d6b2e68bcdebd01b3e7bc4f905c22" target="_top" xlink:title="delta::operator==">
<polygon fill="#ffffff" stroke="#000000" points="143.1621,-83.5 143.1621,-101.5 235.3291,-101.5 235.3291,-83.5 143.1621,-83.5"/>
<text text-anchor="middle" x="189.2456" y="-89.5" font-family="Helvetica,sans-Serif" font-size="10.00" fill="#000000">delta::operator==</text>
</a>
</g>
</g>
<!-- Node119&#45;&gt;Node122 -->
<g id="edge4" class="edge">
<title>Node119&#45;&gt;Node122</title>
<path fill="none" stroke="#191970" d="M103.6189,-103.3074C116.6713,-101.66 130.3914,-99.9283 142.931,-98.3456"/>
<polygon fill="#191970" stroke="#191970" points="102.8126,-99.8814 93.3296,-104.6061 103.6892,-106.8263 102.8126,-99.8814"/>
</g>
<!-- Node124 -->
<g id="node6" class="node">
<title>Node124</title>
<g id="a_node6"><a xlink:href="structdelta_1_1_type.html#ad33f5df1e06c20291060f7a33912bd18" target="_top" xlink:title="delta::Type::printTo">
<polygon fill="#ffffff" stroke="#000000" points="138.9971,-28.5 138.9971,-46.5 239.4941,-46.5 239.4941,-28.5 138.9971,-28.5"/>
<text text-anchor="middle" x="189.2456" y="-34.5" font-family="Helvetica,sans-Serif" font-size="10.00" fill="#000000">delta::Type::printTo</text>
</a>
</g>
</g>
<!-- Node119&#45;&gt;Node124 -->
<g id="edge6" class="edge">
<title>Node119&#45;&gt;Node124</title>
<path fill="none" stroke="#191970" d="M73.4464,-96.7748C102.054,-82.1313 146.5744,-59.3424 171.248,-46.7126"/>
<polygon fill="#191970" stroke="#191970" points="71.7133,-93.73 64.4065,-101.4021 74.9029,-99.9611 71.7133,-93.73"/>
</g>
<!-- Node120&#45;&gt;Node120 -->
<g id="edge2" class="edge">
<title>Node120&#45;&gt;Node120</title>
<path fill="none" stroke="#191970" d="M163.5762,-195.4873C166.3019,-200.4413 174.8584,-204 189.2456,-204 212.2651,-204 220.3579,-194.8898 213.524,-185.5305"/>
<polygon fill="#191970" stroke="#191970" points="167.0499,-195.9186 164.9672,-185.5305 160.1172,-194.95 167.0499,-195.9186"/>
</g>
<!-- Node123 -->
<g id="node5" class="node">
<title>Node123</title>
<g id="a_node5"><a xlink:href="classdelta_1_1_ptr_type.html#ada68d169a87da36cc9a55a3d1ba12d00" target="_top" xlink:title="delta::PtrType::classof">
<polygon fill="#ffffff" stroke="#000000" points="285.2256,-83.5 285.2256,-101.5 399.6094,-101.5 399.6094,-83.5 285.2256,-83.5"/>
<text text-anchor="middle" x="342.4175" y="-89.5" font-family="Helvetica,sans-Serif" font-size="10.00" fill="#000000">delta::PtrType::classof</text>
</a>
</g>
</g>
<!-- Node122&#45;&gt;Node123 -->
<g id="edge5" class="edge">
<title>Node122&#45;&gt;Node123</title>
<path fill="none" stroke="#191970" d="M245.7153,-92.5C258.5611,-92.5 272.2196,-92.5 285.1003,-92.5"/>
<polygon fill="#191970" stroke="#191970" points="245.6179,-89.0001 235.6179,-92.5 245.6179,-96.0001 245.6179,-89.0001"/>
</g>
<!-- Node124&#45;&gt;Node124 -->
<g id="edge7" class="edge">
<title>Node124&#45;&gt;Node124</title>
<path fill="none" stroke="#191970" d="M162.6355,-55.0926C163.0459,-60.6312 171.916,-65 189.2456,-65 215.0386,-65 222.0913,-55.322 210.4039,-46.5134"/>
<polygon fill="#191970" stroke="#191970" points="165.6779,-56.8307 168.0873,-46.5134 159.7699,-53.0763 165.6779,-56.8307"/>
</g>
<!-- Node125 -->
<g id="node7" class="node">
<title>Node125</title>
<g id="a_node7"><a xlink:href="structdelta_1_1_type.html#a98ef8c2e4a833d7c8db893fd14f9e466" target="_top" xlink:title="delta::Type::toString">
<polygon fill="#ffffff" stroke="#000000" points="289.9448,-37.5 289.9448,-55.5 394.8901,-55.5 394.8901,-37.5 289.9448,-37.5"/>
<text text-anchor="middle" x="342.4175" y="-43.5" font-family="Helvetica,sans-Serif" font-size="10.00" fill="#000000">delta::Type::toString</text>
</a>
</g>
</g>
<!-- Node124&#45;&gt;Node125 -->
<g id="edge8" class="edge">
<title>Node124&#45;&gt;Node125</title>
<path fill="none" stroke="#191970" d="M250.1699,-41.0798C263.2798,-41.8501 277.0292,-42.6579 289.7915,-43.4078"/>
<polygon fill="#191970" stroke="#191970" points="250.0124,-37.5646 239.8243,-40.4719 249.6018,-44.5525 250.0124,-37.5646"/>
</g>
<!-- Node126 -->
<g id="node8" class="node">
<title>Node126</title>
<g id="a_node8"><a xlink:href="namespacedelta.html#a679bd697f2c5acfcb9361ff45a7eeef1" target="_top" xlink:title="delta::operator\&lt;\&lt;">
<polygon fill="#ffffff" stroke="#000000" points="296.334,-.5 296.334,-18.5 388.501,-18.5 388.501,-.5 296.334,-.5"/>
<text text-anchor="middle" x="342.4175" y="-6.5" font-family="Helvetica,sans-Serif" font-size="10.00" fill="#000000">delta::operator&lt;&lt;</text>
</a>
</g>
</g>
<!-- Node124&#45;&gt;Node126 -->
<g id="edge9" class="edge">
<title>Node124&#45;&gt;Node126</title>
<path fill="none" stroke="#191970" d="M248.7552,-26.6216C264.5494,-23.7344 281.3646,-20.6605 296.3246,-17.9258"/>
<polygon fill="#191970" stroke="#191970" points="247.7609,-23.2453 238.5533,-28.4865 249.0197,-30.1312 247.7609,-23.2453"/>
</g>
</g>
</svg>
