<?xml version="1.0" encoding="UTF-8" standalone="no"?>
<!DOCTYPE svg PUBLIC "-//W3C//DTD SVG 1.1//EN"
 "http://www.w3.org/Graphics/SVG/1.1/DTD/svg11.dtd">
<!-- Generated by graphviz version 2.40.1 (20161225.0304)
 -->
<!-- Title: delta::Type::getReturnType Pages: 1 -->
<svg width="447pt" height="175pt"
 viewBox="0.00 0.00 446.51 175.00" xmlns="http://www.w3.org/2000/svg" xmlns:xlink="http://www.w3.org/1999/xlink">
<g id="graph0" class="graph" transform="scale(1 1) rotate(0) translate(4 171)">
<title>delta::Type::getReturnType</title>
<polygon fill="#ffffff" stroke="transparent" points="-4,4 -4,-171 442.5059,-171 442.5059,4 -4,4"/>
<!-- Node56 -->
<g id="node1" class="node">
<title>Node56</title>
<polygon fill="#bfbfbf" stroke="#000000" points="0,-83.5 0,-101.5 136.083,-101.5 136.083,-83.5 0,-83.5"/>
<text text-anchor="middle" x="68.0415" y="-89.5" font-family="Helvetica,sans-Serif" font-size="10.00" fill="#000000">delta::Type::getReturnType</text>
</g>
<!-- Node57 -->
<g id="node2" class="node">
<title>Node57</title>
<g id="a_node2"><a xlink:href="structdelta_1_1_type.html#a16a719104a088d92388e5a5d0f28981f" target="_top" xlink:title="delta::Type::isImplicitly\lConvertibleTo">
<polygon fill="#ffffff" stroke="#000000" points="172.083,-120.5 172.083,-148.5 288.1221,-148.5 288.1221,-120.5 172.083,-120.5"/>
<text text-anchor="start" x="180.083" y="-136.5" font-family="Helvetica,sans-Serif" font-size="10.00" fill="#000000">delta::Type::isImplicitly</text>
<text text-anchor="middle" x="230.1025" y="-126.5" font-family="Helvetica,sans-Serif" font-size="10.00" fill="#000000">ConvertibleTo</text>
</a>
</g>
</g>
<!-- Node56&#45;&gt;Node57 -->
<g id="edge1" class="edge">
<title>Node56&#45;&gt;Node57</title>
<path fill="none" stroke="#191970" d="M112.6833,-104.0694C132.2537,-109.1413 155.3985,-115.1396 175.9441,-120.4642"/>
<polygon fill="#191970" stroke="#191970" points="113.3659,-100.6308 102.8077,-101.5101 111.6098,-107.4069 113.3659,-100.6308"/>
</g>
<!-- Node58 -->
<g id="node3" class="node">
<title>Node58</title>
<g id="a_node3"><a xlink:href="namespacedelta.html#ad62d6b2e68bcdebd01b3e7bc4f905c22" target="_top" xlink:title="delta::operator==">
<polygon fill="#ffffff" stroke="#000000" points="184.019,-83.5 184.019,-101.5 276.186,-101.5 276.186,-83.5 184.019,-83.5"/>
<text text-anchor="middle" x="230.1025" y="-89.5" font-family="Helvetica,sans-Serif" font-size="10.00" fill="#000000">delta::operator==</text>
</a>
</g>
</g>
<!-- Node56&#45;&gt;Node58 -->
<g id="edge3" class="edge">
<title>Node56&#45;&gt;Node58</title>
<path fill="none" stroke="#191970" d="M146.5494,-92.5C159.3826,-92.5 172.3001,-92.5 184.013,-92.5"/>
<polygon fill="#191970" stroke="#191970" points="146.3003,-89.0001 136.3003,-92.5 146.3002,-96.0001 146.3003,-89.0001"/>
</g>
<!-- Node60 -->
<g id="node5" class="node">
<title>Node60</title>
<g id="a_node5"><a xlink:href="structdelta_1_1_type.html#ad33f5df1e06c20291060f7a33912bd18" target="_top" xlink:title="delta::Type::printTo">
<polygon fill="#ffffff" stroke="#000000" points="179.854,-28.5 179.854,-46.5 280.3511,-46.5 280.3511,-28.5 179.854,-28.5"/>
<text text-anchor="middle" x="230.1025" y="-34.5" font-family="Helvetica,sans-Serif" font-size="10.00" fill="#000000">delta::Type::printTo</text>
</a>
</g>
</g>
<!-- Node56&#45;&gt;Node60 -->
<g id="edge5" class="edge">
<title>Node56&#45;&gt;Node60</title>
<path fill="none" stroke="#191970" d="M104.5129,-80.1224C134.6055,-69.9096 176.5975,-55.6584 203.5711,-46.5042"/>
<polygon fill="#191970" stroke="#191970" points="103.1473,-76.8897 94.8026,-83.4179 105.3969,-83.5184 103.1473,-76.8897"/>
</g>
<!-- Node57&#45;&gt;Node57 -->
<g id="edge2" class="edge">
<title>Node57&#45;&gt;Node57</title>
<path fill="none" stroke="#191970" d="M202.987,-158.4873C205.8663,-163.4413 214.9048,-167 230.1025,-167 254.4189,-167 262.9677,-157.8898 255.7487,-148.5305"/>
<polygon fill="#191970" stroke="#191970" points="206.4589,-158.9343 204.4563,-148.5305 199.5339,-157.9124 206.4589,-158.9343"/>
</g>
<!-- Node59 -->
<g id="node4" class="node">
<title>Node59</title>
<g id="a_node4"><a xlink:href="classdelta_1_1_ptr_type.html#ada68d169a87da36cc9a55a3d1ba12d00" target="_top" xlink:title="delta::PtrType::classof">
<polygon fill="#ffffff" stroke="#000000" points="324.1221,-83.5 324.1221,-101.5 438.5059,-101.5 438.5059,-83.5 324.1221,-83.5"/>
<text text-anchor="middle" x="381.314" y="-89.5" font-family="Helvetica,sans-Serif" font-size="10.00" fill="#000000">delta::PtrType::classof</text>
</a>
</g>
</g>
<!-- Node58&#45;&gt;Node59 -->
<g id="edge4" class="edge">
<title>Node58&#45;&gt;Node59</title>
<path fill="none" stroke="#191970" d="M286.3857,-92.5C298.6415,-92.5 311.6234,-92.5 323.9217,-92.5"/>
<polygon fill="#191970" stroke="#191970" points="286.2926,-89.0001 276.2926,-92.5 286.2926,-96.0001 286.2926,-89.0001"/>
</g>
<!-- Node60&#45;&gt;Node60 -->
<g id="edge6" class="edge">
<title>Node60&#45;&gt;Node60</title>
<path fill="none" stroke="#191970" d="M201.9776,-54.7043C201.9959,-60.4256 211.3708,-65 230.1025,-65 257.3486,-65 264.7987,-55.322 252.4529,-46.5134"/>
<polygon fill="#191970" stroke="#191970" points="204.8507,-56.7032 207.7522,-46.5134 199.1295,-52.6697 204.8507,-56.7032"/>
</g>
<!-- Node61 -->
<g id="node6" class="node">
<title>Node61</title>
<g id="a_node6"><a xlink:href="structdelta_1_1_type.html#a98ef8c2e4a833d7c8db893fd14f9e466" target="_top" xlink:title="delta::Type::toString">
<polygon fill="#ffffff" stroke="#000000" points="328.8413,-37.5 328.8413,-55.5 433.7866,-55.5 433.7866,-37.5 328.8413,-37.5"/>
<text text-anchor="middle" x="381.314" y="-43.5" font-family="Helvetica,sans-Serif" font-size="10.00" fill="#000000">delta::Type::toString</text>
</a>
</g>
</g>
<!-- Node60&#45;&gt;Node61 -->
<g id="edge7" class="edge">
<title>Node60&#45;&gt;Node61</title>
<path fill="none" stroke="#191970" d="M290.7991,-41.1126C303.3117,-41.8574 316.3915,-42.6359 328.5934,-43.3621"/>
<polygon fill="#191970" stroke="#191970" points="290.6441,-37.5973 280.4538,-40.4969 290.2281,-44.5849 290.6441,-37.5973"/>
</g>
<!-- Node62 -->
<g id="node7" class="node">
<title>Node62</title>
<g id="a_node7"><a xlink:href="namespacedelta.html#a679bd697f2c5acfcb9361ff45a7eeef1" target="_top" xlink:title="delta::operator\&lt;\&lt;">
<polygon fill="#ffffff" stroke="#000000" points="335.2305,-.5 335.2305,-18.5 427.3975,-18.5 427.3975,-.5 335.2305,-.5"/>
<text text-anchor="middle" x="381.314" y="-6.5" font-family="Helvetica,sans-Serif" font-size="10.00" fill="#000000">delta::operator&lt;&lt;</text>
</a>
</g>
</g>
<!-- Node60&#45;&gt;Node62 -->
<g id="edge8" class="edge">
<title>Node60&#45;&gt;Node62</title>
<path fill="none" stroke="#191970" d="M288.7055,-26.6484C304.0708,-23.8032 320.4241,-20.775 335.0451,-18.0677"/>
<polygon fill="#191970" stroke="#191970" points="287.9747,-23.2242 278.7791,-28.4865 289.2493,-30.1072 287.9747,-23.2242"/>
</g>
</g>
</svg>
