<?xml version="1.0" encoding="UTF-8" standalone="no"?>
<!DOCTYPE svg PUBLIC "-//W3C//DTD SVG 1.1//EN"
 "http://www.w3.org/Graphics/SVG/1.1/DTD/svg11.dtd">
<!-- Generated by graphviz version 2.40.1 (20161225.0304)
 -->
<!-- Title: delta::Type::isFuncType Pages: 1 -->
<svg width="454pt" height="129pt"
 viewBox="0.00 0.00 454.31 129.00" xmlns="http://www.w3.org/2000/svg" xmlns:xlink="http://www.w3.org/1999/xlink">
<g id="graph0" class="graph" transform="scale(1 1) rotate(0) translate(4 125)">
<title>delta::Type::isFuncType</title>
<polygon fill="#ffffff" stroke="transparent" points="-4,4 -4,-125 450.3135,-125 450.3135,4 -4,4"/>
<!-- Node91 -->
<g id="node1" class="node">
<title>Node91</title>
<polygon fill="#bfbfbf" stroke="#000000" points="0,-37.5 0,-55.5 121.6201,-55.5 121.6201,-37.5 0,-37.5"/>
<text text-anchor="middle" x="60.8101" y="-43.5" font-family="Helvetica,sans-Serif" font-size="10.00" fill="#000000">delta::Type::isFuncType</text>
</g>
<!-- Node92 -->
<g id="node2" class="node">
<title>Node92</title>
<g id="a_node2"><a xlink:href="structdelta_1_1_type.html#a16a719104a088d92388e5a5d0f28981f" target="_top" xlink:title="delta::Type::isImplicitly\lConvertibleTo">
<polygon fill="#ffffff" stroke="#000000" points="162.0781,-74.5 162.0781,-102.5 278.1172,-102.5 278.1172,-74.5 162.0781,-74.5"/>
<text text-anchor="start" x="170.0781" y="-90.5" font-family="Helvetica,sans-Serif" font-size="10.00" fill="#000000">delta::Type::isImplicitly</text>
<text text-anchor="middle" x="220.0977" y="-80.5" font-family="Helvetica,sans-Serif" font-size="10.00" fill="#000000">ConvertibleTo</text>
</a>
</g>
</g>
<!-- Node91&#45;&gt;Node92 -->
<g id="edge1" class="edge">
<title>Node91&#45;&gt;Node92</title>
<path fill="none" stroke="#191970" d="M104.6878,-58.0694C123.9234,-63.1413 146.6721,-69.1396 166.866,-74.4642"/>
<polygon fill="#191970" stroke="#191970" points="105.5431,-54.6754 94.9812,-55.5101 103.7584,-61.4441 105.5431,-54.6754"/>
</g>
<!-- Node93 -->
<g id="node3" class="node">
<title>Node93</title>
<g id="a_node3"><a xlink:href="namespacedelta.html#ad62d6b2e68bcdebd01b3e7bc4f905c22" target="_top" xlink:title="delta::operator==">
<polygon fill="#ffffff" stroke="#000000" points="174.0142,-37.5 174.0142,-55.5 266.1812,-55.5 266.1812,-37.5 174.0142,-37.5"/>
<text text-anchor="middle" x="220.0977" y="-43.5" font-family="Helvetica,sans-Serif" font-size="10.00" fill="#000000">delta::operator==</text>
</a>
</g>
</g>
<!-- Node91&#45;&gt;Node93 -->
<g id="edge3" class="edge">
<title>Node91&#45;&gt;Node93</title>
<path fill="none" stroke="#191970" d="M132.1288,-46.5C146.2433,-46.5 160.7104,-46.5 173.7308,-46.5"/>
<polygon fill="#191970" stroke="#191970" points="131.9393,-43.0001 121.9393,-46.5 131.9392,-50.0001 131.9393,-43.0001"/>
</g>
<!-- Node95 -->
<g id="node5" class="node">
<title>Node95</title>
<g id="a_node5"><a xlink:href="namespacedelta.html#afbcc11c583968bc13aa34e5c3d58e54b" target="_top" xlink:title="delta::findInSymbolTable">
<polygon fill="#ffffff" stroke="#000000" points="157.6201,-.5 157.6201,-18.5 282.5752,-18.5 282.5752,-.5 157.6201,-.5"/>
<text text-anchor="middle" x="220.0977" y="-6.5" font-family="Helvetica,sans-Serif" font-size="10.00" fill="#000000">delta::findInSymbolTable</text>
</a>
</g>
</g>
<!-- Node91&#45;&gt;Node95 -->
<g id="edge5" class="edge">
<title>Node91&#45;&gt;Node95</title>
<path fill="none" stroke="#191970" d="M109.6845,-35.1472C132.6706,-29.8079 159.6974,-23.53 181.2581,-18.5218"/>
<polygon fill="#191970" stroke="#191970" points="108.7249,-31.7769 99.7762,-37.4488 110.3088,-38.5953 108.7249,-31.7769"/>
</g>
<!-- Node92&#45;&gt;Node92 -->
<g id="edge2" class="edge">
<title>Node92&#45;&gt;Node92</title>
<path fill="none" stroke="#191970" d="M191.536,-112.4873C194.5688,-117.4413 204.0894,-121 220.0977,-121 245.7109,-121 254.7156,-111.8898 247.1117,-102.5305"/>
<polygon fill="#191970" stroke="#191970" points="195.0061,-112.9494 193.0836,-102.5305 188.0892,-111.8742 195.0061,-112.9494"/>
</g>
<!-- Node94 -->
<g id="node4" class="node">
<title>Node94</title>
<g id="a_node4"><a xlink:href="classdelta_1_1_ptr_type.html#ada68d169a87da36cc9a55a3d1ba12d00" target="_top" xlink:title="delta::PtrType::classof">
<polygon fill="#ffffff" stroke="#000000" points="325.2524,-37.5 325.2524,-55.5 439.6362,-55.5 439.6362,-37.5 325.2524,-37.5"/>
<text text-anchor="middle" x="382.4443" y="-43.5" font-family="Helvetica,sans-Serif" font-size="10.00" fill="#000000">delta::PtrType::classof</text>
</a>
</g>
</g>
<!-- Node93&#45;&gt;Node94 -->
<g id="edge4" class="edge">
<title>Node93&#45;&gt;Node94</title>
<path fill="none" stroke="#191970" d="M276.3489,-46.5C292.1651,-46.5 309.3792,-46.5 325.2498,-46.5"/>
<polygon fill="#191970" stroke="#191970" points="276.1855,-43.0001 266.1854,-46.5 276.1854,-50.0001 276.1855,-43.0001"/>
</g>
<!-- Node96 -->
<g id="node6" class="node">
<title>Node96</title>
<g id="a_node6"><a xlink:href="namespacedelta.html#abf78cd71ca70d4a49c0e9c3ac2e06d87" target="_top" xlink:title="delta::addToSymbolTable">
<polygon fill="#ffffff" stroke="#000000" points="318.5752,-.5 318.5752,-18.5 446.3135,-18.5 446.3135,-.5 318.5752,-.5"/>
<text text-anchor="middle" x="382.4443" y="-6.5" font-family="Helvetica,sans-Serif" font-size="10.00" fill="#000000">delta::addToSymbolTable</text>
</a>
</g>
</g>
<!-- Node95&#45;&gt;Node96 -->
<g id="edge6" class="edge">
<title>Node95&#45;&gt;Node96</title>
<path fill="none" stroke="#191970" d="M293.1111,-9.5C301.5802,-9.5 310.169,-9.5 318.5037,-9.5"/>
<polygon fill="#191970" stroke="#191970" points="292.8652,-6.0001 282.8651,-9.5 292.8651,-13.0001 292.8652,-6.0001"/>
</g>
</g>
</svg>
