<?xml version="1.0" encoding="UTF-8" standalone="no"?>
<!DOCTYPE svg PUBLIC "-//W3C//DTD SVG 1.1//EN"
 "http://www.w3.org/Graphics/SVG/1.1/DTD/svg11.dtd">
<!-- Generated by graphviz version 2.40.1 (20161225.0304)
 -->
<!-- Title: delta::Type::isBasicType Pages: 1 -->
<svg width="434pt" height="129pt"
 viewBox="0.00 0.00 434.26 129.00" xmlns="http://www.w3.org/2000/svg" xmlns:xlink="http://www.w3.org/1999/xlink">
<g id="graph0" class="graph" transform="scale(1 1) rotate(0) translate(4 125)">
<title>delta::Type::isBasicType</title>
<polygon fill="#ffffff" stroke="transparent" points="-4,4 -4,-125 430.2646,-125 430.2646,4 -4,4"/>
<!-- Node80 -->
<g id="node1" class="node">
<title>Node80</title>
<polygon fill="#bfbfbf" stroke="#000000" points="0,-37.5 0,-55.5 123.8418,-55.5 123.8418,-37.5 0,-37.5"/>
<text text-anchor="middle" x="61.9209" y="-43.5" font-family="Helvetica,sans-Serif" font-size="10.00" fill="#000000">delta::Type::isBasicType</text>
</g>
<!-- Node81 -->
<g id="node2" class="node">
<title>Node81</title>
<g id="a_node2"><a xlink:href="structdelta_1_1_type.html#a16a719104a088d92388e5a5d0f28981f" target="_top" xlink:title="delta::Type::isImplicitly\lConvertibleTo">
<polygon fill="#ffffff" stroke="#000000" points="159.8418,-74.5 159.8418,-102.5 275.8809,-102.5 275.8809,-74.5 159.8418,-74.5"/>
<text text-anchor="start" x="167.8418" y="-90.5" font-family="Helvetica,sans-Serif" font-size="10.00" fill="#000000">delta::Type::isImplicitly</text>
<text text-anchor="middle" x="217.8613" y="-80.5" font-family="Helvetica,sans-Serif" font-size="10.00" fill="#000000">ConvertibleTo</text>
</a>
</g>
</g>
<!-- Node80&#45;&gt;Node81 -->
<g id="edge1" class="edge">
<title>Node80&#45;&gt;Node81</title>
<path fill="none" stroke="#191970" d="M105.136,-58.1393C123.9123,-63.1964 146.0693,-69.164 165.7483,-74.4642"/>
<polygon fill="#191970" stroke="#191970" points="105.9402,-54.7312 95.374,-55.5101 104.1197,-61.4904 105.9402,-54.7312"/>
</g>
<!-- Node82 -->
<g id="node3" class="node">
<title>Node82</title>
<g id="a_node3"><a xlink:href="structdelta_1_1_type.html#a80fde850bedbbf0210860796b1058ff7" target="_top" xlink:title="delta::Type::isSigned">
<polygon fill="#ffffff" stroke="#000000" points="163.4404,-37.5 163.4404,-55.5 272.2822,-55.5 272.2822,-37.5 163.4404,-37.5"/>
<text text-anchor="middle" x="217.8613" y="-43.5" font-family="Helvetica,sans-Serif" font-size="10.00" fill="#000000">delta::Type::isSigned</text>
</a>
</g>
</g>
<!-- Node80&#45;&gt;Node82 -->
<g id="edge3" class="edge">
<title>Node80&#45;&gt;Node82</title>
<path fill="none" stroke="#191970" d="M134.0813,-46.5C143.8214,-46.5 153.6831,-46.5 163.0539,-46.5"/>
<polygon fill="#191970" stroke="#191970" points="134.0008,-43.0001 124.0008,-46.5 134.0007,-50.0001 134.0008,-43.0001"/>
</g>
<!-- Node83 -->
<g id="node4" class="node">
<title>Node83</title>
<g id="a_node4"><a xlink:href="namespacedelta.html#ad62d6b2e68bcdebd01b3e7bc4f905c22" target="_top" xlink:title="delta::operator==">
<polygon fill="#ffffff" stroke="#000000" points="171.7778,-.5 171.7778,-18.5 263.9448,-18.5 263.9448,-.5 171.7778,-.5"/>
<text text-anchor="middle" x="217.8613" y="-6.5" font-family="Helvetica,sans-Serif" font-size="10.00" fill="#000000">delta::operator==</text>
</a>
</g>
</g>
<!-- Node80&#45;&gt;Node83 -->
<g id="edge4" class="edge">
<title>Node80&#45;&gt;Node83</title>
<path fill="none" stroke="#191970" d="M110.0713,-35.0753C132.5086,-29.7516 158.8249,-23.5076 179.8379,-18.5218"/>
<polygon fill="#191970" stroke="#191970" points="108.9901,-31.7346 100.0682,-37.4488 110.6061,-38.5456 108.9901,-31.7346"/>
</g>
<!-- Node81&#45;&gt;Node81 -->
<g id="edge2" class="edge">
<title>Node81&#45;&gt;Node81</title>
<path fill="none" stroke="#191970" d="M190.7458,-112.4873C193.6251,-117.4413 202.6636,-121 217.8613,-121 242.1777,-121 250.7265,-111.8898 243.5075,-102.5305"/>
<polygon fill="#191970" stroke="#191970" points="194.2177,-112.9343 192.2151,-102.5305 187.2927,-111.9124 194.2177,-112.9343"/>
</g>
<!-- Node84 -->
<g id="node5" class="node">
<title>Node84</title>
<g id="a_node5"><a xlink:href="classdelta_1_1_ptr_type.html#ada68d169a87da36cc9a55a3d1ba12d00" target="_top" xlink:title="delta::PtrType::classof">
<polygon fill="#ffffff" stroke="#000000" points="311.8809,-.5 311.8809,-18.5 426.2646,-18.5 426.2646,-.5 311.8809,-.5"/>
<text text-anchor="middle" x="369.0728" y="-6.5" font-family="Helvetica,sans-Serif" font-size="10.00" fill="#000000">delta::PtrType::classof</text>
</a>
</g>
</g>
<!-- Node83&#45;&gt;Node84 -->
<g id="edge5" class="edge">
<title>Node83&#45;&gt;Node84</title>
<path fill="none" stroke="#191970" d="M274.1445,-9.5C286.4003,-9.5 299.3822,-9.5 311.6805,-9.5"/>
<polygon fill="#191970" stroke="#191970" points="274.0514,-6.0001 264.0514,-9.5 274.0513,-13.0001 274.0514,-6.0001"/>
</g>
</g>
</svg>
