<?xml version="1.0" encoding="UTF-8" standalone="no"?>
<!DOCTYPE svg PUBLIC "-//W3C//DTD SVG 1.1//EN"
 "http://www.w3.org/Graphics/SVG/1.1/DTD/svg11.dtd">
<!-- Generated by graphviz version 2.40.1 (20161225.0304)
 -->
<!-- Title: delta::Type::getElementType Pages: 1 -->
<svg width="453pt" height="175pt"
 viewBox="0.00 0.00 453.18 175.00" xmlns="http://www.w3.org/2000/svg" xmlns:xlink="http://www.w3.org/1999/xlink">
<g id="graph0" class="graph" transform="scale(1 1) rotate(0) translate(4 171)">
<title>delta::Type::getElementType</title>
<polygon fill="#ffffff" stroke="transparent" points="-4,4 -4,-171 449.1758,-171 449.1758,4 -4,4"/>
<!-- Node12 -->
<g id="node1" class="node">
<title>Node12</title>
<polygon fill="#bfbfbf" stroke="#000000" points="0,-83.5 0,-101.5 142.7529,-101.5 142.7529,-83.5 0,-83.5"/>
<text text-anchor="middle" x="71.3765" y="-89.5" font-family="Helvetica,sans-Serif" font-size="10.00" fill="#000000">delta::Type::getElementType</text>
</g>
<!-- Node13 -->
<g id="node2" class="node">
<title>Node13</title>
<g id="a_node2"><a xlink:href="structdelta_1_1_type.html#a16a719104a088d92388e5a5d0f28981f" target="_top" xlink:title="delta::Type::isImplicitly\lConvertibleTo">
<polygon fill="#ffffff" stroke="#000000" points="178.7529,-120.5 178.7529,-148.5 294.792,-148.5 294.792,-120.5 178.7529,-120.5"/>
<text text-anchor="start" x="186.7529" y="-136.5" font-family="Helvetica,sans-Serif" font-size="10.00" fill="#000000">delta::Type::isImplicitly</text>
<text text-anchor="middle" x="236.7725" y="-126.5" font-family="Helvetica,sans-Serif" font-size="10.00" fill="#000000">ConvertibleTo</text>
</a>
</g>
</g>
<!-- Node12&#45;&gt;Node13 -->
<g id="edge1" class="edge">
<title>Node12&#45;&gt;Node13</title>
<path fill="none" stroke="#191970" d="M116.6622,-103.9997C136.6933,-109.0863 160.4349,-115.1152 181.4995,-120.4642"/>
<polygon fill="#191970" stroke="#191970" points="117.4119,-100.579 106.8581,-101.5101 115.689,-107.3637 117.4119,-100.579"/>
</g>
<!-- Node14 -->
<g id="node3" class="node">
<title>Node14</title>
<g id="a_node3"><a xlink:href="namespacedelta.html#ad62d6b2e68bcdebd01b3e7bc4f905c22" target="_top" xlink:title="delta::operator==">
<polygon fill="#ffffff" stroke="#000000" points="190.689,-83.5 190.689,-101.5 282.856,-101.5 282.856,-83.5 190.689,-83.5"/>
<text text-anchor="middle" x="236.7725" y="-89.5" font-family="Helvetica,sans-Serif" font-size="10.00" fill="#000000">delta::operator==</text>
</a>
</g>
</g>
<!-- Node12&#45;&gt;Node14 -->
<g id="edge3" class="edge">
<title>Node12&#45;&gt;Node14</title>
<path fill="none" stroke="#191970" d="M153.1779,-92.5C165.956,-92.5 178.7627,-92.5 190.3773,-92.5"/>
<polygon fill="#191970" stroke="#191970" points="152.9596,-89.0001 142.9596,-92.5 152.9596,-96.0001 152.9596,-89.0001"/>
</g>
<!-- Node16 -->
<g id="node5" class="node">
<title>Node16</title>
<g id="a_node5"><a xlink:href="structdelta_1_1_type.html#ad33f5df1e06c20291060f7a33912bd18" target="_top" xlink:title="delta::Type::printTo">
<polygon fill="#ffffff" stroke="#000000" points="186.5239,-28.5 186.5239,-46.5 287.021,-46.5 287.021,-28.5 186.5239,-28.5"/>
<text text-anchor="middle" x="236.7725" y="-34.5" font-family="Helvetica,sans-Serif" font-size="10.00" fill="#000000">delta::Type::printTo</text>
</a>
</g>
</g>
<!-- Node12&#45;&gt;Node16 -->
<g id="edge5" class="edge">
<title>Node12&#45;&gt;Node16</title>
<path fill="none" stroke="#191970" d="M108.1985,-80.2554C138.9373,-70.0336 182.0467,-55.6983 209.695,-46.5042"/>
<polygon fill="#191970" stroke="#191970" points="107.0729,-76.9412 98.6882,-83.4179 109.2818,-83.5835 107.0729,-76.9412"/>
</g>
<!-- Node13&#45;&gt;Node13 -->
<g id="edge2" class="edge">
<title>Node13&#45;&gt;Node13</title>
<path fill="none" stroke="#191970" d="M209.6569,-158.4873C212.5362,-163.4413 221.5747,-167 236.7725,-167 261.0889,-167 269.6376,-157.8898 262.4187,-148.5305"/>
<polygon fill="#191970" stroke="#191970" points="213.1288,-158.9343 211.1263,-148.5305 206.2038,-157.9124 213.1288,-158.9343"/>
</g>
<!-- Node15 -->
<g id="node4" class="node">
<title>Node15</title>
<g id="a_node4"><a xlink:href="classdelta_1_1_ptr_type.html#ada68d169a87da36cc9a55a3d1ba12d00" target="_top" xlink:title="delta::PtrType::classof">
<polygon fill="#ffffff" stroke="#000000" points="330.792,-83.5 330.792,-101.5 445.1758,-101.5 445.1758,-83.5 330.792,-83.5"/>
<text text-anchor="middle" x="387.9839" y="-89.5" font-family="Helvetica,sans-Serif" font-size="10.00" fill="#000000">delta::PtrType::classof</text>
</a>
</g>
</g>
<!-- Node14&#45;&gt;Node15 -->
<g id="edge4" class="edge">
<title>Node14&#45;&gt;Node15</title>
<path fill="none" stroke="#191970" d="M293.0557,-92.5C305.3115,-92.5 318.2934,-92.5 330.5916,-92.5"/>
<polygon fill="#191970" stroke="#191970" points="292.9625,-89.0001 282.9625,-92.5 292.9625,-96.0001 292.9625,-89.0001"/>
</g>
<!-- Node16&#45;&gt;Node16 -->
<g id="edge6" class="edge">
<title>Node16&#45;&gt;Node16</title>
<path fill="none" stroke="#191970" d="M208.6475,-54.7043C208.6658,-60.4256 218.0408,-65 236.7725,-65 264.0186,-65 271.4687,-55.322 259.1228,-46.5134"/>
<polygon fill="#191970" stroke="#191970" points="211.5206,-56.7032 214.4221,-46.5134 205.7995,-52.6697 211.5206,-56.7032"/>
</g>
<!-- Node17 -->
<g id="node6" class="node">
<title>Node17</title>
<g id="a_node6"><a xlink:href="structdelta_1_1_type.html#a98ef8c2e4a833d7c8db893fd14f9e466" target="_top" xlink:title="delta::Type::toString">
<polygon fill="#ffffff" stroke="#000000" points="335.5112,-37.5 335.5112,-55.5 440.4565,-55.5 440.4565,-37.5 335.5112,-37.5"/>
<text text-anchor="middle" x="387.9839" y="-43.5" font-family="Helvetica,sans-Serif" font-size="10.00" fill="#000000">delta::Type::toString</text>
</a>
</g>
</g>
<!-- Node16&#45;&gt;Node17 -->
<g id="edge7" class="edge">
<title>Node16&#45;&gt;Node17</title>
<path fill="none" stroke="#191970" d="M297.469,-41.1126C309.9816,-41.8574 323.0615,-42.6359 335.2633,-43.3621"/>
<polygon fill="#191970" stroke="#191970" points="297.314,-37.5973 287.1237,-40.4969 296.898,-44.5849 297.314,-37.5973"/>
</g>
<!-- Node18 -->
<g id="node7" class="node">
<title>Node18</title>
<g id="a_node7"><a xlink:href="namespacedelta.html#a679bd697f2c5acfcb9361ff45a7eeef1" target="_top" xlink:title="delta::operator\&lt;\&lt;">
<polygon fill="#ffffff" stroke="#000000" points="341.9004,-.5 341.9004,-18.5 434.0674,-18.5 434.0674,-.5 341.9004,-.5"/>
<text text-anchor="middle" x="387.9839" y="-6.5" font-family="Helvetica,sans-Serif" font-size="10.00" fill="#000000">delta::operator&lt;&lt;</text>
</a>
</g>
</g>
<!-- Node16&#45;&gt;Node18 -->
<g id="edge8" class="edge">
<title>Node16&#45;&gt;Node18</title>
<path fill="none" stroke="#191970" d="M295.3754,-26.6484C310.7407,-23.8032 327.0941,-20.775 341.715,-18.0677"/>
<polygon fill="#191970" stroke="#191970" points="294.6446,-23.2242 285.449,-28.4865 295.9192,-30.1072 294.6446,-23.2242"/>
</g>
</g>
</svg>
