<?xml version="1.0" encoding="UTF-8" standalone="no"?>
<!DOCTYPE svg PUBLIC "-//W3C//DTD SVG 1.1//EN"
 "http://www.w3.org/Graphics/SVG/1.1/DTD/svg11.dtd">
<!-- Generated by graphviz version 2.40.1 (20161225.0304)
 -->
<!-- Title: delta::Type::getKind Pages: 1 -->
<svg width="391pt" height="27pt"
 viewBox="0.00 0.00 390.95 27.00" xmlns="http://www.w3.org/2000/svg" xmlns:xlink="http://www.w3.org/1999/xlink">
<g id="graph0" class="graph" transform="scale(1 1) rotate(0) translate(4 23)">
<title>delta::Type::getKind</title>
<polygon fill="#ffffff" stroke="transparent" points="-4,4 -4,-23 386.9492,-23 386.9492,4 -4,4"/>
<!-- Node28 -->
<g id="node1" class="node">
<title>Node28</title>
<polygon fill="#bfbfbf" stroke="#000000" points="0,-.5 0,-18.5 104.3984,-18.5 104.3984,-.5 0,-.5"/>
<text text-anchor="middle" x="52.1992" y="-6.5" font-family="Helvetica,sans-Serif" font-size="10.00" fill="#000000">delta::Type::getKind</text>
</g>
<!-- Node29 -->
<g id="node2" class="node">
<title>Node29</title>
<g id="a_node2"><a xlink:href="namespacedelta.html#ad62d6b2e68bcdebd01b3e7bc4f905c22" target="_top" xlink:title="delta::operator==">
<polygon fill="#ffffff" stroke="#000000" points="140.3984,-.5 140.3984,-18.5 232.5654,-18.5 232.5654,-.5 140.3984,-.5"/>
<text text-anchor="middle" x="186.4819" y="-6.5" font-family="Helvetica,sans-Serif" font-size="10.00" fill="#000000">delta::operator==</text>
</a>
</g>
</g>
<!-- Node28&#45;&gt;Node29 -->
<g id="edge1" class="edge">
<title>Node28&#45;&gt;Node29</title>
<path fill="none" stroke="#191970" d="M114.5603,-9.5C123.2003,-9.5 131.9464,-9.5 140.2224,-9.5"/>
<polygon fill="#191970" stroke="#191970" points="114.501,-6.0001 104.5009,-9.5 114.5009,-13.0001 114.501,-6.0001"/>
</g>
<!-- Node30 -->
<g id="node3" class="node">
<title>Node30</title>
<g id="a_node3"><a xlink:href="classdelta_1_1_ptr_type.html#ada68d169a87da36cc9a55a3d1ba12d00" target="_top" xlink:title="delta::PtrType::classof">
<polygon fill="#ffffff" stroke="#000000" points="268.5654,-.5 268.5654,-18.5 382.9492,-18.5 382.9492,-.5 268.5654,-.5"/>
<text text-anchor="middle" x="325.7573" y="-6.5" font-family="Helvetica,sans-Serif" font-size="10.00" fill="#000000">delta::PtrType::classof</text>
</a>
</g>
</g>
<!-- Node29&#45;&gt;Node30 -->
<g id="edge2" class="edge">
<title>Node29&#45;&gt;Node30</title>
<path fill="none" stroke="#191970" d="M242.941,-9.5C251.343,-9.5 260.0106,-9.5 268.4303,-9.5"/>
<polygon fill="#191970" stroke="#191970" points="242.8587,-6.0001 232.8586,-9.5 242.8586,-13.0001 242.8587,-6.0001"/>
</g>
</g>
</svg>
