<?xml version="1.0" encoding="UTF-8" standalone="no"?>
<!DOCTYPE svg PUBLIC "-//W3C//DTD SVG 1.1//EN"
 "http://www.w3.org/Graphics/SVG/1.1/DTD/svg11.dtd">
<!-- Generated by graphviz version 2.40.1 (20161225.0304)
 -->
<!-- Title: delta::SrcLoc::isValid Pages: 1 -->
<svg width="544pt" height="64pt"
 viewBox="0.00 0.00 544.47 64.00" xmlns="http://www.w3.org/2000/svg" xmlns:xlink="http://www.w3.org/1999/xlink">
<g id="graph0" class="graph" transform="scale(1 1) rotate(0) translate(4 60)">
<title>delta::SrcLoc::isValid</title>
<polygon fill="#ffffff" stroke="transparent" points="-4,4 -4,-60 540.4727,-60 540.4727,4 -4,4"/>
<!-- Node7 -->
<g id="node1" class="node">
<title>Node7</title>
<polygon fill="#bfbfbf" stroke="#000000" points="0,-18.5 0,-36.5 108.6416,-36.5 108.6416,-18.5 0,-18.5"/>
<text text-anchor="middle" x="54.3208" y="-24.5" font-family="Helvetica,sans-Serif" font-size="10.00" fill="#000000">delta::SrcLoc::isValid</text>
</g>
<!-- Node8 -->
<g id="node2" class="node">
<title>Node8</title>
<g id="a_node2"><a xlink:href="namespacedelta.html#a9ade49bb9e7e0ab4a3baa95e65a045f2" target="_top" xlink:title="delta::error">
<polygon fill="#ffffff" stroke="#000000" points="144.6416,-18.5 144.6416,-36.5 208.9961,-36.5 208.9961,-18.5 144.6416,-18.5"/>
<text text-anchor="middle" x="176.8188" y="-24.5" font-family="Helvetica,sans-Serif" font-size="10.00" fill="#000000">delta::error</text>
</a>
</g>
</g>
<!-- Node7&#45;&gt;Node8 -->
<g id="edge1" class="edge">
<title>Node7&#45;&gt;Node8</title>
<path fill="none" stroke="#191970" d="M118.7642,-27.5C127.6234,-27.5 136.3932,-27.5 144.3295,-27.5"/>
<polygon fill="#191970" stroke="#191970" points="118.7636,-24.0001 108.7636,-27.5 118.7636,-31.0001 118.7636,-24.0001"/>
</g>
<!-- Node9 -->
<g id="node3" class="node">
<title>Node9</title>
<g id="a_node3"><a xlink:href="namespacedelta.html#aa177c1257b262c2aeb1286821a0e3766" target="_top" xlink:title="delta::addToSymbolTable">
<polygon fill="#ffffff" stroke="#000000" points="244.9961,-37.5 244.9961,-55.5 372.7344,-55.5 372.7344,-37.5 244.9961,-37.5"/>
<text text-anchor="middle" x="308.8652" y="-43.5" font-family="Helvetica,sans-Serif" font-size="10.00" fill="#000000">delta::addToSymbolTable</text>
</a>
</g>
</g>
<!-- Node8&#45;&gt;Node9 -->
<g id="edge2" class="edge">
<title>Node8&#45;&gt;Node9</title>
<path fill="none" stroke="#191970" d="M219.2526,-33.6057C227.8468,-34.8424 237.0551,-36.1673 246.1782,-37.48"/>
<polygon fill="#191970" stroke="#191970" points="219.5176,-30.1079 209.121,-32.1479 218.5206,-37.0365 219.5176,-30.1079"/>
</g>
<!-- Node10 -->
<g id="node4" class="node">
<title>Node10</title>
<g id="a_node4"><a xlink:href="namespacedelta.html#afbcc11c583968bc13aa34e5c3d58e54b" target="_top" xlink:title="delta::findInSymbolTable">
<polygon fill="#ffffff" stroke="#000000" points="246.3877,-.5 246.3877,-18.5 371.3428,-18.5 371.3428,-.5 246.3877,-.5"/>
<text text-anchor="middle" x="308.8652" y="-6.5" font-family="Helvetica,sans-Serif" font-size="10.00" fill="#000000">delta::findInSymbolTable</text>
</a>
</g>
</g>
<!-- Node8&#45;&gt;Node10 -->
<g id="edge3" class="edge">
<title>Node8&#45;&gt;Node10</title>
<path fill="none" stroke="#191970" d="M219.2526,-21.7156C227.8468,-20.5441 237.0551,-19.2889 246.1782,-18.0452"/>
<polygon fill="#191970" stroke="#191970" points="218.5566,-18.278 209.121,-23.0967 219.5022,-25.2139 218.5566,-18.278"/>
</g>
<!-- Node11 -->
<g id="node5" class="node">
<title>Node11</title>
<g id="a_node5"><a xlink:href="namespacedelta.html#abf78cd71ca70d4a49c0e9c3ac2e06d87" target="_top" xlink:title="delta::addToSymbolTable">
<polygon fill="#ffffff" stroke="#000000" points="408.7344,-.5 408.7344,-18.5 536.4727,-18.5 536.4727,-.5 408.7344,-.5"/>
<text text-anchor="middle" x="472.6035" y="-6.5" font-family="Helvetica,sans-Serif" font-size="10.00" fill="#000000">delta::addToSymbolTable</text>
</a>
</g>
</g>
<!-- Node10&#45;&gt;Node11 -->
<g id="edge4" class="edge">
<title>Node10&#45;&gt;Node11</title>
<path fill="none" stroke="#191970" d="M381.724,-9.5C390.6755,-9.5 399.7725,-9.5 408.5799,-9.5"/>
<polygon fill="#191970" stroke="#191970" points="381.7025,-6.0001 371.7024,-9.5 381.7024,-13.0001 381.7025,-6.0001"/>
</g>
</g>
</svg>
