<?xml version="1.0" encoding="UTF-8" standalone="no"?>
<!DOCTYPE svg PUBLIC "-//W3C//DTD SVG 1.1//EN"
 "http://www.w3.org/Graphics/SVG/1.1/DTD/svg11.dtd">
<!-- Generated by graphviz version 2.40.1 (20161225.0304)
 -->
<!-- Title: delta::Type::getSubtypes Pages: 1 -->
<svg width="437pt" height="175pt"
 viewBox="0.00 0.00 436.50 175.00" xmlns="http://www.w3.org/2000/svg" xmlns:xlink="http://www.w3.org/1999/xlink">
<g id="graph0" class="graph" transform="scale(1 1) rotate(0) translate(4 171)">
<title>delta::Type::getSubtypes</title>
<polygon fill="#ffffff" stroke="transparent" points="-4,4 -4,-171 432.501,-171 432.501,4 -4,4"/>
<!-- Node63 -->
<g id="node1" class="node">
<title>Node63</title>
<polygon fill="#bfbfbf" stroke="#000000" points="0,-83.5 0,-101.5 126.0781,-101.5 126.0781,-83.5 0,-83.5"/>
<text text-anchor="middle" x="63.0391" y="-89.5" font-family="Helvetica,sans-Serif" font-size="10.00" fill="#000000">delta::Type::getSubtypes</text>
</g>
<!-- Node64 -->
<g id="node2" class="node">
<title>Node64</title>
<g id="a_node2"><a xlink:href="structdelta_1_1_type.html#a16a719104a088d92388e5a5d0f28981f" target="_top" xlink:title="delta::Type::isImplicitly\lConvertibleTo">
<polygon fill="#ffffff" stroke="#000000" points="162.0781,-120.5 162.0781,-148.5 278.1172,-148.5 278.1172,-120.5 162.0781,-120.5"/>
<text text-anchor="start" x="170.0781" y="-136.5" font-family="Helvetica,sans-Serif" font-size="10.00" fill="#000000">delta::Type::isImplicitly</text>
<text text-anchor="middle" x="220.0977" y="-126.5" font-family="Helvetica,sans-Serif" font-size="10.00" fill="#000000">ConvertibleTo</text>
</a>
</g>
</g>
<!-- Node63&#45;&gt;Node64 -->
<g id="edge1" class="edge">
<title>Node63&#45;&gt;Node64</title>
<path fill="none" stroke="#191970" d="M106.5641,-104.1393C125.4749,-109.1964 147.7909,-115.164 167.6109,-120.4642"/>
<polygon fill="#191970" stroke="#191970" points="107.2968,-100.7123 96.7321,-101.5101 105.4884,-107.4747 107.2968,-100.7123"/>
</g>
<!-- Node65 -->
<g id="node3" class="node">
<title>Node65</title>
<g id="a_node3"><a xlink:href="namespacedelta.html#ad62d6b2e68bcdebd01b3e7bc4f905c22" target="_top" xlink:title="delta::operator==">
<polygon fill="#ffffff" stroke="#000000" points="174.0142,-83.5 174.0142,-101.5 266.1812,-101.5 266.1812,-83.5 174.0142,-83.5"/>
<text text-anchor="middle" x="220.0977" y="-89.5" font-family="Helvetica,sans-Serif" font-size="10.00" fill="#000000">delta::operator==</text>
</a>
</g>
</g>
<!-- Node63&#45;&gt;Node65 -->
<g id="edge3" class="edge">
<title>Node63&#45;&gt;Node65</title>
<path fill="none" stroke="#191970" d="M136.5771,-92.5C149.2604,-92.5 162.118,-92.5 173.8194,-92.5"/>
<polygon fill="#191970" stroke="#191970" points="136.4681,-89.0001 126.4681,-92.5 136.4681,-96.0001 136.4681,-89.0001"/>
</g>
<!-- Node67 -->
<g id="node5" class="node">
<title>Node67</title>
<g id="a_node5"><a xlink:href="structdelta_1_1_type.html#ad33f5df1e06c20291060f7a33912bd18" target="_top" xlink:title="delta::Type::printTo">
<polygon fill="#ffffff" stroke="#000000" points="169.8491,-28.5 169.8491,-46.5 270.3462,-46.5 270.3462,-28.5 169.8491,-28.5"/>
<text text-anchor="middle" x="220.0977" y="-34.5" font-family="Helvetica,sans-Serif" font-size="10.00" fill="#000000">delta::Type::printTo</text>
</a>
</g>
</g>
<!-- Node63&#45;&gt;Node67 -->
<g id="edge5" class="edge">
<title>Node63&#45;&gt;Node67</title>
<path fill="none" stroke="#191970" d="M98.7657,-79.989C127.902,-69.7858 168.3578,-55.6186 194.3851,-46.5042"/>
<polygon fill="#191970" stroke="#191970" points="97.2553,-76.8094 88.9741,-83.4179 99.5689,-83.416 97.2553,-76.8094"/>
</g>
<!-- Node64&#45;&gt;Node64 -->
<g id="edge2" class="edge">
<title>Node64&#45;&gt;Node64</title>
<path fill="none" stroke="#191970" d="M192.9821,-158.4873C195.8614,-163.4413 204.8999,-167 220.0977,-167 244.4141,-167 252.9628,-157.8898 245.7439,-148.5305"/>
<polygon fill="#191970" stroke="#191970" points="196.454,-158.9343 194.4514,-148.5305 189.529,-157.9124 196.454,-158.9343"/>
</g>
<!-- Node66 -->
<g id="node4" class="node">
<title>Node66</title>
<g id="a_node4"><a xlink:href="classdelta_1_1_ptr_type.html#ada68d169a87da36cc9a55a3d1ba12d00" target="_top" xlink:title="delta::PtrType::classof">
<polygon fill="#ffffff" stroke="#000000" points="314.1172,-83.5 314.1172,-101.5 428.501,-101.5 428.501,-83.5 314.1172,-83.5"/>
<text text-anchor="middle" x="371.3091" y="-89.5" font-family="Helvetica,sans-Serif" font-size="10.00" fill="#000000">delta::PtrType::classof</text>
</a>
</g>
</g>
<!-- Node65&#45;&gt;Node66 -->
<g id="edge4" class="edge">
<title>Node65&#45;&gt;Node66</title>
<path fill="none" stroke="#191970" d="M276.3809,-92.5C288.6367,-92.5 301.6186,-92.5 313.9168,-92.5"/>
<polygon fill="#191970" stroke="#191970" points="276.2877,-89.0001 266.2877,-92.5 276.2877,-96.0001 276.2877,-89.0001"/>
</g>
<!-- Node67&#45;&gt;Node67 -->
<g id="edge6" class="edge">
<title>Node67&#45;&gt;Node67</title>
<path fill="none" stroke="#191970" d="M191.9727,-54.7043C191.991,-60.4256 201.366,-65 220.0977,-65 247.3438,-65 254.7939,-55.322 242.448,-46.5134"/>
<polygon fill="#191970" stroke="#191970" points="194.8458,-56.7032 197.7473,-46.5134 189.1246,-52.6697 194.8458,-56.7032"/>
</g>
<!-- Node68 -->
<g id="node6" class="node">
<title>Node68</title>
<g id="a_node6"><a xlink:href="structdelta_1_1_type.html#a98ef8c2e4a833d7c8db893fd14f9e466" target="_top" xlink:title="delta::Type::toString">
<polygon fill="#ffffff" stroke="#000000" points="318.8364,-37.5 318.8364,-55.5 423.7817,-55.5 423.7817,-37.5 318.8364,-37.5"/>
<text text-anchor="middle" x="371.3091" y="-43.5" font-family="Helvetica,sans-Serif" font-size="10.00" fill="#000000">delta::Type::toString</text>
</a>
</g>
</g>
<!-- Node67&#45;&gt;Node68 -->
<g id="edge7" class="edge">
<title>Node67&#45;&gt;Node68</title>
<path fill="none" stroke="#191970" d="M280.7942,-41.1126C293.3068,-41.8574 306.3867,-42.6359 318.5885,-43.3621"/>
<polygon fill="#191970" stroke="#191970" points="280.6392,-37.5973 270.4489,-40.4969 280.2232,-44.5849 280.6392,-37.5973"/>
</g>
<!-- Node69 -->
<g id="node7" class="node">
<title>Node69</title>
<g id="a_node7"><a xlink:href="namespacedelta.html#a679bd697f2c5acfcb9361ff45a7eeef1" target="_top" xlink:title="delta::operator\&lt;\&lt;">
<polygon fill="#ffffff" stroke="#000000" points="325.2256,-.5 325.2256,-18.5 417.3926,-18.5 417.3926,-.5 325.2256,-.5"/>
<text text-anchor="middle" x="371.3091" y="-6.5" font-family="Helvetica,sans-Serif" font-size="10.00" fill="#000000">delta::operator&lt;&lt;</text>
</a>
</g>
</g>
<!-- Node67&#45;&gt;Node69 -->
<g id="edge8" class="edge">
<title>Node67&#45;&gt;Node69</title>
<path fill="none" stroke="#191970" d="M278.7006,-26.6484C294.0659,-23.8032 310.4193,-20.775 325.0402,-18.0677"/>
<polygon fill="#191970" stroke="#191970" points="277.9698,-23.2242 268.7742,-28.4865 279.2444,-30.1072 277.9698,-23.2242"/>
</g>
</g>
</svg>
