<?xml version="1.0" encoding="UTF-8" standalone="no"?>
<!DOCTYPE svg PUBLIC "-//W3C//DTD SVG 1.1//EN"
 "http://www.w3.org/Graphics/SVG/1.1/DTD/svg11.dtd">
<!-- Generated by graphviz version 2.40.1 (20161225.0304)
 -->
<!-- Title: delta::Type::isPtrType Pages: 1 -->
<svg width="423pt" height="92pt"
 viewBox="0.00 0.00 422.59 92.00" xmlns="http://www.w3.org/2000/svg" xmlns:xlink="http://www.w3.org/1999/xlink">
<g id="graph0" class="graph" transform="scale(1 1) rotate(0) translate(4 88)">
<title>delta::Type::isPtrType</title>
<polygon fill="#ffffff" stroke="transparent" points="-4,4 -4,-88 418.5898,-88 418.5898,4 -4,4"/>
<!-- Node115 -->
<g id="node1" class="node">
<title>Node115</title>
<polygon fill="#bfbfbf" stroke="#000000" points="0,-21.5 0,-39.5 112.167,-39.5 112.167,-21.5 0,-21.5"/>
<text text-anchor="middle" x="56.0835" y="-27.5" font-family="Helvetica,sans-Serif" font-size="10.00" fill="#000000">delta::Type::isPtrType</text>
</g>
<!-- Node116 -->
<g id="node2" class="node">
<title>Node116</title>
<g id="a_node2"><a xlink:href="structdelta_1_1_type.html#a16a719104a088d92388e5a5d0f28981f" target="_top" xlink:title="delta::Type::isImplicitly\lConvertibleTo">
<polygon fill="#ffffff" stroke="#000000" points="148.167,-37.5 148.167,-65.5 264.2061,-65.5 264.2061,-37.5 148.167,-37.5"/>
<text text-anchor="start" x="156.167" y="-53.5" font-family="Helvetica,sans-Serif" font-size="10.00" fill="#000000">delta::Type::isImplicitly</text>
<text text-anchor="middle" x="206.1865" y="-43.5" font-family="Helvetica,sans-Serif" font-size="10.00" fill="#000000">ConvertibleTo</text>
</a>
</g>
</g>
<!-- Node115&#45;&gt;Node116 -->
<g id="edge1" class="edge">
<title>Node115&#45;&gt;Node116</title>
<path fill="none" stroke="#191970" d="M122.3553,-39.7717C130.9166,-40.9694 139.6323,-42.1888 148.0487,-43.3663"/>
<polygon fill="#191970" stroke="#191970" points="122.7919,-36.2988 112.4034,-38.3794 121.822,-43.2312 122.7919,-36.2988"/>
</g>
<!-- Node117 -->
<g id="node3" class="node">
<title>Node117</title>
<g id="a_node3"><a xlink:href="namespacedelta.html#ad62d6b2e68bcdebd01b3e7bc4f905c22" target="_top" xlink:title="delta::operator==">
<polygon fill="#ffffff" stroke="#000000" points="160.103,-.5 160.103,-18.5 252.27,-18.5 252.27,-.5 160.103,-.5"/>
<text text-anchor="middle" x="206.1865" y="-6.5" font-family="Helvetica,sans-Serif" font-size="10.00" fill="#000000">delta::operator==</text>
</a>
</g>
</g>
<!-- Node115&#45;&gt;Node117 -->
<g id="edge3" class="edge">
<title>Node115&#45;&gt;Node117</title>
<path fill="none" stroke="#191970" d="M122.4271,-21.2183C135.0496,-19.4523 148.0051,-17.6398 159.8394,-15.9841"/>
<polygon fill="#191970" stroke="#191970" points="121.822,-17.7688 112.4034,-22.6206 122.7919,-24.7012 121.822,-17.7688"/>
</g>
<!-- Node116&#45;&gt;Node116 -->
<g id="edge2" class="edge">
<title>Node116&#45;&gt;Node116</title>
<path fill="none" stroke="#191970" d="M179.071,-75.4873C181.9503,-80.4413 190.9888,-84 206.1865,-84 230.5029,-84 239.0517,-74.8898 231.8327,-65.5305"/>
<polygon fill="#191970" stroke="#191970" points="182.5429,-75.9343 180.5403,-65.5305 175.6179,-74.9124 182.5429,-75.9343"/>
</g>
<!-- Node118 -->
<g id="node4" class="node">
<title>Node118</title>
<g id="a_node4"><a xlink:href="classdelta_1_1_ptr_type.html#ada68d169a87da36cc9a55a3d1ba12d00" target="_top" xlink:title="delta::PtrType::classof">
<polygon fill="#ffffff" stroke="#000000" points="300.2061,-.5 300.2061,-18.5 414.5898,-18.5 414.5898,-.5 300.2061,-.5"/>
<text text-anchor="middle" x="357.3979" y="-6.5" font-family="Helvetica,sans-Serif" font-size="10.00" fill="#000000">delta::PtrType::classof</text>
</a>
</g>
</g>
<!-- Node117&#45;&gt;Node118 -->
<g id="edge4" class="edge">
<title>Node117&#45;&gt;Node118</title>
<path fill="none" stroke="#191970" d="M262.4697,-9.5C274.7255,-9.5 287.7074,-9.5 300.0057,-9.5"/>
<polygon fill="#191970" stroke="#191970" points="262.3766,-6.0001 252.3766,-9.5 262.3765,-13.0001 262.3766,-6.0001"/>
</g>
</g>
</svg>
