<?xml version="1.0" encoding="UTF-8" standalone="no"?>
<!DOCTYPE svg PUBLIC "-//W3C//DTD SVG 1.1//EN"
 "http://www.w3.org/Graphics/SVG/1.1/DTD/svg11.dtd">
<!-- Generated by graphviz version 2.40.1 (20161225.0304)
 -->
<!-- Title: delta::Type::isArrayType Pages: 1 -->
<svg width="434pt" height="92pt"
 viewBox="0.00 0.00 433.70 92.00" xmlns="http://www.w3.org/2000/svg" xmlns:xlink="http://www.w3.org/1999/xlink">
<g id="graph0" class="graph" transform="scale(1 1) rotate(0) translate(4 88)">
<title>delta::Type::isArrayType</title>
<polygon fill="#ffffff" stroke="transparent" points="-4,4 -4,-88 429.7031,-88 429.7031,4 -4,4"/>
<!-- Node76 -->
<g id="node1" class="node">
<title>Node76</title>
<polygon fill="#bfbfbf" stroke="#000000" points="0,-21.5 0,-39.5 123.2803,-39.5 123.2803,-21.5 0,-21.5"/>
<text text-anchor="middle" x="61.6401" y="-27.5" font-family="Helvetica,sans-Serif" font-size="10.00" fill="#000000">delta::Type::isArrayType</text>
</g>
<!-- Node77 -->
<g id="node2" class="node">
<title>Node77</title>
<g id="a_node2"><a xlink:href="structdelta_1_1_type.html#a16a719104a088d92388e5a5d0f28981f" target="_top" xlink:title="delta::Type::isImplicitly\lConvertibleTo">
<polygon fill="#ffffff" stroke="#000000" points="159.2803,-37.5 159.2803,-65.5 275.3193,-65.5 275.3193,-37.5 159.2803,-37.5"/>
<text text-anchor="start" x="167.2803" y="-53.5" font-family="Helvetica,sans-Serif" font-size="10.00" fill="#000000">delta::Type::isImplicitly</text>
<text text-anchor="middle" x="217.2998" y="-43.5" font-family="Helvetica,sans-Serif" font-size="10.00" fill="#000000">ConvertibleTo</text>
</a>
</g>
</g>
<!-- Node76&#45;&gt;Node77 -->
<g id="edge1" class="edge">
<title>Node76&#45;&gt;Node77</title>
<path fill="none" stroke="#191970" d="M133.5737,-40.2045C142.1213,-41.3577 150.7643,-42.5237 159.0871,-43.6465"/>
<polygon fill="#191970" stroke="#191970" points="133.9864,-36.7286 123.6082,-38.8601 133.0505,-43.6657 133.9864,-36.7286"/>
</g>
<!-- Node78 -->
<g id="node3" class="node">
<title>Node78</title>
<g id="a_node3"><a xlink:href="namespacedelta.html#ad62d6b2e68bcdebd01b3e7bc4f905c22" target="_top" xlink:title="delta::operator==">
<polygon fill="#ffffff" stroke="#000000" points="171.2163,-.5 171.2163,-18.5 263.3833,-18.5 263.3833,-.5 171.2163,-.5"/>
<text text-anchor="middle" x="217.2998" y="-6.5" font-family="Helvetica,sans-Serif" font-size="10.00" fill="#000000">delta::operator==</text>
</a>
</g>
</g>
<!-- Node76&#45;&gt;Node78 -->
<g id="edge3" class="edge">
<title>Node76&#45;&gt;Node78</title>
<path fill="none" stroke="#191970" d="M133.6827,-20.7808C146.3316,-19.0743 159.1855,-17.3402 170.8981,-15.76"/>
<polygon fill="#191970" stroke="#191970" points="133.0505,-17.3343 123.6082,-22.1399 133.9864,-24.2714 133.0505,-17.3343"/>
</g>
<!-- Node77&#45;&gt;Node77 -->
<g id="edge2" class="edge">
<title>Node77&#45;&gt;Node77</title>
<path fill="none" stroke="#191970" d="M190.1843,-75.4873C193.0635,-80.4413 202.1021,-84 217.2998,-84 241.6162,-84 250.1649,-74.8898 242.946,-65.5305"/>
<polygon fill="#191970" stroke="#191970" points="193.6561,-75.9343 191.6536,-65.5305 186.7311,-74.9124 193.6561,-75.9343"/>
</g>
<!-- Node79 -->
<g id="node4" class="node">
<title>Node79</title>
<g id="a_node4"><a xlink:href="classdelta_1_1_ptr_type.html#ada68d169a87da36cc9a55a3d1ba12d00" target="_top" xlink:title="delta::PtrType::classof">
<polygon fill="#ffffff" stroke="#000000" points="311.3193,-.5 311.3193,-18.5 425.7031,-18.5 425.7031,-.5 311.3193,-.5"/>
<text text-anchor="middle" x="368.5112" y="-6.5" font-family="Helvetica,sans-Serif" font-size="10.00" fill="#000000">delta::PtrType::classof</text>
</a>
</g>
</g>
<!-- Node78&#45;&gt;Node79 -->
<g id="edge4" class="edge">
<title>Node78&#45;&gt;Node79</title>
<path fill="none" stroke="#191970" d="M273.583,-9.5C285.8388,-9.5 298.8207,-9.5 311.119,-9.5"/>
<polygon fill="#191970" stroke="#191970" points="273.4899,-6.0001 263.4899,-9.5 273.4898,-13.0001 273.4899,-6.0001"/>
</g>
</g>
</svg>
