<?xml version="1.0" encoding="UTF-8" standalone="no"?>
<!DOCTYPE svg PUBLIC "-//W3C//DTD SVG 1.1//EN"
 "http://www.w3.org/Graphics/SVG/1.1/DTD/svg11.dtd">
<!-- Generated by graphviz version 2.40.1 (20161225.0304)
 -->
<!-- Title: delta::SrcLoc::SrcLoc Pages: 1 -->
<svg width="588pt" height="27pt"
 viewBox="0.00 0.00 588.01 27.00" xmlns="http://www.w3.org/2000/svg" xmlns:xlink="http://www.w3.org/1999/xlink">
<g id="graph0" class="graph" transform="scale(1 1) rotate(0) translate(4 23)">
<title>delta::SrcLoc::SrcLoc</title>
<polygon fill="#ffffff" stroke="transparent" points="-4,4 -4,-23 584.0078,-23 584.0078,4 -4,4"/>
<!-- Node0 -->
<g id="node1" class="node">
<title>Node0</title>
<polygon fill="#bfbfbf" stroke="#000000" points="0,-.5 0,-18.5 111.0439,-18.5 111.0439,-.5 0,-.5"/>
<text text-anchor="middle" x="55.522" y="-6.5" font-family="Helvetica,sans-Serif" font-size="10.00" fill="#000000">delta::SrcLoc::SrcLoc</text>
</g>
<!-- Node1 -->
<g id="node2" class="node">
<title>Node1</title>
<g id="a_node2"><a xlink:href="structdelta_1_1_src_loc.html#ada7e7be75e3c0f2e3eece9879b364bb8" target="_top" xlink:title="delta::SrcLoc::invalid">
<polygon fill="#ffffff" stroke="#000000" points="147.0439,-.5 147.0439,-18.5 255.3145,-18.5 255.3145,-.5 147.0439,-.5"/>
<text text-anchor="middle" x="201.1792" y="-6.5" font-family="Helvetica,sans-Serif" font-size="10.00" fill="#000000">delta::SrcLoc::invalid</text>
</a>
</g>
</g>
<!-- Node0&#45;&gt;Node1 -->
<g id="edge1" class="edge">
<title>Node0&#45;&gt;Node1</title>
<path fill="none" stroke="#191970" d="M121.5592,-9.5C129.9453,-9.5 138.4526,-9.5 146.6311,-9.5"/>
<polygon fill="#191970" stroke="#191970" points="121.4203,-6.0001 111.4203,-9.5 121.4203,-13.0001 121.4203,-6.0001"/>
</g>
<!-- Node2 -->
<g id="node3" class="node">
<title>Node2</title>
<g id="a_node3"><a xlink:href="namespacedelta.html#afbcc11c583968bc13aa34e5c3d58e54b" target="_top" xlink:title="delta::findInSymbolTable">
<polygon fill="#ffffff" stroke="#000000" points="291.3145,-.5 291.3145,-18.5 416.2695,-18.5 416.2695,-.5 291.3145,-.5"/>
<text text-anchor="middle" x="353.792" y="-6.5" font-family="Helvetica,sans-Serif" font-size="10.00" fill="#000000">delta::findInSymbolTable</text>
</a>
</g>
</g>
<!-- Node1&#45;&gt;Node2 -->
<g id="edge2" class="edge">
<title>Node1&#45;&gt;Node2</title>
<path fill="none" stroke="#191970" d="M265.6011,-9.5C274.0571,-9.5 282.7127,-9.5 291.1388,-9.5"/>
<polygon fill="#191970" stroke="#191970" points="265.4145,-6.0001 255.4145,-9.5 265.4144,-13.0001 265.4145,-6.0001"/>
</g>
<!-- Node3 -->
<g id="node4" class="node">
<title>Node3</title>
<g id="a_node4"><a xlink:href="namespacedelta.html#abf78cd71ca70d4a49c0e9c3ac2e06d87" target="_top" xlink:title="delta::addToSymbolTable">
<polygon fill="#ffffff" stroke="#000000" points="452.2695,-.5 452.2695,-18.5 580.0078,-18.5 580.0078,-.5 452.2695,-.5"/>
<text text-anchor="middle" x="516.1387" y="-6.5" font-family="Helvetica,sans-Serif" font-size="10.00" fill="#000000">delta::addToSymbolTable</text>
</a>
</g>
</g>
<!-- Node2&#45;&gt;Node3 -->
<g id="edge3" class="edge">
<title>Node2&#45;&gt;Node3</title>
<path fill="none" stroke="#191970" d="M426.8054,-9.5C435.2745,-9.5 443.8633,-9.5 452.198,-9.5"/>
<polygon fill="#191970" stroke="#191970" points="426.5595,-6.0001 416.5595,-9.5 426.5594,-13.0001 426.5595,-6.0001"/>
</g>
</g>
</svg>
