<?xml version="1.0" encoding="UTF-8" standalone="no"?>
<!DOCTYPE svg PUBLIC "-//W3C//DTD SVG 1.1//EN"
 "http://www.w3.org/Graphics/SVG/1.1/DTD/svg11.dtd">
<!-- Generated by graphviz version 2.40.1 (20161225.0304)
 -->
<!-- Title: delta::SrcLoc::invalid Pages: 1 -->
<svg width="441pt" height="27pt"
 viewBox="0.00 0.00 440.96 27.00" xmlns="http://www.w3.org/2000/svg" xmlns:xlink="http://www.w3.org/1999/xlink">
<g id="graph0" class="graph" transform="scale(1 1) rotate(0) translate(4 23)">
<title>delta::SrcLoc::invalid</title>
<polygon fill="#ffffff" stroke="transparent" points="-4,4 -4,-23 436.9639,-23 436.9639,4 -4,4"/>
<!-- Node4 -->
<g id="node1" class="node">
<title>Node4</title>
<polygon fill="#bfbfbf" stroke="#000000" points="0,-.5 0,-18.5 108.2705,-18.5 108.2705,-.5 0,-.5"/>
<text text-anchor="middle" x="54.1353" y="-6.5" font-family="Helvetica,sans-Serif" font-size="10.00" fill="#000000">delta::SrcLoc::invalid</text>
</g>
<!-- Node5 -->
<g id="node2" class="node">
<title>Node5</title>
<g id="a_node2"><a xlink:href="namespacedelta.html#afbcc11c583968bc13aa34e5c3d58e54b" target="_top" xlink:title="delta::findInSymbolTable">
<polygon fill="#ffffff" stroke="#000000" points="144.2705,-.5 144.2705,-18.5 269.2256,-18.5 269.2256,-.5 144.2705,-.5"/>
<text text-anchor="middle" x="206.748" y="-6.5" font-family="Helvetica,sans-Serif" font-size="10.00" fill="#000000">delta::findInSymbolTable</text>
</a>
</g>
</g>
<!-- Node4&#45;&gt;Node5 -->
<g id="edge1" class="edge">
<title>Node4&#45;&gt;Node5</title>
<path fill="none" stroke="#191970" d="M118.5572,-9.5C127.0132,-9.5 135.6688,-9.5 144.0948,-9.5"/>
<polygon fill="#191970" stroke="#191970" points="118.3706,-6.0001 108.3705,-9.5 118.3705,-13.0001 118.3706,-6.0001"/>
</g>
<!-- Node6 -->
<g id="node3" class="node">
<title>Node6</title>
<g id="a_node3"><a xlink:href="namespacedelta.html#abf78cd71ca70d4a49c0e9c3ac2e06d87" target="_top" xlink:title="delta::addToSymbolTable">
<polygon fill="#ffffff" stroke="#000000" points="305.2256,-.5 305.2256,-18.5 432.9639,-18.5 432.9639,-.5 305.2256,-.5"/>
<text text-anchor="middle" x="369.0947" y="-6.5" font-family="Helvetica,sans-Serif" font-size="10.00" fill="#000000">delta::addToSymbolTable</text>
</a>
</g>
</g>
<!-- Node5&#45;&gt;Node6 -->
<g id="edge2" class="edge">
<title>Node5&#45;&gt;Node6</title>
<path fill="none" stroke="#191970" d="M279.7615,-9.5C288.2306,-9.5 296.8194,-9.5 305.1541,-9.5"/>
<polygon fill="#191970" stroke="#191970" points="279.5155,-6.0001 269.5155,-9.5 279.5155,-13.0001 279.5155,-6.0001"/>
</g>
</g>
</svg>
