<?xml version="1.0" encoding="UTF-8" standalone="no"?>
<!DOCTYPE svg PUBLIC "-//W3C//DTD SVG 1.1//EN"
 "http://www.w3.org/Graphics/SVG/1.1/DTD/svg11.dtd">
<!-- Generated by graphviz version 2.40.1 (20161225.0304)
 -->
<!-- Title: delta::Type::getPointee Pages: 1 -->
<svg width="433pt" height="212pt"
 viewBox="0.00 0.00 432.64 212.00" xmlns="http://www.w3.org/2000/svg" xmlns:xlink="http://www.w3.org/1999/xlink">
<g id="graph0" class="graph" transform="scale(1 1) rotate(0) translate(4 208)">
<title>delta::Type::getPointee</title>
<polygon fill="#ffffff" stroke="transparent" points="-4,4 -4,-208 428.6436,-208 428.6436,4 -4,4"/>
<!-- Node47 -->
<g id="node1" class="node">
<title>Node47</title>
<polygon fill="#bfbfbf" stroke="#000000" points="0,-101.5 0,-119.5 118.2998,-119.5 118.2998,-101.5 0,-101.5"/>
<text text-anchor="middle" x="59.1499" y="-107.5" font-family="Helvetica,sans-Serif" font-size="10.00" fill="#000000">delta::Type::getPointee</text>
</g>
<!-- Node48 -->
<g id="node2" class="node">
<title>Node48</title>
<g id="a_node2"><a xlink:href="structdelta_1_1_type.html#a16a719104a088d92388e5a5d0f28981f" target="_top" xlink:title="delta::Type::isImplicitly\lConvertibleTo">
<polygon fill="#ffffff" stroke="#000000" points="156.2603,-157.5 156.2603,-185.5 272.2993,-185.5 272.2993,-157.5 156.2603,-157.5"/>
<text text-anchor="start" x="164.2603" y="-173.5" font-family="Helvetica,sans-Serif" font-size="10.00" fill="#000000">delta::Type::isImplicitly</text>
<text text-anchor="middle" x="214.2798" y="-163.5" font-family="Helvetica,sans-Serif" font-size="10.00" fill="#000000">ConvertibleTo</text>
</a>
</g>
</g>
<!-- Node47&#45;&gt;Node48 -->
<g id="edge1" class="edge">
<title>Node47&#45;&gt;Node48</title>
<path fill="none" stroke="#191970" d="M91.1929,-123.4247C109.6266,-130.8279 133.2387,-140.2568 154.2998,-148.5 161.7773,-151.4266 169.7932,-154.5264 177.4532,-157.4704"/>
<polygon fill="#191970" stroke="#191970" points="92.3845,-120.1315 81.8007,-119.648 89.7729,-126.6261 92.3845,-120.1315"/>
</g>
<!-- Node49 -->
<g id="node3" class="node">
<title>Node49</title>
<g id="a_node3"><a xlink:href="structdelta_1_1_type.html#ab7e32dafb00dc2c9976ad5486b1e1477" target="_top" xlink:title="delta::Type::getReferee">
<polygon fill="#ffffff" stroke="#000000" points="154.2998,-120.5 154.2998,-138.5 274.2598,-138.5 274.2598,-120.5 154.2998,-120.5"/>
<text text-anchor="middle" x="214.2798" y="-126.5" font-family="Helvetica,sans-Serif" font-size="10.00" fill="#000000">delta::Type::getReferee</text>
</a>
</g>
</g>
<!-- Node47&#45;&gt;Node49 -->
<g id="edge3" class="edge">
<title>Node47&#45;&gt;Node49</title>
<path fill="none" stroke="#191970" d="M128.8767,-119.04C137.3063,-120.0724 145.8606,-121.1202 154.136,-122.1337"/>
<polygon fill="#191970" stroke="#191970" points="129.0349,-115.5333 118.6835,-117.7916 128.1838,-122.4814 129.0349,-115.5333"/>
</g>
<!-- Node50 -->
<g id="node4" class="node">
<title>Node50</title>
<g id="a_node4"><a xlink:href="namespacedelta.html#ad62d6b2e68bcdebd01b3e7bc4f905c22" target="_top" xlink:title="delta::operator==">
<polygon fill="#ffffff" stroke="#000000" points="168.1963,-83.5 168.1963,-101.5 260.3633,-101.5 260.3633,-83.5 168.1963,-83.5"/>
<text text-anchor="middle" x="214.2798" y="-89.5" font-family="Helvetica,sans-Serif" font-size="10.00" fill="#000000">delta::operator==</text>
</a>
</g>
</g>
<!-- Node47&#45;&gt;Node50 -->
<g id="edge4" class="edge">
<title>Node47&#45;&gt;Node50</title>
<path fill="none" stroke="#191970" d="M128.795,-102.419C142.1328,-100.8713 155.7863,-99.2871 168.1557,-97.8519"/>
<polygon fill="#191970" stroke="#191970" points="128.2134,-98.9629 118.6835,-103.5922 129.0203,-105.9162 128.2134,-98.9629"/>
</g>
<!-- Node52 -->
<g id="node6" class="node">
<title>Node52</title>
<g id="a_node6"><a xlink:href="structdelta_1_1_type.html#ad33f5df1e06c20291060f7a33912bd18" target="_top" xlink:title="delta::Type::printTo">
<polygon fill="#ffffff" stroke="#000000" points="164.0313,-28.5 164.0313,-46.5 264.5283,-46.5 264.5283,-28.5 164.0313,-28.5"/>
<text text-anchor="middle" x="214.2798" y="-34.5" font-family="Helvetica,sans-Serif" font-size="10.00" fill="#000000">delta::Type::printTo</text>
</a>
</g>
</g>
<!-- Node47&#45;&gt;Node52 -->
<g id="edge6" class="edge">
<title>Node47&#45;&gt;Node52</title>
<path fill="none" stroke="#191970" d="M87.9121,-96.9653C119.0138,-82.3296 167.7466,-59.3973 194.7025,-46.7126"/>
<polygon fill="#191970" stroke="#191970" points="86.0415,-93.9773 78.4835,-101.4021 89.0221,-100.3111 86.0415,-93.9773"/>
</g>
<!-- Node48&#45;&gt;Node48 -->
<g id="edge2" class="edge">
<title>Node48&#45;&gt;Node48</title>
<path fill="none" stroke="#191970" d="M186.8027,-195.4873C189.7204,-200.4413 198.8794,-204 214.2798,-204 238.9204,-204 247.5831,-194.8898 240.2679,-185.5305"/>
<polygon fill="#191970" stroke="#191970" points="190.2741,-195.9382 188.2916,-185.5305 183.3511,-194.9029 190.2741,-195.9382"/>
</g>
<!-- Node51 -->
<g id="node5" class="node">
<title>Node51</title>
<g id="a_node5"><a xlink:href="classdelta_1_1_ptr_type.html#ada68d169a87da36cc9a55a3d1ba12d00" target="_top" xlink:title="delta::PtrType::classof">
<polygon fill="#ffffff" stroke="#000000" points="310.2598,-83.5 310.2598,-101.5 424.6436,-101.5 424.6436,-83.5 310.2598,-83.5"/>
<text text-anchor="middle" x="367.4517" y="-89.5" font-family="Helvetica,sans-Serif" font-size="10.00" fill="#000000">delta::PtrType::classof</text>
</a>
</g>
</g>
<!-- Node50&#45;&gt;Node51 -->
<g id="edge5" class="edge">
<title>Node50&#45;&gt;Node51</title>
<path fill="none" stroke="#191970" d="M270.7495,-92.5C283.5953,-92.5 297.2537,-92.5 310.1344,-92.5"/>
<polygon fill="#191970" stroke="#191970" points="270.6521,-89.0001 260.6521,-92.5 270.652,-96.0001 270.6521,-89.0001"/>
</g>
<!-- Node52&#45;&gt;Node52 -->
<g id="edge7" class="edge">
<title>Node52&#45;&gt;Node52</title>
<path fill="none" stroke="#191970" d="M185.7798,-54.7043C185.7983,-60.4256 195.2983,-65 214.2798,-65 241.8892,-65 249.4386,-55.322 236.9281,-46.5134"/>
<polygon fill="#191970" stroke="#191970" points="188.6663,-56.6849 191.6315,-46.5134 182.9705,-52.6157 188.6663,-56.6849"/>
</g>
<!-- Node53 -->
<g id="node7" class="node">
<title>Node53</title>
<g id="a_node7"><a xlink:href="structdelta_1_1_type.html#a98ef8c2e4a833d7c8db893fd14f9e466" target="_top" xlink:title="delta::Type::toString">
<polygon fill="#ffffff" stroke="#000000" points="314.979,-37.5 314.979,-55.5 419.9243,-55.5 419.9243,-37.5 314.979,-37.5"/>
<text text-anchor="middle" x="367.4517" y="-43.5" font-family="Helvetica,sans-Serif" font-size="10.00" fill="#000000">delta::Type::toString</text>
</a>
</g>
</g>
<!-- Node52&#45;&gt;Node53 -->
<g id="edge8" class="edge">
<title>Node52&#45;&gt;Node53</title>
<path fill="none" stroke="#191970" d="M275.2041,-41.0798C288.3139,-41.8501 302.0634,-42.6579 314.8257,-43.4078"/>
<polygon fill="#191970" stroke="#191970" points="275.0466,-37.5646 264.8585,-40.4719 274.6359,-44.5525 275.0466,-37.5646"/>
</g>
<!-- Node54 -->
<g id="node8" class="node">
<title>Node54</title>
<g id="a_node8"><a xlink:href="namespacedelta.html#a679bd697f2c5acfcb9361ff45a7eeef1" target="_top" xlink:title="delta::operator\&lt;\&lt;">
<polygon fill="#ffffff" stroke="#000000" points="321.3682,-.5 321.3682,-18.5 413.5352,-18.5 413.5352,-.5 321.3682,-.5"/>
<text text-anchor="middle" x="367.4517" y="-6.5" font-family="Helvetica,sans-Serif" font-size="10.00" fill="#000000">delta::operator&lt;&lt;</text>
</a>
</g>
</g>
<!-- Node52&#45;&gt;Node54 -->
<g id="edge9" class="edge">
<title>Node52&#45;&gt;Node54</title>
<path fill="none" stroke="#191970" d="M273.7894,-26.6216C289.5836,-23.7344 306.3988,-20.6605 321.3588,-17.9258"/>
<polygon fill="#191970" stroke="#191970" points="272.795,-23.2453 263.5875,-28.4865 274.0539,-30.1312 272.795,-23.2453"/>
</g>
</g>
</svg>
