<?xml version="1.0" encoding="UTF-8" standalone="no"?>
<!DOCTYPE svg PUBLIC "-//W3C//DTD SVG 1.1//EN"
 "http://www.w3.org/Graphics/SVG/1.1/DTD/svg11.dtd">
<!-- Generated by graphviz version 2.40.1 (20161225.0304)
 -->
<!-- Title: delta::Type::getName Pages: 1 -->
<svg width="421pt" height="212pt"
 viewBox="0.00 0.00 421.48 212.00" xmlns="http://www.w3.org/2000/svg" xmlns:xlink="http://www.w3.org/1999/xlink">
<g id="graph0" class="graph" transform="scale(1 1) rotate(0) translate(4 208)">
<title>delta::Type::getName</title>
<polygon fill="#ffffff" stroke="transparent" points="-4,4 -4,-208 417.4814,-208 417.4814,4 -4,4"/>
<!-- Node31 -->
<g id="node1" class="node">
<title>Node31</title>
<polygon fill="#bfbfbf" stroke="#000000" points="0,-101.5 0,-119.5 111.0586,-119.5 111.0586,-101.5 0,-101.5"/>
<text text-anchor="middle" x="55.5293" y="-107.5" font-family="Helvetica,sans-Serif" font-size="10.00" fill="#000000">delta::Type::getName</text>
</g>
<!-- Node32 -->
<g id="node2" class="node">
<title>Node32</title>
<g id="a_node2"><a xlink:href="structdelta_1_1_type.html#a16a719104a088d92388e5a5d0f28981f" target="_top" xlink:title="delta::Type::isImplicitly\lConvertibleTo">
<polygon fill="#ffffff" stroke="#000000" points="147.0586,-157.5 147.0586,-185.5 263.0977,-185.5 263.0977,-157.5 147.0586,-157.5"/>
<text text-anchor="start" x="155.0586" y="-173.5" font-family="Helvetica,sans-Serif" font-size="10.00" fill="#000000">delta::Type::isImplicitly</text>
<text text-anchor="middle" x="205.0781" y="-163.5" font-family="Helvetica,sans-Serif" font-size="10.00" fill="#000000">ConvertibleTo</text>
</a>
</g>
</g>
<!-- Node31&#45;&gt;Node32 -->
<g id="edge1" class="edge">
<title>Node31&#45;&gt;Node32</title>
<path fill="none" stroke="#191970" d="M86.2363,-123.3932C103.9813,-130.8077 126.7461,-140.258 147.0586,-148.5 154.2877,-151.4333 162.0398,-154.5359 169.449,-157.4806"/>
<polygon fill="#191970" stroke="#191970" points="87.5179,-120.1354 76.9419,-119.5041 84.8158,-126.5929 87.5179,-120.1354"/>
</g>
<!-- Node33 -->
<g id="node3" class="node">
<title>Node33</title>
<g id="a_node3"><a xlink:href="structdelta_1_1_type.html#a80fde850bedbbf0210860796b1058ff7" target="_top" xlink:title="delta::Type::isSigned">
<polygon fill="#ffffff" stroke="#000000" points="150.6572,-120.5 150.6572,-138.5 259.499,-138.5 259.499,-120.5 150.6572,-120.5"/>
<text text-anchor="middle" x="205.0781" y="-126.5" font-family="Helvetica,sans-Serif" font-size="10.00" fill="#000000">delta::Type::isSigned</text>
</a>
</g>
</g>
<!-- Node31&#45;&gt;Node33 -->
<g id="edge3" class="edge">
<title>Node31&#45;&gt;Node33</title>
<path fill="none" stroke="#191970" d="M121.2383,-118.8482C130.9548,-120.0827 140.8785,-121.3435 150.3402,-122.5456"/>
<polygon fill="#191970" stroke="#191970" points="121.5772,-115.3633 111.2158,-117.5749 120.6949,-122.3074 121.5772,-115.3633"/>
</g>
<!-- Node34 -->
<g id="node4" class="node">
<title>Node34</title>
<g id="a_node4"><a xlink:href="namespacedelta.html#ad62d6b2e68bcdebd01b3e7bc4f905c22" target="_top" xlink:title="delta::operator==">
<polygon fill="#ffffff" stroke="#000000" points="158.9946,-83.5 158.9946,-101.5 251.1616,-101.5 251.1616,-83.5 158.9946,-83.5"/>
<text text-anchor="middle" x="205.0781" y="-89.5" font-family="Helvetica,sans-Serif" font-size="10.00" fill="#000000">delta::operator==</text>
</a>
</g>
</g>
<!-- Node31&#45;&gt;Node34 -->
<g id="edge4" class="edge">
<title>Node31&#45;&gt;Node34</title>
<path fill="none" stroke="#191970" d="M121.2263,-102.5926C133.837,-101.0747 146.7972,-99.5148 158.6436,-98.089"/>
<polygon fill="#191970" stroke="#191970" points="120.7258,-99.1275 111.2158,-103.7975 121.5624,-106.0773 120.7258,-99.1275"/>
</g>
<!-- Node36 -->
<g id="node6" class="node">
<title>Node36</title>
<g id="a_node6"><a xlink:href="structdelta_1_1_type.html#ad33f5df1e06c20291060f7a33912bd18" target="_top" xlink:title="delta::Type::printTo">
<polygon fill="#ffffff" stroke="#000000" points="154.8296,-28.5 154.8296,-46.5 255.3267,-46.5 255.3267,-28.5 154.8296,-28.5"/>
<text text-anchor="middle" x="205.0781" y="-34.5" font-family="Helvetica,sans-Serif" font-size="10.00" fill="#000000">delta::Type::printTo</text>
</a>
</g>
</g>
<!-- Node31&#45;&gt;Node36 -->
<g id="edge6" class="edge">
<title>Node31&#45;&gt;Node36</title>
<path fill="none" stroke="#191970" d="M83.2567,-96.9653C113.2395,-82.3296 160.2191,-59.3973 186.2052,-46.7126"/>
<polygon fill="#191970" stroke="#191970" points="81.6186,-93.8701 74.1674,-101.4021 84.6892,-100.1607 81.6186,-93.8701"/>
</g>
<!-- Node32&#45;&gt;Node32 -->
<g id="edge2" class="edge">
<title>Node32&#45;&gt;Node32</title>
<path fill="none" stroke="#191970" d="M178.3241,-195.4873C181.165,-200.4413 190.083,-204 205.0781,-204 229.0703,-204 237.5051,-194.8898 230.3824,-185.5305"/>
<polygon fill="#191970" stroke="#191970" points="181.7964,-195.9304 179.7739,-185.5305 174.8695,-194.9218 181.7964,-195.9304"/>
</g>
<!-- Node35 -->
<g id="node5" class="node">
<title>Node35</title>
<g id="a_node5"><a xlink:href="classdelta_1_1_ptr_type.html#ada68d169a87da36cc9a55a3d1ba12d00" target="_top" xlink:title="delta::PtrType::classof">
<polygon fill="#ffffff" stroke="#000000" points="299.0977,-83.5 299.0977,-101.5 413.4814,-101.5 413.4814,-83.5 299.0977,-83.5"/>
<text text-anchor="middle" x="356.2896" y="-89.5" font-family="Helvetica,sans-Serif" font-size="10.00" fill="#000000">delta::PtrType::classof</text>
</a>
</g>
</g>
<!-- Node34&#45;&gt;Node35 -->
<g id="edge5" class="edge">
<title>Node34&#45;&gt;Node35</title>
<path fill="none" stroke="#191970" d="M261.3613,-92.5C273.6171,-92.5 286.599,-92.5 298.8973,-92.5"/>
<polygon fill="#191970" stroke="#191970" points="261.2682,-89.0001 251.2682,-92.5 261.2681,-96.0001 261.2682,-89.0001"/>
</g>
<!-- Node36&#45;&gt;Node36 -->
<g id="edge7" class="edge">
<title>Node36&#45;&gt;Node36</title>
<path fill="none" stroke="#191970" d="M177.3437,-55.0926C177.7714,-60.6312 187.0162,-65 205.0781,-65 231.9609,-65 239.3117,-55.322 227.1304,-46.5134"/>
<polygon fill="#191970" stroke="#191970" points="180.4219,-56.7833 183.0258,-46.5134 174.5859,-52.918 180.4219,-56.7833"/>
</g>
<!-- Node37 -->
<g id="node7" class="node">
<title>Node37</title>
<g id="a_node7"><a xlink:href="structdelta_1_1_type.html#a98ef8c2e4a833d7c8db893fd14f9e466" target="_top" xlink:title="delta::Type::toString">
<polygon fill="#ffffff" stroke="#000000" points="303.8169,-37.5 303.8169,-55.5 408.7622,-55.5 408.7622,-37.5 303.8169,-37.5"/>
<text text-anchor="middle" x="356.2896" y="-43.5" font-family="Helvetica,sans-Serif" font-size="10.00" fill="#000000">delta::Type::toString</text>
</a>
</g>
</g>
<!-- Node36&#45;&gt;Node37 -->
<g id="edge8" class="edge">
<title>Node36&#45;&gt;Node37</title>
<path fill="none" stroke="#191970" d="M265.7747,-41.1126C278.2873,-41.8574 291.3671,-42.6359 303.569,-43.3621"/>
<polygon fill="#191970" stroke="#191970" points="265.6197,-37.5973 255.4293,-40.4969 265.2037,-44.5849 265.6197,-37.5973"/>
</g>
<!-- Node38 -->
<g id="node8" class="node">
<title>Node38</title>
<g id="a_node8"><a xlink:href="namespacedelta.html#a679bd697f2c5acfcb9361ff45a7eeef1" target="_top" xlink:title="delta::operator\&lt;\&lt;">
<polygon fill="#ffffff" stroke="#000000" points="310.2061,-.5 310.2061,-18.5 402.373,-18.5 402.373,-.5 310.2061,-.5"/>
<text text-anchor="middle" x="356.2896" y="-6.5" font-family="Helvetica,sans-Serif" font-size="10.00" fill="#000000">delta::operator&lt;&lt;</text>
</a>
</g>
</g>
<!-- Node36&#45;&gt;Node38 -->
<g id="edge9" class="edge">
<title>Node36&#45;&gt;Node38</title>
<path fill="none" stroke="#191970" d="M263.6811,-26.6484C279.0463,-23.8032 295.3997,-20.775 310.0207,-18.0677"/>
<polygon fill="#191970" stroke="#191970" points="262.9503,-23.2242 253.7547,-28.4865 264.2248,-30.1072 262.9503,-23.2242"/>
</g>
</g>
</svg>
