<?xml version="1.0" encoding="UTF-8" standalone="no"?>
<!DOCTYPE svg PUBLIC "-//W3C//DTD SVG 1.1//EN"
 "http://www.w3.org/Graphics/SVG/1.1/DTD/svg11.dtd">
<!-- Generated by graphviz version 2.40.1 (20161225.0304)
 -->
<!-- Title: delta::Type::printTo Pages: 1 -->
<svg width="249pt" height="64pt"
 viewBox="0.00 0.00 249.44 64.00" xmlns="http://www.w3.org/2000/svg" xmlns:xlink="http://www.w3.org/1999/xlink">
<g id="graph0" class="graph" transform="scale(1 1) rotate(0) translate(4 60)">
<title>delta::Type::printTo</title>
<polygon fill="#ffffff" stroke="transparent" points="-4,4 -4,-60 245.4424,-60 245.4424,4 -4,4"/>
<!-- Node141 -->
<g id="node1" class="node">
<title>Node141</title>
<polygon fill="#bfbfbf" stroke="#000000" points="0,-18.5 0,-36.5 100.4971,-36.5 100.4971,-18.5 0,-18.5"/>
<text text-anchor="middle" x="50.2485" y="-24.5" font-family="Helvetica,sans-Serif" font-size="10.00" fill="#000000">delta::Type::printTo</text>
</g>
<!-- Node141&#45;&gt;Node141 -->
<g id="edge1" class="edge">
<title>Node141&#45;&gt;Node141</title>
<path fill="none" stroke="#191970" d="M24.388,-45.0926C24.7869,-50.6312 33.407,-55 50.2485,-55 75.3149,-55 82.169,-45.322 70.8108,-36.5134"/>
<polygon fill="#191970" stroke="#191970" points="27.4097,-46.8608 29.6862,-36.5134 21.4539,-43.1826 27.4097,-46.8608"/>
</g>
<!-- Node142 -->
<g id="node2" class="node">
<title>Node142</title>
<g id="a_node2"><a xlink:href="structdelta_1_1_type.html#a98ef8c2e4a833d7c8db893fd14f9e466" target="_top" xlink:title="delta::Type::toString">
<polygon fill="#ffffff" stroke="#000000" points="136.4971,-37.5 136.4971,-55.5 241.4424,-55.5 241.4424,-37.5 136.4971,-37.5"/>
<text text-anchor="middle" x="188.9697" y="-43.5" font-family="Helvetica,sans-Serif" font-size="10.00" fill="#000000">delta::Type::toString</text>
</a>
</g>
</g>
<!-- Node141&#45;&gt;Node142 -->
<g id="edge2" class="edge">
<title>Node141&#45;&gt;Node142</title>
<path fill="none" stroke="#191970" d="M110.6766,-35.7766C119.256,-36.9516 128.0207,-38.1521 136.434,-39.3044"/>
<polygon fill="#191970" stroke="#191970" points="111.105,-32.3026 100.7225,-34.4132 110.155,-39.2379 111.105,-32.3026"/>
</g>
<!-- Node143 -->
<g id="node3" class="node">
<title>Node143</title>
<g id="a_node3"><a xlink:href="namespacedelta.html#a679bd697f2c5acfcb9361ff45a7eeef1" target="_top" xlink:title="delta::operator\&lt;\&lt;">
<polygon fill="#ffffff" stroke="#000000" points="142.8862,-.5 142.8862,-18.5 235.0532,-18.5 235.0532,-.5 142.8862,-.5"/>
<text text-anchor="middle" x="188.9697" y="-6.5" font-family="Helvetica,sans-Serif" font-size="10.00" fill="#000000">delta::operator&lt;&lt;</text>
</a>
</g>
</g>
<!-- Node141&#45;&gt;Node143 -->
<g id="edge3" class="edge">
<title>Node141&#45;&gt;Node143</title>
<path fill="none" stroke="#191970" d="M110.781,-19.6455C121.3964,-18.2681 132.2923,-16.8543 142.452,-15.536"/>
<polygon fill="#191970" stroke="#191970" points="110.1889,-16.1929 100.7225,-20.9507 111.0898,-23.1347 110.1889,-16.1929"/>
</g>
</g>
</svg>
