<?xml version="1.0" encoding="UTF-8" standalone="no"?>
<!DOCTYPE svg PUBLIC "-//W3C//DTD SVG 1.1//EN"
 "http://www.w3.org/Graphics/SVG/1.1/DTD/svg11.dtd">
<!-- Generated by graphviz version 2.40.1 (20161225.0304)
 -->
<!-- Title: src/ast/type.h Pages: 1 -->
<svg width="567pt" height="82pt"
 viewBox="0.00 0.00 566.92 82.00" xmlns="http://www.w3.org/2000/svg" xmlns:xlink="http://www.w3.org/1999/xlink">
<g id="graph0" class="graph" transform="scale(1 1) rotate(0) translate(4 78)">
<title>src/ast/type.h</title>
<polygon fill="#ffffff" stroke="transparent" points="-4,4 -4,-78 562.916,-78 562.916,4 -4,4"/>
<!-- Node0 -->
<g id="node1" class="node">
<title>Node0</title>
<polygon fill="#bfbfbf" stroke="#000000" points="156.8818,-55.5 156.8818,-73.5 232.3496,-73.5 232.3496,-55.5 156.8818,-55.5"/>
<text text-anchor="middle" x="194.6157" y="-61.5" font-family="Helvetica,sans-Serif" font-size="10.00" fill="#000000">src/ast/type.h</text>
</g>
<!-- Node1 -->
<g id="node2" class="node">
<title>Node1</title>
<polygon fill="#ffffff" stroke="#bfbfbf" points="0,-.5 0,-18.5 43.2314,-18.5 43.2314,-.5 0,-.5"/>
<text text-anchor="middle" x="21.6157" y="-6.5" font-family="Helvetica,sans-Serif" font-size="10.00" fill="#000000">vector</text>
</g>
<!-- Node0&#45;&gt;Node1 -->
<g id="edge1" class="edge">
<title>Node0&#45;&gt;Node1</title>
<path fill="none" stroke="#191970" d="M166.0483,-55.4179C134.9595,-45.5341 85.393,-29.776 53.1755,-19.5334"/>
<polygon fill="#191970" stroke="#191970" points="53.9607,-16.1105 43.3703,-16.4162 51.8398,-22.7815 53.9607,-16.1105"/>
</g>
<!-- Node2 -->
<g id="node3" class="node">
<title>Node2</title>
<polygon fill="#ffffff" stroke="#bfbfbf" points="61.3892,-.5 61.3892,-18.5 101.8423,-18.5 101.8423,-.5 61.3892,-.5"/>
<text text-anchor="middle" x="81.6157" y="-6.5" font-family="Helvetica,sans-Serif" font-size="10.00" fill="#000000">string</text>
</g>
<!-- Node0&#45;&gt;Node2 -->
<g id="edge2" class="edge">
<title>Node0&#45;&gt;Node2</title>
<path fill="none" stroke="#191970" d="M175.9561,-55.4179C157.8815,-46.6205 130.245,-33.1691 109.5485,-23.0956"/>
<polygon fill="#191970" stroke="#191970" points="110.8264,-19.825 100.3031,-18.5956 107.7629,-26.1191 110.8264,-19.825"/>
</g>
<!-- Node3 -->
<g id="node4" class="node">
<title>Node3</title>
<polygon fill="#ffffff" stroke="#bfbfbf" points="119.5542,-.5 119.5542,-18.5 171.6772,-18.5 171.6772,-.5 119.5542,-.5"/>
<text text-anchor="middle" x="145.6157" y="-6.5" font-family="Helvetica,sans-Serif" font-size="10.00" fill="#000000">ostream</text>
</g>
<!-- Node0&#45;&gt;Node3 -->
<g id="edge3" class="edge">
<title>Node0&#45;&gt;Node3</title>
<path fill="none" stroke="#191970" d="M186.5244,-55.4179C179.5444,-47.5833 169.2761,-36.0575 160.7734,-26.5137"/>
<polygon fill="#191970" stroke="#191970" points="163.1483,-23.9178 153.8829,-18.7795 157.9216,-28.5743 163.1483,-23.9178"/>
</g>
<!-- Node4 -->
<g id="node5" class="node">
<title>Node4</title>
<polygon fill="#ffffff" stroke="#bfbfbf" points="190.0542,-.5 190.0542,-18.5 297.1772,-18.5 297.1772,-.5 190.0542,-.5"/>
<text text-anchor="middle" x="243.6157" y="-6.5" font-family="Helvetica,sans-Serif" font-size="10.00" fill="#000000">llvm/ADT/ArrayRef.h</text>
</g>
<!-- Node0&#45;&gt;Node4 -->
<g id="edge4" class="edge">
<title>Node0&#45;&gt;Node4</title>
<path fill="none" stroke="#191970" d="M202.7071,-55.4179C209.687,-47.5833 219.9554,-36.0575 228.4581,-26.5137"/>
<polygon fill="#191970" stroke="#191970" points="231.3098,-28.5743 235.3486,-18.7795 226.0832,-23.9178 231.3098,-28.5743"/>
</g>
<!-- Node5 -->
<g id="node6" class="node">
<title>Node5</title>
<polygon fill="#ffffff" stroke="#bfbfbf" points="314.9385,-.5 314.9385,-18.5 424.293,-18.5 424.293,-.5 314.9385,-.5"/>
<text text-anchor="middle" x="369.6157" y="-6.5" font-family="Helvetica,sans-Serif" font-size="10.00" fill="#000000">llvm/ADT/StringRef.h</text>
</g>
<!-- Node0&#45;&gt;Node5 -->
<g id="edge5" class="edge">
<title>Node0&#45;&gt;Node5</title>
<path fill="none" stroke="#191970" d="M223.5134,-55.4179C252.9863,-46.155 298.8761,-31.7325 331.3512,-21.526"/>
<polygon fill="#191970" stroke="#191970" points="332.4754,-24.8415 340.966,-18.5042 330.3766,-18.1636 332.4754,-24.8415"/>
</g>
<!-- Node6 -->
<g id="node7" class="node">
<title>Node6</title>
<polygon fill="#ffffff" stroke="#bfbfbf" points="442.3154,-.5 442.3154,-18.5 558.916,-18.5 558.916,-.5 442.3154,-.5"/>
<text text-anchor="middle" x="500.6157" y="-6.5" font-family="Helvetica,sans-Serif" font-size="10.00" fill="#000000">llvm/Support/Casting.h</text>
</g>
<!-- Node0&#45;&gt;Node6 -->
<g id="edge6" class="edge">
<title>Node0&#45;&gt;Node6</title>
<path fill="none" stroke="#191970" d="M232.4442,-57.7008C284.4745,-48.3489 378.6826,-31.4161 440.4447,-20.3151"/>
<polygon fill="#191970" stroke="#191970" points="441.222,-23.7315 450.4451,-18.5176 439.9836,-16.8419 441.222,-23.7315"/>
</g>
</g>
</svg>
