<?xml version="1.0" encoding="UTF-8" standalone="no"?>
<!DOCTYPE svg PUBLIC "-//W3C//DTD SVG 1.1//EN"
 "http://www.w3.org/Graphics/SVG/1.1/DTD/svg11.dtd">
<!-- Generated by graphviz version 2.40.1 (20161225.0304)
 -->
<!-- Title: src/ast/type.cpp Pages: 1 -->
<svg width="801pt" height="192pt"
 viewBox="0.00 0.00 800.51 192.00" xmlns="http://www.w3.org/2000/svg" xmlns:xlink="http://www.w3.org/1999/xlink">
<g id="graph0" class="graph" transform="scale(1 1) rotate(0) translate(4 188)">
<title>src/ast/type.cpp</title>
<polygon fill="#ffffff" stroke="transparent" points="-4,4 -4,-188 796.5146,-188 796.5146,4 -4,4"/>
<!-- Node0 -->
<g id="node1" class="node">
<title>Node0</title>
<polygon fill="#bfbfbf" stroke="#000000" points="391.0469,-165.5 391.0469,-183.5 477.0762,-183.5 477.0762,-165.5 391.0469,-165.5"/>
<text text-anchor="middle" x="434.0615" y="-171.5" font-family="Helvetica,sans-Serif" font-size="10.00" fill="#000000">src/ast/type.cpp</text>
</g>
<!-- Node1 -->
<g id="node2" class="node">
<title>Node1</title>
<polygon fill="#ffffff" stroke="#bfbfbf" points="246.2808,-110.5 246.2808,-128.5 297.8423,-128.5 297.8423,-110.5 246.2808,-110.5"/>
<text text-anchor="middle" x="272.0615" y="-116.5" font-family="Helvetica,sans-Serif" font-size="10.00" fill="#000000">sstream</text>
</g>
<!-- Node0&#45;&gt;Node1 -->
<g id="edge1" class="edge">
<title>Node0&#45;&gt;Node1</title>
<path fill="none" stroke="#191970" d="M407.3105,-165.4179C380.1008,-156.18 337.7757,-141.8104 307.7275,-131.6088"/>
<polygon fill="#191970" stroke="#191970" points="308.6419,-128.2231 298.0475,-128.3224 306.3914,-134.8515 308.6419,-128.2231"/>
</g>
<!-- Node2 -->
<g id="node3" class="node">
<title>Node2</title>
<polygon fill="#ffffff" stroke="#bfbfbf" points="450.3843,-55.5 450.3843,-73.5 559.7388,-73.5 559.7388,-55.5 450.3843,-55.5"/>
<text text-anchor="middle" x="505.0615" y="-61.5" font-family="Helvetica,sans-Serif" font-size="10.00" fill="#000000">llvm/ADT/StringRef.h</text>
</g>
<!-- Node0&#45;&gt;Node2 -->
<g id="edge2" class="edge">
<title>Node0&#45;&gt;Node2</title>
<path fill="none" stroke="#191970" d="M456.1249,-165.4999C471.2445,-158.0828 490.272,-146.0072 500.0615,-129 507.9408,-115.3114 508.6724,-97.1988 507.7314,-83.653"/>
<polygon fill="#191970" stroke="#191970" points="511.1953,-83.1248 506.6678,-73.5461 504.2337,-83.8575 511.1953,-83.1248"/>
</g>
<!-- Node3 -->
<g id="node4" class="node">
<title>Node3</title>
<polygon fill="#ffffff" stroke="#bfbfbf" points="376.8867,-110.5 376.8867,-128.5 491.2363,-128.5 491.2363,-110.5 376.8867,-110.5"/>
<text text-anchor="middle" x="434.0615" y="-116.5" font-family="Helvetica,sans-Serif" font-size="10.00" fill="#000000">llvm/ADT/STLExtras.h</text>
</g>
<!-- Node0&#45;&gt;Node3 -->
<g id="edge3" class="edge">
<title>Node0&#45;&gt;Node3</title>
<path fill="none" stroke="#191970" d="M434.0615,-165.4179C434.0615,-158.2164 434.0615,-147.8962 434.0615,-138.8632"/>
<polygon fill="#191970" stroke="#191970" points="437.5616,-138.7794 434.0615,-128.7795 430.5616,-138.7795 437.5616,-138.7794"/>
</g>
<!-- Node4 -->
<g id="node5" class="node">
<title>Node4</title>
<g id="a_node5"><a xlink:href="type_8h.html" target="_top" xlink:title="type.h">
<polygon fill="#ffffff" stroke="#000000" points="315.4409,-110.5 315.4409,-128.5 358.6821,-128.5 358.6821,-110.5 315.4409,-110.5"/>
<text text-anchor="middle" x="337.0615" y="-116.5" font-family="Helvetica,sans-Serif" font-size="10.00" fill="#000000">type.h</text>
</a>
</g>
</g>
<!-- Node0&#45;&gt;Node4 -->
<g id="edge4" class="edge">
<title>Node0&#45;&gt;Node4</title>
<path fill="none" stroke="#191970" d="M418.0439,-165.4179C402.8796,-156.8195 379.8745,-143.7754 362.254,-133.7844"/>
<polygon fill="#191970" stroke="#191970" points="363.5282,-130.4834 353.1029,-128.5956 360.0755,-136.5727 363.5282,-130.4834"/>
</g>
<!-- Node10 -->
<g id="node11" class="node">
<title>Node10</title>
<g id="a_node11"><a xlink:href="utility_8h.html" target="_top" xlink:title="../driver/utility.h">
<polygon fill="#ffffff" stroke="#000000" points="563.8096,-110.5 563.8096,-128.5 646.3135,-128.5 646.3135,-110.5 563.8096,-110.5"/>
<text text-anchor="middle" x="605.0615" y="-116.5" font-family="Helvetica,sans-Serif" font-size="10.00" fill="#000000">../driver/utility.h</text>
</a>
</g>
</g>
<!-- Node0&#45;&gt;Node10 -->
<g id="edge11" class="edge">
<title>Node0&#45;&gt;Node10</title>
<path fill="none" stroke="#191970" d="M462.2987,-165.4179C490.9737,-156.1949 535.5525,-141.8567 567.2605,-131.6582"/>
<polygon fill="#191970" stroke="#191970" points="568.6186,-134.8981 577.0666,-128.5042 566.4752,-128.2343 568.6186,-134.8981"/>
</g>
<!-- Node4&#45;&gt;Node2 -->
<g id="edge9" class="edge">
<title>Node4&#45;&gt;Node2</title>
<path fill="none" stroke="#191970" d="M359.0246,-112.3097C386.5911,-103.285 434.2975,-87.6668 467.6589,-76.7449"/>
<polygon fill="#191970" stroke="#191970" points="469.099,-79.9563 477.5137,-73.5186 466.9211,-73.3037 469.099,-79.9563"/>
</g>
<!-- Node5 -->
<g id="node6" class="node">
<title>Node5</title>
<polygon fill="#ffffff" stroke="#bfbfbf" points="330.4458,-55.5 330.4458,-73.5 373.6772,-73.5 373.6772,-55.5 330.4458,-55.5"/>
<text text-anchor="middle" x="352.0615" y="-61.5" font-family="Helvetica,sans-Serif" font-size="10.00" fill="#000000">vector</text>
</g>
<!-- Node4&#45;&gt;Node5 -->
<g id="edge5" class="edge">
<title>Node4&#45;&gt;Node5</title>
<path fill="none" stroke="#191970" d="M339.5385,-110.4179C341.5241,-103.1372 344.3791,-92.669 346.8617,-83.5659"/>
<polygon fill="#191970" stroke="#191970" points="350.2762,-84.348 349.5308,-73.7795 343.5228,-82.5062 350.2762,-84.348"/>
</g>
<!-- Node6 -->
<g id="node7" class="node">
<title>Node6</title>
<polygon fill="#ffffff" stroke="#bfbfbf" points="391.835,-55.5 391.835,-73.5 432.2881,-73.5 432.2881,-55.5 391.835,-55.5"/>
<text text-anchor="middle" x="412.0615" y="-61.5" font-family="Helvetica,sans-Serif" font-size="10.00" fill="#000000">string</text>
</g>
<!-- Node4&#45;&gt;Node6 -->
<g id="edge6" class="edge">
<title>Node4&#45;&gt;Node6</title>
<path fill="none" stroke="#191970" d="M349.4462,-110.4179C360.8456,-102.0584 377.9752,-89.4966 391.438,-79.6239"/>
<polygon fill="#191970" stroke="#191970" points="393.6641,-82.3317 399.6584,-73.5956 389.5245,-76.6869 393.6641,-82.3317"/>
</g>
<!-- Node7 -->
<g id="node8" class="node">
<title>Node7</title>
<polygon fill="#ffffff" stroke="#bfbfbf" points="0,-55.5 0,-73.5 52.123,-73.5 52.123,-55.5 0,-55.5"/>
<text text-anchor="middle" x="26.0615" y="-61.5" font-family="Helvetica,sans-Serif" font-size="10.00" fill="#000000">ostream</text>
</g>
<!-- Node4&#45;&gt;Node7 -->
<g id="edge7" class="edge">
<title>Node4&#45;&gt;Node7</title>
<path fill="none" stroke="#191970" d="M315.2191,-112.1346C312.4903,-111.3475 309.7237,-110.6121 307.0615,-110 202.5283,-85.9656 171.0738,-95.8832 62.4074,-74.063"/>
<polygon fill="#191970" stroke="#191970" points="62.8529,-70.5815 52.3533,-71.9988 61.445,-77.4385 62.8529,-70.5815"/>
</g>
<!-- Node8 -->
<g id="node9" class="node">
<title>Node8</title>
<polygon fill="#ffffff" stroke="#bfbfbf" points="70.5,-55.5 70.5,-73.5 177.623,-73.5 177.623,-55.5 70.5,-55.5"/>
<text text-anchor="middle" x="124.0615" y="-61.5" font-family="Helvetica,sans-Serif" font-size="10.00" fill="#000000">llvm/ADT/ArrayRef.h</text>
</g>
<!-- Node4&#45;&gt;Node8 -->
<g id="edge8" class="edge">
<title>Node4&#45;&gt;Node8</title>
<path fill="none" stroke="#191970" d="M315.1544,-112.3875C312.4367,-111.557 309.6904,-110.7422 307.0615,-110 262.1354,-97.3152 210.4807,-84.6448 173.5317,-75.9082"/>
<polygon fill="#191970" stroke="#191970" points="174.0538,-72.4356 163.5179,-73.5517 172.4502,-79.2494 174.0538,-72.4356"/>
</g>
<!-- Node9 -->
<g id="node10" class="node">
<title>Node9</title>
<polygon fill="#ffffff" stroke="#bfbfbf" points="195.7612,-55.5 195.7612,-73.5 312.3618,-73.5 312.3618,-55.5 195.7612,-55.5"/>
<text text-anchor="middle" x="254.0615" y="-61.5" font-family="Helvetica,sans-Serif" font-size="10.00" fill="#000000">llvm/Support/Casting.h</text>
</g>
<!-- Node4&#45;&gt;Node9 -->
<g id="edge10" class="edge">
<title>Node4&#45;&gt;Node9</title>
<path fill="none" stroke="#191970" d="M323.3558,-110.4179C310.6204,-101.9788 291.422,-89.257 276.4603,-79.3426"/>
<polygon fill="#191970" stroke="#191970" points="278.0569,-76.2019 267.7876,-73.5956 274.1902,-82.037 278.0569,-76.2019"/>
</g>
<!-- Node10&#45;&gt;Node2 -->
<g id="edge14" class="edge">
<title>Node10&#45;&gt;Node2</title>
<path fill="none" stroke="#191970" d="M588.5486,-110.4179C572.7705,-101.7399 548.7587,-88.5334 530.53,-78.5077"/>
<polygon fill="#191970" stroke="#191970" points="532.0479,-75.3481 521.599,-73.5956 528.6745,-81.4816 532.0479,-75.3481"/>
</g>
<!-- Node11 -->
<g id="node12" class="node">
<title>Node11</title>
<polygon fill="#ffffff" stroke="#bfbfbf" points="577.8892,-55.5 577.8892,-73.5 632.2339,-73.5 632.2339,-55.5 577.8892,-55.5"/>
<text text-anchor="middle" x="605.0615" y="-61.5" font-family="Helvetica,sans-Serif" font-size="10.00" fill="#000000">iostream</text>
</g>
<!-- Node10&#45;&gt;Node11 -->
<g id="edge12" class="edge">
<title>Node10&#45;&gt;Node11</title>
<path fill="none" stroke="#191970" d="M605.0615,-110.4179C605.0615,-103.2164 605.0615,-92.8962 605.0615,-83.8632"/>
<polygon fill="#191970" stroke="#191970" points="608.5616,-83.7794 605.0615,-73.7795 601.5616,-83.7795 608.5616,-83.7794"/>
</g>
<!-- Node12 -->
<g id="node13" class="node">
<title>Node12</title>
<polygon fill="#ffffff" stroke="#bfbfbf" points="650.3916,-55.5 650.3916,-73.5 699.7314,-73.5 699.7314,-55.5 650.3916,-55.5"/>
<text text-anchor="middle" x="675.0615" y="-61.5" font-family="Helvetica,sans-Serif" font-size="10.00" fill="#000000">fstream</text>
</g>
<!-- Node10&#45;&gt;Node12 -->
<g id="edge13" class="edge">
<title>Node10&#45;&gt;Node12</title>
<path fill="none" stroke="#191970" d="M616.6206,-110.4179C627.0955,-102.1876 642.7547,-89.8839 655.2279,-80.0836"/>
<polygon fill="#191970" stroke="#191970" points="657.5505,-82.7098 663.2513,-73.7795 653.2257,-77.2056 657.5505,-82.7098"/>
</g>
<!-- Node13 -->
<g id="node14" class="node">
<title>Node13</title>
<g id="a_node14"><a xlink:href="srcloc_8h.html" target="_top" xlink:title="../ast/srcloc.h">
<polygon fill="#ffffff" stroke="#000000" points="717.6084,-55.5 717.6084,-73.5 792.5146,-73.5 792.5146,-55.5 717.6084,-55.5"/>
<text text-anchor="middle" x="755.0615" y="-61.5" font-family="Helvetica,sans-Serif" font-size="10.00" fill="#000000">../ast/srcloc.h</text>
</a>
</g>
</g>
<!-- Node10&#45;&gt;Node13 -->
<g id="edge15" class="edge">
<title>Node10&#45;&gt;Node13</title>
<path fill="none" stroke="#191970" d="M629.831,-110.4179C654.6579,-101.3147 693.0754,-87.2283 720.8134,-77.0576"/>
<polygon fill="#191970" stroke="#191970" points="722.3207,-80.2329 730.5046,-73.5042 719.9109,-73.6608 722.3207,-80.2329"/>
</g>
<!-- Node14 -->
<g id="node15" class="node">
<title>Node14</title>
<polygon fill="#ffffff" stroke="#bfbfbf" points="733.1748,-.5 733.1748,-18.5 776.9482,-18.5 776.9482,-.5 733.1748,-.5"/>
<text text-anchor="middle" x="755.0615" y="-6.5" font-family="Helvetica,sans-Serif" font-size="10.00" fill="#000000">climits</text>
</g>
<!-- Node13&#45;&gt;Node14 -->
<g id="edge16" class="edge">
<title>Node13&#45;&gt;Node14</title>
<path fill="none" stroke="#191970" d="M755.0615,-55.4179C755.0615,-48.2164 755.0615,-37.8962 755.0615,-28.8632"/>
<polygon fill="#191970" stroke="#191970" points="758.5616,-28.7794 755.0615,-18.7795 751.5616,-28.7795 758.5616,-28.7794"/>
</g>
</g>
</svg>
