<?xml version="1.0" encoding="UTF-8" standalone="no"?>
<!DOCTYPE svg PUBLIC "-//W3C//DTD SVG 1.1//EN"
 "http://www.w3.org/Graphics/SVG/1.1/DTD/svg11.dtd">
<!-- Generated by graphviz version 2.40.1 (20161225.0304)
 -->
<!-- Title: src/sema/typecheck.cpp Pages: 1 -->
<svg width="1835pt" height="312pt"
 viewBox="0.00 0.00 1835.09 312.00" xmlns="http://www.w3.org/2000/svg" xmlns:xlink="http://www.w3.org/1999/xlink">
<g id="graph0" class="graph" transform="scale(1 1) rotate(0) translate(4 308)">
<title>src/sema/typecheck.cpp</title>
<polygon fill="#ffffff" stroke="transparent" points="-4,4 -4,-308 1831.0949,-308 1831.0949,4 -4,4"/>
<!-- Node0 -->
<g id="node1" class="node">
<title>Node0</title>
<polygon fill="#bfbfbf" stroke="#000000" points="797.2184,-285.5 797.2184,-303.5 920.484,-303.5 920.484,-285.5 797.2184,-285.5"/>
<text text-anchor="middle" x="858.8512" y="-291.5" font-family="Helvetica,sans-Serif" font-size="10.00" fill="#000000">src/sema/typecheck.cpp</text>
</g>
<!-- Node1 -->
<g id="node2" class="node">
<title>Node1</title>
<polygon fill="#ffffff" stroke="#bfbfbf" points="425.6789,-165.5 425.6789,-183.5 480.0236,-183.5 480.0236,-165.5 425.6789,-165.5"/>
<text text-anchor="middle" x="452.8512" y="-171.5" font-family="Helvetica,sans-Serif" font-size="10.00" fill="#000000">iostream</text>
</g>
<!-- Node0&#45;&gt;Node1 -->
<g id="edge1" class="edge">
<title>Node0&#45;&gt;Node1</title>
<path fill="none" stroke="#191970" d="M797.2096,-292.4367C684.3808,-288.0213 453.9568,-275.7974 429.8512,-249 415.6439,-233.2062 427.4996,-208.7786 438.8024,-192.2384"/>
<polygon fill="#191970" stroke="#191970" points="441.775,-194.1028 444.8558,-183.9658 436.1259,-189.9691 441.775,-194.1028"/>
</g>
<!-- Node2 -->
<g id="node3" class="node">
<title>Node2</title>
<polygon fill="#ffffff" stroke="#bfbfbf" points="29.4645,-225.5 29.4645,-243.5 68.238,-243.5 68.238,-225.5 29.4645,-225.5"/>
<text text-anchor="middle" x="48.8512" y="-231.5" font-family="Helvetica,sans-Serif" font-size="10.00" fill="#000000">limits</text>
</g>
<!-- Node0&#45;&gt;Node2 -->
<g id="edge2" class="edge">
<title>Node0&#45;&gt;Node2</title>
<path fill="none" stroke="#191970" d="M797.1606,-294.1065C637.3907,-292.5775 213.175,-285.1324 77.8512,-249 76.3896,-248.6097 74.9153,-248.1416 73.4471,-247.6163"/>
<polygon fill="#191970" stroke="#191970" points="74.6113,-244.3063 64.0443,-243.5382 71.826,-250.7283 74.6113,-244.3063"/>
</g>
<!-- Node3 -->
<g id="node4" class="node">
<title>Node3</title>
<polygon fill="#ffffff" stroke="#bfbfbf" points="86.5485,-225.5 86.5485,-243.5 173.154,-243.5 173.154,-225.5 86.5485,-225.5"/>
<text text-anchor="middle" x="129.8512" y="-231.5" font-family="Helvetica,sans-Serif" font-size="10.00" fill="#000000">unordered_map</text>
</g>
<!-- Node0&#45;&gt;Node3 -->
<g id="edge3" class="edge">
<title>Node0&#45;&gt;Node3</title>
<path fill="none" stroke="#191970" d="M797.1118,-291.9714C653.2769,-285.8182 299.1962,-269.0854 181.8512,-249 177.3651,-248.2321 172.7098,-247.2338 168.1109,-246.1201"/>
<polygon fill="#191970" stroke="#191970" points="168.7803,-242.6777 158.2208,-243.5423 167.0147,-249.4514 168.7803,-242.6777"/>
</g>
<!-- Node4 -->
<g id="node5" class="node">
<title>Node4</title>
<polygon fill="#ffffff" stroke="#bfbfbf" points="190.6789,-225.5 190.6789,-243.5 235.0236,-243.5 235.0236,-225.5 190.6789,-225.5"/>
<text text-anchor="middle" x="212.8512" y="-231.5" font-family="Helvetica,sans-Serif" font-size="10.00" fill="#000000">cstdlib</text>
</g>
<!-- Node0&#45;&gt;Node4 -->
<g id="edge4" class="edge">
<title>Node0&#45;&gt;Node4</title>
<path fill="none" stroke="#191970" d="M797.0504,-292.7682C662.5549,-288.5384 347.1098,-275.9918 243.8512,-249 242.1914,-248.5661 240.5116,-248.0456 238.8374,-247.4636"/>
<polygon fill="#191970" stroke="#191970" points="240.0697,-244.1861 229.4894,-243.6317 237.4147,-250.6631 240.0697,-244.1861"/>
</g>
<!-- Node5 -->
<g id="node6" class="node">
<title>Node5</title>
<polygon fill="#ffffff" stroke="#bfbfbf" points="252.8786,-220.5 252.8786,-248.5 382.8239,-248.5 382.8239,-220.5 252.8786,-220.5"/>
<text text-anchor="start" x="260.8786" y="-236.5" font-family="Helvetica,sans-Serif" font-size="10.00" fill="#000000">boost/numeric/conversion</text>
<text text-anchor="middle" x="317.8512" y="-226.5" font-family="Helvetica,sans-Serif" font-size="10.00" fill="#000000">/cast.hpp</text>
</g>
<!-- Node0&#45;&gt;Node5 -->
<g id="edge5" class="edge">
<title>Node0&#45;&gt;Node5</title>
<path fill="none" stroke="#191970" d="M797.0051,-290.0568C708.193,-283.3026 539.5108,-269.0815 396.8512,-249 395.5697,-248.8196 394.2772,-248.6332 392.9762,-248.4415"/>
<polygon fill="#191970" stroke="#191970" points="393.2961,-244.9495 382.8785,-246.8791 392.2257,-251.8671 393.2961,-244.9495"/>
</g>
<!-- Node6 -->
<g id="node7" class="node">
<title>Node6</title>
<polygon fill="#ffffff" stroke="#bfbfbf" points="977.2897,-.5 977.2897,-18.5 1084.4128,-18.5 1084.4128,-.5 977.2897,-.5"/>
<text text-anchor="middle" x="1030.8512" y="-6.5" font-family="Helvetica,sans-Serif" font-size="10.00" fill="#000000">llvm/ADT/ArrayRef.h</text>
</g>
<!-- Node0&#45;&gt;Node6 -->
<g id="edge6" class="edge">
<title>Node0&#45;&gt;Node6</title>
<path fill="none" stroke="#191970" d="M920.7089,-290.004C982.0098,-284.2812 1070.2166,-272.2166 1094.8512,-249 1119.7189,-225.5638 1113.8512,-208.671 1113.8512,-174.5 1113.8512,-174.5 1113.8512,-174.5 1113.8512,-119.5 1113.8512,-78.839 1077.2668,-43.6831 1052.6755,-24.6449"/>
<polygon fill="#191970" stroke="#191970" points="1054.6682,-21.765 1044.557,-18.6004 1050.4878,-27.3797 1054.6682,-21.765"/>
</g>
<!-- Node7 -->
<g id="node8" class="node">
<title>Node7</title>
<polygon fill="#ffffff" stroke="#bfbfbf" points="438.3932,-225.5 438.3932,-243.5 543.3092,-243.5 543.3092,-225.5 438.3932,-225.5"/>
<text text-anchor="middle" x="490.8512" y="-231.5" font-family="Helvetica,sans-Serif" font-size="10.00" fill="#000000">llvm/ADT/Optional.h</text>
</g>
<!-- Node0&#45;&gt;Node7 -->
<g id="edge7" class="edge">
<title>Node0&#45;&gt;Node7</title>
<path fill="none" stroke="#191970" d="M797.0593,-286.8277C735.0745,-278.7759 636.9969,-265.0674 552.8512,-249 547.7564,-248.0271 542.4463,-246.9238 537.1711,-245.7705"/>
<polygon fill="#191970" stroke="#191970" points="537.6597,-242.293 527.1352,-243.5121 536.1229,-249.1222 537.6597,-242.293"/>
</g>
<!-- Node8 -->
<g id="node9" class="node">
<title>Node8</title>
<polygon fill="#ffffff" stroke="#bfbfbf" points="521.174,-.5 521.174,-18.5 630.5285,-18.5 630.5285,-.5 521.174,-.5"/>
<text text-anchor="middle" x="575.8512" y="-6.5" font-family="Helvetica,sans-Serif" font-size="10.00" fill="#000000">llvm/ADT/StringRef.h</text>
</g>
<!-- Node0&#45;&gt;Node8 -->
<g id="edge8" class="edge">
<title>Node0&#45;&gt;Node8</title>
<path fill="none" stroke="#191970" d="M797.0767,-293.1331C608.4215,-288.6992 50.7572,-273.5653 20.8512,-249 -5.5537,-227.3105 1.8512,-208.671 1.8512,-174.5 1.8512,-174.5 1.8512,-174.5 1.8512,-119.5 1.8512,-68.1397 360.9098,-29.2129 511.0614,-15.1799"/>
<polygon fill="#191970" stroke="#191970" points="511.4393,-18.66 521.0737,-14.2522 510.7934,-11.6898 511.4393,-18.66"/>
</g>
<!-- Node9 -->
<g id="node10" class="node">
<title>Node9</title>
<polygon fill="#ffffff" stroke="#bfbfbf" points="661.6764,-225.5 661.6764,-243.5 776.026,-243.5 776.026,-225.5 661.6764,-225.5"/>
<text text-anchor="middle" x="718.8512" y="-231.5" font-family="Helvetica,sans-Serif" font-size="10.00" fill="#000000">llvm/ADT/STLExtras.h</text>
</g>
<!-- Node0&#45;&gt;Node9 -->
<g id="edge9" class="edge">
<title>Node0&#45;&gt;Node9</title>
<path fill="none" stroke="#191970" d="M837.5883,-285.3873C814.0164,-275.2851 775.8069,-258.9096 749.1185,-247.4717"/>
<polygon fill="#191970" stroke="#191970" points="750.4258,-244.2241 739.8556,-243.5019 747.6683,-250.6581 750.4258,-244.2241"/>
</g>
<!-- Node10 -->
<g id="node11" class="node">
<title>Node10</title>
<polygon fill="#ffffff" stroke="#bfbfbf" points="793.8859,-225.5 793.8859,-243.5 923.8166,-243.5 923.8166,-225.5 793.8859,-225.5"/>
<text text-anchor="middle" x="858.8512" y="-231.5" font-family="Helvetica,sans-Serif" font-size="10.00" fill="#000000">llvm/ADT/iterator_range.h</text>
</g>
<!-- Node0&#45;&gt;Node10 -->
<g id="edge10" class="edge">
<title>Node0&#45;&gt;Node10</title>
<path fill="none" stroke="#191970" d="M858.8512,-285.3873C858.8512,-277.0174 858.8512,-264.3414 858.8512,-253.735"/>
<polygon fill="#191970" stroke="#191970" points="862.3513,-253.6984 858.8512,-243.6985 855.3513,-253.6985 862.3513,-253.6984"/>
</g>
<!-- Node11 -->
<g id="node12" class="node">
<title>Node11</title>
<polygon fill="#ffffff" stroke="#bfbfbf" points="941.6569,-225.5 941.6569,-243.5 1086.0456,-243.5 1086.0456,-225.5 941.6569,-225.5"/>
<text text-anchor="middle" x="1013.8512" y="-231.5" font-family="Helvetica,sans-Serif" font-size="10.00" fill="#000000">llvm/Support/ErrorHandling.h</text>
</g>
<!-- Node0&#45;&gt;Node11 -->
<g id="edge11" class="edge">
<title>Node0&#45;&gt;Node11</title>
<path fill="none" stroke="#191970" d="M882.3924,-285.3873C908.7188,-275.1964 951.5365,-258.6218 981.1157,-247.1718"/>
<polygon fill="#191970" stroke="#191970" points="982.5342,-250.3759 990.5964,-243.5019 980.0072,-243.8479 982.5342,-250.3759"/>
</g>
<!-- Node12 -->
<g id="node13" class="node">
<title>Node12</title>
<g id="a_node13"><a xlink:href="typecheck_8h.html" target="_top" xlink:title="typecheck.h">
<polygon fill="#ffffff" stroke="#000000" points="1611.1691,-110.5 1611.1691,-128.5 1680.5334,-128.5 1680.5334,-110.5 1611.1691,-110.5"/>
<text text-anchor="middle" x="1645.8512" y="-116.5" font-family="Helvetica,sans-Serif" font-size="10.00" fill="#000000">typecheck.h</text>
</a>
</g>
</g>
<!-- Node0&#45;&gt;Node12 -->
<g id="edge12" class="edge">
<title>Node0&#45;&gt;Node12</title>
<path fill="none" stroke="#191970" d="M920.5933,-292.4943C1093.0016,-286.6553 1568.7805,-268.8204 1595.8512,-249 1631.386,-222.9824 1641.6669,-168.1211 1644.641,-138.853"/>
<polygon fill="#191970" stroke="#191970" points="1648.1463,-138.932 1645.4811,-128.6778 1641.17,-138.3559 1648.1463,-138.932"/>
</g>
<!-- Node14 -->
<g id="node15" class="node">
<title>Node14</title>
<g id="a_node15"><a xlink:href="c-import_8h.html" target="_top" xlink:title="c&#45;import.h">
<polygon fill="#ffffff" stroke="#000000" points="1141.6247,-225.5 1141.6247,-243.5 1202.0778,-243.5 1202.0778,-225.5 1141.6247,-225.5"/>
<text text-anchor="middle" x="1171.8512" y="-231.5" font-family="Helvetica,sans-Serif" font-size="10.00" fill="#000000">c&#45;import.h</text>
</a>
</g>
</g>
<!-- Node0&#45;&gt;Node14 -->
<g id="edge14" class="edge">
<title>Node0&#45;&gt;Node14</title>
<path fill="none" stroke="#191970" d="M920.5573,-286.7597C975.4338,-279.2386 1057.6263,-266.4048 1127.8512,-249 1130.8007,-248.269 1133.838,-247.4379 1136.8729,-246.5523"/>
<polygon fill="#191970" stroke="#191970" points="1137.9274,-249.8898 1146.4481,-243.5931 1135.8604,-243.2019 1137.9274,-249.8898"/>
</g>
<!-- Node15 -->
<g id="node16" class="node">
<title>Node15</title>
<g id="a_node16"><a xlink:href="type_8h.html" target="_top" xlink:title="../ast/type.h">
<polygon fill="#ffffff" stroke="#000000" points="1142.0041,-55.5 1142.0041,-73.5 1209.6984,-73.5 1209.6984,-55.5 1142.0041,-55.5"/>
<text text-anchor="middle" x="1175.8512" y="-61.5" font-family="Helvetica,sans-Serif" font-size="10.00" fill="#000000">../ast/type.h</text>
</a>
</g>
</g>
<!-- Node0&#45;&gt;Node15 -->
<g id="edge15" class="edge">
<title>Node0&#45;&gt;Node15</title>
<path fill="none" stroke="#191970" d="M920.7178,-290.8811C1016.5886,-284.6344 1192.0353,-270.4046 1210.8512,-249 1226.4003,-231.3117 1202.0245,-199.023 1186.8512,-129 1183.5765,-113.8875 1180.6742,-96.6097 1178.6741,-83.7423"/>
<polygon fill="#191970" stroke="#191970" points="1182.1169,-83.1001 1177.1621,-73.7353 1175.1955,-84.146 1182.1169,-83.1001"/>
</g>
<!-- Node19 -->
<g id="node20" class="node">
<title>Node19</title>
<g id="a_node20"><a xlink:href="expr_8h.html" target="_top" xlink:title="../ast/expr.h">
<polygon fill="#ffffff" stroke="#000000" points="1391.0016,-110.5 1391.0016,-128.5 1458.7008,-128.5 1458.7008,-110.5 1391.0016,-110.5"/>
<text text-anchor="middle" x="1424.8512" y="-116.5" font-family="Helvetica,sans-Serif" font-size="10.00" fill="#000000">../ast/expr.h</text>
</a>
</g>
</g>
<!-- Node0&#45;&gt;Node19 -->
<g id="edge22" class="edge">
<title>Node0&#45;&gt;Node19</title>
<path fill="none" stroke="#191970" d="M920.608,-291.7467C1063.6618,-285.072 1406.8992,-267.2303 1423.8512,-249 1451.6946,-219.0571 1440.4834,-166.304 1431.6543,-138.2596"/>
<polygon fill="#191970" stroke="#191970" points="1434.8769,-136.8631 1428.3611,-128.5088 1428.2449,-139.103 1434.8769,-136.8631"/>
</g>
<!-- Node24 -->
<g id="node25" class="node">
<title>Node24</title>
<g id="a_node25"><a xlink:href="decl_8h.html" target="_top" xlink:title="../ast/decl.h">
<polygon fill="#ffffff" stroke="#000000" points="1347.2824,-225.5 1347.2824,-243.5 1414.4201,-243.5 1414.4201,-225.5 1347.2824,-225.5"/>
<text text-anchor="middle" x="1380.8512" y="-231.5" font-family="Helvetica,sans-Serif" font-size="10.00" fill="#000000">../ast/decl.h</text>
</a>
</g>
</g>
<!-- Node0&#45;&gt;Node24 -->
<g id="edge30" class="edge">
<title>Node0&#45;&gt;Node24</title>
<path fill="none" stroke="#191970" d="M920.5236,-287.4112C1027.2904,-275.1392 1244.0276,-250.2269 1336.9458,-239.5466"/>
<polygon fill="#191970" stroke="#191970" points="1337.5889,-242.9958 1347.1237,-238.3767 1336.7895,-236.0416 1337.5889,-242.9958"/>
</g>
<!-- Node27 -->
<g id="node28" class="node">
<title>Node27</title>
<polygon fill="#ffffff" stroke="#bfbfbf" points="1484.4919,-225.5 1484.4919,-243.5 1587.2106,-243.5 1587.2106,-225.5 1484.4919,-225.5"/>
<text text-anchor="middle" x="1535.8512" y="-231.5" font-family="Helvetica,sans-Serif" font-size="10.00" fill="#000000">../parser/parser.hpp</text>
</g>
<!-- Node0&#45;&gt;Node27 -->
<g id="edge42" class="edge">
<title>Node0&#45;&gt;Node27</title>
<path fill="none" stroke="#191970" d="M920.8547,-292.8646C1031.7436,-289.2795 1271.1248,-278.5418 1470.8512,-249 1477.0061,-248.0896 1483.4455,-246.9213 1489.7779,-245.6436"/>
<polygon fill="#191970" stroke="#191970" points="1490.5262,-249.0629 1499.5843,-243.5673 1489.0762,-242.2147 1490.5262,-249.0629"/>
</g>
<!-- Node28 -->
<g id="node29" class="node">
<title>Node28</title>
<g id="a_node29"><a xlink:href="utility_8h.html" target="_top" xlink:title="../driver/utility.h">
<polygon fill="#ffffff" stroke="#000000" points="561.5993,-225.5 561.5993,-243.5 644.1032,-243.5 644.1032,-225.5 561.5993,-225.5"/>
<text text-anchor="middle" x="602.8512" y="-231.5" font-family="Helvetica,sans-Serif" font-size="10.00" fill="#000000">../driver/utility.h</text>
</a>
</g>
</g>
<!-- Node0&#45;&gt;Node28 -->
<g id="edge43" class="edge">
<title>Node0&#45;&gt;Node28</title>
<path fill="none" stroke="#191970" d="M814.0489,-285.4789C772.1863,-276.8432 708.0365,-263.0806 652.8512,-249 649.5097,-248.1474 646.0534,-247.2268 642.5909,-246.2775"/>
<polygon fill="#191970" stroke="#191970" points="643.4803,-242.8919 632.9064,-243.5584 641.588,-249.6313 643.4803,-242.8919"/>
</g>
<!-- Node30 -->
<g id="node31" class="node">
<title>Node30</title>
<g id="a_node31"><a xlink:href="mangle_8h.html" target="_top" xlink:title="../irgen/mangle.h">
<polygon fill="#ffffff" stroke="#000000" points="1736.6076,-110.5 1736.6076,-128.5 1827.0949,-128.5 1827.0949,-110.5 1736.6076,-110.5"/>
<text text-anchor="middle" x="1781.8512" y="-116.5" font-family="Helvetica,sans-Serif" font-size="10.00" fill="#000000">../irgen/mangle.h</text>
</a>
</g>
</g>
<!-- Node0&#45;&gt;Node30 -->
<g id="edge48" class="edge">
<title>Node0&#45;&gt;Node30</title>
<path fill="none" stroke="#191970" d="M920.6353,-292.9815C1090.6788,-288.4984 1557.2846,-274.0428 1621.8512,-249 1684.9261,-224.5358 1742.2111,-165.4355 1767.7761,-136.3046"/>
<polygon fill="#191970" stroke="#191970" points="1770.5232,-138.4782 1774.3947,-128.616 1765.2181,-133.9113 1770.5232,-138.4782"/>
</g>
<!-- Node13 -->
<g id="node14" class="node">
<title>Node13</title>
<polygon fill="#ffffff" stroke="#bfbfbf" points="1369.2355,-.5 1369.2355,-18.5 1412.467,-18.5 1412.467,-.5 1369.2355,-.5"/>
<text text-anchor="middle" x="1390.8512" y="-6.5" font-family="Helvetica,sans-Serif" font-size="10.00" fill="#000000">vector</text>
</g>
<!-- Node12&#45;&gt;Node13 -->
<g id="edge13" class="edge">
<title>Node12&#45;&gt;Node13</title>
<path fill="none" stroke="#191970" d="M1646.9295,-110.1084C1647.976,-96.0437 1647.6475,-69.6046 1632.8512,-55 1603.5642,-26.0924 1481.4663,-14.9312 1422.7119,-11.1733"/>
<polygon fill="#191970" stroke="#191970" points="1422.7085,-7.6668 1412.515,-10.5552 1422.2849,-14.6539 1422.7085,-7.6668"/>
</g>
<!-- Node15&#45;&gt;Node6 -->
<g id="edge19" class="edge">
<title>Node15&#45;&gt;Node6</title>
<path fill="none" stroke="#191970" d="M1151.9074,-55.4179C1127.9798,-46.3419 1090.9928,-32.3123 1064.1981,-22.1488"/>
<polygon fill="#191970" stroke="#191970" points="1065.4219,-18.8697 1054.8306,-18.5956 1062.9393,-25.4147 1065.4219,-18.8697"/>
</g>
<!-- Node15&#45;&gt;Node8 -->
<g id="edge20" class="edge">
<title>Node15&#45;&gt;Node8</title>
<path fill="none" stroke="#191970" d="M1141.8735,-61.3854C1045.2063,-52.5242 767.4691,-27.065 640.5388,-15.4297"/>
<polygon fill="#191970" stroke="#191970" points="640.8427,-11.943 630.5649,-14.5154 640.2037,-18.9137 640.8427,-11.943"/>
</g>
<!-- Node15&#45;&gt;Node13 -->
<g id="edge16" class="edge">
<title>Node15&#45;&gt;Node13</title>
<path fill="none" stroke="#191970" d="M1209.9095,-56.6697C1244.9996,-48.4717 1301.4828,-34.9151 1359.5128,-18.9792"/>
<polygon fill="#191970" stroke="#191970" points="1360.51,-22.3349 1369.2154,-16.2962 1358.6443,-15.5881 1360.51,-22.3349"/>
</g>
<!-- Node16 -->
<g id="node17" class="node">
<title>Node16</title>
<polygon fill="#ffffff" stroke="#bfbfbf" points="1586.6247,-.5 1586.6247,-18.5 1627.0778,-18.5 1627.0778,-.5 1586.6247,-.5"/>
<text text-anchor="middle" x="1606.8512" y="-6.5" font-family="Helvetica,sans-Serif" font-size="10.00" fill="#000000">string</text>
</g>
<!-- Node15&#45;&gt;Node16 -->
<g id="edge17" class="edge">
<title>Node15&#45;&gt;Node16</title>
<path fill="none" stroke="#191970" d="M1210.058,-56.6169C1213.0248,-56.0322 1215.9865,-55.4832 1218.8512,-55 1351.2556,-32.6689 1510.9226,-17.665 1576.4971,-12.011"/>
<polygon fill="#191970" stroke="#191970" points="1576.8863,-15.4906 1586.5529,-11.154 1576.2918,-8.5159 1576.8863,-15.4906"/>
</g>
<!-- Node17 -->
<g id="node18" class="node">
<title>Node17</title>
<polygon fill="#ffffff" stroke="#bfbfbf" points="1102.7897,-.5 1102.7897,-18.5 1154.9128,-18.5 1154.9128,-.5 1102.7897,-.5"/>
<text text-anchor="middle" x="1128.8512" y="-6.5" font-family="Helvetica,sans-Serif" font-size="10.00" fill="#000000">ostream</text>
</g>
<!-- Node15&#45;&gt;Node17 -->
<g id="edge18" class="edge">
<title>Node15&#45;&gt;Node17</title>
<path fill="none" stroke="#191970" d="M1168.0901,-55.4179C1161.3951,-47.5833 1151.5459,-36.0575 1143.3902,-26.5137"/>
<polygon fill="#191970" stroke="#191970" points="1145.9383,-24.108 1136.781,-18.7795 1140.6167,-28.6556 1145.9383,-24.108"/>
</g>
<!-- Node18 -->
<g id="node19" class="node">
<title>Node18</title>
<polygon fill="#ffffff" stroke="#bfbfbf" points="1172.5509,-.5 1172.5509,-18.5 1289.1515,-18.5 1289.1515,-.5 1172.5509,-.5"/>
<text text-anchor="middle" x="1230.8512" y="-6.5" font-family="Helvetica,sans-Serif" font-size="10.00" fill="#000000">llvm/Support/Casting.h</text>
</g>
<!-- Node15&#45;&gt;Node18 -->
<g id="edge21" class="edge">
<title>Node15&#45;&gt;Node18</title>
<path fill="none" stroke="#191970" d="M1184.9334,-55.4179C1192.9263,-47.425 1204.7609,-35.5903 1214.4135,-25.9377"/>
<polygon fill="#191970" stroke="#191970" points="1216.9756,-28.3254 1221.5718,-18.7795 1212.0258,-23.3757 1216.9756,-28.3254"/>
</g>
<!-- Node19&#45;&gt;Node13 -->
<g id="edge25" class="edge">
<title>Node19&#45;&gt;Node13</title>
<path fill="none" stroke="#191970" d="M1403.7074,-110.3709C1389.3021,-102.8913 1371.3577,-90.794 1362.8512,-74 1354.8874,-58.2773 1364.8118,-39.774 1374.9807,-26.6272"/>
<polygon fill="#191970" stroke="#191970" points="1377.7649,-28.7542 1381.5129,-18.8445 1372.4031,-24.254 1377.7649,-28.7542"/>
</g>
<!-- Node19&#45;&gt;Node15 -->
<g id="edge26" class="edge">
<title>Node19&#45;&gt;Node15</title>
<path fill="none" stroke="#191970" d="M1390.7509,-111.9678C1346.3586,-102.1623 1268.6975,-85.0082 1219.8924,-74.228"/>
<polygon fill="#191970" stroke="#191970" points="1220.4579,-70.7686 1209.9383,-72.0293 1218.948,-77.6038 1220.4579,-70.7686"/>
</g>
<!-- Node19&#45;&gt;Node16 -->
<g id="edge23" class="edge">
<title>Node19&#45;&gt;Node16</title>
<path fill="none" stroke="#191970" d="M1439.7451,-110.4982C1471.2071,-91.4827 1544.6722,-47.0807 1582.8521,-24.005"/>
<polygon fill="#191970" stroke="#191970" points="1585.0037,-26.7942 1591.7516,-18.6261 1581.3829,-20.8034 1585.0037,-26.7942"/>
</g>
<!-- Node20 -->
<g id="node21" class="node">
<title>Node20</title>
<polygon fill="#ffffff" stroke="#bfbfbf" points="1571.7946,-55.5 1571.7946,-73.5 1623.9079,-73.5 1623.9079,-55.5 1571.7946,-55.5"/>
<text text-anchor="middle" x="1597.8512" y="-61.5" font-family="Helvetica,sans-Serif" font-size="10.00" fill="#000000">memory</text>
</g>
<!-- Node19&#45;&gt;Node20 -->
<g id="edge24" class="edge">
<title>Node19&#45;&gt;Node20</title>
<path fill="none" stroke="#191970" d="M1453.4187,-110.4179C1483.1219,-100.9746 1529.6925,-86.169 1561.8836,-75.9348"/>
<polygon fill="#191970" stroke="#191970" points="1563.3209,-79.1505 1571.7904,-72.7852 1561.2,-72.4796 1563.3209,-79.1505"/>
</g>
<!-- Node21 -->
<g id="node22" class="node">
<title>Node21</title>
<g id="a_node22"><a xlink:href="srcloc_8h.html" target="_top" xlink:title="srcloc.h">
<polygon fill="#ffffff" stroke="#000000" points="1227.6247,-55.5 1227.6247,-73.5 1278.0778,-73.5 1278.0778,-55.5 1227.6247,-55.5"/>
<text text-anchor="middle" x="1252.8512" y="-61.5" font-family="Helvetica,sans-Serif" font-size="10.00" fill="#000000">srcloc.h</text>
</a>
</g>
</g>
<!-- Node19&#45;&gt;Node21 -->
<g id="edge27" class="edge">
<title>Node19&#45;&gt;Node21</title>
<path fill="none" stroke="#191970" d="M1396.4489,-110.4179C1366.7452,-100.9196 1320.0755,-85.9961 1288.0525,-75.7562"/>
<polygon fill="#191970" stroke="#191970" points="1288.8011,-72.3211 1278.2102,-72.609 1286.6691,-78.9885 1288.8011,-72.3211"/>
</g>
<!-- Node23 -->
<g id="node24" class="node">
<title>Node23</title>
<g id="a_node24"><a xlink:href="operators_8h.html" target="_top" xlink:title="../parser/operators.h">
<polygon fill="#ffffff" stroke="#000000" points="1371.8293,-55.5 1371.8293,-73.5 1477.8732,-73.5 1477.8732,-55.5 1371.8293,-55.5"/>
<text text-anchor="middle" x="1424.8512" y="-61.5" font-family="Helvetica,sans-Serif" font-size="10.00" fill="#000000">../parser/operators.h</text>
</a>
</g>
</g>
<!-- Node19&#45;&gt;Node23 -->
<g id="edge29" class="edge">
<title>Node19&#45;&gt;Node23</title>
<path fill="none" stroke="#191970" d="M1424.8512,-110.4179C1424.8512,-103.2164 1424.8512,-92.8962 1424.8512,-83.8632"/>
<polygon fill="#191970" stroke="#191970" points="1428.3513,-83.7794 1424.8512,-73.7795 1421.3513,-83.7795 1428.3513,-83.7794"/>
</g>
<!-- Node22 -->
<g id="node23" class="node">
<title>Node22</title>
<polygon fill="#ffffff" stroke="#bfbfbf" points="1306.9645,-.5 1306.9645,-18.5 1350.738,-18.5 1350.738,-.5 1306.9645,-.5"/>
<text text-anchor="middle" x="1328.8512" y="-6.5" font-family="Helvetica,sans-Serif" font-size="10.00" fill="#000000">climits</text>
</g>
<!-- Node21&#45;&gt;Node22 -->
<g id="edge28" class="edge">
<title>Node21&#45;&gt;Node22</title>
<path fill="none" stroke="#191970" d="M1265.4011,-55.4179C1276.9524,-47.0584 1294.3104,-34.4966 1307.9527,-24.6239"/>
<polygon fill="#191970" stroke="#191970" points="1310.2335,-27.2938 1316.2827,-18.5956 1306.1296,-21.6229 1310.2335,-27.2938"/>
</g>
<!-- Node24&#45;&gt;Node13 -->
<g id="edge33" class="edge">
<title>Node24&#45;&gt;Node13</title>
<path fill="none" stroke="#191970" d="M1378.4095,-225.0788C1370.2297,-192.8421 1344.9091,-87.1712 1355.8512,-55 1359.4715,-44.3559 1366.6979,-34.2572 1373.649,-26.2901"/>
<polygon fill="#191970" stroke="#191970" points="1376.3557,-28.52 1380.6305,-18.8258 1371.2434,-23.7383 1376.3557,-28.52"/>
</g>
<!-- Node24&#45;&gt;Node15 -->
<g id="edge40" class="edge">
<title>Node24&#45;&gt;Node15</title>
<path fill="none" stroke="#191970" d="M1347.2015,-229.6918C1315.9834,-223.7098 1269.8074,-210.8052 1238.8512,-184 1207.3585,-156.7302 1189.2383,-109.7723 1181.0951,-83.5758"/>
<polygon fill="#191970" stroke="#191970" points="1184.3819,-82.3464 1178.206,-73.7377 1177.6655,-84.3188 1184.3819,-82.3464"/>
</g>
<!-- Node24&#45;&gt;Node16 -->
<g id="edge31" class="edge">
<title>Node24&#45;&gt;Node16</title>
<path fill="none" stroke="#191970" d="M1414.5206,-228.2931C1487.9794,-213.9701 1658.575,-176.1924 1689.8512,-129 1715.1064,-90.8928 1663.1683,-46.94 1630.5609,-24.4531"/>
<polygon fill="#191970" stroke="#191970" points="1632.2157,-21.3494 1621.9568,-18.7026 1628.326,-27.1692 1632.2157,-21.3494"/>
</g>
<!-- Node24&#45;&gt;Node19 -->
<g id="edge35" class="edge">
<title>Node24&#45;&gt;Node19</title>
<path fill="none" stroke="#191970" d="M1384.3038,-225.4761C1391.4654,-206.7585 1408.0665,-163.3692 1417.6586,-138.2989"/>
<polygon fill="#191970" stroke="#191970" points="1420.9878,-139.3918 1421.2925,-128.8014 1414.45,-136.8904 1420.9878,-139.3918"/>
</g>
<!-- Node24&#45;&gt;Node20 -->
<g id="edge32" class="edge">
<title>Node24&#45;&gt;Node20</title>
<path fill="none" stroke="#191970" d="M1414.5272,-231.2399C1449.0494,-226.3114 1502.5411,-214.0781 1537.8512,-184 1569.2417,-157.2608 1585.9572,-110.0972 1593.25,-83.725"/>
<polygon fill="#191970" stroke="#191970" points="1596.6974,-84.3736 1595.8139,-73.8157 1589.9205,-82.6202 1596.6974,-84.3736"/>
</g>
<!-- Node24&#45;&gt;Node21 -->
<g id="edge41" class="edge">
<title>Node24&#45;&gt;Node21</title>
<path fill="none" stroke="#191970" d="M1347.1519,-225.933C1312.783,-216.4336 1262.9679,-200.29 1251.8512,-184 1231.273,-153.8453 1239.456,-108.6868 1246.5844,-83.3966"/>
<polygon fill="#191970" stroke="#191970" points="1250.0067,-84.1737 1249.5832,-73.5874 1243.3125,-82.1272 1250.0067,-84.1737"/>
</g>
<!-- Node25 -->
<g id="node26" class="node">
<title>Node25</title>
<polygon fill="#ffffff" stroke="#bfbfbf" points="1260.4919,-165.5 1260.4919,-183.5 1353.2106,-183.5 1353.2106,-165.5 1260.4919,-165.5"/>
<text text-anchor="middle" x="1306.8512" y="-171.5" font-family="Helvetica,sans-Serif" font-size="10.00" fill="#000000">boost/variant.hpp</text>
</g>
<!-- Node24&#45;&gt;Node25 -->
<g id="edge34" class="edge">
<title>Node24&#45;&gt;Node25</title>
<path fill="none" stroke="#191970" d="M1369.6122,-225.3873C1358.0941,-216.0483 1339.9639,-201.3481 1326.1453,-190.1438"/>
<polygon fill="#191970" stroke="#191970" points="1328.1679,-187.2779 1318.196,-183.6985 1323.7593,-192.7152 1328.1679,-187.2779"/>
</g>
<!-- Node26 -->
<g id="node27" class="node">
<title>Node26</title>
<g id="a_node27"><a xlink:href="stmt_8h.html" target="_top" xlink:title="stmt.h">
<polygon fill="#ffffff" stroke="#000000" points="1485.238,-165.5 1485.238,-183.5 1528.4645,-183.5 1528.4645,-165.5 1485.238,-165.5"/>
<text text-anchor="middle" x="1506.8512" y="-171.5" font-family="Helvetica,sans-Serif" font-size="10.00" fill="#000000">stmt.h</text>
</a>
</g>
</g>
<!-- Node24&#45;&gt;Node26 -->
<g id="edge36" class="edge">
<title>Node24&#45;&gt;Node26</title>
<path fill="none" stroke="#191970" d="M1399.9879,-225.3873C1420.9235,-215.418 1454.6884,-199.3394 1478.6572,-187.9257"/>
<polygon fill="#191970" stroke="#191970" points="1480.4235,-190.9613 1487.9473,-183.5019 1477.4139,-184.6413 1480.4235,-190.9613"/>
</g>
<!-- Node26&#45;&gt;Node13 -->
<g id="edge37" class="edge">
<title>Node26&#45;&gt;Node13</title>
<path fill="none" stroke="#191970" d="M1507.976,-165.3173C1510.1094,-143.7059 1512.465,-88.903 1486.8512,-55 1471.2065,-34.2922 1443.7556,-22.6021 1422.2044,-16.2727"/>
<polygon fill="#191970" stroke="#191970" points="1423.0455,-12.8746 1412.4794,-13.6544 1421.2256,-19.6339 1423.0455,-12.8746"/>
</g>
<!-- Node26&#45;&gt;Node19 -->
<g id="edge39" class="edge">
<title>Node26&#45;&gt;Node19</title>
<path fill="none" stroke="#191970" d="M1493.3106,-165.4179C1480.7287,-156.9788 1461.7616,-144.257 1446.9802,-134.3426"/>
<polygon fill="#191970" stroke="#191970" points="1448.6665,-131.2593 1438.412,-128.5956 1444.7673,-137.0727 1448.6665,-131.2593"/>
</g>
<!-- Node26&#45;&gt;Node20 -->
<g id="edge38" class="edge">
<title>Node26&#45;&gt;Node20</title>
<path fill="none" stroke="#191970" d="M1514.2981,-165.4982C1529.4959,-147.1273 1564.2955,-105.0619 1583.851,-81.4233"/>
<polygon fill="#191970" stroke="#191970" points="1586.624,-83.5623 1590.3014,-73.6261 1581.2303,-79.1003 1586.624,-83.5623"/>
</g>
<!-- Node28&#45;&gt;Node1 -->
<g id="edge44" class="edge">
<title>Node28&#45;&gt;Node1</title>
<path fill="none" stroke="#191970" d="M580.0695,-225.3873C554.7031,-215.2407 513.5158,-198.7658 484.9049,-187.3215"/>
<polygon fill="#191970" stroke="#191970" points="485.9406,-183.9662 475.3559,-183.5019 483.3408,-190.4655 485.9406,-183.9662"/>
</g>
<!-- Node28&#45;&gt;Node8 -->
<g id="edge46" class="edge">
<title>Node28&#45;&gt;Node8</title>
<path fill="none" stroke="#191970" d="M601.241,-225.2122C599.5197,-215.0965 596.7786,-198.4296 594.8512,-184 587.3413,-127.7745 580.7073,-61.0568 577.6459,-28.8308"/>
<polygon fill="#191970" stroke="#191970" points="581.105,-28.2306 576.6847,-18.602 574.1358,-28.8856 581.105,-28.2306"/>
</g>
<!-- Node28&#45;&gt;Node21 -->
<g id="edge47" class="edge">
<title>Node28&#45;&gt;Node21</title>
<path fill="none" stroke="#191970" d="M633.4837,-225.4601C639.8739,-223.6182 646.5749,-221.7191 652.8512,-220 900.2308,-152.2403 966.2888,-141.6656 1217.8199,-74.241"/>
<polygon fill="#191970" stroke="#191970" points="1218.8649,-77.5845 1227.6157,-71.6117 1217.0502,-70.8238 1218.8649,-77.5845"/>
</g>
<!-- Node29 -->
<g id="node30" class="node">
<title>Node29</title>
<polygon fill="#ffffff" stroke="#bfbfbf" points="604.1813,-165.5 604.1813,-183.5 653.5212,-183.5 653.5212,-165.5 604.1813,-165.5"/>
<text text-anchor="middle" x="628.8512" y="-171.5" font-family="Helvetica,sans-Serif" font-size="10.00" fill="#000000">fstream</text>
</g>
<!-- Node28&#45;&gt;Node29 -->
<g id="edge45" class="edge">
<title>Node28&#45;&gt;Node29</title>
<path fill="none" stroke="#191970" d="M606.8001,-225.3873C610.5034,-216.8412 616.1521,-203.8057 620.8051,-193.0679"/>
<polygon fill="#191970" stroke="#191970" points="624.1005,-194.2657 624.8652,-183.6985 617.6777,-191.4824 624.1005,-194.2657"/>
</g>
<!-- Node30&#45;&gt;Node16 -->
<g id="edge49" class="edge">
<title>Node30&#45;&gt;Node16</title>
<path fill="none" stroke="#191970" d="M1775.6188,-110.3674C1765.834,-96.641 1745.6185,-70.6379 1722.8512,-55 1696.4828,-36.8886 1661.872,-24.5191 1637.3393,-17.3012"/>
<polygon fill="#191970" stroke="#191970" points="1638.0706,-13.8708 1627.4958,-14.5214 1636.1682,-20.6074 1638.0706,-13.8708"/>
</g>
</g>
</svg>
