<?xml version="1.0" encoding="UTF-8" standalone="no"?>
<!DOCTYPE svg PUBLIC "-//W3C//DTD SVG 1.1//EN"
 "http://www.w3.org/Graphics/SVG/1.1/DTD/svg11.dtd">
<!-- Generated by graphviz version 2.40.1 (20161225.0304)
 -->
<!-- Title: src/sema/typecheck.h Pages: 1 -->
<svg width="498pt" height="82pt"
 viewBox="0.00 0.00 497.87 82.00" xmlns="http://www.w3.org/2000/svg" xmlns:xlink="http://www.w3.org/1999/xlink">
<g id="graph0" class="graph" transform="scale(1 1) rotate(0) translate(4 78)">
<title>src/sema/typecheck.h</title>
<polygon fill="#ffffff" stroke="transparent" points="-4,4 -4,-78 493.8667,-78 493.8667,4 -4,4"/>
<!-- Node2 -->
<g id="node1" class="node">
<title>Node2</title>
<polygon fill="#bfbfbf" stroke="#000000" points="172.8818,-55.5 172.8818,-73.5 285.5859,-73.5 285.5859,-55.5 172.8818,-55.5"/>
<text text-anchor="middle" x="229.2339" y="-61.5" font-family="Helvetica,sans-Serif" font-size="10.00" fill="#000000">src/sema/typecheck.h</text>
</g>
<!-- Node3 -->
<g id="node2" class="node">
<title>Node3</title>
<g id="a_node2"><a xlink:href="main_8cpp.html" target="_top" xlink:title="src/driver/main.cpp">
<polygon fill="#ffffff" stroke="#000000" points="0,-.5 0,-18.5 100.4678,-18.5 100.4678,-.5 0,-.5"/>
<text text-anchor="middle" x="50.2339" y="-6.5" font-family="Helvetica,sans-Serif" font-size="10.00" fill="#000000">src/driver/main.cpp</text>
</a>
</g>
</g>
<!-- Node2&#45;&gt;Node3 -->
<g id="edge1" class="edge">
<title>Node2&#45;&gt;Node3</title>
<path fill="none" stroke="#191970" d="M189.8145,-52.3879C156.5203,-42.1578 109.5905,-27.7381 79.5385,-18.5042"/>
<polygon fill="#191970" stroke="#191970" points="189.0887,-55.8263 199.6757,-55.4179 191.1447,-49.1351 189.0887,-55.8263"/>
</g>
<!-- Node4 -->
<g id="node3" class="node">
<title>Node4</title>
<g id="a_node3"><a xlink:href="irgen_8cpp.html" target="_top" xlink:title="src/irgen/irgen.cpp">
<polygon fill="#ffffff" stroke="#000000" points="118.1035,-.5 118.1035,-18.5 216.3643,-18.5 216.3643,-.5 118.1035,-.5"/>
<text text-anchor="middle" x="167.2339" y="-6.5" font-family="Helvetica,sans-Serif" font-size="10.00" fill="#000000">src/irgen/irgen.cpp</text>
</a>
</g>
</g>
<!-- Node2&#45;&gt;Node4 -->
<g id="edge2" class="edge">
<title>Node2&#45;&gt;Node4</title>
<path fill="none" stroke="#191970" d="M211.2924,-48.5841C200.3957,-38.9177 186.865,-26.9147 177.6944,-18.7795"/>
<polygon fill="#191970" stroke="#191970" points="209.1924,-51.4 218.9958,-55.4179 213.8377,-46.1634 209.1924,-51.4"/>
</g>
<!-- Node5 -->
<g id="node4" class="node">
<title>Node5</title>
<g id="a_node4"><a xlink:href="c-import_8cpp.html" target="_top" xlink:title="src/sema/c&#45;import.cpp">
<polygon fill="#ffffff" stroke="#000000" points="234.0566,-.5 234.0566,-18.5 348.4111,-18.5 348.4111,-.5 234.0566,-.5"/>
<text text-anchor="middle" x="291.2339" y="-6.5" font-family="Helvetica,sans-Serif" font-size="10.00" fill="#000000">src/sema/c&#45;import.cpp</text>
</a>
</g>
</g>
<!-- Node2&#45;&gt;Node5 -->
<g id="edge3" class="edge">
<title>Node2&#45;&gt;Node5</title>
<path fill="none" stroke="#191970" d="M247.1754,-48.5841C258.0721,-38.9177 271.6028,-26.9147 280.7734,-18.7795"/>
<polygon fill="#191970" stroke="#191970" points="244.63,-46.1634 239.4719,-55.4179 249.2754,-51.4 244.63,-46.1634"/>
</g>
<!-- Node6 -->
<g id="node5" class="node">
<title>Node6</title>
<g id="a_node5"><a xlink:href="typecheck_8cpp.html" target="_top" xlink:title="src/sema/typecheck.cpp">
<polygon fill="#ffffff" stroke="#000000" points="366.6011,-.5 366.6011,-18.5 489.8667,-18.5 489.8667,-.5 366.6011,-.5"/>
<text text-anchor="middle" x="428.2339" y="-6.5" font-family="Helvetica,sans-Serif" font-size="10.00" fill="#000000">src/sema/typecheck.cpp</text>
</a>
</g>
</g>
<!-- Node2&#45;&gt;Node6 -->
<g id="edge4" class="edge">
<title>Node2&#45;&gt;Node6</title>
<path fill="none" stroke="#191970" d="M272.1038,-52.6515C309.1709,-42.4068 361.9573,-27.8177 395.655,-18.5042"/>
<polygon fill="#191970" stroke="#191970" points="270.8009,-49.3803 262.0947,-55.4179 272.6657,-56.1274 270.8009,-49.3803"/>
</g>
</g>
</svg>
