<?xml version="1.0" encoding="UTF-8" standalone="no"?>
<!DOCTYPE svg PUBLIC "-//W3C//DTD SVG 1.1//EN"
 "http://www.w3.org/Graphics/SVG/1.1/DTD/svg11.dtd">
<!-- Generated by graphviz version 2.40.1 (20161225.0304)
 -->
<!-- Title: src/ast/type.h Pages: 1 -->
<svg width="965pt" height="247pt"
 viewBox="0.00 0.00 964.81 247.00" xmlns="http://www.w3.org/2000/svg" xmlns:xlink="http://www.w3.org/1999/xlink">
<g id="graph0" class="graph" transform="scale(1 1) rotate(0) translate(4 243)">
<title>src/ast/type.h</title>
<polygon fill="#ffffff" stroke="transparent" points="-4,4 -4,-243 960.8101,-243 960.8101,4 -4,4"/>
<!-- Node7 -->
<g id="node1" class="node">
<title>Node7</title>
<polygon fill="#bfbfbf" stroke="#000000" points="436.8989,-220.5 436.8989,-238.5 512.3667,-238.5 512.3667,-220.5 436.8989,-220.5"/>
<text text-anchor="middle" x="474.6328" y="-226.5" font-family="Helvetica,sans-Serif" font-size="10.00" fill="#000000">src/ast/type.h</text>
</g>
<!-- Node8 -->
<g id="node2" class="node">
<title>Node8</title>
<g id="a_node2"><a xlink:href="expr_8h.html" target="_top" xlink:title="src/ast/expr.h">
<polygon fill="#ffffff" stroke="#000000" points="279.8965,-165.5 279.8965,-183.5 355.3691,-183.5 355.3691,-165.5 279.8965,-165.5"/>
<text text-anchor="middle" x="317.6328" y="-171.5" font-family="Helvetica,sans-Serif" font-size="10.00" fill="#000000">src/ast/expr.h</text>
</a>
</g>
</g>
<!-- Node7&#45;&gt;Node8 -->
<g id="edge1" class="edge">
<title>Node7&#45;&gt;Node8</title>
<path fill="none" stroke="#191970" d="M438.9195,-216.989C409.794,-206.7858 369.3533,-192.6186 343.3357,-183.5042"/>
<polygon fill="#191970" stroke="#191970" points="438.1126,-220.4148 448.7075,-220.4179 440.427,-213.8084 438.1126,-220.4148"/>
</g>
<!-- Node9 -->
<g id="node3" class="node">
<title>Node9</title>
<g id="a_node3"><a xlink:href="decl_8h.html" target="_top" xlink:title="src/ast/decl.h">
<polygon fill="#ffffff" stroke="#000000" points="373.1772,-55.5 373.1772,-73.5 448.0884,-73.5 448.0884,-55.5 373.1772,-55.5"/>
<text text-anchor="middle" x="410.6328" y="-61.5" font-family="Helvetica,sans-Serif" font-size="10.00" fill="#000000">src/ast/decl.h</text>
</a>
</g>
</g>
<!-- Node7&#45;&gt;Node9 -->
<g id="edge17" class="edge">
<title>Node7&#45;&gt;Node9</title>
<path fill="none" stroke="#191970" d="M475.1131,-210.0382C474.945,-185.4253 472.0194,-142.3574 455.6328,-110 448.1036,-95.1327 433.9482,-82.0668 423.5166,-73.7956"/>
<polygon fill="#191970" stroke="#191970" points="471.6117,-210.1987 475.028,-220.2277 478.6115,-210.2573 471.6117,-210.1987"/>
</g>
<!-- Node16 -->
<g id="node10" class="node">
<title>Node16</title>
<g id="a_node10"><a xlink:href="c-import_8cpp.html" target="_top" xlink:title="src/sema/c&#45;import.cpp">
<polygon fill="#ffffff" stroke="#000000" points="842.4556,-.5 842.4556,-18.5 956.8101,-18.5 956.8101,-.5 842.4556,-.5"/>
<text text-anchor="middle" x="899.6328" y="-6.5" font-family="Helvetica,sans-Serif" font-size="10.00" fill="#000000">src/sema/c&#45;import.cpp</text>
</a>
</g>
</g>
<!-- Node7&#45;&gt;Node16 -->
<g id="edge19" class="edge">
<title>Node7&#45;&gt;Node16</title>
<path fill="none" stroke="#191970" d="M486.9221,-212.0292C497.6478,-197.821 514.3288,-178.0561 532.6328,-165 642.3465,-86.742 797.526,-37.56 865.5013,-18.5055"/>
<polygon fill="#191970" stroke="#191970" points="483.8519,-210.2984 480.7766,-220.4372 489.5033,-214.4291 483.8519,-210.2984"/>
</g>
<!-- Node17 -->
<g id="node11" class="node">
<title>Node17</title>
<g id="a_node11"><a xlink:href="typecheck_8cpp.html" target="_top" xlink:title="src/sema/typecheck.cpp">
<polygon fill="#ffffff" stroke="#000000" points="0,-.5 0,-18.5 123.2656,-18.5 123.2656,-.5 0,-.5"/>
<text text-anchor="middle" x="61.6328" y="-6.5" font-family="Helvetica,sans-Serif" font-size="10.00" fill="#000000">src/sema/typecheck.cpp</text>
</a>
</g>
</g>
<!-- Node7&#45;&gt;Node17 -->
<g id="edge20" class="edge">
<title>Node7&#45;&gt;Node17</title>
<path fill="none" stroke="#191970" d="M426.755,-225.0036C384.0946,-219.5856 320.8322,-208.0148 270.6328,-184 179.381,-140.3462 94.6434,-47.737 69.295,-18.5246"/>
<polygon fill="#191970" stroke="#191970" points="426.5215,-228.5007 436.8684,-226.2218 427.3587,-221.5509 426.5215,-228.5007"/>
</g>
<!-- Node19 -->
<g id="node13" class="node">
<title>Node19</title>
<g id="a_node13"><a xlink:href="type_8cpp.html" target="_top" xlink:title="src/ast/type.cpp">
<polygon fill="#ffffff" stroke="#000000" points="541.6182,-165.5 541.6182,-183.5 627.6475,-183.5 627.6475,-165.5 541.6182,-165.5"/>
<text text-anchor="middle" x="584.6328" y="-171.5" font-family="Helvetica,sans-Serif" font-size="10.00" fill="#000000">src/ast/type.cpp</text>
</a>
</g>
</g>
<!-- Node7&#45;&gt;Node19 -->
<g id="edge18" class="edge">
<title>Node7&#45;&gt;Node19</title>
<path fill="none" stroke="#191970" d="M501.7931,-215.9198C521.9332,-205.8498 548.8373,-192.3977 566.4416,-183.5956"/>
<polygon fill="#191970" stroke="#191970" points="500.1761,-212.8152 492.7971,-220.4179 503.3066,-219.0762 500.1761,-212.8152"/>
</g>
<!-- Node8&#45;&gt;Node9 -->
<g id="edge2" class="edge">
<title>Node8&#45;&gt;Node9</title>
<path fill="none" stroke="#191970" d="M328.3522,-156.5473C336.702,-143.1575 348.969,-124.7174 361.6328,-110 373.4449,-96.2725 389.0565,-82.3795 399.4508,-73.6203"/>
<polygon fill="#191970" stroke="#191970" points="325.244,-154.9214 323.0149,-165.2791 331.2166,-158.5722 325.244,-154.9214"/>
</g>
<!-- Node12 -->
<g id="node6" class="node">
<title>Node12</title>
<g id="a_node6"><a xlink:href="expr_8cpp.html" target="_top" xlink:title="src/ast/expr.cpp">
<polygon fill="#ffffff" stroke="#000000" points="141.6157,-.5 141.6157,-18.5 227.6499,-18.5 227.6499,-.5 141.6157,-.5"/>
<text text-anchor="middle" x="184.6328" y="-6.5" font-family="Helvetica,sans-Serif" font-size="10.00" fill="#000000">src/ast/expr.cpp</text>
</a>
</g>
</g>
<!-- Node8&#45;&gt;Node12 -->
<g id="edge14" class="edge">
<title>Node8&#45;&gt;Node12</title>
<path fill="none" stroke="#191970" d="M303.7831,-157.318C275.842,-122.6542 213.5583,-45.385 192.0819,-18.7414"/>
<polygon fill="#191970" stroke="#191970" points="301.1004,-159.567 310.1011,-165.1561 306.5503,-155.174 301.1004,-159.567"/>
</g>
<!-- Node14 -->
<g id="node8" class="node">
<title>Node14</title>
<g id="a_node8"><a xlink:href="irgen_8cpp.html" target="_top" xlink:title="src/irgen/irgen.cpp">
<polygon fill="#ffffff" stroke="#000000" points="245.5024,-.5 245.5024,-18.5 343.7632,-18.5 343.7632,-.5 245.5024,-.5"/>
<text text-anchor="middle" x="294.6328" y="-6.5" font-family="Helvetica,sans-Serif" font-size="10.00" fill="#000000">src/irgen/irgen.cpp</text>
</a>
</g>
</g>
<!-- Node8&#45;&gt;Node14 -->
<g id="edge15" class="edge">
<title>Node8&#45;&gt;Node14</title>
<path fill="none" stroke="#191970" d="M314.9228,-155.0583C309.9526,-119.4028 299.5563,-44.8205 295.921,-18.7414"/>
<polygon fill="#191970" stroke="#191970" points="311.4832,-155.7351 316.3303,-165.1561 318.4161,-154.7686 311.4832,-155.7351"/>
</g>
<!-- Node8&#45;&gt;Node17 -->
<g id="edge16" class="edge">
<title>Node8&#45;&gt;Node17</title>
<path fill="none" stroke="#191970" d="M295.0326,-159.9334C243.3765,-126.6395 117.8828,-45.7549 75.7175,-18.578"/>
<polygon fill="#191970" stroke="#191970" points="293.2029,-162.9182 303.5045,-165.3939 296.9952,-157.0344 293.2029,-162.9182"/>
</g>
<!-- Node18 -->
<g id="node12" class="node">
<title>Node18</title>
<g id="a_node12"><a xlink:href="stmt_8h.html" target="_top" xlink:title="src/ast/stmt.h">
<polygon fill="#ffffff" stroke="#000000" points="370.9063,-110.5 370.9063,-128.5 446.3594,-128.5 446.3594,-110.5 370.9063,-110.5"/>
<text text-anchor="middle" x="408.6328" y="-116.5" font-family="Helvetica,sans-Serif" font-size="10.00" fill="#000000">src/ast/stmt.h</text>
</a>
</g>
</g>
<!-- Node8&#45;&gt;Node18 -->
<g id="edge11" class="edge">
<title>Node8&#45;&gt;Node18</title>
<path fill="none" stroke="#191970" d="M341.2411,-160.2313C357.7663,-150.2435 379.3497,-137.1986 393.5837,-128.5956"/>
<polygon fill="#191970" stroke="#191970" points="339.4075,-157.2498 332.6596,-165.4179 343.0283,-163.2406 339.4075,-157.2498"/>
</g>
<!-- Node10 -->
<g id="node4" class="node">
<title>Node10</title>
<g id="a_node4"><a xlink:href="ast__printer_8cpp.html" target="_top" xlink:title="src/ast/ast_printer.cpp">
<polygon fill="#ffffff" stroke="#000000" points="710.7192,-.5 710.7192,-18.5 824.5464,-18.5 824.5464,-.5 710.7192,-.5"/>
<text text-anchor="middle" x="767.6328" y="-6.5" font-family="Helvetica,sans-Serif" font-size="10.00" fill="#000000">src/ast/ast_printer.cpp</text>
</a>
</g>
</g>
<!-- Node9&#45;&gt;Node10 -->
<g id="edge3" class="edge">
<title>Node9&#45;&gt;Node10</title>
<path fill="none" stroke="#191970" d="M458.3342,-55.5587C459.4439,-55.3687 460.5447,-55.1822 461.6328,-55 508.3142,-47.1843 635.7615,-28.5635 710.6369,-17.7203"/>
<polygon fill="#191970" stroke="#191970" points="457.4477,-52.1608 448.2052,-57.3403 458.6604,-59.0549 457.4477,-52.1608"/>
</g>
<!-- Node11 -->
<g id="node5" class="node">
<title>Node11</title>
<g id="a_node5"><a xlink:href="decl_8cpp.html" target="_top" xlink:title="src/ast/decl.cpp">
<polygon fill="#ffffff" stroke="#000000" points="606.8965,-.5 606.8965,-18.5 692.3691,-18.5 692.3691,-.5 606.8965,-.5"/>
<text text-anchor="middle" x="649.6328" y="-6.5" font-family="Helvetica,sans-Serif" font-size="10.00" fill="#000000">src/ast/decl.cpp</text>
</a>
</g>
</g>
<!-- Node9&#45;&gt;Node11 -->
<g id="edge4" class="edge">
<title>Node9&#45;&gt;Node11</title>
<path fill="none" stroke="#191970" d="M458.2444,-53.5434C502.8032,-43.2892 568.585,-28.1512 610.2589,-18.5609"/>
<polygon fill="#191970" stroke="#191970" points="457.1998,-50.1922 448.2395,-55.8457 458.7697,-57.0139 457.1998,-50.1922"/>
</g>
<!-- Node9&#45;&gt;Node12 -->
<g id="edge5" class="edge">
<title>Node9&#45;&gt;Node12</title>
<path fill="none" stroke="#191970" d="M363.8178,-53.107C321.6746,-42.8509 260.5641,-27.9789 221.7193,-18.5255"/>
<polygon fill="#191970" stroke="#191970" points="363.0225,-56.5155 373.5666,-55.4795 364.6778,-49.714 363.0225,-56.5155"/>
</g>
<!-- Node13 -->
<g id="node7" class="node">
<title>Node13</title>
<g id="a_node7"><a xlink:href="main_8cpp.html" target="_top" xlink:title="src/driver/main.cpp">
<polygon fill="#ffffff" stroke="#000000" points="361.3989,-.5 361.3989,-18.5 461.8667,-18.5 461.8667,-.5 361.3989,-.5"/>
<text text-anchor="middle" x="411.6328" y="-6.5" font-family="Helvetica,sans-Serif" font-size="10.00" fill="#000000">src/driver/main.cpp</text>
</a>
</g>
</g>
<!-- Node9&#45;&gt;Node13 -->
<g id="edge6" class="edge">
<title>Node9&#45;&gt;Node13</title>
<path fill="none" stroke="#191970" d="M410.9804,-45.383C411.1442,-36.3738 411.3321,-26.0373 411.4641,-18.7795"/>
<polygon fill="#191970" stroke="#191970" points="407.4804,-45.3559 410.7979,-55.4179 414.4792,-45.4832 407.4804,-45.3559"/>
</g>
<!-- Node9&#45;&gt;Node14 -->
<g id="edge7" class="edge">
<title>Node9&#45;&gt;Node14</title>
<path fill="none" stroke="#191970" d="M382.2789,-51.0563C361.0093,-40.9716 332.4648,-27.4376 313.8163,-18.5956"/>
<polygon fill="#191970" stroke="#191970" points="380.9425,-54.2961 391.4778,-55.4179 383.9415,-47.9711 380.9425,-54.2961"/>
</g>
<!-- Node15 -->
<g id="node9" class="node">
<title>Node15</title>
<g id="a_node9"><a xlink:href="mangle_8cpp.html" target="_top" xlink:title="src/irgen/mangle.cpp">
<polygon fill="#ffffff" stroke="#000000" points="480.2217,-.5 480.2217,-18.5 589.0439,-18.5 589.0439,-.5 480.2217,-.5"/>
<text text-anchor="middle" x="534.6328" y="-6.5" font-family="Helvetica,sans-Serif" font-size="10.00" fill="#000000">src/irgen/mangle.cpp</text>
</a>
</g>
</g>
<!-- Node9&#45;&gt;Node15 -->
<g id="edge8" class="edge">
<title>Node9&#45;&gt;Node15</title>
<path fill="none" stroke="#191970" d="M440.3296,-51.328C463.1279,-41.2159 494.0121,-27.5172 514.1263,-18.5956"/>
<polygon fill="#191970" stroke="#191970" points="438.8309,-48.1639 431.1089,-55.4179 441.6692,-54.5627 438.8309,-48.1639"/>
</g>
<!-- Node9&#45;&gt;Node16 -->
<g id="edge9" class="edge">
<title>Node9&#45;&gt;Node16</title>
<path fill="none" stroke="#191970" d="M458.3372,-59.3913C567.0197,-47.7493 824.3925,-20.1616 833.6328,-19 836.5043,-18.639 839.4444,-18.2579 842.4123,-17.8641"/>
<polygon fill="#191970" stroke="#191970" points="457.8674,-55.9215 448.2971,-60.4667 458.613,-62.8817 457.8674,-55.9215"/>
</g>
<!-- Node9&#45;&gt;Node17 -->
<g id="edge10" class="edge">
<title>Node9&#45;&gt;Node17</title>
<path fill="none" stroke="#191970" d="M362.8062,-56.9629C299.2545,-46.9475 187.0963,-29.2722 119.045,-18.5478"/>
<polygon fill="#191970" stroke="#191970" points="362.5291,-60.4623 372.9521,-58.5618 363.6189,-53.5476 362.5291,-60.4623"/>
</g>
<!-- Node18&#45;&gt;Node9 -->
<g id="edge12" class="edge">
<title>Node18&#45;&gt;Node9</title>
<path fill="none" stroke="#191970" d="M409.328,-100.383C409.6556,-91.3738 410.0315,-81.0373 410.2954,-73.7795"/>
<polygon fill="#191970" stroke="#191970" points="405.8289,-100.2973 408.9631,-110.4179 412.8243,-100.5517 405.8289,-100.2973"/>
</g>
<!-- Node18&#45;&gt;Node10 -->
<g id="edge13" class="edge">
<title>Node18&#45;&gt;Node10</title>
<path fill="none" stroke="#191970" d="M425.9597,-103.5595C443.2799,-88.5616 471.3396,-66.7091 499.6328,-55 518.7653,-47.0821 637.6185,-28.6365 710.4742,-17.8189"/>
<polygon fill="#191970" stroke="#191970" points="423.5232,-101.0422 418.3658,-110.2971 428.1689,-106.2784 423.5232,-101.0422"/>
</g>
</g>
</svg>
