<?xml version="1.0" encoding="UTF-8" standalone="no"?>
<!DOCTYPE svg PUBLIC "-//W3C//DTD SVG 1.1//EN"
 "http://www.w3.org/Graphics/SVG/1.1/DTD/svg11.dtd">
<!-- Generated by graphviz version 2.40.1 (20161225.0304)
 -->
<!-- Title: src/driver/utility.h Pages: 1 -->
<svg width="694pt" height="82pt"
 viewBox="0.00 0.00 694.37 82.00" xmlns="http://www.w3.org/2000/svg" xmlns:xlink="http://www.w3.org/1999/xlink">
<g id="graph0" class="graph" transform="scale(1 1) rotate(0) translate(4 78)">
<title>src/driver/utility.h</title>
<polygon fill="#ffffff" stroke="transparent" points="-4,4 -4,-78 690.3691,-78 690.3691,4 -4,4"/>
<!-- Node6 -->
<g id="node1" class="node">
<title>Node6</title>
<polygon fill="#bfbfbf" stroke="#000000" points="270.5977,-55.5 270.5977,-73.5 360.875,-73.5 360.875,-55.5 270.5977,-55.5"/>
<text text-anchor="middle" x="315.7363" y="-61.5" font-family="Helvetica,sans-Serif" font-size="10.00" fill="#000000">src/driver/utility.h</text>
</g>
<!-- Node7 -->
<g id="node2" class="node">
<title>Node7</title>
<g id="a_node2"><a xlink:href="decl_8cpp.html" target="_top" xlink:title="src/ast/decl.cpp">
<polygon fill="#ffffff" stroke="#000000" points="0,-.5 0,-18.5 85.4727,-18.5 85.4727,-.5 0,-.5"/>
<text text-anchor="middle" x="42.7363" y="-6.5" font-family="Helvetica,sans-Serif" font-size="10.00" fill="#000000">src/ast/decl.cpp</text>
</a>
</g>
</g>
<!-- Node6&#45;&gt;Node7 -->
<g id="edge1" class="edge">
<title>Node6&#45;&gt;Node7</title>
<path fill="none" stroke="#191970" d="M260.9858,-53.4697C209.382,-43.0733 133.0985,-27.7048 85.7334,-18.1624"/>
<polygon fill="#191970" stroke="#191970" points="260.4673,-56.9355 270.9616,-55.4795 261.8499,-50.0733 260.4673,-56.9355"/>
</g>
<!-- Node8 -->
<g id="node3" class="node">
<title>Node8</title>
<g id="a_node3"><a xlink:href="type_8cpp.html" target="_top" xlink:title="src/ast/type.cpp">
<polygon fill="#ffffff" stroke="#000000" points="103.7217,-.5 103.7217,-18.5 189.751,-18.5 189.751,-.5 103.7217,-.5"/>
<text text-anchor="middle" x="146.7363" y="-6.5" font-family="Helvetica,sans-Serif" font-size="10.00" fill="#000000">src/ast/type.cpp</text>
</a>
</g>
</g>
<!-- Node6&#45;&gt;Node8 -->
<g id="edge2" class="edge">
<title>Node6&#45;&gt;Node8</title>
<path fill="none" stroke="#191970" d="M278.112,-52.2554C246.7033,-42.0336 202.6546,-27.6983 174.4038,-18.5042"/>
<polygon fill="#191970" stroke="#191970" points="277.2372,-55.6513 287.8294,-55.4179 279.4035,-48.9949 277.2372,-55.6513"/>
</g>
<!-- Node9 -->
<g id="node4" class="node">
<title>Node9</title>
<g id="a_node4"><a xlink:href="main_8cpp.html" target="_top" xlink:title="src/driver/main.cpp">
<polygon fill="#ffffff" stroke="#000000" points="207.5024,-.5 207.5024,-18.5 307.9702,-18.5 307.9702,-.5 207.5024,-.5"/>
<text text-anchor="middle" x="257.7363" y="-6.5" font-family="Helvetica,sans-Serif" font-size="10.00" fill="#000000">src/driver/main.cpp</text>
</a>
</g>
</g>
<!-- Node6&#45;&gt;Node9 -->
<g id="edge3" class="edge">
<title>Node6&#45;&gt;Node9</title>
<path fill="none" stroke="#191970" d="M298.6518,-48.2992C288.5109,-38.6828 276.0168,-26.8349 267.5219,-18.7795"/>
<polygon fill="#191970" stroke="#191970" points="296.4942,-51.0766 306.1588,-55.4179 301.3109,-45.9972 296.4942,-51.0766"/>
</g>
<!-- Node10 -->
<g id="node5" class="node">
<title>Node10</title>
<g id="a_node5"><a xlink:href="irgen_8cpp.html" target="_top" xlink:title="src/irgen/irgen.cpp">
<polygon fill="#ffffff" stroke="#000000" points="325.606,-.5 325.606,-18.5 423.8667,-18.5 423.8667,-.5 325.606,-.5"/>
<text text-anchor="middle" x="374.7363" y="-6.5" font-family="Helvetica,sans-Serif" font-size="10.00" fill="#000000">src/irgen/irgen.cpp</text>
</a>
</g>
</g>
<!-- Node6&#45;&gt;Node10 -->
<g id="edge4" class="edge">
<title>Node6&#45;&gt;Node10</title>
<path fill="none" stroke="#191970" d="M332.8097,-48.5841C343.1791,-38.9177 356.0551,-26.9147 364.782,-18.7795"/>
<polygon fill="#191970" stroke="#191970" points="330.4071,-46.0389 325.479,-55.4179 335.1803,-51.1592 330.4071,-46.0389"/>
</g>
<!-- Node11 -->
<g id="node6" class="node">
<title>Node11</title>
<g id="a_node6"><a xlink:href="lexer_8cpp.html" target="_top" xlink:title="src/parser/lexer.cpp">
<polygon fill="#ffffff" stroke="#000000" points="442.106,-.5 442.106,-18.5 545.3667,-18.5 545.3667,-.5 442.106,-.5"/>
<text text-anchor="middle" x="493.7363" y="-6.5" font-family="Helvetica,sans-Serif" font-size="10.00" fill="#000000">src/parser/lexer.cpp</text>
</a>
</g>
</g>
<!-- Node6&#45;&gt;Node11 -->
<g id="edge5" class="edge">
<title>Node6&#45;&gt;Node11</title>
<path fill="none" stroke="#191970" d="M354.9355,-52.3879C388.0437,-42.1578 434.7114,-27.7381 464.5954,-18.5042"/>
<polygon fill="#191970" stroke="#191970" points="353.6504,-49.1216 345.1294,-55.4179 355.717,-55.8096 353.6504,-49.1216"/>
</g>
<!-- Node12 -->
<g id="node7" class="node">
<title>Node12</title>
<g id="a_node7"><a xlink:href="typecheck_8cpp.html" target="_top" xlink:title="src/sema/typecheck.cpp">
<polygon fill="#ffffff" stroke="#000000" points="563.1035,-.5 563.1035,-18.5 686.3691,-18.5 686.3691,-.5 563.1035,-.5"/>
<text text-anchor="middle" x="624.7363" y="-6.5" font-family="Helvetica,sans-Serif" font-size="10.00" fill="#000000">src/sema/typecheck.cpp</text>
</a>
</g>
</g>
<!-- Node6&#45;&gt;Node12 -->
<g id="edge6" class="edge">
<title>Node6&#45;&gt;Node12</title>
<path fill="none" stroke="#191970" d="M371.0137,-54.661C428.6083,-44.4095 518.0887,-28.4826 573.9536,-18.539"/>
<polygon fill="#191970" stroke="#191970" points="370.2304,-51.2453 360.9985,-56.4436 371.4571,-58.137 370.2304,-51.2453"/>
</g>
</g>
</svg>
