<?xml version="1.0" encoding="UTF-8" standalone="no"?>
<!DOCTYPE svg PUBLIC "-//W3C//DTD SVG 1.1//EN"
 "http://www.w3.org/Graphics/SVG/1.1/DTD/svg11.dtd">
<!-- Generated by graphviz version 2.40.1 (20161225.0304)
 -->
<!-- Title: src/driver/utility.h Pages: 1 -->
<svg width="350pt" height="137pt"
 viewBox="0.00 0.00 349.63 137.00" xmlns="http://www.w3.org/2000/svg" xmlns:xlink="http://www.w3.org/1999/xlink">
<g id="graph0" class="graph" transform="scale(1 1) rotate(0) translate(4 133)">
<title>src/driver/utility.h</title>
<polygon fill="#ffffff" stroke="transparent" points="-4,4 -4,-133 345.6255,-133 345.6255,4 -4,4"/>
<!-- Node0 -->
<g id="node1" class="node">
<title>Node0</title>
<polygon fill="#bfbfbf" stroke="#000000" points="100.0337,-110.5 100.0337,-128.5 190.311,-128.5 190.311,-110.5 100.0337,-110.5"/>
<text text-anchor="middle" x="145.1724" y="-116.5" font-family="Helvetica,sans-Serif" font-size="10.00" fill="#000000">src/driver/utility.h</text>
</g>
<!-- Node1 -->
<g id="node2" class="node">
<title>Node1</title>
<polygon fill="#ffffff" stroke="#bfbfbf" points="0,-55.5 0,-73.5 54.3447,-73.5 54.3447,-55.5 0,-55.5"/>
<text text-anchor="middle" x="27.1724" y="-61.5" font-family="Helvetica,sans-Serif" font-size="10.00" fill="#000000">iostream</text>
</g>
<!-- Node0&#45;&gt;Node1 -->
<g id="edge1" class="edge">
<title>Node0&#45;&gt;Node1</title>
<path fill="none" stroke="#191970" d="M125.6871,-110.4179C106.6419,-101.5409 77.4302,-87.9253 55.7561,-77.823"/>
<polygon fill="#191970" stroke="#191970" points="57.2291,-74.648 46.6866,-73.5956 54.2718,-80.9927 57.2291,-74.648"/>
</g>
<!-- Node2 -->
<g id="node3" class="node">
<title>Node2</title>
<polygon fill="#ffffff" stroke="#bfbfbf" points="72.5024,-55.5 72.5024,-73.5 121.8423,-73.5 121.8423,-55.5 72.5024,-55.5"/>
<text text-anchor="middle" x="97.1724" y="-61.5" font-family="Helvetica,sans-Serif" font-size="10.00" fill="#000000">fstream</text>
</g>
<!-- Node0&#45;&gt;Node2 -->
<g id="edge2" class="edge">
<title>Node0&#45;&gt;Node2</title>
<path fill="none" stroke="#191970" d="M137.2461,-110.4179C130.4087,-102.5833 120.3498,-91.0575 112.0207,-81.5137"/>
<polygon fill="#191970" stroke="#191970" points="114.4832,-79.0123 105.2708,-73.7795 109.2092,-83.6151 114.4832,-79.0123"/>
</g>
<!-- Node3 -->
<g id="node4" class="node">
<title>Node3</title>
<polygon fill="#ffffff" stroke="#bfbfbf" points="139.4951,-55.5 139.4951,-73.5 248.8496,-73.5 248.8496,-55.5 139.4951,-55.5"/>
<text text-anchor="middle" x="194.1724" y="-61.5" font-family="Helvetica,sans-Serif" font-size="10.00" fill="#000000">llvm/ADT/StringRef.h</text>
</g>
<!-- Node0&#45;&gt;Node3 -->
<g id="edge3" class="edge">
<title>Node0&#45;&gt;Node3</title>
<path fill="none" stroke="#191970" d="M153.2637,-110.4179C160.2436,-102.5833 170.512,-91.0575 179.0147,-81.5137"/>
<polygon fill="#191970" stroke="#191970" points="181.8664,-83.5743 185.9052,-73.7795 176.6398,-78.9178 181.8664,-83.5743"/>
</g>
<!-- Node4 -->
<g id="node5" class="node">
<title>Node4</title>
<g id="a_node5"><a xlink:href="srcloc_8h.html" target="_top" xlink:title="../ast/srcloc.h">
<polygon fill="#ffffff" stroke="#000000" points="266.7192,-55.5 266.7192,-73.5 341.6255,-73.5 341.6255,-55.5 266.7192,-55.5"/>
<text text-anchor="middle" x="304.1724" y="-61.5" font-family="Helvetica,sans-Serif" font-size="10.00" fill="#000000">../ast/srcloc.h</text>
</a>
</g>
</g>
<!-- Node0&#45;&gt;Node4 -->
<g id="edge4" class="edge">
<title>Node0&#45;&gt;Node4</title>
<path fill="none" stroke="#191970" d="M171.428,-110.4179C197.9753,-101.2348 239.1826,-86.9807 268.6405,-76.7909"/>
<polygon fill="#191970" stroke="#191970" points="269.8356,-80.081 278.142,-73.5042 267.5472,-73.4656 269.8356,-80.081"/>
</g>
<!-- Node5 -->
<g id="node6" class="node">
<title>Node5</title>
<polygon fill="#ffffff" stroke="#bfbfbf" points="282.2856,-.5 282.2856,-18.5 326.0591,-18.5 326.0591,-.5 282.2856,-.5"/>
<text text-anchor="middle" x="304.1724" y="-6.5" font-family="Helvetica,sans-Serif" font-size="10.00" fill="#000000">climits</text>
</g>
<!-- Node4&#45;&gt;Node5 -->
<g id="edge5" class="edge">
<title>Node4&#45;&gt;Node5</title>
<path fill="none" stroke="#191970" d="M304.1724,-55.4179C304.1724,-48.2164 304.1724,-37.8962 304.1724,-28.8632"/>
<polygon fill="#191970" stroke="#191970" points="307.6725,-28.7794 304.1724,-18.7795 300.6725,-28.7795 307.6725,-28.7794"/>
</g>
</g>
</svg>
